<?xml version="1.0" encoding="UTF-8" standalone="no"?><svg xmlns="http://www.w3.org/2000/svg" xmlns:xlink="http://www.w3.org/1999/xlink" contentScriptType="application/ecmascript" contentStyleType="text/css" height="331px" preserveAspectRatio="none" style="width:1569px;height:331px;background:#FFFFFF;" version="1.1" viewBox="0 0 1569 331" width="1569px" zoomAndPan="magnify"><defs><filter height="300%" id="fbxh48aekycrv" width="300%" x="-1" y="-1"><feGaussianBlur result="blurOut" stdDeviation="2.0"/><feColorMatrix in="blurOut" result="blurOut2" type="matrix" values="0 0 0 0 0 0 0 0 0 0 0 0 0 0 0 0 0 0 .4 0"/><feOffset dx="4.0" dy="4.0" in="blurOut2" result="blurOut3"/><feBlend in="SourceGraphic" in2="blurOut3" mode="normal"/></filter></defs><g><!--MD5=[0ce99cd3eae675f87caad727cac20a4b]
cluster CERIF core--><polygon fill="#EFEFEF" filter="url(#fbxh48aekycrv)" points="589.5,6,679.5,6,686.5,28.2969,929.5,28.2969,929.5,105,589.5,105,589.5,6" style="stroke:#000000;stroke-width:1.5;"/><line style="stroke:#000000;stroke-width:1.5;" x1="589.5" x2="686.5" y1="28.2969" y2="28.2969"/><text fill="#000000" font-family="sans-serif" font-size="14" font-weight="bold" lengthAdjust="spacing" textLength="84" x="593.5" y="20.9951">CERIF core</text><!--MD5=[05b685b8e32e000146d4e5203ae16c64]
class Textual Document Accessibility Specification--><rect codeLine="11" fill="#FEFECE" filter="url(#fbxh48aekycrv)" height="48" id="Textual Document Accessibility Specification" style="stroke:#A80036;stroke-width:1.5;" width="308" x="605.5" y="41"/><ellipse cx="620.5" cy="57" fill="#ADD1B2" rx="11" ry="11" style="stroke:#A80036;stroke-width:1.0;"/><path d="M623.4688,62.6406 Q622.8906,62.9375 622.25,63.0781 Q621.6094,63.2344 620.9063,63.2344 Q618.4063,63.2344 617.0781,61.5938 Q615.7656,59.9375 615.7656,56.8125 Q615.7656,53.6875 617.0781,52.0313 Q618.4063,50.375 620.9063,50.375 Q621.6094,50.375 622.25,50.5313 Q622.9063,50.6875 623.4688,50.9844 L623.4688,53.7031 Q622.8438,53.125 622.25,52.8594 Q621.6563,52.5781 621.0313,52.5781 Q619.6875,52.5781 619,53.6563 Q618.3125,54.7188 618.3125,56.8125 Q618.3125,58.9063 619,59.9844 Q619.6875,61.0469 621.0313,61.0469 Q621.6563,61.0469 622.25,60.7813 Q622.8438,60.5 623.4688,59.9219 L623.4688,62.6406 Z " fill="#000000"/><text fill="#000000" font-family="sans-serif" font-size="12" lengthAdjust="spacing" textLength="276" x="634.5" y="61.1543">Textual Document Accessibility Specification</text><line style="stroke:#A80036;stroke-width:1.5;" x1="606.5" x2="912.5" y1="73" y2="73"/><line style="stroke:#A80036;stroke-width:1.5;" x1="606.5" x2="912.5" y1="81" y2="81"/><!--MD5=[83016dab062ea9db9c90137aa1baa88d]
class COAR Accessibility Specification v1--><rect codeLine="5" fill="#FEFECE" filter="url(#fbxh48aekycrv)" height="48" id="COAR Accessibility Specification v1" style="stroke:#A80036;stroke-width:1.5;" width="246" x="636.5" y="149"/><ellipse cx="651.5" cy="165" fill="#ADD1B2" rx="11" ry="11" style="stroke:#A80036;stroke-width:1.0;"/><path d="M654.4688,170.6406 Q653.8906,170.9375 653.25,171.0781 Q652.6094,171.2344 651.9063,171.2344 Q649.4063,171.2344 648.0781,169.5938 Q646.7656,167.9375 646.7656,164.8125 Q646.7656,161.6875 648.0781,160.0313 Q649.4063,158.375 651.9063,158.375 Q652.6094,158.375 653.25,158.5313 Q653.9063,158.6875 654.4688,158.9844 L654.4688,161.7031 Q653.8438,161.125 653.25,160.8594 Q652.6563,160.5781 652.0313,160.5781 Q650.6875,160.5781 650,161.6563 Q649.3125,162.7188 649.3125,164.8125 Q649.3125,166.9063 650,167.9844 Q650.6875,169.0469 652.0313,169.0469 Q652.6563,169.0469 653.25,168.7813 Q653.8438,168.5 654.4688,167.9219 L654.4688,170.6406 Z " fill="#000000"/><text fill="#000000" font-family="sans-serif" font-size="12" lengthAdjust="spacing" textLength="214" x="665.5" y="169.1543">COAR Accessibility Specification v1</text><line style="stroke:#A80036;stroke-width:1.5;" x1="637.5" x2="881.5" y1="181" y2="181"/><line style="stroke:#A80036;stroke-width:1.5;" x1="637.5" x2="881.5" y1="189" y2="189"/><!--MD5=[8e2d9148f5fef196b5e6b3f60771e14c]
class Open Access COAR v1 Accessibility Specification--><rect codeLine="7" fill="#FEFECE" filter="url(#fbxh48aekycrv)" height="48" id="Open Access COAR v1 Accessibility Specification" style="stroke:#A80036;stroke-width:1.5;" width="331" x="7" y="263.5"/><ellipse cx="22" cy="279.5" fill="#ADD1B2" rx="11" ry="11" style="stroke:#A80036;stroke-width:1.0;"/><path d="M24.9688,285.1406 Q24.3906,285.4375 23.75,285.5781 Q23.1094,285.7344 22.4063,285.7344 Q19.9063,285.7344 18.5781,284.0938 Q17.2656,282.4375 17.2656,279.3125 Q17.2656,276.1875 18.5781,274.5313 Q19.9063,272.875 22.4063,272.875 Q23.1094,272.875 23.75,273.0313 Q24.4063,273.1875 24.9688,273.4844 L24.9688,276.2031 Q24.3438,275.625 23.75,275.3594 Q23.1563,275.0781 22.5313,275.0781 Q21.1875,275.0781 20.5,276.1563 Q19.8125,277.2188 19.8125,279.3125 Q19.8125,281.4063 20.5,282.4844 Q21.1875,283.5469 22.5313,283.5469 Q23.1563,283.5469 23.75,283.2813 Q24.3438,283 24.9688,282.4219 L24.9688,285.1406 Z " fill="#000000"/><text fill="#000000" font-family="sans-serif" font-size="12" lengthAdjust="spacing" textLength="299" x="36" y="283.6543">Open Access COAR v1 Accessibility Specification</text><line style="stroke:#A80036;stroke-width:1.5;" x1="8" x2="337" y1="295.5" y2="295.5"/><line style="stroke:#A80036;stroke-width:1.5;" x1="8" x2="337" y1="303.5" y2="303.5"/><!--MD5=[0fa6d1de8cc235b8de38183f87069c57]
class Restricted Access COAR v1 Accessibility Specification--><rect codeLine="9" fill="#FEFECE" filter="url(#fbxh48aekycrv)" height="48" id="Restricted Access COAR v1 Accessibility Specification" style="stroke:#A80036;stroke-width:1.5;" width="362" x="373.5" y="263.5"/><ellipse cx="388.5" cy="279.5" fill="#ADD1B2" rx="11" ry="11" style="stroke:#A80036;stroke-width:1.0;"/><path d="M391.4688,285.1406 Q390.8906,285.4375 390.25,285.5781 Q389.6094,285.7344 388.9063,285.7344 Q386.4063,285.7344 385.0781,284.0938 Q383.7656,282.4375 383.7656,279.3125 Q383.7656,276.1875 385.0781,274.5313 Q386.4063,272.875 388.9063,272.875 Q389.6094,272.875 390.25,273.0313 Q390.9063,273.1875 391.4688,273.4844 L391.4688,276.2031 Q390.8438,275.625 390.25,275.3594 Q389.6563,275.0781 389.0313,275.0781 Q387.6875,275.0781 387,276.1563 Q386.3125,277.2188 386.3125,279.3125 Q386.3125,281.4063 387,282.4844 Q387.6875,283.5469 389.0313,283.5469 Q389.6563,283.5469 390.25,283.2813 Q390.8438,283 391.4688,282.4219 L391.4688,285.1406 Z " fill="#000000"/><text fill="#000000" font-family="sans-serif" font-size="12" lengthAdjust="spacing" textLength="330" x="402.5" y="283.6543">Restricted Access COAR v1 Accessibility Specification</text><line style="stroke:#A80036;stroke-width:1.5;" x1="374.5" x2="734.5" y1="295.5" y2="295.5"/><line style="stroke:#A80036;stroke-width:1.5;" x1="374.5" x2="734.5" y1="303.5" y2="303.5"/><!--MD5=[40e5a76bd5f95d613b60caa2573fda88]
class Metadata Only Access COAR v1 Accessibility Specification--><rect codeLine="11" fill="#FEFECE" filter="url(#fbxh48aekycrv)" height="48" id="Metadata Only Access COAR v1 Accessibility Specification" style="stroke:#A80036;stroke-width:1.5;" width="388" x="770.5" y="263.5"/><ellipse cx="785.5" cy="279.5" fill="#ADD1B2" rx="11" ry="11" style="stroke:#A80036;stroke-width:1.0;"/><path d="M788.4688,285.1406 Q787.8906,285.4375 787.25,285.5781 Q786.6094,285.7344 785.9063,285.7344 Q783.4063,285.7344 782.0781,284.0938 Q780.7656,282.4375 780.7656,279.3125 Q780.7656,276.1875 782.0781,274.5313 Q783.4063,272.875 785.9063,272.875 Q786.6094,272.875 787.25,273.0313 Q787.9063,273.1875 788.4688,273.4844 L788.4688,276.2031 Q787.8438,275.625 787.25,275.3594 Q786.6563,275.0781 786.0313,275.0781 Q784.6875,275.0781 784,276.1563 Q783.3125,277.2188 783.3125,279.3125 Q783.3125,281.4063 784,282.4844 Q784.6875,283.5469 786.0313,283.5469 Q786.6563,283.5469 787.25,283.2813 Q787.8438,283 788.4688,282.4219 L788.4688,285.1406 Z " fill="#000000"/><text fill="#000000" font-family="sans-serif" font-size="12" lengthAdjust="spacing" textLength="356" x="799.5" y="283.6543">Metadata Only Access COAR v1 Accessibility Specification</text><line style="stroke:#A80036;stroke-width:1.5;" x1="771.5" x2="1157.5" y1="295.5" y2="295.5"/><line style="stroke:#A80036;stroke-width:1.5;" x1="771.5" x2="1157.5" y1="303.5" y2="303.5"/><!--MD5=[1873dee8a77f576f04be450538d66937]
class Emargoed Access COAR v1 Accessibility Specification--><rect codeLine="13" fill="#FEFECE" filter="url(#fbxh48aekycrv)" height="60.8047" id="Emargoed Access COAR v1 Accessibility Specification" style="stroke:#A80036;stroke-width:1.5;" width="362" x="1193.5" y="257"/><ellipse cx="1208.5" cy="273" fill="#ADD1B2" rx="11" ry="11" style="stroke:#A80036;stroke-width:1.0;"/><path d="M1211.4688,278.6406 Q1210.8906,278.9375 1210.25,279.0781 Q1209.6094,279.2344 1208.9063,279.2344 Q1206.4063,279.2344 1205.0781,277.5938 Q1203.7656,275.9375 1203.7656,272.8125 Q1203.7656,269.6875 1205.0781,268.0313 Q1206.4063,266.375 1208.9063,266.375 Q1209.6094,266.375 1210.25,266.5313 Q1210.9063,266.6875 1211.4688,266.9844 L1211.4688,269.7031 Q1210.8438,269.125 1210.25,268.8594 Q1209.6563,268.5781 1209.0313,268.5781 Q1207.6875,268.5781 1207,269.6563 Q1206.3125,270.7188 1206.3125,272.8125 Q1206.3125,274.9063 1207,275.9844 Q1207.6875,277.0469 1209.0313,277.0469 Q1209.6563,277.0469 1210.25,276.7813 Q1210.8438,276.5 1211.4688,275.9219 L1211.4688,278.6406 Z " fill="#000000"/><text fill="#000000" font-family="sans-serif" font-size="12" lengthAdjust="spacing" textLength="330" x="1222.5" y="277.1543">Emargoed Access COAR v1 Accessibility Specification</text><line style="stroke:#A80036;stroke-width:1.5;" x1="1194.5" x2="1554.5" y1="289" y2="289"/><text fill="#000000" font-family="sans-serif" font-size="11" lengthAdjust="spacing" textLength="128" x="1199.5" y="303.2104">Date embargoEndDate</text><line style="stroke:#A80036;stroke-width:1.5;" x1="1194.5" x2="1554.5" y1="309.8047" y2="309.8047"/><!--MD5=[2bc5004f8162db45f8eeae8c2fe00ed4]
reverse link Textual Document Accessibility Specification to COAR Accessibility Specification v1--><path codeLine="73" d="M759.5,109.02 C759.5,122.58 759.5,137.04 759.5,148.68 " fill="none" id="Textual Document Accessibility Specification-backto-COAR Accessibility Specification v1" style="stroke:#A80036;stroke-width:1.0;"/><polygon fill="none" points="752.5,109,759.5,89,766.5,109,752.5,109" style="stroke:#A80036;stroke-width:1.0;"/><!--MD5=[a09d85fe4f36cd22cc92353493c6eb07]
reverse link COAR Accessibility Specification v1 to Open Access COAR v1 Accessibility Specification--><path codeLine="76" d="M619.51,200.83 C519.86,219.93 387.37,245.32 292.54,263.49 " fill="none" id="COAR Accessibility Specification v1-backto-Open Access COAR v1 Accessibility Specification" style="stroke:#A80036;stroke-width:1.0;"/><polygon fill="none" points="618.34,193.93,639.3,197.04,620.97,207.68,618.34,193.93" style="stroke:#A80036;stroke-width:1.0;"/><!--MD5=[3d139d98b1f30e2e510d4f2f95a57285]
reverse link COAR Accessibility Specification v1 to Restricted Access COAR v1 Accessibility Specification--><path codeLine="79" d="M699.95,206.68 C666.77,224.89 626.26,247.12 596.42,263.49 " fill="none" id="COAR Accessibility Specification v1-backto-Restricted Access COAR v1 Accessibility Specification" style="stroke:#A80036;stroke-width:1.0;"/><polygon fill="none" points="696.62,200.52,717.52,197.04,703.35,212.8,696.62,200.52" style="stroke:#A80036;stroke-width:1.0;"/><!--MD5=[7d0310e2bc8bb025f7290c67331620f8]
reverse link COAR Accessibility Specification v1 to Emargoed Access COAR v1 Accessibility Specification--><path codeLine="82" d="M902.52,200.16 C995.44,217.16 1116.76,239.35 1213.13,256.98 " fill="none" id="COAR Accessibility Specification v1-backto-Emargoed Access COAR v1 Accessibility Specification" style="stroke:#A80036;stroke-width:1.0;"/><polygon fill="none" points="901.26,207.05,882.85,196.56,903.78,193.28,901.26,207.05" style="stroke:#A80036;stroke-width:1.0;"/><!--MD5=[f394498696ed2f6e1eadccd084636f24]
reverse link COAR Accessibility Specification v1 to Metadata Only Access COAR v1 Accessibility Specification--><path codeLine="85" d="M819.05,206.68 C852.23,224.89 892.74,247.12 922.58,263.49 " fill="none" id="COAR Accessibility Specification v1-backto-Metadata Only Access COAR v1 Accessibility Specification" style="stroke:#A80036;stroke-width:1.0;"/><polygon fill="none" points="815.65,212.8,801.48,197.04,822.38,200.52,815.65,212.8" style="stroke:#A80036;stroke-width:1.0;"/><!--MD5=[271358e5671c86087d3f8a582b8abaaa]
@startuml
package "CERIF core" #EFEFEF{
    !includesub ./core.puml!TDAS
}

    !includesub ./module.puml!Coar
@enduml

@startuml
package "CERIF core" #EFEFEF{
    class "Textual Document Accessibility Specification"{
    }
}

    class "COAR Accessibility Specification v1"

    class "Open Access COAR v1 Accessibility Specification"

    class "Restricted Access COAR v1 Accessibility Specification"

    class "Metadata Only Access COAR v1 Accessibility Specification"

    class "Emargoed Access COAR v1 Accessibility Specification"{
        Date embargoEndDate
    }
    "Textual Document Accessibility Specification" <|- - "COAR Accessibility Specification v1"
    "COAR Accessibility Specification v1" <|- - "Open Access COAR v1 Accessibility Specification"
    "COAR Accessibility Specification v1" <|- - "Restricted Access COAR v1 Accessibility Specification"
    "COAR Accessibility Specification v1" <|- - "Emargoed Access COAR v1 Accessibility Specification"
    "COAR Accessibility Specification v1" <|- - "Metadata Only Access COAR v1 Accessibility Specification"
@enduml

PlantUML version 1.2021.8(Sat Jun 26 08:20:59 UTC 2021)
(GPL source distribution)
Java Runtime: OpenJDK Runtime Environment
JVM: OpenJDK 64-Bit Server VM
Default Encoding: UTF-8
Language: en
Country: null
--></g></svg>