<?xml version="1.0" encoding="UTF-8" standalone="no"?><svg xmlns="http://www.w3.org/2000/svg" xmlns:xlink="http://www.w3.org/1999/xlink" contentScriptType="application/ecmascript" contentStyleType="text/css" height="386px" preserveAspectRatio="none" style="width:1698px;height:386px;background:#FFFFFF;" version="1.1" viewBox="0 0 1698 386" width="1698px" zoomAndPan="magnify"><defs><filter height="300%" id="f1dam5ggphgrsx" width="300%" x="-1" y="-1"><feGaussianBlur result="blurOut" stdDeviation="2.0"/><feColorMatrix in="blurOut" result="blurOut2" type="matrix" values="0 0 0 0 0 0 0 0 0 0 0 0 0 0 0 0 0 0 .4 0"/><feOffset dx="4.0" dy="4.0" in="blurOut2" result="blurOut3"/><feBlend in="SourceGraphic" in2="blurOut3" mode="normal"/></filter></defs><g><!--MD5=[59b530d44ae785dc18db921986a9c15c]
class Document--><rect codeLine="312" fill="#FFFFFF" filter="url(#f1dam5ggphgrsx)" height="65.6094" id="Document" style="stroke:#A80036;stroke-width:1.5;" width="148" x="377.5" y="7"/><ellipse cx="415.9" cy="23" fill="#ADD1B2" rx="11" ry="11" style="stroke:#A80036;stroke-width:1.0;"/><path d="M418.8688,28.6406 Q418.2906,28.9375 417.65,29.0781 Q417.0094,29.2344 416.3063,29.2344 Q413.8063,29.2344 412.4781,27.5938 Q411.1656,25.9375 411.1656,22.8125 Q411.1656,19.6875 412.4781,18.0313 Q413.8063,16.375 416.3063,16.375 Q417.0094,16.375 417.65,16.5313 Q418.3063,16.6875 418.8688,16.9844 L418.8688,19.7031 Q418.2438,19.125 417.65,18.8594 Q417.0563,18.5781 416.4313,18.5781 Q415.0875,18.5781 414.4,19.6563 Q413.7125,20.7188 413.7125,22.8125 Q413.7125,24.9063 414.4,25.9844 Q415.0875,27.0469 416.4313,27.0469 Q417.0563,27.0469 417.65,26.7813 Q418.2438,26.5 418.8688,25.9219 L418.8688,28.6406 Z " fill="#000000"/><text fill="#000000" font-family="sans-serif" font-size="12" lengthAdjust="spacing" textLength="64" x="435.1" y="27.1543">Document</text><line style="stroke:#A80036;stroke-width:1.5;" x1="378.5" x2="524.5" y1="39" y2="39"/><text fill="#000000" font-family="sans-serif" font-size="11" lengthAdjust="spacing" textLength="136" x="383.5" y="53.2104">title : Multilingual_String</text><text fill="#000000" font-family="sans-serif" font-size="11" lengthAdjust="spacing" textLength="125" x="383.5" y="66.0151">publicationDate : Date</text><!--MD5=[63653625e761dfa0b192a72ef49a851b]
class Scholarly_Publication--><rect codeLine="5" fill="#DDEEDD" filter="url(#f1dam5ggphgrsx)" height="32" id="Scholarly_Publication" style="stroke:#A80036;stroke-width:1.5;" width="163" x="370" y="134"/><ellipse cx="385" cy="150" fill="#ADD1B2" rx="11" ry="11" style="stroke:#A80036;stroke-width:1.0;"/><path d="M387.9688,155.6406 Q387.3906,155.9375 386.75,156.0781 Q386.1094,156.2344 385.4063,156.2344 Q382.9063,156.2344 381.5781,154.5938 Q380.2656,152.9375 380.2656,149.8125 Q380.2656,146.6875 381.5781,145.0313 Q382.9063,143.375 385.4063,143.375 Q386.1094,143.375 386.75,143.5313 Q387.4063,143.6875 387.9688,143.9844 L387.9688,146.7031 Q387.3438,146.125 386.75,145.8594 Q386.1563,145.5781 385.5313,145.5781 Q384.1875,145.5781 383.5,146.6563 Q382.8125,147.7188 382.8125,149.8125 Q382.8125,151.9063 383.5,152.9844 Q384.1875,154.0469 385.5313,154.0469 Q386.1563,154.0469 386.75,153.7813 Q387.3438,153.5 387.9688,152.9219 L387.9688,155.6406 Z " fill="#000000"/><text fill="#000000" font-family="sans-serif" font-size="12" lengthAdjust="spacing" textLength="131" x="399" y="154.1543">Scholarly_Publication</text><!--MD5=[d0c6e1e4ef100787ee5f48dc645ddd7b]
class Scholarly_Publication_Accessibility_Specification--><rect codeLine="14" fill="#DDEEDD" filter="url(#f1dam5ggphgrsx)" height="32" id="Scholarly_Publication_Accessibility_Specification" style="stroke:#A80036;stroke-width:1.5;" width="330" x="653.5" y="134"/><ellipse cx="668.5" cy="150" fill="#ADD1B2" rx="11" ry="11" style="stroke:#A80036;stroke-width:1.0;"/><path d="M671.4688,155.6406 Q670.8906,155.9375 670.25,156.0781 Q669.6094,156.2344 668.9063,156.2344 Q666.4063,156.2344 665.0781,154.5938 Q663.7656,152.9375 663.7656,149.8125 Q663.7656,146.6875 665.0781,145.0313 Q666.4063,143.375 668.9063,143.375 Q669.6094,143.375 670.25,143.5313 Q670.9063,143.6875 671.4688,143.9844 L671.4688,146.7031 Q670.8438,146.125 670.25,145.8594 Q669.6563,145.5781 669.0313,145.5781 Q667.6875,145.5781 667,146.6563 Q666.3125,147.7188 666.3125,149.8125 Q666.3125,151.9063 667,152.9844 Q667.6875,154.0469 669.0313,154.0469 Q669.6563,154.0469 670.25,153.7813 Q670.8438,153.5 671.4688,152.9219 L671.4688,155.6406 Z " fill="#000000"/><text fill="#000000" font-family="sans-serif" font-size="12" lengthAdjust="spacing" textLength="298" x="682.5" y="154.1543">Scholarly_Publication_Accessibility_Specification</text><!--MD5=[f12ff41bbb7d9ebef6ddcefb1fe7e9d1]
class COAR_Accessibility_Specification_v_1_0--><rect codeLine="45" fill="#DDEEDD" filter="url(#f1dam5ggphgrsx)" height="32" id="COAR_Accessibility_Specification_v_1_0" style="stroke:#A80036;stroke-width:1.5;" width="272" x="682.5" y="227"/><ellipse cx="697.5" cy="243" fill="#ADD1B2" rx="11" ry="11" style="stroke:#A80036;stroke-width:1.0;"/><path d="M700.4688,248.6406 Q699.8906,248.9375 699.25,249.0781 Q698.6094,249.2344 697.9063,249.2344 Q695.4063,249.2344 694.0781,247.5938 Q692.7656,245.9375 692.7656,242.8125 Q692.7656,239.6875 694.0781,238.0313 Q695.4063,236.375 697.9063,236.375 Q698.6094,236.375 699.25,236.5313 Q699.9063,236.6875 700.4688,236.9844 L700.4688,239.7031 Q699.8438,239.125 699.25,238.8594 Q698.6563,238.5781 698.0313,238.5781 Q696.6875,238.5781 696,239.6563 Q695.3125,240.7188 695.3125,242.8125 Q695.3125,244.9063 696,245.9844 Q696.6875,247.0469 698.0313,247.0469 Q698.6563,247.0469 699.25,246.7813 Q699.8438,246.5 700.4688,245.9219 L700.4688,248.6406 Z " fill="#000000"/><text fill="#000000" font-family="sans-serif" font-size="12" lengthAdjust="spacing" textLength="240" x="711.5" y="247.1543">COAR_Accessibility_Specification_v_1_0</text><!--MD5=[567ef3e625e043ce4773b865b8fbf1ca]
class Open_Access_COAR_Accessibility_Specification_v_1_0--><rect codeLine="47" fill="#DDEEDD" filter="url(#f1dam5ggphgrsx)" height="32" id="Open_Access_COAR_Accessibility_Specification_v_1_0" style="stroke:#A80036;stroke-width:1.5;" width="361" x="7" y="330.5"/><ellipse cx="22" cy="346.5" fill="#ADD1B2" rx="11" ry="11" style="stroke:#A80036;stroke-width:1.0;"/><path d="M24.9688,352.1406 Q24.3906,352.4375 23.75,352.5781 Q23.1094,352.7344 22.4063,352.7344 Q19.9063,352.7344 18.5781,351.0938 Q17.2656,349.4375 17.2656,346.3125 Q17.2656,343.1875 18.5781,341.5313 Q19.9063,339.875 22.4063,339.875 Q23.1094,339.875 23.75,340.0313 Q24.4063,340.1875 24.9688,340.4844 L24.9688,343.2031 Q24.3438,342.625 23.75,342.3594 Q23.1563,342.0781 22.5313,342.0781 Q21.1875,342.0781 20.5,343.1563 Q19.8125,344.2188 19.8125,346.3125 Q19.8125,348.4063 20.5,349.4844 Q21.1875,350.5469 22.5313,350.5469 Q23.1563,350.5469 23.75,350.2813 Q24.3438,350 24.9688,349.4219 L24.9688,352.1406 Z " fill="#000000"/><text fill="#000000" font-family="sans-serif" font-size="12" lengthAdjust="spacing" textLength="329" x="36" y="350.6543">Open_Access_COAR_Accessibility_Specification_v_1_0</text><!--MD5=[7efd30c4d99bfde4723edca35210fb43]
class Restricted_Access_COAR_Accessibility_Specification_v_1_0--><rect codeLine="49" fill="#DDEEDD" filter="url(#f1dam5ggphgrsx)" height="32" id="Restricted_Access_COAR_Accessibility_Specification_v_1_0" style="stroke:#A80036;stroke-width:1.5;" width="392" x="402.5" y="330.5"/><ellipse cx="417.5" cy="346.5" fill="#ADD1B2" rx="11" ry="11" style="stroke:#A80036;stroke-width:1.0;"/><path d="M420.4688,352.1406 Q419.8906,352.4375 419.25,352.5781 Q418.6094,352.7344 417.9063,352.7344 Q415.4063,352.7344 414.0781,351.0938 Q412.7656,349.4375 412.7656,346.3125 Q412.7656,343.1875 414.0781,341.5313 Q415.4063,339.875 417.9063,339.875 Q418.6094,339.875 419.25,340.0313 Q419.9063,340.1875 420.4688,340.4844 L420.4688,343.2031 Q419.8438,342.625 419.25,342.3594 Q418.6563,342.0781 418.0313,342.0781 Q416.6875,342.0781 416,343.1563 Q415.3125,344.2188 415.3125,346.3125 Q415.3125,348.4063 416,349.4844 Q416.6875,350.5469 418.0313,350.5469 Q418.6563,350.5469 419.25,350.2813 Q419.8438,350 420.4688,349.4219 L420.4688,352.1406 Z " fill="#000000"/><text fill="#000000" font-family="sans-serif" font-size="12" lengthAdjust="spacing" textLength="360" x="431.5" y="350.6543">Restricted_Access_COAR_Accessibility_Specification_v_1_0</text><!--MD5=[bc29f6d8f9036b9993cac98835682f0a]
class Metadata_Only_Access_COAR_Accessibility_Specification_v_1_0--><rect codeLine="51" fill="#DDEEDD" filter="url(#f1dam5ggphgrsx)" height="32" id="Metadata_Only_Access_COAR_Accessibility_Specification_v_1_0" style="stroke:#A80036;stroke-width:1.5;" width="420" x="829.5" y="330.5"/><ellipse cx="844.5" cy="346.5" fill="#ADD1B2" rx="11" ry="11" style="stroke:#A80036;stroke-width:1.0;"/><path d="M847.4688,352.1406 Q846.8906,352.4375 846.25,352.5781 Q845.6094,352.7344 844.9063,352.7344 Q842.4063,352.7344 841.0781,351.0938 Q839.7656,349.4375 839.7656,346.3125 Q839.7656,343.1875 841.0781,341.5313 Q842.4063,339.875 844.9063,339.875 Q845.6094,339.875 846.25,340.0313 Q846.9063,340.1875 847.4688,340.4844 L847.4688,343.2031 Q846.8438,342.625 846.25,342.3594 Q845.6563,342.0781 845.0313,342.0781 Q843.6875,342.0781 843,343.1563 Q842.3125,344.2188 842.3125,346.3125 Q842.3125,348.4063 843,349.4844 Q843.6875,350.5469 845.0313,350.5469 Q845.6563,350.5469 846.25,350.2813 Q846.8438,350 847.4688,349.4219 L847.4688,352.1406 Z " fill="#000000"/><text fill="#000000" font-family="sans-serif" font-size="12" lengthAdjust="spacing" textLength="388" x="858.5" y="350.6543">Metadata_Only_Access_COAR_Accessibility_Specification_v_1_0</text><!--MD5=[672f93270b27cd238c89cfb531a48885]
class Embargoed_Access_COAR_Accessibility_Specification_v_1_0--><rect codeLine="53" fill="#DDEEDD" filter="url(#f1dam5ggphgrsx)" height="52.8047" id="Embargoed_Access_COAR_Accessibility_Specification_v_1_0" style="stroke:#A80036;stroke-width:1.5;" width="400" x="1284.5" y="320"/><ellipse cx="1299.5" cy="336" fill="#ADD1B2" rx="11" ry="11" style="stroke:#A80036;stroke-width:1.0;"/><path d="M1302.4688,341.6406 Q1301.8906,341.9375 1301.25,342.0781 Q1300.6094,342.2344 1299.9063,342.2344 Q1297.4063,342.2344 1296.0781,340.5938 Q1294.7656,338.9375 1294.7656,335.8125 Q1294.7656,332.6875 1296.0781,331.0313 Q1297.4063,329.375 1299.9063,329.375 Q1300.6094,329.375 1301.25,329.5313 Q1301.9063,329.6875 1302.4688,329.9844 L1302.4688,332.7031 Q1301.8438,332.125 1301.25,331.8594 Q1300.6563,331.5781 1300.0313,331.5781 Q1298.6875,331.5781 1298,332.6563 Q1297.3125,333.7188 1297.3125,335.8125 Q1297.3125,337.9063 1298,338.9844 Q1298.6875,340.0469 1300.0313,340.0469 Q1300.6563,340.0469 1301.25,339.7813 Q1301.8438,339.5 1302.4688,338.9219 L1302.4688,341.6406 Z " fill="#000000"/><text fill="#000000" font-family="sans-serif" font-size="12" lengthAdjust="spacing" textLength="368" x="1313.5" y="340.1543">Embargoed_Access_COAR_Accessibility_Specification_v_1_0</text><line style="stroke:#A80036;stroke-width:1.5;" x1="1285.5" x2="1683.5" y1="352" y2="352"/><text fill="#000000" font-family="sans-serif" font-size="11" lengthAdjust="spacing" textLength="136" x="1290.5" y="366.2104">embargoEndDate : Date</text><!--MD5=[9373bd5d5c413819ce8399fe055a7522]
link Document to Document--><path codeLine="317" d="M525.63,34.23 C545.45,34.55 560.5,36.47 560.5,40 C560.5,43.53 545.45,45.45 525.63,45.77 " fill="none" id="Document-Document" style="stroke:#A80036;stroke-width:1.0;"/><polygon fill="#000000" points="565.5807,45.0658,568.3732,35.9744,562.4962,36.0693,565.5807,45.0658" style="stroke:#000000;stroke-width:1.0;"/><text fill="#000000" font-family="sans-serif" font-size="13" lengthAdjust="spacing" textLength="56" x="579.5" y="44.5669">is part of</text><text fill="#000000" font-family="sans-serif" font-size="13" lengthAdjust="spacing" textLength="23" x="533.524" y="46.4805">0..*</text><text fill="#000000" font-family="sans-serif" font-size="13" lengthAdjust="spacing" textLength="23" x="533.524" y="59.0843">0..*</text><!--MD5=[9373bd5d5c413819ce8399fe055a7522]
link Document to Document--><path codeLine="319" d="M525.73,29.45 C581.07,26.37 641.5,29.89 641.5,40 C641.5,50.11 581.07,53.63 525.73,50.55 " fill="none" id="Document-Document-1" style="stroke:#A80036;stroke-width:1.0;"/><polygon fill="#000000" points="646.2222,45.0587,649.6592,36.1909,643.7904,35.8643,646.2222,45.0587" style="stroke:#000000;stroke-width:1.0;"/><text fill="#000000" font-family="sans-serif" font-size="13" lengthAdjust="spacing" textLength="164" x="660.5" y="44.5669">another representation of</text><text fill="#000000" font-family="sans-serif" font-size="13" lengthAdjust="spacing" textLength="23" x="533.6332" y="24.877">0..*</text><text fill="#000000" font-family="sans-serif" font-size="13" lengthAdjust="spacing" textLength="23" x="533.6332" y="64.305">0..*</text><!--MD5=[c8d1862492c5b5e25951e586acc2f1e2]
reverse link Document to Scholarly_Publication--><path codeLine="10" d="M451.5,93.25 C451.5,108.16 451.5,123.25 451.5,133.97 " fill="none" id="Document-backto-Scholarly_Publication" style="stroke:#A80036;stroke-width:1.0;"/><polygon fill="none" points="444.5,93.11,451.5,73.11,458.5,93.11,444.5,93.11" style="stroke:#A80036;stroke-width:1.0;"/><!--MD5=[51b12c7ca699c2e668d0833309b7d392]
reverse link Scholarly_Publication to Scholarly_Publication_Accessibility_Specification--><path codeLine="19" d="M546.61,150 C579.27,150 616.83,150 653.41,150 " fill="none" id="Scholarly_Publication-backto-Scholarly_Publication_Accessibility_Specification" style="stroke:#A80036;stroke-width:1.0;"/><polygon fill="#A80036" points="533.41,150,539.41,154,545.41,150,539.41,146,533.41,150" style="stroke:#A80036;stroke-width:1.0;"/><polygon fill="#000000" points="560.25,138.5664,551.2049,135.6275,551.2049,141.5053,560.25,138.5664" style="stroke:#000000;stroke-width:1.0;"/><text fill="#000000" font-family="sans-serif" font-size="13" lengthAdjust="spacing" textLength="71" x="564.25" y="143.0669">has access</text><text fill="#000000" font-family="sans-serif" font-size="13" lengthAdjust="spacing" textLength="23" x="622.4083" y="162.4097">0..*</text><!--MD5=[3ea48d67e36ed7c738313eb3d6c3c111]
reverse link Scholarly_Publication_Accessibility_Specification to COAR_Accessibility_Specification_v_1_0--><path codeLine="208" d="M818.5,186.24 C818.5,200.36 818.5,215.88 818.5,226.95 " fill="none" id="Scholarly_Publication_Accessibility_Specification-backto-COAR_Accessibility_Specification_v_1_0" style="stroke:#A80036;stroke-width:1.0;"/><polygon fill="none" points="811.5,186.03,818.5,166.03,825.5,186.03,811.5,186.03" style="stroke:#A80036;stroke-width:1.0;"/><!--MD5=[48d8db2658d41d9bf111391bfbde6ace]
reverse link COAR_Accessibility_Specification_v_1_0 to Open_Access_COAR_Accessibility_Specification_v_1_0--><path codeLine="211" d="M705.1,262.24 C583.85,281.75 393.82,312.31 280.88,330.48 " fill="none" id="COAR_Accessibility_Specification_v_1_0-backto-Open_Access_COAR_Accessibility_Specification_v_1_0" style="stroke:#A80036;stroke-width:1.0;"/><polygon fill="none" points="704.2,255.3,725.05,259.03,706.42,269.12,704.2,255.3" style="stroke:#A80036;stroke-width:1.0;"/><!--MD5=[56ecf441ee1e667d8dc1e473b0383da8]
reverse link COAR_Accessibility_Specification_v_1_0 to Restricted_Access_COAR_Accessibility_Specification_v_1_0--><path codeLine="214" d="M767.28,267.63 C725.33,286.98 667.24,313.79 631.3,330.37 " fill="none" id="COAR_Accessibility_Specification_v_1_0-backto-Restricted_Access_COAR_Accessibility_Specification_v_1_0" style="stroke:#A80036;stroke-width:1.0;"/><polygon fill="none" points="764.47,261.22,785.56,259.2,770.34,273.93,764.47,261.22" style="stroke:#A80036;stroke-width:1.0;"/><!--MD5=[f04512163083def2c2549cb3b954987d]
reverse link COAR_Accessibility_Specification_v_1_0 to Embargoed_Access_COAR_Accessibility_Specification_v_1_0--><path codeLine="217" d="M936.91,262.05 C1042.56,278.15 1198.43,301.9 1316.87,319.95 " fill="none" id="COAR_Accessibility_Specification_v_1_0-backto-Embargoed_Access_COAR_Accessibility_Specification_v_1_0" style="stroke:#A80036;stroke-width:1.0;"/><polygon fill="none" points="935.85,268.96,917.13,259.03,937.96,255.12,935.85,268.96" style="stroke:#A80036;stroke-width:1.0;"/><!--MD5=[cf6a428f71ef7fa3d8085e47cb57bbde]
reverse link COAR_Accessibility_Specification_v_1_0 to Metadata_Only_Access_COAR_Accessibility_Specification_v_1_0--><path codeLine="220" d="M869.95,267.63 C912.09,286.98 970.45,313.79 1006.55,330.37 " fill="none" id="COAR_Accessibility_Specification_v_1_0-backto-Metadata_Only_Access_COAR_Accessibility_Specification_v_1_0" style="stroke:#A80036;stroke-width:1.0;"/><polygon fill="none" points="866.84,273.9,851.59,259.2,872.68,261.18,866.84,273.9" style="stroke:#A80036;stroke-width:1.0;"/><!--MD5=[419c9a9592902f16805dbc06b8c7ea58]
@startuml

    !includesub ../../CERIF-Core/diagrams/core.puml!common

    !includesub ../../CERIF-Core/diagrams/core.puml!Document

    !includesub ./module.puml!Scholarly_Publication
    !includesub ./module.puml!Scholarly_Publication_Accessibility_Specification
    !includesub ./module.puml!COAR_Accessibility_Specification

@enduml

@startuml

    hide empty members
    skinparam BoxPadding 120

    class "Document" #ffffff {
        title : Multilingual_String
        publicationDate : Date
    }

    "Document" "0..*" - - "0..*" "Document" : is part of >

    "Document" "0..*" - - "0..*" "Document" : another representation of >


        class "Scholarly_Publication" #ddeedd {
        }
        "Document" <|- - "Scholarly_Publication"
        class "Scholarly_Publication_Accessibility_Specification" #ddeedd {
        }
        "Scholarly_Publication" *-r- "0..*" "Scholarly_Publication_Accessibility_Specification" : has access >
        class "COAR_Accessibility_Specification_v_1_0" #ddeedd

        class "Open_Access_COAR_Accessibility_Specification_v_1_0" #ddeedd

        class "Restricted_Access_COAR_Accessibility_Specification_v_1_0" #ddeedd

        class "Metadata_Only_Access_COAR_Accessibility_Specification_v_1_0" #ddeedd

        class "Embargoed_Access_COAR_Accessibility_Specification_v_1_0" #ddeedd {
            embargoEndDate : Date
        }
        "Scholarly_Publication_Accessibility_Specification" <|- - "COAR_Accessibility_Specification_v_1_0"
        "COAR_Accessibility_Specification_v_1_0" <|- - "Open_Access_COAR_Accessibility_Specification_v_1_0"
        "COAR_Accessibility_Specification_v_1_0" <|- - "Restricted_Access_COAR_Accessibility_Specification_v_1_0"
        "COAR_Accessibility_Specification_v_1_0" <|- - "Embargoed_Access_COAR_Accessibility_Specification_v_1_0"
        "COAR_Accessibility_Specification_v_1_0" <|- - "Metadata_Only_Access_COAR_Accessibility_Specification_v_1_0"

@enduml

PlantUML version 1.2021.8(Sat Jun 26 08:20:59 UTC 2021)
(GPL source distribution)
Java Runtime: OpenJDK Runtime Environment
JVM: OpenJDK 64-Bit Server VM
Default Encoding: UTF-8
Language: en
Country: null
--></g></svg>