<?xml version="1.0" encoding="UTF-8" standalone="no"?><svg xmlns="http://www.w3.org/2000/svg" xmlns:xlink="http://www.w3.org/1999/xlink" contentScriptType="application/ecmascript" contentStyleType="text/css" height="398px" preserveAspectRatio="none" style="width:1698px;height:398px;background:#FFFFFF;" version="1.1" viewBox="0 0 1698 398" width="1698px" zoomAndPan="magnify"><defs><filter height="300%" id="fk19yzdrppyba" width="300%" x="-1" y="-1"><feGaussianBlur result="blurOut" stdDeviation="2.0"/><feColorMatrix in="blurOut" result="blurOut2" type="matrix" values="0 0 0 0 0 0 0 0 0 0 0 0 0 0 0 0 0 0 .4 0"/><feOffset dx="4.0" dy="4.0" in="blurOut2" result="blurOut3"/><feBlend in="SourceGraphic" in2="blurOut3" mode="normal"/></filter></defs><g><!--MD5=[59b530d44ae785dc18db921986a9c15c]
class Document--><rect codeLine="199" fill="#FFFFFF" filter="url(#fk19yzdrppyba)" height="78.4141" id="Document" style="stroke:#A80036;stroke-width:1.5;" width="148" x="393.5" y="7"/><ellipse cx="431.9" cy="23" fill="#ADD1B2" rx="11" ry="11" style="stroke:#A80036;stroke-width:1.0;"/><path d="M434.8688,28.6406 Q434.2906,28.9375 433.65,29.0781 Q433.0094,29.2344 432.3063,29.2344 Q429.8063,29.2344 428.4781,27.5938 Q427.1656,25.9375 427.1656,22.8125 Q427.1656,19.6875 428.4781,18.0313 Q429.8063,16.375 432.3063,16.375 Q433.0094,16.375 433.65,16.5313 Q434.3063,16.6875 434.8688,16.9844 L434.8688,19.7031 Q434.2438,19.125 433.65,18.8594 Q433.0563,18.5781 432.4313,18.5781 Q431.0875,18.5781 430.4,19.6563 Q429.7125,20.7188 429.7125,22.8125 Q429.7125,24.9063 430.4,25.9844 Q431.0875,27.0469 432.4313,27.0469 Q433.0563,27.0469 433.65,26.7813 Q434.2438,26.5 434.8688,25.9219 L434.8688,28.6406 Z " fill="#000000"/><text fill="#000000" font-family="sans-serif" font-size="12" lengthAdjust="spacing" textLength="64" x="451.1" y="27.1543">Document</text><line style="stroke:#A80036;stroke-width:1.5;" x1="394.5" x2="540.5" y1="39" y2="39"/><text fill="#000000" font-family="sans-serif" font-size="11" lengthAdjust="spacing" textLength="52" x="399.5" y="53.2104">DOI : DOI</text><text fill="#000000" font-family="sans-serif" font-size="11" lengthAdjust="spacing" textLength="136" x="399.5" y="66.0151">title : Multilingual_String</text><text fill="#000000" font-family="sans-serif" font-size="11" lengthAdjust="spacing" textLength="125" x="399.5" y="78.8198">publicationDate : Date</text><!--MD5=[fe105c2ee1fabf2400c31a97ce9128bc]
class Textual_Document--><rect codeLine="207" fill="#FFFFFF" filter="url(#fk19yzdrppyba)" height="32" id="Textual_Document" style="stroke:#A80036;stroke-width:1.5;" width="147" x="394" y="146"/><ellipse cx="409" cy="162" fill="#ADD1B2" rx="11" ry="11" style="stroke:#A80036;stroke-width:1.0;"/><path d="M411.9688,167.6406 Q411.3906,167.9375 410.75,168.0781 Q410.1094,168.2344 409.4063,168.2344 Q406.9063,168.2344 405.5781,166.5938 Q404.2656,164.9375 404.2656,161.8125 Q404.2656,158.6875 405.5781,157.0313 Q406.9063,155.375 409.4063,155.375 Q410.1094,155.375 410.75,155.5313 Q411.4063,155.6875 411.9688,155.9844 L411.9688,158.7031 Q411.3438,158.125 410.75,157.8594 Q410.1563,157.5781 409.5313,157.5781 Q408.1875,157.5781 407.5,158.6563 Q406.8125,159.7188 406.8125,161.8125 Q406.8125,163.9063 407.5,164.9844 Q408.1875,166.0469 409.5313,166.0469 Q410.1563,166.0469 410.75,165.7813 Q411.3438,165.5 411.9688,164.9219 L411.9688,167.6406 Z " fill="#000000"/><text fill="#000000" font-family="sans-serif" font-size="12" lengthAdjust="spacing" textLength="115" x="423" y="166.1543">Textual_Document</text><!--MD5=[152f153d79baedb26b20a34b9b1b571f]
class Textual_Document_Accessibility_Specification--><rect codeLine="245" fill="#FFFFFF" filter="url(#fk19yzdrppyba)" height="32" id="Textual_Document_Accessibility_Specification" style="stroke:#A80036;stroke-width:1.5;" width="314" x="661.5" y="146"/><ellipse cx="676.5" cy="162" fill="#ADD1B2" rx="11" ry="11" style="stroke:#A80036;stroke-width:1.0;"/><path d="M679.4688,167.6406 Q678.8906,167.9375 678.25,168.0781 Q677.6094,168.2344 676.9063,168.2344 Q674.4063,168.2344 673.0781,166.5938 Q671.7656,164.9375 671.7656,161.8125 Q671.7656,158.6875 673.0781,157.0313 Q674.4063,155.375 676.9063,155.375 Q677.6094,155.375 678.25,155.5313 Q678.9063,155.6875 679.4688,155.9844 L679.4688,158.7031 Q678.8438,158.125 678.25,157.8594 Q677.6563,157.5781 677.0313,157.5781 Q675.6875,157.5781 675,158.6563 Q674.3125,159.7188 674.3125,161.8125 Q674.3125,163.9063 675,164.9844 Q675.6875,166.0469 677.0313,166.0469 Q677.6563,166.0469 678.25,165.7813 Q678.8438,165.5 679.4688,164.9219 L679.4688,167.6406 Z " fill="#000000"/><text fill="#000000" font-family="sans-serif" font-size="12" lengthAdjust="spacing" textLength="282" x="690.5" y="166.1543">Textual_Document_Accessibility_Specification</text><!--MD5=[f12ff41bbb7d9ebef6ddcefb1fe7e9d1]
class COAR_Accessibility_Specification_v_1_0--><rect codeLine="5" fill="#DDEEDD" filter="url(#fk19yzdrppyba)" height="32" id="COAR_Accessibility_Specification_v_1_0" style="stroke:#A80036;stroke-width:1.5;" width="272" x="682.5" y="239"/><ellipse cx="697.5" cy="255" fill="#ADD1B2" rx="11" ry="11" style="stroke:#A80036;stroke-width:1.0;"/><path d="M700.4688,260.6406 Q699.8906,260.9375 699.25,261.0781 Q698.6094,261.2344 697.9063,261.2344 Q695.4063,261.2344 694.0781,259.5938 Q692.7656,257.9375 692.7656,254.8125 Q692.7656,251.6875 694.0781,250.0313 Q695.4063,248.375 697.9063,248.375 Q698.6094,248.375 699.25,248.5313 Q699.9063,248.6875 700.4688,248.9844 L700.4688,251.7031 Q699.8438,251.125 699.25,250.8594 Q698.6563,250.5781 698.0313,250.5781 Q696.6875,250.5781 696,251.6563 Q695.3125,252.7188 695.3125,254.8125 Q695.3125,256.9063 696,257.9844 Q696.6875,259.0469 698.0313,259.0469 Q698.6563,259.0469 699.25,258.7813 Q699.8438,258.5 700.4688,257.9219 L700.4688,260.6406 Z " fill="#000000"/><text fill="#000000" font-family="sans-serif" font-size="12" lengthAdjust="spacing" textLength="240" x="711.5" y="259.1543">COAR_Accessibility_Specification_v_1_0</text><!--MD5=[567ef3e625e043ce4773b865b8fbf1ca]
class Open_Access_COAR_Accessibility_Specification_v_1_0--><rect codeLine="7" fill="#DDEEDD" filter="url(#fk19yzdrppyba)" height="32" id="Open_Access_COAR_Accessibility_Specification_v_1_0" style="stroke:#A80036;stroke-width:1.5;" width="361" x="7" y="342.5"/><ellipse cx="22" cy="358.5" fill="#ADD1B2" rx="11" ry="11" style="stroke:#A80036;stroke-width:1.0;"/><path d="M24.9688,364.1406 Q24.3906,364.4375 23.75,364.5781 Q23.1094,364.7344 22.4063,364.7344 Q19.9063,364.7344 18.5781,363.0938 Q17.2656,361.4375 17.2656,358.3125 Q17.2656,355.1875 18.5781,353.5313 Q19.9063,351.875 22.4063,351.875 Q23.1094,351.875 23.75,352.0313 Q24.4063,352.1875 24.9688,352.4844 L24.9688,355.2031 Q24.3438,354.625 23.75,354.3594 Q23.1563,354.0781 22.5313,354.0781 Q21.1875,354.0781 20.5,355.1563 Q19.8125,356.2188 19.8125,358.3125 Q19.8125,360.4063 20.5,361.4844 Q21.1875,362.5469 22.5313,362.5469 Q23.1563,362.5469 23.75,362.2813 Q24.3438,362 24.9688,361.4219 L24.9688,364.1406 Z " fill="#000000"/><text fill="#000000" font-family="sans-serif" font-size="12" lengthAdjust="spacing" textLength="329" x="36" y="362.6543">Open_Access_COAR_Accessibility_Specification_v_1_0</text><!--MD5=[7efd30c4d99bfde4723edca35210fb43]
class Restricted_Access_COAR_Accessibility_Specification_v_1_0--><rect codeLine="9" fill="#DDEEDD" filter="url(#fk19yzdrppyba)" height="32" id="Restricted_Access_COAR_Accessibility_Specification_v_1_0" style="stroke:#A80036;stroke-width:1.5;" width="392" x="402.5" y="342.5"/><ellipse cx="417.5" cy="358.5" fill="#ADD1B2" rx="11" ry="11" style="stroke:#A80036;stroke-width:1.0;"/><path d="M420.4688,364.1406 Q419.8906,364.4375 419.25,364.5781 Q418.6094,364.7344 417.9063,364.7344 Q415.4063,364.7344 414.0781,363.0938 Q412.7656,361.4375 412.7656,358.3125 Q412.7656,355.1875 414.0781,353.5313 Q415.4063,351.875 417.9063,351.875 Q418.6094,351.875 419.25,352.0313 Q419.9063,352.1875 420.4688,352.4844 L420.4688,355.2031 Q419.8438,354.625 419.25,354.3594 Q418.6563,354.0781 418.0313,354.0781 Q416.6875,354.0781 416,355.1563 Q415.3125,356.2188 415.3125,358.3125 Q415.3125,360.4063 416,361.4844 Q416.6875,362.5469 418.0313,362.5469 Q418.6563,362.5469 419.25,362.2813 Q419.8438,362 420.4688,361.4219 L420.4688,364.1406 Z " fill="#000000"/><text fill="#000000" font-family="sans-serif" font-size="12" lengthAdjust="spacing" textLength="360" x="431.5" y="362.6543">Restricted_Access_COAR_Accessibility_Specification_v_1_0</text><!--MD5=[bc29f6d8f9036b9993cac98835682f0a]
class Metadata_Only_Access_COAR_Accessibility_Specification_v_1_0--><rect codeLine="11" fill="#DDEEDD" filter="url(#fk19yzdrppyba)" height="32" id="Metadata_Only_Access_COAR_Accessibility_Specification_v_1_0" style="stroke:#A80036;stroke-width:1.5;" width="420" x="829.5" y="342.5"/><ellipse cx="844.5" cy="358.5" fill="#ADD1B2" rx="11" ry="11" style="stroke:#A80036;stroke-width:1.0;"/><path d="M847.4688,364.1406 Q846.8906,364.4375 846.25,364.5781 Q845.6094,364.7344 844.9063,364.7344 Q842.4063,364.7344 841.0781,363.0938 Q839.7656,361.4375 839.7656,358.3125 Q839.7656,355.1875 841.0781,353.5313 Q842.4063,351.875 844.9063,351.875 Q845.6094,351.875 846.25,352.0313 Q846.9063,352.1875 847.4688,352.4844 L847.4688,355.2031 Q846.8438,354.625 846.25,354.3594 Q845.6563,354.0781 845.0313,354.0781 Q843.6875,354.0781 843,355.1563 Q842.3125,356.2188 842.3125,358.3125 Q842.3125,360.4063 843,361.4844 Q843.6875,362.5469 845.0313,362.5469 Q845.6563,362.5469 846.25,362.2813 Q846.8438,362 847.4688,361.4219 L847.4688,364.1406 Z " fill="#000000"/><text fill="#000000" font-family="sans-serif" font-size="12" lengthAdjust="spacing" textLength="388" x="858.5" y="362.6543">Metadata_Only_Access_COAR_Accessibility_Specification_v_1_0</text><!--MD5=[672f93270b27cd238c89cfb531a48885]
class Embargoed_Access_COAR_Accessibility_Specification_v_1_0--><rect codeLine="13" fill="#DDEEDD" filter="url(#fk19yzdrppyba)" height="52.8047" id="Embargoed_Access_COAR_Accessibility_Specification_v_1_0" style="stroke:#A80036;stroke-width:1.5;" width="400" x="1284.5" y="332"/><ellipse cx="1299.5" cy="348" fill="#ADD1B2" rx="11" ry="11" style="stroke:#A80036;stroke-width:1.0;"/><path d="M1302.4688,353.6406 Q1301.8906,353.9375 1301.25,354.0781 Q1300.6094,354.2344 1299.9063,354.2344 Q1297.4063,354.2344 1296.0781,352.5938 Q1294.7656,350.9375 1294.7656,347.8125 Q1294.7656,344.6875 1296.0781,343.0313 Q1297.4063,341.375 1299.9063,341.375 Q1300.6094,341.375 1301.25,341.5313 Q1301.9063,341.6875 1302.4688,341.9844 L1302.4688,344.7031 Q1301.8438,344.125 1301.25,343.8594 Q1300.6563,343.5781 1300.0313,343.5781 Q1298.6875,343.5781 1298,344.6563 Q1297.3125,345.7188 1297.3125,347.8125 Q1297.3125,349.9063 1298,350.9844 Q1298.6875,352.0469 1300.0313,352.0469 Q1300.6563,352.0469 1301.25,351.7813 Q1301.8438,351.5 1302.4688,350.9219 L1302.4688,353.6406 Z " fill="#000000"/><text fill="#000000" font-family="sans-serif" font-size="12" lengthAdjust="spacing" textLength="368" x="1313.5" y="352.1543">Embargoed_Access_COAR_Accessibility_Specification_v_1_0</text><line style="stroke:#A80036;stroke-width:1.5;" x1="1285.5" x2="1683.5" y1="364" y2="364"/><text fill="#000000" font-family="sans-serif" font-size="11" lengthAdjust="spacing" textLength="136" x="1290.5" y="378.2104">embargoEndDate : Date</text><!--MD5=[67ceb885199ca7e1fa058287d8756a2e]
reverse link Document to Textual_Document--><path codeLine="212" d="M467.5,105.38 C467.5,120.35 467.5,135.19 467.5,145.77 " fill="none" id="Document-backto-Textual_Document" style="stroke:#A80036;stroke-width:1.0;"/><polygon fill="none" points="460.5,105.28,467.5,85.28,474.5,105.28,460.5,105.28" style="stroke:#A80036;stroke-width:1.0;"/><!--MD5=[0df3595c7a152ac097b4d28b9398e692]
reverse link Textual_Document to Textual_Document_Accessibility_Specification--><path codeLine="449" d="M554.13,162 C586.51,162 624.37,162 661.16,162 " fill="none" id="Textual_Document-backto-Textual_Document_Accessibility_Specification" style="stroke:#A80036;stroke-width:1.0;"/><polygon fill="#A80036" points="541.08,162,547.08,166,553.08,162,547.08,158,541.08,162" style="stroke:#A80036;stroke-width:1.0;"/><polygon fill="#000000" points="568.25,150.5664,559.2049,147.6275,559.2049,153.5053,568.25,150.5664" style="stroke:#000000;stroke-width:1.0;"/><text fill="#000000" font-family="sans-serif" font-size="13" lengthAdjust="spacing" textLength="71" x="572.25" y="155.0669">has access</text><text fill="#000000" font-family="sans-serif" font-size="13" lengthAdjust="spacing" textLength="23" x="630.5094" y="174.4097">0..*</text><!--MD5=[66c7cf35ed9d3ee1cd1e6fed18343b61]
reverse link Textual_Document_Accessibility_Specification to COAR_Accessibility_Specification_v_1_0--><path codeLine="75" d="M818.5,198.24 C818.5,212.36 818.5,227.88 818.5,238.95 " fill="none" id="Textual_Document_Accessibility_Specification-backto-COAR_Accessibility_Specification_v_1_0" style="stroke:#A80036;stroke-width:1.0;"/><polygon fill="none" points="811.5,198.03,818.5,178.03,825.5,198.03,811.5,198.03" style="stroke:#A80036;stroke-width:1.0;"/><!--MD5=[48d8db2658d41d9bf111391bfbde6ace]
reverse link COAR_Accessibility_Specification_v_1_0 to Open_Access_COAR_Accessibility_Specification_v_1_0--><path codeLine="78" d="M705.1,274.24 C583.85,293.75 393.82,324.31 280.88,342.48 " fill="none" id="COAR_Accessibility_Specification_v_1_0-backto-Open_Access_COAR_Accessibility_Specification_v_1_0" style="stroke:#A80036;stroke-width:1.0;"/><polygon fill="none" points="704.2,267.3,725.05,271.03,706.42,281.12,704.2,267.3" style="stroke:#A80036;stroke-width:1.0;"/><!--MD5=[56ecf441ee1e667d8dc1e473b0383da8]
reverse link COAR_Accessibility_Specification_v_1_0 to Restricted_Access_COAR_Accessibility_Specification_v_1_0--><path codeLine="81" d="M767.28,279.63 C725.33,298.98 667.24,325.79 631.3,342.37 " fill="none" id="COAR_Accessibility_Specification_v_1_0-backto-Restricted_Access_COAR_Accessibility_Specification_v_1_0" style="stroke:#A80036;stroke-width:1.0;"/><polygon fill="none" points="764.47,273.22,785.56,271.2,770.34,285.93,764.47,273.22" style="stroke:#A80036;stroke-width:1.0;"/><!--MD5=[f04512163083def2c2549cb3b954987d]
reverse link COAR_Accessibility_Specification_v_1_0 to Embargoed_Access_COAR_Accessibility_Specification_v_1_0--><path codeLine="84" d="M936.91,274.05 C1042.56,290.15 1198.43,313.9 1316.87,331.95 " fill="none" id="COAR_Accessibility_Specification_v_1_0-backto-Embargoed_Access_COAR_Accessibility_Specification_v_1_0" style="stroke:#A80036;stroke-width:1.0;"/><polygon fill="none" points="935.85,280.96,917.13,271.03,937.96,267.12,935.85,280.96" style="stroke:#A80036;stroke-width:1.0;"/><!--MD5=[cf6a428f71ef7fa3d8085e47cb57bbde]
reverse link COAR_Accessibility_Specification_v_1_0 to Metadata_Only_Access_COAR_Accessibility_Specification_v_1_0--><path codeLine="87" d="M869.95,279.63 C912.09,298.98 970.45,325.79 1006.55,342.37 " fill="none" id="COAR_Accessibility_Specification_v_1_0-backto-Metadata_Only_Access_COAR_Accessibility_Specification_v_1_0" style="stroke:#A80036;stroke-width:1.0;"/><polygon fill="none" points="866.84,285.9,851.59,271.2,872.68,273.18,866.84,285.9" style="stroke:#A80036;stroke-width:1.0;"/><!--MD5=[eb9bb2ca456942af5e1353725ab660da]
@startuml

    !includesub ../../CERIF-Core/diagrams/core.puml!common

    !includesub ../../CERIF-Core/diagrams/core.puml!Document
    !includesub ../../CERIF-Core/diagrams/core.puml!Textual_Document
    !includesub ../../CERIF-Core/diagrams/core.puml!Textual_Document_Accessibility_Specification

    !includesub ./module.puml!COAR_Accessibility_Specification

@enduml

@startuml

    hide empty members
    skinparam BoxPadding 120

    class "Document" #ffffff {
        DOI : DOI
        title : Multilingual_String
        publicationDate : Date
    }
    class "Textual_Document" #ffffff {
    }
    "Document" <|- - "Textual_Document"
    class "Textual_Document_Accessibility_Specification" #ffffff {
    }
    "Textual_Document" *-r- "0..*" "Textual_Document_Accessibility_Specification" : has access >

        class "COAR_Accessibility_Specification_v_1_0" #ddeedd

        class "Open_Access_COAR_Accessibility_Specification_v_1_0" #ddeedd

        class "Restricted_Access_COAR_Accessibility_Specification_v_1_0" #ddeedd

        class "Metadata_Only_Access_COAR_Accessibility_Specification_v_1_0" #ddeedd

        class "Embargoed_Access_COAR_Accessibility_Specification_v_1_0" #ddeedd {
            embargoEndDate : Date
        }
        "Textual_Document_Accessibility_Specification" <|- - "COAR_Accessibility_Specification_v_1_0"
        "COAR_Accessibility_Specification_v_1_0" <|- - "Open_Access_COAR_Accessibility_Specification_v_1_0"
        "COAR_Accessibility_Specification_v_1_0" <|- - "Restricted_Access_COAR_Accessibility_Specification_v_1_0"
        "COAR_Accessibility_Specification_v_1_0" <|- - "Embargoed_Access_COAR_Accessibility_Specification_v_1_0"
        "COAR_Accessibility_Specification_v_1_0" <|- - "Metadata_Only_Access_COAR_Accessibility_Specification_v_1_0"

@enduml

PlantUML version 1.2021.8(Sat Jun 26 08:20:59 UTC 2021)
(GPL source distribution)
Java Runtime: OpenJDK Runtime Environment
JVM: OpenJDK 64-Bit Server VM
Default Encoding: UTF-8
Language: en
Country: null
--></g></svg>