<svg xmlns="http://www.w3.org/2000/svg" xmlns:xlink="http://www.w3.org/1999/xlink" contentStyleType="text/css" data-diagram-type="CLASS" height="447px" preserveAspectRatio="none" style="width:2477px;height:447px;background:#FFFFFF;" version="1.1" viewBox="0 0 2477 447" width="2477px" zoomAndPan="magnify"><defs/><g><!--class Document--><g class="entity" data-entity="Document" data-source-line="300" data-uid="ent0002" id="entity_Document"><rect fill="#FFFFFF" height="56.2969" rx="2.5" ry="2.5" style="stroke:#181818;stroke-width:0.5;" width="182.8711" x="1744" y="8.1082"/><ellipse cx="1794.9209" cy="24.1082" fill="#ADD1B2" rx="11" ry="11" style="stroke:#181818;stroke-width:1;"/><path d="M1797.8896,29.7489 Q1797.3115,30.0457 1796.6709,30.1864 Q1796.0303,30.3426 1795.3271,30.3426 Q1792.8271,30.3426 1791.499,28.702 Q1790.1865,27.0457 1790.1865,23.9207 Q1790.1865,20.7957 1791.499,19.1395 Q1792.8271,17.4832 1795.3271,17.4832 Q1796.0303,17.4832 1796.6709,17.6395 Q1797.3271,17.7957 1797.8896,18.0926 L1797.8896,20.8114 Q1797.2646,20.2332 1796.6709,19.9676 Q1796.0771,19.6864 1795.4521,19.6864 Q1794.1084,19.6864 1793.4209,20.7645 Q1792.7334,21.827 1792.7334,23.9207 Q1792.7334,26.0145 1793.4209,27.0926 Q1794.1084,28.1551 1795.4521,28.1551 Q1796.0771,28.1551 1796.6709,27.8895 Q1797.2646,27.6082 1797.8896,27.0301 L1797.8896,29.7489 Z " fill="#000000"/><text fill="#000000" font-family="sans-serif" font-size="14" lengthAdjust="spacing" textLength="72.5293" x="1815.4209" y="28.9549">Document</text><line style="stroke:#181818;stroke-width:0.5;" x1="1745" x2="1925.8711" y1="40.1082" y2="40.1082"/><text fill="#000000" font-family="sans-serif" font-size="14" lengthAdjust="spacing" textLength="170.8711" x="1750" y="57.1033">title : Multilingual_String</text></g><!--class Contents_Location--><g class="entity" data-entity="Contents_Location" data-source-line="305" data-uid="ent0004" id="entity_Contents_Location"><rect fill="#FFFFFF" height="64.5625" rx="2.5" ry="2.5" style="stroke:#181818;stroke-width:0.5;" width="161.4316" x="1975" y="234.1082"/><ellipse cx="1990" cy="254.241" fill="#ADD0B2" rx="11" ry="11" style="stroke:#181818;stroke-width:1;"/><path d="M1989.5938,250.0535 L1989.5938,258.0379 L1990.25,258.0379 Q1991.6875,258.0379 1992.2969,257.1317 Q1992.9219,256.2098 1992.9219,254.0379 Q1992.9219,251.866 1992.2969,250.9598 Q1991.6875,250.0535 1990.25,250.0535 L1989.5938,250.0535 Z M1987.1406,247.8504 L1989.7656,247.8504 Q1992.7969,247.8504 1994.125,249.3035 Q1995.4688,250.741 1995.4688,254.0379 Q1995.4688,257.3348 1994.125,258.7879 Q1992.7969,260.241 1989.7656,260.241 L1987.1406,260.241 L1987.1406,247.8504 Z " fill="#000000"/><text fill="#000000" font-family="sans-serif" font-size="12" font-style="italic" lengthAdjust="spacing" textLength="72.8965" x="2032.2676" y="250.2469">&#171;DataType&#187;</text><text fill="#000000" font-family="sans-serif" font-size="14" lengthAdjust="spacing" textLength="129.4316" x="2004" y="266.0721">Contents_Location</text><line style="stroke:#181818;stroke-width:0.5;" x1="1976" x2="2135.4316" y1="274.3739" y2="274.3739"/><text fill="#000000" font-family="sans-serif" font-size="14" lengthAdjust="spacing" textLength="110.0381" x="1981" y="291.369">number : String</text></g><ellipse cx="1930.5" cy="157.1082" fill="#181818" rx="2" ry="2" style="stroke:#181818;stroke-width:1;"/><!--class Page_Based_Contents_Location--><g class="entity" data-entity="Page_Based_Contents_Location" data-source-line="316" data-uid="ent0011" id="entity_Page_Based_Contents_Location"><rect fill="#FFFFFF" height="80.8594" rx="2.5" ry="2.5" style="stroke:#181818;stroke-width:0.5;" width="252.9307" x="1929" y="360.1082"/><ellipse cx="1944" cy="380.241" fill="#ADD0B2" rx="11" ry="11" style="stroke:#181818;stroke-width:1;"/><path d="M1943.5938,376.0535 L1943.5938,384.0379 L1944.25,384.0379 Q1945.6875,384.0379 1946.2969,383.1317 Q1946.9219,382.2098 1946.9219,380.0379 Q1946.9219,377.866 1946.2969,376.9598 Q1945.6875,376.0535 1944.25,376.0535 L1943.5938,376.0535 Z M1941.1406,373.8504 L1943.7656,373.8504 Q1946.7969,373.8504 1948.125,375.3035 Q1949.4688,376.741 1949.4688,380.0379 Q1949.4688,383.3348 1948.125,384.7879 Q1946.7969,386.241 1943.7656,386.241 L1941.1406,386.241 L1941.1406,373.8504 Z " fill="#000000"/><text fill="#000000" font-family="sans-serif" font-size="12" font-style="italic" lengthAdjust="spacing" textLength="72.8965" x="2032.0171" y="376.2469">&#171;DataType&#187;</text><text fill="#000000" font-family="sans-serif" font-size="14" lengthAdjust="spacing" textLength="220.9307" x="1958" y="392.0721">Page_Based_Contents_Location</text><line style="stroke:#181818;stroke-width:0.5;" x1="1930" x2="2180.9307" y1="400.3739" y2="400.3739"/><text fill="#000000" font-family="sans-serif" font-size="14" lengthAdjust="spacing" textLength="122.5273" x="1935" y="417.369">startPage : String</text><text fill="#000000" font-family="sans-serif" font-size="14" lengthAdjust="spacing" textLength="116.293" x="1935" y="433.6658">endPage : String</text></g><!--class Time_Based_Contents_Location--><g class="entity" data-entity="Time_Based_Contents_Location" data-source-line="323" data-uid="ent0013" id="entity_Time_Based_Contents_Location"><rect fill="#FFFFFF" height="80.8594" rx="2.5" ry="2.5" style="stroke:#181818;stroke-width:0.5;" width="253.1016" x="2217" y="360.1082"/><ellipse cx="2232" cy="380.241" fill="#ADD0B2" rx="11" ry="11" style="stroke:#181818;stroke-width:1;"/><path d="M2231.5938,376.0535 L2231.5938,384.0379 L2232.25,384.0379 Q2233.6875,384.0379 2234.2969,383.1317 Q2234.9219,382.2098 2234.9219,380.0379 Q2234.9219,377.866 2234.2969,376.9598 Q2233.6875,376.0535 2232.25,376.0535 L2231.5938,376.0535 Z M2229.1406,373.8504 L2231.7656,373.8504 Q2234.7969,373.8504 2236.125,375.3035 Q2237.4688,376.741 2237.4688,380.0379 Q2237.4688,383.3348 2236.125,384.7879 Q2234.7969,386.241 2231.7656,386.241 L2229.1406,386.241 L2229.1406,373.8504 Z " fill="#000000"/><text fill="#000000" font-family="sans-serif" font-size="12" font-style="italic" lengthAdjust="spacing" textLength="72.8965" x="2320.1025" y="376.2469">&#171;DataType&#187;</text><text fill="#000000" font-family="sans-serif" font-size="14" lengthAdjust="spacing" textLength="221.1016" x="2246" y="392.0721">Time_Based_Contents_Location</text><line style="stroke:#181818;stroke-width:0.5;" x1="2218" x2="2469.1016" y1="400.3739" y2="400.3739"/><text fill="#000000" font-family="sans-serif" font-size="14" lengthAdjust="spacing" textLength="115.6094" x="2223" y="417.369">startTime : Time</text><text fill="#000000" font-family="sans-serif" font-size="14" lengthAdjust="spacing" textLength="109.375" x="2223" y="433.6658">endTime : Time</text></g><!--class Scholarly_Publication--><g class="entity" data-entity="Scholarly_Publication" data-source-line="22" data-uid="ent0015" id="entity_Scholarly_Publication"><rect fill="#DDEEDD" height="32" rx="2.5" ry="2.5" style="stroke:#181818;stroke-width:0.5;" width="180.4971" x="1056.5" y="141.1082"/><ellipse cx="1071.5" cy="157.1082" fill="#ADD1B2" rx="11" ry="11" style="stroke:#181818;stroke-width:1;"/><path d="M1074.4688,162.7489 Q1073.8906,163.0457 1073.25,163.1864 Q1072.6094,163.3426 1071.9063,163.3426 Q1069.4063,163.3426 1068.0781,161.702 Q1066.7656,160.0457 1066.7656,156.9207 Q1066.7656,153.7957 1068.0781,152.1395 Q1069.4063,150.4832 1071.9063,150.4832 Q1072.6094,150.4832 1073.25,150.6395 Q1073.9063,150.7957 1074.4688,151.0926 L1074.4688,153.8114 Q1073.8438,153.2332 1073.25,152.9676 Q1072.6563,152.6864 1072.0313,152.6864 Q1070.6875,152.6864 1070,153.7645 Q1069.3125,154.827 1069.3125,156.9207 Q1069.3125,159.0145 1070,160.0926 Q1070.6875,161.1551 1072.0313,161.1551 Q1072.6563,161.1551 1073.25,160.8895 Q1073.8438,160.6082 1074.4688,160.0301 L1074.4688,162.7489 Z " fill="#000000"/><text fill="#000000" font-family="sans-serif" font-size="14" lengthAdjust="spacing" textLength="148.4971" x="1085.5" y="161.9549">Scholarly_Publication</text></g><!--class Scholarly_Publication_Accessibility_Specification--><g class="entity" data-entity="Scholarly_Publication_Accessibility_Specification" data-source-line="31" data-uid="ent0017" id="entity_Scholarly_Publication_Accessibility_Specification"><rect fill="#DDEEDD" height="32" rx="2.5" ry="2.5" style="stroke:#181818;stroke-width:0.5;" width="370.7754" x="1356" y="141.1082"/><ellipse cx="1371" cy="157.1082" fill="#ADD1B2" rx="11" ry="11" style="stroke:#181818;stroke-width:1;"/><path d="M1373.9688,162.7489 Q1373.3906,163.0457 1372.75,163.1864 Q1372.1094,163.3426 1371.4063,163.3426 Q1368.9063,163.3426 1367.5781,161.702 Q1366.2656,160.0457 1366.2656,156.9207 Q1366.2656,153.7957 1367.5781,152.1395 Q1368.9063,150.4832 1371.4063,150.4832 Q1372.1094,150.4832 1372.75,150.6395 Q1373.4063,150.7957 1373.9688,151.0926 L1373.9688,153.8114 Q1373.3438,153.2332 1372.75,152.9676 Q1372.1563,152.6864 1371.5313,152.6864 Q1370.1875,152.6864 1369.5,153.7645 Q1368.8125,154.827 1368.8125,156.9207 Q1368.8125,159.0145 1369.5,160.0926 Q1370.1875,161.1551 1371.5313,161.1551 Q1372.1563,161.1551 1372.75,160.8895 Q1373.3438,160.6082 1373.9688,160.0301 L1373.9688,162.7489 Z " fill="#000000"/><text fill="#000000" font-family="sans-serif" font-size="14" lengthAdjust="spacing" textLength="338.7754" x="1385" y="161.9549">Scholarly_Publication_Accessibility_Specification</text></g><!--class COAR_Accessibility_Specification_v_1_0--><g class="entity" data-entity="COAR_Accessibility_Specification_v_1_0" data-source-line="62" data-uid="ent0019" id="entity_COAR_Accessibility_Specification_v_1_0"><rect fill="#DDEEDD" height="32" rx="2.5" ry="2.5" style="stroke:#181818;stroke-width:0.5;" width="309.4775" x="1013" y="250.6082"/><ellipse cx="1028" cy="266.6082" fill="#ADD1B2" rx="11" ry="11" style="stroke:#181818;stroke-width:1;"/><path d="M1030.9688,272.2489 Q1030.3906,272.5457 1029.75,272.6864 Q1029.1094,272.8426 1028.4063,272.8426 Q1025.9063,272.8426 1024.5781,271.202 Q1023.2656,269.5457 1023.2656,266.4207 Q1023.2656,263.2957 1024.5781,261.6395 Q1025.9063,259.9832 1028.4063,259.9832 Q1029.1094,259.9832 1029.75,260.1395 Q1030.4063,260.2957 1030.9688,260.5926 L1030.9688,263.3114 Q1030.3438,262.7332 1029.75,262.4676 Q1029.1563,262.1864 1028.5313,262.1864 Q1027.1875,262.1864 1026.5,263.2645 Q1025.8125,264.327 1025.8125,266.4207 Q1025.8125,268.5145 1026.5,269.5926 Q1027.1875,270.6551 1028.5313,270.6551 Q1029.1563,270.6551 1029.75,270.3895 Q1030.3438,270.1082 1030.9688,269.5301 L1030.9688,272.2489 Z " fill="#000000"/><text fill="#000000" font-family="sans-serif" font-size="14" lengthAdjust="spacing" textLength="277.4775" x="1042" y="271.4549">COAR_Accessibility_Specification_v_1_0</text></g><!--class Open_Access_COAR_Accessibility_Specification_v_1_0--><g class="entity" data-entity="Open_Access_COAR_Accessibility_Specification_v_1_0" data-source-line="64" data-uid="ent0020" id="entity_Open_Access_COAR_Accessibility_Specification_v_1_0"><rect fill="#DDEEDD" height="32" rx="2.5" ry="2.5" style="stroke:#181818;stroke-width:0.5;" width="409.043" x="7" y="384.6082"/><ellipse cx="22" cy="400.6082" fill="#ADD1B2" rx="11" ry="11" style="stroke:#181818;stroke-width:1;"/><path d="M24.9688,406.2489 Q24.3906,406.5457 23.75,406.6864 Q23.1094,406.8426 22.4063,406.8426 Q19.9063,406.8426 18.5781,405.202 Q17.2656,403.5457 17.2656,400.4207 Q17.2656,397.2957 18.5781,395.6395 Q19.9063,393.9832 22.4063,393.9832 Q23.1094,393.9832 23.75,394.1395 Q24.4063,394.2957 24.9688,394.5926 L24.9688,397.3114 Q24.3438,396.7332 23.75,396.4676 Q23.1563,396.1864 22.5313,396.1864 Q21.1875,396.1864 20.5,397.2645 Q19.8125,398.327 19.8125,400.4207 Q19.8125,402.5145 20.5,403.5926 Q21.1875,404.6551 22.5313,404.6551 Q23.1563,404.6551 23.75,404.3895 Q24.3438,404.1082 24.9688,403.5301 L24.9688,406.2489 Z " fill="#000000"/><text fill="#000000" font-family="sans-serif" font-size="14" lengthAdjust="spacing" textLength="377.043" x="36" y="405.4549">Open_Access_COAR_Accessibility_Specification_v_1_0</text></g><!--class Restricted_Access_COAR_Accessibility_Specification_v_1_0--><g class="entity" data-entity="Restricted_Access_COAR_Accessibility_Specification_v_1_0" data-source-line="66" data-uid="ent0021" id="entity_Restricted_Access_COAR_Accessibility_Specification_v_1_0"><rect fill="#DDEEDD" height="32" rx="2.5" ry="2.5" style="stroke:#181818;stroke-width:0.5;" width="443.1064" x="451" y="384.6082"/><ellipse cx="466" cy="400.6082" fill="#ADD1B2" rx="11" ry="11" style="stroke:#181818;stroke-width:1;"/><path d="M468.9688,406.2489 Q468.3906,406.5457 467.75,406.6864 Q467.1094,406.8426 466.4063,406.8426 Q463.9063,406.8426 462.5781,405.202 Q461.2656,403.5457 461.2656,400.4207 Q461.2656,397.2957 462.5781,395.6395 Q463.9063,393.9832 466.4063,393.9832 Q467.1094,393.9832 467.75,394.1395 Q468.4063,394.2957 468.9688,394.5926 L468.9688,397.3114 Q468.3438,396.7332 467.75,396.4676 Q467.1563,396.1864 466.5313,396.1864 Q465.1875,396.1864 464.5,397.2645 Q463.8125,398.327 463.8125,400.4207 Q463.8125,402.5145 464.5,403.5926 Q465.1875,404.6551 466.5313,404.6551 Q467.1563,404.6551 467.75,404.3895 Q468.3438,404.1082 468.9688,403.5301 L468.9688,406.2489 Z " fill="#000000"/><text fill="#000000" font-family="sans-serif" font-size="14" lengthAdjust="spacing" textLength="411.1064" x="480" y="405.4549">Restricted_Access_COAR_Accessibility_Specification_v_1_0</text></g><!--class Metadata_Only_Access_COAR_Accessibility_Specification_v_1_0--><g class="entity" data-entity="Metadata_Only_Access_COAR_Accessibility_Specification_v_1_0" data-source-line="68" data-uid="ent0022" id="entity_Metadata_Only_Access_COAR_Accessibility_Specification_v_1_0"><rect fill="#DDEEDD" height="32" rx="2.5" ry="2.5" style="stroke:#181818;stroke-width:0.5;" width="477.0127" x="929" y="384.6082"/><ellipse cx="944" cy="400.6082" fill="#ADD1B2" rx="11" ry="11" style="stroke:#181818;stroke-width:1;"/><path d="M946.9688,406.2489 Q946.3906,406.5457 945.75,406.6864 Q945.1094,406.8426 944.4063,406.8426 Q941.9063,406.8426 940.5781,405.202 Q939.2656,403.5457 939.2656,400.4207 Q939.2656,397.2957 940.5781,395.6395 Q941.9063,393.9832 944.4063,393.9832 Q945.1094,393.9832 945.75,394.1395 Q946.4063,394.2957 946.9688,394.5926 L946.9688,397.3114 Q946.3438,396.7332 945.75,396.4676 Q945.1563,396.1864 944.5313,396.1864 Q943.1875,396.1864 942.5,397.2645 Q941.8125,398.327 941.8125,400.4207 Q941.8125,402.5145 942.5,403.5926 Q943.1875,404.6551 944.5313,404.6551 Q945.1563,404.6551 945.75,404.3895 Q946.3438,404.1082 946.9688,403.5301 L946.9688,406.2489 Z " fill="#000000"/><text fill="#000000" font-family="sans-serif" font-size="14" lengthAdjust="spacing" textLength="445.0127" x="958" y="405.4549">Metadata_Only_Access_COAR_Accessibility_Specification_v_1_0</text></g><!--class Embargoed_Access_COAR_Accessibility_Specification_v_1_0--><g class="entity" data-entity="Embargoed_Access_COAR_Accessibility_Specification_v_1_0" data-source-line="70" data-uid="ent0023" id="entity_Embargoed_Access_COAR_Accessibility_Specification_v_1_0"><rect fill="#DDEEDD" height="56.2969" rx="2.5" ry="2.5" style="stroke:#181818;stroke-width:0.5;" width="452.3076" x="1441.5" y="372.6082"/><ellipse cx="1456.5" cy="388.6082" fill="#ADD1B2" rx="11" ry="11" style="stroke:#181818;stroke-width:1;"/><path d="M1459.4688,394.2489 Q1458.8906,394.5457 1458.25,394.6864 Q1457.6094,394.8426 1456.9063,394.8426 Q1454.4063,394.8426 1453.0781,393.202 Q1451.7656,391.5457 1451.7656,388.4207 Q1451.7656,385.2957 1453.0781,383.6395 Q1454.4063,381.9832 1456.9063,381.9832 Q1457.6094,381.9832 1458.25,382.1395 Q1458.9063,382.2957 1459.4688,382.5926 L1459.4688,385.3114 Q1458.8438,384.7332 1458.25,384.4676 Q1457.6563,384.1864 1457.0313,384.1864 Q1455.6875,384.1864 1455,385.2645 Q1454.3125,386.327 1454.3125,388.4207 Q1454.3125,390.5145 1455,391.5926 Q1455.6875,392.6551 1457.0313,392.6551 Q1457.6563,392.6551 1458.25,392.3895 Q1458.8438,392.1082 1459.4688,391.5301 L1459.4688,394.2489 Z " fill="#000000"/><text fill="#000000" font-family="sans-serif" font-size="14" lengthAdjust="spacing" textLength="420.3076" x="1470.5" y="393.4549">Embargoed_Access_COAR_Accessibility_Specification_v_1_0</text><line style="stroke:#181818;stroke-width:0.5;" x1="1442.5" x2="1892.8076" y1="404.6082" y2="404.6082"/><text fill="#000000" font-family="sans-serif" font-size="14" lengthAdjust="spacing" textLength="170.0713" x="1447.5" y="421.6033">embargoEndDate : Date</text></g><!--link Document to apoint5--><g class="link" data-entity-1="Document" data-entity-2="apoint5" data-source-line="305" data-uid="lnk7" id="link_Document_apoint5"><path d="M1827.2,64.4282 C1824.35,79.3282 1823.76,97.4682 1832.5,111.1082 C1855.94,147.6682 1917.38,154.9182 1928.7,155.9582" fill="none" id="Document-apoint5" style="stroke:#181818;stroke-width:1;"/><polygon fill="#000000" points="1841.2132,106.0231,1836.4641,97.7831,1832.5278,102.1482,1841.2132,106.0231" style="stroke:#000000;stroke-width:1;"/><text fill="#000000" font-family="sans-serif" font-size="13" lengthAdjust="spacing" textLength="57.8398" x="1846.5" y="107.1751">is part of</text><text fill="#000000" font-family="sans-serif" font-size="13" lengthAdjust="spacing" textLength="23.0356" x="1799.8867" y="84.3128">0..*</text></g><!--link apoint5 to Document--><g class="link" data-entity-1="apoint5" data-entity-2="Document" data-source-line="305" data-uid="lnk8" id="link_apoint5_Document"><path d="M1930.31,154.8082 C1929.28,147.9082 1923.72,115.2382 1908.5,94.1082 C1900.42,82.8882 1889.52,72.7782 1878.62,64.2882" fill="none" id="apoint5-Document" style="stroke:#181818;stroke-width:1;"/><text fill="#000000" font-family="sans-serif" font-size="13" lengthAdjust="spacing" textLength="23.0356" x="1862.9512" y="84.5872">0..*</text></g><!--link apoint5 to Contents_Location--><g class="link" data-entity-1="apoint5" data-entity-2="Contents_Location" data-source-line="305" data-uid="lnk9" id="link_apoint5_Contents_Location"><path d="M1931.9,159.3182 C1940.38,166.6082 1985.47,205.3882 2018.76,234.0082" fill="none" id="apoint5-Contents_Location" style="stroke:#181818;stroke-width:1;stroke-dasharray:7,7;"/></g><!--link Document to Document--><g class="link" data-entity-1="Document" data-entity-2="Document" data-source-line="307" data-uid="lnk10" id="link_Document_Document"><path codeLine="307" d="M1927.04,24.0682 C1947.27,25.1982 1962,29.2082 1962,36.1082 C1962,43.0082 1947.27,47.0182 1927.04,48.1482" fill="none" id="Document-Document" style="stroke:#181818;stroke-width:1;"/><polygon fill="#000000" points="1967.2789,41.1669,1969.7088,31.9719,1963.8401,32.2998,1967.2789,41.1669" style="stroke:#000000;stroke-width:1;"/><text fill="#000000" font-family="sans-serif" font-size="13" lengthAdjust="spacing" textLength="167.5464" x="1981" y="40.6751">another representation of</text><text fill="#000000" font-family="sans-serif" font-size="13" lengthAdjust="spacing" textLength="23.0356" x="1934.9353" y="19.6328">0..*</text><text fill="#000000" font-family="sans-serif" font-size="13" lengthAdjust="spacing" textLength="23.0356" x="1934.9353" y="45.5564">0..*</text></g><!--reverse link Contents_Location to Page_Based_Contents_Location--><g class="link" data-entity-1="Contents_Location" data-entity-2="Page_Based_Contents_Location" data-source-line="321" data-uid="lnk12" id="link_Contents_Location_Page_Based_Contents_Location"><path codeLine="321" d="M2055.5,317.2282 C2055.5,335.3782 2055.5,340.3482 2055.5,359.7282" fill="none" id="Contents_Location-backto-Page_Based_Contents_Location" style="stroke:#181818;stroke-width:1;"/><polygon fill="none" points="2055.5,299.2282,2049.5,317.2282,2061.5,317.2282,2055.5,299.2282" style="stroke:#181818;stroke-width:1;"/></g><!--reverse link Contents_Location to Time_Based_Contents_Location--><g class="link" data-entity-1="Contents_Location" data-entity-2="Time_Based_Contents_Location" data-source-line="328" data-uid="lnk14" id="link_Contents_Location_Time_Based_Contents_Location"><path codeLine="328" d="M2140.8446,306.7249 C2180.7046,324.9849 2214.83,340.6382 2257.29,360.0982" fill="none" id="Contents_Location-backto-Time_Based_Contents_Location" style="stroke:#181818;stroke-width:1;"/><polygon fill="none" points="2124.48,299.2282,2138.3457,312.1798,2143.3435,301.27,2124.48,299.2282" style="stroke:#181818;stroke-width:1;"/></g><!--reverse link Document to Scholarly_Publication--><g class="link" data-entity-1="Document" data-entity-2="Scholarly_Publication" data-source-line="27" data-uid="lnk16" id="link_Document_Scholarly_Publication"><path codeLine="27" d="M1725.9127,56.0325 C1592.3727,79.1025 1364.06,118.5282 1233.37,141.1082" fill="none" id="Document-backto-Scholarly_Publication" style="stroke:#181818;stroke-width:1;"/><polygon fill="none" points="1743.65,52.9682,1724.8913,50.12,1726.9342,61.9449,1743.65,52.9682" style="stroke:#181818;stroke-width:1;"/></g><!--reverse link Scholarly_Publication to Scholarly_Publication_Accessibility_Specification--><g class="link" data-entity-1="Scholarly_Publication" data-entity-2="Scholarly_Publication_Accessibility_Specification" data-source-line="36" data-uid="lnk18" id="link_Scholarly_Publication_Scholarly_Publication_Accessibility_Specification"><path codeLine="36" d="M1248.63,157.1082 C1284.15,157.1082 1314.32,157.1082 1355.81,157.1082" fill="none" id="Scholarly_Publication-backto-Scholarly_Publication_Accessibility_Specification" style="stroke:#181818;stroke-width:1;"/><polygon fill="#181818" points="1236.63,157.1082,1242.63,161.1082,1248.63,157.1082,1242.63,153.1082,1236.63,157.1082" style="stroke:#181818;stroke-width:1;"/><polygon fill="#000000" points="1263.75,145.6746,1254.7049,142.7357,1254.7049,148.6136,1263.75,145.6746" style="stroke:#000000;stroke-width:1;"/><text fill="#000000" font-family="sans-serif" font-size="13" lengthAdjust="spacing" textLength="70.916" x="1267.75" y="150.1751">has access</text><text fill="#000000" font-family="sans-serif" font-size="13" lengthAdjust="spacing" textLength="23.0356" x="1325.1123" y="169.4707">0..*</text></g><!--reverse link Scholarly_Publication_Accessibility_Specification to COAR_Accessibility_Specification_v_1_0--><g class="link" data-entity-1="Scholarly_Publication_Accessibility_Specification" data-entity-2="COAR_Accessibility_Specification_v_1_0" data-source-line="224" data-uid="lnk24" id="link_Scholarly_Publication_Accessibility_Specification_COAR_Accessibility_Specification_v_1_0"><path codeLine="224" d="M1471.8009,178.1424 C1400.5409,198.6324 1291.08,230.0882 1219.84,250.5582" fill="none" id="Scholarly_Publication_Accessibility_Specification-backto-COAR_Accessibility_Specification_v_1_0" style="stroke:#181818;stroke-width:1;"/><polygon fill="none" points="1489.1,173.1682,1470.1429,172.376,1473.459,183.9087,1489.1,173.1682" style="stroke:#181818;stroke-width:1;"/></g><!--reverse link COAR_Accessibility_Specification_v_1_0 to Open_Access_COAR_Accessibility_Specification_v_1_0--><g class="link" data-entity-1="COAR_Accessibility_Specification_v_1_0" data-entity-2="Open_Access_COAR_Accessibility_Specification_v_1_0" data-source-line="227" data-uid="lnk25" id="link_COAR_Accessibility_Specification_v_1_0_Open_Access_COAR_Accessibility_Specification_v_1_0"><path codeLine="227" d="M1013.7157,284.6856 C866.1557,301.4956 641.59,328.5082 433.5,360.1082 C385.8,367.3482 332.57,376.7782 290.2,384.6082" fill="none" id="COAR_Accessibility_Specification_v_1_0-backto-Open_Access_COAR_Accessibility_Specification_v_1_0" style="stroke:#181818;stroke-width:1;"/><polygon fill="none" points="1031.6,282.6482,1013.0365,278.7242,1014.3948,290.647,1031.6,282.6482" style="stroke:#181818;stroke-width:1;"/></g><!--reverse link COAR_Accessibility_Specification_v_1_0 to Restricted_Access_COAR_Accessibility_Specification_v_1_0--><g class="link" data-entity-1="COAR_Accessibility_Specification_v_1_0" data-entity-2="Restricted_Access_COAR_Accessibility_Specification_v_1_0" data-source-line="230" data-uid="lnk26" id="link_COAR_Accessibility_Specification_v_1_0_Restricted_Access_COAR_Accessibility_Specification_v_1_0"><path codeLine="230" d="M1093.8081,287.2573 C998.6581,312.6373 824.5,359.0782 729.13,384.5082" fill="none" id="COAR_Accessibility_Specification_v_1_0-backto-Restricted_Access_COAR_Accessibility_Specification_v_1_0" style="stroke:#181818;stroke-width:1;"/><polygon fill="none" points="1111.2,282.6182,1092.2617,281.46,1095.3544,293.0546,1111.2,282.6182" style="stroke:#181818;stroke-width:1;"/></g><!--reverse link COAR_Accessibility_Specification_v_1_0 to Embargoed_Access_COAR_Accessibility_Specification_v_1_0--><g class="link" data-entity-1="COAR_Accessibility_Specification_v_1_0" data-entity-2="Embargoed_Access_COAR_Accessibility_Specification_v_1_0" data-source-line="233" data-uid="lnk27" id="link_COAR_Accessibility_Specification_v_1_0_Embargoed_Access_COAR_Accessibility_Specification_v_1_0"><path codeLine="233" d="M1241.7737,287.213 C1324.5737,309.073 1462.24,345.4182 1565.2,372.5982" fill="none" id="COAR_Accessibility_Specification_v_1_0-backto-Embargoed_Access_COAR_Accessibility_Specification_v_1_0" style="stroke:#181818;stroke-width:1;"/><polygon fill="none" points="1224.37,282.6182,1240.2421,293.0142,1243.3053,281.4117,1224.37,282.6182" style="stroke:#181818;stroke-width:1;"/></g><!--reverse link COAR_Accessibility_Specification_v_1_0 to Metadata_Only_Access_COAR_Accessibility_Specification_v_1_0--><g class="link" data-entity-1="COAR_Accessibility_Specification_v_1_0" data-entity-2="Metadata_Only_Access_COAR_Accessibility_Specification_v_1_0" data-source-line="236" data-uid="lnk28" id="link_COAR_Accessibility_Specification_v_1_0_Metadata_Only_Access_COAR_Accessibility_Specification_v_1_0"><path codeLine="236" d="M1167.5,300.7482 C1167.5,326.0782 1167.5,358.7582 1167.5,384.2382" fill="none" id="COAR_Accessibility_Specification_v_1_0-backto-Metadata_Only_Access_COAR_Accessibility_Specification_v_1_0" style="stroke:#181818;stroke-width:1;"/><polygon fill="none" points="1167.5,282.7482,1161.5,300.7482,1173.5,300.7482,1167.5,282.7482" style="stroke:#181818;stroke-width:1;"/></g><!--SRC=[dSrD2i8m40NWVK-H7i3a32Kgk5BQ0uHa4dLWaYdvMVJspSAbY1Hcy-1zRuGGOiG4r7mepGafLJzzcM_Na-OSb4VxoZOM1Jt9jKKQWMFaD0pYW3qpj1XI_Q9LPD_eqrlWpMGpRURH727OYltb0MCcW50AEYIicrdM0FZyRq_Vf_adtm40]--></g></svg>