<?xml version="1.0" encoding="UTF-8" standalone="no"?><svg xmlns="http://www.w3.org/2000/svg" xmlns:xlink="http://www.w3.org/1999/xlink" contentScriptType="application/ecmascript" contentStyleType="text/css" height="258px" preserveAspectRatio="none" style="width:1512px;height:258px;background:#FFFFFF;" version="1.1" viewBox="0 0 1512 258" width="1512px" zoomAndPan="magnify"><defs><filter height="300%" id="foulqdmzyqozh" width="300%" x="-1" y="-1"><feGaussianBlur result="blurOut" stdDeviation="2.0"/><feColorMatrix in="blurOut" result="blurOut2" type="matrix" values="0 0 0 0 0 0 0 0 0 0 0 0 0 0 0 0 0 0 .4 0"/><feOffset dx="4.0" dy="4.0" in="blurOut2" result="blurOut3"/><feBlend in="SourceGraphic" in2="blurOut3" mode="normal"/></filter></defs><g><!--MD5=[152f153d79baedb26b20a34b9b1b571f]
class Textual_Document_Accessibility_Specification--><rect codeLine="17" fill="#FFFFFF" filter="url(#foulqdmzyqozh)" height="32" id="Textual_Document_Accessibility_Specification" style="stroke:#A80036;stroke-width:1.5;" width="286" x="589" y="7"/><ellipse cx="604" cy="23" fill="#ADD1B2" rx="11" ry="11" style="stroke:#A80036;stroke-width:1.0;"/><path d="M606.7656,18.875 Q606.9219,18.6563 607.1094,18.5469 Q607.2969,18.4375 607.5156,18.4375 Q607.8906,18.4375 608.125,18.7031 Q608.3594,18.9531 608.3594,19.5625 L608.3594,21.0156 Q608.3594,21.625 608.125,21.8906 Q607.8906,22.1563 607.5156,22.1563 Q607.1719,22.1563 606.9688,21.9531 Q606.7656,21.7656 606.6563,21.25 Q606.6094,20.8906 606.4219,20.7031 Q606.0938,20.3281 605.4844,20.1094 Q604.875,19.8906 604.25,19.8906 Q603.4844,19.8906 602.8438,20.2188 Q602.2188,20.5469 601.7188,21.2969 Q601.2344,22.0469 601.2344,23.0781 L601.2344,24.1719 Q601.2344,25.4063 602.125,26.2344 Q603.0156,27.0469 604.6094,27.0469 Q605.5469,27.0469 606.2031,26.7969 Q606.5938,26.6406 607.0156,26.2031 Q607.2813,25.9375 607.4219,25.8594 Q607.5781,25.7813 607.7813,25.7813 Q608.1094,25.7813 608.3594,26.0469 Q608.625,26.2969 608.625,26.6406 Q608.625,26.9844 608.2813,27.3906 Q607.7813,27.9688 606.9844,28.2969 Q605.9063,28.75 604.6094,28.75 Q603.0938,28.75 601.8906,28.125 Q600.9063,27.625 600.2188,26.5625 Q599.5313,25.4844 599.5313,24.2031 L599.5313,23.0469 Q599.5313,21.7188 600.1406,20.5781 Q600.7656,19.4219 601.8594,18.8125 Q602.9531,18.1875 604.1875,18.1875 Q604.9219,18.1875 605.5625,18.3594 Q606.2188,18.5156 606.7656,18.875 Z " fill="#000000"/><text fill="#000000" font-family="sans-serif" font-size="12" lengthAdjust="spacing" textLength="254" x="618" y="27.9102">Textual_Document_Accessibility_Specification</text><!--MD5=[414fda41094e70cb8ad23c9df979af6c]
class COAR_Accessibility_Specification_v1--><rect codeLine="6" fill="#FEFECE" filter="url(#foulqdmzyqozh)" height="32" id="COAR_Accessibility_Specification_v1" style="stroke:#A80036;stroke-width:1.5;" width="236" x="614" y="99"/><ellipse cx="629" cy="115" fill="#ADD1B2" rx="11" ry="11" style="stroke:#A80036;stroke-width:1.0;"/><path d="M631.7656,110.875 Q631.9219,110.6563 632.1094,110.5469 Q632.2969,110.4375 632.5156,110.4375 Q632.8906,110.4375 633.125,110.7031 Q633.3594,110.9531 633.3594,111.5625 L633.3594,113.0156 Q633.3594,113.625 633.125,113.8906 Q632.8906,114.1563 632.5156,114.1563 Q632.1719,114.1563 631.9688,113.9531 Q631.7656,113.7656 631.6563,113.25 Q631.6094,112.8906 631.4219,112.7031 Q631.0938,112.3281 630.4844,112.1094 Q629.875,111.8906 629.25,111.8906 Q628.4844,111.8906 627.8438,112.2188 Q627.2188,112.5469 626.7188,113.2969 Q626.2344,114.0469 626.2344,115.0781 L626.2344,116.1719 Q626.2344,117.4063 627.125,118.2344 Q628.0156,119.0469 629.6094,119.0469 Q630.5469,119.0469 631.2031,118.7969 Q631.5938,118.6406 632.0156,118.2031 Q632.2813,117.9375 632.4219,117.8594 Q632.5781,117.7813 632.7813,117.7813 Q633.1094,117.7813 633.3594,118.0469 Q633.625,118.2969 633.625,118.6406 Q633.625,118.9844 633.2813,119.3906 Q632.7813,119.9688 631.9844,120.2969 Q630.9063,120.75 629.6094,120.75 Q628.0938,120.75 626.8906,120.125 Q625.9063,119.625 625.2188,118.5625 Q624.5313,117.4844 624.5313,116.2031 L624.5313,115.0469 Q624.5313,113.7188 625.1406,112.5781 Q625.7656,111.4219 626.8594,110.8125 Q627.9531,110.1875 629.1875,110.1875 Q629.9219,110.1875 630.5625,110.3594 Q631.2188,110.5156 631.7656,110.875 Z " fill="#000000"/><text fill="#000000" font-family="sans-serif" font-size="12" lengthAdjust="spacing" textLength="204" x="643" y="119.9102">COAR_Accessibility_Specification_v1</text><!--MD5=[f37eb47bd79d8dc5fbf0575eddff0ae5]
class Open_Access_COAR_v1_Accessibility_Specification--><rect codeLine="8" fill="#FEFECE" filter="url(#foulqdmzyqozh)" height="32" id="Open_Access_COAR_v1_Accessibility_Specification" style="stroke:#A80036;stroke-width:1.5;" width="320" x="7" y="202"/><ellipse cx="22" cy="218" fill="#ADD1B2" rx="11" ry="11" style="stroke:#A80036;stroke-width:1.0;"/><path d="M24.7656,213.875 Q24.9219,213.6563 25.1094,213.5469 Q25.2969,213.4375 25.5156,213.4375 Q25.8906,213.4375 26.125,213.7031 Q26.3594,213.9531 26.3594,214.5625 L26.3594,216.0156 Q26.3594,216.625 26.125,216.8906 Q25.8906,217.1563 25.5156,217.1563 Q25.1719,217.1563 24.9688,216.9531 Q24.7656,216.7656 24.6563,216.25 Q24.6094,215.8906 24.4219,215.7031 Q24.0938,215.3281 23.4844,215.1094 Q22.875,214.8906 22.25,214.8906 Q21.4844,214.8906 20.8438,215.2188 Q20.2188,215.5469 19.7188,216.2969 Q19.2344,217.0469 19.2344,218.0781 L19.2344,219.1719 Q19.2344,220.4063 20.125,221.2344 Q21.0156,222.0469 22.6094,222.0469 Q23.5469,222.0469 24.2031,221.7969 Q24.5938,221.6406 25.0156,221.2031 Q25.2813,220.9375 25.4219,220.8594 Q25.5781,220.7813 25.7813,220.7813 Q26.1094,220.7813 26.3594,221.0469 Q26.625,221.2969 26.625,221.6406 Q26.625,221.9844 26.2813,222.3906 Q25.7813,222.9688 24.9844,223.2969 Q23.9063,223.75 22.6094,223.75 Q21.0938,223.75 19.8906,223.125 Q18.9063,222.625 18.2188,221.5625 Q17.5313,220.4844 17.5313,219.2031 L17.5313,218.0469 Q17.5313,216.7188 18.1406,215.5781 Q18.7656,214.4219 19.8594,213.8125 Q20.9531,213.1875 22.1875,213.1875 Q22.9219,213.1875 23.5625,213.3594 Q24.2188,213.5156 24.7656,213.875 Z " fill="#000000"/><text fill="#000000" font-family="sans-serif" font-size="12" lengthAdjust="spacing" textLength="288" x="36" y="222.9102">Open_Access_COAR_v1_Accessibility_Specification</text><!--MD5=[0af8ccda619914f5a4a578f128776a63]
class Restricted_Access_COAR_v1_Accessibility_Specification--><rect codeLine="10" fill="#FEFECE" filter="url(#foulqdmzyqozh)" height="32" id="Restricted_Access_COAR_v1_Accessibility_Specification" style="stroke:#A80036;stroke-width:1.5;" width="346" x="362" y="202"/><ellipse cx="377" cy="218" fill="#ADD1B2" rx="11" ry="11" style="stroke:#A80036;stroke-width:1.0;"/><path d="M379.7656,213.875 Q379.9219,213.6563 380.1094,213.5469 Q380.2969,213.4375 380.5156,213.4375 Q380.8906,213.4375 381.125,213.7031 Q381.3594,213.9531 381.3594,214.5625 L381.3594,216.0156 Q381.3594,216.625 381.125,216.8906 Q380.8906,217.1563 380.5156,217.1563 Q380.1719,217.1563 379.9688,216.9531 Q379.7656,216.7656 379.6563,216.25 Q379.6094,215.8906 379.4219,215.7031 Q379.0938,215.3281 378.4844,215.1094 Q377.875,214.8906 377.25,214.8906 Q376.4844,214.8906 375.8438,215.2188 Q375.2188,215.5469 374.7188,216.2969 Q374.2344,217.0469 374.2344,218.0781 L374.2344,219.1719 Q374.2344,220.4063 375.125,221.2344 Q376.0156,222.0469 377.6094,222.0469 Q378.5469,222.0469 379.2031,221.7969 Q379.5938,221.6406 380.0156,221.2031 Q380.2813,220.9375 380.4219,220.8594 Q380.5781,220.7813 380.7813,220.7813 Q381.1094,220.7813 381.3594,221.0469 Q381.625,221.2969 381.625,221.6406 Q381.625,221.9844 381.2813,222.3906 Q380.7813,222.9688 379.9844,223.2969 Q378.9063,223.75 377.6094,223.75 Q376.0938,223.75 374.8906,223.125 Q373.9063,222.625 373.2188,221.5625 Q372.5313,220.4844 372.5313,219.2031 L372.5313,218.0469 Q372.5313,216.7188 373.1406,215.5781 Q373.7656,214.4219 374.8594,213.8125 Q375.9531,213.1875 377.1875,213.1875 Q377.9219,213.1875 378.5625,213.3594 Q379.2188,213.5156 379.7656,213.875 Z " fill="#000000"/><text fill="#000000" font-family="sans-serif" font-size="12" lengthAdjust="spacing" textLength="314" x="391" y="222.9102">Restricted_Access_COAR_v1_Accessibility_Specification</text><!--MD5=[c2aa5301644b65ca4f208a5b4b977066]
class Metadata_Only_Access_COAR_v1_Accessibility_Specification--><rect codeLine="12" fill="#FEFECE" filter="url(#foulqdmzyqozh)" height="32" id="Metadata_Only_Access_COAR_v1_Accessibility_Specification" style="stroke:#A80036;stroke-width:1.5;" width="371" x="743.5" y="202"/><ellipse cx="758.5" cy="218" fill="#ADD1B2" rx="11" ry="11" style="stroke:#A80036;stroke-width:1.0;"/><path d="M761.2656,213.875 Q761.4219,213.6563 761.6094,213.5469 Q761.7969,213.4375 762.0156,213.4375 Q762.3906,213.4375 762.625,213.7031 Q762.8594,213.9531 762.8594,214.5625 L762.8594,216.0156 Q762.8594,216.625 762.625,216.8906 Q762.3906,217.1563 762.0156,217.1563 Q761.6719,217.1563 761.4688,216.9531 Q761.2656,216.7656 761.1563,216.25 Q761.1094,215.8906 760.9219,215.7031 Q760.5938,215.3281 759.9844,215.1094 Q759.375,214.8906 758.75,214.8906 Q757.9844,214.8906 757.3438,215.2188 Q756.7188,215.5469 756.2188,216.2969 Q755.7344,217.0469 755.7344,218.0781 L755.7344,219.1719 Q755.7344,220.4063 756.625,221.2344 Q757.5156,222.0469 759.1094,222.0469 Q760.0469,222.0469 760.7031,221.7969 Q761.0938,221.6406 761.5156,221.2031 Q761.7813,220.9375 761.9219,220.8594 Q762.0781,220.7813 762.2813,220.7813 Q762.6094,220.7813 762.8594,221.0469 Q763.125,221.2969 763.125,221.6406 Q763.125,221.9844 762.7813,222.3906 Q762.2813,222.9688 761.4844,223.2969 Q760.4063,223.75 759.1094,223.75 Q757.5938,223.75 756.3906,223.125 Q755.4063,222.625 754.7188,221.5625 Q754.0313,220.4844 754.0313,219.2031 L754.0313,218.0469 Q754.0313,216.7188 754.6406,215.5781 Q755.2656,214.4219 756.3594,213.8125 Q757.4531,213.1875 758.6875,213.1875 Q759.4219,213.1875 760.0625,213.3594 Q760.7188,213.5156 761.2656,213.875 Z " fill="#000000"/><text fill="#000000" font-family="sans-serif" font-size="12" lengthAdjust="spacing" textLength="339" x="772.5" y="222.9102">Metadata_Only_Access_COAR_v1_Accessibility_Specification</text><!--MD5=[7e0e82b0109bd0babe1390b735a24d99]
class Emargoed_Access_COAR_v1_Accessibility_Specification--><rect codeLine="14" fill="#FEFECE" filter="url(#foulqdmzyqozh)" height="53.8359" id="Emargoed_Access_COAR_v1_Accessibility_Specification" style="stroke:#A80036;stroke-width:1.5;" width="348" x="1150" y="191"/><ellipse cx="1165" cy="207" fill="#ADD1B2" rx="11" ry="11" style="stroke:#A80036;stroke-width:1.0;"/><path d="M1167.7656,202.875 Q1167.9219,202.6563 1168.1094,202.5469 Q1168.2969,202.4375 1168.5156,202.4375 Q1168.8906,202.4375 1169.125,202.7031 Q1169.3594,202.9531 1169.3594,203.5625 L1169.3594,205.0156 Q1169.3594,205.625 1169.125,205.8906 Q1168.8906,206.1563 1168.5156,206.1563 Q1168.1719,206.1563 1167.9688,205.9531 Q1167.7656,205.7656 1167.6563,205.25 Q1167.6094,204.8906 1167.4219,204.7031 Q1167.0938,204.3281 1166.4844,204.1094 Q1165.875,203.8906 1165.25,203.8906 Q1164.4844,203.8906 1163.8438,204.2188 Q1163.2188,204.5469 1162.7188,205.2969 Q1162.2344,206.0469 1162.2344,207.0781 L1162.2344,208.1719 Q1162.2344,209.4063 1163.125,210.2344 Q1164.0156,211.0469 1165.6094,211.0469 Q1166.5469,211.0469 1167.2031,210.7969 Q1167.5938,210.6406 1168.0156,210.2031 Q1168.2813,209.9375 1168.4219,209.8594 Q1168.5781,209.7813 1168.7813,209.7813 Q1169.1094,209.7813 1169.3594,210.0469 Q1169.625,210.2969 1169.625,210.6406 Q1169.625,210.9844 1169.2813,211.3906 Q1168.7813,211.9688 1167.9844,212.2969 Q1166.9063,212.75 1165.6094,212.75 Q1164.0938,212.75 1162.8906,212.125 Q1161.9063,211.625 1161.2188,210.5625 Q1160.5313,209.4844 1160.5313,208.2031 L1160.5313,207.0469 Q1160.5313,205.7188 1161.1406,204.5781 Q1161.7656,203.4219 1162.8594,202.8125 Q1163.9531,202.1875 1165.1875,202.1875 Q1165.9219,202.1875 1166.5625,202.3594 Q1167.2188,202.5156 1167.7656,202.875 Z " fill="#000000"/><text fill="#000000" font-family="sans-serif" font-size="12" lengthAdjust="spacing" textLength="316" x="1179" y="211.9102">Emargoed_Access_COAR_v1_Accessibility_Specification</text><line style="stroke:#A80036;stroke-width:1.5;" x1="1151" x2="1497" y1="223" y2="223"/><text fill="#000000" font-family="sans-serif" font-size="11" lengthAdjust="spacing" textLength="113" x="1156" y="238.4189">embargoEndDate : Date</text><!--MD5=[f85d3b7ea4d0f360a9a896da9b8414e4]
reverse link Textual_Document_Accessibility_Specification to COAR_Accessibility_Specification_v1--><path codeLine="75" d="M732,59.61 C732,73.31 732,88.22 732,98.96 " fill="none" id="Textual_Document_Accessibility_Specification-backto-COAR_Accessibility_Specification_v1" style="stroke:#A80036;stroke-width:1.0;"/><polygon fill="none" points="725,59.27,732,39.27,739,59.27,725,59.27" style="stroke:#A80036;stroke-width:1.0;"/><!--MD5=[bfd88198d372996c25e9794c7dd6e719]
reverse link COAR_Accessibility_Specification_v1 to Open_Access_COAR_v1_Accessibility_Specification--><path codeLine="78" d="M628.15,134.56 C519.62,153.96 351.44,184.03 250.98,201.99 " fill="none" id="COAR_Accessibility_Specification_v1-backto-Open_Access_COAR_v1_Accessibility_Specification" style="stroke:#A80036;stroke-width:1.0;"/><polygon fill="none" points="627.1,127.64,648.02,131.01,629.57,141.42,627.1,127.64" style="stroke:#A80036;stroke-width:1.0;"/><!--MD5=[f38eb1e2f6e38e13de2b20f473ff16a5]
reverse link COAR_Accessibility_Specification_v1 to Restricted_Access_COAR_v1_Accessibility_Specification--><path codeLine="81" d="M684.6,140.3 C647.17,159.49 596.11,185.67 564.37,201.94 " fill="none" id="COAR_Accessibility_Specification_v1-backto-Restricted_Access_COAR_v1_Accessibility_Specification" style="stroke:#A80036;stroke-width:1.0;"/><polygon fill="none" points="681.52,134.02,702.51,131.12,687.9,146.47,681.52,134.02" style="stroke:#A80036;stroke-width:1.0;"/><!--MD5=[55f4ec97aa8e919191239661c27a15a2]
reverse link COAR_Accessibility_Specification_v1 to Emargoed_Access_COAR_v1_Accessibility_Specification--><path codeLine="84" d="M839.99,134.42 C932.77,150.25 1067.59,173.25 1171.39,190.96 " fill="none" id="COAR_Accessibility_Specification_v1-backto-Emargoed_Access_COAR_v1_Accessibility_Specification" style="stroke:#A80036;stroke-width:1.0;"/><polygon fill="none" points="838.53,141.28,819.99,131.01,840.88,127.48,838.53,141.28" style="stroke:#A80036;stroke-width:1.0;"/><!--MD5=[04d6d1b0a6f9e8b81dbdf44803f7976b]
reverse link COAR_Accessibility_Specification_v1 to Metadata_Only_Access_COAR_v1_Accessibility_Specification--><path codeLine="87" d="M779.4,140.3 C816.83,159.49 867.89,185.67 899.63,201.94 " fill="none" id="COAR_Accessibility_Specification_v1-backto-Metadata_Only_Access_COAR_v1_Accessibility_Specification" style="stroke:#A80036;stroke-width:1.0;"/><polygon fill="none" points="776.1,146.47,761.49,131.12,782.48,134.02,776.1,146.47" style="stroke:#A80036;stroke-width:1.0;"/><!--MD5=[34d1a41f5d18fb272624bc3d2dab0d9b]
@startuml

!includesub core.puml!common


    !includesub core.puml!TDAS


!includesub ./module.puml!Coar

@enduml

@startuml

    	hide empty members


    class "Textual_Document_Accessibility_Specification" #ffffff {
    }


    class "COAR_Accessibility_Specification_v1"

    class "Open_Access_COAR_v1_Accessibility_Specification"

    class "Restricted_Access_COAR_v1_Accessibility_Specification"

    class "Metadata_Only_Access_COAR_v1_Accessibility_Specification"

    class "Emargoed_Access_COAR_v1_Accessibility_Specification"{
        embargoEndDate : Date
    }
    "Textual_Document_Accessibility_Specification" <|- - "COAR_Accessibility_Specification_v1"
    "COAR_Accessibility_Specification_v1" <|- - "Open_Access_COAR_v1_Accessibility_Specification"
    "COAR_Accessibility_Specification_v1" <|- - "Restricted_Access_COAR_v1_Accessibility_Specification"
    "COAR_Accessibility_Specification_v1" <|- - "Emargoed_Access_COAR_v1_Accessibility_Specification"
    "COAR_Accessibility_Specification_v1" <|- - "Metadata_Only_Access_COAR_v1_Accessibility_Specification"

@enduml

PlantUML version 1.2021.8(Sat Jun 26 10:20:59 CEST 2021)
(GPL source distribution)
Java Runtime: Java(TM) SE Runtime Environment
JVM: Java HotSpot(TM) 64-Bit Server VM
Default Encoding: Cp1252
Language: en
Country: US
--></g></svg>