<?xml version="1.0" encoding="UTF-8" standalone="no"?><svg xmlns="http://www.w3.org/2000/svg" xmlns:xlink="http://www.w3.org/1999/xlink" contentScriptType="application/ecmascript" contentStyleType="text/css" height="257px" preserveAspectRatio="none" style="width:1611px;height:257px;background:#FFFFFF;" version="1.1" viewBox="0 0 1611 257" width="1611px" zoomAndPan="magnify"><defs><filter height="300%" id="foulqdmzyqozh" width="300%" x="-1" y="-1"><feGaussianBlur result="blurOut" stdDeviation="2.0"/><feColorMatrix in="blurOut" result="blurOut2" type="matrix" values="0 0 0 0 0 0 0 0 0 0 0 0 0 0 0 0 0 0 .4 0"/><feOffset dx="4.0" dy="4.0" in="blurOut2" result="blurOut3"/><feBlend in="SourceGraphic" in2="blurOut3" mode="normal"/></filter></defs><g><!--MD5=[152f153d79baedb26b20a34b9b1b571f]
class Textual_Document_Accessibility_Specification--><rect codeLine="17" fill="#FFFFFF" filter="url(#foulqdmzyqozh)" height="32" id="Textual_Document_Accessibility_Specification" style="stroke:#A80036;stroke-width:1.5;" width="314" x="622.5" y="7"/><ellipse cx="637.5" cy="23" fill="#ADD1B2" rx="11" ry="11" style="stroke:#A80036;stroke-width:1.0;"/><path d="M640.4688,28.6406 Q639.8906,28.9375 639.25,29.0781 Q638.6094,29.2344 637.9063,29.2344 Q635.4063,29.2344 634.0781,27.5938 Q632.7656,25.9375 632.7656,22.8125 Q632.7656,19.6875 634.0781,18.0313 Q635.4063,16.375 637.9063,16.375 Q638.6094,16.375 639.25,16.5313 Q639.9063,16.6875 640.4688,16.9844 L640.4688,19.7031 Q639.8438,19.125 639.25,18.8594 Q638.6563,18.5781 638.0313,18.5781 Q636.6875,18.5781 636,19.6563 Q635.3125,20.7188 635.3125,22.8125 Q635.3125,24.9063 636,25.9844 Q636.6875,27.0469 638.0313,27.0469 Q638.6563,27.0469 639.25,26.7813 Q639.8438,26.5 640.4688,25.9219 L640.4688,28.6406 Z " fill="#000000"/><text fill="#000000" font-family="sans-serif" font-size="12" lengthAdjust="spacing" textLength="282" x="651.5" y="27.1543">Textual_Document_Accessibility_Specification</text><!--MD5=[414fda41094e70cb8ad23c9df979af6c]
class COAR_Accessibility_Specification_v1--><rect codeLine="5" fill="#FEFECE" filter="url(#foulqdmzyqozh)" height="32" id="COAR_Accessibility_Specification_v1" style="stroke:#A80036;stroke-width:1.5;" width="252" x="653.5" y="99"/><ellipse cx="668.5" cy="115" fill="#ADD1B2" rx="11" ry="11" style="stroke:#A80036;stroke-width:1.0;"/><path d="M671.4688,120.6406 Q670.8906,120.9375 670.25,121.0781 Q669.6094,121.2344 668.9063,121.2344 Q666.4063,121.2344 665.0781,119.5938 Q663.7656,117.9375 663.7656,114.8125 Q663.7656,111.6875 665.0781,110.0313 Q666.4063,108.375 668.9063,108.375 Q669.6094,108.375 670.25,108.5313 Q670.9063,108.6875 671.4688,108.9844 L671.4688,111.7031 Q670.8438,111.125 670.25,110.8594 Q669.6563,110.5781 669.0313,110.5781 Q667.6875,110.5781 667,111.6563 Q666.3125,112.7188 666.3125,114.8125 Q666.3125,116.9063 667,117.9844 Q667.6875,119.0469 669.0313,119.0469 Q669.6563,119.0469 670.25,118.7813 Q670.8438,118.5 671.4688,117.9219 L671.4688,120.6406 Z " fill="#000000"/><text fill="#000000" font-family="sans-serif" font-size="12" lengthAdjust="spacing" textLength="220" x="682.5" y="119.1543">COAR_Accessibility_Specification_v1</text><!--MD5=[f37eb47bd79d8dc5fbf0575eddff0ae5]
class Open_Access_COAR_v1_Accessibility_Specification--><rect codeLine="7" fill="#FEFECE" filter="url(#foulqdmzyqozh)" height="32" id="Open_Access_COAR_v1_Accessibility_Specification" style="stroke:#A80036;stroke-width:1.5;" width="341" x="7" y="201.5"/><ellipse cx="22" cy="217.5" fill="#ADD1B2" rx="11" ry="11" style="stroke:#A80036;stroke-width:1.0;"/><path d="M24.9688,223.1406 Q24.3906,223.4375 23.75,223.5781 Q23.1094,223.7344 22.4063,223.7344 Q19.9063,223.7344 18.5781,222.0938 Q17.2656,220.4375 17.2656,217.3125 Q17.2656,214.1875 18.5781,212.5313 Q19.9063,210.875 22.4063,210.875 Q23.1094,210.875 23.75,211.0313 Q24.4063,211.1875 24.9688,211.4844 L24.9688,214.2031 Q24.3438,213.625 23.75,213.3594 Q23.1563,213.0781 22.5313,213.0781 Q21.1875,213.0781 20.5,214.1563 Q19.8125,215.2188 19.8125,217.3125 Q19.8125,219.4063 20.5,220.4844 Q21.1875,221.5469 22.5313,221.5469 Q23.1563,221.5469 23.75,221.2813 Q24.3438,221 24.9688,220.4219 L24.9688,223.1406 Z " fill="#000000"/><text fill="#000000" font-family="sans-serif" font-size="12" lengthAdjust="spacing" textLength="309" x="36" y="221.6543">Open_Access_COAR_v1_Accessibility_Specification</text><!--MD5=[0af8ccda619914f5a4a578f128776a63]
class Restricted_Access_COAR_v1_Accessibility_Specification--><rect codeLine="9" fill="#FEFECE" filter="url(#foulqdmzyqozh)" height="32" id="Restricted_Access_COAR_v1_Accessibility_Specification" style="stroke:#A80036;stroke-width:1.5;" width="372" x="383.5" y="201.5"/><ellipse cx="398.5" cy="217.5" fill="#ADD1B2" rx="11" ry="11" style="stroke:#A80036;stroke-width:1.0;"/><path d="M401.4688,223.1406 Q400.8906,223.4375 400.25,223.5781 Q399.6094,223.7344 398.9063,223.7344 Q396.4063,223.7344 395.0781,222.0938 Q393.7656,220.4375 393.7656,217.3125 Q393.7656,214.1875 395.0781,212.5313 Q396.4063,210.875 398.9063,210.875 Q399.6094,210.875 400.25,211.0313 Q400.9063,211.1875 401.4688,211.4844 L401.4688,214.2031 Q400.8438,213.625 400.25,213.3594 Q399.6563,213.0781 399.0313,213.0781 Q397.6875,213.0781 397,214.1563 Q396.3125,215.2188 396.3125,217.3125 Q396.3125,219.4063 397,220.4844 Q397.6875,221.5469 399.0313,221.5469 Q399.6563,221.5469 400.25,221.2813 Q400.8438,221 401.4688,220.4219 L401.4688,223.1406 Z " fill="#000000"/><text fill="#000000" font-family="sans-serif" font-size="12" lengthAdjust="spacing" textLength="340" x="412.5" y="221.6543">Restricted_Access_COAR_v1_Accessibility_Specification</text><!--MD5=[c2aa5301644b65ca4f208a5b4b977066]
class Metadata_Only_Access_COAR_v1_Accessibility_Specification--><rect codeLine="11" fill="#FEFECE" filter="url(#foulqdmzyqozh)" height="32" id="Metadata_Only_Access_COAR_v1_Accessibility_Specification" style="stroke:#A80036;stroke-width:1.5;" width="400" x="790.5" y="201.5"/><ellipse cx="805.5" cy="217.5" fill="#ADD1B2" rx="11" ry="11" style="stroke:#A80036;stroke-width:1.0;"/><path d="M808.4688,223.1406 Q807.8906,223.4375 807.25,223.5781 Q806.6094,223.7344 805.9063,223.7344 Q803.4063,223.7344 802.0781,222.0938 Q800.7656,220.4375 800.7656,217.3125 Q800.7656,214.1875 802.0781,212.5313 Q803.4063,210.875 805.9063,210.875 Q806.6094,210.875 807.25,211.0313 Q807.9063,211.1875 808.4688,211.4844 L808.4688,214.2031 Q807.8438,213.625 807.25,213.3594 Q806.6563,213.0781 806.0313,213.0781 Q804.6875,213.0781 804,214.1563 Q803.3125,215.2188 803.3125,217.3125 Q803.3125,219.4063 804,220.4844 Q804.6875,221.5469 806.0313,221.5469 Q806.6563,221.5469 807.25,221.2813 Q807.8438,221 808.4688,220.4219 L808.4688,223.1406 Z " fill="#000000"/><text fill="#000000" font-family="sans-serif" font-size="12" lengthAdjust="spacing" textLength="368" x="819.5" y="221.6543">Metadata_Only_Access_COAR_v1_Accessibility_Specification</text><!--MD5=[7e0e82b0109bd0babe1390b735a24d99]
class Emargoed_Access_COAR_v1_Accessibility_Specification--><rect codeLine="13" fill="#FEFECE" filter="url(#foulqdmzyqozh)" height="52.8047" id="Emargoed_Access_COAR_v1_Accessibility_Specification" style="stroke:#A80036;stroke-width:1.5;" width="372" x="1225.5" y="191"/><ellipse cx="1240.5" cy="207" fill="#ADD1B2" rx="11" ry="11" style="stroke:#A80036;stroke-width:1.0;"/><path d="M1243.4688,212.6406 Q1242.8906,212.9375 1242.25,213.0781 Q1241.6094,213.2344 1240.9063,213.2344 Q1238.4063,213.2344 1237.0781,211.5938 Q1235.7656,209.9375 1235.7656,206.8125 Q1235.7656,203.6875 1237.0781,202.0313 Q1238.4063,200.375 1240.9063,200.375 Q1241.6094,200.375 1242.25,200.5313 Q1242.9063,200.6875 1243.4688,200.9844 L1243.4688,203.7031 Q1242.8438,203.125 1242.25,202.8594 Q1241.6563,202.5781 1241.0313,202.5781 Q1239.6875,202.5781 1239,203.6563 Q1238.3125,204.7188 1238.3125,206.8125 Q1238.3125,208.9063 1239,209.9844 Q1239.6875,211.0469 1241.0313,211.0469 Q1241.6563,211.0469 1242.25,210.7813 Q1242.8438,210.5 1243.4688,209.9219 L1243.4688,212.6406 Z " fill="#000000"/><text fill="#000000" font-family="sans-serif" font-size="12" lengthAdjust="spacing" textLength="340" x="1254.5" y="211.1543">Emargoed_Access_COAR_v1_Accessibility_Specification</text><line style="stroke:#A80036;stroke-width:1.5;" x1="1226.5" x2="1596.5" y1="223" y2="223"/><text fill="#000000" font-family="sans-serif" font-size="11" lengthAdjust="spacing" textLength="136" x="1231.5" y="237.2104">embargoEndDate : Date</text><!--MD5=[f85d3b7ea4d0f360a9a896da9b8414e4]
reverse link Textual_Document_Accessibility_Specification to COAR_Accessibility_Specification_v1--><path codeLine="74" d="M779.5,59.61 C779.5,73.31 779.5,88.22 779.5,98.96 " fill="none" id="Textual_Document_Accessibility_Specification-backto-COAR_Accessibility_Specification_v1" style="stroke:#A80036;stroke-width:1.0;"/><polygon fill="none" points="772.5,59.27,779.5,39.27,786.5,59.27,772.5,59.27" style="stroke:#A80036;stroke-width:1.0;"/><!--MD5=[bfd88198d372996c25e9794c7dd6e719]
reverse link COAR_Accessibility_Specification_v1 to Open_Access_COAR_v1_Accessibility_Specification--><path codeLine="77" d="M669.32,134.39 C553.97,153.65 375.02,183.53 267.75,201.43 " fill="none" id="COAR_Accessibility_Specification_v1-backto-Open_Access_COAR_v1_Accessibility_Specification" style="stroke:#A80036;stroke-width:1.0;"/><polygon fill="none" points="668.49,127.43,689.37,131.05,670.8,141.24,668.49,127.43" style="stroke:#A80036;stroke-width:1.0;"/><!--MD5=[f38eb1e2f6e38e13de2b20f473ff16a5]
reverse link COAR_Accessibility_Specification_v1 to Restricted_Access_COAR_v1_Accessibility_Specification--><path codeLine="80" d="M729.85,139.76 C690,158.83 635.26,185.03 601.15,201.35 " fill="none" id="COAR_Accessibility_Specification_v1-backto-Restricted_Access_COAR_v1_Accessibility_Specification" style="stroke:#A80036;stroke-width:1.0;"/><polygon fill="none" points="727,133.37,748.06,131.05,733.04,145.99,727,133.37" style="stroke:#A80036;stroke-width:1.0;"/><!--MD5=[55f4ec97aa8e919191239661c27a15a2]
reverse link COAR_Accessibility_Specification_v1 to Emargoed_Access_COAR_v1_Accessibility_Specification--><path codeLine="83" d="M894.07,134.22 C993.89,150.09 1139.7,173.28 1251.11,190.99 " fill="none" id="COAR_Accessibility_Specification_v1-backto-Emargoed_Access_COAR_v1_Accessibility_Specification" style="stroke:#A80036;stroke-width:1.0;"/><polygon fill="none" points="892.77,141.1,874.12,131.05,894.97,127.27,892.77,141.1" style="stroke:#A80036;stroke-width:1.0;"/><!--MD5=[04d6d1b0a6f9e8b81dbdf44803f7976b]
reverse link COAR_Accessibility_Specification_v1 to Metadata_Only_Access_COAR_v1_Accessibility_Specification--><path codeLine="86" d="M829.38,139.76 C869.42,158.83 924.42,185.03 958.7,201.35 " fill="none" id="COAR_Accessibility_Specification_v1-backto-Metadata_Only_Access_COAR_v1_Accessibility_Specification" style="stroke:#A80036;stroke-width:1.0;"/><polygon fill="none" points="826.14,145.97,811.09,131.05,832.16,133.33,826.14,145.97" style="stroke:#A80036;stroke-width:1.0;"/><!--MD5=[236db495edd72e433ef501cac2842bb0]
@startuml

!includesub core.puml!common


    !includesub core.puml!TDAS


!includesub ./module.puml!Coar

@enduml

@startuml

    	hide empty members


    class "Textual_Document_Accessibility_Specification" #ffffff {
    }


    class "COAR_Accessibility_Specification_v1"

    class "Open_Access_COAR_v1_Accessibility_Specification"

    class "Restricted_Access_COAR_v1_Accessibility_Specification"

    class "Metadata_Only_Access_COAR_v1_Accessibility_Specification"

    class "Emargoed_Access_COAR_v1_Accessibility_Specification"{
        embargoEndDate : Date
    }
    "Textual_Document_Accessibility_Specification" <|- - "COAR_Accessibility_Specification_v1"
    "COAR_Accessibility_Specification_v1" <|- - "Open_Access_COAR_v1_Accessibility_Specification"
    "COAR_Accessibility_Specification_v1" <|- - "Restricted_Access_COAR_v1_Accessibility_Specification"
    "COAR_Accessibility_Specification_v1" <|- - "Emargoed_Access_COAR_v1_Accessibility_Specification"
    "COAR_Accessibility_Specification_v1" <|- - "Metadata_Only_Access_COAR_v1_Accessibility_Specification"

@enduml

PlantUML version 1.2021.8(Sat Jun 26 08:20:59 UTC 2021)
(GPL source distribution)
Java Runtime: OpenJDK Runtime Environment
JVM: OpenJDK 64-Bit Server VM
Default Encoding: UTF-8
Language: en
Country: null
--></g></svg>