<?xml version="1.0" encoding="UTF-8" standalone="no"?><svg xmlns="http://www.w3.org/2000/svg" xmlns:xlink="http://www.w3.org/1999/xlink" contentScriptType="application/ecmascript" contentStyleType="text/css" height="257px" preserveAspectRatio="none" style="width:1698px;height:257px;background:#FFFFFF;" version="1.1" viewBox="0 0 1698 257" width="1698px" zoomAndPan="magnify"><defs><filter height="300%" id="f16nilp4ujc37f" width="300%" x="-1" y="-1"><feGaussianBlur result="blurOut" stdDeviation="2.0"/><feColorMatrix in="blurOut" result="blurOut2" type="matrix" values="0 0 0 0 0 0 0 0 0 0 0 0 0 0 0 0 0 0 .4 0"/><feOffset dx="4.0" dy="4.0" in="blurOut2" result="blurOut3"/><feBlend in="SourceGraphic" in2="blurOut3" mode="normal"/></filter></defs><g><!--MD5=[152f153d79baedb26b20a34b9b1b571f]
class Textual_Document_Accessibility_Specification--><rect codeLine="18" fill="#FFFFFF" filter="url(#f16nilp4ujc37f)" height="32" id="Textual_Document_Accessibility_Specification" style="stroke:#A80036;stroke-width:1.5;" width="314" x="661.5" y="7"/><ellipse cx="676.5" cy="23" fill="#ADD1B2" rx="11" ry="11" style="stroke:#A80036;stroke-width:1.0;"/><path d="M679.4688,28.6406 Q678.8906,28.9375 678.25,29.0781 Q677.6094,29.2344 676.9063,29.2344 Q674.4063,29.2344 673.0781,27.5938 Q671.7656,25.9375 671.7656,22.8125 Q671.7656,19.6875 673.0781,18.0313 Q674.4063,16.375 676.9063,16.375 Q677.6094,16.375 678.25,16.5313 Q678.9063,16.6875 679.4688,16.9844 L679.4688,19.7031 Q678.8438,19.125 678.25,18.8594 Q677.6563,18.5781 677.0313,18.5781 Q675.6875,18.5781 675,19.6563 Q674.3125,20.7188 674.3125,22.8125 Q674.3125,24.9063 675,25.9844 Q675.6875,27.0469 677.0313,27.0469 Q677.6563,27.0469 678.25,26.7813 Q678.8438,26.5 679.4688,25.9219 L679.4688,28.6406 Z " fill="#000000"/><text fill="#000000" font-family="sans-serif" font-size="12" lengthAdjust="spacing" textLength="282" x="690.5" y="27.1543">Textual_Document_Accessibility_Specification</text><!--MD5=[f12ff41bbb7d9ebef6ddcefb1fe7e9d1]
class COAR_Accessibility_Specification_v_1_0--><rect codeLine="5" fill="#00FF00" filter="url(#f16nilp4ujc37f)" height="32" id="COAR_Accessibility_Specification_v_1_0" style="stroke:#A80036;stroke-width:1.5;" width="272" x="682.5" y="99"/><ellipse cx="697.5" cy="115" fill="#ADD1B2" rx="11" ry="11" style="stroke:#A80036;stroke-width:1.0;"/><path d="M700.4688,120.6406 Q699.8906,120.9375 699.25,121.0781 Q698.6094,121.2344 697.9063,121.2344 Q695.4063,121.2344 694.0781,119.5938 Q692.7656,117.9375 692.7656,114.8125 Q692.7656,111.6875 694.0781,110.0313 Q695.4063,108.375 697.9063,108.375 Q698.6094,108.375 699.25,108.5313 Q699.9063,108.6875 700.4688,108.9844 L700.4688,111.7031 Q699.8438,111.125 699.25,110.8594 Q698.6563,110.5781 698.0313,110.5781 Q696.6875,110.5781 696,111.6563 Q695.3125,112.7188 695.3125,114.8125 Q695.3125,116.9063 696,117.9844 Q696.6875,119.0469 698.0313,119.0469 Q698.6563,119.0469 699.25,118.7813 Q699.8438,118.5 700.4688,117.9219 L700.4688,120.6406 Z " fill="#000000"/><text fill="#000000" font-family="sans-serif" font-size="12" lengthAdjust="spacing" textLength="240" x="711.5" y="119.1543">COAR_Accessibility_Specification_v_1_0</text><!--MD5=[567ef3e625e043ce4773b865b8fbf1ca]
class Open_Access_COAR_Accessibility_Specification_v_1_0--><rect codeLine="7" fill="#00FF00" filter="url(#f16nilp4ujc37f)" height="32" id="Open_Access_COAR_Accessibility_Specification_v_1_0" style="stroke:#A80036;stroke-width:1.5;" width="361" x="7" y="201.5"/><ellipse cx="22" cy="217.5" fill="#ADD1B2" rx="11" ry="11" style="stroke:#A80036;stroke-width:1.0;"/><path d="M24.9688,223.1406 Q24.3906,223.4375 23.75,223.5781 Q23.1094,223.7344 22.4063,223.7344 Q19.9063,223.7344 18.5781,222.0938 Q17.2656,220.4375 17.2656,217.3125 Q17.2656,214.1875 18.5781,212.5313 Q19.9063,210.875 22.4063,210.875 Q23.1094,210.875 23.75,211.0313 Q24.4063,211.1875 24.9688,211.4844 L24.9688,214.2031 Q24.3438,213.625 23.75,213.3594 Q23.1563,213.0781 22.5313,213.0781 Q21.1875,213.0781 20.5,214.1563 Q19.8125,215.2188 19.8125,217.3125 Q19.8125,219.4063 20.5,220.4844 Q21.1875,221.5469 22.5313,221.5469 Q23.1563,221.5469 23.75,221.2813 Q24.3438,221 24.9688,220.4219 L24.9688,223.1406 Z " fill="#000000"/><text fill="#000000" font-family="sans-serif" font-size="12" lengthAdjust="spacing" textLength="329" x="36" y="221.6543">Open_Access_COAR_Accessibility_Specification_v_1_0</text><!--MD5=[7efd30c4d99bfde4723edca35210fb43]
class Restricted_Access_COAR_Accessibility_Specification_v_1_0--><rect codeLine="9" fill="#00FF00" filter="url(#f16nilp4ujc37f)" height="32" id="Restricted_Access_COAR_Accessibility_Specification_v_1_0" style="stroke:#A80036;stroke-width:1.5;" width="392" x="402.5" y="201.5"/><ellipse cx="417.5" cy="217.5" fill="#ADD1B2" rx="11" ry="11" style="stroke:#A80036;stroke-width:1.0;"/><path d="M420.4688,223.1406 Q419.8906,223.4375 419.25,223.5781 Q418.6094,223.7344 417.9063,223.7344 Q415.4063,223.7344 414.0781,222.0938 Q412.7656,220.4375 412.7656,217.3125 Q412.7656,214.1875 414.0781,212.5313 Q415.4063,210.875 417.9063,210.875 Q418.6094,210.875 419.25,211.0313 Q419.9063,211.1875 420.4688,211.4844 L420.4688,214.2031 Q419.8438,213.625 419.25,213.3594 Q418.6563,213.0781 418.0313,213.0781 Q416.6875,213.0781 416,214.1563 Q415.3125,215.2188 415.3125,217.3125 Q415.3125,219.4063 416,220.4844 Q416.6875,221.5469 418.0313,221.5469 Q418.6563,221.5469 419.25,221.2813 Q419.8438,221 420.4688,220.4219 L420.4688,223.1406 Z " fill="#000000"/><text fill="#000000" font-family="sans-serif" font-size="12" lengthAdjust="spacing" textLength="360" x="431.5" y="221.6543">Restricted_Access_COAR_Accessibility_Specification_v_1_0</text><!--MD5=[bc29f6d8f9036b9993cac98835682f0a]
class Metadata_Only_Access_COAR_Accessibility_Specification_v_1_0--><rect codeLine="11" fill="#00FF00" filter="url(#f16nilp4ujc37f)" height="32" id="Metadata_Only_Access_COAR_Accessibility_Specification_v_1_0" style="stroke:#A80036;stroke-width:1.5;" width="420" x="829.5" y="201.5"/><ellipse cx="844.5" cy="217.5" fill="#ADD1B2" rx="11" ry="11" style="stroke:#A80036;stroke-width:1.0;"/><path d="M847.4688,223.1406 Q846.8906,223.4375 846.25,223.5781 Q845.6094,223.7344 844.9063,223.7344 Q842.4063,223.7344 841.0781,222.0938 Q839.7656,220.4375 839.7656,217.3125 Q839.7656,214.1875 841.0781,212.5313 Q842.4063,210.875 844.9063,210.875 Q845.6094,210.875 846.25,211.0313 Q846.9063,211.1875 847.4688,211.4844 L847.4688,214.2031 Q846.8438,213.625 846.25,213.3594 Q845.6563,213.0781 845.0313,213.0781 Q843.6875,213.0781 843,214.1563 Q842.3125,215.2188 842.3125,217.3125 Q842.3125,219.4063 843,220.4844 Q843.6875,221.5469 845.0313,221.5469 Q845.6563,221.5469 846.25,221.2813 Q846.8438,221 847.4688,220.4219 L847.4688,223.1406 Z " fill="#000000"/><text fill="#000000" font-family="sans-serif" font-size="12" lengthAdjust="spacing" textLength="388" x="858.5" y="221.6543">Metadata_Only_Access_COAR_Accessibility_Specification_v_1_0</text><!--MD5=[672f93270b27cd238c89cfb531a48885]
class Embargoed_Access_COAR_Accessibility_Specification_v_1_0--><rect codeLine="13" fill="#00FF00" filter="url(#f16nilp4ujc37f)" height="52.8047" id="Embargoed_Access_COAR_Accessibility_Specification_v_1_0" style="stroke:#A80036;stroke-width:1.5;" width="400" x="1284.5" y="191"/><ellipse cx="1299.5" cy="207" fill="#ADD1B2" rx="11" ry="11" style="stroke:#A80036;stroke-width:1.0;"/><path d="M1302.4688,212.6406 Q1301.8906,212.9375 1301.25,213.0781 Q1300.6094,213.2344 1299.9063,213.2344 Q1297.4063,213.2344 1296.0781,211.5938 Q1294.7656,209.9375 1294.7656,206.8125 Q1294.7656,203.6875 1296.0781,202.0313 Q1297.4063,200.375 1299.9063,200.375 Q1300.6094,200.375 1301.25,200.5313 Q1301.9063,200.6875 1302.4688,200.9844 L1302.4688,203.7031 Q1301.8438,203.125 1301.25,202.8594 Q1300.6563,202.5781 1300.0313,202.5781 Q1298.6875,202.5781 1298,203.6563 Q1297.3125,204.7188 1297.3125,206.8125 Q1297.3125,208.9063 1298,209.9844 Q1298.6875,211.0469 1300.0313,211.0469 Q1300.6563,211.0469 1301.25,210.7813 Q1301.8438,210.5 1302.4688,209.9219 L1302.4688,212.6406 Z " fill="#000000"/><text fill="#000000" font-family="sans-serif" font-size="12" lengthAdjust="spacing" textLength="368" x="1313.5" y="211.1543">Embargoed_Access_COAR_Accessibility_Specification_v_1_0</text><line style="stroke:#A80036;stroke-width:1.5;" x1="1285.5" x2="1683.5" y1="223" y2="223"/><text fill="#000000" font-family="sans-serif" font-size="11" lengthAdjust="spacing" textLength="136" x="1290.5" y="237.2104">embargoEndDate : Date</text><!--MD5=[66c7cf35ed9d3ee1cd1e6fed18343b61]
reverse link Textual_Document_Accessibility_Specification to COAR_Accessibility_Specification_v_1_0--><path codeLine="75" d="M818.5,59.61 C818.5,73.31 818.5,88.22 818.5,98.96 " fill="none" id="Textual_Document_Accessibility_Specification-backto-COAR_Accessibility_Specification_v_1_0" style="stroke:#A80036;stroke-width:1.0;"/><polygon fill="none" points="811.5,59.27,818.5,39.27,825.5,59.27,811.5,59.27" style="stroke:#A80036;stroke-width:1.0;"/><!--MD5=[48d8db2658d41d9bf111391bfbde6ace]
reverse link COAR_Accessibility_Specification_v_1_0 to Open_Access_COAR_Accessibility_Specification_v_1_0--><path codeLine="78" d="M704.12,134.22 C583.17,153.48 394.59,183.52 281.84,201.47 " fill="none" id="COAR_Accessibility_Specification_v_1_0-backto-Open_Access_COAR_Accessibility_Specification_v_1_0" style="stroke:#A80036;stroke-width:1.0;"/><polygon fill="none" points="703.18,127.28,724.03,131.05,705.38,141.1,703.18,127.28" style="stroke:#A80036;stroke-width:1.0;"/><!--MD5=[56ecf441ee1e667d8dc1e473b0383da8]
reverse link COAR_Accessibility_Specification_v_1_0 to Restricted_Access_COAR_Accessibility_Specification_v_1_0--><path codeLine="81" d="M767.34,139.37 C725.53,158.47 667.64,184.92 631.66,201.35 " fill="none" id="COAR_Accessibility_Specification_v_1_0-backto-Restricted_Access_COAR_Accessibility_Specification_v_1_0" style="stroke:#A80036;stroke-width:1.0;"/><polygon fill="none" points="764.46,132.99,785.56,131.05,770.28,145.72,764.46,132.99" style="stroke:#A80036;stroke-width:1.0;"/><!--MD5=[f04512163083def2c2549cb3b954987d]
reverse link COAR_Accessibility_Specification_v_1_0 to Embargoed_Access_COAR_Accessibility_Specification_v_1_0--><path codeLine="84" d="M938.24,134.07 C1043.46,149.95 1197.71,173.22 1315.48,190.99 " fill="none" id="COAR_Accessibility_Specification_v_1_0-backto-Embargoed_Access_COAR_Accessibility_Specification_v_1_0" style="stroke:#A80036;stroke-width:1.0;"/><polygon fill="none" points="936.94,140.95,918.21,131.05,939.03,127.11,936.94,140.95" style="stroke:#A80036;stroke-width:1.0;"/><!--MD5=[cf6a428f71ef7fa3d8085e47cb57bbde]
reverse link COAR_Accessibility_Specification_v_1_0 to Metadata_Only_Access_COAR_Accessibility_Specification_v_1_0--><path codeLine="87" d="M869.89,139.37 C911.9,158.47 970.05,184.92 1006.19,201.35 " fill="none" id="COAR_Accessibility_Specification_v_1_0-backto-Metadata_Only_Access_COAR_Accessibility_Specification_v_1_0" style="stroke:#A80036;stroke-width:1.0;"/><polygon fill="none" points="866.89,145.7,851.59,131.05,872.69,132.95,866.89,145.7" style="stroke:#A80036;stroke-width:1.0;"/><!--MD5=[9a2682f525bfbe87f4e1538b7dc8e470]
@startuml

    !includesub ../../CERIF-Core/diagrams/core.puml!common

    !includesub ../../CERIF-Core/diagrams/core.puml!TDAS

    !includesub ./module.puml!Coar

@enduml

@startuml

        hide empty members
        skinparam BoxPadding 120

        class "Textual_Document_Accessibility_Specification" #ffffff {
        }

        class "COAR_Accessibility_Specification_v_1_0" #00ff00

        class "Open_Access_COAR_Accessibility_Specification_v_1_0" #00ff00

        class "Restricted_Access_COAR_Accessibility_Specification_v_1_0" #00ff00

        class "Metadata_Only_Access_COAR_Accessibility_Specification_v_1_0" #00ff00

        class "Embargoed_Access_COAR_Accessibility_Specification_v_1_0" #00ff00{
            embargoEndDate : Date
        }
        "Textual_Document_Accessibility_Specification" <|- - "COAR_Accessibility_Specification_v_1_0"
        "COAR_Accessibility_Specification_v_1_0" <|- - "Open_Access_COAR_Accessibility_Specification_v_1_0"
        "COAR_Accessibility_Specification_v_1_0" <|- - "Restricted_Access_COAR_Accessibility_Specification_v_1_0"
        "COAR_Accessibility_Specification_v_1_0" <|- - "Embargoed_Access_COAR_Accessibility_Specification_v_1_0"
        "COAR_Accessibility_Specification_v_1_0" <|- - "Metadata_Only_Access_COAR_Accessibility_Specification_v_1_0"

@enduml

PlantUML version 1.2021.8(Sat Jun 26 08:20:59 UTC 2021)
(GPL source distribution)
Java Runtime: OpenJDK Runtime Environment
JVM: OpenJDK 64-Bit Server VM
Default Encoding: UTF-8
Language: en
Country: null
--></g></svg>