<?xml version="1.0" encoding="UTF-8" standalone="no"?><svg xmlns="http://www.w3.org/2000/svg" xmlns:xlink="http://www.w3.org/1999/xlink" contentScriptType="application/ecmascript" contentStyleType="text/css" height="799px" preserveAspectRatio="none" style="width:1125px;height:799px;background:#FFFFFF;" version="1.1" viewBox="0 0 1125 799" width="1125px" zoomAndPan="magnify"><defs><filter height="300%" id="f1bqyeg7wmov2j" width="300%" x="-1" y="-1"><feGaussianBlur result="blurOut" stdDeviation="2.0"/><feColorMatrix in="blurOut" result="blurOut2" type="matrix" values="0 0 0 0 0 0 0 0 0 0 0 0 0 0 0 0 0 0 .4 0"/><feOffset dx="4.0" dy="4.0" in="blurOut2" result="blurOut3"/><feBlend in="SourceGraphic" in2="blurOut3" mode="normal"/></filter></defs><g><!--MD5=[59b530d44ae785dc18db921986a9c15c]
class Document--><rect codeLine="7" fill="#FEFECE" filter="url(#f1bqyeg7wmov2j)" height="52.8047" id="Document" style="stroke:#A80036;stroke-width:1.5;" width="314" x="410.5" y="328"/><ellipse cx="531.25" cy="344" fill="#ADD1B2" rx="11" ry="11" style="stroke:#A80036;stroke-width:1.0;"/><path d="M534.2188,349.6406 Q533.6406,349.9375 533,350.0781 Q532.3594,350.2344 531.6563,350.2344 Q529.1563,350.2344 527.8281,348.5938 Q526.5156,346.9375 526.5156,343.8125 Q526.5156,340.6875 527.8281,339.0313 Q529.1563,337.375 531.6563,337.375 Q532.3594,337.375 533,337.5313 Q533.6563,337.6875 534.2188,337.9844 L534.2188,340.7031 Q533.5938,340.125 533,339.8594 Q532.4063,339.5781 531.7813,339.5781 Q530.4375,339.5781 529.75,340.6563 Q529.0625,341.7188 529.0625,343.8125 Q529.0625,345.9063 529.75,346.9844 Q530.4375,348.0469 531.7813,348.0469 Q532.4063,348.0469 533,347.7813 Q533.5938,347.5 534.2188,346.9219 L534.2188,349.6406 Z " fill="#000000"/><text fill="#000000" font-family="sans-serif" font-size="12" lengthAdjust="spacing" textLength="64" x="551.75" y="348.1543">Document</text><line style="stroke:#A80036;stroke-width:1.5;" x1="411.5" x2="723.5" y1="360" y2="360"/><text fill="#000000" font-family="sans-serif" font-size="11" lengthAdjust="spacing" textLength="302" x="416.5" y="374.2104">class "Textual Document Accessibility Specification"{</text><!--MD5=[9d44916250b776386006c440668bcfbb]
class Agent--><rect codeLine="19" fill="#FEFECE" filter="url(#f1bqyeg7wmov2j)" height="32" id="Agent" style="stroke:#A80036;stroke-width:1.5;" width="69" x="306" y="338.5"/><ellipse cx="321" cy="354.5" fill="#ADD1B2" rx="11" ry="11" style="stroke:#A80036;stroke-width:1.0;"/><path d="M323.9688,360.1406 Q323.3906,360.4375 322.75,360.5781 Q322.1094,360.7344 321.4063,360.7344 Q318.9063,360.7344 317.5781,359.0938 Q316.2656,357.4375 316.2656,354.3125 Q316.2656,351.1875 317.5781,349.5313 Q318.9063,347.875 321.4063,347.875 Q322.1094,347.875 322.75,348.0313 Q323.4063,348.1875 323.9688,348.4844 L323.9688,351.2031 Q323.3438,350.625 322.75,350.3594 Q322.1563,350.0781 321.5313,350.0781 Q320.1875,350.0781 319.5,351.1563 Q318.8125,352.2188 318.8125,354.3125 Q318.8125,356.4063 319.5,357.4844 Q320.1875,358.5469 321.5313,358.5469 Q322.1563,358.5469 322.75,358.2813 Q323.3438,358 323.9688,357.4219 L323.9688,360.1406 Z " fill="#000000"/><text fill="#000000" font-family="sans-serif" font-size="12" lengthAdjust="spacing" textLength="37" x="335" y="358.6543">Agent</text><!--MD5=[fd289f43f02ef8bd75c20da9b3dee237]
class Organisation Unit--><rect codeLine="22" fill="#FEFECE" filter="url(#f1bqyeg7wmov2j)" height="52.8047" id="Organisation Unit" style="stroke:#A80036;stroke-width:1.5;" width="159" x="467" y="580"/><ellipse cx="490.1" cy="596" fill="#ADD1B2" rx="11" ry="11" style="stroke:#A80036;stroke-width:1.0;"/><path d="M493.0688,601.6406 Q492.4906,601.9375 491.85,602.0781 Q491.2094,602.2344 490.5063,602.2344 Q488.0063,602.2344 486.6781,600.5938 Q485.3656,598.9375 485.3656,595.8125 Q485.3656,592.6875 486.6781,591.0313 Q488.0063,589.375 490.5063,589.375 Q491.2094,589.375 491.85,589.5313 Q492.5063,589.6875 493.0688,589.9844 L493.0688,592.7031 Q492.4438,592.125 491.85,591.8594 Q491.2563,591.5781 490.6313,591.5781 Q489.2875,591.5781 488.6,592.6563 Q487.9125,593.7188 487.9125,595.8125 Q487.9125,597.9063 488.6,598.9844 Q489.2875,600.0469 490.6313,600.0469 Q491.2563,600.0469 491.85,599.7813 Q492.4438,599.5 493.0688,598.9219 L493.0688,601.6406 Z " fill="#000000"/><text fill="#000000" font-family="sans-serif" font-size="12" lengthAdjust="spacing" textLength="109" x="505.9" y="600.1543">Organisation Unit</text><line style="stroke:#A80036;stroke-width:1.5;" x1="468" x2="625" y1="612" y2="612"/><text fill="#000000" font-family="sans-serif" font-size="11" lengthAdjust="spacing" textLength="147" x="473" y="626.2104">name : Multilingual_String</text><!--MD5=[09ce52be0ee7de43c61b6e2d59bf108b]
class Person--><rect codeLine="25" fill="#FEFECE" filter="url(#f1bqyeg7wmov2j)" height="52.8047" id="Person" style="stroke:#A80036;stroke-width:1.5;" width="114" x="283.5" y="466"/><ellipse cx="315.6" cy="482" fill="#ADD1B2" rx="11" ry="11" style="stroke:#A80036;stroke-width:1.0;"/><path d="M318.5688,487.6406 Q317.9906,487.9375 317.35,488.0781 Q316.7094,488.2344 316.0063,488.2344 Q313.5063,488.2344 312.1781,486.5938 Q310.8656,484.9375 310.8656,481.8125 Q310.8656,478.6875 312.1781,477.0313 Q313.5063,475.375 316.0063,475.375 Q316.7094,475.375 317.35,475.5313 Q318.0063,475.6875 318.5688,475.9844 L318.5688,478.7031 Q317.9438,478.125 317.35,477.8594 Q316.7563,477.5781 316.1313,477.5781 Q314.7875,477.5781 314.1,478.6563 Q313.4125,479.7188 313.4125,481.8125 Q313.4125,483.9063 314.1,484.9844 Q314.7875,486.0469 316.1313,486.0469 Q316.7563,486.0469 317.35,485.7813 Q317.9438,485.5 318.5688,484.9219 L318.5688,487.6406 Z " fill="#000000"/><text fill="#000000" font-family="sans-serif" font-size="12" lengthAdjust="spacing" textLength="44" x="333.4" y="486.1543">Person</text><line style="stroke:#A80036;stroke-width:1.5;" x1="284.5" x2="396.5" y1="498" y2="498"/><text fill="#000000" font-family="sans-serif" font-size="11" lengthAdjust="spacing" textLength="102" x="289.5" y="512.2104">orcidid : ORCID_iD</text><!--MD5=[7b209ef07eb91b93e0aebc9fe4fb9a26]
class Person_Name--><rect codeLine="28" fill="#FEFECE" filter="url(#f1bqyeg7wmov2j)" height="84.3516" id="Person_Name" style="stroke:#A80036;stroke-width:1.5;" width="132" x="735.5" y="7"/><ellipse cx="756.8" cy="25.9688" fill="#FF7700" rx="11" ry="11" style="stroke:#A80036;stroke-width:1.0;"/><path d="M756.3938,21.7813 L756.3938,29.7656 L757.05,29.7656 Q758.4875,29.7656 759.0969,28.8594 Q759.7219,27.9375 759.7219,25.7656 Q759.7219,23.5938 759.0969,22.6875 Q758.4875,21.7813 757.05,21.7813 L756.3938,21.7813 Z M753.9406,19.5781 L756.5656,19.5781 Q759.5969,19.5781 760.925,21.0313 Q762.2688,22.4688 762.2688,25.7656 Q762.2688,29.0625 760.925,30.5156 Q759.5969,31.9688 756.5656,31.9688 L753.9406,31.9688 L753.9406,19.5781 Z " fill="#000000"/><text fill="#000000" font-family="sans-serif" font-size="12" font-style="italic" lengthAdjust="spacing" textLength="74" x="778.2" y="23.1387">«DataType»</text><text fill="#000000" font-family="sans-serif" font-size="12" lengthAdjust="spacing" textLength="86" x="772.2" y="37.1074">Person_Name</text><line style="stroke:#A80036;stroke-width:1.5;" x1="736.5" x2="866.5" y1="44.9375" y2="44.9375"/><text fill="#000000" font-family="sans-serif" font-size="11" lengthAdjust="spacing" textLength="109" x="741.5" y="59.1479">firstNames : String</text><text fill="#000000" font-family="sans-serif" font-size="11" lengthAdjust="spacing" textLength="120" x="741.5" y="71.9526">familyNames : String</text><text fill="#000000" font-family="sans-serif" font-size="11" lengthAdjust="spacing" textLength="116" x="741.5" y="84.7573">otherNames : String</text><!--MD5=[3b25461e5df73ababc6765bb9b0c47d3]
class Authorship--><rect codeLine="33" fill="#FEFECE" filter="url(#f1bqyeg7wmov2j)" height="52.8047" id="Authorship" style="stroke:#A80036;stroke-width:1.5;" width="212" x="226.5" y="152"/><ellipse cx="294.25" cy="168" fill="#ADD1B2" rx="11" ry="11" style="stroke:#A80036;stroke-width:1.0;"/><path d="M297.2188,173.6406 Q296.6406,173.9375 296,174.0781 Q295.3594,174.2344 294.6563,174.2344 Q292.1563,174.2344 290.8281,172.5938 Q289.5156,170.9375 289.5156,167.8125 Q289.5156,164.6875 290.8281,163.0313 Q292.1563,161.375 294.6563,161.375 Q295.3594,161.375 296,161.5313 Q296.6563,161.6875 297.2188,161.9844 L297.2188,164.7031 Q296.5938,164.125 296,163.8594 Q295.4063,163.5781 294.7813,163.5781 Q293.4375,163.5781 292.75,164.6563 Q292.0625,165.7188 292.0625,167.8125 Q292.0625,169.9063 292.75,170.9844 Q293.4375,172.0469 294.7813,172.0469 Q295.4063,172.0469 296,171.7813 Q296.5938,171.5 297.2188,170.9219 L297.2188,173.6406 Z " fill="#000000"/><text fill="#000000" font-family="sans-serif" font-size="12" lengthAdjust="spacing" textLength="68" x="314.75" y="172.1543">Authorship</text><line style="stroke:#A80036;stroke-width:1.5;" x1="227.5" x2="437.5" y1="184" y2="184"/><text fill="#000000" font-family="sans-serif" font-size="11" lengthAdjust="spacing" textLength="200" x="232.5" y="198.2104">correspondingAuthorFlag : Boolean</text><!--MD5=[b821bb113f9f55c728f1fbb8949cc3af]
class Contributorship--><rect codeLine="37" fill="#FEFECE" filter="url(#f1bqyeg7wmov2j)" height="65.6094" id="Contributorship" style="stroke:#A80036;stroke-width:1.5;" width="131" x="760" y="321.5"/><ellipse cx="775.9" cy="337.5" fill="#ADD1B2" rx="11" ry="11" style="stroke:#A80036;stroke-width:1.0;"/><path d="M778.8688,343.1406 Q778.2906,343.4375 777.65,343.5781 Q777.0094,343.7344 776.3063,343.7344 Q773.8063,343.7344 772.4781,342.0938 Q771.1656,340.4375 771.1656,337.3125 Q771.1656,334.1875 772.4781,332.5313 Q773.8063,330.875 776.3063,330.875 Q777.0094,330.875 777.65,331.0313 Q778.3063,331.1875 778.8688,331.4844 L778.8688,334.2031 Q778.2438,333.625 777.65,333.3594 Q777.0563,333.0781 776.4313,333.0781 Q775.0875,333.0781 774.4,334.1563 Q773.7125,335.2188 773.7125,337.3125 Q773.7125,339.4063 774.4,340.4844 Q775.0875,341.5469 776.4313,341.5469 Q777.0563,341.5469 777.65,341.2813 Q778.2438,341 778.8688,340.4219 L778.8688,343.1406 Z " fill="#000000"/><text fill="#000000" font-family="sans-serif" font-size="12" lengthAdjust="spacing" textLength="97" x="790.1" y="341.6543">Contributorship</text><line style="stroke:#A80036;stroke-width:1.5;" x1="761" x2="890" y1="353.5" y2="353.5"/><text fill="#000000" font-family="sans-serif" font-size="11" lengthAdjust="spacing" textLength="116" x="766" y="367.7104">contacts : List&lt;URI&gt;</text><text fill="#000000" font-family="sans-serif" font-size="11" lengthAdjust="spacing" textLength="119" x="766" y="380.5151">displayName : String</text><!--MD5=[f8f29aeb30962b8f0c17f3bed64bd579]
class Contribution Statement--><rect codeLine="41" fill="#FEFECE" filter="url(#f1bqyeg7wmov2j)" height="32" id="Contribution Statement" style="stroke:#A80036;stroke-width:1.5;" width="179" x="871" y="162.5"/><ellipse cx="886" cy="178.5" fill="#ADD1B2" rx="11" ry="11" style="stroke:#A80036;stroke-width:1.0;"/><path d="M888.9688,184.1406 Q888.3906,184.4375 887.75,184.5781 Q887.1094,184.7344 886.4063,184.7344 Q883.9063,184.7344 882.5781,183.0938 Q881.2656,181.4375 881.2656,178.3125 Q881.2656,175.1875 882.5781,173.5313 Q883.9063,171.875 886.4063,171.875 Q887.1094,171.875 887.75,172.0313 Q888.4063,172.1875 888.9688,172.4844 L888.9688,175.2031 Q888.3438,174.625 887.75,174.3594 Q887.1563,174.0781 886.5313,174.0781 Q885.1875,174.0781 884.5,175.1563 Q883.8125,176.2188 883.8125,178.3125 Q883.8125,180.4063 884.5,181.4844 Q885.1875,182.5469 886.5313,182.5469 Q887.1563,182.5469 887.75,182.2813 Q888.3438,182 888.9688,181.4219 L888.9688,184.1406 Z " fill="#000000"/><text fill="#000000" font-family="sans-serif" font-size="12" lengthAdjust="spacing" textLength="147" x="900" y="182.6543">Contribution Statement</text><!--MD5=[3f6954d26e8fa8feef64f8ba628c4304]
class Free Text Contribution--><rect codeLine="43" fill="#FEFECE" filter="url(#f1bqyeg7wmov2j)" height="52.8047" id="Free Text Contribution" style="stroke:#A80036;stroke-width:1.5;" width="185" x="926" y="328"/><ellipse cx="947.3" cy="344" fill="#ADD1B2" rx="11" ry="11" style="stroke:#A80036;stroke-width:1.0;"/><path d="M950.2688,349.6406 Q949.6906,349.9375 949.05,350.0781 Q948.4094,350.2344 947.7063,350.2344 Q945.2063,350.2344 943.8781,348.5938 Q942.5656,346.9375 942.5656,343.8125 Q942.5656,340.6875 943.8781,339.0313 Q945.2063,337.375 947.7063,337.375 Q948.4094,337.375 949.05,337.5313 Q949.7063,337.6875 950.2688,337.9844 L950.2688,340.7031 Q949.6438,340.125 949.05,339.8594 Q948.4563,339.5781 947.8313,339.5781 Q946.4875,339.5781 945.8,340.6563 Q945.1125,341.7188 945.1125,343.8125 Q945.1125,345.9063 945.8,346.9844 Q946.4875,348.0469 947.8313,348.0469 Q948.4563,348.0469 949.05,347.7813 Q949.6438,347.5 950.2688,346.9219 L950.2688,349.6406 Z " fill="#000000"/><text fill="#000000" font-family="sans-serif" font-size="12" lengthAdjust="spacing" textLength="139" x="962.7" y="348.1543">Free Text Contribution</text><line style="stroke:#A80036;stroke-width:1.5;" x1="927" x2="1110" y1="360" y2="360"/><text fill="#000000" font-family="sans-serif" font-size="11" lengthAdjust="spacing" textLength="173" x="932" y="374.2104">statement : Multilingual_String</text><!--MD5=[819e4821c75d866d91a46af0ea8026f8]
class Affiliation Statement--><rect codeLine="47" fill="#FEFECE" filter="url(#f1bqyeg7wmov2j)" height="52.8047" id="Affiliation Statement" style="stroke:#A80036;stroke-width:1.5;" width="159" x="559" y="466"/><ellipse cx="574" cy="482" fill="#ADD1B2" rx="11" ry="11" style="stroke:#A80036;stroke-width:1.0;"/><path d="M576.9688,487.6406 Q576.3906,487.9375 575.75,488.0781 Q575.1094,488.2344 574.4063,488.2344 Q571.9063,488.2344 570.5781,486.5938 Q569.2656,484.9375 569.2656,481.8125 Q569.2656,478.6875 570.5781,477.0313 Q571.9063,475.375 574.4063,475.375 Q575.1094,475.375 575.75,475.5313 Q576.4063,475.6875 576.9688,475.9844 L576.9688,478.7031 Q576.3438,478.125 575.75,477.8594 Q575.1563,477.5781 574.5313,477.5781 Q573.1875,477.5781 572.5,478.6563 Q571.8125,479.7188 571.8125,481.8125 Q571.8125,483.9063 572.5,484.9844 Q573.1875,486.0469 574.5313,486.0469 Q575.1563,486.0469 575.75,485.7813 Q576.3438,485.5 576.9688,484.9219 L576.9688,487.6406 Z " fill="#000000"/><text fill="#000000" font-family="sans-serif" font-size="12" lengthAdjust="spacing" textLength="127" x="588" y="486.1543">Affiliation Statement</text><line style="stroke:#A80036;stroke-width:1.5;" x1="560" x2="717" y1="498" y2="498"/><text fill="#000000" font-family="sans-serif" font-size="11" lengthAdjust="spacing" textLength="138" x="565" y="512.2104">displayAffiliation : String</text><!--MD5=[fe1d14fe6d68ca7e76eb34268c62a1f3]
class Postal_Address--><rect codeLine="50" fill="#FEFECE" filter="url(#f1bqyeg7wmov2j)" height="84.3516" id="Postal_Address" style="stroke:#A80036;stroke-width:1.5;" width="128" x="902.5" y="7"/><ellipse cx="917.5" cy="25.9688" fill="#FF7700" rx="11" ry="11" style="stroke:#A80036;stroke-width:1.0;"/><path d="M917.0938,21.7813 L917.0938,29.7656 L917.75,29.7656 Q919.1875,29.7656 919.7969,28.8594 Q920.4219,27.9375 920.4219,25.7656 Q920.4219,23.5938 919.7969,22.6875 Q919.1875,21.7813 917.75,21.7813 L917.0938,21.7813 Z M914.6406,19.5781 L917.2656,19.5781 Q920.2969,19.5781 921.625,21.0313 Q922.9688,22.4688 922.9688,25.7656 Q922.9688,29.0625 921.625,30.5156 Q920.2969,31.9688 917.2656,31.9688 L914.6406,31.9688 L914.6406,19.5781 Z " fill="#000000"/><text fill="#000000" font-family="sans-serif" font-size="12" font-style="italic" lengthAdjust="spacing" textLength="74" x="942.5" y="23.1387">«DataType»</text><text fill="#000000" font-family="sans-serif" font-size="12" lengthAdjust="spacing" textLength="96" x="931.5" y="37.1074">Postal_Address</text><line style="stroke:#A80036;stroke-width:1.5;" x1="903.5" x2="1029.5" y1="44.9375" y2="44.9375"/><text fill="#000000" font-family="sans-serif" font-size="11" lengthAdjust="spacing" textLength="80" x="908.5" y="59.1479">street : String</text><text fill="#000000" font-family="sans-serif" font-size="11" lengthAdjust="spacing" textLength="65" x="908.5" y="71.9526">city : String</text><text fill="#000000" font-family="sans-serif" font-size="11" lengthAdjust="spacing" textLength="90" x="908.5" y="84.7573">zipCode : String</text><!--MD5=[deb4e1f6eb1e3c1256fdb830f96abfbb]
class Country--><rect codeLine="55" fill="#FEFECE" filter="url(#f1bqyeg7wmov2j)" height="91.2188" id="Country" style="stroke:#A80036;stroke-width:1.5;" width="281" x="584" y="694"/><ellipse cx="696.25" cy="710" fill="#ADD1B2" rx="11" ry="11" style="stroke:#A80036;stroke-width:1.0;"/><path d="M699.2188,715.6406 Q698.6406,715.9375 698,716.0781 Q697.3594,716.2344 696.6563,716.2344 Q694.1563,716.2344 692.8281,714.5938 Q691.5156,712.9375 691.5156,709.8125 Q691.5156,706.6875 692.8281,705.0313 Q694.1563,703.375 696.6563,703.375 Q697.3594,703.375 698,703.5313 Q698.6563,703.6875 699.2188,703.9844 L699.2188,706.7031 Q698.5938,706.125 698,705.8594 Q697.4063,705.5781 696.7813,705.5781 Q695.4375,705.5781 694.75,706.6563 Q694.0625,707.7188 694.0625,709.8125 Q694.0625,711.9063 694.75,712.9844 Q695.4375,714.0469 696.7813,714.0469 Q697.4063,714.0469 698,713.7813 Q698.5938,713.5 699.2188,712.9219 L699.2188,715.6406 Z " fill="#000000"/><text fill="#000000" font-family="sans-serif" font-size="12" lengthAdjust="spacing" textLength="48" x="716.75" y="714.1543">Country</text><line style="stroke:#A80036;stroke-width:1.5;" x1="585" x2="864" y1="726" y2="726"/><text fill="#000000" font-family="sans-serif" font-size="11" lengthAdjust="spacing" textLength="147" x="590" y="740.2104">name : Multilingual_String</text><text fill="#000000" font-family="sans-serif" font-size="11" lengthAdjust="spacing" textLength="237" x="590" y="753.0151">iso3166alphaCode : ISO3166_Alpha_Code</text><text fill="#000000" font-family="sans-serif" font-size="11" lengthAdjust="spacing" textLength="269" x="590" y="765.8198">iso3166NumericCode : ISO3166_Numeric_Code</text><text fill="#000000" font-family="sans-serif" font-size="11" lengthAdjust="spacing" textLength="199" x="590" y="778.6245">euCountryCode : EU_Country_Code</text><!--MD5=[5b6d5f043b17cf3ce8a453f9008bb166]
class Postal Address--><rect fill="#FEFECE" filter="url(#f1bqyeg7wmov2j)" height="32" id="Postal Address" style="stroke:#A80036;stroke-width:1.5;" width="126" x="661.5" y="590.5"/><ellipse cx="676.5" cy="606.5" fill="#ADD1B2" rx="11" ry="11" style="stroke:#A80036;stroke-width:1.0;"/><path d="M679.4688,612.1406 Q678.8906,612.4375 678.25,612.5781 Q677.6094,612.7344 676.9063,612.7344 Q674.4063,612.7344 673.0781,611.0938 Q671.7656,609.4375 671.7656,606.3125 Q671.7656,603.1875 673.0781,601.5313 Q674.4063,599.875 676.9063,599.875 Q677.6094,599.875 678.25,600.0313 Q678.9063,600.1875 679.4688,600.4844 L679.4688,603.2031 Q678.8438,602.625 678.25,602.3594 Q677.6563,602.0781 677.0313,602.0781 Q675.6875,602.0781 675,603.1563 Q674.3125,604.2188 674.3125,606.3125 Q674.3125,608.4063 675,609.4844 Q675.6875,610.5469 677.0313,610.5469 Q677.6563,610.5469 678.25,610.2813 Q678.8438,610 679.4688,609.4219 L679.4688,612.1406 Z " fill="#000000"/><text fill="#000000" font-family="sans-serif" font-size="12" lengthAdjust="spacing" textLength="94" x="690.5" y="610.6543">Postal Address</text><!--MD5=[406eabaf9672e74804bc505a9777bf8f]
class Textual Document--><rect fill="#FEFECE" filter="url(#f1bqyeg7wmov2j)" height="32" id="Textual Document" style="stroke:#A80036;stroke-width:1.5;" width="145" x="474" y="162.5"/><ellipse cx="489" cy="178.5" fill="#ADD1B2" rx="11" ry="11" style="stroke:#A80036;stroke-width:1.0;"/><path d="M491.9688,184.1406 Q491.3906,184.4375 490.75,184.5781 Q490.1094,184.7344 489.4063,184.7344 Q486.9063,184.7344 485.5781,183.0938 Q484.2656,181.4375 484.2656,178.3125 Q484.2656,175.1875 485.5781,173.5313 Q486.9063,171.875 489.4063,171.875 Q490.1094,171.875 490.75,172.0313 Q491.4063,172.1875 491.9688,172.4844 L491.9688,175.2031 Q491.3438,174.625 490.75,174.3594 Q490.1563,174.0781 489.5313,174.0781 Q488.1875,174.0781 487.5,175.1563 Q486.8125,176.2188 486.8125,178.3125 Q486.8125,180.4063 487.5,181.4844 Q488.1875,182.5469 489.5313,182.5469 Q490.1563,182.5469 490.75,182.2813 Q491.3438,182 491.9688,181.4219 L491.9688,184.1406 Z " fill="#000000"/><text fill="#000000" font-family="sans-serif" font-size="12" lengthAdjust="spacing" textLength="113" x="503" y="182.6543">Textual Document</text><!--MD5=[632a0a9f063c22bc9f1456509ebe931b]
class Person Name--><rect fill="#FEFECE" filter="url(#f1bqyeg7wmov2j)" height="32" id="Person Name" style="stroke:#A80036;stroke-width:1.5;" width="116" x="282.5" y="590.5"/><ellipse cx="297.5" cy="606.5" fill="#ADD1B2" rx="11" ry="11" style="stroke:#A80036;stroke-width:1.0;"/><path d="M300.4688,612.1406 Q299.8906,612.4375 299.25,612.5781 Q298.6094,612.7344 297.9063,612.7344 Q295.4063,612.7344 294.0781,611.0938 Q292.7656,609.4375 292.7656,606.3125 Q292.7656,603.1875 294.0781,601.5313 Q295.4063,599.875 297.9063,599.875 Q298.6094,599.875 299.25,600.0313 Q299.9063,600.1875 300.4688,600.4844 L300.4688,603.2031 Q299.8438,602.625 299.25,602.3594 Q298.6563,602.0781 298.0313,602.0781 Q296.6875,602.0781 296,603.1563 Q295.3125,604.2188 295.3125,606.3125 Q295.3125,608.4063 296,609.4844 Q296.6875,610.5469 298.0313,610.5469 Q298.6563,610.5469 299.25,610.2813 Q299.8438,610 300.4688,609.4219 L300.4688,612.1406 Z " fill="#000000"/><text fill="#000000" font-family="sans-serif" font-size="12" lengthAdjust="spacing" textLength="84" x="311.5" y="610.6543">Person Name</text><!--MD5=[05b685b8e32e000146d4e5203ae16c64]
class Textual Document Accessibility Specification--><rect fill="#FEFECE" filter="url(#f1bqyeg7wmov2j)" height="32" id="Textual Document Accessibility Specification" style="stroke:#A80036;stroke-width:1.5;" width="308" x="392.5" y="33"/><ellipse cx="407.5" cy="49" fill="#ADD1B2" rx="11" ry="11" style="stroke:#A80036;stroke-width:1.0;"/><path d="M410.4688,54.6406 Q409.8906,54.9375 409.25,55.0781 Q408.6094,55.2344 407.9063,55.2344 Q405.4063,55.2344 404.0781,53.5938 Q402.7656,51.9375 402.7656,48.8125 Q402.7656,45.6875 404.0781,44.0313 Q405.4063,42.375 407.9063,42.375 Q408.6094,42.375 409.25,42.5313 Q409.9063,42.6875 410.4688,42.9844 L410.4688,45.7031 Q409.8438,45.125 409.25,44.8594 Q408.6563,44.5781 408.0313,44.5781 Q406.6875,44.5781 406,45.6563 Q405.3125,46.7188 405.3125,48.8125 Q405.3125,50.9063 406,51.9844 Q406.6875,53.0469 408.0313,53.0469 Q408.6563,53.0469 409.25,52.7813 Q409.8438,52.5 410.4688,51.9219 L410.4688,54.6406 Z " fill="#000000"/><text fill="#000000" font-family="sans-serif" font-size="12" lengthAdjust="spacing" textLength="276" x="421.5" y="53.1543">Textual Document Accessibility Specification</text><path d="M6,304 L6,404.7969 A0,0 0 0 0 6,404.7969 L271,404.7969 A0,0 0 0 0 271,404.7969 L271,358.5 L305.78,354.5 L271,350.5 L271,314 L261,304 L6,304 A0,0 0 0 0 6,304 " fill="#FBFB77" filter="url(#f1bqyeg7wmov2j)" style="stroke:#A80036;stroke-width:1.0;"/><path d="M261,304 L261,314 L271,314 L261,304 " fill="#FBFB77" style="stroke:#A80036;stroke-width:1.0;"/><text fill="#000000" font-family="sans-serif" font-size="13" lengthAdjust="spacing" textLength="240" x="12" y="321.0669">The Agent is mandatory for almost all</text><text fill="#000000" font-family="sans-serif" font-size="13" lengthAdjust="spacing" textLength="192" x="12" y="336.1997">subclasses of Contributorship,</text><text fill="#000000" font-family="sans-serif" font-size="13" lengthAdjust="spacing" textLength="203" x="12" y="351.3325">Reviewing is the exception if the</text><text fill="#000000" font-family="sans-serif" font-size="13" lengthAdjust="spacing" textLength="201" x="12" y="366.4653">reviewer's identity is concealed.</text><text fill="#000000" font-family="sans-serif" font-size="13" lengthAdjust="spacing" textLength="184" x="12" y="381.5981">Also useful when authors are</text><text fill="#000000" font-family="sans-serif" font-size="13" lengthAdjust="spacing" textLength="124" x="12" y="396.731">using pseudonyms.</text><!--MD5=[f88c115e3130e3b4ff5649ba9e133055]
reverse link Postal Address to Country--><path codeLine="61" d="M724.5,635.71 C724.5,652.7 724.5,674.7 724.5,694 " fill="none" id="Postal Address-backto-Country" style="stroke:#A80036;stroke-width:1.0;"/><polygon fill="#A80036" points="724.5,622.53,720.5,628.53,724.5,634.53,728.5,628.53,724.5,622.53" style="stroke:#A80036;stroke-width:1.0;"/><text fill="#000000" font-family="sans-serif" font-size="13" lengthAdjust="spacing" textLength="48" x="672.825" y="682.9447">country</text><!--MD5=[547f6a44f518d1b6b35b2beda81887ae]
link Affiliation Statement to Postal Address--><path codeLine="62" d="M658.23,519.2 C673.91,539.61 695.48,567.71 709.7,586.23 " fill="none" id="Affiliation Statement-to-Postal Address" style="stroke:#A80036;stroke-width:1.0;stroke-dasharray:7.0,7.0;"/><polygon fill="#A80036" points="712.8,590.26,710.5014,580.6831,709.759,586.291,704.1511,585.5487,712.8,590.26" style="stroke:#A80036;stroke-width:1.0;"/><text fill="#000000" font-family="sans-serif" font-size="13" lengthAdjust="spacing" textLength="91" x="723.9962" y="579.485">postalAddress</text><!--MD5=[4904fd3a26b4d7fe956968cf0a0d8a9b]
reverse link Affiliation Statement to Organisation Unit--><path codeLine="63" d="M597.32,529.07 C582.42,545.59 566.94,564.86 556.61,579.92 " fill="none" id="Affiliation Statement-backto-Organisation Unit" style="stroke:#A80036;stroke-width:1.0;"/><polygon fill="#FFFFFF" points="606.47,519.2,599.4566,520.877,598.3071,527.9959,605.3205,526.3189,606.47,519.2" style="stroke:#A80036;stroke-width:1.0;"/><text fill="#000000" font-family="sans-serif" font-size="13" lengthAdjust="spacing" textLength="47" x="506.5136" y="569.1438">orgUnit</text><!--MD5=[4904fd3a26b4d7fe956968cf0a0d8a9b]
reverse link Affiliation Statement to Organisation Unit--><path codeLine="64" d="M621.26,530 C609.17,546.32 593.3,565.15 579.05,579.92 " fill="none" id="Affiliation Statement-backto-Organisation Unit-1" style="stroke:#A80036;stroke-width:1.0;"/><polygon fill="#FFFFFF" points="628.96,519.2,622.2229,521.7712,622.0051,528.979,628.7422,526.4078,628.96,519.2" style="stroke:#A80036;stroke-width:1.0;"/><text fill="#000000" font-family="sans-serif" font-size="13" lengthAdjust="spacing" textLength="63" x="593.8616" y="569.1438">institution</text><!--MD5=[1e703325bca9787769503a051e7183a5]
reverse link Contribution Statement to Free Text Contribution--><path codeLine="66" d="M971.97,213.91 C983.17,247.5 999.94,297.83 1010,327.99 " fill="none" id="Contribution Statement-backto-Free Text Contribution" style="stroke:#A80036;stroke-width:1.0;"/><polygon fill="none" points="965.23,215.82,965.55,194.64,978.51,211.4,965.23,215.82" style="stroke:#A80036;stroke-width:1.0;"/><!--MD5=[504de05de5dc33320621ff1be2e6e6ff]
reverse link Agent to Contributorship--><path codeLine="70" d="M351.6,326.1 C362.67,302.14 382.2,269.43 411,254.5 C534.89,190.26 596,201.26 725,254.5 C757.54,267.93 785.08,297.56 803.06,321.1 " fill="none" id="Agent-backto-Contributorship" style="stroke:#A80036;stroke-width:1.0;"/><polygon fill="#A80036" points="346.32,338.34,352.3709,334.4174,351.0772,327.3233,345.0264,331.2459,346.32,338.34" style="stroke:#A80036;stroke-width:1.0;"/><!--MD5=[4629ab2f8b8cc60994d50cb24184a136]
reverse link Contributorship to Affiliation Statement--><path codeLine="72" d="M770.45,395.54 C739.19,418.27 700.99,446.05 673.76,465.86 " fill="none" id="Contributorship-backto-Affiliation Statement" style="stroke:#A80036;stroke-width:1.0;"/><polygon fill="#A80036" points="781.18,387.73,773.9751,388.0287,771.4797,394.7943,778.6846,394.4956,781.18,387.73" style="stroke:#A80036;stroke-width:1.0;"/><text fill="#000000" font-family="sans-serif" font-size="13" lengthAdjust="spacing" textLength="64" x="610.5139" y="455.07">affiliations</text><!--MD5=[87dce73954b4196bb1c032bbee886bf4]
link Contribution Statement to Contributorship--><path codeLine="74" d="M948.76,194.64 C928.9,220.22 888.02,272.91 858.79,310.6 " fill="none" id="Contribution Statement-to-Contributorship" style="stroke:#A80036;stroke-width:1.0;"/><polygon fill="#A80036" points="850.5,321.28,857.3386,318.9924,857.8572,311.8,851.0186,314.0876,850.5,321.28" style="stroke:#A80036;stroke-width:1.0;"/><text fill="#000000" font-family="sans-serif" font-size="13" lengthAdjust="spacing" textLength="152" x="767.6961" y="214.5596">contributionStatements</text><!--MD5=[515627370d950159b283430218e15046]
link Authorship to Textual Document--><path codeLine="76" d="M438.66,178.5 C445.95,178.5 453.23,178.5 460.52,178.5 " fill="none" id="Authorship-to-Textual Document" style="stroke:#A80036;stroke-width:1.0;"/><polygon fill="#A80036" points="473.63,178.5,467.63,174.5,461.63,178.5,467.63,182.5,473.63,178.5" style="stroke:#A80036;stroke-width:1.0;"/><!--MD5=[e74e4958a1d7eb99db8e977d8859ba66]
link Authorship to Contributorship--><path codeLine="77" d="M438.66,204.16 C522.96,225.53 642.83,259.93 742.5,304 C747.75,306.32 753.08,308.91 758.38,311.64 " fill="none" id="Authorship-to-Contributorship" style="stroke:#A80036;stroke-width:1.0;"/><polygon fill="none" points="761.92,305.6,776.07,321.37,755.17,317.87,761.92,305.6" style="stroke:#A80036;stroke-width:1.0;"/><!--MD5=[49125a4ba45432b051dcbcd9e53401d7]
link Authorship to Agent--><path codeLine="78" d="M302.23,205.22 C294.27,213.79 286.73,223.98 282.5,235 C276.29,251.18 277.13,257.52 282.5,274 C290.1,297.31 307.41,319.47 321.15,334.44 " fill="none" id="Authorship-to-Agent" style="stroke:#A80036;stroke-width:1.0;"/><polygon fill="#A80036" points="324.92,338.47,321.6827,329.1684,321.5003,334.8223,315.8464,334.6399,324.92,338.47" style="stroke:#A80036;stroke-width:1.0;"/><path d="M287.5,240 L287.5,265 L450.5,265 L450.5,250 L440.5,240 L287.5,240 " fill="#FF0000" filter="url(#f1bqyeg7wmov2j)" style="stroke:#A80036;stroke-width:1.0;"/><path d="M440.5,240 L440.5,250 L450.5,250 L440.5,240 " fill="#FF0000" style="stroke:#A80036;stroke-width:1.0;"/><text fill="#000000" font-family="sans-serif" font-size="13" lengthAdjust="spacing" textLength="142" x="293.5" y="257.0669">author == contributor</text><text fill="#000000" font-family="sans-serif" font-size="13" lengthAdjust="spacing" textLength="42" x="278.8717" y="341.8762">author</text><!--MD5=[305f439a05da2c07fd082ef842571a4c]
link Person to Person Name--><path codeLine="80" d="M340.5,519.2 C340.5,539.09 340.5,566.3 340.5,584.81 " fill="none" id="Person-to-Person Name" style="stroke:#A80036;stroke-width:1.0;stroke-dasharray:7.0,7.0;"/><polygon fill="#A80036" points="340.5,590.26,344.5,581.26,340.5,585.26,336.5,581.26,340.5,590.26" style="stroke:#A80036;stroke-width:1.0;"/><text fill="#000000" font-family="sans-serif" font-size="13" lengthAdjust="spacing" textLength="44" x="289.2125" y="579.485">names</text><!--MD5=[de96f77e660762cb21a195b4097c3876]
reverse link Agent to Person--><path codeLine="81" d="M340.5,390.87 C340.5,414.4 340.5,444.75 340.5,465.94 " fill="none" id="Agent-backto-Person" style="stroke:#A80036;stroke-width:1.0;"/><polygon fill="none" points="333.5,390.57,340.5,370.57,347.5,390.57,333.5,390.57" style="stroke:#A80036;stroke-width:1.0;"/><!--MD5=[58a58d00e9270883bf92cdf281f32c1a]
reverse link Agent to Organisation Unit--><path codeLine="82" d="M365.81,386.22 C406.81,435.98 487.02,533.31 525.25,579.71 " fill="none" id="Agent-backto-Organisation Unit" style="stroke:#A80036;stroke-width:1.0;"/><polygon fill="none" points="360.39,390.65,353.08,370.76,371.2,381.75,360.39,390.65" style="stroke:#A80036;stroke-width:1.0;"/><!--MD5=[0cd4e18d651655357be10210466ee4fc]
link Textual Document to Document--><path codeLine="84" d="M548.33,194.64 C551.35,219.65 557.49,270.55 562.01,308.03 " fill="none" id="Textual Document-to-Document" style="stroke:#A80036;stroke-width:1.0;"/><polygon fill="none" points="568.97,307.29,564.42,327.99,555.07,308.97,568.97,307.29" style="stroke:#A80036;stroke-width:1.0;"/><!--MD5=[467b17589d7b3ec09474af6cf2c3322d]
link Textual Document Accessibility Specification to Textual Document--><path codeLine="86" d="M546.5,65.13 C546.5,85.83 546.5,123.38 546.5,149.34 " fill="none" id="Textual Document Accessibility Specification-to-Textual Document" style="stroke:#A80036;stroke-width:1.0;"/><polygon fill="#A80036" points="546.5,162.39,550.5,156.39,546.5,150.39,542.5,156.39,546.5,162.39" style="stroke:#A80036;stroke-width:1.0;"/><text fill="#000000" font-family="sans-serif" font-size="13" lengthAdjust="spacing" textLength="83" x="449.7531" y="85.0463">accessRights</text><!--MD5=[d5a6c053a39d24fd07d740a282fdedf6]
reverse link Textual Document to Agent--><path codeLine="87" d="M530.03,205.54 C515.68,226.43 493.19,255.28 467.5,274 C438.82,294.9 423.41,284.9 393.5,304 C378.64,313.49 364.19,327.4 354.13,338.06 " fill="none" id="Textual Document-backto-Agent" style="stroke:#A80036;stroke-width:1.0;"/><polygon fill="#A80036" points="537.31,194.57,530.657,197.3516,530.6658,204.5627,537.3188,201.7811,537.31,194.57" style="stroke:#A80036;stroke-width:1.0;"/><text fill="#000000" font-family="sans-serif" font-size="13" lengthAdjust="spacing" textLength="49" x="301.6652" y="327.5172">authors</text><!--MD5=[c95e4b0984fa62ac336b93bd9ac21a63]
@startuml
    !startsub common
    	!define datatype(x) class x << (D,#FF7700) DataType>>
    	hide empty members
    !endsub

    !startsub Document
    class "Document"{
        title : Multilingual_String
        publicationDate : Date
        DOI : DOI_Type
    }
    class "Textual Document"{
    }
    !endsub
    !startsub TDAS
    class "Textual Document Accessibility Specification"{
    }
    !endsub
    class "Agent"{

    }
    class "Organisation Unit"{
        name : Multilingual_String
    }
    class "Person"{
        orcidid : ORCID_iD
    }
    datatype("Person_Name"){
        firstNames : String
        familyNames : String
        otherNames : String
    }
    class "Authorship"{
        correspondingAuthorFlag : Boolean
    }
    !startsub Contributorship
    class "Contributorship"{
        contacts : List<URI>
        displayName : String
    }
    class "Contribution Statement"{
    }
    class "Free Text Contribution"{
        statement : Multilingual_String
    }
    !endsub
    class "Affiliation Statement"{
        displayAffiliation : String
    }
   datatype("Postal_Address"){
        street : String
        city : String
        zipCode : String
    }
    class "Country"{
        name : Multilingual_String
        iso3166alphaCode : ISO3166_Alpha_Code
        iso3166NumericCode : ISO3166_Numeric_Code
        euCountryCode : EU_Country_Code
    }
    "Postal Address" *- - "country" "Country"
    "Affiliation Statement" ..> "postalAddress" "Postal Address"
    "Affiliation Statement" o- - "orgUnit" "Organisation Unit"
    "Affiliation Statement" o- - "institution" "Organisation Unit"
    !startsub Contributorship
    "Contribution Statement" <|- - "Free Text Contribution"
    "Contributorship" -r-* "Document"
    !endsub
    !startsub Contributorship
    "Contributorship" -l-* "Agent"
    !endsub
    "Contributorship" *- - "affiliations" "Affiliation Statement"
    !startsub Contributorship
    "Contributorship" *-u- "contributionStatements" "Contribution Statement"
    !endsub
    "Authorship" -r-* "Textual Document"
    "Contributorship" <|-u- "Authorship"
    "Authorship" - -> "author" "Agent"
    note on link #red: author == contributor
    "Person" .d.> "names" "Person Name"
    "Agent" <|-d- "Person"
    "Agent" <|-d- "Organisation Unit"
    !startsub Document
    "Document" <|-u- "Textual Document"
    !endsub
    "Textual Document" *-u- "accessRights" "Textual Document Accessibility Specification"
    "Textual Document" *- -  "authors" "Agent"

    note left of Agent: The Agent is mandatory for almost all \nsubclasses of Contributorship,\nReviewing is the exception if the \nreviewer's identity is concealed. \nAlso useful when authors are \nusing pseudonyms.
@enduml

@startuml
    	hide empty members

    class "Document"{
    class "Textual Document Accessibility Specification"{
    }
    class "Agent"{

    }
    class "Organisation Unit"{
        name : Multilingual_String
    }
    class "Person"{
        orcidid : ORCID_iD
    }
    class Person_Name << (D,#FF7700) DataType>>{
        firstNames : String
        familyNames : String
        otherNames : String
    }
    class "Authorship"{
        correspondingAuthorFlag : Boolean
    }
    class "Contributorship"{
        contacts : List<URI>
        displayName : String
    }
    class "Contribution Statement"{
    }
    class "Free Text Contribution"{
        statement : Multilingual_String
    }
    class "Affiliation Statement"{
        displayAffiliation : String
    }
   class Postal_Address << (D,#FF7700) DataType>>{
        street : String
        city : String
        zipCode : String
    }
    class "Country"{
        name : Multilingual_String
        iso3166alphaCode : ISO3166_Alpha_Code
        iso3166NumericCode : ISO3166_Numeric_Code
        euCountryCode : EU_Country_Code
    }
    "Postal Address" *- - "country" "Country"
    "Affiliation Statement" ..> "postalAddress" "Postal Address"
    "Affiliation Statement" o- - "orgUnit" "Organisation Unit"
    "Affiliation Statement" o- - "institution" "Organisation Unit"
    "Contribution Statement" <|- - "Free Text Contribution"
    "Contributorship" -l-* "Agent"
    "Contributorship" *- - "affiliations" "Affiliation Statement"
    "Contributorship" *-u- "contributionStatements" "Contribution Statement"
    "Authorship" -r-* "Textual Document"
    "Contributorship" <|-u- "Authorship"
    "Authorship" - -> "author" "Agent"
    note on link #red: author == contributor
    "Person" .d.> "names" "Person Name"
    "Agent" <|-d- "Person"
    "Agent" <|-d- "Organisation Unit"
    "Document" <|-u- "Textual Document"
    "Textual Document" *-u- "accessRights" "Textual Document Accessibility Specification"
    "Textual Document" *- -  "authors" "Agent"

    note left of Agent: The Agent is mandatory for almost all \nsubclasses of Contributorship,\nReviewing is the exception if the \nreviewer's identity is concealed. \nAlso useful when authors are \nusing pseudonyms.
@enduml

PlantUML version 1.2021.8(Sat Jun 26 08:20:59 UTC 2021)
(GPL source distribution)
Java Runtime: OpenJDK Runtime Environment
JVM: OpenJDK 64-Bit Server VM
Default Encoding: UTF-8
Language: en
Country: null
--></g></svg>