<?xml version="1.0" encoding="UTF-8" standalone="no"?><svg xmlns="http://www.w3.org/2000/svg" xmlns:xlink="http://www.w3.org/1999/xlink" contentScriptType="application/ecmascript" contentStyleType="text/css" height="1092px" preserveAspectRatio="none" style="width:963px;height:1092px;background:#FFFFFF;" version="1.1" viewBox="0 0 963 1092" width="963px" zoomAndPan="magnify"><defs><filter height="300%" id="f1l2jwwnm7zstp" width="300%" x="-1" y="-1"><feGaussianBlur result="blurOut" stdDeviation="2.0"/><feColorMatrix in="blurOut" result="blurOut2" type="matrix" values="0 0 0 0 0 0 0 0 0 0 0 0 0 0 0 0 0 0 .4 0"/><feOffset dx="4.0" dy="4.0" in="blurOut2" result="blurOut3"/><feBlend in="SourceGraphic" in2="blurOut3" mode="normal"/></filter></defs><g><!--MD5=[59b530d44ae785dc18db921986a9c15c]
class Document--><rect codeLine="8" fill="#00FFFF" filter="url(#f1l2jwwnm7zstp)" height="81.5078" id="Document" style="stroke:#A80036;stroke-width:1.5;" width="122" x="532.5" y="195"/><ellipse cx="562.35" cy="211" fill="#ADD1B2" rx="11" ry="11" style="stroke:#A80036;stroke-width:1.0;"/><path d="M565.1156,206.875 Q565.2719,206.6563 565.4594,206.5469 Q565.6469,206.4375 565.8656,206.4375 Q566.2406,206.4375 566.475,206.6953 Q566.7094,206.9531 566.7094,207.5625 L566.7094,209.0156 Q566.7094,209.625 566.475,209.8906 Q566.2406,210.1563 565.8656,210.1563 Q565.5219,210.1563 565.3188,209.9531 Q565.1156,209.7656 565.0063,209.25 Q564.9594,208.8906 564.7719,208.7031 Q564.4438,208.3281 563.8344,208.1094 Q563.225,207.8906 562.6,207.8906 Q561.8344,207.8906 561.2016,208.2188 Q560.5688,208.5469 560.0766,209.2969 Q559.5844,210.0469 559.5844,211.0781 L559.5844,212.1719 Q559.5844,213.4063 560.475,214.2266 Q561.3656,215.0469 562.9594,215.0469 Q563.8969,215.0469 564.5531,214.7969 Q564.9438,214.6406 565.3656,214.2031 Q565.6313,213.9375 565.7797,213.8594 Q565.9281,213.7813 566.1313,213.7813 Q566.4594,213.7813 566.7172,214.0391 Q566.975,214.2969 566.975,214.6406 Q566.975,214.9844 566.6313,215.3906 Q566.1313,215.9688 565.3344,216.2969 Q564.2563,216.75 562.9594,216.75 Q561.4438,216.75 560.2406,216.125 Q559.2563,215.625 558.5688,214.5547 Q557.8813,213.4844 557.8813,212.2031 L557.8813,211.0469 Q557.8813,209.7188 558.4984,208.5703 Q559.1156,207.4219 560.2094,206.8047 Q561.3031,206.1875 562.5375,206.1875 Q563.2719,206.1875 563.9203,206.3516 Q564.5688,206.5156 565.1156,206.875 Z " fill="#000000"/><text fill="#000000" font-family="sans-serif" font-size="12" lengthAdjust="spacing" textLength="57" x="579.65" y="215.9102">Document</text><line style="stroke:#A80036;stroke-width:1.5;" x1="533.5" x2="653.5" y1="227" y2="227"/><text fill="#000000" font-family="sans-serif" font-size="11" lengthAdjust="spacing" textLength="40" x="538.5" y="242.4189">doi : DOI</text><text fill="#000000" font-family="sans-serif" font-size="11" lengthAdjust="spacing" textLength="110" x="538.5" y="256.2549">title : Multilingual_String</text><text fill="#000000" font-family="sans-serif" font-size="11" lengthAdjust="spacing" textLength="104" x="538.5" y="270.0908">publicationDate : Date</text><!--MD5=[fe105c2ee1fabf2400c31a97ce9128bc]
class Textual_Document--><rect codeLine="14" fill="#00FFFF" filter="url(#f1l2jwwnm7zstp)" height="32" id="Textual_Document" style="stroke:#A80036;stroke-width:1.5;" width="135" x="493" y="18"/><ellipse cx="508" cy="34" fill="#ADD1B2" rx="11" ry="11" style="stroke:#A80036;stroke-width:1.0;"/><path d="M510.7656,29.875 Q510.9219,29.6563 511.1094,29.5469 Q511.2969,29.4375 511.5156,29.4375 Q511.8906,29.4375 512.125,29.6953 Q512.3594,29.9531 512.3594,30.5625 L512.3594,32.0156 Q512.3594,32.625 512.125,32.8906 Q511.8906,33.1563 511.5156,33.1563 Q511.1719,33.1563 510.9688,32.9531 Q510.7656,32.7656 510.6563,32.25 Q510.6094,31.8906 510.4219,31.7031 Q510.0938,31.3281 509.4844,31.1094 Q508.875,30.8906 508.25,30.8906 Q507.4844,30.8906 506.8516,31.2188 Q506.2188,31.5469 505.7266,32.2969 Q505.2344,33.0469 505.2344,34.0781 L505.2344,35.1719 Q505.2344,36.4063 506.125,37.2266 Q507.0156,38.0469 508.6094,38.0469 Q509.5469,38.0469 510.2031,37.7969 Q510.5938,37.6406 511.0156,37.2031 Q511.2813,36.9375 511.4297,36.8594 Q511.5781,36.7813 511.7813,36.7813 Q512.1094,36.7813 512.3672,37.0391 Q512.625,37.2969 512.625,37.6406 Q512.625,37.9844 512.2813,38.3906 Q511.7813,38.9688 510.9844,39.2969 Q509.9063,39.75 508.6094,39.75 Q507.0938,39.75 505.8906,39.125 Q504.9063,38.625 504.2188,37.5547 Q503.5313,36.4844 503.5313,35.2031 L503.5313,34.0469 Q503.5313,32.7188 504.1484,31.5703 Q504.7656,30.4219 505.8594,29.8047 Q506.9531,29.1875 508.1875,29.1875 Q508.9219,29.1875 509.5703,29.3516 Q510.2188,29.5156 510.7656,29.875 Z " fill="#000000"/><text fill="#000000" font-family="sans-serif" font-size="12" lengthAdjust="spacing" textLength="103" x="522" y="38.9102">Textual_Document</text><!--MD5=[152f153d79baedb26b20a34b9b1b571f]
class Textual_Document_Accessibility_Specification--><rect codeLine="16" fill="#00FFFF" filter="url(#f1l2jwwnm7zstp)" height="32" id="Textual_Document_Accessibility_Specification" style="stroke:#A80036;stroke-width:1.5;" width="286" x="663.5" y="18"/><ellipse cx="678.5" cy="34" fill="#ADD1B2" rx="11" ry="11" style="stroke:#A80036;stroke-width:1.0;"/><path d="M681.2656,29.875 Q681.4219,29.6563 681.6094,29.5469 Q681.7969,29.4375 682.0156,29.4375 Q682.3906,29.4375 682.625,29.6953 Q682.8594,29.9531 682.8594,30.5625 L682.8594,32.0156 Q682.8594,32.625 682.625,32.8906 Q682.3906,33.1563 682.0156,33.1563 Q681.6719,33.1563 681.4688,32.9531 Q681.2656,32.7656 681.1563,32.25 Q681.1094,31.8906 680.9219,31.7031 Q680.5938,31.3281 679.9844,31.1094 Q679.375,30.8906 678.75,30.8906 Q677.9844,30.8906 677.3516,31.2188 Q676.7188,31.5469 676.2266,32.2969 Q675.7344,33.0469 675.7344,34.0781 L675.7344,35.1719 Q675.7344,36.4063 676.625,37.2266 Q677.5156,38.0469 679.1094,38.0469 Q680.0469,38.0469 680.7031,37.7969 Q681.0938,37.6406 681.5156,37.2031 Q681.7813,36.9375 681.9297,36.8594 Q682.0781,36.7813 682.2813,36.7813 Q682.6094,36.7813 682.8672,37.0391 Q683.125,37.2969 683.125,37.6406 Q683.125,37.9844 682.7813,38.3906 Q682.2813,38.9688 681.4844,39.2969 Q680.4063,39.75 679.1094,39.75 Q677.5938,39.75 676.3906,39.125 Q675.4063,38.625 674.7188,37.5547 Q674.0313,36.4844 674.0313,35.2031 L674.0313,34.0469 Q674.0313,32.7188 674.6484,31.5703 Q675.2656,30.4219 676.3594,29.8047 Q677.4531,29.1875 678.6875,29.1875 Q679.4219,29.1875 680.0703,29.3516 Q680.7188,29.5156 681.2656,29.875 Z " fill="#000000"/><text fill="#000000" font-family="sans-serif" font-size="12" lengthAdjust="spacing" textLength="254" x="692.5" y="38.9102">Textual_Document_Accessibility_Specification</text><!--MD5=[9d44916250b776386006c440668bcfbb]
class Agent--><rect codeLine="19" fill="#00FFFF" filter="url(#f1l2jwwnm7zstp)" height="32" id="Agent" style="stroke:#A80036;stroke-width:1.5;" width="63" x="282" y="220"/><ellipse cx="297" cy="236" fill="#ADD1B2" rx="11" ry="11" style="stroke:#A80036;stroke-width:1.0;"/><path d="M299.7656,231.875 Q299.9219,231.6563 300.1094,231.5469 Q300.2969,231.4375 300.5156,231.4375 Q300.8906,231.4375 301.125,231.6953 Q301.3594,231.9531 301.3594,232.5625 L301.3594,234.0156 Q301.3594,234.625 301.125,234.8906 Q300.8906,235.1563 300.5156,235.1563 Q300.1719,235.1563 299.9688,234.9531 Q299.7656,234.7656 299.6563,234.25 Q299.6094,233.8906 299.4219,233.7031 Q299.0938,233.3281 298.4844,233.1094 Q297.875,232.8906 297.25,232.8906 Q296.4844,232.8906 295.8516,233.2188 Q295.2188,233.5469 294.7266,234.2969 Q294.2344,235.0469 294.2344,236.0781 L294.2344,237.1719 Q294.2344,238.4063 295.125,239.2266 Q296.0156,240.0469 297.6094,240.0469 Q298.5469,240.0469 299.2031,239.7969 Q299.5938,239.6406 300.0156,239.2031 Q300.2813,238.9375 300.4297,238.8594 Q300.5781,238.7813 300.7813,238.7813 Q301.1094,238.7813 301.3672,239.0391 Q301.625,239.2969 301.625,239.6406 Q301.625,239.9844 301.2813,240.3906 Q300.7813,240.9688 299.9844,241.2969 Q298.9063,241.75 297.6094,241.75 Q296.0938,241.75 294.8906,241.125 Q293.9063,240.625 293.2188,239.5547 Q292.5313,238.4844 292.5313,237.2031 L292.5313,236.0469 Q292.5313,234.7188 293.1484,233.5703 Q293.7656,232.4219 294.8594,231.8047 Q295.9531,231.1875 297.1875,231.1875 Q297.9219,231.1875 298.5703,231.3516 Q299.2188,231.5156 299.7656,231.875 Z " fill="#000000"/><text fill="#000000" font-family="sans-serif" font-size="12" lengthAdjust="spacing" textLength="31" x="311" y="240.9102">Agent</text><!--MD5=[779f3743e425ed8a6f0bf188ddea4860]
class Organisation_Unit--><rect codeLine="22" fill="#00FFFF" filter="url(#f1l2jwwnm7zstp)" height="123.0156" id="Organisation_Unit" style="stroke:#A80036;stroke-width:1.5;" width="138" x="308.5" y="628"/><ellipse cx="326.2" cy="644" fill="#ADD1B2" rx="11" ry="11" style="stroke:#A80036;stroke-width:1.0;"/><path d="M328.9656,639.875 Q329.1219,639.6563 329.3094,639.5469 Q329.4969,639.4375 329.7156,639.4375 Q330.0906,639.4375 330.325,639.6953 Q330.5594,639.9531 330.5594,640.5625 L330.5594,642.0156 Q330.5594,642.625 330.325,642.8906 Q330.0906,643.1563 329.7156,643.1563 Q329.3719,643.1563 329.1688,642.9531 Q328.9656,642.7656 328.8563,642.25 Q328.8094,641.8906 328.6219,641.7031 Q328.2938,641.3281 327.6844,641.1094 Q327.075,640.8906 326.45,640.8906 Q325.6844,640.8906 325.0516,641.2188 Q324.4188,641.5469 323.9266,642.2969 Q323.4344,643.0469 323.4344,644.0781 L323.4344,645.1719 Q323.4344,646.4063 324.325,647.2266 Q325.2156,648.0469 326.8094,648.0469 Q327.7469,648.0469 328.4031,647.7969 Q328.7938,647.6406 329.2156,647.2031 Q329.4813,646.9375 329.6297,646.8594 Q329.7781,646.7813 329.9813,646.7813 Q330.3094,646.7813 330.5672,647.0391 Q330.825,647.2969 330.825,647.6406 Q330.825,647.9844 330.4813,648.3906 Q329.9813,648.9688 329.1844,649.2969 Q328.1063,649.75 326.8094,649.75 Q325.2938,649.75 324.0906,649.125 Q323.1063,648.625 322.4188,647.5547 Q321.7313,646.4844 321.7313,645.2031 L321.7313,644.0469 Q321.7313,642.7188 322.3484,641.5703 Q322.9656,640.4219 324.0594,639.8047 Q325.1531,639.1875 326.3875,639.1875 Q327.1219,639.1875 327.7703,639.3516 Q328.4188,639.5156 328.9656,639.875 Z " fill="#000000"/><text fill="#000000" font-family="sans-serif" font-size="12" lengthAdjust="spacing" textLength="100" x="340.8" y="648.9102">Organisation_Unit</text><line style="stroke:#A80036;stroke-width:1.5;" x1="309.5" x2="445.5" y1="660" y2="660"/><text fill="#000000" font-family="sans-serif" font-size="11" lengthAdjust="spacing" textLength="120" x="314.5" y="675.4189">name : Multilingual_String</text><text fill="#000000" font-family="sans-serif" font-size="11" lengthAdjust="spacing" textLength="79" x="314.5" y="689.2549">acronym : String</text><text fill="#000000" font-family="sans-serif" font-size="11" lengthAdjust="spacing" textLength="126" x="314.5" y="703.0908">address : Postal_Address</text><text fill="#000000" font-family="sans-serif" font-size="11" lengthAdjust="spacing" textLength="67" x="314.5" y="716.9268">rorId : ROR_Id</text><text fill="#000000" font-family="sans-serif" font-size="11" lengthAdjust="spacing" textLength="89" x="314.5" y="730.7627">webSiteURL : URL</text><text fill="#000000" font-family="sans-serif" font-size="11" lengthAdjust="spacing" textLength="53" x="314.5" y="744.5986">email : URL</text><!--MD5=[09ce52be0ee7de43c61b6e2d59bf108b]
class Person--><rect codeLine="30" fill="#00FFFF" filter="url(#f1l2jwwnm7zstp)" height="67.6719" id="Person" style="stroke:#A80036;stroke-width:1.5;" width="114" x="256.5" y="350"/><ellipse cx="290.4" cy="366" fill="#ADD1B2" rx="11" ry="11" style="stroke:#A80036;stroke-width:1.0;"/><path d="M293.1656,361.875 Q293.3219,361.6563 293.5094,361.5469 Q293.6969,361.4375 293.9156,361.4375 Q294.2906,361.4375 294.525,361.6953 Q294.7594,361.9531 294.7594,362.5625 L294.7594,364.0156 Q294.7594,364.625 294.525,364.8906 Q294.2906,365.1563 293.9156,365.1563 Q293.5719,365.1563 293.3688,364.9531 Q293.1656,364.7656 293.0563,364.25 Q293.0094,363.8906 292.8219,363.7031 Q292.4938,363.3281 291.8844,363.1094 Q291.275,362.8906 290.65,362.8906 Q289.8844,362.8906 289.2516,363.2188 Q288.6188,363.5469 288.1266,364.2969 Q287.6344,365.0469 287.6344,366.0781 L287.6344,367.1719 Q287.6344,368.4063 288.525,369.2266 Q289.4156,370.0469 291.0094,370.0469 Q291.9469,370.0469 292.6031,369.7969 Q292.9938,369.6406 293.4156,369.2031 Q293.6813,368.9375 293.8297,368.8594 Q293.9781,368.7813 294.1813,368.7813 Q294.5094,368.7813 294.7672,369.0391 Q295.025,369.2969 295.025,369.6406 Q295.025,369.9844 294.6813,370.3906 Q294.1813,370.9688 293.3844,371.2969 Q292.3063,371.75 291.0094,371.75 Q289.4938,371.75 288.2906,371.125 Q287.3063,370.625 286.6188,369.5547 Q285.9313,368.4844 285.9313,367.2031 L285.9313,366.0469 Q285.9313,364.7188 286.5484,363.5703 Q287.1656,362.4219 288.2594,361.8047 Q289.3531,361.1875 290.5875,361.1875 Q291.3219,361.1875 291.9703,361.3516 Q292.6188,361.5156 293.1656,361.875 Z " fill="#000000"/><text fill="#000000" font-family="sans-serif" font-size="12" lengthAdjust="spacing" textLength="40" x="308.6" y="370.9102">Person</text><line style="stroke:#A80036;stroke-width:1.5;" x1="257.5" x2="369.5" y1="382" y2="382"/><text fill="#000000" font-family="sans-serif" font-size="11" lengthAdjust="spacing" textLength="102" x="262.5" y="397.4189">name : Person_Name</text><text fill="#000000" font-family="sans-serif" font-size="11" lengthAdjust="spacing" textLength="87" x="262.5" y="411.2549">orcidId : ORCID_iD</text><!--MD5=[7b209ef07eb91b93e0aebc9fe4fb9a26]
class Person_Name--><rect codeLine="34" fill="#00FFFF" filter="url(#f1l2jwwnm7zstp)" height="89.6953" id="Person_Name" style="stroke:#A80036;stroke-width:1.5;" width="167" x="164" y="478"/><ellipse cx="203.3" cy="498.0938" fill="#FF7700" rx="11" ry="11" style="stroke:#A80036;stroke-width:1.0;"/><path d="M200.8469,501.3906 L200.8469,494.7344 Q200.3,494.7188 200.0422,494.4844 Q199.7844,494.25 199.7844,493.875 Q199.7844,493.5 200.05,493.2656 Q200.3156,493.0313 200.925,493.0313 L204.4875,493.0313 Q205.3156,493.0313 206.1125,493.3359 Q206.9094,493.6406 207.3938,494.125 Q207.7531,494.4844 208.1438,495.1016 Q208.5344,495.7188 208.7375,496.3359 Q208.9406,496.9531 208.9406,497.8438 L208.9406,498.6563 Q208.9406,499.7344 208.5734,500.5703 Q208.2063,501.4063 207.6125,501.9297 Q207.0188,502.4531 206.5031,502.7031 Q205.675,503.0938 204.3469,503.0938 L200.925,503.0938 Q200.3156,503.0938 200.05,502.8594 Q199.7844,502.625 199.7844,502.2344 Q199.7844,501.8594 200.05,501.625 Q200.3156,501.3906 200.8469,501.3906 Z M202.55,501.3906 L204.3625,501.3906 Q205.3625,501.3906 205.8781,501.0938 Q206.55,500.7188 206.8938,500.1328 Q207.2375,499.5469 207.2375,498.6094 L207.2375,497.7969 Q207.2375,497 206.925,496.3906 Q206.4406,495.4375 205.8391,495.0859 Q205.2375,494.7344 204.3469,494.7344 L202.55,494.7344 L202.55,501.3906 Z " fill="#000000"/><text fill="#000000" font-family="sans-serif" font-size="12" font-style="italic" lengthAdjust="spacing" textLength="67" x="229.7" y="495.457">«DataType»</text><text fill="#000000" font-family="sans-serif" font-size="12" lengthAdjust="spacing" textLength="81" x="222.7" y="510.5508">Person_Name</text><line style="stroke:#A80036;stroke-width:1.5;" x1="165" x2="330" y1="518.1875" y2="518.1875"/><text fill="#000000" font-family="sans-serif" font-size="11" lengthAdjust="spacing" textLength="146" x="170" y="533.6064">firstNames : Multilingual_String</text><text fill="#000000" font-family="sans-serif" font-size="11" lengthAdjust="spacing" textLength="155" x="170" y="547.4424">familyNames : Multilingual_String</text><text fill="#000000" font-family="sans-serif" font-size="11" lengthAdjust="spacing" textLength="152" x="170" y="561.2783">otherNames : Multilingual_String</text><!--MD5=[fe1d14fe6d68ca7e76eb34268c62a1f3]
class Postal_Address--><rect codeLine="39" fill="#00FFFF" filter="url(#f1l2jwwnm7zstp)" height="103.5313" id="Postal_Address" style="stroke:#A80036;stroke-width:1.5;" width="145" x="366" y="811"/><ellipse cx="392.25" cy="831.0938" fill="#FF7700" rx="11" ry="11" style="stroke:#A80036;stroke-width:1.0;"/><path d="M389.7969,834.3906 L389.7969,827.7344 Q389.25,827.7188 388.9922,827.4844 Q388.7344,827.25 388.7344,826.875 Q388.7344,826.5 389,826.2656 Q389.2656,826.0313 389.875,826.0313 L393.4375,826.0313 Q394.2656,826.0313 395.0625,826.3359 Q395.8594,826.6406 396.3438,827.125 Q396.7031,827.4844 397.0938,828.1016 Q397.4844,828.7188 397.6875,829.3359 Q397.8906,829.9531 397.8906,830.8438 L397.8906,831.6563 Q397.8906,832.7344 397.5234,833.5703 Q397.1563,834.4063 396.5625,834.9297 Q395.9688,835.4531 395.4531,835.7031 Q394.625,836.0938 393.2969,836.0938 L389.875,836.0938 Q389.2656,836.0938 389,835.8594 Q388.7344,835.625 388.7344,835.2344 Q388.7344,834.8594 389,834.625 Q389.2656,834.3906 389.7969,834.3906 Z M391.5,834.3906 L393.3125,834.3906 Q394.3125,834.3906 394.8281,834.0938 Q395.5,833.7188 395.8438,833.1328 Q396.1875,832.5469 396.1875,831.6094 L396.1875,830.7969 Q396.1875,830 395.875,829.3906 Q395.3906,828.4375 394.7891,828.0859 Q394.1875,827.7344 393.2969,827.7344 L391.5,827.7344 L391.5,834.3906 Z " fill="#000000"/><text fill="#000000" font-family="sans-serif" font-size="12" font-style="italic" lengthAdjust="spacing" textLength="67" x="419.25" y="828.457">«DataType»</text><text fill="#000000" font-family="sans-serif" font-size="12" lengthAdjust="spacing" textLength="88" x="408.75" y="843.5508">Postal_Address</text><line style="stroke:#A80036;stroke-width:1.5;" x1="367" x2="510" y1="851.1875" y2="851.1875"/><text fill="#000000" font-family="sans-serif" font-size="11" lengthAdjust="spacing" textLength="122" x="372" y="866.6064">street : Multilingual_String</text><text fill="#000000" font-family="sans-serif" font-size="11" lengthAdjust="spacing" textLength="111" x="372" y="880.4424">city : Multilingual_String</text><text fill="#000000" font-family="sans-serif" font-size="11" lengthAdjust="spacing" textLength="133" x="372" y="894.2783">zipCode : Multilingual_String</text><text fill="#000000" font-family="sans-serif" font-size="11" lengthAdjust="spacing" textLength="84" x="372" y="908.1143">country : Country</text><!--MD5=[deb4e1f6eb1e3c1256fdb830f96abfbb]
class Country--><rect codeLine="45" fill="#00FFFF" filter="url(#f1l2jwwnm7zstp)" height="103.5313" id="Country" style="stroke:#A80036;stroke-width:1.5;" width="254" x="311.5" y="975"/><ellipse cx="402.75" cy="995.0938" fill="#FF7700" rx="11" ry="11" style="stroke:#A80036;stroke-width:1.0;"/><path d="M400.2969,998.3906 L400.2969,991.7344 Q399.75,991.7188 399.4922,991.4844 Q399.2344,991.25 399.2344,990.875 Q399.2344,990.5 399.5,990.2656 Q399.7656,990.0313 400.375,990.0313 L403.9375,990.0313 Q404.7656,990.0313 405.5625,990.3359 Q406.3594,990.6406 406.8438,991.125 Q407.2031,991.4844 407.5938,992.1016 Q407.9844,992.7188 408.1875,993.3359 Q408.3906,993.9531 408.3906,994.8438 L408.3906,995.6563 Q408.3906,996.7344 408.0234,997.5703 Q407.6563,998.4063 407.0625,998.9297 Q406.4688,999.4531 405.9531,999.7031 Q405.125,1000.0938 403.7969,1000.0938 L400.375,1000.0938 Q399.7656,1000.0938 399.5,999.8594 Q399.2344,999.625 399.2344,999.2344 Q399.2344,998.8594 399.5,998.625 Q399.7656,998.3906 400.2969,998.3906 Z M402,998.3906 L403.8125,998.3906 Q404.8125,998.3906 405.3281,998.0938 Q406,997.7188 406.3438,997.1328 Q406.6875,996.5469 406.6875,995.6094 L406.6875,994.7969 Q406.6875,994 406.375,993.3906 Q405.8906,992.4375 405.2891,992.0859 Q404.6875,991.7344 403.7969,991.7344 L402,991.7344 L402,998.3906 Z " fill="#000000"/><text fill="#000000" font-family="sans-serif" font-size="12" font-style="italic" lengthAdjust="spacing" textLength="67" x="421.25" y="992.457">«DataType»</text><text fill="#000000" font-family="sans-serif" font-size="12" lengthAdjust="spacing" textLength="42" x="433.75" y="1007.5508">Country</text><line style="stroke:#A80036;stroke-width:1.5;" x1="312.5" x2="564.5" y1="1015.1875" y2="1015.1875"/><text fill="#000000" font-family="sans-serif" font-size="11" lengthAdjust="spacing" textLength="120" x="331.5" y="1030.6064">name : Multilingual_String</text><text fill="#000000" font-family="sans-serif" font-size="11" lengthAdjust="spacing" textLength="216" x="331.5" y="1044.4424">iso3166alpha2Code : ISO3166_Alpha2_Code</text><polygon fill="none" points="322.5,1048.8594,326.5,1052.8594,322.5,1056.8594,318.5,1052.8594" style="stroke:#B38D22;stroke-width:1.0;"/><text fill="#000000" font-family="sans-serif" font-size="11" lengthAdjust="spacing" textLength="228" x="331.5" y="1058.2783">iso3166NumericCode : ISO3166_Numeric_Code</text><polygon fill="none" points="322.5,1062.6953,326.5,1066.6953,322.5,1070.6953,318.5,1066.6953" style="stroke:#B38D22;stroke-width:1.0;"/><text fill="#000000" font-family="sans-serif" font-size="11" lengthAdjust="spacing" textLength="172" x="331.5" y="1072.1143">euCountryCode : EU_Country_Code</text><!--MD5=[3b25461e5df73ababc6765bb9b0c47d3]
class Authorship--><rect codeLine="53" fill="#00FFFF" filter="url(#f1l2jwwnm7zstp)" height="53.8359" id="Authorship" style="stroke:#A80036;stroke-width:1.5;" width="183" x="275" y="7"/><ellipse cx="332.75" cy="23" fill="#ADD1B2" rx="11" ry="11" style="stroke:#A80036;stroke-width:1.0;"/><path d="M335.5156,18.875 Q335.6719,18.6563 335.8594,18.5469 Q336.0469,18.4375 336.2656,18.4375 Q336.6406,18.4375 336.875,18.6953 Q337.1094,18.9531 337.1094,19.5625 L337.1094,21.0156 Q337.1094,21.625 336.875,21.8906 Q336.6406,22.1563 336.2656,22.1563 Q335.9219,22.1563 335.7188,21.9531 Q335.5156,21.7656 335.4063,21.25 Q335.3594,20.8906 335.1719,20.7031 Q334.8438,20.3281 334.2344,20.1094 Q333.625,19.8906 333,19.8906 Q332.2344,19.8906 331.6016,20.2188 Q330.9688,20.5469 330.4766,21.2969 Q329.9844,22.0469 329.9844,23.0781 L329.9844,24.1719 Q329.9844,25.4063 330.875,26.2266 Q331.7656,27.0469 333.3594,27.0469 Q334.2969,27.0469 334.9531,26.7969 Q335.3438,26.6406 335.7656,26.2031 Q336.0313,25.9375 336.1797,25.8594 Q336.3281,25.7813 336.5313,25.7813 Q336.8594,25.7813 337.1172,26.0391 Q337.375,26.2969 337.375,26.6406 Q337.375,26.9844 337.0313,27.3906 Q336.5313,27.9688 335.7344,28.2969 Q334.6563,28.75 333.3594,28.75 Q331.8438,28.75 330.6406,28.125 Q329.6563,27.625 328.9688,26.5547 Q328.2813,25.4844 328.2813,24.2031 L328.2813,23.0469 Q328.2813,21.7188 328.8984,20.5703 Q329.5156,19.4219 330.6094,18.8047 Q331.7031,18.1875 332.9375,18.1875 Q333.6719,18.1875 334.3203,18.3516 Q334.9688,18.5156 335.5156,18.875 Z " fill="#000000"/><text fill="#000000" font-family="sans-serif" font-size="12" lengthAdjust="spacing" textLength="59" x="353.25" y="27.9102">Authorship</text><line style="stroke:#A80036;stroke-width:1.5;" x1="276" x2="457" y1="39" y2="39"/><text fill="#000000" font-family="sans-serif" font-size="11" lengthAdjust="spacing" textLength="171" x="281" y="54.4189">correspondingAuthorFlag : Boolean</text><path d="M97.5,21 L97.5,47.3516 A0,0 0 0 0 97.5,47.3516 L239.5,47.3516 A0,0 0 0 0 239.5,47.3516 L239.5,39 L274.84,34 L239.5,31 L239.5,31 L229.5,21 L97.5,21 A0,0 0 0 0 97.5,21 " fill="#FFFF00" filter="url(#f1l2jwwnm7zstp)" style="stroke:#A80036;stroke-width:1.0;"/><path d="M229.5,21 L229.5,31 L239.5,31 L229.5,21 " fill="#FFFF00" style="stroke:#A80036;stroke-width:1.0;"/><text fill="#000000" font-family="sans-serif" font-size="13" lengthAdjust="spacing" textLength="121" x="103.5" y="39.4951">author == contributor</text><!--MD5=[b821bb113f9f55c728f1fbb8949cc3af]
class Contributorship--><rect codeLine="58" fill="#00FFFF" filter="url(#f1l2jwwnm7zstp)" height="67.6719" id="Contributorship" style="stroke:#A80036;stroke-width:1.5;" width="117" x="380" y="202"/><ellipse cx="395" cy="218" fill="#ADD1B2" rx="11" ry="11" style="stroke:#A80036;stroke-width:1.0;"/><path d="M397.7656,213.875 Q397.9219,213.6563 398.1094,213.5469 Q398.2969,213.4375 398.5156,213.4375 Q398.8906,213.4375 399.125,213.6953 Q399.3594,213.9531 399.3594,214.5625 L399.3594,216.0156 Q399.3594,216.625 399.125,216.8906 Q398.8906,217.1563 398.5156,217.1563 Q398.1719,217.1563 397.9688,216.9531 Q397.7656,216.7656 397.6563,216.25 Q397.6094,215.8906 397.4219,215.7031 Q397.0938,215.3281 396.4844,215.1094 Q395.875,214.8906 395.25,214.8906 Q394.4844,214.8906 393.8516,215.2188 Q393.2188,215.5469 392.7266,216.2969 Q392.2344,217.0469 392.2344,218.0781 L392.2344,219.1719 Q392.2344,220.4063 393.125,221.2266 Q394.0156,222.0469 395.6094,222.0469 Q396.5469,222.0469 397.2031,221.7969 Q397.5938,221.6406 398.0156,221.2031 Q398.2813,220.9375 398.4297,220.8594 Q398.5781,220.7813 398.7813,220.7813 Q399.1094,220.7813 399.3672,221.0391 Q399.625,221.2969 399.625,221.6406 Q399.625,221.9844 399.2813,222.3906 Q398.7813,222.9688 397.9844,223.2969 Q396.9063,223.75 395.6094,223.75 Q394.0938,223.75 392.8906,223.125 Q391.9063,222.625 391.2188,221.5547 Q390.5313,220.4844 390.5313,219.2031 L390.5313,218.0469 Q390.5313,216.7188 391.1484,215.5703 Q391.7656,214.4219 392.8594,213.8047 Q393.9531,213.1875 395.1875,213.1875 Q395.9219,213.1875 396.5703,213.3516 Q397.2188,213.5156 397.7656,213.875 Z " fill="#000000"/><text fill="#000000" font-family="sans-serif" font-size="12" lengthAdjust="spacing" textLength="85" x="409" y="222.9102">Contributorship</text><line style="stroke:#A80036;stroke-width:1.5;" x1="381" x2="496" y1="234" y2="234"/><text fill="#000000" font-family="sans-serif" font-size="11" lengthAdjust="spacing" textLength="96" x="386" y="249.4189">contacts : List&lt;URI&gt;</text><text fill="#000000" font-family="sans-serif" font-size="11" lengthAdjust="spacing" textLength="98" x="386" y="263.2549">displayName : String</text><!--MD5=[532fe005ca0bef0ad6b309c9c6480e22]
class Contribution_Statement--><rect codeLine="62" fill="#00FFFF" filter="url(#f1l2jwwnm7zstp)" height="32" id="Contribution_Statement" style="stroke:#A80036;stroke-width:1.5;" width="162" x="533.5" y="368"/><ellipse cx="548.5" cy="384" fill="#ADD1B2" rx="11" ry="11" style="stroke:#A80036;stroke-width:1.0;"/><path d="M551.2656,379.875 Q551.4219,379.6563 551.6094,379.5469 Q551.7969,379.4375 552.0156,379.4375 Q552.3906,379.4375 552.625,379.6953 Q552.8594,379.9531 552.8594,380.5625 L552.8594,382.0156 Q552.8594,382.625 552.625,382.8906 Q552.3906,383.1563 552.0156,383.1563 Q551.6719,383.1563 551.4688,382.9531 Q551.2656,382.7656 551.1563,382.25 Q551.1094,381.8906 550.9219,381.7031 Q550.5938,381.3281 549.9844,381.1094 Q549.375,380.8906 548.75,380.8906 Q547.9844,380.8906 547.3516,381.2188 Q546.7188,381.5469 546.2266,382.2969 Q545.7344,383.0469 545.7344,384.0781 L545.7344,385.1719 Q545.7344,386.4063 546.625,387.2266 Q547.5156,388.0469 549.1094,388.0469 Q550.0469,388.0469 550.7031,387.7969 Q551.0938,387.6406 551.5156,387.2031 Q551.7813,386.9375 551.9297,386.8594 Q552.0781,386.7813 552.2813,386.7813 Q552.6094,386.7813 552.8672,387.0391 Q553.125,387.2969 553.125,387.6406 Q553.125,387.9844 552.7813,388.3906 Q552.2813,388.9688 551.4844,389.2969 Q550.4063,389.75 549.1094,389.75 Q547.5938,389.75 546.3906,389.125 Q545.4063,388.625 544.7188,387.5547 Q544.0313,386.4844 544.0313,385.2031 L544.0313,384.0469 Q544.0313,382.7188 544.6484,381.5703 Q545.2656,380.4219 546.3594,379.8047 Q547.4531,379.1875 548.6875,379.1875 Q549.4219,379.1875 550.0703,379.3516 Q550.7188,379.5156 551.2656,379.875 Z " fill="#000000"/><text fill="#000000" font-family="sans-serif" font-size="12" lengthAdjust="spacing" textLength="130" x="562.5" y="388.9102">Contribution_Statement</text><!--MD5=[75e6ee6f0cee60576da1adad405695b7]
class Free_Text_Contribution_Statement--><rect codeLine="64" fill="#00FFFF" filter="url(#f1l2jwwnm7zstp)" height="53.8359" id="Free_Text_Contribution_Statement" style="stroke:#A80036;stroke-width:1.5;" width="223" x="546" y="496"/><ellipse cx="561" cy="512" fill="#ADD1B2" rx="11" ry="11" style="stroke:#A80036;stroke-width:1.0;"/><path d="M563.7656,507.875 Q563.9219,507.6563 564.1094,507.5469 Q564.2969,507.4375 564.5156,507.4375 Q564.8906,507.4375 565.125,507.6953 Q565.3594,507.9531 565.3594,508.5625 L565.3594,510.0156 Q565.3594,510.625 565.125,510.8906 Q564.8906,511.1563 564.5156,511.1563 Q564.1719,511.1563 563.9688,510.9531 Q563.7656,510.7656 563.6563,510.25 Q563.6094,509.8906 563.4219,509.7031 Q563.0938,509.3281 562.4844,509.1094 Q561.875,508.8906 561.25,508.8906 Q560.4844,508.8906 559.8516,509.2188 Q559.2188,509.5469 558.7266,510.2969 Q558.2344,511.0469 558.2344,512.0781 L558.2344,513.1719 Q558.2344,514.4063 559.125,515.2266 Q560.0156,516.0469 561.6094,516.0469 Q562.5469,516.0469 563.2031,515.7969 Q563.5938,515.6406 564.0156,515.2031 Q564.2813,514.9375 564.4297,514.8594 Q564.5781,514.7813 564.7813,514.7813 Q565.1094,514.7813 565.3672,515.0391 Q565.625,515.2969 565.625,515.6406 Q565.625,515.9844 565.2813,516.3906 Q564.7813,516.9688 563.9844,517.2969 Q562.9063,517.75 561.6094,517.75 Q560.0938,517.75 558.8906,517.125 Q557.9063,516.625 557.2188,515.5547 Q556.5313,514.4844 556.5313,513.2031 L556.5313,512.0469 Q556.5313,510.7188 557.1484,509.5703 Q557.7656,508.4219 558.8594,507.8047 Q559.9531,507.1875 561.1875,507.1875 Q561.9219,507.1875 562.5703,507.3516 Q563.2188,507.5156 563.7656,507.875 Z " fill="#000000"/><text fill="#000000" font-family="sans-serif" font-size="12" lengthAdjust="spacing" textLength="191" x="575" y="516.9102">Free_Text_Contribution_Statement</text><line style="stroke:#A80036;stroke-width:1.5;" x1="547" x2="768" y1="528" y2="528"/><text fill="#000000" font-family="sans-serif" font-size="11" lengthAdjust="spacing" textLength="141" x="552" y="543.4189">statement : Multilingual_String</text><!--MD5=[ddbff00b4911ad4b77d6aa32dd14d1d7]
class Affiliation_Statement--><rect codeLine="67" fill="#00FFFF" filter="url(#f1l2jwwnm7zstp)" height="67.6719" id="Affiliation_Statement" style="stroke:#A80036;stroke-width:1.5;" width="144" x="366.5" y="489"/><ellipse cx="381.5" cy="505" fill="#ADD1B2" rx="11" ry="11" style="stroke:#A80036;stroke-width:1.0;"/><path d="M384.2656,500.875 Q384.4219,500.6563 384.6094,500.5469 Q384.7969,500.4375 385.0156,500.4375 Q385.3906,500.4375 385.625,500.6953 Q385.8594,500.9531 385.8594,501.5625 L385.8594,503.0156 Q385.8594,503.625 385.625,503.8906 Q385.3906,504.1563 385.0156,504.1563 Q384.6719,504.1563 384.4688,503.9531 Q384.2656,503.7656 384.1563,503.25 Q384.1094,502.8906 383.9219,502.7031 Q383.5938,502.3281 382.9844,502.1094 Q382.375,501.8906 381.75,501.8906 Q380.9844,501.8906 380.3516,502.2188 Q379.7188,502.5469 379.2266,503.2969 Q378.7344,504.0469 378.7344,505.0781 L378.7344,506.1719 Q378.7344,507.4063 379.625,508.2266 Q380.5156,509.0469 382.1094,509.0469 Q383.0469,509.0469 383.7031,508.7969 Q384.0938,508.6406 384.5156,508.2031 Q384.7813,507.9375 384.9297,507.8594 Q385.0781,507.7813 385.2813,507.7813 Q385.6094,507.7813 385.8672,508.0391 Q386.125,508.2969 386.125,508.6406 Q386.125,508.9844 385.7813,509.3906 Q385.2813,509.9688 384.4844,510.2969 Q383.4063,510.75 382.1094,510.75 Q380.5938,510.75 379.3906,510.125 Q378.4063,509.625 377.7188,508.5547 Q377.0313,507.4844 377.0313,506.2031 L377.0313,505.0469 Q377.0313,503.7188 377.6484,502.5703 Q378.2656,501.4219 379.3594,500.8047 Q380.4531,500.1875 381.6875,500.1875 Q382.4219,500.1875 383.0703,500.3516 Q383.7188,500.5156 384.2656,500.875 Z " fill="#000000"/><text fill="#000000" font-family="sans-serif" font-size="12" lengthAdjust="spacing" textLength="112" x="395.5" y="509.9102">Affiliation_Statement</text><line style="stroke:#A80036;stroke-width:1.5;" x1="367.5" x2="509.5" y1="521" y2="521"/><text fill="#000000" font-family="sans-serif" font-size="11" lengthAdjust="spacing" textLength="116" x="372.5" y="536.4189">displayAffiliation : String</text><text fill="#000000" font-family="sans-serif" font-size="11" lengthAdjust="spacing" textLength="126" x="372.5" y="550.2549">address : Postal_Address</text><path d="M6,182 L6,290.1094 A0,0 0 0 0 6,290.1094 L247,290.1094 A0,0 0 0 0 247,290.1094 L247,240 L281.82,236 L247,232 L247,192 L237,182 L6,182 A0,0 0 0 0 6,182 " fill="#FBFB77" filter="url(#f1l2jwwnm7zstp)" style="stroke:#A80036;stroke-width:1.0;"/><path d="M237,182 L237,192 L247,192 L237,182 " fill="#FBFB77" style="stroke:#A80036;stroke-width:1.0;"/><text fill="#000000" font-family="sans-serif" font-size="13" lengthAdjust="spacing" textLength="216" x="12" y="200.4951">The Agent is mandatory for almost all</text><text fill="#000000" font-family="sans-serif" font-size="13" lengthAdjust="spacing" textLength="175" x="12" y="216.8467">subclasses of Contributorship,</text><text fill="#000000" font-family="sans-serif" font-size="13" lengthAdjust="spacing" textLength="185" x="12" y="233.1982">Reviewing is the exception if the</text><text fill="#000000" font-family="sans-serif" font-size="13" lengthAdjust="spacing" textLength="182" x="12" y="249.5498">reviewer's identity is concealed.</text><text fill="#000000" font-family="sans-serif" font-size="13" lengthAdjust="spacing" textLength="167" x="12" y="265.9014">Also useful when authors are</text><text fill="#000000" font-family="sans-serif" font-size="13" lengthAdjust="spacing" textLength="113" x="12" y="282.2529">using pseudonyms.</text><!--MD5=[1c2d5a11bdff8297fbebaa44435072c9]
link Postal_Address to Country--><path codeLine="51" d="M438.5,927.26 C438.5,927.26 438.5,950.8 438.5,961.73 " fill="none" id="Postal_Address-Country" style="stroke:#A80036;stroke-width:1.0;"/><polygon fill="#A80036" points="438.5,974.8,442.5,965.8,438.5,969.8,434.5,965.8,438.5,974.8" style="stroke:#A80036;stroke-width:1.0;"/><line style="stroke:#A80036;stroke-width:1.0;" x1="438.5" x2="438.5" y1="969.8" y2="961.8"/><polygon fill="#FFFFFF" points="438.5,915.26,434.5,921.26,438.5,927.26,442.5,921.26,438.5,915.26" style="stroke:#A80036;stroke-width:1.0;"/><text fill="#000000" font-family="sans-serif" font-size="13" lengthAdjust="spacing" textLength="43" x="392.6109" y="964.2609">country</text><!--MD5=[af6b79ce3af62c8c5ee779db9fbc8cf6]
link Affiliation_Statement to Postal_Address--><path codeLine="74" d="M449.05,557.33 C454.89,577.54 461.54,603.99 464.5,628 C471.18,682.26 470.78,696.69 464.5,751 C462.41,769.06 458.48,788.45 454.29,805.9 " fill="none" id="Affiliation_Statement-to-Postal_Address" style="stroke:#A80036;stroke-width:1.0;stroke-dasharray:7.0,7.0;"/><polygon fill="#A80036" points="453.1,810.76,459.1203,802.9654,454.2858,805.9026,451.3485,801.0681,453.1,810.76" style="stroke:#A80036;stroke-width:1.0;"/><text fill="#000000" font-family="sans-serif" font-size="13" lengthAdjust="spacing" textLength="83" x="460.6384" y="800.2155">postalAddress</text><!--MD5=[fe03d2c8e9644e7513bef3a6fb6291e6]
reverse link Affiliation_Statement to Organisation_Unit--><path codeLine="75" d="M410.17,569.3 C402.17,587.42 394.06,608.57 387.6,627.98 " fill="none" id="Affiliation_Statement-backto-Organisation_Unit" style="stroke:#A80036;stroke-width:1.0;"/><polygon fill="#FFFFFF" points="415.67,557.29,409.5357,561.0808,410.6756,568.2013,416.8099,564.4104,415.67,557.29" style="stroke:#A80036;stroke-width:1.0;"/><text fill="#000000" font-family="sans-serif" font-size="13" lengthAdjust="spacing" textLength="67" x="317.7481" y="617.0228">0..1 orgUnit</text><!--MD5=[fe03d2c8e9644e7513bef3a6fb6291e6]
reverse link Affiliation_Statement to Organisation_Unit--><path codeLine="76" d="M433.76,569.82 C428.4,587.83 420.92,608.75 413.02,627.98 " fill="none" id="Affiliation_Statement-backto-Organisation_Unit-1" style="stroke:#A80036;stroke-width:1.0;"/><polygon fill="#FFFFFF" points="437.25,557.29,431.7867,561.9967,434.0301,568.8499,439.4934,564.1433,437.25,557.29" style="stroke:#A80036;stroke-width:1.0;"/><text fill="#000000" font-family="sans-serif" font-size="13" lengthAdjust="spacing" textLength="82" x="422.3459" y="617.0228">0..1 institution</text><!--MD5=[dc2c5634ff295731fc33abbfcbd96d36]
reverse link Person to Affiliation_Statement--><path codeLine="78" d="M352.54,427.79 C370.46,447.42 391.37,470.35 408.09,488.67 " fill="none" id="Person-backto-Affiliation_Statement" style="stroke:#A80036;stroke-width:1.0;"/><polygon fill="#FFFFFF" points="343.76,418.16,344.8484,425.2885,351.8472,427.0255,350.7588,419.897,343.76,418.16" style="stroke:#A80036;stroke-width:1.0;"/><text fill="#000000" font-family="sans-serif" font-size="13" lengthAdjust="spacing" textLength="81" x="334.0181" y="478.2109">0..* affiliations</text><!--MD5=[21f8b3605054312288eb3132d9b75edc]
reverse link Contribution_Statement to Free_Text_Contribution_Statement--><path codeLine="79" d="M625.32,419.47 C632.77,443.22 642.53,474.31 649.34,495.99 " fill="none" id="Contribution_Statement-backto-Free_Text_Contribution_Statement" style="stroke:#A80036;stroke-width:1.0;"/><polygon fill="none" points="618.58,421.36,619.27,400.18,631.93,417.17,618.58,421.36" style="stroke:#A80036;stroke-width:1.0;"/><!--MD5=[1f014480a3afa8c0325c3be3fbf7ad6f]
link Contributorship to Document--><path codeLine="80" d="M497.23,236 C504.52,236 511.8,236 519.09,236 " fill="none" id="Contributorship-to-Document" style="stroke:#A80036;stroke-width:1.0;"/><polygon fill="#A80036" points="532.2,236,526.2,232,520.2,236,526.2,240,532.2,236" style="stroke:#A80036;stroke-width:1.0;"/><text fill="#000000" font-family="sans-serif" font-size="13" lengthAdjust="spacing" textLength="20" x="505.1769" y="232.6094">0..*</text><!--MD5=[504de05de5dc33320621ff1be2e6e6ff]
reverse link Agent to Contributorship--><path codeLine="81" d="M358.49,236 C365.61,236 372.73,236 379.85,236 " fill="none" id="Agent-backto-Contributorship" style="stroke:#A80036;stroke-width:1.0;"/><polygon fill="#FFFFFF" points="345.24,236,351.24,240,357.24,236,351.24,232,345.24,236" style="stroke:#A80036;stroke-width:1.0;"/><text fill="#000000" font-family="sans-serif" font-size="13" lengthAdjust="spacing" textLength="87" x="301.9775" y="290.8183">0..1 contributor</text><text fill="#000000" font-family="sans-serif" font-size="13" lengthAdjust="spacing" textLength="20" x="351.9123" y="232.6094">0..*</text><!--MD5=[d50a95e3ddb5a3ed983c7b2ff4649bd6]
reverse link Contributorship to Affiliation_Statement--><path codeLine="82" d="M438.5,283.33 C438.5,341.05 438.5,438.25 438.5,488.96 " fill="none" id="Contributorship-backto-Affiliation_Statement" style="stroke:#A80036;stroke-width:1.0;"/><polygon fill="#FFFFFF" points="438.5,270.25,434.5,276.25,438.5,282.25,442.5,276.25,438.5,270.25" style="stroke:#A80036;stroke-width:1.0;"/><text fill="#000000" font-family="sans-serif" font-size="13" lengthAdjust="spacing" textLength="81" x="446.4734" y="478.2454">0..* affiliations</text><!--MD5=[aa65b9840c4d4bb6ada386eeadadc345]
reverse link Contributorship to Contribution_Statement--><path codeLine="83" d="M488.75,278.69 C524.71,308.51 571.04,346.94 596.22,367.84 " fill="none" id="Contributorship-backto-Contribution_Statement" style="stroke:#A80036;stroke-width:1.0;"/><polygon fill="#A80036" points="478.44,270.13,480.5022,277.0399,487.6738,277.794,485.6116,270.8841,478.44,270.13" style="stroke:#A80036;stroke-width:1.0;"/><text fill="#000000" font-family="sans-serif" font-size="13" lengthAdjust="spacing" textLength="158" x="404.78" y="357.0905">0..* contributionStatements</text><!--MD5=[db20fd804d8595e73b6b8c99fdd1338c]
link Authorship to Textual_Document--><path codeLine="85" d="M458.2,34 C465.44,34 472.68,34 479.93,34 " fill="none" id="Authorship-to-Textual_Document" style="stroke:#A80036;stroke-width:1.0;"/><polygon fill="#A80036" points="492.96,34,486.96,30,480.96,34,486.96,38,492.96,34" style="stroke:#A80036;stroke-width:1.0;"/><!--MD5=[e74e4958a1d7eb99db8e977d8859ba66]
link Authorship to Contributorship--><path codeLine="86" d="M375.91,61.15 C387.01,91.96 405.71,143.92 419.79,183.03 " fill="none" id="Authorship-to-Contributorship" style="stroke:#A80036;stroke-width:1.0;"/><polygon fill="none" points="426.38,180.67,426.57,201.86,413.21,185.41,426.38,180.67" style="stroke:#A80036;stroke-width:1.0;"/><!--MD5=[49125a4ba45432b051dcbcd9e53401d7]
link Authorship to Agent--><path codeLine="87" d="M359.57,61.15 C349.58,98.87 331.18,168.27 320.92,207 " fill="none" id="Authorship-to-Agent" style="stroke:#A80036;stroke-width:1.0;"/><polygon fill="#FFFFFF" points="317.54,219.76,322.9425,214.9837,320.6114,208.1597,315.209,212.9361,317.54,219.76" style="stroke:#A80036;stroke-width:1.0;"/><text fill="#000000" font-family="sans-serif" font-size="13" lengthAdjust="spacing" textLength="20" x="335.8666" y="82.3906">0..*</text><text fill="#000000" font-family="sans-serif" font-size="13" lengthAdjust="spacing" textLength="62" x="310.0485" y="201.5152">0..1 author</text><!--MD5=[5d8901ce694eb85aefa78b7d82d9f6f6]
link Person to Person_Name--><path codeLine="89" d="M297.52,418.16 C289.57,434.66 279.81,454.93 271.03,473.16 " fill="none" id="Person-to-Person_Name" style="stroke:#A80036;stroke-width:1.0;stroke-dasharray:7.0,7.0;"/><polygon fill="#A80036" points="268.82,477.75,276.3338,471.3827,270.9929,473.2469,269.1288,467.906,268.82,477.75" style="stroke:#A80036;stroke-width:1.0;"/><text fill="#000000" font-family="sans-serif" font-size="13" lengthAdjust="spacing" textLength="32" x="237.6346" y="467.1415">name</text><!--MD5=[de96f77e660762cb21a195b4097c3876]
reverse link Agent to Person--><path codeLine="90" d="M313.5,272.37 C313.5,295.99 313.5,326.84 313.5,349.96 " fill="none" id="Agent-backto-Person" style="stroke:#A80036;stroke-width:1.0;"/><polygon fill="none" points="306.5,272.07,313.5,252.07,320.5,272.07,306.5,272.07" style="stroke:#A80036;stroke-width:1.0;"/><!--MD5=[521d3f26cc3887ed8885a4c0e03f9952]
reverse link Agent to Organisation_Unit--><path codeLine="91" d="M288.48,267.99 C245.51,321.99 160.89,431.96 146.5,478 C134.57,516.18 125.76,533.79 146.5,568 C181.44,625.63 253.96,657 308.48,673.15 " fill="none" id="Agent-backto-Organisation_Unit" style="stroke:#A80036;stroke-width:1.0;"/><polygon fill="none" points="283.1,263.52,301.06,252.29,294.02,272.27,283.1,263.52" style="stroke:#A80036;stroke-width:1.0;"/><!--MD5=[15e2f573152931505f3d87c1c2d22c4e]
link Organisation_Unit to Postal_Address--><path codeLine="92" d="M399.18,751.45 C405.5,769.22 412.38,788.56 418.59,806.01 " fill="none" id="Organisation_Unit-to-Postal_Address" style="stroke:#A80036;stroke-width:1.0;stroke-dasharray:7.0,7.0;"/><polygon fill="#A80036" points="420.32,810.88,421.0562,801.0587,418.6365,806.1719,413.5233,803.7523,420.32,810.88" style="stroke:#A80036;stroke-width:1.0;"/><text fill="#000000" font-family="sans-serif" font-size="13" lengthAdjust="spacing" textLength="46" x="368.5291" y="799.9784">address</text><!--MD5=[8d9b790276a1e6c61f0b091de629785c]
link Textual_Document to Document--><path codeLine="94" d="M562.98,50.03 C567.31,76.25 576.45,131.66 583.61,175.04 " fill="none" id="Textual_Document-to-Document" style="stroke:#A80036;stroke-width:1.0;"/><polygon fill="none" points="590.53,174.01,586.88,194.88,576.72,176.28,590.53,174.01" style="stroke:#A80036;stroke-width:1.0;"/><!--MD5=[0df3595c7a152ac097b4d28b9398e692]
reverse link Textual_Document to Textual_Document_Accessibility_Specification--><path codeLine="95" d="M641.43,34 C648.76,34 656.08,34 663.41,34 " fill="none" id="Textual_Document-backto-Textual_Document_Accessibility_Specification" style="stroke:#A80036;stroke-width:1.0;"/><polygon fill="#A80036" points="628.25,34,634.25,38,640.25,34,634.25,30,628.25,34" style="stroke:#A80036;stroke-width:1.0;"/><text fill="#000000" font-family="sans-serif" font-size="13" lengthAdjust="spacing" textLength="103" x="553.0898" y="61.9113">0..* accessRights</text><!--MD5=[2c23d09c80fbfac9dc5109bf504b493e]
link Textual_Document to Agent--><path codeLine="96" d="M537.47,50.03 C499.43,75.31 421.75,128.8 362.5,182 C349.26,193.89 335.63,208.89 326.12,219.9 " fill="none" id="Textual_Document-Agent" style="stroke:#A80036;stroke-width:1.0;"/><text fill="#000000" font-family="sans-serif" font-size="13" lengthAdjust="spacing" textLength="140" x="553.0288" y="71.5433">0..* authoredDocuments</text><text fill="#000000" font-family="sans-serif" font-size="13" lengthAdjust="spacing" textLength="67" x="255.171" y="208.517">0..* authors</text><!--MD5=[839a60bf59dd12788a83a079b0710af1]
@startuml
	!startsub common
	!define datatype(x) class x << (D,#FF7700) DataType>>
	hide empty members
	skinparam BoxPadding 120
	!endsub

    !startsub Contributorship
    class "Document" #00ffff{
        doi : DOI
        title : Multilingual_String
        publicationDate : Date
    }
    !endsub
    class "Textual_Document" #00ffff{
    }
    class "Textual_Document_Accessibility_Specification" #00ffff{
    }
    !startsub Agent
    class "Agent" #00ffff{

    }
    class "Organisation_Unit" #00ffff{
        name : Multilingual_String
        acronym : String
        address : Postal_Address
        rorId : ROR_Id
        webSiteURL : URL
        email : URL
    }
    class "Person" #00ffff{
        name : Person_Name
        orcidId : ORCID_iD
    }
    datatype("Person_Name") #00ffff{
        firstNames : Multilingual_String
        familyNames : Multilingual_String
        otherNames : Multilingual_String
    }
    datatype("Postal_Address") #00ffff{
        street : Multilingual_String
        city : Multilingual_String
        zipCode : Multilingual_String
        country : Country
    }
    datatype("Country") #00ffff{
        name : Multilingual_String
        iso3166alpha2Code : ISO3166_Alpha2_Code
        # iso3166NumericCode : ISO3166_Numeric_Code
        # euCountryCode : EU_Country_Code
    }
	"Postal_Address" o- -> "country" "Country"
    !endsub
    class "Authorship" #00ffff{
        correspondingAuthorFlag : Boolean
    }
    note left #yellow: author == contributor
    !startsub Contributorship
    class "Contributorship" #00ffff{
        contacts : List<URI>
        displayName : String
    }
    class "Contribution_Statement" #00ffff{
    }
    class "Free_Text_Contribution_Statement" #00ffff{
        statement : Multilingual_String
    }
    class "Affiliation_Statement" #00ffff{
        displayAffiliation : String
        address : Postal_Address
    }
    !endsub

!startsub Contributorship
"Affiliation_Statement" ..> "postalAddress" "Postal_Address"
"Affiliation_Statement" o- - "0..1 orgUnit" "Organisation_Unit"
"Affiliation_Statement" o- - "0..1 institution" "Organisation_Unit"
' "Affiliation_Statement" o- - "person" "Person"
"Person" o- - "0..* affiliations" "Affiliation_Statement"
"Contribution_Statement" <|- - "Free_Text_Contribution_Statement"
"Contributorship" "0..*" - -r- -* "Document"
"Contributorship" "0..*" - -l- -o "0..1 contributor" "Agent"
"Contributorship" o- - "0..* affiliations" "Affiliation_Statement"
"Contributorship" *- - "0..* contributionStatements" "Contribution_Statement"
!endsub
"Authorship" -r-* "Textual_Document"
"Contributorship" <|-u- "Authorship"
"Authorship" "0..*" - -o "0..1 author" "Agent"
!startsub Agent
"Person" ..> "name" "Person_Name"
"Agent" <|- - "Person"
"Agent" <|- - "Organisation_Unit"
"Organisation_Unit" ..> "address" "Postal_Address"
!endsub
"Document" <|-u- "Textual_Document"
"Textual_Document" *-r- "0..* accessRights" "Textual_Document_Accessibility_Specification"
"Textual_Document" "0..* authoredDocuments" - - - "0..* authors" "Agent"
    note left of Agent: The Agent is mandatory for almost all \nsubclasses of Contributorship,\nReviewing is the exception if the \nreviewer's identity is concealed. \nAlso useful when authors are \nusing pseudonyms.
@enduml

@startuml
	hide empty members
	skinparam BoxPadding 120

    class "Document" #00ffff{
        doi : DOI
        title : Multilingual_String
        publicationDate : Date
    }
    class "Textual_Document" #00ffff{
    }
    class "Textual_Document_Accessibility_Specification" #00ffff{
    }
    class "Agent" #00ffff{

    }
    class "Organisation_Unit" #00ffff{
        name : Multilingual_String
        acronym : String
        address : Postal_Address
        rorId : ROR_Id
        webSiteURL : URL
        email : URL
    }
    class "Person" #00ffff{
        name : Person_Name
        orcidId : ORCID_iD
    }
    class Person_Name << (D,#FF7700) DataType>> #00ffff{
        firstNames : Multilingual_String
        familyNames : Multilingual_String
        otherNames : Multilingual_String
    }
    class Postal_Address << (D,#FF7700) DataType>> #00ffff{
        street : Multilingual_String
        city : Multilingual_String
        zipCode : Multilingual_String
        country : Country
    }
    class Country << (D,#FF7700) DataType>> #00ffff{
        name : Multilingual_String
        iso3166alpha2Code : ISO3166_Alpha2_Code
        # iso3166NumericCode : ISO3166_Numeric_Code
        # euCountryCode : EU_Country_Code
    }
	"Postal_Address" o- -> "country" "Country"
    class "Authorship" #00ffff{
        correspondingAuthorFlag : Boolean
    }
    note left #yellow: author == contributor
    class "Contributorship" #00ffff{
        contacts : List<URI>
        displayName : String
    }
    class "Contribution_Statement" #00ffff{
    }
    class "Free_Text_Contribution_Statement" #00ffff{
        statement : Multilingual_String
    }
    class "Affiliation_Statement" #00ffff{
        displayAffiliation : String
        address : Postal_Address
    }

"Affiliation_Statement" ..> "postalAddress" "Postal_Address"
"Affiliation_Statement" o- - "0..1 orgUnit" "Organisation_Unit"
"Affiliation_Statement" o- - "0..1 institution" "Organisation_Unit"
"Person" o- - "0..* affiliations" "Affiliation_Statement"
"Contribution_Statement" <|- - "Free_Text_Contribution_Statement"
"Contributorship" "0..*" - -r- -* "Document"
"Contributorship" "0..*" - -l- -o "0..1 contributor" "Agent"
"Contributorship" o- - "0..* affiliations" "Affiliation_Statement"
"Contributorship" *- - "0..* contributionStatements" "Contribution_Statement"
"Authorship" -r-* "Textual_Document"
"Contributorship" <|-u- "Authorship"
"Authorship" "0..*" - -o "0..1 author" "Agent"
"Person" ..> "name" "Person_Name"
"Agent" <|- - "Person"
"Agent" <|- - "Organisation_Unit"
"Organisation_Unit" ..> "address" "Postal_Address"
"Document" <|-u- "Textual_Document"
"Textual_Document" *-r- "0..* accessRights" "Textual_Document_Accessibility_Specification"
"Textual_Document" "0..* authoredDocuments" - - - "0..* authors" "Agent"
    note left of Agent: The Agent is mandatory for almost all \nsubclasses of Contributorship,\nReviewing is the exception if the \nreviewer's identity is concealed. \nAlso useful when authors are \nusing pseudonyms.
@enduml

PlantUML version 1.2021.8(Sat Jun 26 10:20:59 CEST 2021)
(GPL source distribution)
Java Runtime: Java(TM) SE Runtime Environment
JVM: Java HotSpot(TM) Client VM
Default Encoding: Cp1252
Language: en
Country: US
--></g></svg>