<?xml version="1.0" encoding="UTF-8" standalone="no"?><svg xmlns="http://www.w3.org/2000/svg" xmlns:xlink="http://www.w3.org/1999/xlink" contentScriptType="application/ecmascript" contentStyleType="text/css" height="664px" preserveAspectRatio="none" style="width:1379px;height:664px;background:#FFFFFF;" version="1.1" viewBox="0 0 1379 664" width="1379px" zoomAndPan="magnify"><defs><filter height="300%" id="f15v0d6o9pstlh" width="300%" x="-1" y="-1"><feGaussianBlur result="blurOut" stdDeviation="2.0"/><feColorMatrix in="blurOut" result="blurOut2" type="matrix" values="0 0 0 0 0 0 0 0 0 0 0 0 0 0 0 0 0 0 .4 0"/><feOffset dx="4.0" dy="4.0" in="blurOut2" result="blurOut3"/><feBlend in="SourceGraphic" in2="blurOut3" mode="normal"/></filter></defs><g><!--MD5=[59b530d44ae785dc18db921986a9c15c]
class Document--><rect codeLine="7" fill="#FEFECE" filter="url(#f15v0d6o9pstlh)" height="52.8047" id="Document" style="stroke:#A80036;stroke-width:1.5;" width="314" x="410.5" y="314"/><ellipse cx="531.25" cy="330" fill="#ADD1B2" rx="11" ry="11" style="stroke:#A80036;stroke-width:1.0;"/><path d="M534.2188,335.6406 Q533.6406,335.9375 533,336.0781 Q532.3594,336.2344 531.6563,336.2344 Q529.1563,336.2344 527.8281,334.5938 Q526.5156,332.9375 526.5156,329.8125 Q526.5156,326.6875 527.8281,325.0313 Q529.1563,323.375 531.6563,323.375 Q532.3594,323.375 533,323.5313 Q533.6563,323.6875 534.2188,323.9844 L534.2188,326.7031 Q533.5938,326.125 533,325.8594 Q532.4063,325.5781 531.7813,325.5781 Q530.4375,325.5781 529.75,326.6563 Q529.0625,327.7188 529.0625,329.8125 Q529.0625,331.9063 529.75,332.9844 Q530.4375,334.0469 531.7813,334.0469 Q532.4063,334.0469 533,333.7813 Q533.5938,333.5 534.2188,332.9219 L534.2188,335.6406 Z " fill="#000000"/><text fill="#000000" font-family="sans-serif" font-size="12" lengthAdjust="spacing" textLength="64" x="551.75" y="334.1543">Document</text><line style="stroke:#A80036;stroke-width:1.5;" x1="411.5" x2="723.5" y1="346" y2="346"/><text fill="#000000" font-family="sans-serif" font-size="11" lengthAdjust="spacing" textLength="302" x="416.5" y="360.2104">class "Textual Document Accessibility Specification"{</text><!--MD5=[9d44916250b776386006c440668bcfbb]
class Agent--><rect codeLine="19" fill="#FEFECE" filter="url(#f15v0d6o9pstlh)" height="32" id="Agent" style="stroke:#A80036;stroke-width:1.5;" width="69" x="306" y="324.5"/><ellipse cx="321" cy="340.5" fill="#ADD1B2" rx="11" ry="11" style="stroke:#A80036;stroke-width:1.0;"/><path d="M323.9688,346.1406 Q323.3906,346.4375 322.75,346.5781 Q322.1094,346.7344 321.4063,346.7344 Q318.9063,346.7344 317.5781,345.0938 Q316.2656,343.4375 316.2656,340.3125 Q316.2656,337.1875 317.5781,335.5313 Q318.9063,333.875 321.4063,333.875 Q322.1094,333.875 322.75,334.0313 Q323.4063,334.1875 323.9688,334.4844 L323.9688,337.2031 Q323.3438,336.625 322.75,336.3594 Q322.1563,336.0781 321.5313,336.0781 Q320.1875,336.0781 319.5,337.1563 Q318.8125,338.2188 318.8125,340.3125 Q318.8125,342.4063 319.5,343.4844 Q320.1875,344.5469 321.5313,344.5469 Q322.1563,344.5469 322.75,344.2813 Q323.3438,344 323.9688,343.4219 L323.9688,346.1406 Z " fill="#000000"/><text fill="#000000" font-family="sans-serif" font-size="12" lengthAdjust="spacing" textLength="37" x="335" y="344.6543">Agent</text><!--MD5=[fd289f43f02ef8bd75c20da9b3dee237]
class Organisation Unit--><rect codeLine="22" fill="#FEFECE" filter="url(#f15v0d6o9pstlh)" height="52.8047" id="Organisation Unit" style="stroke:#A80036;stroke-width:1.5;" width="159" x="504" y="581.5"/><ellipse cx="527.1" cy="597.5" fill="#ADD1B2" rx="11" ry="11" style="stroke:#A80036;stroke-width:1.0;"/><path d="M530.0688,603.1406 Q529.4906,603.4375 528.85,603.5781 Q528.2094,603.7344 527.5063,603.7344 Q525.0063,603.7344 523.6781,602.0938 Q522.3656,600.4375 522.3656,597.3125 Q522.3656,594.1875 523.6781,592.5313 Q525.0063,590.875 527.5063,590.875 Q528.2094,590.875 528.85,591.0313 Q529.5063,591.1875 530.0688,591.4844 L530.0688,594.2031 Q529.4438,593.625 528.85,593.3594 Q528.2563,593.0781 527.6313,593.0781 Q526.2875,593.0781 525.6,594.1563 Q524.9125,595.2188 524.9125,597.3125 Q524.9125,599.4063 525.6,600.4844 Q526.2875,601.5469 527.6313,601.5469 Q528.2563,601.5469 528.85,601.2813 Q529.4438,601 530.0688,600.4219 L530.0688,603.1406 Z " fill="#000000"/><text fill="#000000" font-family="sans-serif" font-size="12" lengthAdjust="spacing" textLength="109" x="542.9" y="601.6543">Organisation Unit</text><line style="stroke:#A80036;stroke-width:1.5;" x1="505" x2="662" y1="613.5" y2="613.5"/><text fill="#000000" font-family="sans-serif" font-size="11" lengthAdjust="spacing" textLength="147" x="510" y="627.7104">name : Multilingual_String</text><!--MD5=[09ce52be0ee7de43c61b6e2d59bf108b]
class Person--><rect codeLine="25" fill="#FEFECE" filter="url(#f15v0d6o9pstlh)" height="52.8047" id="Person" style="stroke:#A80036;stroke-width:1.5;" width="114" x="283.5" y="452"/><ellipse cx="315.6" cy="468" fill="#ADD1B2" rx="11" ry="11" style="stroke:#A80036;stroke-width:1.0;"/><path d="M318.5688,473.6406 Q317.9906,473.9375 317.35,474.0781 Q316.7094,474.2344 316.0063,474.2344 Q313.5063,474.2344 312.1781,472.5938 Q310.8656,470.9375 310.8656,467.8125 Q310.8656,464.6875 312.1781,463.0313 Q313.5063,461.375 316.0063,461.375 Q316.7094,461.375 317.35,461.5313 Q318.0063,461.6875 318.5688,461.9844 L318.5688,464.7031 Q317.9438,464.125 317.35,463.8594 Q316.7563,463.5781 316.1313,463.5781 Q314.7875,463.5781 314.1,464.6563 Q313.4125,465.7188 313.4125,467.8125 Q313.4125,469.9063 314.1,470.9844 Q314.7875,472.0469 316.1313,472.0469 Q316.7563,472.0469 317.35,471.7813 Q317.9438,471.5 318.5688,470.9219 L318.5688,473.6406 Z " fill="#000000"/><text fill="#000000" font-family="sans-serif" font-size="12" lengthAdjust="spacing" textLength="44" x="333.4" y="472.1543">Person</text><line style="stroke:#A80036;stroke-width:1.5;" x1="284.5" x2="396.5" y1="484" y2="484"/><text fill="#000000" font-family="sans-serif" font-size="11" lengthAdjust="spacing" textLength="102" x="289.5" y="498.2104">orcidid : ORCID_iD</text><!--MD5=[7b209ef07eb91b93e0aebc9fe4fb9a26]
class Person_Name--><rect codeLine="28" fill="#FEFECE" filter="url(#f15v0d6o9pstlh)" height="84.3516" id="Person_Name" style="stroke:#A80036;stroke-width:1.5;" width="132" x="274.5" y="566"/><ellipse cx="295.8" cy="584.9688" fill="#FF7700" rx="11" ry="11" style="stroke:#A80036;stroke-width:1.0;"/><path d="M295.3938,580.7813 L295.3938,588.7656 L296.05,588.7656 Q297.4875,588.7656 298.0969,587.8594 Q298.7219,586.9375 298.7219,584.7656 Q298.7219,582.5938 298.0969,581.6875 Q297.4875,580.7813 296.05,580.7813 L295.3938,580.7813 Z M292.9406,578.5781 L295.5656,578.5781 Q298.5969,578.5781 299.925,580.0313 Q301.2688,581.4688 301.2688,584.7656 Q301.2688,588.0625 299.925,589.5156 Q298.5969,590.9688 295.5656,590.9688 L292.9406,590.9688 L292.9406,578.5781 Z " fill="#000000"/><text fill="#000000" font-family="sans-serif" font-size="12" font-style="italic" lengthAdjust="spacing" textLength="74" x="317.2" y="582.1387">«DataType»</text><text fill="#000000" font-family="sans-serif" font-size="12" lengthAdjust="spacing" textLength="86" x="311.2" y="596.1074">Person_Name</text><line style="stroke:#A80036;stroke-width:1.5;" x1="275.5" x2="405.5" y1="603.9375" y2="603.9375"/><text fill="#000000" font-family="sans-serif" font-size="11" lengthAdjust="spacing" textLength="109" x="280.5" y="618.1479">firstNames : String</text><text fill="#000000" font-family="sans-serif" font-size="11" lengthAdjust="spacing" textLength="120" x="280.5" y="630.9526">familyNames : String</text><text fill="#000000" font-family="sans-serif" font-size="11" lengthAdjust="spacing" textLength="116" x="280.5" y="643.7573">otherNames : String</text><!--MD5=[3b25461e5df73ababc6765bb9b0c47d3]
class Authorship--><rect codeLine="33" fill="#FEFECE" filter="url(#f15v0d6o9pstlh)" height="52.8047" id="Authorship" style="stroke:#A80036;stroke-width:1.5;" width="212" x="227.5" y="119"/><ellipse cx="295.25" cy="135" fill="#ADD1B2" rx="11" ry="11" style="stroke:#A80036;stroke-width:1.0;"/><path d="M298.2188,140.6406 Q297.6406,140.9375 297,141.0781 Q296.3594,141.2344 295.6563,141.2344 Q293.1563,141.2344 291.8281,139.5938 Q290.5156,137.9375 290.5156,134.8125 Q290.5156,131.6875 291.8281,130.0313 Q293.1563,128.375 295.6563,128.375 Q296.3594,128.375 297,128.5313 Q297.6563,128.6875 298.2188,128.9844 L298.2188,131.7031 Q297.5938,131.125 297,130.8594 Q296.4063,130.5781 295.7813,130.5781 Q294.4375,130.5781 293.75,131.6563 Q293.0625,132.7188 293.0625,134.8125 Q293.0625,136.9063 293.75,137.9844 Q294.4375,139.0469 295.7813,139.0469 Q296.4063,139.0469 297,138.7813 Q297.5938,138.5 298.2188,137.9219 L298.2188,140.6406 Z " fill="#000000"/><text fill="#000000" font-family="sans-serif" font-size="12" lengthAdjust="spacing" textLength="68" x="315.75" y="139.1543">Authorship</text><line style="stroke:#A80036;stroke-width:1.5;" x1="228.5" x2="438.5" y1="151" y2="151"/><text fill="#000000" font-family="sans-serif" font-size="11" lengthAdjust="spacing" textLength="200" x="233.5" y="165.2104">correspondingAuthorFlag : Boolean</text><!--MD5=[b821bb113f9f55c728f1fbb8949cc3af]
class Contributorship--><rect codeLine="37" fill="#FEFECE" filter="url(#f15v0d6o9pstlh)" height="65.6094" id="Contributorship" style="stroke:#A80036;stroke-width:1.5;" width="131" x="760" y="307.5"/><ellipse cx="775.9" cy="323.5" fill="#ADD1B2" rx="11" ry="11" style="stroke:#A80036;stroke-width:1.0;"/><path d="M778.8688,329.1406 Q778.2906,329.4375 777.65,329.5781 Q777.0094,329.7344 776.3063,329.7344 Q773.8063,329.7344 772.4781,328.0938 Q771.1656,326.4375 771.1656,323.3125 Q771.1656,320.1875 772.4781,318.5313 Q773.8063,316.875 776.3063,316.875 Q777.0094,316.875 777.65,317.0313 Q778.3063,317.1875 778.8688,317.4844 L778.8688,320.2031 Q778.2438,319.625 777.65,319.3594 Q777.0563,319.0781 776.4313,319.0781 Q775.0875,319.0781 774.4,320.1563 Q773.7125,321.2188 773.7125,323.3125 Q773.7125,325.4063 774.4,326.4844 Q775.0875,327.5469 776.4313,327.5469 Q777.0563,327.5469 777.65,327.2813 Q778.2438,327 778.8688,326.4219 L778.8688,329.1406 Z " fill="#000000"/><text fill="#000000" font-family="sans-serif" font-size="12" lengthAdjust="spacing" textLength="97" x="790.1" y="327.6543">Contributorship</text><line style="stroke:#A80036;stroke-width:1.5;" x1="761" x2="890" y1="339.5" y2="339.5"/><text fill="#000000" font-family="sans-serif" font-size="11" lengthAdjust="spacing" textLength="116" x="766" y="353.7104">contacts : List&lt;URI&gt;</text><text fill="#000000" font-family="sans-serif" font-size="11" lengthAdjust="spacing" textLength="119" x="766" y="366.5151">displayName : String</text><!--MD5=[f8f29aeb30962b8f0c17f3bed64bd579]
class Contribution Statement--><rect codeLine="41" fill="#FEFECE" filter="url(#f15v0d6o9pstlh)" height="32" id="Contribution Statement" style="stroke:#A80036;stroke-width:1.5;" width="179" x="870" y="129.5"/><ellipse cx="885" cy="145.5" fill="#ADD1B2" rx="11" ry="11" style="stroke:#A80036;stroke-width:1.0;"/><path d="M887.9688,151.1406 Q887.3906,151.4375 886.75,151.5781 Q886.1094,151.7344 885.4063,151.7344 Q882.9063,151.7344 881.5781,150.0938 Q880.2656,148.4375 880.2656,145.3125 Q880.2656,142.1875 881.5781,140.5313 Q882.9063,138.875 885.4063,138.875 Q886.1094,138.875 886.75,139.0313 Q887.4063,139.1875 887.9688,139.4844 L887.9688,142.2031 Q887.3438,141.625 886.75,141.3594 Q886.1563,141.0781 885.5313,141.0781 Q884.1875,141.0781 883.5,142.1563 Q882.8125,143.2188 882.8125,145.3125 Q882.8125,147.4063 883.5,148.4844 Q884.1875,149.5469 885.5313,149.5469 Q886.1563,149.5469 886.75,149.2813 Q887.3438,149 887.9688,148.4219 L887.9688,151.1406 Z " fill="#000000"/><text fill="#000000" font-family="sans-serif" font-size="12" lengthAdjust="spacing" textLength="147" x="899" y="149.6543">Contribution Statement</text><!--MD5=[3f6954d26e8fa8feef64f8ba628c4304]
class Free Text Contribution--><rect codeLine="43" fill="#FEFECE" filter="url(#f15v0d6o9pstlh)" height="52.8047" id="Free Text Contribution" style="stroke:#A80036;stroke-width:1.5;" width="185" x="926" y="314"/><ellipse cx="947.3" cy="330" fill="#ADD1B2" rx="11" ry="11" style="stroke:#A80036;stroke-width:1.0;"/><path d="M950.2688,335.6406 Q949.6906,335.9375 949.05,336.0781 Q948.4094,336.2344 947.7063,336.2344 Q945.2063,336.2344 943.8781,334.5938 Q942.5656,332.9375 942.5656,329.8125 Q942.5656,326.6875 943.8781,325.0313 Q945.2063,323.375 947.7063,323.375 Q948.4094,323.375 949.05,323.5313 Q949.7063,323.6875 950.2688,323.9844 L950.2688,326.7031 Q949.6438,326.125 949.05,325.8594 Q948.4563,325.5781 947.8313,325.5781 Q946.4875,325.5781 945.8,326.6563 Q945.1125,327.7188 945.1125,329.8125 Q945.1125,331.9063 945.8,332.9844 Q946.4875,334.0469 947.8313,334.0469 Q948.4563,334.0469 949.05,333.7813 Q949.6438,333.5 950.2688,332.9219 L950.2688,335.6406 Z " fill="#000000"/><text fill="#000000" font-family="sans-serif" font-size="12" lengthAdjust="spacing" textLength="139" x="962.7" y="334.1543">Free Text Contribution</text><line style="stroke:#A80036;stroke-width:1.5;" x1="927" x2="1110" y1="346" y2="346"/><text fill="#000000" font-family="sans-serif" font-size="11" lengthAdjust="spacing" textLength="173" x="932" y="360.2104">statement : Multilingual_String</text><!--MD5=[819e4821c75d866d91a46af0ea8026f8]
class Affiliation Statement--><rect codeLine="47" fill="#FEFECE" filter="url(#f15v0d6o9pstlh)" height="52.8047" id="Affiliation Statement" style="stroke:#A80036;stroke-width:1.5;" width="159" x="644" y="452"/><ellipse cx="659" cy="468" fill="#ADD1B2" rx="11" ry="11" style="stroke:#A80036;stroke-width:1.0;"/><path d="M661.9688,473.6406 Q661.3906,473.9375 660.75,474.0781 Q660.1094,474.2344 659.4063,474.2344 Q656.9063,474.2344 655.5781,472.5938 Q654.2656,470.9375 654.2656,467.8125 Q654.2656,464.6875 655.5781,463.0313 Q656.9063,461.375 659.4063,461.375 Q660.1094,461.375 660.75,461.5313 Q661.4063,461.6875 661.9688,461.9844 L661.9688,464.7031 Q661.3438,464.125 660.75,463.8594 Q660.1563,463.5781 659.5313,463.5781 Q658.1875,463.5781 657.5,464.6563 Q656.8125,465.7188 656.8125,467.8125 Q656.8125,469.9063 657.5,470.9844 Q658.1875,472.0469 659.5313,472.0469 Q660.1563,472.0469 660.75,471.7813 Q661.3438,471.5 661.9688,470.9219 L661.9688,473.6406 Z " fill="#000000"/><text fill="#000000" font-family="sans-serif" font-size="12" lengthAdjust="spacing" textLength="127" x="673" y="472.1543">Affiliation Statement</text><line style="stroke:#A80036;stroke-width:1.5;" x1="645" x2="802" y1="484" y2="484"/><text fill="#000000" font-family="sans-serif" font-size="11" lengthAdjust="spacing" textLength="138" x="650" y="498.2104">displayAffiliation : String</text><!--MD5=[fe1d14fe6d68ca7e76eb34268c62a1f3]
class Postal_Address--><rect codeLine="50" fill="#FEFECE" filter="url(#f15v0d6o9pstlh)" height="84.3516" id="Postal_Address" style="stroke:#A80036;stroke-width:1.5;" width="128" x="698.5" y="566"/><ellipse cx="713.5" cy="584.9688" fill="#FF7700" rx="11" ry="11" style="stroke:#A80036;stroke-width:1.0;"/><path d="M713.0938,580.7813 L713.0938,588.7656 L713.75,588.7656 Q715.1875,588.7656 715.7969,587.8594 Q716.4219,586.9375 716.4219,584.7656 Q716.4219,582.5938 715.7969,581.6875 Q715.1875,580.7813 713.75,580.7813 L713.0938,580.7813 Z M710.6406,578.5781 L713.2656,578.5781 Q716.2969,578.5781 717.625,580.0313 Q718.9688,581.4688 718.9688,584.7656 Q718.9688,588.0625 717.625,589.5156 Q716.2969,590.9688 713.2656,590.9688 L710.6406,590.9688 L710.6406,578.5781 Z " fill="#000000"/><text fill="#000000" font-family="sans-serif" font-size="12" font-style="italic" lengthAdjust="spacing" textLength="74" x="738.5" y="582.1387">«DataType»</text><text fill="#000000" font-family="sans-serif" font-size="12" lengthAdjust="spacing" textLength="96" x="727.5" y="596.1074">Postal_Address</text><line style="stroke:#A80036;stroke-width:1.5;" x1="699.5" x2="825.5" y1="603.9375" y2="603.9375"/><text fill="#000000" font-family="sans-serif" font-size="11" lengthAdjust="spacing" textLength="80" x="704.5" y="618.1479">street : String</text><text fill="#000000" font-family="sans-serif" font-size="11" lengthAdjust="spacing" textLength="65" x="704.5" y="630.9526">city : String</text><text fill="#000000" font-family="sans-serif" font-size="11" lengthAdjust="spacing" textLength="90" x="704.5" y="643.7573">zipCode : String</text><!--MD5=[deb4e1f6eb1e3c1256fdb830f96abfbb]
class Country--><rect codeLine="55" fill="#FEFECE" filter="url(#f15v0d6o9pstlh)" height="91.2188" id="Country" style="stroke:#A80036;stroke-width:1.5;" width="281" x="1084" y="100"/><ellipse cx="1196.25" cy="116" fill="#ADD1B2" rx="11" ry="11" style="stroke:#A80036;stroke-width:1.0;"/><path d="M1199.2188,121.6406 Q1198.6406,121.9375 1198,122.0781 Q1197.3594,122.2344 1196.6563,122.2344 Q1194.1563,122.2344 1192.8281,120.5938 Q1191.5156,118.9375 1191.5156,115.8125 Q1191.5156,112.6875 1192.8281,111.0313 Q1194.1563,109.375 1196.6563,109.375 Q1197.3594,109.375 1198,109.5313 Q1198.6563,109.6875 1199.2188,109.9844 L1199.2188,112.7031 Q1198.5938,112.125 1198,111.8594 Q1197.4063,111.5781 1196.7813,111.5781 Q1195.4375,111.5781 1194.75,112.6563 Q1194.0625,113.7188 1194.0625,115.8125 Q1194.0625,117.9063 1194.75,118.9844 Q1195.4375,120.0469 1196.7813,120.0469 Q1197.4063,120.0469 1198,119.7813 Q1198.5938,119.5 1199.2188,118.9219 L1199.2188,121.6406 Z " fill="#000000"/><text fill="#000000" font-family="sans-serif" font-size="12" lengthAdjust="spacing" textLength="48" x="1216.75" y="120.1543">Country</text><line style="stroke:#A80036;stroke-width:1.5;" x1="1085" x2="1364" y1="132" y2="132"/><text fill="#000000" font-family="sans-serif" font-size="11" lengthAdjust="spacing" textLength="147" x="1090" y="146.2104">name : Multilingual_String</text><text fill="#000000" font-family="sans-serif" font-size="11" lengthAdjust="spacing" textLength="237" x="1090" y="159.0151">iso3166alphaCode : ISO3166_Alpha_Code</text><text fill="#000000" font-family="sans-serif" font-size="11" lengthAdjust="spacing" textLength="269" x="1090" y="171.8198">iso3166NumericCode : ISO3166_Numeric_Code</text><text fill="#000000" font-family="sans-serif" font-size="11" lengthAdjust="spacing" textLength="199" x="1090" y="184.6245">euCountryCode : EU_Country_Code</text><!--MD5=[5b6d5f043b17cf3ce8a453f9008bb166]
class Postal Address--><rect fill="#FEFECE" filter="url(#f15v0d6o9pstlh)" height="32" id="Postal Address" style="stroke:#A80036;stroke-width:1.5;" width="126" x="1161.5" y="7"/><ellipse cx="1176.5" cy="23" fill="#ADD1B2" rx="11" ry="11" style="stroke:#A80036;stroke-width:1.0;"/><path d="M1179.4688,28.6406 Q1178.8906,28.9375 1178.25,29.0781 Q1177.6094,29.2344 1176.9063,29.2344 Q1174.4063,29.2344 1173.0781,27.5938 Q1171.7656,25.9375 1171.7656,22.8125 Q1171.7656,19.6875 1173.0781,18.0313 Q1174.4063,16.375 1176.9063,16.375 Q1177.6094,16.375 1178.25,16.5313 Q1178.9063,16.6875 1179.4688,16.9844 L1179.4688,19.7031 Q1178.8438,19.125 1178.25,18.8594 Q1177.6563,18.5781 1177.0313,18.5781 Q1175.6875,18.5781 1175,19.6563 Q1174.3125,20.7188 1174.3125,22.8125 Q1174.3125,24.9063 1175,25.9844 Q1175.6875,27.0469 1177.0313,27.0469 Q1177.6563,27.0469 1178.25,26.7813 Q1178.8438,26.5 1179.4688,25.9219 L1179.4688,28.6406 Z " fill="#000000"/><text fill="#000000" font-family="sans-serif" font-size="12" lengthAdjust="spacing" textLength="94" x="1190.5" y="27.1543">Postal Address</text><!--MD5=[406eabaf9672e74804bc505a9777bf8f]
class Textual Document--><rect fill="#FEFECE" filter="url(#f15v0d6o9pstlh)" height="32" id="Textual Document" style="stroke:#A80036;stroke-width:1.5;" width="145" x="475" y="129.5"/><ellipse cx="490" cy="145.5" fill="#ADD1B2" rx="11" ry="11" style="stroke:#A80036;stroke-width:1.0;"/><path d="M492.9688,151.1406 Q492.3906,151.4375 491.75,151.5781 Q491.1094,151.7344 490.4063,151.7344 Q487.9063,151.7344 486.5781,150.0938 Q485.2656,148.4375 485.2656,145.3125 Q485.2656,142.1875 486.5781,140.5313 Q487.9063,138.875 490.4063,138.875 Q491.1094,138.875 491.75,139.0313 Q492.4063,139.1875 492.9688,139.4844 L492.9688,142.2031 Q492.3438,141.625 491.75,141.3594 Q491.1563,141.0781 490.5313,141.0781 Q489.1875,141.0781 488.5,142.1563 Q487.8125,143.2188 487.8125,145.3125 Q487.8125,147.4063 488.5,148.4844 Q489.1875,149.5469 490.5313,149.5469 Q491.1563,149.5469 491.75,149.2813 Q492.3438,149 492.9688,148.4219 L492.9688,151.1406 Z " fill="#000000"/><text fill="#000000" font-family="sans-serif" font-size="12" lengthAdjust="spacing" textLength="113" x="504" y="149.6543">Textual Document</text><!--MD5=[05b685b8e32e000146d4e5203ae16c64]
class Textual Document Accessibility Specification--><rect fill="#FEFECE" filter="url(#f15v0d6o9pstlh)" height="32" id="Textual Document Accessibility Specification" style="stroke:#A80036;stroke-width:1.5;" width="308" x="393.5" y="7"/><ellipse cx="408.5" cy="23" fill="#ADD1B2" rx="11" ry="11" style="stroke:#A80036;stroke-width:1.0;"/><path d="M411.4688,28.6406 Q410.8906,28.9375 410.25,29.0781 Q409.6094,29.2344 408.9063,29.2344 Q406.4063,29.2344 405.0781,27.5938 Q403.7656,25.9375 403.7656,22.8125 Q403.7656,19.6875 405.0781,18.0313 Q406.4063,16.375 408.9063,16.375 Q409.6094,16.375 410.25,16.5313 Q410.9063,16.6875 411.4688,16.9844 L411.4688,19.7031 Q410.8438,19.125 410.25,18.8594 Q409.6563,18.5781 409.0313,18.5781 Q407.6875,18.5781 407,19.6563 Q406.3125,20.7188 406.3125,22.8125 Q406.3125,24.9063 407,25.9844 Q407.6875,27.0469 409.0313,27.0469 Q409.6563,27.0469 410.25,26.7813 Q410.8438,26.5 411.4688,25.9219 L411.4688,28.6406 Z " fill="#000000"/><text fill="#000000" font-family="sans-serif" font-size="12" lengthAdjust="spacing" textLength="276" x="422.5" y="27.1543">Textual Document Accessibility Specification</text><path d="M6,290 L6,390.7969 A0,0 0 0 0 6,390.7969 L271,390.7969 A0,0 0 0 0 271,390.7969 L271,344.5 L305.78,340.5 L271,336.5 L271,300 L261,290 L6,290 A0,0 0 0 0 6,290 " fill="#FBFB77" filter="url(#f15v0d6o9pstlh)" style="stroke:#A80036;stroke-width:1.0;"/><path d="M261,290 L261,300 L271,300 L261,290 " fill="#FBFB77" style="stroke:#A80036;stroke-width:1.0;"/><text fill="#000000" font-family="sans-serif" font-size="13" lengthAdjust="spacing" textLength="240" x="12" y="307.0669">The Agent is mandatory for almost all</text><text fill="#000000" font-family="sans-serif" font-size="13" lengthAdjust="spacing" textLength="192" x="12" y="322.1997">subclasses of Contributorship,</text><text fill="#000000" font-family="sans-serif" font-size="13" lengthAdjust="spacing" textLength="203" x="12" y="337.3325">Reviewing is the exception if the</text><text fill="#000000" font-family="sans-serif" font-size="13" lengthAdjust="spacing" textLength="201" x="12" y="352.4653">reviewer's identity is concealed.</text><text fill="#000000" font-family="sans-serif" font-size="13" lengthAdjust="spacing" textLength="184" x="12" y="367.5981">Also useful when authors are</text><text fill="#000000" font-family="sans-serif" font-size="13" lengthAdjust="spacing" textLength="124" x="12" y="382.731">using pseudonyms.</text><!--MD5=[f88c115e3130e3b4ff5649ba9e133055]
reverse link Postal Address to Country--><path codeLine="61" d="M1224.5,52.59 C1224.5,66.69 1224.5,84.02 1224.5,99.82 " fill="none" id="Postal Address-backto-Country" style="stroke:#A80036;stroke-width:1.0;"/><polygon fill="#A80036" points="1224.5,39.26,1220.5,45.26,1224.5,51.26,1228.5,45.26,1224.5,39.26" style="stroke:#A80036;stroke-width:1.0;"/><text fill="#000000" font-family="sans-serif" font-size="13" lengthAdjust="spacing" textLength="48" x="1172.975" y="89.0698">country</text><!--MD5=[25796db7575d0230a5527aaa9f29831d]
link Affiliation Statement to Postal_Address--><path codeLine="62" d="M731.39,505.3 C736.25,521.2 742.63,542.04 748.34,560.72 " fill="none" id="Affiliation Statement-to-Postal_Address" style="stroke:#A80036;stroke-width:1.0;stroke-dasharray:7.0,7.0;"/><polygon fill="#A80036" points="749.94,565.93,751.1184,556.1519,748.4706,561.1508,743.4717,558.503,749.94,565.93" style="stroke:#A80036;stroke-width:1.0;"/><text fill="#000000" font-family="sans-serif" font-size="13" lengthAdjust="spacing" textLength="91" x="649.6867" y="555.0792">postalAddress</text><!--MD5=[4904fd3a26b4d7fe956968cf0a0d8a9b]
reverse link Affiliation Statement to Organisation Unit--><path codeLine="63" d="M674.47,513.73 C649.14,534.96 619.99,561.8 601.31,581.24 " fill="none" id="Affiliation Statement-backto-Organisation Unit" style="stroke:#A80036;stroke-width:1.0;"/><polygon fill="#FFFFFF" points="684.69,505.3,677.5161,506.0319,675.4325,512.9354,682.6064,512.2035,684.69,505.3" style="stroke:#A80036;stroke-width:1.0;"/><text fill="#000000" font-family="sans-serif" font-size="13" lengthAdjust="spacing" textLength="47" x="552.9942" y="570.4222">orgUnit</text><!--MD5=[4904fd3a26b4d7fe956968cf0a0d8a9b]
reverse link Affiliation Statement to Organisation Unit--><path codeLine="64" d="M697.16,514.61 C675.95,535.78 646.48,562.27 622.61,581.45 " fill="none" id="Affiliation Statement-backto-Organisation Unit-1" style="stroke:#A80036;stroke-width:1.0;"/><polygon fill="#FFFFFF" points="706.27,505.3,699.2147,506.7911,697.8776,513.8771,704.9328,512.386,706.27,505.3" style="stroke:#A80036;stroke-width:1.0;"/><text fill="#000000" font-family="sans-serif" font-size="13" lengthAdjust="spacing" textLength="63" x="627.569" y="564.5571">institution</text><!--MD5=[1e703325bca9787769503a051e7183a5]
reverse link Contribution Statement to Free Text Contribution--><path codeLine="66" d="M970.02,180.92 C981.69,219.09 1000.25,279.8 1010.69,313.96 " fill="none" id="Contribution Statement-backto-Free Text Contribution" style="stroke:#A80036;stroke-width:1.0;"/><polygon fill="none" points="963.28,182.82,964.13,161.64,976.67,178.72,963.28,182.82" style="stroke:#A80036;stroke-width:1.0;"/><!--MD5=[504de05de5dc33320621ff1be2e6e6ff]
reverse link Agent to Contributorship--><path codeLine="70" d="M351.34,312.11 C362.18,288.16 381.39,255.46 410,240.5 C533.67,175.84 594.87,187.57 724,240.5 C756.73,253.92 784.57,283.55 802.76,307.09 " fill="none" id="Agent-backto-Contributorship" style="stroke:#A80036;stroke-width:1.0;"/><polygon fill="#A80036" points="346.17,324.35,352.1895,320.3795,350.8397,313.2958,344.8201,317.2664,346.17,324.35" style="stroke:#A80036;stroke-width:1.0;"/><!--MD5=[4629ab2f8b8cc60994d50cb24184a136]
reverse link Contributorship to Affiliation Statement--><path codeLine="72" d="M793.44,384.24 C776.79,406.44 757,432.83 742.73,451.86 " fill="none" id="Contributorship-backto-Affiliation Statement" style="stroke:#A80036;stroke-width:1.0;"/><polygon fill="#A80036" points="801.33,373.73,794.53,376.13,794.13,383.33,800.93,380.93,801.33,373.73" style="stroke:#A80036;stroke-width:1.0;"/><text fill="#000000" font-family="sans-serif" font-size="13" lengthAdjust="spacing" textLength="64" x="675.7769" y="441.07">affiliations</text><!--MD5=[87dce73954b4196bb1c032bbee886bf4]
link Contribution Statement to Contributorship--><path codeLine="74" d="M948.99,161.64 C929.05,190.36 885.09,253.67 855.38,296.47 " fill="none" id="Contribution Statement-to-Contributorship" style="stroke:#A80036;stroke-width:1.0;"/><polygon fill="#A80036" points="847.78,307.41,854.4868,304.7607,854.6208,297.5508,847.914,300.2001,847.78,307.41" style="stroke:#A80036;stroke-width:1.0;"/><text fill="#000000" font-family="sans-serif" font-size="13" lengthAdjust="spacing" textLength="152" x="768.3336" y="181.5596">contributionStatements</text><!--MD5=[515627370d950159b283430218e15046]
link Authorship to Textual Document--><path codeLine="76" d="M439.66,145.5 C446.95,145.5 454.23,145.5 461.52,145.5 " fill="none" id="Authorship-to-Textual Document" style="stroke:#A80036;stroke-width:1.0;"/><polygon fill="#A80036" points="474.63,145.5,468.63,141.5,462.63,145.5,468.63,149.5,474.63,145.5" style="stroke:#A80036;stroke-width:1.0;"/><!--MD5=[e74e4958a1d7eb99db8e977d8859ba66]
link Authorship to Contributorship--><path codeLine="77" d="M404.28,172.03 C421.67,178.26 440.25,184.9 457.5,191 C583.52,235.58 620.22,233.8 741.5,290 C746.68,292.4 751.96,295.03 757.22,297.79 " fill="none" id="Authorship-to-Contributorship" style="stroke:#A80036;stroke-width:1.0;"/><polygon fill="none" points="760.69,291.71,774.83,307.49,753.94,303.97,760.69,291.71" style="stroke:#A80036;stroke-width:1.0;"/><!--MD5=[49125a4ba45432b051dcbcd9e53401d7]
link Authorship to Agent--><path codeLine="78" d="M310.32,172.02 C299.61,185.54 288.06,203.03 282.5,221 C277.38,237.56 277.13,243.52 282.5,260 C290.1,283.31 307.41,305.47 321.15,320.44 " fill="none" id="Authorship-to-Agent" style="stroke:#A80036;stroke-width:1.0;"/><polygon fill="#A80036" points="324.92,324.47,321.6827,315.1684,321.5003,320.8223,315.8464,320.6399,324.92,324.47" style="stroke:#A80036;stroke-width:1.0;"/><path d="M287.5,226 L287.5,251 L450.5,251 L450.5,236 L440.5,226 L287.5,226 " fill="#FF0000" filter="url(#f15v0d6o9pstlh)" style="stroke:#A80036;stroke-width:1.0;"/><path d="M440.5,226 L440.5,236 L450.5,236 L440.5,226 " fill="#FF0000" style="stroke:#A80036;stroke-width:1.0;"/><text fill="#000000" font-family="sans-serif" font-size="13" lengthAdjust="spacing" textLength="142" x="293.5" y="243.0669">author == contributor</text><text fill="#000000" font-family="sans-serif" font-size="13" lengthAdjust="spacing" textLength="42" x="279.182" y="311.6544">author</text><!--MD5=[5d8901ce694eb85aefa78b7d82d9f6f6]
link Person to Person_Name--><path codeLine="80" d="M340.5,505.3 C340.5,521.2 340.5,542.04 340.5,560.72 " fill="none" id="Person-to-Person_Name" style="stroke:#A80036;stroke-width:1.0;stroke-dasharray:7.0,7.0;"/><polygon fill="#A80036" points="340.5,565.93,344.5,556.93,340.5,560.93,336.5,556.93,340.5,565.93" style="stroke:#A80036;stroke-width:1.0;"/><text fill="#000000" font-family="sans-serif" font-size="13" lengthAdjust="spacing" textLength="44" x="292.9938" y="555.0792">names</text><!--MD5=[de96f77e660762cb21a195b4097c3876]
reverse link Agent to Person--><path codeLine="81" d="M340.5,376.87 C340.5,400.4 340.5,430.75 340.5,451.94 " fill="none" id="Agent-backto-Person" style="stroke:#A80036;stroke-width:1.0;"/><polygon fill="none" points="333.5,376.57,340.5,356.57,347.5,376.57,333.5,376.57" style="stroke:#A80036;stroke-width:1.0;"/><!--MD5=[58a58d00e9270883bf92cdf281f32c1a]
reverse link Agent to Organisation Unit--><path codeLine="82" d="M367.98,371.53 C416.12,424.13 514.88,532.02 560.03,581.36 " fill="none" id="Agent-backto-Organisation Unit" style="stroke:#A80036;stroke-width:1.0;"/><polygon fill="none" points="362.6,376.01,354.26,356.54,372.93,366.56,362.6,376.01" style="stroke:#A80036;stroke-width:1.0;"/><!--MD5=[0cd4e18d651655357be10210466ee4fc]
link Textual Document to Document--><path codeLine="84" d="M549.07,161.64 C551.99,189.78 558.34,251.15 562.77,293.87 " fill="none" id="Textual Document-to-Document" style="stroke:#A80036;stroke-width:1.0;"/><polygon fill="none" points="569.75,293.35,564.85,313.96,555.83,294.79,569.75,293.35" style="stroke:#A80036;stroke-width:1.0;"/><!--MD5=[467b17589d7b3ec09474af6cf2c3322d]
link Textual Document Accessibility Specification to Textual Document--><path codeLine="86" d="M547.5,39.26 C547.5,58.55 547.5,92.12 547.5,116.16 " fill="none" id="Textual Document Accessibility Specification-to-Textual Document" style="stroke:#A80036;stroke-width:1.0;"/><polygon fill="#A80036" points="547.5,129.36,551.5,123.36,547.5,117.36,543.5,123.36,547.5,129.36" style="stroke:#A80036;stroke-width:1.0;"/><text fill="#000000" font-family="sans-serif" font-size="13" lengthAdjust="spacing" textLength="83" x="451.2719" y="58.9216">accessRights</text><!--MD5=[d5a6c053a39d24fd07d740a282fdedf6]
reverse link Textual Document to Agent--><path codeLine="87" d="M534.29,173.57 C520.68,198.97 497.28,236.48 467.5,260 C439.33,282.26 422.71,270.61 392.5,290 C377.61,299.56 363.24,313.74 353.39,324.48 " fill="none" id="Textual Document-backto-Agent" style="stroke:#A80036;stroke-width:1.0;"/><polygon fill="#A80036" points="540.33,161.86,534.0221,165.3544,534.8216,172.521,541.1295,169.0266,540.33,161.86" style="stroke:#A80036;stroke-width:1.0;"/><text fill="#000000" font-family="sans-serif" font-size="13" lengthAdjust="spacing" textLength="49" x="366.2428" y="313.4847">authors</text><!--MD5=[b9a66ffa5a1feb2819059f7b55e00c1e]
@startuml
    !startsub common
    	!define datatype(x) class x << (D,#FF7700) DataType>>
    	hide empty members
    !endsub

    !startsub Document
    class "Document"{
        title : Multilingual_String
        publicationDate : Date
        DOI : DOI_Type
    }
    class "Textual Document"{
    }
    !endsub
    !startsub TDAS
    class "Textual Document Accessibility Specification"{
    }
    !endsub
    class "Agent"{

    }
    class "Organisation Unit"{
        name : Multilingual_String
    }
    class "Person"{
        orcidid : ORCID_iD
    }
    datatype("Person_Name"){
        firstNames : String
        familyNames : String
        otherNames : String
    }
    class "Authorship"{
        correspondingAuthorFlag : Boolean
    }
    !startsub Contributorship
    class "Contributorship"{
        contacts : List<URI>
        displayName : String
    }
    class "Contribution Statement"{
    }
    class "Free Text Contribution"{
        statement : Multilingual_String
    }
    !endsub
    class "Affiliation Statement"{
        displayAffiliation : String
    }
   datatype("Postal_Address"){
        street : String
        city : String
        zipCode : String
    }
    class "Country"{
        name : Multilingual_String
        iso3166alphaCode : ISO3166_Alpha_Code
        iso3166NumericCode : ISO3166_Numeric_Code
        euCountryCode : EU_Country_Code
    }
    "Postal Address" *- - "country" "Country"
    "Affiliation Statement" ..> "postalAddress" "Postal_Address"
    "Affiliation Statement" o- - "orgUnit" "Organisation Unit"
    "Affiliation Statement" o- - "institution" "Organisation Unit"
    !startsub Contributorship
    "Contribution Statement" <|- - "Free Text Contribution"
    "Contributorship" -r-* "Document"
    !endsub
    !startsub Contributorship
    "Contributorship" -l-* "Agent"
    !endsub
    "Contributorship" *- - "affiliations" "Affiliation Statement"
    !startsub Contributorship
    "Contributorship" *-u- "contributionStatements" "Contribution Statement"
    !endsub
    "Authorship" -r-* "Textual Document"
    "Contributorship" <|-u- "Authorship"
    "Authorship" - -> "author" "Agent"
    note on link #red: author == contributor
    "Person" .d.> "names" "Person_Name"
    "Agent" <|-d- "Person"
    "Agent" <|-d- "Organisation Unit"
    !startsub Document
    "Document" <|-u- "Textual Document"
    !endsub
    "Textual Document" *-u- "accessRights" "Textual Document Accessibility Specification"
    "Textual Document" *- -  "authors" "Agent"

    note left of Agent: The Agent is mandatory for almost all \nsubclasses of Contributorship,\nReviewing is the exception if the \nreviewer's identity is concealed. \nAlso useful when authors are \nusing pseudonyms.
@enduml

@startuml
    	hide empty members

    class "Document"{
    class "Textual Document Accessibility Specification"{
    }
    class "Agent"{

    }
    class "Organisation Unit"{
        name : Multilingual_String
    }
    class "Person"{
        orcidid : ORCID_iD
    }
    class Person_Name << (D,#FF7700) DataType>>{
        firstNames : String
        familyNames : String
        otherNames : String
    }
    class "Authorship"{
        correspondingAuthorFlag : Boolean
    }
    class "Contributorship"{
        contacts : List<URI>
        displayName : String
    }
    class "Contribution Statement"{
    }
    class "Free Text Contribution"{
        statement : Multilingual_String
    }
    class "Affiliation Statement"{
        displayAffiliation : String
    }
   class Postal_Address << (D,#FF7700) DataType>>{
        street : String
        city : String
        zipCode : String
    }
    class "Country"{
        name : Multilingual_String
        iso3166alphaCode : ISO3166_Alpha_Code
        iso3166NumericCode : ISO3166_Numeric_Code
        euCountryCode : EU_Country_Code
    }
    "Postal Address" *- - "country" "Country"
    "Affiliation Statement" ..> "postalAddress" "Postal_Address"
    "Affiliation Statement" o- - "orgUnit" "Organisation Unit"
    "Affiliation Statement" o- - "institution" "Organisation Unit"
    "Contribution Statement" <|- - "Free Text Contribution"
    "Contributorship" -l-* "Agent"
    "Contributorship" *- - "affiliations" "Affiliation Statement"
    "Contributorship" *-u- "contributionStatements" "Contribution Statement"
    "Authorship" -r-* "Textual Document"
    "Contributorship" <|-u- "Authorship"
    "Authorship" - -> "author" "Agent"
    note on link #red: author == contributor
    "Person" .d.> "names" "Person_Name"
    "Agent" <|-d- "Person"
    "Agent" <|-d- "Organisation Unit"
    "Document" <|-u- "Textual Document"
    "Textual Document" *-u- "accessRights" "Textual Document Accessibility Specification"
    "Textual Document" *- -  "authors" "Agent"

    note left of Agent: The Agent is mandatory for almost all \nsubclasses of Contributorship,\nReviewing is the exception if the \nreviewer's identity is concealed. \nAlso useful when authors are \nusing pseudonyms.
@enduml

PlantUML version 1.2021.8(Sat Jun 26 08:20:59 UTC 2021)
(GPL source distribution)
Java Runtime: OpenJDK Runtime Environment
JVM: OpenJDK 64-Bit Server VM
Default Encoding: UTF-8
Language: en
Country: null
--></g></svg>