<?xml version="1.0" encoding="UTF-8" standalone="no"?><svg xmlns="http://www.w3.org/2000/svg" xmlns:xlink="http://www.w3.org/1999/xlink" contentScriptType="application/ecmascript" contentStyleType="text/css" height="874px" preserveAspectRatio="none" style="width:863px;height:874px;background:#FFFFFF;" version="1.1" viewBox="0 0 863 874" width="863px" zoomAndPan="magnify"><defs><filter height="300%" id="f17ufpcrknammf" width="300%" x="-1" y="-1"><feGaussianBlur result="blurOut" stdDeviation="2.0"/><feColorMatrix in="blurOut" result="blurOut2" type="matrix" values="0 0 0 0 0 0 0 0 0 0 0 0 0 0 0 0 0 0 .4 0"/><feOffset dx="4.0" dy="4.0" in="blurOut2" result="blurOut3"/><feBlend in="SourceGraphic" in2="blurOut3" mode="normal"/></filter></defs><g><!--MD5=[59b530d44ae785dc18db921986a9c15c]
class Document--><rect codeLine="7" fill="#00FFFF" filter="url(#f17ufpcrknammf)" height="81.5078" id="Document" style="stroke:#A80036;stroke-width:1.5;" width="122" x="727.5" y="329"/><ellipse cx="757.35" cy="345" fill="#ADD1B2" rx="11" ry="11" style="stroke:#A80036;stroke-width:1.0;"/><path d="M760.1156,340.875 Q760.2719,340.6563 760.4594,340.5469 Q760.6469,340.4375 760.8656,340.4375 Q761.2406,340.4375 761.475,340.6953 Q761.7094,340.9531 761.7094,341.5625 L761.7094,343.0156 Q761.7094,343.625 761.475,343.8906 Q761.2406,344.1563 760.8656,344.1563 Q760.5219,344.1563 760.3188,343.9531 Q760.1156,343.7656 760.0063,343.25 Q759.9594,342.8906 759.7719,342.7031 Q759.4438,342.3281 758.8344,342.1094 Q758.225,341.8906 757.6,341.8906 Q756.8344,341.8906 756.2016,342.2188 Q755.5688,342.5469 755.0766,343.2969 Q754.5844,344.0469 754.5844,345.0781 L754.5844,346.1719 Q754.5844,347.4063 755.475,348.2266 Q756.3656,349.0469 757.9594,349.0469 Q758.8969,349.0469 759.5531,348.7969 Q759.9438,348.6406 760.3656,348.2031 Q760.6313,347.9375 760.7797,347.8594 Q760.9281,347.7813 761.1313,347.7813 Q761.4594,347.7813 761.7172,348.0391 Q761.975,348.2969 761.975,348.6406 Q761.975,348.9844 761.6313,349.3906 Q761.1313,349.9688 760.3344,350.2969 Q759.2563,350.75 757.9594,350.75 Q756.4438,350.75 755.2406,350.125 Q754.2563,349.625 753.5688,348.5547 Q752.8813,347.4844 752.8813,346.2031 L752.8813,345.0469 Q752.8813,343.7188 753.4984,342.5703 Q754.1156,341.4219 755.2094,340.8047 Q756.3031,340.1875 757.5375,340.1875 Q758.2719,340.1875 758.9203,340.3516 Q759.5688,340.5156 760.1156,340.875 Z " fill="#000000"/><text fill="#000000" font-family="sans-serif" font-size="12" lengthAdjust="spacing" textLength="57" x="774.65" y="349.9102">Document</text><line style="stroke:#A80036;stroke-width:1.5;" x1="728.5" x2="848.5" y1="361" y2="361"/><text fill="#000000" font-family="sans-serif" font-size="11" lengthAdjust="spacing" textLength="73" x="733.5" y="376.4189">DOI : DOI_Type</text><text fill="#000000" font-family="sans-serif" font-size="11" lengthAdjust="spacing" textLength="110" x="733.5" y="390.2549">title : Multilingual_String</text><text fill="#000000" font-family="sans-serif" font-size="11" lengthAdjust="spacing" textLength="104" x="733.5" y="404.0908">publicationDate : Date</text><!--MD5=[fe105c2ee1fabf2400c31a97ce9128bc]
class Textual_Document--><rect codeLine="12" fill="#00FFFF" filter="url(#f17ufpcrknammf)" height="32" id="Textual_Document" style="stroke:#A80036;stroke-width:1.5;" width="135" x="489" y="111"/><ellipse cx="504" cy="127" fill="#ADD1B2" rx="11" ry="11" style="stroke:#A80036;stroke-width:1.0;"/><path d="M506.7656,122.875 Q506.9219,122.6563 507.1094,122.5469 Q507.2969,122.4375 507.5156,122.4375 Q507.8906,122.4375 508.125,122.6953 Q508.3594,122.9531 508.3594,123.5625 L508.3594,125.0156 Q508.3594,125.625 508.125,125.8906 Q507.8906,126.1563 507.5156,126.1563 Q507.1719,126.1563 506.9688,125.9531 Q506.7656,125.7656 506.6563,125.25 Q506.6094,124.8906 506.4219,124.7031 Q506.0938,124.3281 505.4844,124.1094 Q504.875,123.8906 504.25,123.8906 Q503.4844,123.8906 502.8516,124.2188 Q502.2188,124.5469 501.7266,125.2969 Q501.2344,126.0469 501.2344,127.0781 L501.2344,128.1719 Q501.2344,129.4063 502.125,130.2266 Q503.0156,131.0469 504.6094,131.0469 Q505.5469,131.0469 506.2031,130.7969 Q506.5938,130.6406 507.0156,130.2031 Q507.2813,129.9375 507.4297,129.8594 Q507.5781,129.7813 507.7813,129.7813 Q508.1094,129.7813 508.3672,130.0391 Q508.625,130.2969 508.625,130.6406 Q508.625,130.9844 508.2813,131.3906 Q507.7813,131.9688 506.9844,132.2969 Q505.9063,132.75 504.6094,132.75 Q503.0938,132.75 501.8906,132.125 Q500.9063,131.625 500.2188,130.5547 Q499.5313,129.4844 499.5313,128.2031 L499.5313,127.0469 Q499.5313,125.7188 500.1484,124.5703 Q500.7656,123.4219 501.8594,122.8047 Q502.9531,122.1875 504.1875,122.1875 Q504.9219,122.1875 505.5703,122.3516 Q506.2188,122.5156 506.7656,122.875 Z " fill="#000000"/><text fill="#000000" font-family="sans-serif" font-size="12" lengthAdjust="spacing" textLength="103" x="518" y="131.9102">Textual_Document</text><!--MD5=[152f153d79baedb26b20a34b9b1b571f]
class Textual_Document_Accessibility_Specification--><rect codeLine="17" fill="#00FFFF" filter="url(#f17ufpcrknammf)" height="32" id="Textual_Document_Accessibility_Specification" style="stroke:#A80036;stroke-width:1.5;" width="286" x="413.5" y="7"/><ellipse cx="428.5" cy="23" fill="#ADD1B2" rx="11" ry="11" style="stroke:#A80036;stroke-width:1.0;"/><path d="M431.2656,18.875 Q431.4219,18.6563 431.6094,18.5469 Q431.7969,18.4375 432.0156,18.4375 Q432.3906,18.4375 432.625,18.6953 Q432.8594,18.9531 432.8594,19.5625 L432.8594,21.0156 Q432.8594,21.625 432.625,21.8906 Q432.3906,22.1563 432.0156,22.1563 Q431.6719,22.1563 431.4688,21.9531 Q431.2656,21.7656 431.1563,21.25 Q431.1094,20.8906 430.9219,20.7031 Q430.5938,20.3281 429.9844,20.1094 Q429.375,19.8906 428.75,19.8906 Q427.9844,19.8906 427.3516,20.2188 Q426.7188,20.5469 426.2266,21.2969 Q425.7344,22.0469 425.7344,23.0781 L425.7344,24.1719 Q425.7344,25.4063 426.625,26.2266 Q427.5156,27.0469 429.1094,27.0469 Q430.0469,27.0469 430.7031,26.7969 Q431.0938,26.6406 431.5156,26.2031 Q431.7813,25.9375 431.9297,25.8594 Q432.0781,25.7813 432.2813,25.7813 Q432.6094,25.7813 432.8672,26.0391 Q433.125,26.2969 433.125,26.6406 Q433.125,26.9844 432.7813,27.3906 Q432.2813,27.9688 431.4844,28.2969 Q430.4063,28.75 429.1094,28.75 Q427.5938,28.75 426.3906,28.125 Q425.4063,27.625 424.7188,26.5547 Q424.0313,25.4844 424.0313,24.2031 L424.0313,23.0469 Q424.0313,21.7188 424.6484,20.5703 Q425.2656,19.4219 426.3594,18.8047 Q427.4531,18.1875 428.6875,18.1875 Q429.4219,18.1875 430.0703,18.3516 Q430.7188,18.5156 431.2656,18.875 Z " fill="#000000"/><text fill="#000000" font-family="sans-serif" font-size="12" lengthAdjust="spacing" textLength="254" x="442.5" y="27.9102">Textual_Document_Accessibility_Specification</text><!--MD5=[9d44916250b776386006c440668bcfbb]
class Agent--><rect codeLine="22" fill="#00FFFF" filter="url(#f17ufpcrknammf)" height="32" id="Agent" style="stroke:#A80036;stroke-width:1.5;" width="63" x="282" y="354"/><ellipse cx="297" cy="370" fill="#ADD1B2" rx="11" ry="11" style="stroke:#A80036;stroke-width:1.0;"/><path d="M299.7656,365.875 Q299.9219,365.6563 300.1094,365.5469 Q300.2969,365.4375 300.5156,365.4375 Q300.8906,365.4375 301.125,365.6953 Q301.3594,365.9531 301.3594,366.5625 L301.3594,368.0156 Q301.3594,368.625 301.125,368.8906 Q300.8906,369.1563 300.5156,369.1563 Q300.1719,369.1563 299.9688,368.9531 Q299.7656,368.7656 299.6563,368.25 Q299.6094,367.8906 299.4219,367.7031 Q299.0938,367.3281 298.4844,367.1094 Q297.875,366.8906 297.25,366.8906 Q296.4844,366.8906 295.8516,367.2188 Q295.2188,367.5469 294.7266,368.2969 Q294.2344,369.0469 294.2344,370.0781 L294.2344,371.1719 Q294.2344,372.4063 295.125,373.2266 Q296.0156,374.0469 297.6094,374.0469 Q298.5469,374.0469 299.2031,373.7969 Q299.5938,373.6406 300.0156,373.2031 Q300.2813,372.9375 300.4297,372.8594 Q300.5781,372.7813 300.7813,372.7813 Q301.1094,372.7813 301.3672,373.0391 Q301.625,373.2969 301.625,373.6406 Q301.625,373.9844 301.2813,374.3906 Q300.7813,374.9688 299.9844,375.2969 Q298.9063,375.75 297.6094,375.75 Q296.0938,375.75 294.8906,375.125 Q293.9063,374.625 293.2188,373.5547 Q292.5313,372.4844 292.5313,371.2031 L292.5313,370.0469 Q292.5313,368.7188 293.1484,367.5703 Q293.7656,366.4219 294.8594,365.8047 Q295.9531,365.1875 297.1875,365.1875 Q297.9219,365.1875 298.5703,365.3516 Q299.2188,365.5156 299.7656,365.875 Z " fill="#000000"/><text fill="#000000" font-family="sans-serif" font-size="12" lengthAdjust="spacing" textLength="31" x="311" y="374.9102">Agent</text><!--MD5=[779f3743e425ed8a6f0bf188ddea4860]
class Organisation_Unit--><rect codeLine="27" fill="#00FFFF" filter="url(#f17ufpcrknammf)" height="53.8359" id="Organisation_Unit" style="stroke:#A80036;stroke-width:1.5;" width="132" x="194.5" y="625"/><ellipse cx="209.5" cy="641" fill="#ADD1B2" rx="11" ry="11" style="stroke:#A80036;stroke-width:1.0;"/><path d="M212.2656,636.875 Q212.4219,636.6563 212.6094,636.5469 Q212.7969,636.4375 213.0156,636.4375 Q213.3906,636.4375 213.625,636.6953 Q213.8594,636.9531 213.8594,637.5625 L213.8594,639.0156 Q213.8594,639.625 213.625,639.8906 Q213.3906,640.1563 213.0156,640.1563 Q212.6719,640.1563 212.4688,639.9531 Q212.2656,639.7656 212.1563,639.25 Q212.1094,638.8906 211.9219,638.7031 Q211.5938,638.3281 210.9844,638.1094 Q210.375,637.8906 209.75,637.8906 Q208.9844,637.8906 208.3516,638.2188 Q207.7188,638.5469 207.2266,639.2969 Q206.7344,640.0469 206.7344,641.0781 L206.7344,642.1719 Q206.7344,643.4063 207.625,644.2266 Q208.5156,645.0469 210.1094,645.0469 Q211.0469,645.0469 211.7031,644.7969 Q212.0938,644.6406 212.5156,644.2031 Q212.7813,643.9375 212.9297,643.8594 Q213.0781,643.7813 213.2813,643.7813 Q213.6094,643.7813 213.8672,644.0391 Q214.125,644.2969 214.125,644.6406 Q214.125,644.9844 213.7813,645.3906 Q213.2813,645.9688 212.4844,646.2969 Q211.4063,646.75 210.1094,646.75 Q208.5938,646.75 207.3906,646.125 Q206.4063,645.625 205.7188,644.5547 Q205.0313,643.4844 205.0313,642.2031 L205.0313,641.0469 Q205.0313,639.7188 205.6484,638.5703 Q206.2656,637.4219 207.3594,636.8047 Q208.4531,636.1875 209.6875,636.1875 Q210.4219,636.1875 211.0703,636.3516 Q211.7188,636.5156 212.2656,636.875 Z " fill="#000000"/><text fill="#000000" font-family="sans-serif" font-size="12" lengthAdjust="spacing" textLength="100" x="223.5" y="645.9102">Organisation_Unit</text><line style="stroke:#A80036;stroke-width:1.5;" x1="195.5" x2="325.5" y1="657" y2="657"/><text fill="#000000" font-family="sans-serif" font-size="11" lengthAdjust="spacing" textLength="120" x="200.5" y="672.4189">name : Multilingual_String</text><!--MD5=[09ce52be0ee7de43c61b6e2d59bf108b]
class Person--><rect codeLine="30" fill="#00FFFF" filter="url(#f17ufpcrknammf)" height="53.8359" id="Person" style="stroke:#A80036;stroke-width:1.5;" width="99" x="362" y="625"/><ellipse cx="389.15" cy="641" fill="#ADD1B2" rx="11" ry="11" style="stroke:#A80036;stroke-width:1.0;"/><path d="M391.9156,636.875 Q392.0719,636.6563 392.2594,636.5469 Q392.4469,636.4375 392.6656,636.4375 Q393.0406,636.4375 393.275,636.6953 Q393.5094,636.9531 393.5094,637.5625 L393.5094,639.0156 Q393.5094,639.625 393.275,639.8906 Q393.0406,640.1563 392.6656,640.1563 Q392.3219,640.1563 392.1188,639.9531 Q391.9156,639.7656 391.8063,639.25 Q391.7594,638.8906 391.5719,638.7031 Q391.2438,638.3281 390.6344,638.1094 Q390.025,637.8906 389.4,637.8906 Q388.6344,637.8906 388.0016,638.2188 Q387.3688,638.5469 386.8766,639.2969 Q386.3844,640.0469 386.3844,641.0781 L386.3844,642.1719 Q386.3844,643.4063 387.275,644.2266 Q388.1656,645.0469 389.7594,645.0469 Q390.6969,645.0469 391.3531,644.7969 Q391.7438,644.6406 392.1656,644.2031 Q392.4313,643.9375 392.5797,643.8594 Q392.7281,643.7813 392.9313,643.7813 Q393.2594,643.7813 393.5172,644.0391 Q393.775,644.2969 393.775,644.6406 Q393.775,644.9844 393.4313,645.3906 Q392.9313,645.9688 392.1344,646.2969 Q391.0563,646.75 389.7594,646.75 Q388.2438,646.75 387.0406,646.125 Q386.0563,645.625 385.3688,644.5547 Q384.6813,643.4844 384.6813,642.2031 L384.6813,641.0469 Q384.6813,639.7188 385.2984,638.5703 Q385.9156,637.4219 387.0094,636.8047 Q388.1031,636.1875 389.3375,636.1875 Q390.0719,636.1875 390.7203,636.3516 Q391.3688,636.5156 391.9156,636.875 Z " fill="#000000"/><text fill="#000000" font-family="sans-serif" font-size="12" lengthAdjust="spacing" textLength="40" x="405.85" y="645.9102">Person</text><line style="stroke:#A80036;stroke-width:1.5;" x1="363" x2="460" y1="657" y2="657"/><text fill="#000000" font-family="sans-serif" font-size="11" lengthAdjust="spacing" textLength="87" x="368" y="672.4189">orcidid : ORCID_iD</text><!--MD5=[7b209ef07eb91b93e0aebc9fe4fb9a26]
class Person_Name--><rect codeLine="33" fill="#00FFFF" filter="url(#f17ufpcrknammf)" height="89.6953" id="Person_Name" style="stroke:#A80036;stroke-width:1.5;" width="113" x="337" y="767.5"/><ellipse cx="352" cy="787.5938" fill="#FF7700" rx="11" ry="11" style="stroke:#A80036;stroke-width:1.0;"/><path d="M349.5469,790.8906 L349.5469,784.2344 Q349,784.2188 348.7422,783.9844 Q348.4844,783.75 348.4844,783.375 Q348.4844,783 348.75,782.7656 Q349.0156,782.5313 349.625,782.5313 L353.1875,782.5313 Q354.0156,782.5313 354.8125,782.8359 Q355.6094,783.1406 356.0938,783.625 Q356.4531,783.9844 356.8438,784.6016 Q357.2344,785.2188 357.4375,785.8359 Q357.6406,786.4531 357.6406,787.3438 L357.6406,788.1563 Q357.6406,789.2344 357.2734,790.0703 Q356.9063,790.9063 356.3125,791.4297 Q355.7188,791.9531 355.2031,792.2031 Q354.375,792.5938 353.0469,792.5938 L349.625,792.5938 Q349.0156,792.5938 348.75,792.3594 Q348.4844,792.125 348.4844,791.7344 Q348.4844,791.3594 348.75,791.125 Q349.0156,790.8906 349.5469,790.8906 Z M351.25,790.8906 L353.0625,790.8906 Q354.0625,790.8906 354.5781,790.5938 Q355.25,790.2188 355.5938,789.6328 Q355.9375,789.0469 355.9375,788.1094 L355.9375,787.2969 Q355.9375,786.5 355.625,785.8906 Q355.1406,784.9375 354.5391,784.5859 Q353.9375,784.2344 353.0469,784.2344 L351.25,784.2344 L351.25,790.8906 Z " fill="#000000"/><text fill="#000000" font-family="sans-serif" font-size="12" font-style="italic" lengthAdjust="spacing" textLength="67" x="373" y="784.957">«DataType»</text><text fill="#000000" font-family="sans-serif" font-size="12" lengthAdjust="spacing" textLength="81" x="366" y="800.0508">Person_Name</text><line style="stroke:#A80036;stroke-width:1.5;" x1="338" x2="449" y1="807.6875" y2="807.6875"/><text fill="#000000" font-family="sans-serif" font-size="11" lengthAdjust="spacing" textLength="89" x="343" y="823.1064">firstNames : String</text><text fill="#000000" font-family="sans-serif" font-size="11" lengthAdjust="spacing" textLength="98" x="343" y="836.9424">familyNames : String</text><text fill="#000000" font-family="sans-serif" font-size="11" lengthAdjust="spacing" textLength="95" x="343" y="850.7783">otherNames : String</text><!--MD5=[3b25461e5df73ababc6765bb9b0c47d3]
class Authorship--><rect codeLine="38" fill="#00FFFF" filter="url(#f17ufpcrknammf)" height="53.8359" id="Authorship" style="stroke:#A80036;stroke-width:1.5;" width="183" x="271" y="100"/><ellipse cx="328.75" cy="116" fill="#ADD1B2" rx="11" ry="11" style="stroke:#A80036;stroke-width:1.0;"/><path d="M331.5156,111.875 Q331.6719,111.6563 331.8594,111.5469 Q332.0469,111.4375 332.2656,111.4375 Q332.6406,111.4375 332.875,111.6953 Q333.1094,111.9531 333.1094,112.5625 L333.1094,114.0156 Q333.1094,114.625 332.875,114.8906 Q332.6406,115.1563 332.2656,115.1563 Q331.9219,115.1563 331.7188,114.9531 Q331.5156,114.7656 331.4063,114.25 Q331.3594,113.8906 331.1719,113.7031 Q330.8438,113.3281 330.2344,113.1094 Q329.625,112.8906 329,112.8906 Q328.2344,112.8906 327.6016,113.2188 Q326.9688,113.5469 326.4766,114.2969 Q325.9844,115.0469 325.9844,116.0781 L325.9844,117.1719 Q325.9844,118.4063 326.875,119.2266 Q327.7656,120.0469 329.3594,120.0469 Q330.2969,120.0469 330.9531,119.7969 Q331.3438,119.6406 331.7656,119.2031 Q332.0313,118.9375 332.1797,118.8594 Q332.3281,118.7813 332.5313,118.7813 Q332.8594,118.7813 333.1172,119.0391 Q333.375,119.2969 333.375,119.6406 Q333.375,119.9844 333.0313,120.3906 Q332.5313,120.9688 331.7344,121.2969 Q330.6563,121.75 329.3594,121.75 Q327.8438,121.75 326.6406,121.125 Q325.6563,120.625 324.9688,119.5547 Q324.2813,118.4844 324.2813,117.2031 L324.2813,116.0469 Q324.2813,114.7188 324.8984,113.5703 Q325.5156,112.4219 326.6094,111.8047 Q327.7031,111.1875 328.9375,111.1875 Q329.6719,111.1875 330.3203,111.3516 Q330.9688,111.5156 331.5156,111.875 Z " fill="#000000"/><text fill="#000000" font-family="sans-serif" font-size="12" lengthAdjust="spacing" textLength="59" x="349.25" y="120.9102">Authorship</text><line style="stroke:#A80036;stroke-width:1.5;" x1="272" x2="453" y1="132" y2="132"/><text fill="#000000" font-family="sans-serif" font-size="11" lengthAdjust="spacing" textLength="171" x="277" y="147.4189">correspondingAuthorFlag : Boolean</text><!--MD5=[b821bb113f9f55c728f1fbb8949cc3af]
class Contributorship--><rect codeLine="43" fill="#00FFFF" filter="url(#f17ufpcrknammf)" height="67.6719" id="Contributorship" style="stroke:#A80036;stroke-width:1.5;" width="117" x="380" y="336"/><ellipse cx="395" cy="352" fill="#ADD1B2" rx="11" ry="11" style="stroke:#A80036;stroke-width:1.0;"/><path d="M397.7656,347.875 Q397.9219,347.6563 398.1094,347.5469 Q398.2969,347.4375 398.5156,347.4375 Q398.8906,347.4375 399.125,347.6953 Q399.3594,347.9531 399.3594,348.5625 L399.3594,350.0156 Q399.3594,350.625 399.125,350.8906 Q398.8906,351.1563 398.5156,351.1563 Q398.1719,351.1563 397.9688,350.9531 Q397.7656,350.7656 397.6563,350.25 Q397.6094,349.8906 397.4219,349.7031 Q397.0938,349.3281 396.4844,349.1094 Q395.875,348.8906 395.25,348.8906 Q394.4844,348.8906 393.8516,349.2188 Q393.2188,349.5469 392.7266,350.2969 Q392.2344,351.0469 392.2344,352.0781 L392.2344,353.1719 Q392.2344,354.4063 393.125,355.2266 Q394.0156,356.0469 395.6094,356.0469 Q396.5469,356.0469 397.2031,355.7969 Q397.5938,355.6406 398.0156,355.2031 Q398.2813,354.9375 398.4297,354.8594 Q398.5781,354.7813 398.7813,354.7813 Q399.1094,354.7813 399.3672,355.0391 Q399.625,355.2969 399.625,355.6406 Q399.625,355.9844 399.2813,356.3906 Q398.7813,356.9688 397.9844,357.2969 Q396.9063,357.75 395.6094,357.75 Q394.0938,357.75 392.8906,357.125 Q391.9063,356.625 391.2188,355.5547 Q390.5313,354.4844 390.5313,353.2031 L390.5313,352.0469 Q390.5313,350.7188 391.1484,349.5703 Q391.7656,348.4219 392.8594,347.8047 Q393.9531,347.1875 395.1875,347.1875 Q395.9219,347.1875 396.5703,347.3516 Q397.2188,347.5156 397.7656,347.875 Z " fill="#000000"/><text fill="#000000" font-family="sans-serif" font-size="12" lengthAdjust="spacing" textLength="85" x="409" y="356.9102">Contributorship</text><line style="stroke:#A80036;stroke-width:1.5;" x1="381" x2="496" y1="368" y2="368"/><text fill="#000000" font-family="sans-serif" font-size="11" lengthAdjust="spacing" textLength="96" x="386" y="383.4189">contacts : List&lt;URI&gt;</text><text fill="#000000" font-family="sans-serif" font-size="11" lengthAdjust="spacing" textLength="98" x="386" y="397.2549">displayName : String</text><!--MD5=[532fe005ca0bef0ad6b309c9c6480e22]
class Contribution_Statement--><rect codeLine="47" fill="#00FFFF" filter="url(#f17ufpcrknammf)" height="32" id="Contribution_Statement" style="stroke:#A80036;stroke-width:1.5;" width="162" x="547.5" y="219"/><ellipse cx="562.5" cy="235" fill="#ADD1B2" rx="11" ry="11" style="stroke:#A80036;stroke-width:1.0;"/><path d="M565.2656,230.875 Q565.4219,230.6563 565.6094,230.5469 Q565.7969,230.4375 566.0156,230.4375 Q566.3906,230.4375 566.625,230.6953 Q566.8594,230.9531 566.8594,231.5625 L566.8594,233.0156 Q566.8594,233.625 566.625,233.8906 Q566.3906,234.1563 566.0156,234.1563 Q565.6719,234.1563 565.4688,233.9531 Q565.2656,233.7656 565.1563,233.25 Q565.1094,232.8906 564.9219,232.7031 Q564.5938,232.3281 563.9844,232.1094 Q563.375,231.8906 562.75,231.8906 Q561.9844,231.8906 561.3516,232.2188 Q560.7188,232.5469 560.2266,233.2969 Q559.7344,234.0469 559.7344,235.0781 L559.7344,236.1719 Q559.7344,237.4063 560.625,238.2266 Q561.5156,239.0469 563.1094,239.0469 Q564.0469,239.0469 564.7031,238.7969 Q565.0938,238.6406 565.5156,238.2031 Q565.7813,237.9375 565.9297,237.8594 Q566.0781,237.7813 566.2813,237.7813 Q566.6094,237.7813 566.8672,238.0391 Q567.125,238.2969 567.125,238.6406 Q567.125,238.9844 566.7813,239.3906 Q566.2813,239.9688 565.4844,240.2969 Q564.4063,240.75 563.1094,240.75 Q561.5938,240.75 560.3906,240.125 Q559.4063,239.625 558.7188,238.5547 Q558.0313,237.4844 558.0313,236.2031 L558.0313,235.0469 Q558.0313,233.7188 558.6484,232.5703 Q559.2656,231.4219 560.3594,230.8047 Q561.4531,230.1875 562.6875,230.1875 Q563.4219,230.1875 564.0703,230.3516 Q564.7188,230.5156 565.2656,230.875 Z " fill="#000000"/><text fill="#000000" font-family="sans-serif" font-size="12" lengthAdjust="spacing" textLength="130" x="576.5" y="239.9102">Contribution_Statement</text><!--MD5=[e67d803be009978640e98815ecdddf28]
class Free_Text_Contribution--><rect codeLine="49" fill="#00FFFF" filter="url(#f17ufpcrknammf)" height="53.8359" id="Free_Text_Contribution" style="stroke:#A80036;stroke-width:1.5;" width="160" x="532.5" y="343"/><ellipse cx="547.5" cy="359" fill="#ADD1B2" rx="11" ry="11" style="stroke:#A80036;stroke-width:1.0;"/><path d="M550.2656,354.875 Q550.4219,354.6563 550.6094,354.5469 Q550.7969,354.4375 551.0156,354.4375 Q551.3906,354.4375 551.625,354.6953 Q551.8594,354.9531 551.8594,355.5625 L551.8594,357.0156 Q551.8594,357.625 551.625,357.8906 Q551.3906,358.1563 551.0156,358.1563 Q550.6719,358.1563 550.4688,357.9531 Q550.2656,357.7656 550.1563,357.25 Q550.1094,356.8906 549.9219,356.7031 Q549.5938,356.3281 548.9844,356.1094 Q548.375,355.8906 547.75,355.8906 Q546.9844,355.8906 546.3516,356.2188 Q545.7188,356.5469 545.2266,357.2969 Q544.7344,358.0469 544.7344,359.0781 L544.7344,360.1719 Q544.7344,361.4063 545.625,362.2266 Q546.5156,363.0469 548.1094,363.0469 Q549.0469,363.0469 549.7031,362.7969 Q550.0938,362.6406 550.5156,362.2031 Q550.7813,361.9375 550.9297,361.8594 Q551.0781,361.7813 551.2813,361.7813 Q551.6094,361.7813 551.8672,362.0391 Q552.125,362.2969 552.125,362.6406 Q552.125,362.9844 551.7813,363.3906 Q551.2813,363.9688 550.4844,364.2969 Q549.4063,364.75 548.1094,364.75 Q546.5938,364.75 545.3906,364.125 Q544.4063,363.625 543.7188,362.5547 Q543.0313,361.4844 543.0313,360.2031 L543.0313,359.0469 Q543.0313,357.7188 543.6484,356.5703 Q544.2656,355.4219 545.3594,354.8047 Q546.4531,354.1875 547.6875,354.1875 Q548.4219,354.1875 549.0703,354.3516 Q549.7188,354.5156 550.2656,354.875 Z " fill="#000000"/><text fill="#000000" font-family="sans-serif" font-size="12" lengthAdjust="spacing" textLength="128" x="561.5" y="363.9102">Free_Text_Contribution</text><line style="stroke:#A80036;stroke-width:1.5;" x1="533.5" x2="691.5" y1="375" y2="375"/><text fill="#000000" font-family="sans-serif" font-size="11" lengthAdjust="spacing" textLength="141" x="538.5" y="390.4189">statement : Multilingual_String</text><!--MD5=[ddbff00b4911ad4b77d6aa32dd14d1d7]
class Affiliation_Statement--><rect codeLine="54" fill="#00FFFF" filter="url(#f17ufpcrknammf)" height="53.8359" id="Affiliation_Statement" style="stroke:#A80036;stroke-width:1.5;" width="144" x="366.5" y="485"/><ellipse cx="381.5" cy="501" fill="#ADD1B2" rx="11" ry="11" style="stroke:#A80036;stroke-width:1.0;"/><path d="M384.2656,496.875 Q384.4219,496.6563 384.6094,496.5469 Q384.7969,496.4375 385.0156,496.4375 Q385.3906,496.4375 385.625,496.6953 Q385.8594,496.9531 385.8594,497.5625 L385.8594,499.0156 Q385.8594,499.625 385.625,499.8906 Q385.3906,500.1563 385.0156,500.1563 Q384.6719,500.1563 384.4688,499.9531 Q384.2656,499.7656 384.1563,499.25 Q384.1094,498.8906 383.9219,498.7031 Q383.5938,498.3281 382.9844,498.1094 Q382.375,497.8906 381.75,497.8906 Q380.9844,497.8906 380.3516,498.2188 Q379.7188,498.5469 379.2266,499.2969 Q378.7344,500.0469 378.7344,501.0781 L378.7344,502.1719 Q378.7344,503.4063 379.625,504.2266 Q380.5156,505.0469 382.1094,505.0469 Q383.0469,505.0469 383.7031,504.7969 Q384.0938,504.6406 384.5156,504.2031 Q384.7813,503.9375 384.9297,503.8594 Q385.0781,503.7813 385.2813,503.7813 Q385.6094,503.7813 385.8672,504.0391 Q386.125,504.2969 386.125,504.6406 Q386.125,504.9844 385.7813,505.3906 Q385.2813,505.9688 384.4844,506.2969 Q383.4063,506.75 382.1094,506.75 Q380.5938,506.75 379.3906,506.125 Q378.4063,505.625 377.7188,504.5547 Q377.0313,503.4844 377.0313,502.2031 L377.0313,501.0469 Q377.0313,499.7188 377.6484,498.5703 Q378.2656,497.4219 379.3594,496.8047 Q380.4531,496.1875 381.6875,496.1875 Q382.4219,496.1875 383.0703,496.3516 Q383.7188,496.5156 384.2656,496.875 Z " fill="#000000"/><text fill="#000000" font-family="sans-serif" font-size="12" lengthAdjust="spacing" textLength="112" x="395.5" y="505.9102">Affiliation_Statement</text><line style="stroke:#A80036;stroke-width:1.5;" x1="367.5" x2="509.5" y1="517" y2="517"/><text fill="#000000" font-family="sans-serif" font-size="11" lengthAdjust="spacing" textLength="116" x="372.5" y="532.4189">displayAffiliation : String</text><!--MD5=[fe1d14fe6d68ca7e76eb34268c62a1f3]
class Postal_Address--><rect codeLine="57" fill="#00FFFF" filter="url(#f17ufpcrknammf)" height="103.5313" id="Postal_Address" style="stroke:#A80036;stroke-width:1.5;" width="120" x="515.5" y="600"/><ellipse cx="530.5" cy="620.0938" fill="#FF7700" rx="11" ry="11" style="stroke:#A80036;stroke-width:1.0;"/><path d="M528.0469,623.3906 L528.0469,616.7344 Q527.5,616.7188 527.2422,616.4844 Q526.9844,616.25 526.9844,615.875 Q526.9844,615.5 527.25,615.2656 Q527.5156,615.0313 528.125,615.0313 L531.6875,615.0313 Q532.5156,615.0313 533.3125,615.3359 Q534.1094,615.6406 534.5938,616.125 Q534.9531,616.4844 535.3438,617.1016 Q535.7344,617.7188 535.9375,618.3359 Q536.1406,618.9531 536.1406,619.8438 L536.1406,620.6563 Q536.1406,621.7344 535.7734,622.5703 Q535.4063,623.4063 534.8125,623.9297 Q534.2188,624.4531 533.7031,624.7031 Q532.875,625.0938 531.5469,625.0938 L528.125,625.0938 Q527.5156,625.0938 527.25,624.8594 Q526.9844,624.625 526.9844,624.2344 Q526.9844,623.8594 527.25,623.625 Q527.5156,623.3906 528.0469,623.3906 Z M529.75,623.3906 L531.5625,623.3906 Q532.5625,623.3906 533.0781,623.0938 Q533.75,622.7188 534.0938,622.1328 Q534.4375,621.5469 534.4375,620.6094 L534.4375,619.7969 Q534.4375,619 534.125,618.3906 Q533.6406,617.4375 533.0391,617.0859 Q532.4375,616.7344 531.5469,616.7344 L529.75,616.7344 L529.75,623.3906 Z " fill="#000000"/><text fill="#000000" font-family="sans-serif" font-size="12" font-style="italic" lengthAdjust="spacing" textLength="67" x="555" y="617.457">«DataType»</text><text fill="#000000" font-family="sans-serif" font-size="12" lengthAdjust="spacing" textLength="88" x="544.5" y="632.5508">Postal_Address</text><line style="stroke:#A80036;stroke-width:1.5;" x1="516.5" x2="634.5" y1="640.1875" y2="640.1875"/><text fill="#000000" font-family="sans-serif" font-size="11" lengthAdjust="spacing" textLength="65" x="521.5" y="655.6064">street : String</text><text fill="#000000" font-family="sans-serif" font-size="11" lengthAdjust="spacing" textLength="54" x="521.5" y="669.4424">city : String</text><text fill="#000000" font-family="sans-serif" font-size="11" lengthAdjust="spacing" textLength="76" x="521.5" y="683.2783">zipCode : String</text><text fill="#000000" font-family="sans-serif" font-size="11" lengthAdjust="spacing" textLength="84" x="521.5" y="697.1143">country : Country</text><!--MD5=[deb4e1f6eb1e3c1256fdb830f96abfbb]
class Country--><rect codeLine="63" fill="#00FFFF" filter="url(#f17ufpcrknammf)" height="95.3438" id="Country" style="stroke:#A80036;stroke-width:1.5;" width="254" x="485.5" y="765"/><ellipse cx="587.25" cy="781" fill="#ADD1B2" rx="11" ry="11" style="stroke:#A80036;stroke-width:1.0;"/><path d="M590.0156,776.875 Q590.1719,776.6563 590.3594,776.5469 Q590.5469,776.4375 590.7656,776.4375 Q591.1406,776.4375 591.375,776.6953 Q591.6094,776.9531 591.6094,777.5625 L591.6094,779.0156 Q591.6094,779.625 591.375,779.8906 Q591.1406,780.1563 590.7656,780.1563 Q590.4219,780.1563 590.2188,779.9531 Q590.0156,779.7656 589.9063,779.25 Q589.8594,778.8906 589.6719,778.7031 Q589.3438,778.3281 588.7344,778.1094 Q588.125,777.8906 587.5,777.8906 Q586.7344,777.8906 586.1016,778.2188 Q585.4688,778.5469 584.9766,779.2969 Q584.4844,780.0469 584.4844,781.0781 L584.4844,782.1719 Q584.4844,783.4063 585.375,784.2266 Q586.2656,785.0469 587.8594,785.0469 Q588.7969,785.0469 589.4531,784.7969 Q589.8438,784.6406 590.2656,784.2031 Q590.5313,783.9375 590.6797,783.8594 Q590.8281,783.7813 591.0313,783.7813 Q591.3594,783.7813 591.6172,784.0391 Q591.875,784.2969 591.875,784.6406 Q591.875,784.9844 591.5313,785.3906 Q591.0313,785.9688 590.2344,786.2969 Q589.1563,786.75 587.8594,786.75 Q586.3438,786.75 585.1406,786.125 Q584.1563,785.625 583.4688,784.5547 Q582.7813,783.4844 582.7813,782.2031 L582.7813,781.0469 Q582.7813,779.7188 583.3984,778.5703 Q584.0156,777.4219 585.1094,776.8047 Q586.2031,776.1875 587.4375,776.1875 Q588.1719,776.1875 588.8203,776.3516 Q589.4688,776.5156 590.0156,776.875 Z " fill="#000000"/><text fill="#000000" font-family="sans-serif" font-size="12" lengthAdjust="spacing" textLength="42" x="607.75" y="785.9102">Country</text><line style="stroke:#A80036;stroke-width:1.5;" x1="486.5" x2="738.5" y1="797" y2="797"/><text fill="#000000" font-family="sans-serif" font-size="11" lengthAdjust="spacing" textLength="120" x="505.5" y="812.4189">name : Multilingual_String</text><text fill="#000000" font-family="sans-serif" font-size="11" lengthAdjust="spacing" textLength="216" x="505.5" y="826.2549">iso3166alpha2Code : ISO3166_Alpha2_Code</text><polygon fill="none" points="496.5,830.6719,500.5,834.6719,496.5,838.6719,492.5,834.6719" style="stroke:#B38D22;stroke-width:1.0;"/><text fill="#000000" font-family="sans-serif" font-size="11" lengthAdjust="spacing" textLength="228" x="505.5" y="840.0908">iso3166NumericCode : ISO3166_Numeric_Code</text><polygon fill="none" points="496.5,844.5078,500.5,848.5078,496.5,852.5078,492.5,848.5078" style="stroke:#B38D22;stroke-width:1.0;"/><text fill="#000000" font-family="sans-serif" font-size="11" lengthAdjust="spacing" textLength="172" x="505.5" y="853.9268">euCountryCode : EU_Country_Code</text><path d="M6,316 L6,424.1094 A0,0 0 0 0 6,424.1094 L247,424.1094 A0,0 0 0 0 247,424.1094 L247,374 L281.82,370 L247,366 L247,326 L237,316 L6,316 A0,0 0 0 0 6,316 " fill="#FBFB77" filter="url(#f17ufpcrknammf)" style="stroke:#A80036;stroke-width:1.0;"/><path d="M237,316 L237,326 L247,326 L237,316 " fill="#FBFB77" style="stroke:#A80036;stroke-width:1.0;"/><text fill="#000000" font-family="sans-serif" font-size="13" lengthAdjust="spacing" textLength="216" x="12" y="334.4951">The Agent is mandatory for almost all</text><text fill="#000000" font-family="sans-serif" font-size="13" lengthAdjust="spacing" textLength="175" x="12" y="350.8467">subclasses of Contributorship,</text><text fill="#000000" font-family="sans-serif" font-size="13" lengthAdjust="spacing" textLength="185" x="12" y="367.1982">Reviewing is the exception if the</text><text fill="#000000" font-family="sans-serif" font-size="13" lengthAdjust="spacing" textLength="182" x="12" y="383.5498">reviewer's identity is concealed.</text><text fill="#000000" font-family="sans-serif" font-size="13" lengthAdjust="spacing" textLength="167" x="12" y="399.9014">Also useful when authors are</text><text fill="#000000" font-family="sans-serif" font-size="13" lengthAdjust="spacing" textLength="113" x="12" y="416.2529">using pseudonyms.</text><!--MD5=[bf7e8cf64254ff374c5acfe277545dd5]
reverse link Postal_Address to Country--><path codeLine="69" d="M590.37,716.69 C594.13,732.79 598.09,749.79 601.61,764.87 " fill="none" id="Postal_Address-backto-Country" style="stroke:#A80036;stroke-width:1.0;"/><polygon fill="#FFFFFF" points="587.41,704.02,584.8799,710.7727,590.1401,715.7053,592.6702,708.9526,587.41,704.02" style="stroke:#A80036;stroke-width:1.0;"/><text fill="#000000" font-family="sans-serif" font-size="13" lengthAdjust="spacing" textLength="43" x="553.8527" y="754.195">country</text><!--MD5=[af6b79ce3af62c8c5ee779db9fbc8cf6]
link Affiliation_Statement to Postal_Address--><path codeLine="70" d="M464.59,539.28 C480.53,555.34 501.52,576.48 520.95,596.05 " fill="none" id="Affiliation_Statement-to-Postal_Address" style="stroke:#A80036;stroke-width:1.0;stroke-dasharray:7.0,7.0;"/><polygon fill="#A80036" points="524.81,599.94,521.293,590.7405,521.2816,596.3973,515.6248,596.3859,524.81,599.94" style="stroke:#A80036;stroke-width:1.0;"/><text fill="#000000" font-family="sans-serif" font-size="13" lengthAdjust="spacing" textLength="83" x="428.8458" y="589.0469">postalAddress</text><!--MD5=[fe03d2c8e9644e7513bef3a6fb6291e6]
reverse link Affiliation_Statement to Organisation_Unit--><path codeLine="71" d="M383.33,547.11 C349.99,571.12 309.45,602.78 284.02,624.82 " fill="none" id="Affiliation_Statement-backto-Organisation_Unit" style="stroke:#A80036;stroke-width:1.0;"/><polygon fill="#FFFFFF" points="394.33,539.28,387.1224,539.5042,384.5572,546.2436,391.7648,546.0194,394.33,539.28" style="stroke:#A80036;stroke-width:1.0;"/><text fill="#000000" font-family="sans-serif" font-size="13" lengthAdjust="spacing" textLength="67" x="214.7121" y="614.2394">0..1 orgUnit</text><!--MD5=[fe03d2c8e9644e7513bef3a6fb6291e6]
reverse link Affiliation_Statement to Organisation_Unit--><path codeLine="72" d="M405.59,547.73 C377.16,571.67 336.44,602.97 305.13,624.82 " fill="none" id="Affiliation_Statement-backto-Organisation_Unit-1" style="stroke:#A80036;stroke-width:1.0;"/><polygon fill="#FFFFFF" points="415.47,539.28,408.3111,540.146,406.3571,547.0873,413.516,546.2213,415.47,539.28" style="stroke:#A80036;stroke-width:1.0;"/><text fill="#000000" font-family="sans-serif" font-size="13" lengthAdjust="spacing" textLength="82" x="324.8607" y="614.1722">0..1 institution</text><!--MD5=[d9b08b031298a036c8fb3d44263a5204]
reverse link Affiliation_Statement to Person--><path codeLine="73" d="M430.83,552.22 C426.28,575.48 420.63,604.32 416.62,624.82 " fill="none" id="Affiliation_Statement-backto-Person" style="stroke:#A80036;stroke-width:1.0;"/><polygon fill="#FFFFFF" points="433.36,539.28,428.2863,544.4042,431.065,551.0585,436.1387,545.9343,433.36,539.28" style="stroke:#A80036;stroke-width:1.0;"/><text fill="#000000" font-family="sans-serif" font-size="13" lengthAdjust="spacing" textLength="39" x="422.3134" y="614.2394">person</text><!--MD5=[b5c017ecc32f857930efae613c226920]
reverse link Contribution_Statement to Free_Text_Contribution--><path codeLine="75" d="M624.27,271.19 C621.55,293.73 618.09,322.49 615.63,342.98 " fill="none" id="Contribution_Statement-backto-Free_Text_Contribution" style="stroke:#A80036;stroke-width:1.0;"/><polygon fill="none" points="617.33,270.28,626.66,251.26,631.23,271.95,617.33,270.28" style="stroke:#A80036;stroke-width:1.0;"/><!--MD5=[1f014480a3afa8c0325c3be3fbf7ad6f]
link Contributorship to Document--><path codeLine="78" d="M465.25,335.73 C482.12,317.02 505.66,295.64 532,285.5 C598.36,259.95 625.44,260.48 692,285.5 C711.32,292.76 729.3,305.85 744.38,319.58 " fill="none" id="Contributorship-to-Document" style="stroke:#A80036;stroke-width:1.0;"/><polygon fill="#A80036" points="753.86,328.65,752.2869,321.6126,745.1857,320.358,746.7589,327.3954,753.86,328.65" style="stroke:#A80036;stroke-width:1.0;"/><text fill="#000000" font-family="sans-serif" font-size="13" lengthAdjust="spacing" textLength="20" x="448.443" y="325.2322">0..*</text><!--MD5=[504de05de5dc33320621ff1be2e6e6ff]
reverse link Agent to Contributorship--><path codeLine="81" d="M358.49,370 C365.61,370 372.73,370 379.85,370 " fill="none" id="Agent-backto-Contributorship" style="stroke:#A80036;stroke-width:1.0;"/><polygon fill="#A80036" points="345.24,370,351.24,374,357.24,370,351.24,366,345.24,370" style="stroke:#A80036;stroke-width:1.0;"/><text fill="#000000" font-family="sans-serif" font-size="13" lengthAdjust="spacing" textLength="87" x="283.6977" y="352.7176">0..1 contributor</text><text fill="#000000" font-family="sans-serif" font-size="13" lengthAdjust="spacing" textLength="20" x="351.9123" y="384.4594">0..*</text><!--MD5=[d50a95e3ddb5a3ed983c7b2ff4649bd6]
reverse link Contributorship to Affiliation_Statement--><path codeLine="83" d="M438.5,417.19 C438.5,439.57 438.5,465.64 438.5,484.61 " fill="none" id="Contributorship-backto-Affiliation_Statement" style="stroke:#A80036;stroke-width:1.0;"/><polygon fill="#A80036" points="438.5,404.18,434.5,410.18,438.5,416.18,442.5,410.18,438.5,404.18" style="stroke:#A80036;stroke-width:1.0;"/><text fill="#000000" font-family="sans-serif" font-size="13" lengthAdjust="spacing" textLength="81" x="348.1344" y="473.9808">0..* affiliations</text><!--MD5=[302d116419dc4c6a2265e61d4260f04e]
link Contribution_Statement to Contributorship--><path codeLine="85" d="M606.7,251.26 C580,269.95 533.72,302.35 496.45,328.43 " fill="none" id="Contribution_Statement-to-Contributorship" style="stroke:#A80036;stroke-width:1.0;"/><polygon fill="#A80036" points="485.71,335.96,492.9193,335.7975,495.542,329.0802,488.3328,329.2428,485.71,335.96" style="stroke:#A80036;stroke-width:1.0;"/><text fill="#000000" font-family="sans-serif" font-size="13" lengthAdjust="spacing" textLength="158" x="416.57" y="272.544">0..* contributionStatements</text><!--MD5=[db20fd804d8595e73b6b8c99fdd1338c]
link Authorship to Textual_Document--><path codeLine="87" d="M454.2,127 C461.44,127 468.68,127 475.93,127 " fill="none" id="Authorship-to-Textual_Document" style="stroke:#A80036;stroke-width:1.0;"/><polygon fill="#A80036" points="488.96,127,482.96,123,476.96,127,482.96,131,488.96,127" style="stroke:#A80036;stroke-width:1.0;"/><!--MD5=[e74e4958a1d7eb99db8e977d8859ba66]
link Authorship to Contributorship--><path codeLine="88" d="M375.75,154.14 C383.99,171.15 394.34,194.01 401.5,215 C412.73,247.93 421.9,285.94 428.3,315.95 " fill="none" id="Authorship-to-Contributorship" style="stroke:#A80036;stroke-width:1.0;"/><polygon fill="none" points="435.2,314.75,432.37,335.75,421.49,317.57,435.2,314.75" style="stroke:#A80036;stroke-width:1.0;"/><!--MD5=[49125a4ba45432b051dcbcd9e53401d7]
link Authorship to Agent--><path codeLine="89" d="M305.17,154.01 C280.87,168.28 255.07,188.52 241.5,215 C233.39,230.82 236.56,237.92 241.5,255 C251.2,288.51 274,321.64 291.37,343.47 " fill="none" id="Authorship-to-Agent" style="stroke:#A80036;stroke-width:1.0;"/><polygon fill="#FFFFFF" points="299.86,353.8,299.1392,346.625,292.2389,344.5308,292.9597,351.7057,299.86,353.8" style="stroke:#A80036;stroke-width:1.0;"/><path d="M246.5,220 L246.5,246 L388.5,246 L388.5,230 L378.5,220 L246.5,220 " fill="#FFFF00" filter="url(#f17ufpcrknammf)" style="stroke:#A80036;stroke-width:1.0;"/><path d="M378.5,220 L378.5,230 L388.5,230 L378.5,220 " fill="#FFFF00" style="stroke:#A80036;stroke-width:1.0;"/><text fill="#000000" font-family="sans-serif" font-size="13" lengthAdjust="spacing" textLength="121" x="252.5" y="238.4951">author == contributor</text><text fill="#000000" font-family="sans-serif" font-size="13" lengthAdjust="spacing" textLength="20" x="270.4416" y="175.22">0..*</text><text fill="#000000" font-family="sans-serif" font-size="13" lengthAdjust="spacing" textLength="62" x="254.4584" y="357.8634">0..1 author</text><!--MD5=[5d8901ce694eb85aefa78b7d82d9f6f6]
link Person to Person_Name--><path codeLine="91" d="M408.53,679.17 C405.97,701.69 402.21,734.78 399.09,762.24 " fill="none" id="Person-to-Person_Name" style="stroke:#A80036;stroke-width:1.0;stroke-dasharray:7.0,7.0;"/><polygon fill="#A80036" points="398.52,767.3,403.5243,758.8173,399.0926,762.3329,395.577,757.9011,398.52,767.3" style="stroke:#A80036;stroke-width:1.0;"/><text fill="#000000" font-family="sans-serif" font-size="13" lengthAdjust="spacing" textLength="39" x="357.3028" y="756.6991">names</text><!--MD5=[de96f77e660762cb21a195b4097c3876]
reverse link Agent to Person--><path codeLine="92" d="M317.66,406.38 C322.46,441 331.93,494.82 348.5,539 C360.18,570.12 379.6,602.96 393.8,624.97 " fill="none" id="Agent-backto-Person" style="stroke:#A80036;stroke-width:1.0;"/><polygon fill="none" points="310.68,406.99,315.09,386.27,324.57,405.22,310.68,406.99" style="stroke:#A80036;stroke-width:1.0;"/><!--MD5=[521d3f26cc3887ed8885a4c0e03f9952]
reverse link Agent to Organisation_Unit--><path codeLine="93" d="M301.42,405.04 C296.51,419.92 291.15,437.67 287.5,454 C273.98,514.47 266.15,587 262.67,624.94 " fill="none" id="Agent-backto-Organisation_Unit" style="stroke:#A80036;stroke-width:1.0;"/><polygon fill="none" points="294.81,402.73,307.93,386.09,308.06,407.28,294.81,402.73" style="stroke:#A80036;stroke-width:1.0;"/><!--MD5=[8d9b790276a1e6c61f0b091de629785c]
link Textual_Document to Document--><path codeLine="95" d="M606.77,143.01 C644.19,156.47 694.19,179.63 726.5,215 C750.58,241.36 765.87,278.26 775.24,309.34 " fill="none" id="Textual_Document-to-Document" style="stroke:#A80036;stroke-width:1.0;"/><polygon fill="none" points="782.03,307.61,780.58,328.75,768.53,311.32,782.03,307.61" style="stroke:#A80036;stroke-width:1.0;"/><!--MD5=[c0a805770ea07def151bfb445be554f3]
link Textual_Document_Accessibility_Specification to Textual_Document--><path codeLine="97" d="M556.5,39.05 C556.5,54.42 556.5,78.65 556.5,97.63 " fill="none" id="Textual_Document_Accessibility_Specification-to-Textual_Document" style="stroke:#A80036;stroke-width:1.0;"/><polygon fill="#A80036" points="556.5,110.89,560.5,104.89,556.5,98.89,552.5,104.89,556.5,110.89" style="stroke:#A80036;stroke-width:1.0;"/><text fill="#000000" font-family="sans-serif" font-size="13" lengthAdjust="spacing" textLength="103" x="436.4406" y="60.5699">0..* accessRights</text><!--MD5=[2c23d09c80fbfac9dc5109bf504b493e]
link Textual_Document to Agent--><path codeLine="98" d="M540.37,143.06 C506.73,174.59 426.9,250.07 362.5,316 C350.24,328.55 336.74,343.22 327.01,353.95 " fill="none" id="Textual_Document-Agent" style="stroke:#A80036;stroke-width:1.0;"/><text fill="#000000" font-family="sans-serif" font-size="13" lengthAdjust="spacing" textLength="140" x="558.2144" y="164.5832">0..* authoredDocuments</text><text fill="#000000" font-family="sans-serif" font-size="13" lengthAdjust="spacing" textLength="67" x="254.89" y="342.8869">0..* authors</text><!--MD5=[db07e832387961a04cfcc7406e64cb6a]
@startuml
    !startsub common
    	!define datatype(x) class x << (D,#FF7700) DataType>>
    	hide empty members
    !endsub

    !startsub Document
    class "Document"#00ffff {
        DOI : DOI_Type
        title : Multilingual_String
        publicationDate : Date
    }
    class "Textual_Document"#00ffff {
    }
    !endsub

    !startsub TDAS
    class "Textual_Document_Accessibility_Specification"#00ffff {
    }
    !endsub

    !startsub Agent
    class "Agent"#00ffff {

        }
    !endsub

    class "Organisation_Unit"#00ffff {
        name : Multilingual_String
    }
    class "Person"#00ffff {
        orcidid : ORCID_iD
    }
    datatype("Person_Name")#00ffff {
        firstNames : String
        familyNames : String
        otherNames : String
    }
    class "Authorship"#00ffff {
        correspondingAuthorFlag : Boolean
    }

    !startsub Contributorship
    class "Contributorship"#00ffff {
        contacts : List<URI>
        displayName : String
    }
    class "Contribution_Statement"#00ffff {
    }
    class "Free_Text_Contribution"#00ffff {
        statement : Multilingual_String
    }
    !endsub

    class "Affiliation_Statement"#00ffff {
        displayAffiliation : String
    }
   datatype("Postal_Address")#00ffff {
        street : String
        city : String
        zipCode : String
        country : Country
    }
    class "Country"#00ffff {
        name : Multilingual_String
        iso3166alpha2Code : ISO3166_Alpha2_Code
        # iso3166NumericCode : ISO3166_Numeric_Code
        # euCountryCode : EU_Country_Code
    }
    "Postal_Address" o- - "country" "Country"
    "Affiliation_Statement" ..> "postalAddress" "Postal_Address"
    "Affiliation_Statement" o- - "0..1 orgUnit" "Organisation_Unit"
    "Affiliation_Statement" o- - "0..1 institution" "Organisation_Unit"
    "Affiliation_Statement" o- - "person" "Person"
    !startsub Contributorship
    "Contribution_Statement" <|- - "Free_Text_Contribution"
    !endsub
    !startsub Contributorship
    "Contributorship" "0..*" -r-* "Document"
    !endsub
    !startsub Contributorship
    "Contributorship" "0..*" -l-* "0..1 contributor" "Agent"
    !endsub
    "Contributorship" *- - "0..* affiliations" "Affiliation_Statement"
    !startsub Contributorship
    "Contributorship" *-u- "0..* contributionStatements" "Contribution_Statement"
    !endsub
    "Authorship" -r-* "Textual_Document"
    "Contributorship" <|-u- "Authorship"
    "Authorship" "0..*" - -o "0..1 author" "Agent"
    note on link #yellow: author == contributor
    "Person" .d.> "names" "Person_Name"
    "Agent" <|-d- "Person"
    "Agent" <|-d- "Organisation_Unit"
    !startsub Document
    "Document" <|-u- "Textual_Document"
    !endsub
    "Textual_Document" *-u- "0..* accessRights" "Textual_Document_Accessibility_Specification"
    "Textual_Document" "0..* authoredDocuments" - - - "0..* authors" "Agent"
    note left of Agent: The Agent is mandatory for almost all \nsubclasses of Contributorship,\nReviewing is the exception if the \nreviewer's identity is concealed. \nAlso useful when authors are \nusing pseudonyms.
@enduml

@startuml
    	hide empty members

    class "Document"#00ffff {
        DOI : DOI_Type
        title : Multilingual_String
        publicationDate : Date
    }
    class "Textual_Document"#00ffff {
    }

    class "Textual_Document_Accessibility_Specification"#00ffff {
    }

    class "Agent"#00ffff {

        }

    class "Organisation_Unit"#00ffff {
        name : Multilingual_String
    }
    class "Person"#00ffff {
        orcidid : ORCID_iD
    }
    class Person_Name << (D,#FF7700) DataType>>#00ffff {
        firstNames : String
        familyNames : String
        otherNames : String
    }
    class "Authorship"#00ffff {
        correspondingAuthorFlag : Boolean
    }

    class "Contributorship"#00ffff {
        contacts : List<URI>
        displayName : String
    }
    class "Contribution_Statement"#00ffff {
    }
    class "Free_Text_Contribution"#00ffff {
        statement : Multilingual_String
    }

    class "Affiliation_Statement"#00ffff {
        displayAffiliation : String
    }
   class Postal_Address << (D,#FF7700) DataType>>#00ffff {
        street : String
        city : String
        zipCode : String
        country : Country
    }
    class "Country"#00ffff {
        name : Multilingual_String
        iso3166alpha2Code : ISO3166_Alpha2_Code
        # iso3166NumericCode : ISO3166_Numeric_Code
        # euCountryCode : EU_Country_Code
    }
    "Postal_Address" o- - "country" "Country"
    "Affiliation_Statement" ..> "postalAddress" "Postal_Address"
    "Affiliation_Statement" o- - "0..1 orgUnit" "Organisation_Unit"
    "Affiliation_Statement" o- - "0..1 institution" "Organisation_Unit"
    "Affiliation_Statement" o- - "person" "Person"
    "Contribution_Statement" <|- - "Free_Text_Contribution"
    "Contributorship" "0..*" -r-* "Document"
    "Contributorship" "0..*" -l-* "0..1 contributor" "Agent"
    "Contributorship" *- - "0..* affiliations" "Affiliation_Statement"
    "Contributorship" *-u- "0..* contributionStatements" "Contribution_Statement"
    "Authorship" -r-* "Textual_Document"
    "Contributorship" <|-u- "Authorship"
    "Authorship" "0..*" - -o "0..1 author" "Agent"
    note on link #yellow: author == contributor
    "Person" .d.> "names" "Person_Name"
    "Agent" <|-d- "Person"
    "Agent" <|-d- "Organisation_Unit"
    "Document" <|-u- "Textual_Document"
    "Textual_Document" *-u- "0..* accessRights" "Textual_Document_Accessibility_Specification"
    "Textual_Document" "0..* authoredDocuments" - - - "0..* authors" "Agent"
    note left of Agent: The Agent is mandatory for almost all \nsubclasses of Contributorship,\nReviewing is the exception if the \nreviewer's identity is concealed. \nAlso useful when authors are \nusing pseudonyms.
@enduml

PlantUML version 1.2021.8(Sat Jun 26 10:20:59 CEST 2021)
(GPL source distribution)
Java Runtime: Java(TM) SE Runtime Environment
JVM: Java HotSpot(TM) Client VM
Default Encoding: Cp1252
Language: en
Country: US
--></g></svg>