<?xml version="1.0" encoding="UTF-8" standalone="no"?><svg xmlns="http://www.w3.org/2000/svg" xmlns:xlink="http://www.w3.org/1999/xlink" contentScriptType="application/ecmascript" contentStyleType="text/css" height="840px" preserveAspectRatio="none" style="width:1130px;height:840px;background:#FFFFFF;" version="1.1" viewBox="0 0 1130 840" width="1130px" zoomAndPan="magnify"><defs><filter height="300%" id="f1aeirfe485s5j" width="300%" x="-1" y="-1"><feGaussianBlur result="blurOut" stdDeviation="2.0"/><feColorMatrix in="blurOut" result="blurOut2" type="matrix" values="0 0 0 0 0 0 0 0 0 0 0 0 0 0 0 0 0 0 .4 0"/><feOffset dx="4.0" dy="4.0" in="blurOut2" result="blurOut3"/><feBlend in="SourceGraphic" in2="blurOut3" mode="normal"/></filter></defs><g><!--MD5=[59b530d44ae785dc18db921986a9c15c]
class Document--><rect codeLine="7" fill="#FEFECE" filter="url(#f1aeirfe485s5j)" height="52.8047" id="Document" style="stroke:#A80036;stroke-width:1.5;" width="320" x="796.5" y="338"/><ellipse cx="920.25" cy="354" fill="#ADD1B2" rx="11" ry="11" style="stroke:#A80036;stroke-width:1.0;"/><path d="M923.2188,359.6406 Q922.6406,359.9375 922,360.0781 Q921.3594,360.2344 920.6563,360.2344 Q918.1563,360.2344 916.8281,358.5938 Q915.5156,356.9375 915.5156,353.8125 Q915.5156,350.6875 916.8281,349.0313 Q918.1563,347.375 920.6563,347.375 Q921.3594,347.375 922,347.5313 Q922.6563,347.6875 923.2188,347.9844 L923.2188,350.7031 Q922.5938,350.125 922,349.8594 Q921.4063,349.5781 920.7813,349.5781 Q919.4375,349.5781 918.75,350.6563 Q918.0625,351.7188 918.0625,353.8125 Q918.0625,355.9063 918.75,356.9844 Q919.4375,358.0469 920.7813,358.0469 Q921.4063,358.0469 922,357.7813 Q922.5938,357.5 923.2188,356.9219 L923.2188,359.6406 Z " fill="#000000"/><text fill="#000000" font-family="sans-serif" font-size="12" lengthAdjust="spacing" textLength="64" x="940.75" y="358.1543">Document</text><line style="stroke:#A80036;stroke-width:1.5;" x1="797.5" x2="1115.5" y1="370" y2="370"/><text fill="#000000" font-family="sans-serif" font-size="11" lengthAdjust="spacing" textLength="308" x="802.5" y="384.2104">class "Textual_Document_Accessibility_Specification"{</text><!--MD5=[9d44916250b776386006c440668bcfbb]
class Agent--><rect codeLine="19" fill="#FEFECE" filter="url(#f1aeirfe485s5j)" height="32" id="Agent" style="stroke:#A80036;stroke-width:1.5;" width="69" x="306" y="348.5"/><ellipse cx="321" cy="364.5" fill="#ADD1B2" rx="11" ry="11" style="stroke:#A80036;stroke-width:1.0;"/><path d="M323.9688,370.1406 Q323.3906,370.4375 322.75,370.5781 Q322.1094,370.7344 321.4063,370.7344 Q318.9063,370.7344 317.5781,369.0938 Q316.2656,367.4375 316.2656,364.3125 Q316.2656,361.1875 317.5781,359.5313 Q318.9063,357.875 321.4063,357.875 Q322.1094,357.875 322.75,358.0313 Q323.4063,358.1875 323.9688,358.4844 L323.9688,361.2031 Q323.3438,360.625 322.75,360.3594 Q322.1563,360.0781 321.5313,360.0781 Q320.1875,360.0781 319.5,361.1563 Q318.8125,362.2188 318.8125,364.3125 Q318.8125,366.4063 319.5,367.4844 Q320.1875,368.5469 321.5313,368.5469 Q322.1563,368.5469 322.75,368.2813 Q323.3438,368 323.9688,367.4219 L323.9688,370.1406 Z " fill="#000000"/><text fill="#000000" font-family="sans-serif" font-size="12" lengthAdjust="spacing" textLength="37" x="335" y="368.6543">Agent</text><!--MD5=[779f3743e425ed8a6f0bf188ddea4860]
class Organisation_Unit--><rect codeLine="22" fill="#FEFECE" filter="url(#f1aeirfe485s5j)" height="52.8047" id="Organisation_Unit" style="stroke:#A80036;stroke-width:1.5;" width="159" x="205" y="605.5"/><ellipse cx="227.2" cy="621.5" fill="#ADD1B2" rx="11" ry="11" style="stroke:#A80036;stroke-width:1.0;"/><path d="M230.1688,627.1406 Q229.5906,627.4375 228.95,627.5781 Q228.3094,627.7344 227.6063,627.7344 Q225.1063,627.7344 223.7781,626.0938 Q222.4656,624.4375 222.4656,621.3125 Q222.4656,618.1875 223.7781,616.5313 Q225.1063,614.875 227.6063,614.875 Q228.3094,614.875 228.95,615.0313 Q229.6063,615.1875 230.1688,615.4844 L230.1688,618.2031 Q229.5438,617.625 228.95,617.3594 Q228.3563,617.0781 227.7313,617.0781 Q226.3875,617.0781 225.7,618.1563 Q225.0125,619.2188 225.0125,621.3125 Q225.0125,623.4063 225.7,624.4844 Q226.3875,625.5469 227.7313,625.5469 Q228.3563,625.5469 228.95,625.2813 Q229.5438,625 230.1688,624.4219 L230.1688,627.1406 Z " fill="#000000"/><text fill="#000000" font-family="sans-serif" font-size="12" lengthAdjust="spacing" textLength="111" x="242.8" y="625.6543">Organisation_Unit</text><line style="stroke:#A80036;stroke-width:1.5;" x1="206" x2="363" y1="637.5" y2="637.5"/><text fill="#000000" font-family="sans-serif" font-size="11" lengthAdjust="spacing" textLength="147" x="211" y="651.7104">name : Multilingual_String</text><!--MD5=[09ce52be0ee7de43c61b6e2d59bf108b]
class Person--><rect codeLine="25" fill="#FEFECE" filter="url(#f1aeirfe485s5j)" height="52.8047" id="Person" style="stroke:#A80036;stroke-width:1.5;" width="114" x="399.5" y="605.5"/><ellipse cx="431.6" cy="621.5" fill="#ADD1B2" rx="11" ry="11" style="stroke:#A80036;stroke-width:1.0;"/><path d="M434.5688,627.1406 Q433.9906,627.4375 433.35,627.5781 Q432.7094,627.7344 432.0063,627.7344 Q429.5063,627.7344 428.1781,626.0938 Q426.8656,624.4375 426.8656,621.3125 Q426.8656,618.1875 428.1781,616.5313 Q429.5063,614.875 432.0063,614.875 Q432.7094,614.875 433.35,615.0313 Q434.0063,615.1875 434.5688,615.4844 L434.5688,618.2031 Q433.9438,617.625 433.35,617.3594 Q432.7563,617.0781 432.1313,617.0781 Q430.7875,617.0781 430.1,618.1563 Q429.4125,619.2188 429.4125,621.3125 Q429.4125,623.4063 430.1,624.4844 Q430.7875,625.5469 432.1313,625.5469 Q432.7563,625.5469 433.35,625.2813 Q433.9438,625 434.5688,624.4219 L434.5688,627.1406 Z " fill="#000000"/><text fill="#000000" font-family="sans-serif" font-size="12" lengthAdjust="spacing" textLength="44" x="449.4" y="625.6543">Person</text><line style="stroke:#A80036;stroke-width:1.5;" x1="400.5" x2="512.5" y1="637.5" y2="637.5"/><text fill="#000000" font-family="sans-serif" font-size="11" lengthAdjust="spacing" textLength="102" x="405.5" y="651.7104">orcidid : ORCID_iD</text><!--MD5=[7b209ef07eb91b93e0aebc9fe4fb9a26]
class Person_Name--><rect codeLine="28" fill="#FEFECE" filter="url(#f1aeirfe485s5j)" height="84.3516" id="Person_Name" style="stroke:#A80036;stroke-width:1.5;" width="132" x="369.5" y="738.5"/><ellipse cx="390.8" cy="757.4688" fill="#FF7700" rx="11" ry="11" style="stroke:#A80036;stroke-width:1.0;"/><path d="M390.3938,753.2813 L390.3938,761.2656 L391.05,761.2656 Q392.4875,761.2656 393.0969,760.3594 Q393.7219,759.4375 393.7219,757.2656 Q393.7219,755.0938 393.0969,754.1875 Q392.4875,753.2813 391.05,753.2813 L390.3938,753.2813 Z M387.9406,751.0781 L390.5656,751.0781 Q393.5969,751.0781 394.925,752.5313 Q396.2688,753.9688 396.2688,757.2656 Q396.2688,760.5625 394.925,762.0156 Q393.5969,763.4688 390.5656,763.4688 L387.9406,763.4688 L387.9406,751.0781 Z " fill="#000000"/><text fill="#000000" font-family="sans-serif" font-size="12" font-style="italic" lengthAdjust="spacing" textLength="74" x="412.2" y="754.6387">«DataType»</text><text fill="#000000" font-family="sans-serif" font-size="12" lengthAdjust="spacing" textLength="86" x="406.2" y="768.6074">Person_Name</text><line style="stroke:#A80036;stroke-width:1.5;" x1="370.5" x2="500.5" y1="776.4375" y2="776.4375"/><text fill="#000000" font-family="sans-serif" font-size="11" lengthAdjust="spacing" textLength="109" x="375.5" y="790.6479">firstNames : String</text><text fill="#000000" font-family="sans-serif" font-size="11" lengthAdjust="spacing" textLength="120" x="375.5" y="803.4526">familyNames : String</text><text fill="#000000" font-family="sans-serif" font-size="11" lengthAdjust="spacing" textLength="116" x="375.5" y="816.2573">otherNames : String</text><!--MD5=[3b25461e5df73ababc6765bb9b0c47d3]
class Authorship--><rect codeLine="33" fill="#FEFECE" filter="url(#f1aeirfe485s5j)" height="52.8047" id="Authorship" style="stroke:#A80036;stroke-width:1.5;" width="212" x="286.5" y="100"/><ellipse cx="354.25" cy="116" fill="#ADD1B2" rx="11" ry="11" style="stroke:#A80036;stroke-width:1.0;"/><path d="M357.2188,121.6406 Q356.6406,121.9375 356,122.0781 Q355.3594,122.2344 354.6563,122.2344 Q352.1563,122.2344 350.8281,120.5938 Q349.5156,118.9375 349.5156,115.8125 Q349.5156,112.6875 350.8281,111.0313 Q352.1563,109.375 354.6563,109.375 Q355.3594,109.375 356,109.5313 Q356.6563,109.6875 357.2188,109.9844 L357.2188,112.7031 Q356.5938,112.125 356,111.8594 Q355.4063,111.5781 354.7813,111.5781 Q353.4375,111.5781 352.75,112.6563 Q352.0625,113.7188 352.0625,115.8125 Q352.0625,117.9063 352.75,118.9844 Q353.4375,120.0469 354.7813,120.0469 Q355.4063,120.0469 356,119.7813 Q356.5938,119.5 357.2188,118.9219 L357.2188,121.6406 Z " fill="#000000"/><text fill="#000000" font-family="sans-serif" font-size="12" lengthAdjust="spacing" textLength="68" x="374.75" y="120.1543">Authorship</text><line style="stroke:#A80036;stroke-width:1.5;" x1="287.5" x2="497.5" y1="132" y2="132"/><text fill="#000000" font-family="sans-serif" font-size="11" lengthAdjust="spacing" textLength="200" x="292.5" y="146.2104">correspondingAuthorFlag : Boolean</text><!--MD5=[b821bb113f9f55c728f1fbb8949cc3af]
class Contributorship--><rect codeLine="37" fill="#FEFECE" filter="url(#f1aeirfe485s5j)" height="65.6094" id="Contributorship" style="stroke:#A80036;stroke-width:1.5;" width="131" x="410" y="331.5"/><ellipse cx="425.9" cy="347.5" fill="#ADD1B2" rx="11" ry="11" style="stroke:#A80036;stroke-width:1.0;"/><path d="M428.8688,353.1406 Q428.2906,353.4375 427.65,353.5781 Q427.0094,353.7344 426.3063,353.7344 Q423.8063,353.7344 422.4781,352.0938 Q421.1656,350.4375 421.1656,347.3125 Q421.1656,344.1875 422.4781,342.5313 Q423.8063,340.875 426.3063,340.875 Q427.0094,340.875 427.65,341.0313 Q428.3063,341.1875 428.8688,341.4844 L428.8688,344.2031 Q428.2438,343.625 427.65,343.3594 Q427.0563,343.0781 426.4313,343.0781 Q425.0875,343.0781 424.4,344.1563 Q423.7125,345.2188 423.7125,347.3125 Q423.7125,349.4063 424.4,350.4844 Q425.0875,351.5469 426.4313,351.5469 Q427.0563,351.5469 427.65,351.2813 Q428.2438,351 428.8688,350.4219 L428.8688,353.1406 Z " fill="#000000"/><text fill="#000000" font-family="sans-serif" font-size="12" lengthAdjust="spacing" textLength="97" x="440.1" y="351.6543">Contributorship</text><line style="stroke:#A80036;stroke-width:1.5;" x1="411" x2="540" y1="363.5" y2="363.5"/><text fill="#000000" font-family="sans-serif" font-size="11" lengthAdjust="spacing" textLength="116" x="416" y="377.7104">contacts : List&lt;URI&gt;</text><text fill="#000000" font-family="sans-serif" font-size="11" lengthAdjust="spacing" textLength="119" x="416" y="390.5151">displayName : String</text><!--MD5=[532fe005ca0bef0ad6b309c9c6480e22]
class Contribution_Statement--><rect codeLine="41" fill="#FEFECE" filter="url(#f1aeirfe485s5j)" height="32" id="Contribution_Statement" style="stroke:#A80036;stroke-width:1.5;" width="181" x="589" y="217.5"/><ellipse cx="604" cy="233.5" fill="#ADD1B2" rx="11" ry="11" style="stroke:#A80036;stroke-width:1.0;"/><path d="M606.9688,239.1406 Q606.3906,239.4375 605.75,239.5781 Q605.1094,239.7344 604.4063,239.7344 Q601.9063,239.7344 600.5781,238.0938 Q599.2656,236.4375 599.2656,233.3125 Q599.2656,230.1875 600.5781,228.5313 Q601.9063,226.875 604.4063,226.875 Q605.1094,226.875 605.75,227.0313 Q606.4063,227.1875 606.9688,227.4844 L606.9688,230.2031 Q606.3438,229.625 605.75,229.3594 Q605.1563,229.0781 604.5313,229.0781 Q603.1875,229.0781 602.5,230.1563 Q601.8125,231.2188 601.8125,233.3125 Q601.8125,235.4063 602.5,236.4844 Q603.1875,237.5469 604.5313,237.5469 Q605.1563,237.5469 605.75,237.2813 Q606.3438,237 606.9688,236.4219 L606.9688,239.1406 Z " fill="#000000"/><text fill="#000000" font-family="sans-serif" font-size="12" lengthAdjust="spacing" textLength="149" x="618" y="237.6543">Contribution_Statement</text><!--MD5=[e67d803be009978640e98815ecdddf28]
class Free_Text_Contribution--><rect codeLine="43" fill="#FEFECE" filter="url(#f1aeirfe485s5j)" height="52.8047" id="Free_Text_Contribution" style="stroke:#A80036;stroke-width:1.5;" width="185" x="576" y="338"/><ellipse cx="595.5" cy="354" fill="#ADD1B2" rx="11" ry="11" style="stroke:#A80036;stroke-width:1.0;"/><path d="M598.4688,359.6406 Q597.8906,359.9375 597.25,360.0781 Q596.6094,360.2344 595.9063,360.2344 Q593.4063,360.2344 592.0781,358.5938 Q590.7656,356.9375 590.7656,353.8125 Q590.7656,350.6875 592.0781,349.0313 Q593.4063,347.375 595.9063,347.375 Q596.6094,347.375 597.25,347.5313 Q597.9063,347.6875 598.4688,347.9844 L598.4688,350.7031 Q597.8438,350.125 597.25,349.8594 Q596.6563,349.5781 596.0313,349.5781 Q594.6875,349.5781 594,350.6563 Q593.3125,351.7188 593.3125,353.8125 Q593.3125,355.9063 594,356.9844 Q594.6875,358.0469 596.0313,358.0469 Q596.6563,358.0469 597.25,357.7813 Q597.8438,357.5 598.4688,356.9219 L598.4688,359.6406 Z " fill="#000000"/><text fill="#000000" font-family="sans-serif" font-size="12" lengthAdjust="spacing" textLength="143" x="610.5" y="358.1543">Free_Text_Contribution</text><line style="stroke:#A80036;stroke-width:1.5;" x1="577" x2="760" y1="370" y2="370"/><text fill="#000000" font-family="sans-serif" font-size="11" lengthAdjust="spacing" textLength="173" x="582" y="384.2104">statement : Multilingual_String</text><!--MD5=[ddbff00b4911ad4b77d6aa32dd14d1d7]
class Affiliation_Statement--><rect codeLine="47" fill="#FEFECE" filter="url(#f1aeirfe485s5j)" height="52.8047" id="Affiliation_Statement" style="stroke:#A80036;stroke-width:1.5;" width="161" x="395" y="476"/><ellipse cx="410" cy="492" fill="#ADD1B2" rx="11" ry="11" style="stroke:#A80036;stroke-width:1.0;"/><path d="M412.9688,497.6406 Q412.3906,497.9375 411.75,498.0781 Q411.1094,498.2344 410.4063,498.2344 Q407.9063,498.2344 406.5781,496.5938 Q405.2656,494.9375 405.2656,491.8125 Q405.2656,488.6875 406.5781,487.0313 Q407.9063,485.375 410.4063,485.375 Q411.1094,485.375 411.75,485.5313 Q412.4063,485.6875 412.9688,485.9844 L412.9688,488.7031 Q412.3438,488.125 411.75,487.8594 Q411.1563,487.5781 410.5313,487.5781 Q409.1875,487.5781 408.5,488.6563 Q407.8125,489.7188 407.8125,491.8125 Q407.8125,493.9063 408.5,494.9844 Q409.1875,496.0469 410.5313,496.0469 Q411.1563,496.0469 411.75,495.7813 Q412.3438,495.5 412.9688,494.9219 L412.9688,497.6406 Z " fill="#000000"/><text fill="#000000" font-family="sans-serif" font-size="12" lengthAdjust="spacing" textLength="129" x="424" y="496.1543">Affiliation_Statement</text><line style="stroke:#A80036;stroke-width:1.5;" x1="396" x2="555" y1="508" y2="508"/><text fill="#000000" font-family="sans-serif" font-size="11" lengthAdjust="spacing" textLength="138" x="401" y="522.2104">displayAffiliation : String</text><!--MD5=[fe1d14fe6d68ca7e76eb34268c62a1f3]
class Postal_Address--><rect codeLine="50" fill="#FEFECE" filter="url(#f1aeirfe485s5j)" height="84.3516" id="Postal_Address" style="stroke:#A80036;stroke-width:1.5;" width="128" x="570.5" y="590"/><ellipse cx="585.5" cy="608.9688" fill="#FF7700" rx="11" ry="11" style="stroke:#A80036;stroke-width:1.0;"/><path d="M585.0938,604.7813 L585.0938,612.7656 L585.75,612.7656 Q587.1875,612.7656 587.7969,611.8594 Q588.4219,610.9375 588.4219,608.7656 Q588.4219,606.5938 587.7969,605.6875 Q587.1875,604.7813 585.75,604.7813 L585.0938,604.7813 Z M582.6406,602.5781 L585.2656,602.5781 Q588.2969,602.5781 589.625,604.0313 Q590.9688,605.4688 590.9688,608.7656 Q590.9688,612.0625 589.625,613.5156 Q588.2969,614.9688 585.2656,614.9688 L582.6406,614.9688 L582.6406,602.5781 Z " fill="#000000"/><text fill="#000000" font-family="sans-serif" font-size="12" font-style="italic" lengthAdjust="spacing" textLength="74" x="610.5" y="606.1387">«DataType»</text><text fill="#000000" font-family="sans-serif" font-size="12" lengthAdjust="spacing" textLength="96" x="599.5" y="620.1074">Postal_Address</text><line style="stroke:#A80036;stroke-width:1.5;" x1="571.5" x2="697.5" y1="627.9375" y2="627.9375"/><text fill="#000000" font-family="sans-serif" font-size="11" lengthAdjust="spacing" textLength="80" x="576.5" y="642.1479">street : String</text><text fill="#000000" font-family="sans-serif" font-size="11" lengthAdjust="spacing" textLength="65" x="576.5" y="654.9526">city : String</text><text fill="#000000" font-family="sans-serif" font-size="11" lengthAdjust="spacing" textLength="90" x="576.5" y="667.7573">zipCode : String</text><!--MD5=[deb4e1f6eb1e3c1256fdb830f96abfbb]
class Country--><rect codeLine="55" fill="#FEFECE" filter="url(#f1aeirfe485s5j)" height="91.2188" id="Country" style="stroke:#A80036;stroke-width:1.5;" width="281" x="537" y="735"/><ellipse cx="649.25" cy="751" fill="#ADD1B2" rx="11" ry="11" style="stroke:#A80036;stroke-width:1.0;"/><path d="M652.2188,756.6406 Q651.6406,756.9375 651,757.0781 Q650.3594,757.2344 649.6563,757.2344 Q647.1563,757.2344 645.8281,755.5938 Q644.5156,753.9375 644.5156,750.8125 Q644.5156,747.6875 645.8281,746.0313 Q647.1563,744.375 649.6563,744.375 Q650.3594,744.375 651,744.5313 Q651.6563,744.6875 652.2188,744.9844 L652.2188,747.7031 Q651.5938,747.125 651,746.8594 Q650.4063,746.5781 649.7813,746.5781 Q648.4375,746.5781 647.75,747.6563 Q647.0625,748.7188 647.0625,750.8125 Q647.0625,752.9063 647.75,753.9844 Q648.4375,755.0469 649.7813,755.0469 Q650.4063,755.0469 651,754.7813 Q651.5938,754.5 652.2188,753.9219 L652.2188,756.6406 Z " fill="#000000"/><text fill="#000000" font-family="sans-serif" font-size="12" lengthAdjust="spacing" textLength="48" x="669.75" y="755.1543">Country</text><line style="stroke:#A80036;stroke-width:1.5;" x1="538" x2="817" y1="767" y2="767"/><text fill="#000000" font-family="sans-serif" font-size="11" lengthAdjust="spacing" textLength="147" x="543" y="781.2104">name : Multilingual_String</text><text fill="#000000" font-family="sans-serif" font-size="11" lengthAdjust="spacing" textLength="237" x="543" y="794.0151">iso3166alphaCode : ISO3166_Alpha_Code</text><text fill="#000000" font-family="sans-serif" font-size="11" lengthAdjust="spacing" textLength="269" x="543" y="806.8198">iso3166NumericCode : ISO3166_Numeric_Code</text><text fill="#000000" font-family="sans-serif" font-size="11" lengthAdjust="spacing" textLength="199" x="543" y="819.6245">euCountryCode : EU_Country_Code</text><!--MD5=[fe105c2ee1fabf2400c31a97ce9128bc]
class Textual_Document--><rect fill="#FEFECE" filter="url(#f1aeirfe485s5j)" height="32" id="Textual_Document" style="stroke:#A80036;stroke-width:1.5;" width="147" x="534" y="110.5"/><ellipse cx="549" cy="126.5" fill="#ADD1B2" rx="11" ry="11" style="stroke:#A80036;stroke-width:1.0;"/><path d="M551.9688,132.1406 Q551.3906,132.4375 550.75,132.5781 Q550.1094,132.7344 549.4063,132.7344 Q546.9063,132.7344 545.5781,131.0938 Q544.2656,129.4375 544.2656,126.3125 Q544.2656,123.1875 545.5781,121.5313 Q546.9063,119.875 549.4063,119.875 Q550.1094,119.875 550.75,120.0313 Q551.4063,120.1875 551.9688,120.4844 L551.9688,123.2031 Q551.3438,122.625 550.75,122.3594 Q550.1563,122.0781 549.5313,122.0781 Q548.1875,122.0781 547.5,123.1563 Q546.8125,124.2188 546.8125,126.3125 Q546.8125,128.4063 547.5,129.4844 Q548.1875,130.5469 549.5313,130.5469 Q550.1563,130.5469 550.75,130.2813 Q551.3438,130 551.9688,129.4219 L551.9688,132.1406 Z " fill="#000000"/><text fill="#000000" font-family="sans-serif" font-size="12" lengthAdjust="spacing" textLength="115" x="563" y="130.6543">Textual_Document</text><!--MD5=[152f153d79baedb26b20a34b9b1b571f]
class Textual_Document_Accessibility_Specification--><rect fill="#FEFECE" filter="url(#f1aeirfe485s5j)" height="32" id="Textual_Document_Accessibility_Specification" style="stroke:#A80036;stroke-width:1.5;" width="314" x="450.5" y="7"/><ellipse cx="465.5" cy="23" fill="#ADD1B2" rx="11" ry="11" style="stroke:#A80036;stroke-width:1.0;"/><path d="M468.4688,28.6406 Q467.8906,28.9375 467.25,29.0781 Q466.6094,29.2344 465.9063,29.2344 Q463.4063,29.2344 462.0781,27.5938 Q460.7656,25.9375 460.7656,22.8125 Q460.7656,19.6875 462.0781,18.0313 Q463.4063,16.375 465.9063,16.375 Q466.6094,16.375 467.25,16.5313 Q467.9063,16.6875 468.4688,16.9844 L468.4688,19.7031 Q467.8438,19.125 467.25,18.8594 Q466.6563,18.5781 466.0313,18.5781 Q464.6875,18.5781 464,19.6563 Q463.3125,20.7188 463.3125,22.8125 Q463.3125,24.9063 464,25.9844 Q464.6875,27.0469 466.0313,27.0469 Q466.6563,27.0469 467.25,26.7813 Q467.8438,26.5 468.4688,25.9219 L468.4688,28.6406 Z " fill="#000000"/><text fill="#000000" font-family="sans-serif" font-size="12" lengthAdjust="spacing" textLength="282" x="479.5" y="27.1543">Textual_Document_Accessibility_Specification</text><path d="M6,314 L6,414.7969 A0,0 0 0 0 6,414.7969 L271,414.7969 A0,0 0 0 0 271,414.7969 L271,368.5 L305.78,364.5 L271,360.5 L271,324 L261,314 L6,314 A0,0 0 0 0 6,314 " fill="#FBFB77" filter="url(#f1aeirfe485s5j)" style="stroke:#A80036;stroke-width:1.0;"/><path d="M261,314 L261,324 L271,324 L261,314 " fill="#FBFB77" style="stroke:#A80036;stroke-width:1.0;"/><text fill="#000000" font-family="sans-serif" font-size="13" lengthAdjust="spacing" textLength="240" x="12" y="331.0669">The Agent is mandatory for almost all</text><text fill="#000000" font-family="sans-serif" font-size="13" lengthAdjust="spacing" textLength="192" x="12" y="346.1997">subclasses of Contributorship,</text><text fill="#000000" font-family="sans-serif" font-size="13" lengthAdjust="spacing" textLength="203" x="12" y="361.3325">Reviewing is the exception if the</text><text fill="#000000" font-family="sans-serif" font-size="13" lengthAdjust="spacing" textLength="201" x="12" y="376.4653">reviewer's identity is concealed.</text><text fill="#000000" font-family="sans-serif" font-size="13" lengthAdjust="spacing" textLength="184" x="12" y="391.5981">Also useful when authors are</text><text fill="#000000" font-family="sans-serif" font-size="13" lengthAdjust="spacing" textLength="124" x="12" y="406.731">using pseudonyms.</text><!--MD5=[bf7e8cf64254ff374c5acfe277545dd5]
reverse link Postal_Address to Country--><path codeLine="61" d="M650.36,687.02 C654.97,702.73 659.95,719.7 664.37,734.76 " fill="none" id="Postal_Address-backto-Country" style="stroke:#A80036;stroke-width:1.0;"/><polygon fill="#FFFFFF" points="646.59,674.2,644.44,681.0831,649.9667,685.7151,652.1167,678.832,646.59,674.2" style="stroke:#A80036;stroke-width:1.0;"/><text fill="#000000" font-family="sans-serif" font-size="13" lengthAdjust="spacing" textLength="48" x="610.9165" y="724.001">country</text><!--MD5=[af6b79ce3af62c8c5ee779db9fbc8cf6]
link Affiliation_Statement to Postal_Address--><path codeLine="62" d="M507.68,529.3 C528.18,545.74 555.28,567.47 579.17,586.63 " fill="none" id="Affiliation_Statement-to-Postal_Address" style="stroke:#A80036;stroke-width:1.0;stroke-dasharray:7.0,7.0;"/><polygon fill="#A80036" points="583.28,589.93,578.7627,581.1782,579.3798,586.8013,573.7568,587.4185,583.28,589.93" style="stroke:#A80036;stroke-width:1.0;"/><text fill="#000000" font-family="sans-serif" font-size="13" lengthAdjust="spacing" textLength="91" x="476.8652" y="579.0792">postalAddress</text><!--MD5=[fe03d2c8e9644e7513bef3a6fb6291e6]
reverse link Affiliation_Statement to Organisation_Unit--><path codeLine="63" d="M414.99,536.34 C380.58,557.86 339.34,585.58 312.32,605.45 " fill="none" id="Affiliation_Statement-backto-Organisation_Unit" style="stroke:#A80036;stroke-width:1.0;"/><polygon fill="#FFFFFF" points="426.37,529.3,419.163,529.0561,416.166,535.6149,423.373,535.8588,426.37,529.3" style="stroke:#A80036;stroke-width:1.0;"/><text fill="#000000" font-family="sans-serif" font-size="13" lengthAdjust="spacing" textLength="75" x="234.9605" y="594.2572">0..1 orgUnit</text><!--MD5=[fe03d2c8e9644e7513bef3a6fb6291e6]
reverse link Affiliation_Statement to Organisation_Unit--><path codeLine="64" d="M437.1,537.19 C407.25,558.58 366.08,585.84 333.83,605.45 " fill="none" id="Affiliation_Statement-backto-Organisation_Unit-1" style="stroke:#A80036;stroke-width:1.0;"/><polygon fill="#FFFFFF" points="447.95,529.3,440.7448,529.5923,438.2435,536.3557,445.4486,536.0634,447.95,529.3" style="stroke:#A80036;stroke-width:1.0;"/><text fill="#000000" font-family="sans-serif" font-size="13" lengthAdjust="spacing" textLength="91" x="356.9448" y="594.2572">0..1 institution</text><!--MD5=[d9b08b031298a036c8fb3d44263a5204]
reverse link Affiliation_Statement to Person--><path codeLine="65" d="M469.71,542.34 C466.67,562.74 463.03,587.19 460.34,605.24 " fill="none" id="Affiliation_Statement-backto-Person" style="stroke:#A80036;stroke-width:1.0;"/><polygon fill="#FFFFFF" points="471.66,529.3,466.82,534.6455,469.8928,541.1692,474.7328,535.8236,471.66,529.3" style="stroke:#A80036;stroke-width:1.0;"/><text fill="#000000" font-family="sans-serif" font-size="13" lengthAdjust="spacing" textLength="44" x="466.3155" y="594.4222">person</text><!--MD5=[b5c017ecc32f857930efae613c226920]
reverse link Contribution_Statement to Free_Text_Contribution--><path codeLine="67" d="M676.49,269.8 C674.65,291.35 672.35,318.4 670.68,337.89 " fill="none" id="Contribution_Statement-backto-Free_Text_Contribution" style="stroke:#A80036;stroke-width:1.0;"/><polygon fill="none" points="669.54,268.88,678.22,249.55,683.49,270.07,669.54,268.88" style="stroke:#A80036;stroke-width:1.0;"/><!--MD5=[1f014480a3afa8c0325c3be3fbf7ad6f]
link Contributorship to Document--><path codeLine="70" d="M505.46,331.16 C523.83,313.29 548.95,293.04 576,283.5 C686.03,244.68 820.84,295.14 896.87,332.06 " fill="none" id="Contributorship-to-Document" style="stroke:#A80036;stroke-width:1.0;"/><polygon fill="#A80036" points="908.56,337.86,904.9608,331.6114,897.8085,332.5304,901.4077,338.779,908.56,337.86" style="stroke:#A80036;stroke-width:1.0;"/><text fill="#000000" font-family="sans-serif" font-size="13" lengthAdjust="spacing" textLength="23" x="485.9789" y="320.4917">0..*</text><!--MD5=[504de05de5dc33320621ff1be2e6e6ff]
reverse link Agent to Contributorship--><path codeLine="73" d="M388.14,364.5 C395.41,364.5 402.69,364.5 409.97,364.5 " fill="none" id="Agent-backto-Contributorship" style="stroke:#A80036;stroke-width:1.0;"/><polygon fill="#A80036" points="375.04,364.5,381.04,368.5,387.04,364.5,381.04,360.5,375.04,364.5" style="stroke:#A80036;stroke-width:1.0;"/><text fill="#000000" font-family="sans-serif" font-size="13" lengthAdjust="spacing" textLength="98" x="302.5319" y="346.1568">0..1 contributor</text><text fill="#000000" font-family="sans-serif" font-size="13" lengthAdjust="spacing" textLength="23" x="379.0263" y="377.3673">0..*</text><!--MD5=[d50a95e3ddb5a3ed983c7b2ff4649bd6]
reverse link Contributorship to Affiliation_Statement--><path codeLine="75" d="M475.5,410.99 C475.5,432.59 475.5,457.61 475.5,475.86 " fill="none" id="Contributorship-backto-Affiliation_Statement" style="stroke:#A80036;stroke-width:1.0;"/><polygon fill="#A80036" points="475.5,397.73,471.5,403.73,475.5,409.73,479.5,403.73,475.5,397.73" style="stroke:#A80036;stroke-width:1.0;"/><text fill="#000000" font-family="sans-serif" font-size="13" lengthAdjust="spacing" textLength="91" x="373.9781" y="465.07">0..* affiliations</text><!--MD5=[302d116419dc4c6a2265e61d4260f04e]
link Contribution_Statement to Contributorship--><path codeLine="77" d="M655.7,249.55 C626.94,267.74 577.45,299.03 537.6,324.23 " fill="none" id="Contribution_Statement-to-Contributorship" style="stroke:#A80036;stroke-width:1.0;"/><polygon fill="#A80036" points="526.38,331.32,533.589,331.4959,536.524,324.9091,529.315,324.7332,526.38,331.32" style="stroke:#A80036;stroke-width:1.0;"/><text fill="#000000" font-family="sans-serif" font-size="13" lengthAdjust="spacing" textLength="179" x="439.1694" y="269.4398">0..* contributionStatements</text><!--MD5=[db20fd804d8595e73b6b8c99fdd1338c]
link Authorship to Textual_Document--><path codeLine="79" d="M498.74,126.5 C506,126.5 513.26,126.5 520.51,126.5 " fill="none" id="Authorship-to-Textual_Document" style="stroke:#A80036;stroke-width:1.0;"/><polygon fill="#A80036" points="533.58,126.5,527.58,122.5,521.58,126.5,527.58,130.5,533.58,126.5" style="stroke:#A80036;stroke-width:1.0;"/><!--MD5=[e74e4958a1d7eb99db8e977d8859ba66]
link Authorship to Contributorship--><path codeLine="80" d="M410.25,153.33 C420.97,169.99 434.14,192.5 442.5,214 C454.7,245.4 462.91,282.35 468.09,311.66 " fill="none" id="Authorship-to-Contributorship" style="stroke:#A80036;stroke-width:1.0;"/><polygon fill="none" points="475.01,310.59,471.34,331.46,461.19,312.86,475.01,310.59" style="stroke:#A80036;stroke-width:1.0;"/><!--MD5=[49125a4ba45432b051dcbcd9e53401d7]
link Authorship to Agent--><path codeLine="81" d="M328.85,153.12 C303.08,167.03 276.03,187 261.5,214 C253.29,229.26 256.21,236.49 261.5,253 C272.16,286.23 296.9,317.97 315.87,338.84 " fill="none" id="Authorship-to-Agent" style="stroke:#A80036;stroke-width:1.0;"/><polygon fill="#FFFFFF" points="324.9,348.44,323.7063,341.3284,316.6826,339.695,317.8763,346.8066,324.9,348.44" style="stroke:#A80036;stroke-width:1.0;"/><path d="M266.5,219 L266.5,244 L429.5,244 L429.5,229 L419.5,219 L266.5,219 " fill="#FFFF00" filter="url(#f1aeirfe485s5j)" style="stroke:#A80036;stroke-width:1.0;"/><path d="M419.5,219 L419.5,229 L429.5,229 L419.5,219 " fill="#FFFF00" style="stroke:#A80036;stroke-width:1.0;"/><text fill="#000000" font-family="sans-serif" font-size="13" lengthAdjust="spacing" textLength="142" x="272.5" y="236.0669">author == contributor</text><text fill="#000000" font-family="sans-serif" font-size="13" lengthAdjust="spacing" textLength="23" x="289.4109" y="172.6865">0..*</text><text fill="#000000" font-family="sans-serif" font-size="13" lengthAdjust="spacing" textLength="70" x="331.5687" y="337.431">0..1 author</text><!--MD5=[5d8901ce694eb85aefa78b7d82d9f6f6]
link Person to Person_Name--><path codeLine="83" d="M452.84,658.52 C449.9,679.03 445.69,708.39 442.16,733.04 " fill="none" id="Person-to-Person_Name" style="stroke:#A80036;stroke-width:1.0;stroke-dasharray:7.0,7.0;"/><polygon fill="#A80036" points="441.42,738.23,446.6627,729.8925,442.1331,733.2811,438.7445,728.7515,441.42,738.23" style="stroke:#A80036;stroke-width:1.0;"/><text fill="#000000" font-family="sans-serif" font-size="13" lengthAdjust="spacing" textLength="44" x="394.8573" y="727.3474">names</text><!--MD5=[de96f77e660762cb21a195b4097c3876]
reverse link Agent to Person--><path codeLine="84" d="M344.02,401 C348.43,435.13 357.93,487.51 377.5,529 C391.07,557.77 413.89,586 431.53,605.45 " fill="none" id="Agent-backto-Person" style="stroke:#A80036;stroke-width:1.0;"/><polygon fill="none" points="337.01,401.3,341.72,380.64,350.92,399.73,337.01,401.3" style="stroke:#A80036;stroke-width:1.0;"/><!--MD5=[521d3f26cc3887ed8885a4c0e03f9952]
reverse link Agent to Organisation_Unit--><path codeLine="85" d="M328.53,399.91 C324,413.8 319.08,430.04 315.5,445 C301.97,501.51 292.3,569.08 287.64,605.2 " fill="none" id="Agent-backto-Organisation_Unit" style="stroke:#A80036;stroke-width:1.0;"/><polygon fill="none" points="322.03,397.27,335.07,380.56,335.29,401.75,322.03,397.27" style="stroke:#A80036;stroke-width:1.0;"/><!--MD5=[8d9b790276a1e6c61f0b091de629785c]
link Textual_Document to Document--><path codeLine="87" d="M646.37,142.5 C683.99,157.85 741.86,183.7 787.5,214 C835.96,246.17 885.06,291.32 917.75,323.57 " fill="none" id="Textual_Document-to-Document" style="stroke:#A80036;stroke-width:1.0;"/><polygon fill="none" points="922.8,318.72,931.98,337.81,912.9,328.61,922.8,318.72" style="stroke:#A80036;stroke-width:1.0;"/><!--MD5=[c0a805770ea07def151bfb445be554f3]
link Textual_Document_Accessibility_Specification to Textual_Document--><path codeLine="89" d="M607.5,39.42 C607.5,54.71 607.5,78.49 607.5,97.19 " fill="none" id="Textual_Document_Accessibility_Specification-to-Textual_Document" style="stroke:#A80036;stroke-width:1.0;"/><polygon fill="#A80036" points="607.5,110.27,611.5,104.27,607.5,98.27,603.5,104.27,607.5,110.27" style="stroke:#A80036;stroke-width:1.0;"/><text fill="#000000" font-family="sans-serif" font-size="13" lengthAdjust="spacing" textLength="110" x="479.9688" y="59.1326">0..* accessRights</text><!--MD5=[2c23d09c80fbfac9dc5109bf504b493e]
link Textual_Document to Agent--><path codeLine="90" d="M589.42,142.7 C552.13,174.14 464.17,248.86 392.5,314 C380.14,325.23 366.47,338.27 356.25,348.14 " fill="none" id="Textual_Document-Agent" style="stroke:#A80036;stroke-width:1.0;"/><text fill="#000000" font-family="sans-serif" font-size="13" lengthAdjust="spacing" textLength="159" x="609.7654" y="162.6395">0..* authoredDocuments</text><text fill="#000000" font-family="sans-serif" font-size="13" lengthAdjust="spacing" textLength="76" x="279.0746" y="336.1906">0..* authors</text><!--MD5=[0c5de2d3706abbe74d5c3b32a5afafc8]
@startuml
    !startsub common
    	!define datatype(x) class x << (D,#FF7700) DataType>>
    	hide empty members
    !endsub

    !startsub Document
    class "Document"{
        title : Multilingual_String
        publicationDate : Date
        DOI : DOI_Type
    }
    class "Textual_Document"{
    }
    !endsub
    !startsub TDAS
    class "Textual_Document_Accessibility_Specification"{
    }
    !endsub
    class "Agent"{

    }
    class "Organisation_Unit"{
        name : Multilingual_String
    }
    class "Person"{
        orcidid : ORCID_iD
    }
    datatype("Person_Name"){
        firstNames : String
        familyNames : String
        otherNames : String
    }
    class "Authorship"{
        correspondingAuthorFlag : Boolean
    }
    !startsub Contributorship
    class "Contributorship"{
        contacts : List<URI>
        displayName : String
    }
    class "Contribution_Statement"{
    }
    class "Free_Text_Contribution"{
        statement : Multilingual_String
    }
    !endsub
    class "Affiliation_Statement"{
        displayAffiliation : String
    }
   datatype("Postal_Address"){
        street : String
        city : String
        zipCode : String
    }
    class "Country"{
        name : Multilingual_String
        iso3166alphaCode : ISO3166_Alpha_Code
        iso3166NumericCode : ISO3166_Numeric_Code
        euCountryCode : EU_Country_Code
    }
    "Postal_Address" o- - "country" "Country"
    "Affiliation_Statement" ..> "postalAddress" "Postal_Address"
    "Affiliation_Statement" o- - "0..1 orgUnit" "Organisation_Unit"
    "Affiliation_Statement" o- - "0..1 institution" "Organisation_Unit"
    "Affiliation_Statement" o- - "person" "Person"
    !startsub Contributorship
    "Contribution_Statement" <|- - "Free_Text_Contribution"
    !endsub
    !startsub Contributorship
    "Contributorship" "0..*" -r-* "Document"
    !endsub
    !startsub Contributorship
    "Contributorship" "0..*" -l-* "0..1 contributor" "Agent"
    !endsub
    "Contributorship" *- - "0..* affiliations" "Affiliation_Statement"
    !startsub Contributorship
    "Contributorship" *-u- "0..* contributionStatements" "Contribution_Statement"
    !endsub
    "Authorship" -r-* "Textual_Document"
    "Contributorship" <|-u- "Authorship"
    "Authorship" "0..*" - -o "0..1 author" "Agent"
    note on link #yellow: author == contributor
    "Person" .d.> "names" "Person_Name"
    "Agent" <|-d- "Person"
    "Agent" <|-d- "Organisation_Unit"
    !startsub Document
    "Document" <|-u- "Textual_Document"
    !endsub
    "Textual_Document" *-u- "0..* accessRights" "Textual_Document_Accessibility_Specification"
    "Textual_Document" "0..* authoredDocuments" - - - "0..* authors" "Agent"
    note left of Agent: The Agent is mandatory for almost all \nsubclasses of Contributorship,\nReviewing is the exception if the \nreviewer's identity is concealed. \nAlso useful when authors are \nusing pseudonyms.
@enduml

@startuml
    	hide empty members

    class "Document"{
    class "Textual_Document_Accessibility_Specification"{
    }
    class "Agent"{

    }
    class "Organisation_Unit"{
        name : Multilingual_String
    }
    class "Person"{
        orcidid : ORCID_iD
    }
    class Person_Name << (D,#FF7700) DataType>>{
        firstNames : String
        familyNames : String
        otherNames : String
    }
    class "Authorship"{
        correspondingAuthorFlag : Boolean
    }
    class "Contributorship"{
        contacts : List<URI>
        displayName : String
    }
    class "Contribution_Statement"{
    }
    class "Free_Text_Contribution"{
        statement : Multilingual_String
    }
    class "Affiliation_Statement"{
        displayAffiliation : String
    }
   class Postal_Address << (D,#FF7700) DataType>>{
        street : String
        city : String
        zipCode : String
    }
    class "Country"{
        name : Multilingual_String
        iso3166alphaCode : ISO3166_Alpha_Code
        iso3166NumericCode : ISO3166_Numeric_Code
        euCountryCode : EU_Country_Code
    }
    "Postal_Address" o- - "country" "Country"
    "Affiliation_Statement" ..> "postalAddress" "Postal_Address"
    "Affiliation_Statement" o- - "0..1 orgUnit" "Organisation_Unit"
    "Affiliation_Statement" o- - "0..1 institution" "Organisation_Unit"
    "Affiliation_Statement" o- - "person" "Person"
    "Contribution_Statement" <|- - "Free_Text_Contribution"
    "Contributorship" "0..*" -r-* "Document"
    "Contributorship" "0..*" -l-* "0..1 contributor" "Agent"
    "Contributorship" *- - "0..* affiliations" "Affiliation_Statement"
    "Contributorship" *-u- "0..* contributionStatements" "Contribution_Statement"
    "Authorship" -r-* "Textual_Document"
    "Contributorship" <|-u- "Authorship"
    "Authorship" "0..*" - -o "0..1 author" "Agent"
    note on link #yellow: author == contributor
    "Person" .d.> "names" "Person_Name"
    "Agent" <|-d- "Person"
    "Agent" <|-d- "Organisation_Unit"
    "Document" <|-u- "Textual_Document"
    "Textual_Document" *-u- "0..* accessRights" "Textual_Document_Accessibility_Specification"
    "Textual_Document" "0..* authoredDocuments" - - - "0..* authors" "Agent"
    note left of Agent: The Agent is mandatory for almost all \nsubclasses of Contributorship,\nReviewing is the exception if the \nreviewer's identity is concealed. \nAlso useful when authors are \nusing pseudonyms.
@enduml

PlantUML version 1.2021.8(Sat Jun 26 08:20:59 UTC 2021)
(GPL source distribution)
Java Runtime: OpenJDK Runtime Environment
JVM: OpenJDK 64-Bit Server VM
Default Encoding: UTF-8
Language: en
Country: null
--></g></svg>