<?xml version="1.0" encoding="UTF-8" standalone="no"?><svg xmlns="http://www.w3.org/2000/svg" xmlns:xlink="http://www.w3.org/1999/xlink" contentScriptType="application/ecmascript" contentStyleType="text/css" height="860px" preserveAspectRatio="none" style="width:1019px;height:860px;background:#FFFFFF;" version="1.1" viewBox="0 0 1019 860" width="1019px" zoomAndPan="magnify"><defs><filter height="300%" id="f1aeirfe485s5j" width="300%" x="-1" y="-1"><feGaussianBlur result="blurOut" stdDeviation="2.0"/><feColorMatrix in="blurOut" result="blurOut2" type="matrix" values="0 0 0 0 0 0 0 0 0 0 0 0 0 0 0 0 0 0 .4 0"/><feOffset dx="4.0" dy="4.0" in="blurOut2" result="blurOut3"/><feBlend in="SourceGraphic" in2="blurOut3" mode="normal"/></filter></defs><g><!--MD5=[59b530d44ae785dc18db921986a9c15c]
class Document--><rect codeLine="7" fill="#FEFECE" filter="url(#f1aeirfe485s5j)" height="53.8359" id="Document" style="stroke:#A80036;stroke-width:1.5;" width="277" x="728" y="343"/><ellipse cx="833.75" cy="359" fill="#ADD1B2" rx="11" ry="11" style="stroke:#A80036;stroke-width:1.0;"/><path d="M836.5156,354.875 Q836.6719,354.6563 836.8594,354.5469 Q837.0469,354.4375 837.2656,354.4375 Q837.6406,354.4375 837.875,354.6953 Q838.1094,354.9531 838.1094,355.5625 L838.1094,357.0156 Q838.1094,357.625 837.875,357.8906 Q837.6406,358.1563 837.2656,358.1563 Q836.9219,358.1563 836.7188,357.9531 Q836.5156,357.7656 836.4063,357.25 Q836.3594,356.8906 836.1719,356.7031 Q835.8438,356.3281 835.2344,356.1094 Q834.625,355.8906 834,355.8906 Q833.2344,355.8906 832.6016,356.2188 Q831.9688,356.5469 831.4766,357.2969 Q830.9844,358.0469 830.9844,359.0781 L830.9844,360.1719 Q830.9844,361.4063 831.875,362.2266 Q832.7656,363.0469 834.3594,363.0469 Q835.2969,363.0469 835.9531,362.7969 Q836.3438,362.6406 836.7656,362.2031 Q837.0313,361.9375 837.1797,361.8594 Q837.3281,361.7813 837.5313,361.7813 Q837.8594,361.7813 838.1172,362.0391 Q838.375,362.2969 838.375,362.6406 Q838.375,362.9844 838.0313,363.3906 Q837.5313,363.9688 836.7344,364.2969 Q835.6563,364.75 834.3594,364.75 Q832.8438,364.75 831.6406,364.125 Q830.6563,363.625 829.9688,362.5547 Q829.2813,361.4844 829.2813,360.2031 L829.2813,359.0469 Q829.2813,357.7188 829.8984,356.5703 Q830.5156,355.4219 831.6094,354.8047 Q832.7031,354.1875 833.9375,354.1875 Q834.6719,354.1875 835.3203,354.3516 Q835.9688,354.5156 836.5156,354.875 Z " fill="#000000"/><text fill="#000000" font-family="sans-serif" font-size="12" lengthAdjust="spacing" textLength="57" x="854.25" y="363.9102">Document</text><line style="stroke:#A80036;stroke-width:1.5;" x1="729" x2="1004" y1="375" y2="375"/><text fill="#000000" font-family="sans-serif" font-size="11" lengthAdjust="spacing" textLength="265" x="734" y="390.4189">class "Textual_Document_Accessibility_Specification"{</text><!--MD5=[9d44916250b776386006c440668bcfbb]
class Agent--><rect codeLine="19" fill="#FEFECE" filter="url(#f1aeirfe485s5j)" height="32" id="Agent" style="stroke:#A80036;stroke-width:1.5;" width="63" x="282" y="354"/><ellipse cx="297" cy="370" fill="#ADD1B2" rx="11" ry="11" style="stroke:#A80036;stroke-width:1.0;"/><path d="M299.7656,365.875 Q299.9219,365.6563 300.1094,365.5469 Q300.2969,365.4375 300.5156,365.4375 Q300.8906,365.4375 301.125,365.6953 Q301.3594,365.9531 301.3594,366.5625 L301.3594,368.0156 Q301.3594,368.625 301.125,368.8906 Q300.8906,369.1563 300.5156,369.1563 Q300.1719,369.1563 299.9688,368.9531 Q299.7656,368.7656 299.6563,368.25 Q299.6094,367.8906 299.4219,367.7031 Q299.0938,367.3281 298.4844,367.1094 Q297.875,366.8906 297.25,366.8906 Q296.4844,366.8906 295.8516,367.2188 Q295.2188,367.5469 294.7266,368.2969 Q294.2344,369.0469 294.2344,370.0781 L294.2344,371.1719 Q294.2344,372.4063 295.125,373.2266 Q296.0156,374.0469 297.6094,374.0469 Q298.5469,374.0469 299.2031,373.7969 Q299.5938,373.6406 300.0156,373.2031 Q300.2813,372.9375 300.4297,372.8594 Q300.5781,372.7813 300.7813,372.7813 Q301.1094,372.7813 301.3672,373.0391 Q301.625,373.2969 301.625,373.6406 Q301.625,373.9844 301.2813,374.3906 Q300.7813,374.9688 299.9844,375.2969 Q298.9063,375.75 297.6094,375.75 Q296.0938,375.75 294.8906,375.125 Q293.9063,374.625 293.2188,373.5547 Q292.5313,372.4844 292.5313,371.2031 L292.5313,370.0469 Q292.5313,368.7188 293.1484,367.5703 Q293.7656,366.4219 294.8594,365.8047 Q295.9531,365.1875 297.1875,365.1875 Q297.9219,365.1875 298.5703,365.3516 Q299.2188,365.5156 299.7656,365.875 Z " fill="#000000"/><text fill="#000000" font-family="sans-serif" font-size="12" lengthAdjust="spacing" textLength="31" x="311" y="374.9102">Agent</text><!--MD5=[779f3743e425ed8a6f0bf188ddea4860]
class Organisation_Unit--><rect codeLine="22" fill="#FEFECE" filter="url(#f1aeirfe485s5j)" height="53.8359" id="Organisation_Unit" style="stroke:#A80036;stroke-width:1.5;" width="132" x="194.5" y="618"/><ellipse cx="209.5" cy="634" fill="#ADD1B2" rx="11" ry="11" style="stroke:#A80036;stroke-width:1.0;"/><path d="M212.2656,629.875 Q212.4219,629.6563 212.6094,629.5469 Q212.7969,629.4375 213.0156,629.4375 Q213.3906,629.4375 213.625,629.6953 Q213.8594,629.9531 213.8594,630.5625 L213.8594,632.0156 Q213.8594,632.625 213.625,632.8906 Q213.3906,633.1563 213.0156,633.1563 Q212.6719,633.1563 212.4688,632.9531 Q212.2656,632.7656 212.1563,632.25 Q212.1094,631.8906 211.9219,631.7031 Q211.5938,631.3281 210.9844,631.1094 Q210.375,630.8906 209.75,630.8906 Q208.9844,630.8906 208.3516,631.2188 Q207.7188,631.5469 207.2266,632.2969 Q206.7344,633.0469 206.7344,634.0781 L206.7344,635.1719 Q206.7344,636.4063 207.625,637.2266 Q208.5156,638.0469 210.1094,638.0469 Q211.0469,638.0469 211.7031,637.7969 Q212.0938,637.6406 212.5156,637.2031 Q212.7813,636.9375 212.9297,636.8594 Q213.0781,636.7813 213.2813,636.7813 Q213.6094,636.7813 213.8672,637.0391 Q214.125,637.2969 214.125,637.6406 Q214.125,637.9844 213.7813,638.3906 Q213.2813,638.9688 212.4844,639.2969 Q211.4063,639.75 210.1094,639.75 Q208.5938,639.75 207.3906,639.125 Q206.4063,638.625 205.7188,637.5547 Q205.0313,636.4844 205.0313,635.2031 L205.0313,634.0469 Q205.0313,632.7188 205.6484,631.5703 Q206.2656,630.4219 207.3594,629.8047 Q208.4531,629.1875 209.6875,629.1875 Q210.4219,629.1875 211.0703,629.3516 Q211.7188,629.5156 212.2656,629.875 Z " fill="#000000"/><text fill="#000000" font-family="sans-serif" font-size="12" lengthAdjust="spacing" textLength="100" x="223.5" y="638.9102">Organisation_Unit</text><line style="stroke:#A80036;stroke-width:1.5;" x1="195.5" x2="325.5" y1="650" y2="650"/><text fill="#000000" font-family="sans-serif" font-size="11" lengthAdjust="spacing" textLength="120" x="200.5" y="665.4189">name : Multilingual_String</text><!--MD5=[09ce52be0ee7de43c61b6e2d59bf108b]
class Person--><rect codeLine="25" fill="#FEFECE" filter="url(#f1aeirfe485s5j)" height="53.8359" id="Person" style="stroke:#A80036;stroke-width:1.5;" width="99" x="362" y="618"/><ellipse cx="389.15" cy="634" fill="#ADD1B2" rx="11" ry="11" style="stroke:#A80036;stroke-width:1.0;"/><path d="M391.9156,629.875 Q392.0719,629.6563 392.2594,629.5469 Q392.4469,629.4375 392.6656,629.4375 Q393.0406,629.4375 393.275,629.6953 Q393.5094,629.9531 393.5094,630.5625 L393.5094,632.0156 Q393.5094,632.625 393.275,632.8906 Q393.0406,633.1563 392.6656,633.1563 Q392.3219,633.1563 392.1188,632.9531 Q391.9156,632.7656 391.8063,632.25 Q391.7594,631.8906 391.5719,631.7031 Q391.2438,631.3281 390.6344,631.1094 Q390.025,630.8906 389.4,630.8906 Q388.6344,630.8906 388.0016,631.2188 Q387.3688,631.5469 386.8766,632.2969 Q386.3844,633.0469 386.3844,634.0781 L386.3844,635.1719 Q386.3844,636.4063 387.275,637.2266 Q388.1656,638.0469 389.7594,638.0469 Q390.6969,638.0469 391.3531,637.7969 Q391.7438,637.6406 392.1656,637.2031 Q392.4313,636.9375 392.5797,636.8594 Q392.7281,636.7813 392.9313,636.7813 Q393.2594,636.7813 393.5172,637.0391 Q393.775,637.2969 393.775,637.6406 Q393.775,637.9844 393.4313,638.3906 Q392.9313,638.9688 392.1344,639.2969 Q391.0563,639.75 389.7594,639.75 Q388.2438,639.75 387.0406,639.125 Q386.0563,638.625 385.3688,637.5547 Q384.6813,636.4844 384.6813,635.2031 L384.6813,634.0469 Q384.6813,632.7188 385.2984,631.5703 Q385.9156,630.4219 387.0094,629.8047 Q388.1031,629.1875 389.3375,629.1875 Q390.0719,629.1875 390.7203,629.3516 Q391.3688,629.5156 391.9156,629.875 Z " fill="#000000"/><text fill="#000000" font-family="sans-serif" font-size="12" lengthAdjust="spacing" textLength="40" x="405.85" y="638.9102">Person</text><line style="stroke:#A80036;stroke-width:1.5;" x1="363" x2="460" y1="650" y2="650"/><text fill="#000000" font-family="sans-serif" font-size="11" lengthAdjust="spacing" textLength="87" x="368" y="665.4189">orcidid : ORCID_iD</text><!--MD5=[7b209ef07eb91b93e0aebc9fe4fb9a26]
class Person_Name--><rect codeLine="28" fill="#FEFECE" filter="url(#f1aeirfe485s5j)" height="89.6953" id="Person_Name" style="stroke:#A80036;stroke-width:1.5;" width="113" x="338" y="753.5"/><ellipse cx="353" cy="773.5938" fill="#FF7700" rx="11" ry="11" style="stroke:#A80036;stroke-width:1.0;"/><path d="M350.5469,776.8906 L350.5469,770.2344 Q350,770.2188 349.7422,769.9844 Q349.4844,769.75 349.4844,769.375 Q349.4844,769 349.75,768.7656 Q350.0156,768.5313 350.625,768.5313 L354.1875,768.5313 Q355.0156,768.5313 355.8125,768.8359 Q356.6094,769.1406 357.0938,769.625 Q357.4531,769.9844 357.8438,770.6016 Q358.2344,771.2188 358.4375,771.8359 Q358.6406,772.4531 358.6406,773.3438 L358.6406,774.1563 Q358.6406,775.2344 358.2734,776.0703 Q357.9063,776.9063 357.3125,777.4297 Q356.7188,777.9531 356.2031,778.2031 Q355.375,778.5938 354.0469,778.5938 L350.625,778.5938 Q350.0156,778.5938 349.75,778.3594 Q349.4844,778.125 349.4844,777.7344 Q349.4844,777.3594 349.75,777.125 Q350.0156,776.8906 350.5469,776.8906 Z M352.25,776.8906 L354.0625,776.8906 Q355.0625,776.8906 355.5781,776.5938 Q356.25,776.2188 356.5938,775.6328 Q356.9375,775.0469 356.9375,774.1094 L356.9375,773.2969 Q356.9375,772.5 356.625,771.8906 Q356.1406,770.9375 355.5391,770.5859 Q354.9375,770.2344 354.0469,770.2344 L352.25,770.2344 L352.25,776.8906 Z " fill="#000000"/><text fill="#000000" font-family="sans-serif" font-size="12" font-style="italic" lengthAdjust="spacing" textLength="67" x="374" y="770.957">«DataType»</text><text fill="#000000" font-family="sans-serif" font-size="12" lengthAdjust="spacing" textLength="81" x="367" y="786.0508">Person_Name</text><line style="stroke:#A80036;stroke-width:1.5;" x1="339" x2="450" y1="793.6875" y2="793.6875"/><text fill="#000000" font-family="sans-serif" font-size="11" lengthAdjust="spacing" textLength="89" x="344" y="809.1064">firstNames : String</text><text fill="#000000" font-family="sans-serif" font-size="11" lengthAdjust="spacing" textLength="98" x="344" y="822.9424">familyNames : String</text><text fill="#000000" font-family="sans-serif" font-size="11" lengthAdjust="spacing" textLength="95" x="344" y="836.7783">otherNames : String</text><!--MD5=[3b25461e5df73ababc6765bb9b0c47d3]
class Authorship--><rect codeLine="33" fill="#FEFECE" filter="url(#f1aeirfe485s5j)" height="53.8359" id="Authorship" style="stroke:#A80036;stroke-width:1.5;" width="183" x="271" y="100"/><ellipse cx="328.75" cy="116" fill="#ADD1B2" rx="11" ry="11" style="stroke:#A80036;stroke-width:1.0;"/><path d="M331.5156,111.875 Q331.6719,111.6563 331.8594,111.5469 Q332.0469,111.4375 332.2656,111.4375 Q332.6406,111.4375 332.875,111.6953 Q333.1094,111.9531 333.1094,112.5625 L333.1094,114.0156 Q333.1094,114.625 332.875,114.8906 Q332.6406,115.1563 332.2656,115.1563 Q331.9219,115.1563 331.7188,114.9531 Q331.5156,114.7656 331.4063,114.25 Q331.3594,113.8906 331.1719,113.7031 Q330.8438,113.3281 330.2344,113.1094 Q329.625,112.8906 329,112.8906 Q328.2344,112.8906 327.6016,113.2188 Q326.9688,113.5469 326.4766,114.2969 Q325.9844,115.0469 325.9844,116.0781 L325.9844,117.1719 Q325.9844,118.4063 326.875,119.2266 Q327.7656,120.0469 329.3594,120.0469 Q330.2969,120.0469 330.9531,119.7969 Q331.3438,119.6406 331.7656,119.2031 Q332.0313,118.9375 332.1797,118.8594 Q332.3281,118.7813 332.5313,118.7813 Q332.8594,118.7813 333.1172,119.0391 Q333.375,119.2969 333.375,119.6406 Q333.375,119.9844 333.0313,120.3906 Q332.5313,120.9688 331.7344,121.2969 Q330.6563,121.75 329.3594,121.75 Q327.8438,121.75 326.6406,121.125 Q325.6563,120.625 324.9688,119.5547 Q324.2813,118.4844 324.2813,117.2031 L324.2813,116.0469 Q324.2813,114.7188 324.8984,113.5703 Q325.5156,112.4219 326.6094,111.8047 Q327.7031,111.1875 328.9375,111.1875 Q329.6719,111.1875 330.3203,111.3516 Q330.9688,111.5156 331.5156,111.875 Z " fill="#000000"/><text fill="#000000" font-family="sans-serif" font-size="12" lengthAdjust="spacing" textLength="59" x="349.25" y="120.9102">Authorship</text><line style="stroke:#A80036;stroke-width:1.5;" x1="272" x2="453" y1="132" y2="132"/><text fill="#000000" font-family="sans-serif" font-size="11" lengthAdjust="spacing" textLength="171" x="277" y="147.4189">correspondingAuthorFlag : Boolean</text><!--MD5=[b821bb113f9f55c728f1fbb8949cc3af]
class Contributorship--><rect codeLine="37" fill="#FEFECE" filter="url(#f1aeirfe485s5j)" height="67.6719" id="Contributorship" style="stroke:#A80036;stroke-width:1.5;" width="117" x="380" y="336"/><ellipse cx="395" cy="352" fill="#ADD1B2" rx="11" ry="11" style="stroke:#A80036;stroke-width:1.0;"/><path d="M397.7656,347.875 Q397.9219,347.6563 398.1094,347.5469 Q398.2969,347.4375 398.5156,347.4375 Q398.8906,347.4375 399.125,347.6953 Q399.3594,347.9531 399.3594,348.5625 L399.3594,350.0156 Q399.3594,350.625 399.125,350.8906 Q398.8906,351.1563 398.5156,351.1563 Q398.1719,351.1563 397.9688,350.9531 Q397.7656,350.7656 397.6563,350.25 Q397.6094,349.8906 397.4219,349.7031 Q397.0938,349.3281 396.4844,349.1094 Q395.875,348.8906 395.25,348.8906 Q394.4844,348.8906 393.8516,349.2188 Q393.2188,349.5469 392.7266,350.2969 Q392.2344,351.0469 392.2344,352.0781 L392.2344,353.1719 Q392.2344,354.4063 393.125,355.2266 Q394.0156,356.0469 395.6094,356.0469 Q396.5469,356.0469 397.2031,355.7969 Q397.5938,355.6406 398.0156,355.2031 Q398.2813,354.9375 398.4297,354.8594 Q398.5781,354.7813 398.7813,354.7813 Q399.1094,354.7813 399.3672,355.0391 Q399.625,355.2969 399.625,355.6406 Q399.625,355.9844 399.2813,356.3906 Q398.7813,356.9688 397.9844,357.2969 Q396.9063,357.75 395.6094,357.75 Q394.0938,357.75 392.8906,357.125 Q391.9063,356.625 391.2188,355.5547 Q390.5313,354.4844 390.5313,353.2031 L390.5313,352.0469 Q390.5313,350.7188 391.1484,349.5703 Q391.7656,348.4219 392.8594,347.8047 Q393.9531,347.1875 395.1875,347.1875 Q395.9219,347.1875 396.5703,347.3516 Q397.2188,347.5156 397.7656,347.875 Z " fill="#000000"/><text fill="#000000" font-family="sans-serif" font-size="12" lengthAdjust="spacing" textLength="85" x="409" y="356.9102">Contributorship</text><line style="stroke:#A80036;stroke-width:1.5;" x1="381" x2="496" y1="368" y2="368"/><text fill="#000000" font-family="sans-serif" font-size="11" lengthAdjust="spacing" textLength="96" x="386" y="383.4189">contacts : List&lt;URI&gt;</text><text fill="#000000" font-family="sans-serif" font-size="11" lengthAdjust="spacing" textLength="98" x="386" y="397.2549">displayName : String</text><!--MD5=[532fe005ca0bef0ad6b309c9c6480e22]
class Contribution_Statement--><rect codeLine="41" fill="#FEFECE" filter="url(#f1aeirfe485s5j)" height="32" id="Contribution_Statement" style="stroke:#A80036;stroke-width:1.5;" width="162" x="547.5" y="219"/><ellipse cx="562.5" cy="235" fill="#ADD1B2" rx="11" ry="11" style="stroke:#A80036;stroke-width:1.0;"/><path d="M565.2656,230.875 Q565.4219,230.6563 565.6094,230.5469 Q565.7969,230.4375 566.0156,230.4375 Q566.3906,230.4375 566.625,230.6953 Q566.8594,230.9531 566.8594,231.5625 L566.8594,233.0156 Q566.8594,233.625 566.625,233.8906 Q566.3906,234.1563 566.0156,234.1563 Q565.6719,234.1563 565.4688,233.9531 Q565.2656,233.7656 565.1563,233.25 Q565.1094,232.8906 564.9219,232.7031 Q564.5938,232.3281 563.9844,232.1094 Q563.375,231.8906 562.75,231.8906 Q561.9844,231.8906 561.3516,232.2188 Q560.7188,232.5469 560.2266,233.2969 Q559.7344,234.0469 559.7344,235.0781 L559.7344,236.1719 Q559.7344,237.4063 560.625,238.2266 Q561.5156,239.0469 563.1094,239.0469 Q564.0469,239.0469 564.7031,238.7969 Q565.0938,238.6406 565.5156,238.2031 Q565.7813,237.9375 565.9297,237.8594 Q566.0781,237.7813 566.2813,237.7813 Q566.6094,237.7813 566.8672,238.0391 Q567.125,238.2969 567.125,238.6406 Q567.125,238.9844 566.7813,239.3906 Q566.2813,239.9688 565.4844,240.2969 Q564.4063,240.75 563.1094,240.75 Q561.5938,240.75 560.3906,240.125 Q559.4063,239.625 558.7188,238.5547 Q558.0313,237.4844 558.0313,236.2031 L558.0313,235.0469 Q558.0313,233.7188 558.6484,232.5703 Q559.2656,231.4219 560.3594,230.8047 Q561.4531,230.1875 562.6875,230.1875 Q563.4219,230.1875 564.0703,230.3516 Q564.7188,230.5156 565.2656,230.875 Z " fill="#000000"/><text fill="#000000" font-family="sans-serif" font-size="12" lengthAdjust="spacing" textLength="130" x="576.5" y="239.9102">Contribution_Statement</text><!--MD5=[e67d803be009978640e98815ecdddf28]
class Free_Text_Contribution--><rect codeLine="43" fill="#FEFECE" filter="url(#f1aeirfe485s5j)" height="53.8359" id="Free_Text_Contribution" style="stroke:#A80036;stroke-width:1.5;" width="160" x="532.5" y="343"/><ellipse cx="547.5" cy="359" fill="#ADD1B2" rx="11" ry="11" style="stroke:#A80036;stroke-width:1.0;"/><path d="M550.2656,354.875 Q550.4219,354.6563 550.6094,354.5469 Q550.7969,354.4375 551.0156,354.4375 Q551.3906,354.4375 551.625,354.6953 Q551.8594,354.9531 551.8594,355.5625 L551.8594,357.0156 Q551.8594,357.625 551.625,357.8906 Q551.3906,358.1563 551.0156,358.1563 Q550.6719,358.1563 550.4688,357.9531 Q550.2656,357.7656 550.1563,357.25 Q550.1094,356.8906 549.9219,356.7031 Q549.5938,356.3281 548.9844,356.1094 Q548.375,355.8906 547.75,355.8906 Q546.9844,355.8906 546.3516,356.2188 Q545.7188,356.5469 545.2266,357.2969 Q544.7344,358.0469 544.7344,359.0781 L544.7344,360.1719 Q544.7344,361.4063 545.625,362.2266 Q546.5156,363.0469 548.1094,363.0469 Q549.0469,363.0469 549.7031,362.7969 Q550.0938,362.6406 550.5156,362.2031 Q550.7813,361.9375 550.9297,361.8594 Q551.0781,361.7813 551.2813,361.7813 Q551.6094,361.7813 551.8672,362.0391 Q552.125,362.2969 552.125,362.6406 Q552.125,362.9844 551.7813,363.3906 Q551.2813,363.9688 550.4844,364.2969 Q549.4063,364.75 548.1094,364.75 Q546.5938,364.75 545.3906,364.125 Q544.4063,363.625 543.7188,362.5547 Q543.0313,361.4844 543.0313,360.2031 L543.0313,359.0469 Q543.0313,357.7188 543.6484,356.5703 Q544.2656,355.4219 545.3594,354.8047 Q546.4531,354.1875 547.6875,354.1875 Q548.4219,354.1875 549.0703,354.3516 Q549.7188,354.5156 550.2656,354.875 Z " fill="#000000"/><text fill="#000000" font-family="sans-serif" font-size="12" lengthAdjust="spacing" textLength="128" x="561.5" y="363.9102">Free_Text_Contribution</text><line style="stroke:#A80036;stroke-width:1.5;" x1="533.5" x2="691.5" y1="375" y2="375"/><text fill="#000000" font-family="sans-serif" font-size="11" lengthAdjust="spacing" textLength="141" x="538.5" y="390.4189">statement : Multilingual_String</text><!--MD5=[ddbff00b4911ad4b77d6aa32dd14d1d7]
class Affiliation_Statement--><rect codeLine="47" fill="#FEFECE" filter="url(#f1aeirfe485s5j)" height="53.8359" id="Affiliation_Statement" style="stroke:#A80036;stroke-width:1.5;" width="144" x="366.5" y="485"/><ellipse cx="381.5" cy="501" fill="#ADD1B2" rx="11" ry="11" style="stroke:#A80036;stroke-width:1.0;"/><path d="M384.2656,496.875 Q384.4219,496.6563 384.6094,496.5469 Q384.7969,496.4375 385.0156,496.4375 Q385.3906,496.4375 385.625,496.6953 Q385.8594,496.9531 385.8594,497.5625 L385.8594,499.0156 Q385.8594,499.625 385.625,499.8906 Q385.3906,500.1563 385.0156,500.1563 Q384.6719,500.1563 384.4688,499.9531 Q384.2656,499.7656 384.1563,499.25 Q384.1094,498.8906 383.9219,498.7031 Q383.5938,498.3281 382.9844,498.1094 Q382.375,497.8906 381.75,497.8906 Q380.9844,497.8906 380.3516,498.2188 Q379.7188,498.5469 379.2266,499.2969 Q378.7344,500.0469 378.7344,501.0781 L378.7344,502.1719 Q378.7344,503.4063 379.625,504.2266 Q380.5156,505.0469 382.1094,505.0469 Q383.0469,505.0469 383.7031,504.7969 Q384.0938,504.6406 384.5156,504.2031 Q384.7813,503.9375 384.9297,503.8594 Q385.0781,503.7813 385.2813,503.7813 Q385.6094,503.7813 385.8672,504.0391 Q386.125,504.2969 386.125,504.6406 Q386.125,504.9844 385.7813,505.3906 Q385.2813,505.9688 384.4844,506.2969 Q383.4063,506.75 382.1094,506.75 Q380.5938,506.75 379.3906,506.125 Q378.4063,505.625 377.7188,504.5547 Q377.0313,503.4844 377.0313,502.2031 L377.0313,501.0469 Q377.0313,499.7188 377.6484,498.5703 Q378.2656,497.4219 379.3594,496.8047 Q380.4531,496.1875 381.6875,496.1875 Q382.4219,496.1875 383.0703,496.3516 Q383.7188,496.5156 384.2656,496.875 Z " fill="#000000"/><text fill="#000000" font-family="sans-serif" font-size="12" lengthAdjust="spacing" textLength="112" x="395.5" y="505.9102">Affiliation_Statement</text><line style="stroke:#A80036;stroke-width:1.5;" x1="367.5" x2="509.5" y1="517" y2="517"/><text fill="#000000" font-family="sans-serif" font-size="11" lengthAdjust="spacing" textLength="116" x="372.5" y="532.4189">displayAffiliation : String</text><!--MD5=[fe1d14fe6d68ca7e76eb34268c62a1f3]
class Postal_Address--><rect codeLine="50" fill="#FEFECE" filter="url(#f1aeirfe485s5j)" height="89.6953" id="Postal_Address" style="stroke:#A80036;stroke-width:1.5;" width="120" x="513.5" y="600"/><ellipse cx="528.5" cy="620.0938" fill="#FF7700" rx="11" ry="11" style="stroke:#A80036;stroke-width:1.0;"/><path d="M526.0469,623.3906 L526.0469,616.7344 Q525.5,616.7188 525.2422,616.4844 Q524.9844,616.25 524.9844,615.875 Q524.9844,615.5 525.25,615.2656 Q525.5156,615.0313 526.125,615.0313 L529.6875,615.0313 Q530.5156,615.0313 531.3125,615.3359 Q532.1094,615.6406 532.5938,616.125 Q532.9531,616.4844 533.3438,617.1016 Q533.7344,617.7188 533.9375,618.3359 Q534.1406,618.9531 534.1406,619.8438 L534.1406,620.6563 Q534.1406,621.7344 533.7734,622.5703 Q533.4063,623.4063 532.8125,623.9297 Q532.2188,624.4531 531.7031,624.7031 Q530.875,625.0938 529.5469,625.0938 L526.125,625.0938 Q525.5156,625.0938 525.25,624.8594 Q524.9844,624.625 524.9844,624.2344 Q524.9844,623.8594 525.25,623.625 Q525.5156,623.3906 526.0469,623.3906 Z M527.75,623.3906 L529.5625,623.3906 Q530.5625,623.3906 531.0781,623.0938 Q531.75,622.7188 532.0938,622.1328 Q532.4375,621.5469 532.4375,620.6094 L532.4375,619.7969 Q532.4375,619 532.125,618.3906 Q531.6406,617.4375 531.0391,617.0859 Q530.4375,616.7344 529.5469,616.7344 L527.75,616.7344 L527.75,623.3906 Z " fill="#000000"/><text fill="#000000" font-family="sans-serif" font-size="12" font-style="italic" lengthAdjust="spacing" textLength="67" x="553" y="617.457">«DataType»</text><text fill="#000000" font-family="sans-serif" font-size="12" lengthAdjust="spacing" textLength="88" x="542.5" y="632.5508">Postal_Address</text><line style="stroke:#A80036;stroke-width:1.5;" x1="514.5" x2="632.5" y1="640.1875" y2="640.1875"/><text fill="#000000" font-family="sans-serif" font-size="11" lengthAdjust="spacing" textLength="65" x="519.5" y="655.6064">street : String</text><text fill="#000000" font-family="sans-serif" font-size="11" lengthAdjust="spacing" textLength="54" x="519.5" y="669.4424">city : String</text><text fill="#000000" font-family="sans-serif" font-size="11" lengthAdjust="spacing" textLength="76" x="519.5" y="683.2783">zipCode : String</text><!--MD5=[deb4e1f6eb1e3c1256fdb830f96abfbb]
class Country--><rect codeLine="55" fill="#FEFECE" filter="url(#f1aeirfe485s5j)" height="95.3438" id="Country" style="stroke:#A80036;stroke-width:1.5;" width="240" x="486.5" y="751"/><ellipse cx="581.25" cy="767" fill="#ADD1B2" rx="11" ry="11" style="stroke:#A80036;stroke-width:1.0;"/><path d="M584.0156,762.875 Q584.1719,762.6563 584.3594,762.5469 Q584.5469,762.4375 584.7656,762.4375 Q585.1406,762.4375 585.375,762.6953 Q585.6094,762.9531 585.6094,763.5625 L585.6094,765.0156 Q585.6094,765.625 585.375,765.8906 Q585.1406,766.1563 584.7656,766.1563 Q584.4219,766.1563 584.2188,765.9531 Q584.0156,765.7656 583.9063,765.25 Q583.8594,764.8906 583.6719,764.7031 Q583.3438,764.3281 582.7344,764.1094 Q582.125,763.8906 581.5,763.8906 Q580.7344,763.8906 580.1016,764.2188 Q579.4688,764.5469 578.9766,765.2969 Q578.4844,766.0469 578.4844,767.0781 L578.4844,768.1719 Q578.4844,769.4063 579.375,770.2266 Q580.2656,771.0469 581.8594,771.0469 Q582.7969,771.0469 583.4531,770.7969 Q583.8438,770.6406 584.2656,770.2031 Q584.5313,769.9375 584.6797,769.8594 Q584.8281,769.7813 585.0313,769.7813 Q585.3594,769.7813 585.6172,770.0391 Q585.875,770.2969 585.875,770.6406 Q585.875,770.9844 585.5313,771.3906 Q585.0313,771.9688 584.2344,772.2969 Q583.1563,772.75 581.8594,772.75 Q580.3438,772.75 579.1406,772.125 Q578.1563,771.625 577.4688,770.5547 Q576.7813,769.4844 576.7813,768.2031 L576.7813,767.0469 Q576.7813,765.7188 577.3984,764.5703 Q578.0156,763.4219 579.1094,762.8047 Q580.2031,762.1875 581.4375,762.1875 Q582.1719,762.1875 582.8203,762.3516 Q583.4688,762.5156 584.0156,762.875 Z " fill="#000000"/><text fill="#000000" font-family="sans-serif" font-size="12" lengthAdjust="spacing" textLength="42" x="601.75" y="771.9102">Country</text><line style="stroke:#A80036;stroke-width:1.5;" x1="487.5" x2="725.5" y1="783" y2="783"/><text fill="#000000" font-family="sans-serif" font-size="11" lengthAdjust="spacing" textLength="120" x="492.5" y="798.4189">name : Multilingual_String</text><text fill="#000000" font-family="sans-serif" font-size="11" lengthAdjust="spacing" textLength="204" x="492.5" y="812.2549">iso3166alphaCode : ISO3166_Alpha_Code</text><text fill="#000000" font-family="sans-serif" font-size="11" lengthAdjust="spacing" textLength="228" x="492.5" y="826.0908">iso3166NumericCode : ISO3166_Numeric_Code</text><text fill="#000000" font-family="sans-serif" font-size="11" lengthAdjust="spacing" textLength="172" x="492.5" y="839.9268">euCountryCode : EU_Country_Code</text><!--MD5=[fe105c2ee1fabf2400c31a97ce9128bc]
class Textual_Document--><rect fill="#FEFECE" filter="url(#f1aeirfe485s5j)" height="32" id="Textual_Document" style="stroke:#A80036;stroke-width:1.5;" width="135" x="489" y="111"/><ellipse cx="504" cy="127" fill="#ADD1B2" rx="11" ry="11" style="stroke:#A80036;stroke-width:1.0;"/><path d="M506.7656,122.875 Q506.9219,122.6563 507.1094,122.5469 Q507.2969,122.4375 507.5156,122.4375 Q507.8906,122.4375 508.125,122.6953 Q508.3594,122.9531 508.3594,123.5625 L508.3594,125.0156 Q508.3594,125.625 508.125,125.8906 Q507.8906,126.1563 507.5156,126.1563 Q507.1719,126.1563 506.9688,125.9531 Q506.7656,125.7656 506.6563,125.25 Q506.6094,124.8906 506.4219,124.7031 Q506.0938,124.3281 505.4844,124.1094 Q504.875,123.8906 504.25,123.8906 Q503.4844,123.8906 502.8516,124.2188 Q502.2188,124.5469 501.7266,125.2969 Q501.2344,126.0469 501.2344,127.0781 L501.2344,128.1719 Q501.2344,129.4063 502.125,130.2266 Q503.0156,131.0469 504.6094,131.0469 Q505.5469,131.0469 506.2031,130.7969 Q506.5938,130.6406 507.0156,130.2031 Q507.2813,129.9375 507.4297,129.8594 Q507.5781,129.7813 507.7813,129.7813 Q508.1094,129.7813 508.3672,130.0391 Q508.625,130.2969 508.625,130.6406 Q508.625,130.9844 508.2813,131.3906 Q507.7813,131.9688 506.9844,132.2969 Q505.9063,132.75 504.6094,132.75 Q503.0938,132.75 501.8906,132.125 Q500.9063,131.625 500.2188,130.5547 Q499.5313,129.4844 499.5313,128.2031 L499.5313,127.0469 Q499.5313,125.7188 500.1484,124.5703 Q500.7656,123.4219 501.8594,122.8047 Q502.9531,122.1875 504.1875,122.1875 Q504.9219,122.1875 505.5703,122.3516 Q506.2188,122.5156 506.7656,122.875 Z " fill="#000000"/><text fill="#000000" font-family="sans-serif" font-size="12" lengthAdjust="spacing" textLength="103" x="518" y="131.9102">Textual_Document</text><!--MD5=[152f153d79baedb26b20a34b9b1b571f]
class Textual_Document_Accessibility_Specification--><rect fill="#FEFECE" filter="url(#f1aeirfe485s5j)" height="32" id="Textual_Document_Accessibility_Specification" style="stroke:#A80036;stroke-width:1.5;" width="286" x="413.5" y="7"/><ellipse cx="428.5" cy="23" fill="#ADD1B2" rx="11" ry="11" style="stroke:#A80036;stroke-width:1.0;"/><path d="M431.2656,18.875 Q431.4219,18.6563 431.6094,18.5469 Q431.7969,18.4375 432.0156,18.4375 Q432.3906,18.4375 432.625,18.6953 Q432.8594,18.9531 432.8594,19.5625 L432.8594,21.0156 Q432.8594,21.625 432.625,21.8906 Q432.3906,22.1563 432.0156,22.1563 Q431.6719,22.1563 431.4688,21.9531 Q431.2656,21.7656 431.1563,21.25 Q431.1094,20.8906 430.9219,20.7031 Q430.5938,20.3281 429.9844,20.1094 Q429.375,19.8906 428.75,19.8906 Q427.9844,19.8906 427.3516,20.2188 Q426.7188,20.5469 426.2266,21.2969 Q425.7344,22.0469 425.7344,23.0781 L425.7344,24.1719 Q425.7344,25.4063 426.625,26.2266 Q427.5156,27.0469 429.1094,27.0469 Q430.0469,27.0469 430.7031,26.7969 Q431.0938,26.6406 431.5156,26.2031 Q431.7813,25.9375 431.9297,25.8594 Q432.0781,25.7813 432.2813,25.7813 Q432.6094,25.7813 432.8672,26.0391 Q433.125,26.2969 433.125,26.6406 Q433.125,26.9844 432.7813,27.3906 Q432.2813,27.9688 431.4844,28.2969 Q430.4063,28.75 429.1094,28.75 Q427.5938,28.75 426.3906,28.125 Q425.4063,27.625 424.7188,26.5547 Q424.0313,25.4844 424.0313,24.2031 L424.0313,23.0469 Q424.0313,21.7188 424.6484,20.5703 Q425.2656,19.4219 426.3594,18.8047 Q427.4531,18.1875 428.6875,18.1875 Q429.4219,18.1875 430.0703,18.3516 Q430.7188,18.5156 431.2656,18.875 Z " fill="#000000"/><text fill="#000000" font-family="sans-serif" font-size="12" lengthAdjust="spacing" textLength="254" x="442.5" y="27.9102">Textual_Document_Accessibility_Specification</text><path d="M6,316 L6,424.1094 A0,0 0 0 0 6,424.1094 L247,424.1094 A0,0 0 0 0 247,424.1094 L247,374 L281.82,370 L247,366 L247,326 L237,316 L6,316 A0,0 0 0 0 6,316 " fill="#FBFB77" filter="url(#f1aeirfe485s5j)" style="stroke:#A80036;stroke-width:1.0;"/><path d="M237,316 L237,326 L247,326 L237,316 " fill="#FBFB77" style="stroke:#A80036;stroke-width:1.0;"/><text fill="#000000" font-family="sans-serif" font-size="13" lengthAdjust="spacing" textLength="216" x="12" y="334.4951">The Agent is mandatory for almost all</text><text fill="#000000" font-family="sans-serif" font-size="13" lengthAdjust="spacing" textLength="175" x="12" y="350.8467">subclasses of Contributorship,</text><text fill="#000000" font-family="sans-serif" font-size="13" lengthAdjust="spacing" textLength="185" x="12" y="367.1982">Reviewing is the exception if the</text><text fill="#000000" font-family="sans-serif" font-size="13" lengthAdjust="spacing" textLength="182" x="12" y="383.5498">reviewer's identity is concealed.</text><text fill="#000000" font-family="sans-serif" font-size="13" lengthAdjust="spacing" textLength="167" x="12" y="399.9014">Also useful when authors are</text><text fill="#000000" font-family="sans-serif" font-size="13" lengthAdjust="spacing" textLength="113" x="12" y="416.2529">using pseudonyms.</text><!--MD5=[bf7e8cf64254ff374c5acfe277545dd5]
reverse link Postal_Address to Country--><path codeLine="61" d="M585.94,703.12 C589.37,718.87 593.05,735.76 596.34,750.84 " fill="none" id="Postal_Address-backto-Country" style="stroke:#A80036;stroke-width:1.0;"/><polygon fill="#FFFFFF" points="583.13,690.23,580.4996,696.9443,585.6857,701.9547,588.3161,695.2404,583.13,690.23" style="stroke:#A80036;stroke-width:1.0;"/><text fill="#000000" font-family="sans-serif" font-size="13" lengthAdjust="spacing" textLength="43" x="548.6899" y="740.1606">country</text><!--MD5=[af6b79ce3af62c8c5ee779db9fbc8cf6]
link Affiliation_Statement to Postal_Address--><path codeLine="62" d="M465.49,539.19 C482.23,555.43 504.24,576.79 524.02,595.98 " fill="none" id="Affiliation_Statement-to-Postal_Address" style="stroke:#A80036;stroke-width:1.0;stroke-dasharray:7.0,7.0;"/><polygon fill="#A80036" points="527.94,599.79,524.2379,590.6634,524.3408,596.3193,518.6849,596.4222,527.94,599.79" style="stroke:#A80036;stroke-width:1.0;"/><text fill="#000000" font-family="sans-serif" font-size="13" lengthAdjust="spacing" textLength="83" x="431.6089" y="589.1876">postalAddress</text><!--MD5=[fe03d2c8e9644e7513bef3a6fb6291e6]
reverse link Affiliation_Statement to Organisation_Unit--><path codeLine="63" d="M381.35,546.74 C349.08,568.89 310.59,597.42 285.6,617.85 " fill="none" id="Affiliation_Statement-backto-Organisation_Unit" style="stroke:#A80036;stroke-width:1.0;"/><polygon fill="#FFFFFF" points="392.47,539.19,385.2591,539.2428,382.5344,545.9193,389.7453,545.8665,392.47,539.19" style="stroke:#A80036;stroke-width:1.0;"/><text fill="#000000" font-family="sans-serif" font-size="13" lengthAdjust="spacing" textLength="67" x="216.6575" y="607.2763">0..1 orgUnit</text><!--MD5=[fe03d2c8e9644e7513bef3a6fb6291e6]
reverse link Affiliation_Statement to Organisation_Unit--><path codeLine="64" d="M403.54,547.61 C375.82,569.63 337.36,597.69 307.08,617.85 " fill="none" id="Affiliation_Statement-backto-Organisation_Unit-1" style="stroke:#A80036;stroke-width:1.0;"/><polygon fill="#FFFFFF" points="413.96,539.19,406.7785,539.8431,404.6193,546.7233,411.8007,546.0702,413.96,539.19" style="stroke:#A80036;stroke-width:1.0;"/><text fill="#000000" font-family="sans-serif" font-size="13" lengthAdjust="spacing" textLength="82" x="327.2654" y="607.2092">0..1 institution</text><!--MD5=[d9b08b031298a036c8fb3d44263a5204]
reverse link Affiliation_Statement to Person--><path codeLine="65" d="M430.45,552.07 C426.07,573.32 420.77,599.03 416.89,617.85 " fill="none" id="Affiliation_Statement-backto-Person" style="stroke:#A80036;stroke-width:1.0;"/><polygon fill="#FFFFFF" points="433.1,539.19,427.9692,544.257,430.6731,550.942,435.8039,545.875,433.1,539.19" style="stroke:#A80036;stroke-width:1.0;"/><text fill="#000000" font-family="sans-serif" font-size="13" lengthAdjust="spacing" textLength="39" x="422.6458" y="607.2763">person</text><!--MD5=[b5c017ecc32f857930efae613c226920]
reverse link Contribution_Statement to Free_Text_Contribution--><path codeLine="67" d="M624.27,271.19 C621.55,293.73 618.09,322.49 615.63,342.98 " fill="none" id="Contribution_Statement-backto-Free_Text_Contribution" style="stroke:#A80036;stroke-width:1.0;"/><polygon fill="none" points="617.33,270.28,626.66,251.26,631.23,271.95,617.33,270.28" style="stroke:#A80036;stroke-width:1.0;"/><!--MD5=[1f014480a3afa8c0325c3be3fbf7ad6f]
link Contributorship to Document--><path codeLine="70" d="M465.25,335.73 C482.12,317.02 505.66,295.64 532,285.5 C598.36,259.95 622.69,269.6 692,285.5 C734.99,295.36 779.7,317.27 813.09,336.31 " fill="none" id="Contributorship-to-Document" style="stroke:#A80036;stroke-width:1.0;"/><polygon fill="#A80036" points="824.41,342.9,821.2362,336.4249,814.0384,336.8642,817.2123,343.3393,824.41,342.9" style="stroke:#A80036;stroke-width:1.0;"/><text fill="#000000" font-family="sans-serif" font-size="13" lengthAdjust="spacing" textLength="20" x="448.443" y="325.2322">0..*</text><!--MD5=[504de05de5dc33320621ff1be2e6e6ff]
reverse link Agent to Contributorship--><path codeLine="73" d="M358.49,370 C365.61,370 372.73,370 379.85,370 " fill="none" id="Agent-backto-Contributorship" style="stroke:#A80036;stroke-width:1.0;"/><polygon fill="#A80036" points="345.24,370,351.24,374,357.24,370,351.24,366,345.24,370" style="stroke:#A80036;stroke-width:1.0;"/><text fill="#000000" font-family="sans-serif" font-size="13" lengthAdjust="spacing" textLength="87" x="283.6977" y="352.7176">0..1 contributor</text><text fill="#000000" font-family="sans-serif" font-size="13" lengthAdjust="spacing" textLength="20" x="351.9123" y="384.4594">0..*</text><!--MD5=[d50a95e3ddb5a3ed983c7b2ff4649bd6]
reverse link Contributorship to Affiliation_Statement--><path codeLine="75" d="M438.5,417.19 C438.5,439.57 438.5,465.64 438.5,484.61 " fill="none" id="Contributorship-backto-Affiliation_Statement" style="stroke:#A80036;stroke-width:1.0;"/><polygon fill="#A80036" points="438.5,404.18,434.5,410.18,438.5,416.18,442.5,410.18,438.5,404.18" style="stroke:#A80036;stroke-width:1.0;"/><text fill="#000000" font-family="sans-serif" font-size="13" lengthAdjust="spacing" textLength="81" x="348.1344" y="473.9808">0..* affiliations</text><!--MD5=[302d116419dc4c6a2265e61d4260f04e]
link Contribution_Statement to Contributorship--><path codeLine="77" d="M606.7,251.26 C580,269.95 533.72,302.35 496.45,328.43 " fill="none" id="Contribution_Statement-to-Contributorship" style="stroke:#A80036;stroke-width:1.0;"/><polygon fill="#A80036" points="485.71,335.96,492.9193,335.7975,495.542,329.0802,488.3328,329.2428,485.71,335.96" style="stroke:#A80036;stroke-width:1.0;"/><text fill="#000000" font-family="sans-serif" font-size="13" lengthAdjust="spacing" textLength="158" x="416.57" y="272.544">0..* contributionStatements</text><!--MD5=[db20fd804d8595e73b6b8c99fdd1338c]
link Authorship to Textual_Document--><path codeLine="79" d="M454.2,127 C461.44,127 468.68,127 475.93,127 " fill="none" id="Authorship-to-Textual_Document" style="stroke:#A80036;stroke-width:1.0;"/><polygon fill="#A80036" points="488.96,127,482.96,123,476.96,127,482.96,131,488.96,127" style="stroke:#A80036;stroke-width:1.0;"/><!--MD5=[e74e4958a1d7eb99db8e977d8859ba66]
link Authorship to Contributorship--><path codeLine="80" d="M375.75,154.14 C383.99,171.15 394.34,194.01 401.5,215 C412.73,247.93 421.9,285.94 428.3,315.95 " fill="none" id="Authorship-to-Contributorship" style="stroke:#A80036;stroke-width:1.0;"/><polygon fill="none" points="435.2,314.75,432.37,335.75,421.49,317.57,435.2,314.75" style="stroke:#A80036;stroke-width:1.0;"/><!--MD5=[49125a4ba45432b051dcbcd9e53401d7]
link Authorship to Agent--><path codeLine="81" d="M305.17,154.01 C280.87,168.28 255.07,188.52 241.5,215 C233.39,230.82 236.56,237.92 241.5,255 C251.2,288.51 274,321.64 291.37,343.47 " fill="none" id="Authorship-to-Agent" style="stroke:#A80036;stroke-width:1.0;"/><polygon fill="#FFFFFF" points="299.86,353.8,299.1392,346.625,292.2389,344.5308,292.9597,351.7057,299.86,353.8" style="stroke:#A80036;stroke-width:1.0;"/><path d="M246.5,220 L246.5,246 L388.5,246 L388.5,230 L378.5,220 L246.5,220 " fill="#FFFF00" filter="url(#f1aeirfe485s5j)" style="stroke:#A80036;stroke-width:1.0;"/><path d="M378.5,220 L378.5,230 L388.5,230 L378.5,220 " fill="#FFFF00" style="stroke:#A80036;stroke-width:1.0;"/><text fill="#000000" font-family="sans-serif" font-size="13" lengthAdjust="spacing" textLength="121" x="252.5" y="238.4951">author == contributor</text><text fill="#000000" font-family="sans-serif" font-size="13" lengthAdjust="spacing" textLength="20" x="270.4416" y="175.22">0..*</text><text fill="#000000" font-family="sans-serif" font-size="13" lengthAdjust="spacing" textLength="62" x="254.4584" y="357.8634">0..1 author</text><!--MD5=[5d8901ce694eb85aefa78b7d82d9f6f6]
link Person to Person_Name--><path codeLine="83" d="M408.58,672.04 C406.23,692.98 402.86,722.99 400.01,748.41 " fill="none" id="Person-to-Person_Name" style="stroke:#A80036;stroke-width:1.0;stroke-dasharray:7.0,7.0;"/><polygon fill="#A80036" points="399.44,753.43,404.4175,744.9315,399.9969,748.4611,396.4672,744.0405,399.44,753.43" style="stroke:#A80036;stroke-width:1.0;"/><text fill="#000000" font-family="sans-serif" font-size="13" lengthAdjust="spacing" textLength="39" x="358.1195" y="742.5194">names</text><!--MD5=[de96f77e660762cb21a195b4097c3876]
reverse link Agent to Person--><path codeLine="84" d="M317.39,406.48 C321.99,441.18 331.31,495.06 348.5,539 C359.65,567.51 378.19,597.17 392.28,617.66 " fill="none" id="Agent-backto-Person" style="stroke:#A80036;stroke-width:1.0;"/><polygon fill="none" points="310.4,407.01,314.96,386.32,324.3,405.34,310.4,407.01" style="stroke:#A80036;stroke-width:1.0;"/><!--MD5=[521d3f26cc3887ed8885a4c0e03f9952]
reverse link Agent to Organisation_Unit--><path codeLine="85" d="M301.46,405.05 C296.56,419.93 291.19,437.68 287.5,454 C274.42,511.84 266.48,581.11 262.85,617.94 " fill="none" id="Agent-backto-Organisation_Unit" style="stroke:#A80036;stroke-width:1.0;"/><polygon fill="none" points="294.85,402.75,307.96,386.1,308.1,407.28,294.85,402.75" style="stroke:#A80036;stroke-width:1.0;"/><!--MD5=[8d9b790276a1e6c61f0b091de629785c]
link Textual_Document to Document--><path codeLine="87" d="M595.25,143.07 C631.28,158.14 685.42,183.58 726.5,215 C768.78,247.34 808.76,293.46 835.09,326.79 " fill="none" id="Textual_Document-to-Document" style="stroke:#A80036;stroke-width:1.0;"/><polygon fill="none" points="840.86,322.8,847.55,342.91,829.78,331.37,840.86,322.8" style="stroke:#A80036;stroke-width:1.0;"/><!--MD5=[c0a805770ea07def151bfb445be554f3]
link Textual_Document_Accessibility_Specification to Textual_Document--><path codeLine="89" d="M556.5,39.05 C556.5,54.42 556.5,78.65 556.5,97.63 " fill="none" id="Textual_Document_Accessibility_Specification-to-Textual_Document" style="stroke:#A80036;stroke-width:1.0;"/><polygon fill="#A80036" points="556.5,110.89,560.5,104.89,556.5,98.89,552.5,104.89,556.5,110.89" style="stroke:#A80036;stroke-width:1.0;"/><text fill="#000000" font-family="sans-serif" font-size="13" lengthAdjust="spacing" textLength="103" x="436.4406" y="60.5699">0..* accessRights</text><!--MD5=[2c23d09c80fbfac9dc5109bf504b493e]
link Textual_Document to Agent--><path codeLine="90" d="M540.37,143.06 C506.73,174.59 426.9,250.07 362.5,316 C350.24,328.55 336.74,343.22 327.01,353.95 " fill="none" id="Textual_Document-Agent" style="stroke:#A80036;stroke-width:1.0;"/><text fill="#000000" font-family="sans-serif" font-size="13" lengthAdjust="spacing" textLength="140" x="558.2144" y="164.5832">0..* authoredDocuments</text><text fill="#000000" font-family="sans-serif" font-size="13" lengthAdjust="spacing" textLength="67" x="254.89" y="342.8869">0..* authors</text><!--MD5=[658716342f140743f71a30750d0f0051]
@startuml
    !startsub common
    	!define datatype(x) class x << (D,#FF7700) DataType>>
    	hide empty members
    !endsub

    !startsub Document
    class "Document"{
        title : Multilingual_String
        publicationDate : Date
        DOI : DOI_Type
    }
    class "Textual_Document"{
    }
    !endsub
    !startsub TDAS
    class "Textual_Document_Accessibility_Specification"{
    }
    !endsub
    class "Agent"{

    }
    class "Organisation_Unit"{
        name : Multilingual_String
    }
    class "Person"{
        orcidid : ORCID_iD
    }
    datatype("Person_Name"){
        firstNames : String
        familyNames : String
        otherNames : String
    }
    class "Authorship"{
        correspondingAuthorFlag : Boolean
    }
    !startsub Contributorship
    class "Contributorship"{
        contacts : List<URI>
        displayName : String
    }
    class "Contribution_Statement"{
    }
    class "Free_Text_Contribution"{
        statement : Multilingual_String
    }
    !endsub
    class "Affiliation_Statement"{
        displayAffiliation : String
    }
   datatype("Postal_Address"){
        street : String
        city : String
        zipCode : String
    }
    class "Country"{
        name : Multilingual_String
        iso3166alphaCode : ISO3166_Alpha_Code
        iso3166NumericCode : ISO3166_Numeric_Code
        euCountryCode : EU_Country_Code
    }
    "Postal_Address" o- - "country" "Country"
    "Affiliation_Statement" ..> "postalAddress" "Postal_Address"
    "Affiliation_Statement" o- - "0..1 orgUnit" "Organisation_Unit"
    "Affiliation_Statement" o- - "0..1 institution" "Organisation_Unit"
    "Affiliation_Statement" o- - "person" "Person"
    !startsub Contributorship
    "Contribution_Statement" <|- - "Free_Text_Contribution"
    !endsub
    !startsub Contributorship
    "Contributorship" "0..*" -r-* "Document"
    !endsub
    !startsub Contributorship
    "Contributorship" "0..*" -l-* "0..1 contributor" "Agent"
    !endsub
    "Contributorship" *- - "0..* affiliations" "Affiliation_Statement"
    !startsub Contributorship
    "Contributorship" *-u- "0..* contributionStatements" "Contribution_Statement"
    !endsub
    "Authorship" -r-* "Textual_Document"
    "Contributorship" <|-u- "Authorship"
    "Authorship" "0..*" - -o "0..1 author" "Agent"
    note on link #yellow: author == contributor
    "Person" .d.> "names" "Person_Name"
    "Agent" <|-d- "Person"
    "Agent" <|-d- "Organisation_Unit"
    !startsub Document
    "Document" <|-u- "Textual_Document"
    !endsub
    "Textual_Document" *-u- "0..* accessRights" "Textual_Document_Accessibility_Specification"
    "Textual_Document" "0..* authoredDocuments" - - - "0..* authors" "Agent"
    note left of Agent: The Agent is mandatory for almost all \nsubclasses of Contributorship,\nReviewing is the exception if the \nreviewer's identity is concealed. \nAlso useful when authors are \nusing pseudonyms.
@enduml

@startuml
    	hide empty members

    class "Document"{
    class "Textual_Document_Accessibility_Specification"{
    }
    class "Agent"{

    }
    class "Organisation_Unit"{
        name : Multilingual_String
    }
    class "Person"{
        orcidid : ORCID_iD
    }
    class Person_Name << (D,#FF7700) DataType>>{
        firstNames : String
        familyNames : String
        otherNames : String
    }
    class "Authorship"{
        correspondingAuthorFlag : Boolean
    }
    class "Contributorship"{
        contacts : List<URI>
        displayName : String
    }
    class "Contribution_Statement"{
    }
    class "Free_Text_Contribution"{
        statement : Multilingual_String
    }
    class "Affiliation_Statement"{
        displayAffiliation : String
    }
   class Postal_Address << (D,#FF7700) DataType>>{
        street : String
        city : String
        zipCode : String
    }
    class "Country"{
        name : Multilingual_String
        iso3166alphaCode : ISO3166_Alpha_Code
        iso3166NumericCode : ISO3166_Numeric_Code
        euCountryCode : EU_Country_Code
    }
    "Postal_Address" o- - "country" "Country"
    "Affiliation_Statement" ..> "postalAddress" "Postal_Address"
    "Affiliation_Statement" o- - "0..1 orgUnit" "Organisation_Unit"
    "Affiliation_Statement" o- - "0..1 institution" "Organisation_Unit"
    "Affiliation_Statement" o- - "person" "Person"
    "Contribution_Statement" <|- - "Free_Text_Contribution"
    "Contributorship" "0..*" -r-* "Document"
    "Contributorship" "0..*" -l-* "0..1 contributor" "Agent"
    "Contributorship" *- - "0..* affiliations" "Affiliation_Statement"
    "Contributorship" *-u- "0..* contributionStatements" "Contribution_Statement"
    "Authorship" -r-* "Textual_Document"
    "Contributorship" <|-u- "Authorship"
    "Authorship" "0..*" - -o "0..1 author" "Agent"
    note on link #yellow: author == contributor
    "Person" .d.> "names" "Person_Name"
    "Agent" <|-d- "Person"
    "Agent" <|-d- "Organisation_Unit"
    "Document" <|-u- "Textual_Document"
    "Textual_Document" *-u- "0..* accessRights" "Textual_Document_Accessibility_Specification"
    "Textual_Document" "0..* authoredDocuments" - - - "0..* authors" "Agent"
    note left of Agent: The Agent is mandatory for almost all \nsubclasses of Contributorship,\nReviewing is the exception if the \nreviewer's identity is concealed. \nAlso useful when authors are \nusing pseudonyms.
@enduml

PlantUML version 1.2021.8(Sat Jun 26 10:20:59 CEST 2021)
(GPL source distribution)
Java Runtime: Java(TM) SE Runtime Environment
JVM: Java HotSpot(TM) 64-Bit Server VM
Default Encoding: Cp1252
Language: en
Country: US
--></g></svg>