<?xml version="1.0" encoding="UTF-8" standalone="no"?><svg xmlns="http://www.w3.org/2000/svg" xmlns:xlink="http://www.w3.org/1999/xlink" contentScriptType="application/ecmascript" contentStyleType="text/css" height="820px" preserveAspectRatio="none" style="width:1115px;height:820px;background:#FFFFFF;" version="1.1" viewBox="0 0 1115 820" width="1115px" zoomAndPan="magnify"><defs><filter height="300%" id="fgs235ie7msfb" width="300%" x="-1" y="-1"><feGaussianBlur result="blurOut" stdDeviation="2.0"/><feColorMatrix in="blurOut" result="blurOut2" type="matrix" values="0 0 0 0 0 0 0 0 0 0 0 0 0 0 0 0 0 0 .4 0"/><feOffset dx="4.0" dy="4.0" in="blurOut2" result="blurOut3"/><feBlend in="SourceGraphic" in2="blurOut3" mode="normal"/></filter></defs><g><!--MD5=[59b530d44ae785dc18db921986a9c15c]
class Document--><rect codeLine="2" fill="#FEFECE" filter="url(#fgs235ie7msfb)" height="60.8047" id="Document" style="stroke:#A80036;stroke-width:1.5;" width="314" x="410.5" y="296"/><ellipse cx="531.25" cy="312" fill="#ADD1B2" rx="11" ry="11" style="stroke:#A80036;stroke-width:1.0;"/><path d="M534.2188,317.6406 Q533.6406,317.9375 533,318.0781 Q532.3594,318.2344 531.6563,318.2344 Q529.1563,318.2344 527.8281,316.5938 Q526.5156,314.9375 526.5156,311.8125 Q526.5156,308.6875 527.8281,307.0313 Q529.1563,305.375 531.6563,305.375 Q532.3594,305.375 533,305.5313 Q533.6563,305.6875 534.2188,305.9844 L534.2188,308.7031 Q533.5938,308.125 533,307.8594 Q532.4063,307.5781 531.7813,307.5781 Q530.4375,307.5781 529.75,308.6563 Q529.0625,309.7188 529.0625,311.8125 Q529.0625,313.9063 529.75,314.9844 Q530.4375,316.0469 531.7813,316.0469 Q532.4063,316.0469 533,315.7813 Q533.5938,315.5 534.2188,314.9219 L534.2188,317.6406 Z " fill="#000000"/><text fill="#000000" font-family="sans-serif" font-size="12" lengthAdjust="spacing" textLength="64" x="551.75" y="316.1543">Document</text><line style="stroke:#A80036;stroke-width:1.5;" x1="411.5" x2="723.5" y1="328" y2="328"/><text fill="#000000" font-family="sans-serif" font-size="11" lengthAdjust="spacing" textLength="302" x="416.5" y="342.2104">class "Textual Document Accessibility Specification"{</text><line style="stroke:#A80036;stroke-width:1.5;" x1="411.5" x2="723.5" y1="348.8047" y2="348.8047"/><!--MD5=[9d44916250b776386006c440668bcfbb]
class Agent--><rect codeLine="14" fill="#FEFECE" filter="url(#fgs235ie7msfb)" height="48" id="Agent" style="stroke:#A80036;stroke-width:1.5;" width="69" x="306" y="302.5"/><ellipse cx="321" cy="318.5" fill="#ADD1B2" rx="11" ry="11" style="stroke:#A80036;stroke-width:1.0;"/><path d="M323.9688,324.1406 Q323.3906,324.4375 322.75,324.5781 Q322.1094,324.7344 321.4063,324.7344 Q318.9063,324.7344 317.5781,323.0938 Q316.2656,321.4375 316.2656,318.3125 Q316.2656,315.1875 317.5781,313.5313 Q318.9063,311.875 321.4063,311.875 Q322.1094,311.875 322.75,312.0313 Q323.4063,312.1875 323.9688,312.4844 L323.9688,315.2031 Q323.3438,314.625 322.75,314.3594 Q322.1563,314.0781 321.5313,314.0781 Q320.1875,314.0781 319.5,315.1563 Q318.8125,316.2188 318.8125,318.3125 Q318.8125,320.4063 319.5,321.4844 Q320.1875,322.5469 321.5313,322.5469 Q322.1563,322.5469 322.75,322.2813 Q323.3438,322 323.9688,321.4219 L323.9688,324.1406 Z " fill="#000000"/><text fill="#000000" font-family="sans-serif" font-size="12" lengthAdjust="spacing" textLength="37" x="335" y="322.6543">Agent</text><line style="stroke:#A80036;stroke-width:1.5;" x1="307" x2="374" y1="334.5" y2="334.5"/><line style="stroke:#A80036;stroke-width:1.5;" x1="307" x2="374" y1="342.5" y2="342.5"/><!--MD5=[fd289f43f02ef8bd75c20da9b3dee237]
class Organisation Unit--><rect codeLine="17" fill="#FEFECE" filter="url(#fgs235ie7msfb)" height="60.8047" id="Organisation Unit" style="stroke:#A80036;stroke-width:1.5;" width="151" x="470" y="572.5"/><ellipse cx="489.5" cy="588.5" fill="#ADD1B2" rx="11" ry="11" style="stroke:#A80036;stroke-width:1.0;"/><path d="M492.4688,594.1406 Q491.8906,594.4375 491.25,594.5781 Q490.6094,594.7344 489.9063,594.7344 Q487.4063,594.7344 486.0781,593.0938 Q484.7656,591.4375 484.7656,588.3125 Q484.7656,585.1875 486.0781,583.5313 Q487.4063,581.875 489.9063,581.875 Q490.6094,581.875 491.25,582.0313 Q491.9063,582.1875 492.4688,582.4844 L492.4688,585.2031 Q491.8438,584.625 491.25,584.3594 Q490.6563,584.0781 490.0313,584.0781 Q488.6875,584.0781 488,585.1563 Q487.3125,586.2188 487.3125,588.3125 Q487.3125,590.4063 488,591.4844 Q488.6875,592.5469 490.0313,592.5469 Q490.6563,592.5469 491.25,592.2813 Q491.8438,592 492.4688,591.4219 L492.4688,594.1406 Z " fill="#000000"/><text fill="#000000" font-family="sans-serif" font-size="12" lengthAdjust="spacing" textLength="109" x="504.5" y="592.6543">Organisation Unit</text><line style="stroke:#A80036;stroke-width:1.5;" x1="471" x2="620" y1="604.5" y2="604.5"/><text fill="#000000" font-family="sans-serif" font-size="11" lengthAdjust="spacing" textLength="139" x="476" y="618.7104">Multilingual_String name</text><line style="stroke:#A80036;stroke-width:1.5;" x1="471" x2="620" y1="625.3047" y2="625.3047"/><!--MD5=[09ce52be0ee7de43c61b6e2d59bf108b]
class Person--><rect codeLine="20" fill="#FEFECE" filter="url(#fgs235ie7msfb)" height="60.8047" id="Person" style="stroke:#A80036;stroke-width:1.5;" width="106" x="287.5" y="438"/><ellipse cx="316" cy="454" fill="#ADD1B2" rx="11" ry="11" style="stroke:#A80036;stroke-width:1.0;"/><path d="M318.9688,459.6406 Q318.3906,459.9375 317.75,460.0781 Q317.1094,460.2344 316.4063,460.2344 Q313.9063,460.2344 312.5781,458.5938 Q311.2656,456.9375 311.2656,453.8125 Q311.2656,450.6875 312.5781,449.0313 Q313.9063,447.375 316.4063,447.375 Q317.1094,447.375 317.75,447.5313 Q318.4063,447.6875 318.9688,447.9844 L318.9688,450.7031 Q318.3438,450.125 317.75,449.8594 Q317.1563,449.5781 316.5313,449.5781 Q315.1875,449.5781 314.5,450.6563 Q313.8125,451.7188 313.8125,453.8125 Q313.8125,455.9063 314.5,456.9844 Q315.1875,458.0469 316.5313,458.0469 Q317.1563,458.0469 317.75,457.7813 Q318.3438,457.5 318.9688,456.9219 L318.9688,459.6406 Z " fill="#000000"/><text fill="#000000" font-family="sans-serif" font-size="12" lengthAdjust="spacing" textLength="44" x="333" y="458.1543">Person</text><line style="stroke:#A80036;stroke-width:1.5;" x1="288.5" x2="392.5" y1="470" y2="470"/><text fill="#000000" font-family="sans-serif" font-size="11" lengthAdjust="spacing" textLength="94" x="293.5" y="484.2104">ORCID_iD orcidid</text><line style="stroke:#A80036;stroke-width:1.5;" x1="288.5" x2="392.5" y1="490.8047" y2="490.8047"/><!--MD5=[632a0a9f063c22bc9f1456509ebe931b]
class Person Name--><rect codeLine="23" fill="#FEFECE" filter="url(#fgs235ie7msfb)" height="86.4141" id="Person Name" style="stroke:#A80036;stroke-width:1.5;" width="124" x="278.5" y="560"/><ellipse cx="297.1" cy="576" fill="#ADD1B2" rx="11" ry="11" style="stroke:#A80036;stroke-width:1.0;"/><path d="M300.0688,581.6406 Q299.4906,581.9375 298.85,582.0781 Q298.2094,582.2344 297.5063,582.2344 Q295.0063,582.2344 293.6781,580.5938 Q292.3656,578.9375 292.3656,575.8125 Q292.3656,572.6875 293.6781,571.0313 Q295.0063,569.375 297.5063,569.375 Q298.2094,569.375 298.85,569.5313 Q299.5063,569.6875 300.0688,569.9844 L300.0688,572.7031 Q299.4438,572.125 298.85,571.8594 Q298.2563,571.5781 297.6313,571.5781 Q296.2875,571.5781 295.6,572.6563 Q294.9125,573.7188 294.9125,575.8125 Q294.9125,577.9063 295.6,578.9844 Q296.2875,580.0469 297.6313,580.0469 Q298.2563,580.0469 298.85,579.7813 Q299.4438,579.5 300.0688,578.9219 L300.0688,581.6406 Z " fill="#000000"/><text fill="#000000" font-family="sans-serif" font-size="12" lengthAdjust="spacing" textLength="84" x="311.9" y="580.1543">Person Name</text><line style="stroke:#A80036;stroke-width:1.5;" x1="279.5" x2="401.5" y1="592" y2="592"/><text fill="#000000" font-family="sans-serif" font-size="11" lengthAdjust="spacing" textLength="101" x="284.5" y="606.2104">String firstNames</text><text fill="#000000" font-family="sans-serif" font-size="11" lengthAdjust="spacing" textLength="112" x="284.5" y="619.0151">String familyNames</text><text fill="#000000" font-family="sans-serif" font-size="11" lengthAdjust="spacing" textLength="108" x="284.5" y="631.8198">String otherNames</text><line style="stroke:#A80036;stroke-width:1.5;" x1="279.5" x2="401.5" y1="638.4141" y2="638.4141"/><!--MD5=[3b25461e5df73ababc6765bb9b0c47d3]
class Authorship--><rect codeLine="28" fill="#FEFECE" filter="url(#fgs235ie7msfb)" height="60.8047" id="Authorship" style="stroke:#A80036;stroke-width:1.5;" width="204" x="234.5" y="116"/><ellipse cx="298.25" cy="132" fill="#ADD1B2" rx="11" ry="11" style="stroke:#A80036;stroke-width:1.0;"/><path d="M301.2188,137.6406 Q300.6406,137.9375 300,138.0781 Q299.3594,138.2344 298.6563,138.2344 Q296.1563,138.2344 294.8281,136.5938 Q293.5156,134.9375 293.5156,131.8125 Q293.5156,128.6875 294.8281,127.0313 Q296.1563,125.375 298.6563,125.375 Q299.3594,125.375 300,125.5313 Q300.6563,125.6875 301.2188,125.9844 L301.2188,128.7031 Q300.5938,128.125 300,127.8594 Q299.4063,127.5781 298.7813,127.5781 Q297.4375,127.5781 296.75,128.6563 Q296.0625,129.7188 296.0625,131.8125 Q296.0625,133.9063 296.75,134.9844 Q297.4375,136.0469 298.7813,136.0469 Q299.4063,136.0469 300,135.7813 Q300.5938,135.5 301.2188,134.9219 L301.2188,137.6406 Z " fill="#000000"/><text fill="#000000" font-family="sans-serif" font-size="12" lengthAdjust="spacing" textLength="68" x="318.75" y="136.1543">Authorship</text><line style="stroke:#A80036;stroke-width:1.5;" x1="235.5" x2="437.5" y1="148" y2="148"/><text fill="#000000" font-family="sans-serif" font-size="11" lengthAdjust="spacing" textLength="192" x="240.5" y="162.2104">Boolean correspondingAuthorFlag</text><line style="stroke:#A80036;stroke-width:1.5;" x1="235.5" x2="437.5" y1="168.8047" y2="168.8047"/><!--MD5=[b821bb113f9f55c728f1fbb8949cc3af]
class Contributorship--><rect codeLine="32" fill="#FEFECE" filter="url(#fgs235ie7msfb)" height="73.6094" id="Contributorship" style="stroke:#A80036;stroke-width:1.5;" width="129" x="760" y="289.5"/><ellipse cx="775" cy="305.5" fill="#ADD1B2" rx="11" ry="11" style="stroke:#A80036;stroke-width:1.0;"/><path d="M777.9688,311.1406 Q777.3906,311.4375 776.75,311.5781 Q776.1094,311.7344 775.4063,311.7344 Q772.9063,311.7344 771.5781,310.0938 Q770.2656,308.4375 770.2656,305.3125 Q770.2656,302.1875 771.5781,300.5313 Q772.9063,298.875 775.4063,298.875 Q776.1094,298.875 776.75,299.0313 Q777.4063,299.1875 777.9688,299.4844 L777.9688,302.2031 Q777.3438,301.625 776.75,301.3594 Q776.1563,301.0781 775.5313,301.0781 Q774.1875,301.0781 773.5,302.1563 Q772.8125,303.2188 772.8125,305.3125 Q772.8125,307.4063 773.5,308.4844 Q774.1875,309.5469 775.5313,309.5469 Q776.1563,309.5469 776.75,309.2813 Q777.3438,309 777.9688,308.4219 L777.9688,311.1406 Z " fill="#000000"/><text fill="#000000" font-family="sans-serif" font-size="12" lengthAdjust="spacing" textLength="97" x="789" y="309.6543">Contributorship</text><line style="stroke:#A80036;stroke-width:1.5;" x1="761" x2="888" y1="321.5" y2="321.5"/><text fill="#000000" font-family="sans-serif" font-size="11" lengthAdjust="spacing" textLength="108" x="766" y="335.7104">List&lt;URI&gt; contacts</text><text fill="#000000" font-family="sans-serif" font-size="11" lengthAdjust="spacing" textLength="111" x="766" y="348.5151">String displayName</text><line style="stroke:#A80036;stroke-width:1.5;" x1="761" x2="888" y1="355.1094" y2="355.1094"/><!--MD5=[f8f29aeb30962b8f0c17f3bed64bd579]
class Contribution Statement--><rect codeLine="36" fill="#FEFECE" filter="url(#fgs235ie7msfb)" height="48" id="Contribution Statement" style="stroke:#A80036;stroke-width:1.5;" width="179" x="866" y="122.5"/><ellipse cx="881" cy="138.5" fill="#ADD1B2" rx="11" ry="11" style="stroke:#A80036;stroke-width:1.0;"/><path d="M883.9688,144.1406 Q883.3906,144.4375 882.75,144.5781 Q882.1094,144.7344 881.4063,144.7344 Q878.9063,144.7344 877.5781,143.0938 Q876.2656,141.4375 876.2656,138.3125 Q876.2656,135.1875 877.5781,133.5313 Q878.9063,131.875 881.4063,131.875 Q882.1094,131.875 882.75,132.0313 Q883.4063,132.1875 883.9688,132.4844 L883.9688,135.2031 Q883.3438,134.625 882.75,134.3594 Q882.1563,134.0781 881.5313,134.0781 Q880.1875,134.0781 879.5,135.1563 Q878.8125,136.2188 878.8125,138.3125 Q878.8125,140.4063 879.5,141.4844 Q880.1875,142.5469 881.5313,142.5469 Q882.1563,142.5469 882.75,142.2813 Q883.3438,142 883.9688,141.4219 L883.9688,144.1406 Z " fill="#000000"/><text fill="#000000" font-family="sans-serif" font-size="12" lengthAdjust="spacing" textLength="147" x="895" y="142.6543">Contribution Statement</text><line style="stroke:#A80036;stroke-width:1.5;" x1="867" x2="1044" y1="154.5" y2="154.5"/><line style="stroke:#A80036;stroke-width:1.5;" x1="867" x2="1044" y1="162.5" y2="162.5"/><!--MD5=[3f6954d26e8fa8feef64f8ba628c4304]
class Free Text Contribution--><rect codeLine="38" fill="#FEFECE" filter="url(#fgs235ie7msfb)" height="60.8047" id="Free Text Contribution" style="stroke:#A80036;stroke-width:1.5;" width="177" x="924" y="296"/><ellipse cx="941.7" cy="312" fill="#ADD1B2" rx="11" ry="11" style="stroke:#A80036;stroke-width:1.0;"/><path d="M944.6688,317.6406 Q944.0906,317.9375 943.45,318.0781 Q942.8094,318.2344 942.1063,318.2344 Q939.6063,318.2344 938.2781,316.5938 Q936.9656,314.9375 936.9656,311.8125 Q936.9656,308.6875 938.2781,307.0313 Q939.6063,305.375 942.1063,305.375 Q942.8094,305.375 943.45,305.5313 Q944.1063,305.6875 944.6688,305.9844 L944.6688,308.7031 Q944.0438,308.125 943.45,307.8594 Q942.8563,307.5781 942.2313,307.5781 Q940.8875,307.5781 940.2,308.6563 Q939.5125,309.7188 939.5125,311.8125 Q939.5125,313.9063 940.2,314.9844 Q940.8875,316.0469 942.2313,316.0469 Q942.8563,316.0469 943.45,315.7813 Q944.0438,315.5 944.6688,314.9219 L944.6688,317.6406 Z " fill="#000000"/><text fill="#000000" font-family="sans-serif" font-size="12" lengthAdjust="spacing" textLength="139" x="956.3" y="316.1543">Free Text Contribution</text><line style="stroke:#A80036;stroke-width:1.5;" x1="925" x2="1100" y1="328" y2="328"/><text fill="#000000" font-family="sans-serif" font-size="11" lengthAdjust="spacing" textLength="165" x="930" y="342.2104">Multilingual_String statement</text><line style="stroke:#A80036;stroke-width:1.5;" x1="925" x2="1100" y1="348.8047" y2="348.8047"/><!--MD5=[819e4821c75d866d91a46af0ea8026f8]
class Affiliation Statement--><rect codeLine="42" fill="#FEFECE" filter="url(#fgs235ie7msfb)" height="60.8047" id="Affiliation Statement" style="stroke:#A80036;stroke-width:1.5;" width="159" x="556" y="438"/><ellipse cx="571" cy="454" fill="#ADD1B2" rx="11" ry="11" style="stroke:#A80036;stroke-width:1.0;"/><path d="M573.9688,459.6406 Q573.3906,459.9375 572.75,460.0781 Q572.1094,460.2344 571.4063,460.2344 Q568.9063,460.2344 567.5781,458.5938 Q566.2656,456.9375 566.2656,453.8125 Q566.2656,450.6875 567.5781,449.0313 Q568.9063,447.375 571.4063,447.375 Q572.1094,447.375 572.75,447.5313 Q573.4063,447.6875 573.9688,447.9844 L573.9688,450.7031 Q573.3438,450.125 572.75,449.8594 Q572.1563,449.5781 571.5313,449.5781 Q570.1875,449.5781 569.5,450.6563 Q568.8125,451.7188 568.8125,453.8125 Q568.8125,455.9063 569.5,456.9844 Q570.1875,458.0469 571.5313,458.0469 Q572.1563,458.0469 572.75,457.7813 Q573.3438,457.5 573.9688,456.9219 L573.9688,459.6406 Z " fill="#000000"/><text fill="#000000" font-family="sans-serif" font-size="12" lengthAdjust="spacing" textLength="127" x="585" y="458.1543">Affiliation Statement</text><line style="stroke:#A80036;stroke-width:1.5;" x1="557" x2="714" y1="470" y2="470"/><text fill="#000000" font-family="sans-serif" font-size="11" lengthAdjust="spacing" textLength="130" x="562" y="484.2104">String displayAffiliation</text><line style="stroke:#A80036;stroke-width:1.5;" x1="557" x2="714" y1="490.8047" y2="490.8047"/><!--MD5=[5b6d5f043b17cf3ce8a453f9008bb166]
class Postal Address--><rect codeLine="45" fill="#FEFECE" filter="url(#fgs235ie7msfb)" height="86.4141" id="Postal Address" style="stroke:#A80036;stroke-width:1.5;" width="126" x="656.5" y="560"/><ellipse cx="671.5" cy="576" fill="#ADD1B2" rx="11" ry="11" style="stroke:#A80036;stroke-width:1.0;"/><path d="M674.4688,581.6406 Q673.8906,581.9375 673.25,582.0781 Q672.6094,582.2344 671.9063,582.2344 Q669.4063,582.2344 668.0781,580.5938 Q666.7656,578.9375 666.7656,575.8125 Q666.7656,572.6875 668.0781,571.0313 Q669.4063,569.375 671.9063,569.375 Q672.6094,569.375 673.25,569.5313 Q673.9063,569.6875 674.4688,569.9844 L674.4688,572.7031 Q673.8438,572.125 673.25,571.8594 Q672.6563,571.5781 672.0313,571.5781 Q670.6875,571.5781 670,572.6563 Q669.3125,573.7188 669.3125,575.8125 Q669.3125,577.9063 670,578.9844 Q670.6875,580.0469 672.0313,580.0469 Q672.6563,580.0469 673.25,579.7813 Q673.8438,579.5 674.4688,578.9219 L674.4688,581.6406 Z " fill="#000000"/><text fill="#000000" font-family="sans-serif" font-size="12" lengthAdjust="spacing" textLength="94" x="685.5" y="580.1543">Postal Address</text><line style="stroke:#A80036;stroke-width:1.5;" x1="657.5" x2="781.5" y1="592" y2="592"/><text fill="#000000" font-family="sans-serif" font-size="11" lengthAdjust="spacing" textLength="72" x="662.5" y="606.2104">String street</text><text fill="#000000" font-family="sans-serif" font-size="11" lengthAdjust="spacing" textLength="57" x="662.5" y="619.0151">String city</text><text fill="#000000" font-family="sans-serif" font-size="11" lengthAdjust="spacing" textLength="82" x="662.5" y="631.8198">String zipCode</text><line style="stroke:#A80036;stroke-width:1.5;" x1="657.5" x2="781.5" y1="638.4141" y2="638.4141"/><!--MD5=[deb4e1f6eb1e3c1256fdb830f96abfbb]
class Country--><rect codeLine="50" fill="#FEFECE" filter="url(#fgs235ie7msfb)" height="99.2188" id="Country" style="stroke:#A80036;stroke-width:1.5;" width="273" x="583" y="707"/><ellipse cx="691.25" cy="723" fill="#ADD1B2" rx="11" ry="11" style="stroke:#A80036;stroke-width:1.0;"/><path d="M694.2188,728.6406 Q693.6406,728.9375 693,729.0781 Q692.3594,729.2344 691.6563,729.2344 Q689.1563,729.2344 687.8281,727.5938 Q686.5156,725.9375 686.5156,722.8125 Q686.5156,719.6875 687.8281,718.0313 Q689.1563,716.375 691.6563,716.375 Q692.3594,716.375 693,716.5313 Q693.6563,716.6875 694.2188,716.9844 L694.2188,719.7031 Q693.5938,719.125 693,718.8594 Q692.4063,718.5781 691.7813,718.5781 Q690.4375,718.5781 689.75,719.6563 Q689.0625,720.7188 689.0625,722.8125 Q689.0625,724.9063 689.75,725.9844 Q690.4375,727.0469 691.7813,727.0469 Q692.4063,727.0469 693,726.7813 Q693.5938,726.5 694.2188,725.9219 L694.2188,728.6406 Z " fill="#000000"/><text fill="#000000" font-family="sans-serif" font-size="12" lengthAdjust="spacing" textLength="48" x="711.75" y="727.1543">Country</text><line style="stroke:#A80036;stroke-width:1.5;" x1="584" x2="855" y1="739" y2="739"/><text fill="#000000" font-family="sans-serif" font-size="11" lengthAdjust="spacing" textLength="139" x="589" y="753.2104">Multilingual_String name</text><text fill="#000000" font-family="sans-serif" font-size="11" lengthAdjust="spacing" textLength="229" x="589" y="766.0151">ISO3166_Alpha_Code iso3166alphaCode</text><text fill="#000000" font-family="sans-serif" font-size="11" lengthAdjust="spacing" textLength="261" x="589" y="778.8198">ISO3166_Numeric_Code iso3166NumericCode</text><text fill="#000000" font-family="sans-serif" font-size="11" lengthAdjust="spacing" textLength="191" x="589" y="791.6245">EU_Country_Code euCountryCode</text><line style="stroke:#A80036;stroke-width:1.5;" x1="584" x2="855" y1="798.2188" y2="798.2188"/><!--MD5=[406eabaf9672e74804bc505a9777bf8f]
class Textual Document--><rect fill="#FEFECE" filter="url(#fgs235ie7msfb)" height="48" id="Textual Document" style="stroke:#A80036;stroke-width:1.5;" width="145" x="474" y="122.5"/><ellipse cx="489" cy="138.5" fill="#ADD1B2" rx="11" ry="11" style="stroke:#A80036;stroke-width:1.0;"/><path d="M491.9688,144.1406 Q491.3906,144.4375 490.75,144.5781 Q490.1094,144.7344 489.4063,144.7344 Q486.9063,144.7344 485.5781,143.0938 Q484.2656,141.4375 484.2656,138.3125 Q484.2656,135.1875 485.5781,133.5313 Q486.9063,131.875 489.4063,131.875 Q490.1094,131.875 490.75,132.0313 Q491.4063,132.1875 491.9688,132.4844 L491.9688,135.2031 Q491.3438,134.625 490.75,134.3594 Q490.1563,134.0781 489.5313,134.0781 Q488.1875,134.0781 487.5,135.1563 Q486.8125,136.2188 486.8125,138.3125 Q486.8125,140.4063 487.5,141.4844 Q488.1875,142.5469 489.5313,142.5469 Q490.1563,142.5469 490.75,142.2813 Q491.3438,142 491.9688,141.4219 L491.9688,144.1406 Z " fill="#000000"/><text fill="#000000" font-family="sans-serif" font-size="12" lengthAdjust="spacing" textLength="113" x="503" y="142.6543">Textual Document</text><line style="stroke:#A80036;stroke-width:1.5;" x1="475" x2="618" y1="154.5" y2="154.5"/><line style="stroke:#A80036;stroke-width:1.5;" x1="475" x2="618" y1="162.5" y2="162.5"/><!--MD5=[05b685b8e32e000146d4e5203ae16c64]
class Textual Document Accessibility Specification--><rect fill="#FEFECE" filter="url(#fgs235ie7msfb)" height="48" id="Textual Document Accessibility Specification" style="stroke:#A80036;stroke-width:1.5;" width="308" x="392.5" y="7"/><ellipse cx="407.5" cy="23" fill="#ADD1B2" rx="11" ry="11" style="stroke:#A80036;stroke-width:1.0;"/><path d="M410.4688,28.6406 Q409.8906,28.9375 409.25,29.0781 Q408.6094,29.2344 407.9063,29.2344 Q405.4063,29.2344 404.0781,27.5938 Q402.7656,25.9375 402.7656,22.8125 Q402.7656,19.6875 404.0781,18.0313 Q405.4063,16.375 407.9063,16.375 Q408.6094,16.375 409.25,16.5313 Q409.9063,16.6875 410.4688,16.9844 L410.4688,19.7031 Q409.8438,19.125 409.25,18.8594 Q408.6563,18.5781 408.0313,18.5781 Q406.6875,18.5781 406,19.6563 Q405.3125,20.7188 405.3125,22.8125 Q405.3125,24.9063 406,25.9844 Q406.6875,27.0469 408.0313,27.0469 Q408.6563,27.0469 409.25,26.7813 Q409.8438,26.5 410.4688,25.9219 L410.4688,28.6406 Z " fill="#000000"/><text fill="#000000" font-family="sans-serif" font-size="12" lengthAdjust="spacing" textLength="276" x="421.5" y="27.1543">Textual Document Accessibility Specification</text><line style="stroke:#A80036;stroke-width:1.5;" x1="393.5" x2="699.5" y1="39" y2="39"/><line style="stroke:#A80036;stroke-width:1.5;" x1="393.5" x2="699.5" y1="47" y2="47"/><path d="M6,276 L6,376.7969 A0,0 0 0 0 6,376.7969 L271,376.7969 A0,0 0 0 0 271,376.7969 L271,330.5 L305.78,326.5 L271,322.5 L271,286 L261,276 L6,276 A0,0 0 0 0 6,276 " fill="#FBFB77" filter="url(#fgs235ie7msfb)" style="stroke:#A80036;stroke-width:1.0;"/><path d="M261,276 L261,286 L271,286 L261,276 " fill="#FBFB77" style="stroke:#A80036;stroke-width:1.0;"/><text fill="#000000" font-family="sans-serif" font-size="13" lengthAdjust="spacing" textLength="240" x="12" y="293.0669">The Agent is mandatory for almost all</text><text fill="#000000" font-family="sans-serif" font-size="13" lengthAdjust="spacing" textLength="192" x="12" y="308.1997">subclasses of Contributorship,</text><text fill="#000000" font-family="sans-serif" font-size="13" lengthAdjust="spacing" textLength="203" x="12" y="323.3325">Reviewing is the exception if the</text><text fill="#000000" font-family="sans-serif" font-size="13" lengthAdjust="spacing" textLength="201" x="12" y="338.4653">reviewer's identity is concealed.</text><text fill="#000000" font-family="sans-serif" font-size="13" lengthAdjust="spacing" textLength="184" x="12" y="353.5981">Also useful when authors are</text><text fill="#000000" font-family="sans-serif" font-size="13" lengthAdjust="spacing" textLength="124" x="12" y="368.731">using pseudonyms.</text><!--MD5=[f88c115e3130e3b4ff5649ba9e133055]
reverse link Postal Address to Country--><path codeLine="56" d="M719.5,659.46 C719.5,674.98 719.5,691.74 719.5,706.84 " fill="none" id="Postal Address-backto-Country" style="stroke:#A80036;stroke-width:1.0;"/><polygon fill="#A80036" points="719.5,646.2,715.5,652.2,719.5,658.2,723.5,652.2,719.5,646.2" style="stroke:#A80036;stroke-width:1.0;"/><text fill="#000000" font-family="sans-serif" font-size="13" lengthAdjust="spacing" textLength="48" x="668.125" y="695.8627">country</text><!--MD5=[8528c0d5784524a7ac31969edc457096]
reverse link Affiliation Statement to Postal Address--><path codeLine="57" d="M661.32,510.22 C671.29,525.95 682.69,543.94 692.75,559.8 " fill="none" id="Affiliation Statement-backto-Postal Address" style="stroke:#A80036;stroke-width:1.0;"/><polygon fill="#A80036" points="654.35,499.24,654.1851,506.4492,660.7763,509.3742,660.9412,502.165,654.35,499.24" style="stroke:#A80036;stroke-width:1.0;"/><text fill="#000000" font-family="sans-serif" font-size="13" lengthAdjust="spacing" textLength="91" x="695.6211" y="549.0819">postalAddress</text><!--MD5=[4904fd3a26b4d7fe956968cf0a0d8a9b]
reverse link Affiliation Statement to Organisation Unit--><path codeLine="58" d="M596.37,509.69 C581.17,529.87 565.18,553.89 554.8,572.36 " fill="none" id="Affiliation Statement-backto-Organisation Unit" style="stroke:#A80036;stroke-width:1.0;"/><polygon fill="#A80036" points="604.46,499.24,597.6234,501.5335,597.111,508.7264,603.9476,506.4329,604.46,499.24" style="stroke:#A80036;stroke-width:1.0;"/><text fill="#000000" font-family="sans-serif" font-size="13" lengthAdjust="spacing" textLength="47" x="504.8713" y="561.5944">orgUnit</text><!--MD5=[4904fd3a26b4d7fe956968cf0a0d8a9b]
reverse link Affiliation Statement to Organisation Unit--><path codeLine="59" d="M620.22,510.53 C608.15,530.53 591.74,554.14 577.1,572.36 " fill="none" id="Affiliation Statement-backto-Organisation Unit-1" style="stroke:#A80036;stroke-width:1.0;"/><polygon fill="#A80036" points="626.78,499.24,620.3079,502.42,620.7541,509.6173,627.2261,506.4373,626.78,499.24" style="stroke:#A80036;stroke-width:1.0;"/><text fill="#000000" font-family="sans-serif" font-size="13" lengthAdjust="spacing" textLength="63" x="585.373" y="559.3608">institution</text><!--MD5=[1e703325bca9787769503a051e7183a5]
reverse link Contribution Statement to Free Text Contribution--><path codeLine="61" d="M969.19,190.25 C979.62,222.83 993.72,266.85 1002.96,295.69 " fill="none" id="Contribution Statement-backto-Free Text Contribution" style="stroke:#A80036;stroke-width:1.0;"/><polygon fill="none" points="962.38,191.95,962.95,170.77,975.72,187.68,962.38,191.95" style="stroke:#A80036;stroke-width:1.0;"/><!--MD5=[504de05de5dc33320621ff1be2e6e6ff]
reverse link Agent to Contributorship--><path codeLine="65" d="M355.03,290.31 C366.31,267.49 384.39,239.89 410,226.5 C534.07,161.64 595.72,172.76 725,226.5 C755.64,239.24 781.72,266.51 799.49,289.36 " fill="none" id="Agent-backto-Contributorship" style="stroke:#A80036;stroke-width:1.0;"/><polygon fill="#A80036" points="349.45,302.37,355.5991,298.6032,354.4871,291.4783,348.338,295.2452,349.45,302.37" style="stroke:#A80036;stroke-width:1.0;"/><!--MD5=[4629ab2f8b8cc60994d50cb24184a136]
reverse link Contributorship to Affiliation Statement--><path codeLine="67" d="M765.31,371.34 C736.04,393.02 701.5,418.61 675.41,437.94 " fill="none" id="Contributorship-backto-Affiliation Statement" style="stroke:#A80036;stroke-width:1.0;"/><polygon fill="#FFFFFF" points="775.83,363.55,768.6279,363.9104,766.1906,370.6971,773.3927,370.3367,775.83,363.55" style="stroke:#A80036;stroke-width:1.0;"/><text fill="#000000" font-family="sans-serif" font-size="13" lengthAdjust="spacing" textLength="64" x="613.1403" y="426.7172">affiliations</text><!--MD5=[87dce73954b4196bb1c032bbee886bf4]
link Contribution Statement to Contributorship--><path codeLine="69" d="M938.37,170.77 C918.35,197.98 884.69,243.71 859.15,278.42 " fill="none" id="Contribution Statement-to-Contributorship" style="stroke:#A80036;stroke-width:1.0;"/><polygon fill="#FFFFFF" points="851.17,289.26,857.947,286.7958,858.2789,279.5924,851.5019,282.0565,851.17,289.26" style="stroke:#A80036;stroke-width:1.0;"/><text fill="#000000" font-family="sans-serif" font-size="13" lengthAdjust="spacing" textLength="152" x="763.6696" y="190.597">contributionStatements</text><!--MD5=[515627370d950159b283430218e15046]
link Authorship to Textual Document--><path codeLine="71" d="M438.63,146.5 C445.92,146.5 453.2,146.5 460.49,146.5 " fill="none" id="Authorship-to-Textual Document" style="stroke:#A80036;stroke-width:1.0;"/><polygon fill="#A80036" points="473.6,146.5,467.6,142.5,461.6,146.5,467.6,150.5,473.6,146.5" style="stroke:#A80036;stroke-width:1.0;"/><!--MD5=[e74e4958a1d7eb99db8e977d8859ba66]
link Authorship to Contributorship--><path codeLine="72" d="M438.66,172.62 C522.28,194.88 642.64,230.83 742.5,276 C745.2,277.22 747.92,278.51 750.64,279.86 " fill="none" id="Authorship-to-Contributorship" style="stroke:#A80036;stroke-width:1.0;"/><polygon fill="none" points="754.15,273.79,768.54,289.35,747.59,286.16,754.15,273.79" style="stroke:#A80036;stroke-width:1.0;"/><!--MD5=[49125a4ba45432b051dcbcd9e53401d7]
link Authorship to Agent--><path codeLine="73" d="M301.84,177.18 C293.99,185.91 286.72,196.07 282.5,207 C276.26,223.17 277.13,229.52 282.5,246 C288.84,265.45 301.94,284.1 314.09,298.44 " fill="none" id="Authorship-to-Agent" style="stroke:#A80036;stroke-width:1.0;"/><polygon fill="#A80036" points="317.48,302.37,314.6219,292.945,314.2108,298.5868,308.5689,298.1757,317.48,302.37" style="stroke:#A80036;stroke-width:1.0;"/><path d="M287.5,212 L287.5,237 L450.5,237 L450.5,222 L440.5,212 L287.5,212 " fill="#FF0000" filter="url(#fgs235ie7msfb)" style="stroke:#A80036;stroke-width:1.0;"/><path d="M440.5,212 L440.5,222 L450.5,222 L440.5,212 " fill="#FF0000" style="stroke:#A80036;stroke-width:1.0;"/><text fill="#000000" font-family="sans-serif" font-size="13" lengthAdjust="spacing" textLength="142" x="293.5" y="229.0669">author == contributor</text><text fill="#000000" font-family="sans-serif" font-size="13" lengthAdjust="spacing" textLength="42" x="279.3283" y="287.2701">author</text><!--MD5=[9a7235b84334665fcda294365fcaf4f5]
reverse link Person to Person Name--><path codeLine="75" d="M340.5,512.53 C340.5,527.69 340.5,544.71 340.5,559.8 " fill="none" id="Person-backto-Person Name" style="stroke:#A80036;stroke-width:1.0;"/><polygon fill="#FFFFFF" points="340.5,499.24,336.5,505.24,340.5,511.24,344.5,505.24,340.5,499.24" style="stroke:#A80036;stroke-width:1.0;"/><text fill="#000000" font-family="sans-serif" font-size="13" lengthAdjust="spacing" textLength="44" x="293.1313" y="549.0819">names</text><!--MD5=[de96f77e660762cb21a195b4097c3876]
reverse link Agent to Person--><path codeLine="76" d="M340.5,370.63 C340.5,392.39 340.5,418.24 340.5,437.76 " fill="none" id="Agent-backto-Person" style="stroke:#A80036;stroke-width:1.0;"/><polygon fill="none" points="333.5,370.62,340.5,350.62,347.5,370.62,333.5,370.62" style="stroke:#A80036;stroke-width:1.0;"/><!--MD5=[58a58d00e9270883bf92cdf281f32c1a]
reverse link Agent to Organisation Unit--><path codeLine="77" d="M370.2,367.27 C411.69,422.83 486.07,522.42 523.17,572.1 " fill="none" id="Agent-backto-Organisation Unit" style="stroke:#A80036;stroke-width:1.0;"/><polygon fill="none" points="364.34,371.12,357.98,350.9,375.55,362.74,364.34,371.12" style="stroke:#A80036;stroke-width:1.0;"/><!--MD5=[0cd4e18d651655357be10210466ee4fc]
link Textual Document to Document--><path codeLine="79" d="M549.25,170.77 C552.38,197.3 557.58,241.45 561.64,275.81 " fill="none" id="Textual Document-to-Document" style="stroke:#A80036;stroke-width:1.0;"/><polygon fill="none" points="568.59,275.01,563.98,295.69,554.69,276.65,568.59,275.01" style="stroke:#A80036;stroke-width:1.0;"/><!--MD5=[467b17589d7b3ec09474af6cf2c3322d]
link Textual Document Accessibility Specification to Textual Document--><path codeLine="81" d="M546.5,55.24 C546.5,70.77 546.5,91.52 546.5,109.21 " fill="none" id="Textual Document Accessibility Specification-to-Textual Document" style="stroke:#A80036;stroke-width:1.0;"/><polygon fill="#A80036" points="546.5,122.29,550.5,116.29,546.5,110.29,542.5,116.29,546.5,122.29" style="stroke:#A80036;stroke-width:1.0;"/><text fill="#000000" font-family="sans-serif" font-size="13" lengthAdjust="spacing" textLength="83" x="453.3844" y="75.0597">accessRights</text><!--MD5=[d5a6c053a39d24fd07d740a282fdedf6]
reverse link Textual Document to Agent--><path codeLine="82" d="M525.64,181.7 C511.43,202.61 490.98,228.6 467.5,246 C438.65,267.37 422.71,256.61 392.5,276 C381.17,283.27 370.15,293.22 361.19,302.29 " fill="none" id="Textual Document-backto-Agent" style="stroke:#A80036;stroke-width:1.0;"/><polygon fill="#A80036" points="532.87,170.69,526.2332,173.5101,526.2838,180.7211,532.9206,177.9009,532.87,170.69" style="stroke:#A80036;stroke-width:1.0;"/><text fill="#000000" font-family="sans-serif" font-size="13" lengthAdjust="spacing" textLength="49" x="311.2137" y="291.2482">authors</text><!--MD5=[3f348dceb67becc418d73171d5101ec4]
@startuml
    !startsub Document
    class "Document"{
        Multilingual_String title
        Date publicationDate
        DOI_Type DOI
    }
    class "Textual Document"{
    }
    !endsub
    !startsub TDAS
    class "Textual Document Accessibility Specification"{
    }
    !endsub
    class "Agent"{

    }
    class "Organisation Unit"{
        Multilingual_String name
    }
    class "Person"{
        ORCID_iD orcidid
    }
    class "Person Name"{
        String firstNames
        String familyNames
        String otherNames
    }
    class "Authorship"{
        Boolean correspondingAuthorFlag
    }
    !startsub Contributorship
    class "Contributorship"{
        List<URI> contacts
        String displayName
    }
    class "Contribution Statement"{
    }
    class "Free Text Contribution"{
        Multilingual_String statement
    }
    !endsub
    class "Affiliation Statement"{
        String displayAffiliation
    }
    class "Postal Address"{
        String street
        String city
        String zipCode
    }
    class "Country"{
        Multilingual_String name
        ISO3166_Alpha_Code iso3166alphaCode
        ISO3166_Numeric_Code iso3166NumericCode
        EU_Country_Code euCountryCode
    }
    "Postal Address" *- - "country" "Country"
    "Affiliation Statement" *- - "postalAddress" "Postal Address"
    "Affiliation Statement" *- - "orgUnit" "Organisation Unit"
    "Affiliation Statement" *- - "institution" "Organisation Unit"
    !startsub Contributorship
    "Contribution Statement" <|- - "Free Text Contribution"
    "Contributorship" -r-* "Document"
    !endsub
    !startsub Contributorship
    "Contributorship" -l-* "Agent"
    !endsub
    "Contributorship" o- - "affiliations" "Affiliation Statement"
    !startsub Contributorship
    "Contributorship" o-u- "contributionStatements" "Contribution Statement"
    !endsub
    "Authorship" -r-* "Textual Document"
    "Contributorship" <|-u- "Authorship"
    "Authorship" - -> "author" "Agent"
    note on link #red: author == contributor
    "Person" o-d- "names" "Person Name"
    "Agent" <|-d- "Person"
    "Agent" <|-d- "Organisation Unit"
    !startsub Document
    "Document" <|-u- "Textual Document"
    !endsub
    "Textual Document" *-u- "accessRights" "Textual Document Accessibility Specification"
    "Textual Document" *- -  "authors" "Agent"

    note left of Agent: The Agent is mandatory for almost all \nsubclasses of Contributorship,\nReviewing is the exception if the \nreviewer's identity is concealed. \nAlso useful when authors are \nusing pseudonyms.
@enduml

@startuml
    class "Document"{
    class "Textual Document Accessibility Specification"{
    }
    class "Agent"{

    }
    class "Organisation Unit"{
        Multilingual_String name
    }
    class "Person"{
        ORCID_iD orcidid
    }
    class "Person Name"{
        String firstNames
        String familyNames
        String otherNames
    }
    class "Authorship"{
        Boolean correspondingAuthorFlag
    }
    class "Contributorship"{
        List<URI> contacts
        String displayName
    }
    class "Contribution Statement"{
    }
    class "Free Text Contribution"{
        Multilingual_String statement
    }
    class "Affiliation Statement"{
        String displayAffiliation
    }
    class "Postal Address"{
        String street
        String city
        String zipCode
    }
    class "Country"{
        Multilingual_String name
        ISO3166_Alpha_Code iso3166alphaCode
        ISO3166_Numeric_Code iso3166NumericCode
        EU_Country_Code euCountryCode
    }
    "Postal Address" *- - "country" "Country"
    "Affiliation Statement" *- - "postalAddress" "Postal Address"
    "Affiliation Statement" *- - "orgUnit" "Organisation Unit"
    "Affiliation Statement" *- - "institution" "Organisation Unit"
    "Contribution Statement" <|- - "Free Text Contribution"
    "Contributorship" -l-* "Agent"
    "Contributorship" o- - "affiliations" "Affiliation Statement"
    "Contributorship" o-u- "contributionStatements" "Contribution Statement"
    "Authorship" -r-* "Textual Document"
    "Contributorship" <|-u- "Authorship"
    "Authorship" - -> "author" "Agent"
    note on link #red: author == contributor
    "Person" o-d- "names" "Person Name"
    "Agent" <|-d- "Person"
    "Agent" <|-d- "Organisation Unit"
    "Document" <|-u- "Textual Document"
    "Textual Document" *-u- "accessRights" "Textual Document Accessibility Specification"
    "Textual Document" *- -  "authors" "Agent"

    note left of Agent: The Agent is mandatory for almost all \nsubclasses of Contributorship,\nReviewing is the exception if the \nreviewer's identity is concealed. \nAlso useful when authors are \nusing pseudonyms.
@enduml

PlantUML version 1.2021.8(Sat Jun 26 08:20:59 UTC 2021)
(GPL source distribution)
Java Runtime: OpenJDK Runtime Environment
JVM: OpenJDK 64-Bit Server VM
Default Encoding: UTF-8
Language: en
Country: null
--></g></svg>