<?xml version="1.0" encoding="UTF-8" standalone="no"?><svg xmlns="http://www.w3.org/2000/svg" xmlns:xlink="http://www.w3.org/1999/xlink" contentScriptType="application/ecmascript" contentStyleType="text/css" height="523px" preserveAspectRatio="none" style="width:934px;height:523px;background:#FFFFFF;" version="1.1" viewBox="0 0 934 523" width="934px" zoomAndPan="magnify"><defs><filter height="300%" id="f1ee1w7j15xcso" width="300%" x="-1" y="-1"><feGaussianBlur result="blurOut" stdDeviation="2.0"/><feColorMatrix in="blurOut" result="blurOut2" type="matrix" values="0 0 0 0 0 0 0 0 0 0 0 0 0 0 0 0 0 0 .4 0"/><feOffset dx="4.0" dy="4.0" in="blurOut2" result="blurOut3"/><feBlend in="SourceGraphic" in2="blurOut3" mode="normal"/></filter></defs><g><!--MD5=[0ce99cd3eae675f87caad727cac20a4b]
cluster CERIF core--><polygon fill="#EFEFEF" filter="url(#f1ee1w7j15xcso)" points="16,6,100,6,107,29.6094,617,29.6094,617,232,16,232,16,6" style="stroke:#000000;stroke-width:1.5;"/><line style="stroke:#000000;stroke-width:1.5;" x1="16" x2="107" y1="29.6094" y2="29.6094"/><text fill="#000000" font-family="sans-serif" font-size="14" font-weight="bold" lengthAdjust="spacing" textLength="78" x="20" y="22.5332">CERIF core</text><!--MD5=[59b530d44ae785dc18db921986a9c15c]
class Document--><rect codeLine="7" fill="#FEFECE" filter="url(#f1ee1w7j15xcso)" height="81.5078" id="Document" style="stroke:#A80036;stroke-width:1.5;" width="122" x="32" y="134"/><ellipse cx="61.85" cy="150" fill="#ADD1B2" rx="11" ry="11" style="stroke:#A80036;stroke-width:1.0;"/><path d="M64.6156,145.875 Q64.7719,145.6563 64.9594,145.5469 Q65.1469,145.4375 65.3656,145.4375 Q65.7406,145.4375 65.975,145.6953 Q66.2094,145.9531 66.2094,146.5625 L66.2094,148.0156 Q66.2094,148.625 65.975,148.8906 Q65.7406,149.1563 65.3656,149.1563 Q65.0219,149.1563 64.8188,148.9531 Q64.6156,148.7656 64.5063,148.25 Q64.4594,147.8906 64.2719,147.7031 Q63.9438,147.3281 63.3344,147.1094 Q62.725,146.8906 62.1,146.8906 Q61.3344,146.8906 60.7016,147.2188 Q60.0688,147.5469 59.5766,148.2969 Q59.0844,149.0469 59.0844,150.0781 L59.0844,151.1719 Q59.0844,152.4063 59.975,153.2266 Q60.8656,154.0469 62.4594,154.0469 Q63.3969,154.0469 64.0531,153.7969 Q64.4438,153.6406 64.8656,153.2031 Q65.1313,152.9375 65.2797,152.8594 Q65.4281,152.7813 65.6313,152.7813 Q65.9594,152.7813 66.2172,153.0391 Q66.475,153.2969 66.475,153.6406 Q66.475,153.9844 66.1313,154.3906 Q65.6313,154.9688 64.8344,155.2969 Q63.7563,155.75 62.4594,155.75 Q60.9438,155.75 59.7406,155.125 Q58.7563,154.625 58.0688,153.5547 Q57.3813,152.4844 57.3813,151.2031 L57.3813,150.0469 Q57.3813,148.7188 57.9984,147.5703 Q58.6156,146.4219 59.7094,145.8047 Q60.8031,145.1875 62.0375,145.1875 Q62.7719,145.1875 63.4203,145.3516 Q64.0688,145.5156 64.6156,145.875 Z " fill="#000000"/><text fill="#000000" font-family="sans-serif" font-size="12" lengthAdjust="spacing" textLength="57" x="79.15" y="154.9102">Document</text><line style="stroke:#A80036;stroke-width:1.5;" x1="33" x2="153" y1="166" y2="166"/><text fill="#000000" font-family="sans-serif" font-size="11" lengthAdjust="spacing" textLength="110" x="38" y="181.4189">title : Multilingual_String</text><text fill="#000000" font-family="sans-serif" font-size="11" lengthAdjust="spacing" textLength="104" x="38" y="195.2549">publicationDate : Date</text><text fill="#000000" font-family="sans-serif" font-size="11" lengthAdjust="spacing" textLength="73" x="38" y="209.0908">DOI : DOI_Type</text><!--MD5=[fe105c2ee1fabf2400c31a97ce9128bc]
class Textual_Document--><rect codeLine="12" fill="#FEFECE" filter="url(#f1ee1w7j15xcso)" height="32" id="Textual_Document" style="stroke:#A80036;stroke-width:1.5;" width="135" x="32.5" y="42"/><ellipse cx="47.5" cy="58" fill="#ADD1B2" rx="11" ry="11" style="stroke:#A80036;stroke-width:1.0;"/><path d="M50.2656,53.875 Q50.4219,53.6563 50.6094,53.5469 Q50.7969,53.4375 51.0156,53.4375 Q51.3906,53.4375 51.625,53.6953 Q51.8594,53.9531 51.8594,54.5625 L51.8594,56.0156 Q51.8594,56.625 51.625,56.8906 Q51.3906,57.1563 51.0156,57.1563 Q50.6719,57.1563 50.4688,56.9531 Q50.2656,56.7656 50.1563,56.25 Q50.1094,55.8906 49.9219,55.7031 Q49.5938,55.3281 48.9844,55.1094 Q48.375,54.8906 47.75,54.8906 Q46.9844,54.8906 46.3516,55.2188 Q45.7188,55.5469 45.2266,56.2969 Q44.7344,57.0469 44.7344,58.0781 L44.7344,59.1719 Q44.7344,60.4063 45.625,61.2266 Q46.5156,62.0469 48.1094,62.0469 Q49.0469,62.0469 49.7031,61.7969 Q50.0938,61.6406 50.5156,61.2031 Q50.7813,60.9375 50.9297,60.8594 Q51.0781,60.7813 51.2813,60.7813 Q51.6094,60.7813 51.8672,61.0391 Q52.125,61.2969 52.125,61.6406 Q52.125,61.9844 51.7813,62.3906 Q51.2813,62.9688 50.4844,63.2969 Q49.4063,63.75 48.1094,63.75 Q46.5938,63.75 45.3906,63.125 Q44.4063,62.625 43.7188,61.5547 Q43.0313,60.4844 43.0313,59.2031 L43.0313,58.0469 Q43.0313,56.7188 43.6484,55.5703 Q44.2656,54.4219 45.3594,53.8047 Q46.4531,53.1875 47.6875,53.1875 Q48.4219,53.1875 49.0703,53.3516 Q49.7188,53.5156 50.2656,53.875 Z " fill="#000000"/><text fill="#000000" font-family="sans-serif" font-size="12" lengthAdjust="spacing" textLength="103" x="61.5" y="62.9102">Textual_Document</text><!--MD5=[b821bb113f9f55c728f1fbb8949cc3af]
class Contributorship--><rect codeLine="37" fill="#FEFECE" filter="url(#f1ee1w7j15xcso)" height="67.6719" id="Contributorship" style="stroke:#A80036;stroke-width:1.5;" width="117" x="483.5" y="141"/><ellipse cx="498.5" cy="157" fill="#ADD1B2" rx="11" ry="11" style="stroke:#A80036;stroke-width:1.0;"/><path d="M501.2656,152.875 Q501.4219,152.6563 501.6094,152.5469 Q501.7969,152.4375 502.0156,152.4375 Q502.3906,152.4375 502.625,152.6953 Q502.8594,152.9531 502.8594,153.5625 L502.8594,155.0156 Q502.8594,155.625 502.625,155.8906 Q502.3906,156.1563 502.0156,156.1563 Q501.6719,156.1563 501.4688,155.9531 Q501.2656,155.7656 501.1563,155.25 Q501.1094,154.8906 500.9219,154.7031 Q500.5938,154.3281 499.9844,154.1094 Q499.375,153.8906 498.75,153.8906 Q497.9844,153.8906 497.3516,154.2188 Q496.7188,154.5469 496.2266,155.2969 Q495.7344,156.0469 495.7344,157.0781 L495.7344,158.1719 Q495.7344,159.4063 496.625,160.2266 Q497.5156,161.0469 499.1094,161.0469 Q500.0469,161.0469 500.7031,160.7969 Q501.0938,160.6406 501.5156,160.2031 Q501.7813,159.9375 501.9297,159.8594 Q502.0781,159.7813 502.2813,159.7813 Q502.6094,159.7813 502.8672,160.0391 Q503.125,160.2969 503.125,160.6406 Q503.125,160.9844 502.7813,161.3906 Q502.2813,161.9688 501.4844,162.2969 Q500.4063,162.75 499.1094,162.75 Q497.5938,162.75 496.3906,162.125 Q495.4063,161.625 494.7188,160.5547 Q494.0313,159.4844 494.0313,158.2031 L494.0313,157.0469 Q494.0313,155.7188 494.6484,154.5703 Q495.2656,153.4219 496.3594,152.8047 Q497.4531,152.1875 498.6875,152.1875 Q499.4219,152.1875 500.0703,152.3516 Q500.7188,152.5156 501.2656,152.875 Z " fill="#000000"/><text fill="#000000" font-family="sans-serif" font-size="12" lengthAdjust="spacing" textLength="85" x="512.5" y="161.9102">Contributorship</text><line style="stroke:#A80036;stroke-width:1.5;" x1="484.5" x2="599.5" y1="173" y2="173"/><text fill="#000000" font-family="sans-serif" font-size="11" lengthAdjust="spacing" textLength="96" x="489.5" y="188.4189">contacts : List&lt;URI&gt;</text><text fill="#000000" font-family="sans-serif" font-size="11" lengthAdjust="spacing" textLength="98" x="489.5" y="202.2549">displayName : String</text><!--MD5=[532fe005ca0bef0ad6b309c9c6480e22]
class Contribution_Statement--><rect codeLine="41" fill="#FEFECE" filter="url(#f1ee1w7j15xcso)" height="32" id="Contribution_Statement" style="stroke:#A80036;stroke-width:1.5;" width="162" x="439" y="42"/><ellipse cx="454" cy="58" fill="#ADD1B2" rx="11" ry="11" style="stroke:#A80036;stroke-width:1.0;"/><path d="M456.7656,53.875 Q456.9219,53.6563 457.1094,53.5469 Q457.2969,53.4375 457.5156,53.4375 Q457.8906,53.4375 458.125,53.6953 Q458.3594,53.9531 458.3594,54.5625 L458.3594,56.0156 Q458.3594,56.625 458.125,56.8906 Q457.8906,57.1563 457.5156,57.1563 Q457.1719,57.1563 456.9688,56.9531 Q456.7656,56.7656 456.6563,56.25 Q456.6094,55.8906 456.4219,55.7031 Q456.0938,55.3281 455.4844,55.1094 Q454.875,54.8906 454.25,54.8906 Q453.4844,54.8906 452.8516,55.2188 Q452.2188,55.5469 451.7266,56.2969 Q451.2344,57.0469 451.2344,58.0781 L451.2344,59.1719 Q451.2344,60.4063 452.125,61.2266 Q453.0156,62.0469 454.6094,62.0469 Q455.5469,62.0469 456.2031,61.7969 Q456.5938,61.6406 457.0156,61.2031 Q457.2813,60.9375 457.4297,60.8594 Q457.5781,60.7813 457.7813,60.7813 Q458.1094,60.7813 458.3672,61.0391 Q458.625,61.2969 458.625,61.6406 Q458.625,61.9844 458.2813,62.3906 Q457.7813,62.9688 456.9844,63.2969 Q455.9063,63.75 454.6094,63.75 Q453.0938,63.75 451.8906,63.125 Q450.9063,62.625 450.2188,61.5547 Q449.5313,60.4844 449.5313,59.2031 L449.5313,58.0469 Q449.5313,56.7188 450.1484,55.5703 Q450.7656,54.4219 451.8594,53.8047 Q452.9531,53.1875 454.1875,53.1875 Q454.9219,53.1875 455.5703,53.3516 Q456.2188,53.5156 456.7656,53.875 Z " fill="#000000"/><text fill="#000000" font-family="sans-serif" font-size="12" lengthAdjust="spacing" textLength="130" x="468" y="62.9102">Contribution_Statement</text><!--MD5=[e67d803be009978640e98815ecdddf28]
class Free_Text_Contribution--><rect codeLine="43" fill="#FEFECE" filter="url(#f1ee1w7j15xcso)" height="53.8359" id="Free_Text_Contribution" style="stroke:#A80036;stroke-width:1.5;" width="160" x="288" y="148"/><ellipse cx="303" cy="164" fill="#ADD1B2" rx="11" ry="11" style="stroke:#A80036;stroke-width:1.0;"/><path d="M305.7656,159.875 Q305.9219,159.6563 306.1094,159.5469 Q306.2969,159.4375 306.5156,159.4375 Q306.8906,159.4375 307.125,159.6953 Q307.3594,159.9531 307.3594,160.5625 L307.3594,162.0156 Q307.3594,162.625 307.125,162.8906 Q306.8906,163.1563 306.5156,163.1563 Q306.1719,163.1563 305.9688,162.9531 Q305.7656,162.7656 305.6563,162.25 Q305.6094,161.8906 305.4219,161.7031 Q305.0938,161.3281 304.4844,161.1094 Q303.875,160.8906 303.25,160.8906 Q302.4844,160.8906 301.8516,161.2188 Q301.2188,161.5469 300.7266,162.2969 Q300.2344,163.0469 300.2344,164.0781 L300.2344,165.1719 Q300.2344,166.4063 301.125,167.2266 Q302.0156,168.0469 303.6094,168.0469 Q304.5469,168.0469 305.2031,167.7969 Q305.5938,167.6406 306.0156,167.2031 Q306.2813,166.9375 306.4297,166.8594 Q306.5781,166.7813 306.7813,166.7813 Q307.1094,166.7813 307.3672,167.0391 Q307.625,167.2969 307.625,167.6406 Q307.625,167.9844 307.2813,168.3906 Q306.7813,168.9688 305.9844,169.2969 Q304.9063,169.75 303.6094,169.75 Q302.0938,169.75 300.8906,169.125 Q299.9063,168.625 299.2188,167.5547 Q298.5313,166.4844 298.5313,165.2031 L298.5313,164.0469 Q298.5313,162.7188 299.1484,161.5703 Q299.7656,160.4219 300.8594,159.8047 Q301.9531,159.1875 303.1875,159.1875 Q303.9219,159.1875 304.5703,159.3516 Q305.2188,159.5156 305.7656,159.875 Z " fill="#000000"/><text fill="#000000" font-family="sans-serif" font-size="12" lengthAdjust="spacing" textLength="128" x="317" y="168.9102">Free_Text_Contribution</text><line style="stroke:#A80036;stroke-width:1.5;" x1="289" x2="447" y1="180" y2="180"/><text fill="#000000" font-family="sans-serif" font-size="11" lengthAdjust="spacing" textLength="141" x="294" y="195.4189">statement : Multilingual_String</text><!--MD5=[9d44916250b776386006c440668bcfbb]
class Agent--><rect fill="#FEFECE" filter="url(#f1ee1w7j15xcso)" height="32" id="Agent" style="stroke:#A80036;stroke-width:1.5;" width="63" x="189.5" y="159"/><ellipse cx="204.5" cy="175" fill="#ADD1B2" rx="11" ry="11" style="stroke:#A80036;stroke-width:1.0;"/><path d="M207.2656,170.875 Q207.4219,170.6563 207.6094,170.5469 Q207.7969,170.4375 208.0156,170.4375 Q208.3906,170.4375 208.625,170.6953 Q208.8594,170.9531 208.8594,171.5625 L208.8594,173.0156 Q208.8594,173.625 208.625,173.8906 Q208.3906,174.1563 208.0156,174.1563 Q207.6719,174.1563 207.4688,173.9531 Q207.2656,173.7656 207.1563,173.25 Q207.1094,172.8906 206.9219,172.7031 Q206.5938,172.3281 205.9844,172.1094 Q205.375,171.8906 204.75,171.8906 Q203.9844,171.8906 203.3516,172.2188 Q202.7188,172.5469 202.2266,173.2969 Q201.7344,174.0469 201.7344,175.0781 L201.7344,176.1719 Q201.7344,177.4063 202.625,178.2266 Q203.5156,179.0469 205.1094,179.0469 Q206.0469,179.0469 206.7031,178.7969 Q207.0938,178.6406 207.5156,178.2031 Q207.7813,177.9375 207.9297,177.8594 Q208.0781,177.7813 208.2813,177.7813 Q208.6094,177.7813 208.8672,178.0391 Q209.125,178.2969 209.125,178.6406 Q209.125,178.9844 208.7813,179.3906 Q208.2813,179.9688 207.4844,180.2969 Q206.4063,180.75 205.1094,180.75 Q203.5938,180.75 202.3906,180.125 Q201.4063,179.625 200.7188,178.5547 Q200.0313,177.4844 200.0313,176.2031 L200.0313,175.0469 Q200.0313,173.7188 200.6484,172.5703 Q201.2656,171.4219 202.3594,170.8047 Q203.4531,170.1875 204.6875,170.1875 Q205.4219,170.1875 206.0703,170.3516 Q206.7188,170.5156 207.2656,170.875 Z " fill="#000000"/><text fill="#000000" font-family="sans-serif" font-size="12" lengthAdjust="spacing" textLength="31" x="218.5" y="179.9102">Agent</text><!--MD5=[3d3814e6d18e193800c83fb27de84142]
class CRediT_Contribution_Statement--><rect codeLine="50" fill="#FEFECE" filter="url(#f1ee1w7j15xcso)" height="32" id="CRediT_Contribution_Statement" style="stroke:#A80036;stroke-width:1.5;" width="211" x="635.5" y="159"/><ellipse cx="650.5" cy="175" fill="#ADD1B2" rx="11" ry="11" style="stroke:#A80036;stroke-width:1.0;"/><path d="M653.2656,170.875 Q653.4219,170.6563 653.6094,170.5469 Q653.7969,170.4375 654.0156,170.4375 Q654.3906,170.4375 654.625,170.6953 Q654.8594,170.9531 654.8594,171.5625 L654.8594,173.0156 Q654.8594,173.625 654.625,173.8906 Q654.3906,174.1563 654.0156,174.1563 Q653.6719,174.1563 653.4688,173.9531 Q653.2656,173.7656 653.1563,173.25 Q653.1094,172.8906 652.9219,172.7031 Q652.5938,172.3281 651.9844,172.1094 Q651.375,171.8906 650.75,171.8906 Q649.9844,171.8906 649.3516,172.2188 Q648.7188,172.5469 648.2266,173.2969 Q647.7344,174.0469 647.7344,175.0781 L647.7344,176.1719 Q647.7344,177.4063 648.625,178.2266 Q649.5156,179.0469 651.1094,179.0469 Q652.0469,179.0469 652.7031,178.7969 Q653.0938,178.6406 653.5156,178.2031 Q653.7813,177.9375 653.9297,177.8594 Q654.0781,177.7813 654.2813,177.7813 Q654.6094,177.7813 654.8672,178.0391 Q655.125,178.2969 655.125,178.6406 Q655.125,178.9844 654.7813,179.3906 Q654.2813,179.9688 653.4844,180.2969 Q652.4063,180.75 651.1094,180.75 Q649.5938,180.75 648.3906,180.125 Q647.4063,179.625 646.7188,178.5547 Q646.0313,177.4844 646.0313,176.2031 L646.0313,175.0469 Q646.0313,173.7188 646.6484,172.5703 Q647.2656,171.4219 648.3594,170.8047 Q649.4531,170.1875 650.6875,170.1875 Q651.4219,170.1875 652.0703,170.3516 Q652.7188,170.5156 653.2656,170.875 Z " fill="#000000"/><text fill="#000000" font-family="sans-serif" font-size="12" lengthAdjust="spacing" textLength="179" x="664.5" y="179.9102">CRediT_Contribution_Statement</text><!--MD5=[42c2141a95e7f85966762f44b3023ac5]
class CRediT_Degree_of_Contribution--><rect codeLine="52" fill="#FEFECE" filter="url(#f1ee1w7j15xcso)" height="81.5078" id="CRediT_Degree_of_Contribution" style="stroke:#A80036;stroke-width:1.5;" width="213" x="527.5" y="352"/><ellipse cx="542.5" cy="368" fill="#EB937F" rx="11" ry="11" style="stroke:#A80036;stroke-width:1.0;"/><path d="M541.3594,368.7969 L541.3594,371.2969 L545.6875,371.2969 L545.6875,370.375 Q545.6875,369.7656 545.9297,369.5 Q546.1719,369.2344 546.5469,369.2344 Q546.9219,369.2344 547.1563,369.5 Q547.3906,369.7656 547.3906,370.375 L547.3906,373 L539.3906,373 Q538.7656,373 538.5078,372.7656 Q538.25,372.5313 538.25,372.1406 Q538.25,371.7656 538.5156,371.5313 Q538.7813,371.2969 539.3906,371.2969 L539.6563,371.2969 L539.6563,364.6406 L539.3906,364.6406 Q538.7656,364.6406 538.5078,364.4063 Q538.25,364.1719 538.25,363.7813 Q538.25,363.4063 538.5078,363.1719 Q538.7656,362.9375 539.3906,362.9375 L547.0156,362.9375 L547.0156,365.5313 Q547.0156,366.1406 546.7891,366.3984 Q546.5625,366.6563 546.1719,366.6563 Q545.7969,366.6563 545.5625,366.3984 Q545.3281,366.1406 545.3281,365.5313 L545.3281,364.6406 L541.3594,364.6406 L541.3594,367.0938 L542.8438,367.0938 Q542.8438,366.4375 542.9688,366.25 Q543.2344,365.8438 543.7031,365.8438 Q544.0781,365.8438 544.3125,366.1016 Q544.5469,366.3594 544.5469,366.9688 L544.5469,368.9375 Q544.5469,369.4844 544.4219,369.6719 Q544.1563,370.0625 543.7031,370.0625 Q543.2344,370.0625 542.9688,369.6563 Q542.8438,369.4688 542.8438,368.7969 L541.3594,368.7969 Z " fill="#000000"/><text fill="#000000" font-family="sans-serif" font-size="12" lengthAdjust="spacing" textLength="181" x="556.5" y="372.9102">CRediT_Degree_of_Contribution</text><line style="stroke:#A80036;stroke-width:1.5;" x1="528.5" x2="739.5" y1="384" y2="384"/><text fill="#000000" font-family="sans-serif" font-size="11" lengthAdjust="spacing" textLength="24" x="533.5" y="399.4189">Lead</text><text fill="#000000" font-family="sans-serif" font-size="11" lengthAdjust="spacing" textLength="26" x="533.5" y="413.2549">Equal</text><text fill="#000000" font-family="sans-serif" font-size="11" lengthAdjust="spacing" textLength="52" x="533.5" y="427.0908">Supporting</text><!--MD5=[b5846dfcb37d6127d0d9f5f5e77b1e64]
class CRediT_Role_Type--><rect codeLine="57" fill="#FEFECE" filter="url(#f1ee1w7j15xcso)" height="233.7031" id="CRediT_Role_Type" style="stroke:#A80036;stroke-width:1.5;" width="145" x="775.5" y="276"/><ellipse cx="792.75" cy="292" fill="#EB937F" rx="11" ry="11" style="stroke:#A80036;stroke-width:1.0;"/><path d="M791.6094,292.7969 L791.6094,295.2969 L795.9375,295.2969 L795.9375,294.375 Q795.9375,293.7656 796.1797,293.5 Q796.4219,293.2344 796.7969,293.2344 Q797.1719,293.2344 797.4063,293.5 Q797.6406,293.7656 797.6406,294.375 L797.6406,297 L789.6406,297 Q789.0156,297 788.7578,296.7656 Q788.5,296.5313 788.5,296.1406 Q788.5,295.7656 788.7656,295.5313 Q789.0313,295.2969 789.6406,295.2969 L789.9063,295.2969 L789.9063,288.6406 L789.6406,288.6406 Q789.0156,288.6406 788.7578,288.4063 Q788.5,288.1719 788.5,287.7813 Q788.5,287.4063 788.7578,287.1719 Q789.0156,286.9375 789.6406,286.9375 L797.2656,286.9375 L797.2656,289.5313 Q797.2656,290.1406 797.0391,290.3984 Q796.8125,290.6563 796.4219,290.6563 Q796.0469,290.6563 795.8125,290.3984 Q795.5781,290.1406 795.5781,289.5313 L795.5781,288.6406 L791.6094,288.6406 L791.6094,291.0938 L793.0938,291.0938 Q793.0938,290.4375 793.2188,290.25 Q793.4844,289.8438 793.9531,289.8438 Q794.3281,289.8438 794.5625,290.1016 Q794.7969,290.3594 794.7969,290.9688 L794.7969,292.9375 Q794.7969,293.4844 794.6719,293.6719 Q794.4063,294.0625 793.9531,294.0625 Q793.4844,294.0625 793.2188,293.6563 Q793.0938,293.4688 793.0938,292.7969 L791.6094,292.7969 Z " fill="#000000"/><text fill="#000000" font-family="sans-serif" font-size="12" lengthAdjust="spacing" textLength="108" x="807.25" y="296.9102">CRediT_Role_Type</text><line style="stroke:#A80036;stroke-width:1.5;" x1="776.5" x2="919.5" y1="308" y2="308"/><text fill="#000000" font-family="sans-serif" font-size="11" lengthAdjust="spacing" textLength="85" x="781.5" y="323.4189">Conceptualization</text><text fill="#000000" font-family="sans-serif" font-size="11" lengthAdjust="spacing" textLength="64" x="781.5" y="337.2549">Data curation</text><text fill="#000000" font-family="sans-serif" font-size="11" lengthAdjust="spacing" textLength="75" x="781.5" y="351.0908">Formal analysis</text><text fill="#000000" font-family="sans-serif" font-size="11" lengthAdjust="spacing" textLength="92" x="781.5" y="364.9268">Funding acquisition</text><text fill="#000000" font-family="sans-serif" font-size="11" lengthAdjust="spacing" textLength="60" x="781.5" y="378.7627">Investigation</text><text fill="#000000" font-family="sans-serif" font-size="11" lengthAdjust="spacing" textLength="61" x="781.5" y="392.5986">Methodology</text><text fill="#000000" font-family="sans-serif" font-size="11" lengthAdjust="spacing" textLength="102" x="781.5" y="406.4346">Project administration</text><text fill="#000000" font-family="sans-serif" font-size="11" lengthAdjust="spacing" textLength="53" x="781.5" y="420.2705">Resources</text><text fill="#000000" font-family="sans-serif" font-size="11" lengthAdjust="spacing" textLength="46" x="781.5" y="434.1064">Software</text><text fill="#000000" font-family="sans-serif" font-size="11" lengthAdjust="spacing" textLength="57" x="781.5" y="447.9424">Supervision</text><text fill="#000000" font-family="sans-serif" font-size="11" lengthAdjust="spacing" textLength="47" x="781.5" y="461.7783">Validation</text><text fill="#000000" font-family="sans-serif" font-size="11" lengthAdjust="spacing" textLength="61" x="781.5" y="475.6143">Visualization</text><text fill="#000000" font-family="sans-serif" font-size="11" lengthAdjust="spacing" textLength="115" x="781.5" y="489.4502">Writing – original draft</text><text fill="#000000" font-family="sans-serif" font-size="11" lengthAdjust="spacing" textLength="133" x="781.5" y="503.2861">Writing – review &amp; editing</text><!--MD5=[8d9b790276a1e6c61f0b091de629785c]
link Textual_Document to Document--><path codeLine="87" d="M99.08,74.03 C98.46,84.36 97.58,98.8 96.68,113.51 " fill="none" id="Textual_Document-to-Document" style="stroke:#A80036;stroke-width:1.0;"/><polygon fill="none" points="103.65,114.18,95.45,133.72,89.68,113.33,103.65,114.18" style="stroke:#A80036;stroke-width:1.0;"/><!--MD5=[b5c017ecc32f857930efae613c226920]
reverse link Contribution_Statement to Free_Text_Contribution--><path codeLine="67" d="M484.13,86.14 C459.43,104.83 426.79,129.52 402.41,147.97 " fill="none" id="Contribution_Statement-backto-Free_Text_Contribution" style="stroke:#A80036;stroke-width:1.0;"/><polygon fill="none" points="479.96,80.52,500.13,74.03,488.4,91.68,479.96,80.52" style="stroke:#A80036;stroke-width:1.0;"/><!--MD5=[1f014480a3afa8c0325c3be3fbf7ad6f]
link Contributorship to Document--><path codeLine="70" d="M507.95,140.91 C491.23,126.56 469.88,111.47 447.5,104 C338.73,67.69 298.45,68.24 189.5,104 C174.68,108.87 160.26,116.97 147.28,126.01 " fill="none" id="Contributorship-to-Document" style="stroke:#A80036;stroke-width:1.0;"/><polygon fill="#A80036" points="136.73,133.76,143.9335,133.4281,146.3976,126.6511,139.1942,126.983,136.73,133.76" style="stroke:#A80036;stroke-width:1.0;"/><text fill="#000000" font-family="sans-serif" font-size="13" lengthAdjust="spacing" textLength="20" x="479.2777" y="130.1856">0..*</text><!--MD5=[504de05de5dc33320621ff1be2e6e6ff]
reverse link Agent to Contributorship--><path codeLine="73" d="M237.88,147.98 C249.6,131.91 266.8,112.97 287.5,104 C352.74,75.72 380.05,81.48 447.5,104 C469.88,111.47 491.23,126.56 507.95,140.91 " fill="none" id="Agent-backto-Contributorship" style="stroke:#A80036;stroke-width:1.0;"/><polygon fill="#A80036" points="230.34,158.98,237.0297,156.2878,237.1176,149.0773,230.4279,151.7694,230.34,158.98" style="stroke:#A80036;stroke-width:1.0;"/><text fill="#000000" font-family="sans-serif" font-size="13" lengthAdjust="spacing" textLength="87" x="159.8051" y="148.1789">0..1 contributor</text><text fill="#000000" font-family="sans-serif" font-size="13" lengthAdjust="spacing" textLength="20" x="503.2152" y="130.1856">0..*</text><!--MD5=[302d116419dc4c6a2265e61d4260f04e]
link Contribution_Statement to Contributorship--><path codeLine="77" d="M522.88,74.03 C525.49,87.69 529.48,108.56 533.14,127.7 " fill="none" id="Contribution_Statement-to-Contributorship" style="stroke:#A80036;stroke-width:1.0;"/><polygon fill="#A80036" points="535.61,140.57,538.4116,133.9254,533.3556,128.7837,530.554,135.4283,535.61,140.57" style="stroke:#A80036;stroke-width:1.0;"/><text fill="#000000" font-family="sans-serif" font-size="13" lengthAdjust="spacing" textLength="158" x="339.6653" y="95.5433">0..* contributionStatements</text><!--MD5=[7276caa4191a3f95f28b5ba112f82c6c]
reverse link Contribution_Statement to CRediT_Contribution_Statement--><path codeLine="97" d="M566.92,83.41 C610.88,106.29 675.2,139.76 712.1,158.96 " fill="none" id="Contribution_Statement-backto-CRediT_Contribution_Statement" style="stroke:#A80036;stroke-width:1.0;"/><polygon fill="none" points="563.4,89.48,548.89,74.03,569.86,77.06,563.4,89.48" style="stroke:#A80036;stroke-width:1.0;"/><!--MD5=[fb8e7b03155fc2d9c40ee98c4cf95180]
link CRediT_Contribution_Statement to CRediT_Role_Type--><path codeLine="111" d="M748.52,191.19 C757.18,208.67 772.26,239.11 788.1,271.08 " fill="none" id="CRediT_Contribution_Statement-to-CRediT_Role_Type" style="stroke:#A80036;stroke-width:1.0;stroke-dasharray:7.0,7.0;"/><polygon fill="#A80036" points="790.44,275.8,790.0431,265.9591,788.2268,271.3165,782.8695,269.5003,790.44,275.8" style="stroke:#A80036;stroke-width:1.0;"/><text fill="#000000" font-family="sans-serif" font-size="13" lengthAdjust="spacing" textLength="49" x="736.183" y="265.2953">roleType</text><!--MD5=[fd5d8cb6bc72986bd3560f3b69973f17]
link CRediT_Contribution_Statement to CRediT_Degree_of_Contribution--><path codeLine="112" d="M733.48,191.19 C717.62,223.19 680.26,298.61 656.11,347.36 " fill="none" id="CRediT_Contribution_Statement-to-CRediT_Degree_of_Contribution" style="stroke:#A80036;stroke-width:1.0;stroke-dasharray:7.0,7.0;"/><polygon fill="#A80036" points="653.82,352,661.3985,345.7099,656.0389,347.5193,654.2294,342.1597,653.82,352" style="stroke:#A80036;stroke-width:1.0;"/><text fill="#000000" font-family="sans-serif" font-size="13" lengthAdjust="spacing" textLength="121" x="525.8281" y="341.1458">degreeOfContribution</text><!--MD5=[d4ae50222776af3028170d6d9f9ca949]
@startuml

!includesub core.puml!common

package "CERIF core" #EFEFEF{
    !includesub ./core.puml!Document
    !includesub ./core.puml!Contributorship
}

!includesub ./module.puml!CRediT

@enduml

@startuml

    	hide empty members

package "CERIF core" #EFEFEF{
    class "Document"{
        title : Multilingual_String
        publicationDate : Date
        DOI : DOI_Type
    }
    class "Textual_Document"{
    }
    "Document" <|-u- "Textual_Document"
    class "Contributorship"{
        contacts : List<URI>
        displayName : String
    }
    class "Contribution_Statement"{
    }
    class "Free_Text_Contribution"{
        statement : Multilingual_String
    }
    "Contribution_Statement" <|- - "Free_Text_Contribution"
    "Contributorship" "0..*" -r-* "Document"
    "Contributorship" "0..*" -l-* "0..1 contributor" "Agent"
    "Contributorship" *-u- "0..* contributionStatements" "Contribution_Statement"
}

    class "CRediT_Contribution_Statement"{
    }
    enum "CRediT_Degree_of_Contribution"{
        Lead
        Equal
        Supporting
    }
    enum "CRediT_Role_Type"{
        Conceptualization
        Data curation
        Formal analysis
        Funding acquisition
        Investigation
        Methodology
        Project administration
        Resources
        Software
        Supervision
        Validation
        Visualization
        Writing – original draft
        Writing – review & editing
    }
    "Contribution_Statement" <|- - "CRediT_Contribution_Statement"
    "CRediT_Contribution_Statement" ..> "roleType" "CRediT_Role_Type"
    "CRediT_Contribution_Statement" ..> "degreeOfContribution" "CRediT_Degree_of_Contribution"

@enduml

PlantUML version 1.2021.8(Sat Jun 26 10:20:59 CEST 2021)
(GPL source distribution)
Java Runtime: Java(TM) SE Runtime Environment
JVM: Java HotSpot(TM) Client VM
Default Encoding: Cp1252
Language: en
Country: US
--></g></svg>