<?xml version="1.0" encoding="UTF-8" standalone="no"?><svg xmlns="http://www.w3.org/2000/svg" xmlns:xlink="http://www.w3.org/1999/xlink" contentScriptType="application/ecmascript" contentStyleType="text/css" height="721px" preserveAspectRatio="none" style="width:791px;height:721px;background:#FFFFFF;" version="1.1" viewBox="0 0 791 721" width="791px" zoomAndPan="magnify"><defs><filter height="300%" id="f1581v5pl83xdm" width="300%" x="-1" y="-1"><feGaussianBlur result="blurOut" stdDeviation="2.0"/><feColorMatrix in="blurOut" result="blurOut2" type="matrix" values="0 0 0 0 0 0 0 0 0 0 0 0 0 0 0 0 0 0 .4 0"/><feOffset dx="4.0" dy="4.0" in="blurOut2" result="blurOut3"/><feBlend in="SourceGraphic" in2="blurOut3" mode="normal"/></filter></defs><g><!--MD5=[59b530d44ae785dc18db921986a9c15c]
class Document--><rect codeLine="8" fill="#FFFFFF" filter="url(#f1581v5pl83xdm)" height="78.4141" id="Document" style="stroke:#A80036;stroke-width:1.5;" width="148" x="367.5" y="145"/><ellipse cx="405.9" cy="161" fill="#ADD1B2" rx="11" ry="11" style="stroke:#A80036;stroke-width:1.0;"/><path d="M408.8688,166.6406 Q408.2906,166.9375 407.65,167.0781 Q407.0094,167.2344 406.3063,167.2344 Q403.8063,167.2344 402.4781,165.5938 Q401.1656,163.9375 401.1656,160.8125 Q401.1656,157.6875 402.4781,156.0313 Q403.8063,154.375 406.3063,154.375 Q407.0094,154.375 407.65,154.5313 Q408.3063,154.6875 408.8688,154.9844 L408.8688,157.7031 Q408.2438,157.125 407.65,156.8594 Q407.0563,156.5781 406.4313,156.5781 Q405.0875,156.5781 404.4,157.6563 Q403.7125,158.7188 403.7125,160.8125 Q403.7125,162.9063 404.4,163.9844 Q405.0875,165.0469 406.4313,165.0469 Q407.0563,165.0469 407.65,164.7813 Q408.2438,164.5 408.8688,163.9219 L408.8688,166.6406 Z " fill="#000000"/><text fill="#000000" font-family="sans-serif" font-size="12" lengthAdjust="spacing" textLength="64" x="425.1" y="165.1543">Document</text><line style="stroke:#A80036;stroke-width:1.5;" x1="368.5" x2="514.5" y1="177" y2="177"/><text fill="#000000" font-family="sans-serif" font-size="11" lengthAdjust="spacing" textLength="85" x="373.5" y="191.2104">DOI : DOI_Type</text><text fill="#000000" font-family="sans-serif" font-size="11" lengthAdjust="spacing" textLength="136" x="373.5" y="204.0151">title : Multilingual_String</text><text fill="#000000" font-family="sans-serif" font-size="11" lengthAdjust="spacing" textLength="125" x="373.5" y="216.8198">publicationDate : Date</text><!--MD5=[fe105c2ee1fabf2400c31a97ce9128bc]
class Textual_Document--><rect codeLine="13" fill="#FFFFFF" filter="url(#f1581v5pl83xdm)" height="32" id="Textual_Document" style="stroke:#A80036;stroke-width:1.5;" width="147" x="368" y="30"/><ellipse cx="383" cy="46" fill="#ADD1B2" rx="11" ry="11" style="stroke:#A80036;stroke-width:1.0;"/><path d="M385.9688,51.6406 Q385.3906,51.9375 384.75,52.0781 Q384.1094,52.2344 383.4063,52.2344 Q380.9063,52.2344 379.5781,50.5938 Q378.2656,48.9375 378.2656,45.8125 Q378.2656,42.6875 379.5781,41.0313 Q380.9063,39.375 383.4063,39.375 Q384.1094,39.375 384.75,39.5313 Q385.4063,39.6875 385.9688,39.9844 L385.9688,42.7031 Q385.3438,42.125 384.75,41.8594 Q384.1563,41.5781 383.5313,41.5781 Q382.1875,41.5781 381.5,42.6563 Q380.8125,43.7188 380.8125,45.8125 Q380.8125,47.9063 381.5,48.9844 Q382.1875,50.0469 383.5313,50.0469 Q384.1563,50.0469 384.75,49.7813 Q385.3438,49.5 385.9688,48.9219 L385.9688,51.6406 Z " fill="#000000"/><text fill="#000000" font-family="sans-serif" font-size="12" lengthAdjust="spacing" textLength="115" x="397" y="50.1543">Textual_Document</text><!--MD5=[b821bb113f9f55c728f1fbb8949cc3af]
class Contributorship--><rect codeLine="56" fill="#FFFFFF" filter="url(#f1581v5pl83xdm)" height="65.6094" id="Contributorship" style="stroke:#A80036;stroke-width:1.5;" width="131" x="201" y="151"/><ellipse cx="216.9" cy="167" fill="#ADD1B2" rx="11" ry="11" style="stroke:#A80036;stroke-width:1.0;"/><path d="M219.8688,172.6406 Q219.2906,172.9375 218.65,173.0781 Q218.0094,173.2344 217.3063,173.2344 Q214.8063,173.2344 213.4781,171.5938 Q212.1656,169.9375 212.1656,166.8125 Q212.1656,163.6875 213.4781,162.0313 Q214.8063,160.375 217.3063,160.375 Q218.0094,160.375 218.65,160.5313 Q219.3063,160.6875 219.8688,160.9844 L219.8688,163.7031 Q219.2438,163.125 218.65,162.8594 Q218.0563,162.5781 217.4313,162.5781 Q216.0875,162.5781 215.4,163.6563 Q214.7125,164.7188 214.7125,166.8125 Q214.7125,168.9063 215.4,169.9844 Q216.0875,171.0469 217.4313,171.0469 Q218.0563,171.0469 218.65,170.7813 Q219.2438,170.5 219.8688,169.9219 L219.8688,172.6406 Z " fill="#000000"/><text fill="#000000" font-family="sans-serif" font-size="12" lengthAdjust="spacing" textLength="97" x="231.1" y="171.1543">Contributorship</text><line style="stroke:#A80036;stroke-width:1.5;" x1="202" x2="331" y1="183" y2="183"/><text fill="#000000" font-family="sans-serif" font-size="11" lengthAdjust="spacing" textLength="116" x="207" y="197.2104">contacts : List&lt;URI&gt;</text><text fill="#000000" font-family="sans-serif" font-size="11" lengthAdjust="spacing" textLength="119" x="207" y="210.0151">displayName : String</text><!--MD5=[532fe005ca0bef0ad6b309c9c6480e22]
class Contribution_Statement--><rect codeLine="61" fill="#FFFFFF" filter="url(#f1581v5pl83xdm)" height="32" id="Contribution_Statement" style="stroke:#A80036;stroke-width:1.5;" width="181" x="176" y="283"/><ellipse cx="191" cy="299" fill="#ADD1B2" rx="11" ry="11" style="stroke:#A80036;stroke-width:1.0;"/><path d="M193.9688,304.6406 Q193.3906,304.9375 192.75,305.0781 Q192.1094,305.2344 191.4063,305.2344 Q188.9063,305.2344 187.5781,303.5938 Q186.2656,301.9375 186.2656,298.8125 Q186.2656,295.6875 187.5781,294.0313 Q188.9063,292.375 191.4063,292.375 Q192.1094,292.375 192.75,292.5313 Q193.4063,292.6875 193.9688,292.9844 L193.9688,295.7031 Q193.3438,295.125 192.75,294.8594 Q192.1563,294.5781 191.5313,294.5781 Q190.1875,294.5781 189.5,295.6563 Q188.8125,296.7188 188.8125,298.8125 Q188.8125,300.9063 189.5,301.9844 Q190.1875,303.0469 191.5313,303.0469 Q192.1563,303.0469 192.75,302.7813 Q193.3438,302.5 193.9688,301.9219 L193.9688,304.6406 Z " fill="#000000"/><text fill="#000000" font-family="sans-serif" font-size="12" lengthAdjust="spacing" textLength="149" x="205" y="303.1543">Contribution_Statement</text><!--MD5=[75e6ee6f0cee60576da1adad405695b7]
class Free_Text_Contribution_Statement--><rect codeLine="64" fill="#FFFFFF" filter="url(#f1581v5pl83xdm)" height="52.8047" id="Free_Text_Contribution_Statement" style="stroke:#A80036;stroke-width:1.5;" width="247" x="7" y="375"/><ellipse cx="22" cy="391" fill="#ADD1B2" rx="11" ry="11" style="stroke:#A80036;stroke-width:1.0;"/><path d="M24.9688,396.6406 Q24.3906,396.9375 23.75,397.0781 Q23.1094,397.2344 22.4063,397.2344 Q19.9063,397.2344 18.5781,395.5938 Q17.2656,393.9375 17.2656,390.8125 Q17.2656,387.6875 18.5781,386.0313 Q19.9063,384.375 22.4063,384.375 Q23.1094,384.375 23.75,384.5313 Q24.4063,384.6875 24.9688,384.9844 L24.9688,387.7031 Q24.3438,387.125 23.75,386.8594 Q23.1563,386.5781 22.5313,386.5781 Q21.1875,386.5781 20.5,387.6563 Q19.8125,388.7188 19.8125,390.8125 Q19.8125,392.9063 20.5,393.9844 Q21.1875,395.0469 22.5313,395.0469 Q23.1563,395.0469 23.75,394.7813 Q24.3438,394.5 24.9688,393.9219 L24.9688,396.6406 Z " fill="#000000"/><text fill="#000000" font-family="sans-serif" font-size="12" lengthAdjust="spacing" textLength="215" x="36" y="395.1543">Free_Text_Contribution_Statement</text><line style="stroke:#A80036;stroke-width:1.5;" x1="8" x2="253" y1="407" y2="407"/><text fill="#000000" font-family="sans-serif" font-size="11" lengthAdjust="spacing" textLength="173" x="13" y="421.2104">statement : Multilingual_String</text><!--MD5=[9d44916250b776386006c440668bcfbb]
class Agent--><rect codeLine="23" fill="#FFFFFF" filter="url(#f1581v5pl83xdm)" height="32" id="Agent" style="stroke:#A80036;stroke-width:1.5;" width="69" x="97" y="168"/><ellipse cx="112" cy="184" fill="#ADD1B2" rx="11" ry="11" style="stroke:#A80036;stroke-width:1.0;"/><path d="M114.9688,189.6406 Q114.3906,189.9375 113.75,190.0781 Q113.1094,190.2344 112.4063,190.2344 Q109.9063,190.2344 108.5781,188.5938 Q107.2656,186.9375 107.2656,183.8125 Q107.2656,180.6875 108.5781,179.0313 Q109.9063,177.375 112.4063,177.375 Q113.1094,177.375 113.75,177.5313 Q114.4063,177.6875 114.9688,177.9844 L114.9688,180.7031 Q114.3438,180.125 113.75,179.8594 Q113.1563,179.5781 112.5313,179.5781 Q111.1875,179.5781 110.5,180.6563 Q109.8125,181.7188 109.8125,183.8125 Q109.8125,185.9063 110.5,186.9844 Q111.1875,188.0469 112.5313,188.0469 Q113.1563,188.0469 113.75,187.7813 Q114.3438,187.5 114.9688,186.9219 L114.9688,189.6406 Z " fill="#000000"/><text fill="#000000" font-family="sans-serif" font-size="12" lengthAdjust="spacing" textLength="37" x="126" y="188.1543">Agent</text><!--MD5=[3d3814e6d18e193800c83fb27de84142]
class CRediT_Contribution_Statement--><rect codeLine="49" fill="#FEFECE" filter="url(#f1581v5pl83xdm)" height="32" id="CRediT_Contribution_Statement" style="stroke:#A80036;stroke-width:1.5;" width="229" x="289" y="385.5"/><ellipse cx="304" cy="401.5" fill="#ADD1B2" rx="11" ry="11" style="stroke:#A80036;stroke-width:1.0;"/><path d="M306.9688,407.1406 Q306.3906,407.4375 305.75,407.5781 Q305.1094,407.7344 304.4063,407.7344 Q301.9063,407.7344 300.5781,406.0938 Q299.2656,404.4375 299.2656,401.3125 Q299.2656,398.1875 300.5781,396.5313 Q301.9063,394.875 304.4063,394.875 Q305.1094,394.875 305.75,395.0313 Q306.4063,395.1875 306.9688,395.4844 L306.9688,398.2031 Q306.3438,397.625 305.75,397.3594 Q305.1563,397.0781 304.5313,397.0781 Q303.1875,397.0781 302.5,398.1563 Q301.8125,399.2188 301.8125,401.3125 Q301.8125,403.4063 302.5,404.4844 Q303.1875,405.5469 304.5313,405.5469 Q305.1563,405.5469 305.75,405.2813 Q306.3438,405 306.9688,404.4219 L306.9688,407.1406 Z " fill="#000000"/><text fill="#000000" font-family="sans-serif" font-size="12" lengthAdjust="spacing" textLength="197" x="318" y="405.6543">CRediT_Contribution_Statement</text><!--MD5=[42c2141a95e7f85966762f44b3023ac5]
class CRediT_Degree_of_Contribution--><rect codeLine="51" fill="#FEFECE" filter="url(#f1581v5pl83xdm)" height="78.4141" id="CRediT_Degree_of_Contribution" style="stroke:#A80036;stroke-width:1.5;" width="227" x="550" y="7"/><ellipse cx="565" cy="23" fill="#EB937F" rx="11" ry="11" style="stroke:#A80036;stroke-width:1.0;"/><path d="M569.1094,29 L561.3906,29 L561.3906,16.6094 L569.1094,16.6094 L569.1094,18.7656 L563.8438,18.7656 L563.8438,21.4375 L568.6094,21.4375 L568.6094,23.5938 L563.8438,23.5938 L563.8438,26.8438 L569.1094,26.8438 L569.1094,29 Z " fill="#000000"/><text fill="#000000" font-family="sans-serif" font-size="12" lengthAdjust="spacing" textLength="195" x="579" y="27.1543">CRediT_Degree_of_Contribution</text><line style="stroke:#A80036;stroke-width:1.5;" x1="551" x2="776" y1="39" y2="39"/><text fill="#000000" font-family="sans-serif" font-size="11" lengthAdjust="spacing" textLength="27" x="556" y="53.2104">Lead</text><text fill="#000000" font-family="sans-serif" font-size="11" lengthAdjust="spacing" textLength="62" x="556" y="66.0151">Supporting</text><text fill="#000000" font-family="sans-serif" font-size="11" lengthAdjust="spacing" textLength="31" x="556" y="78.8198">Equal</text><!--MD5=[b5846dfcb37d6127d0d9f5f5e77b1e64]
class CRediT_Role_Type--><rect codeLine="56" fill="#FEFECE" filter="url(#f1581v5pl83xdm)" height="219.2656" id="CRediT_Role_Type" style="stroke:#A80036;stroke-width:1.5;" width="155" x="326" y="488"/><ellipse cx="346.85" cy="504" fill="#EB937F" rx="11" ry="11" style="stroke:#A80036;stroke-width:1.0;"/><path d="M350.9594,510 L343.2406,510 L343.2406,497.6094 L350.9594,497.6094 L350.9594,499.7656 L345.6938,499.7656 L345.6938,502.4375 L350.4594,502.4375 L350.4594,504.5938 L345.6938,504.5938 L345.6938,507.8438 L350.9594,507.8438 L350.9594,510 Z " fill="#000000"/><text fill="#000000" font-family="sans-serif" font-size="12" lengthAdjust="spacing" textLength="110" x="362.15" y="508.1543">CRediT_Role_Type</text><line style="stroke:#A80036;stroke-width:1.5;" x1="327" x2="480" y1="520" y2="520"/><text fill="#000000" font-family="sans-serif" font-size="11" lengthAdjust="spacing" textLength="99" x="332" y="534.2104">Conceptualization</text><text fill="#000000" font-family="sans-serif" font-size="11" lengthAdjust="spacing" textLength="76" x="332" y="547.0151">Data curation</text><text fill="#000000" font-family="sans-serif" font-size="11" lengthAdjust="spacing" textLength="90" x="332" y="559.8198">Formal analysis</text><text fill="#000000" font-family="sans-serif" font-size="11" lengthAdjust="spacing" textLength="109" x="332" y="572.6245">Funding acquisition</text><text fill="#000000" font-family="sans-serif" font-size="11" lengthAdjust="spacing" textLength="72" x="332" y="585.4292">Investigation</text><text fill="#000000" font-family="sans-serif" font-size="11" lengthAdjust="spacing" textLength="71" x="332" y="598.2339">Methodology</text><text fill="#000000" font-family="sans-serif" font-size="11" lengthAdjust="spacing" textLength="125" x="332" y="611.0386">Project administration</text><text fill="#000000" font-family="sans-serif" font-size="11" lengthAdjust="spacing" textLength="60" x="332" y="623.8433">Resources</text><text fill="#000000" font-family="sans-serif" font-size="11" lengthAdjust="spacing" textLength="51" x="332" y="636.6479">Software</text><text fill="#000000" font-family="sans-serif" font-size="11" lengthAdjust="spacing" textLength="67" x="332" y="649.4526">Supervision</text><text fill="#000000" font-family="sans-serif" font-size="11" lengthAdjust="spacing" textLength="55" x="332" y="662.2573">Validation</text><text fill="#000000" font-family="sans-serif" font-size="11" lengthAdjust="spacing" textLength="70" x="332" y="675.062">Visualization</text><text fill="#000000" font-family="sans-serif" font-size="11" lengthAdjust="spacing" textLength="123" x="332" y="687.8667">Writing - original draft</text><text fill="#000000" font-family="sans-serif" font-size="11" lengthAdjust="spacing" textLength="143" x="332" y="700.6714">Writing - review &amp; editing</text><!--MD5=[8d9b790276a1e6c61f0b091de629785c]
link Textual_Document to Document--><path codeLine="139" d="M441.5,62.07 C441.5,77.27 441.5,101.7 441.5,124.63 " fill="none" id="Textual_Document-to-Document" style="stroke:#A80036;stroke-width:1.0;"/><polygon fill="none" points="448.5,124.97,441.5,144.97,434.5,124.97,448.5,124.97" style="stroke:#A80036;stroke-width:1.0;"/><!--MD5=[aa65b9840c4d4bb6ada386eeadadc345]
reverse link Contributorship to Contribution_Statement--><path codeLine="111" d="M266.5,230.24 C266.5,248.91 266.5,269.28 266.5,282.76 " fill="none" id="Contributorship-backto-Contribution_Statement" style="stroke:#A80036;stroke-width:1.0;"/><polygon fill="#A80036" points="266.5,217.08,262.5,223.08,266.5,229.08,270.5,223.08,266.5,217.08" style="stroke:#A80036;stroke-width:1.0;"/><text fill="#000000" font-family="sans-serif" font-size="13" lengthAdjust="spacing" textLength="179" x="57.8531" y="271.985">0..* contributionStatements</text><!--MD5=[21f8b3605054312288eb3132d9b75edc]
reverse link Contribution_Statement to Free_Text_Contribution_Statement--><path codeLine="114" d="M229.88,327.06 C209.71,341.96 184.84,360.35 165.01,374.99 " fill="none" id="Contribution_Statement-backto-Free_Text_Contribution_Statement" style="stroke:#A80036;stroke-width:1.0;"/><polygon fill="none" points="225.89,321.3,246.14,315.05,234.21,332.56,225.89,321.3" style="stroke:#A80036;stroke-width:1.0;"/><!--MD5=[1f014480a3afa8c0325c3be3fbf7ad6f]
link Contributorship to Document--><path codeLine="117" d="M332.12,184 C339.42,184 346.72,184 354.02,184 " fill="none" id="Contributorship-to-Document" style="stroke:#A80036;stroke-width:1.0;"/><polygon fill="#A80036" points="367.16,184,361.16,180,355.16,184,361.16,188,367.16,184" style="stroke:#A80036;stroke-width:1.0;"/><text fill="#000000" font-family="sans-serif" font-size="13" lengthAdjust="spacing" textLength="23" x="340.073" y="180.3204">0..*</text><!--MD5=[504de05de5dc33320621ff1be2e6e6ff]
reverse link Agent to Contributorship--><path codeLine="120" d="M179.14,184 C186.41,184 193.69,184 200.97,184 " fill="none" id="Agent-backto-Contributorship" style="stroke:#A80036;stroke-width:1.0;"/><polygon fill="#FFFFFF" points="166.04,184,172.04,188,178.04,184,172.04,180,166.04,184" style="stroke:#A80036;stroke-width:1.0;"/><text fill="#000000" font-family="sans-serif" font-size="13" lengthAdjust="spacing" textLength="98" x="105.8281" y="156.7706">0..1 contributor</text><text fill="#000000" font-family="sans-serif" font-size="13" lengthAdjust="spacing" textLength="23" x="174.0128" y="197.5341">0..*</text><!--MD5=[7276caa4191a3f95f28b5ba112f82c6c]
reverse link Contribution_Statement to CRediT_Contribution_Statement--><path codeLine="96" d="M303.23,326.94 C328.74,345.66 361.81,369.92 382.85,385.35 " fill="none" id="Contribution_Statement-backto-CRediT_Contribution_Statement" style="stroke:#A80036;stroke-width:1.0;"/><polygon fill="none" points="299,332.52,287.01,315.05,307.28,321.23,299,332.52" style="stroke:#A80036;stroke-width:1.0;"/><!--MD5=[fb8e7b03155fc2d9c40ee98c4cf95180]
link CRediT_Contribution_Statement to CRediT_Role_Type--><path codeLine="110" d="M403.5,417.72 C403.5,432.63 403.5,456.81 403.5,482.64 " fill="none" id="CRediT_Contribution_Statement-to-CRediT_Role_Type" style="stroke:#A80036;stroke-width:1.0;stroke-dasharray:7.0,7.0;"/><polygon fill="#A80036" points="403.5,487.82,407.5,478.82,403.5,482.82,399.5,478.82,403.5,487.82" style="stroke:#A80036;stroke-width:1.0;"/><text fill="#000000" font-family="sans-serif" font-size="13" lengthAdjust="spacing" textLength="54" x="347.6859" y="477.0094">roleType</text><!--MD5=[632e4f28459c9114a2ed882662d664cf]
@startuml

    !includesub ../../CERIF-Core/diagrams/core.puml!common


    !includesub ../../CERIF-Core/diagrams/core.puml!Document
    !includesub ../../CERIF-Core/diagrams/core.puml!Contributorship
    !includesub ../../CERIF-Core/diagrams/core.puml!Agent

    !includesub ./module.puml!CRediT

@enduml

@startuml

        hide empty members
        skinparam BoxPadding 120


        class "Document" #ffffff {
            DOI : DOI_Type
            title : Multilingual_String
            publicationDate : Date
        }
        class "Textual_Document" #ffffff {
        }
        "Document" <|-u- "Textual_Document"
        class "Contributorship" #ffffff {
            contacts : List<URI>
            displayName : String
        }

        class "Contribution_Statement" #ffffff {
        }

        class "Free_Text_Contribution_Statement" #ffffff {
            statement : Multilingual_String
        }
        "Contributorship" *- - "0..* contributionStatements" "Contribution_Statement"
        "Contribution_Statement" <|- - "Free_Text_Contribution_Statement"
        "Contributorship" "0..*" - -r- -* "Document"
        "Contributorship" "0..*" - -l- -o "0..1 contributor" "Agent"
        class "Agent" #ffffff {
        }

        class "CRediT_Contribution_Statement"{
        }
        enum "CRediT_Degree_of_Contribution"{
            Lead
            Supporting
            Equal
        }
        enum "CRediT_Role_Type"{
            Conceptualization
            Data curation
            Formal analysis
            Funding acquisition
            Investigation
            Methodology
            Project administration
            Resources
            Software
            Supervision
            Validation
            Visualization
            Writing - original draft
            Writing - review & editing
        }
        "Contribution_Statement" <|- - "CRediT_Contribution_Statement"
        "CRediT_Contribution_Statement" ..> "roleType" "CRediT_Role_Type"

@enduml

PlantUML version 1.2021.8(Sat Jun 26 08:20:59 UTC 2021)
(GPL source distribution)
Java Runtime: OpenJDK Runtime Environment
JVM: OpenJDK 64-Bit Server VM
Default Encoding: UTF-8
Language: en
Country: null
--></g></svg>