<?xml version="1.0" encoding="UTF-8" standalone="no"?><svg xmlns="http://www.w3.org/2000/svg" xmlns:xlink="http://www.w3.org/1999/xlink" contentScriptType="application/ecmascript" contentStyleType="text/css" height="671px" preserveAspectRatio="none" style="width:1215px;height:671px;background:#FFFFFF;" version="1.1" viewBox="0 0 1215 671" width="1215px" zoomAndPan="magnify"><defs><filter height="300%" id="f12kfesqz08bsk" width="300%" x="-1" y="-1"><feGaussianBlur result="blurOut" stdDeviation="2.0"/><feColorMatrix in="blurOut" result="blurOut2" type="matrix" values="0 0 0 0 0 0 0 0 0 0 0 0 0 0 0 0 0 0 .4 0"/><feOffset dx="4.0" dy="4.0" in="blurOut2" result="blurOut3"/><feBlend in="SourceGraphic" in2="blurOut3" mode="normal"/></filter></defs><g><!--MD5=[6b13f1b330d33795af281e5c1dfe1e98]
class Resource--><rect codeLine="254" fill="#FFFFFF" filter="url(#f12kfesqz08bsk)" height="32" id="Resource" style="stroke:#A80036;stroke-width:1.5;" width="91" x="7" y="160.5"/><ellipse cx="22" cy="176.5" fill="#ADD1B2" rx="11" ry="11" style="stroke:#A80036;stroke-width:1.0;"/><path d="M24.9688,182.1406 Q24.3906,182.4375 23.75,182.5781 Q23.1094,182.7344 22.4063,182.7344 Q19.9063,182.7344 18.5781,181.0938 Q17.2656,179.4375 17.2656,176.3125 Q17.2656,173.1875 18.5781,171.5313 Q19.9063,169.875 22.4063,169.875 Q23.1094,169.875 23.75,170.0313 Q24.4063,170.1875 24.9688,170.4844 L24.9688,173.2031 Q24.3438,172.625 23.75,172.3594 Q23.1563,172.0781 22.5313,172.0781 Q21.1875,172.0781 20.5,173.1563 Q19.8125,174.2188 19.8125,176.3125 Q19.8125,178.4063 20.5,179.4844 Q21.1875,180.5469 22.5313,180.5469 Q23.1563,180.5469 23.75,180.2813 Q24.3438,180 24.9688,179.4219 L24.9688,182.1406 Z " fill="#000000"/><text fill="#000000" font-family="sans-serif" font-size="12" lengthAdjust="spacing" textLength="59" x="36" y="180.6543">Resource</text><!--MD5=[59b530d44ae785dc18db921986a9c15c]
class Document--><rect codeLine="299" fill="#FFFFFF" filter="url(#f12kfesqz08bsk)" height="65.6094" id="Document" style="stroke:#A80036;stroke-width:1.5;" width="148" x="974.5" y="7"/><ellipse cx="1012.9" cy="23" fill="#ADD1B2" rx="11" ry="11" style="stroke:#A80036;stroke-width:1.0;"/><path d="M1015.8688,28.6406 Q1015.2906,28.9375 1014.65,29.0781 Q1014.0094,29.2344 1013.3063,29.2344 Q1010.8063,29.2344 1009.4781,27.5938 Q1008.1656,25.9375 1008.1656,22.8125 Q1008.1656,19.6875 1009.4781,18.0313 Q1010.8063,16.375 1013.3063,16.375 Q1014.0094,16.375 1014.65,16.5313 Q1015.3063,16.6875 1015.8688,16.9844 L1015.8688,19.7031 Q1015.2438,19.125 1014.65,18.8594 Q1014.0563,18.5781 1013.4313,18.5781 Q1012.0875,18.5781 1011.4,19.6563 Q1010.7125,20.7188 1010.7125,22.8125 Q1010.7125,24.9063 1011.4,25.9844 Q1012.0875,27.0469 1013.4313,27.0469 Q1014.0563,27.0469 1014.65,26.7813 Q1015.2438,26.5 1015.8688,25.9219 L1015.8688,28.6406 Z " fill="#000000"/><text fill="#000000" font-family="sans-serif" font-size="12" lengthAdjust="spacing" textLength="64" x="1032.1" y="27.1543">Document</text><line style="stroke:#A80036;stroke-width:1.5;" x1="975.5" x2="1121.5" y1="39" y2="39"/><text fill="#000000" font-family="sans-serif" font-size="11" lengthAdjust="spacing" textLength="136" x="980.5" y="53.2104">title : Multilingual_String</text><text fill="#000000" font-family="sans-serif" font-size="11" lengthAdjust="spacing" textLength="125" x="980.5" y="66.0151">publicationDate : Date</text><!--MD5=[c881b25adf3665c6568c9693d41a70f3]
class Activity--><rect codeLine="147" fill="#FFFFFF" filter="url(#f12kfesqz08bsk)" height="52.8047" id="Activity" style="stroke:#A80036;stroke-width:1.5;" width="151" x="741" y="150"/><ellipse cx="790.75" cy="166" fill="#ADD1B2" rx="11" ry="11" style="stroke:#A80036;stroke-width:1.0;"/><path d="M793.7188,171.6406 Q793.1406,171.9375 792.5,172.0781 Q791.8594,172.2344 791.1563,172.2344 Q788.6563,172.2344 787.3281,170.5938 Q786.0156,168.9375 786.0156,165.8125 Q786.0156,162.6875 787.3281,161.0313 Q788.6563,159.375 791.1563,159.375 Q791.8594,159.375 792.5,159.5313 Q793.1563,159.6875 793.7188,159.9844 L793.7188,162.7031 Q793.0938,162.125 792.5,161.8594 Q791.9063,161.5781 791.2813,161.5781 Q789.9375,161.5781 789.25,162.6563 Q788.5625,163.7188 788.5625,165.8125 Q788.5625,167.9063 789.25,168.9844 Q789.9375,170.0469 791.2813,170.0469 Q791.9063,170.0469 792.5,169.7813 Q793.0938,169.5 793.7188,168.9219 L793.7188,171.6406 Z " fill="#000000"/><text fill="#000000" font-family="sans-serif" font-size="12" lengthAdjust="spacing" textLength="43" x="811.25" y="170.1543">Activity</text><line style="stroke:#A80036;stroke-width:1.5;" x1="742" x2="891" y1="182" y2="182"/><text fill="#000000" font-family="sans-serif" font-size="11" lengthAdjust="spacing" textLength="139" x="747" y="196.2104">dateRange : Date_Range</text><!--MD5=[9d44916250b776386006c440668bcfbb]
class Agent--><rect codeLine="10" fill="#FFFFFF" filter="url(#f12kfesqz08bsk)" height="78.4141" id="Agent" style="stroke:#A80036;stroke-width:1.5;" width="224" x="704.5" y="350.5"/><ellipse cx="793.75" cy="366.5" fill="#ADD1B2" rx="11" ry="11" style="stroke:#A80036;stroke-width:1.0;"/><path d="M796.7188,372.1406 Q796.1406,372.4375 795.5,372.5781 Q794.8594,372.7344 794.1563,372.7344 Q791.6563,372.7344 790.3281,371.0938 Q789.0156,369.4375 789.0156,366.3125 Q789.0156,363.1875 790.3281,361.5313 Q791.6563,359.875 794.1563,359.875 Q794.8594,359.875 795.5,360.0313 Q796.1563,360.1875 796.7188,360.4844 L796.7188,363.2031 Q796.0938,362.625 795.5,362.3594 Q794.9063,362.0781 794.2813,362.0781 Q792.9375,362.0781 792.25,363.1563 Q791.5625,364.2188 791.5625,366.3125 Q791.5625,368.4063 792.25,369.4844 Q792.9375,370.5469 794.2813,370.5469 Q794.9063,370.5469 795.5,370.2813 Q796.0938,370 796.7188,369.4219 L796.7188,372.1406 Z " fill="#000000"/><text fill="#000000" font-family="sans-serif" font-size="12" lengthAdjust="spacing" textLength="37" x="814.25" y="370.6543">Agent</text><line style="stroke:#A80036;stroke-width:1.5;" x1="705.5" x2="927.5" y1="382.5" y2="382.5"/><text fill="#000000" font-family="sans-serif" font-size="11" lengthAdjust="spacing" textLength="207" x="710.5" y="396.7104">keywords : List&lt;Multilingual_String&gt;</text><text fill="#000000" font-family="sans-serif" font-size="11" lengthAdjust="spacing" textLength="121" x="710.5" y="409.5151">lifetime : Date_Range</text><text fill="#000000" font-family="sans-serif" font-size="11" lengthAdjust="spacing" textLength="212" x="710.5" y="422.3198">contacts : List&lt;Contact_Information&gt;</text><!--MD5=[176bc0a65f2558a2e68a39a8b34c74bb]
class Date_Range--><rect codeLine="788" fill="#FFFFFF" filter="url(#f12kfesqz08bsk)" height="97.1563" id="Date_Range" style="stroke:#A80036;stroke-width:1.5;" width="183" x="585" y="560"/><ellipse cx="634.25" cy="578.9688" fill="#ADD0B2" rx="11" ry="11" style="stroke:#A80036;stroke-width:1.0;"/><path d="M633.8438,574.7813 L633.8438,582.7656 L634.5,582.7656 Q635.9375,582.7656 636.5469,581.8594 Q637.1719,580.9375 637.1719,578.7656 Q637.1719,576.5938 636.5469,575.6875 Q635.9375,574.7813 634.5,574.7813 L633.8438,574.7813 Z M631.3906,572.5781 L634.0156,572.5781 Q637.0469,572.5781 638.375,574.0313 Q639.7188,575.4688 639.7188,578.7656 Q639.7188,582.0625 638.375,583.5156 Q637.0469,584.9688 634.0156,584.9688 L631.3906,584.9688 L631.3906,572.5781 Z " fill="#000000"/><text fill="#000000" font-family="sans-serif" font-size="12" font-style="italic" lengthAdjust="spacing" textLength="74" x="655.75" y="576.1387">«DataType»</text><text fill="#000000" font-family="sans-serif" font-size="12" lengthAdjust="spacing" textLength="76" x="654.75" y="590.1074">Date_Range</text><line style="stroke:#A80036;stroke-width:1.5;" x1="586" x2="767" y1="597.9375" y2="597.9375"/><text fill="#000000" font-family="sans-serif" font-size="11" lengthAdjust="spacing" textLength="96" x="591" y="612.1479">start_date : Date</text><text fill="#000000" font-family="sans-serif" font-size="11" lengthAdjust="spacing" textLength="171" x="591" y="624.9526">start_date_inclusive : Boolean</text><text fill="#000000" font-family="sans-serif" font-size="11" lengthAdjust="spacing" textLength="90" x="591" y="637.7573">end_date : Date</text><text fill="#000000" font-family="sans-serif" font-size="11" lengthAdjust="spacing" textLength="165" x="591" y="650.562">end_date_inclusive : Boolean</text><!--MD5=[92dc6ef2f70a23983af4e570fc6275cd]
class Funding--><rect fill="#FEFECE" filter="url(#f12kfesqz08bsk)" height="32" id="Funding" style="stroke:#A80036;stroke-width:1.5;" width="82" x="467.5" y="592.5"/><ellipse cx="482.5" cy="608.5" fill="#ADD1B2" rx="11" ry="11" style="stroke:#A80036;stroke-width:1.0;"/><path d="M485.4688,614.1406 Q484.8906,614.4375 484.25,614.5781 Q483.6094,614.7344 482.9063,614.7344 Q480.4063,614.7344 479.0781,613.0938 Q477.7656,611.4375 477.7656,608.3125 Q477.7656,605.1875 479.0781,603.5313 Q480.4063,601.875 482.9063,601.875 Q483.6094,601.875 484.25,602.0313 Q484.9063,602.1875 485.4688,602.4844 L485.4688,605.2031 Q484.8438,604.625 484.25,604.3594 Q483.6563,604.0781 483.0313,604.0781 Q481.6875,604.0781 481,605.1563 Q480.3125,606.2188 480.3125,608.3125 Q480.3125,610.4063 481,611.4844 Q481.6875,612.5469 483.0313,612.5469 Q483.6563,612.5469 484.25,612.2813 Q484.8438,612 485.4688,611.4219 L485.4688,614.1406 Z " fill="#000000"/><text fill="#000000" font-family="sans-serif" font-size="12" lengthAdjust="spacing" textLength="50" x="496.5" y="612.6543">Funding</text><!--MD5=[0330879a1a385efee19ba3488ed490fa]
class Contribution--><rect codeLine="192" fill="#FFFFFF" filter="url(#f12kfesqz08bsk)" height="32" id="Contribution" style="stroke:#A80036;stroke-width:1.5;" width="109" x="964" y="373.5"/><ellipse cx="979" cy="389.5" fill="#ADD1B2" rx="11" ry="11" style="stroke:#A80036;stroke-width:1.0;"/><path d="M981.9688,395.1406 Q981.3906,395.4375 980.75,395.5781 Q980.1094,395.7344 979.4063,395.7344 Q976.9063,395.7344 975.5781,394.0938 Q974.2656,392.4375 974.2656,389.3125 Q974.2656,386.1875 975.5781,384.5313 Q976.9063,382.875 979.4063,382.875 Q980.1094,382.875 980.75,383.0313 Q981.4063,383.1875 981.9688,383.4844 L981.9688,386.2031 Q981.3438,385.625 980.75,385.3594 Q980.1563,385.0781 979.5313,385.0781 Q978.1875,385.0781 977.5,386.1563 Q976.8125,387.2188 976.8125,389.3125 Q976.8125,391.4063 977.5,392.4844 Q978.1875,393.5469 979.5313,393.5469 Q980.1563,393.5469 980.75,393.2813 Q981.3438,393 981.9688,392.4219 L981.9688,395.1406 Z " fill="#000000"/><text fill="#000000" font-family="sans-serif" font-size="12" lengthAdjust="spacing" textLength="77" x="993" y="393.6543">Contribution</text><!--MD5=[532fe005ca0bef0ad6b309c9c6480e22]
class Contribution_Statement--><rect fill="#FEFECE" filter="url(#f12kfesqz08bsk)" height="32" id="Contribution_Statement" style="stroke:#A80036;stroke-width:1.5;" width="181" x="34" y="24"/><ellipse cx="49" cy="40" fill="#ADD1B2" rx="11" ry="11" style="stroke:#A80036;stroke-width:1.0;"/><path d="M51.9688,45.6406 Q51.3906,45.9375 50.75,46.0781 Q50.1094,46.2344 49.4063,46.2344 Q46.9063,46.2344 45.5781,44.5938 Q44.2656,42.9375 44.2656,39.8125 Q44.2656,36.6875 45.5781,35.0313 Q46.9063,33.375 49.4063,33.375 Q50.1094,33.375 50.75,33.5313 Q51.4063,33.6875 51.9688,33.9844 L51.9688,36.7031 Q51.3438,36.125 50.75,35.8594 Q50.1563,35.5781 49.5313,35.5781 Q48.1875,35.5781 47.5,36.6563 Q46.8125,37.7188 46.8125,39.8125 Q46.8125,41.9063 47.5,42.9844 Q48.1875,44.0469 49.5313,44.0469 Q50.1563,44.0469 50.75,43.7813 Q51.3438,43.5 51.9688,42.9219 L51.9688,45.6406 Z " fill="#000000"/><text fill="#000000" font-family="sans-serif" font-size="12" lengthAdjust="spacing" textLength="149" x="63" y="44.1543">Contribution_Statement</text><!--MD5=[05151c161079be2c12996cf31a3c6866]
class Contribution_to_Document--><rect codeLine="210" fill="#FFFFFF" filter="url(#f12kfesqz08bsk)" height="32" id="Contribution_to_Document" style="stroke:#A80036;stroke-width:1.5;" width="198" x="1003.5" y="592.5"/><ellipse cx="1018.5" cy="608.5" fill="#ADD1B2" rx="11" ry="11" style="stroke:#A80036;stroke-width:1.0;"/><path d="M1021.4688,614.1406 Q1020.8906,614.4375 1020.25,614.5781 Q1019.6094,614.7344 1018.9063,614.7344 Q1016.4063,614.7344 1015.0781,613.0938 Q1013.7656,611.4375 1013.7656,608.3125 Q1013.7656,605.1875 1015.0781,603.5313 Q1016.4063,601.875 1018.9063,601.875 Q1019.6094,601.875 1020.25,602.0313 Q1020.9063,602.1875 1021.4688,602.4844 L1021.4688,605.2031 Q1020.8438,604.625 1020.25,604.3594 Q1019.6563,604.0781 1019.0313,604.0781 Q1017.6875,604.0781 1017,605.1563 Q1016.3125,606.2188 1016.3125,608.3125 Q1016.3125,610.4063 1017,611.4844 Q1017.6875,612.5469 1019.0313,612.5469 Q1019.6563,612.5469 1020.25,612.2813 Q1020.8438,612 1021.4688,611.4219 L1021.4688,614.1406 Z " fill="#000000"/><text fill="#000000" font-family="sans-serif" font-size="12" lengthAdjust="spacing" textLength="166" x="1032.5" y="612.6543">Contribution_to_Document</text><!--MD5=[a0318ef586937002b2555963e2a1f4ad]
class Contact_Information--><rect fill="#FEFECE" filter="url(#f12kfesqz08bsk)" height="32" id="Contact_Information" style="stroke:#A80036;stroke-width:1.5;" width="158" x="803.5" y="592.5"/><ellipse cx="818.5" cy="608.5" fill="#ADD1B2" rx="11" ry="11" style="stroke:#A80036;stroke-width:1.0;"/><path d="M821.4688,614.1406 Q820.8906,614.4375 820.25,614.5781 Q819.6094,614.7344 818.9063,614.7344 Q816.4063,614.7344 815.0781,613.0938 Q813.7656,611.4375 813.7656,608.3125 Q813.7656,605.1875 815.0781,603.5313 Q816.4063,601.875 818.9063,601.875 Q819.6094,601.875 820.25,602.0313 Q820.9063,602.1875 821.4688,602.4844 L821.4688,605.2031 Q820.8438,604.625 820.25,604.3594 Q819.6563,604.0781 819.0313,604.0781 Q817.6875,604.0781 817,605.1563 Q816.3125,606.2188 816.3125,608.3125 Q816.3125,610.4063 817,611.4844 Q817.6875,612.5469 819.0313,612.5469 Q819.6563,612.5469 820.25,612.2813 Q820.8438,612 821.4688,611.4219 L821.4688,614.1406 Z " fill="#000000"/><text fill="#000000" font-family="sans-serif" font-size="12" lengthAdjust="spacing" textLength="126" x="832.5" y="612.6543">Contact_Information</text><!--MD5=[3d3814e6d18e193800c83fb27de84142]
class CRediT_Contribution_Statement--><rect codeLine="111" fill="#DDEEDD" filter="url(#f12kfesqz08bsk)" height="32" id="CRediT_Contribution_Statement" style="stroke:#A80036;stroke-width:1.5;" width="229" x="133" y="160.5"/><ellipse cx="148" cy="176.5" fill="#ADD1B2" rx="11" ry="11" style="stroke:#A80036;stroke-width:1.0;"/><path d="M150.9688,182.1406 Q150.3906,182.4375 149.75,182.5781 Q149.1094,182.7344 148.4063,182.7344 Q145.9063,182.7344 144.5781,181.0938 Q143.2656,179.4375 143.2656,176.3125 Q143.2656,173.1875 144.5781,171.5313 Q145.9063,169.875 148.4063,169.875 Q149.1094,169.875 149.75,170.0313 Q150.4063,170.1875 150.9688,170.4844 L150.9688,173.2031 Q150.3438,172.625 149.75,172.3594 Q149.1563,172.0781 148.5313,172.0781 Q147.1875,172.0781 146.5,173.1563 Q145.8125,174.2188 145.8125,176.3125 Q145.8125,178.4063 146.5,179.4844 Q147.1875,180.5469 148.5313,180.5469 Q149.1563,180.5469 149.75,180.2813 Q150.3438,180 150.9688,179.4219 L150.9688,182.1406 Z " fill="#000000"/><text fill="#000000" font-family="sans-serif" font-size="12" lengthAdjust="spacing" textLength="197" x="162" y="180.6543">CRediT_Contribution_Statement</text><!--MD5=[42c2141a95e7f85966762f44b3023ac5]
class CRediT_Degree_of_Contribution--><rect codeLine="113" fill="#DDEEDD" filter="url(#f12kfesqz08bsk)" height="78.4141" id="CRediT_Degree_of_Contribution" style="stroke:#A80036;stroke-width:1.5;" width="227" x="21" y="350.5"/><ellipse cx="36" cy="366.5" fill="#EB937F" rx="11" ry="11" style="stroke:#A80036;stroke-width:1.0;"/><path d="M40.1094,372.5 L32.3906,372.5 L32.3906,360.1094 L40.1094,360.1094 L40.1094,362.2656 L34.8438,362.2656 L34.8438,364.9375 L39.6094,364.9375 L39.6094,367.0938 L34.8438,367.0938 L34.8438,370.3438 L40.1094,370.3438 L40.1094,372.5 Z " fill="#000000"/><text fill="#000000" font-family="sans-serif" font-size="12" lengthAdjust="spacing" textLength="195" x="50" y="370.6543">CRediT_Degree_of_Contribution</text><line style="stroke:#A80036;stroke-width:1.5;" x1="22" x2="247" y1="382.5" y2="382.5"/><text fill="#000000" font-family="sans-serif" font-size="11" lengthAdjust="spacing" textLength="27" x="27" y="396.7104">Lead</text><text fill="#000000" font-family="sans-serif" font-size="11" lengthAdjust="spacing" textLength="62" x="27" y="409.5151">Supporting</text><text fill="#000000" font-family="sans-serif" font-size="11" lengthAdjust="spacing" textLength="31" x="27" y="422.3198">Equal</text><!--MD5=[b5846dfcb37d6127d0d9f5f5e77b1e64]
class CRediT_Role_Type--><rect codeLine="118" fill="#DDEEDD" filter="url(#f12kfesqz08bsk)" height="219.2656" id="CRediT_Role_Type" style="stroke:#A80036;stroke-width:1.5;" width="155" x="283" y="280"/><ellipse cx="303.85" cy="296" fill="#EB937F" rx="11" ry="11" style="stroke:#A80036;stroke-width:1.0;"/><path d="M307.9594,302 L300.2406,302 L300.2406,289.6094 L307.9594,289.6094 L307.9594,291.7656 L302.6938,291.7656 L302.6938,294.4375 L307.4594,294.4375 L307.4594,296.5938 L302.6938,296.5938 L302.6938,299.8438 L307.9594,299.8438 L307.9594,302 Z " fill="#000000"/><text fill="#000000" font-family="sans-serif" font-size="12" lengthAdjust="spacing" textLength="110" x="319.15" y="300.1543">CRediT_Role_Type</text><line style="stroke:#A80036;stroke-width:1.5;" x1="284" x2="437" y1="312" y2="312"/><text fill="#000000" font-family="sans-serif" font-size="11" lengthAdjust="spacing" textLength="99" x="289" y="326.2104">Conceptualization</text><text fill="#000000" font-family="sans-serif" font-size="11" lengthAdjust="spacing" textLength="76" x="289" y="339.0151">Data curation</text><text fill="#000000" font-family="sans-serif" font-size="11" lengthAdjust="spacing" textLength="90" x="289" y="351.8198">Formal analysis</text><text fill="#000000" font-family="sans-serif" font-size="11" lengthAdjust="spacing" textLength="109" x="289" y="364.6245">Funding acquisition</text><text fill="#000000" font-family="sans-serif" font-size="11" lengthAdjust="spacing" textLength="72" x="289" y="377.4292">Investigation</text><text fill="#000000" font-family="sans-serif" font-size="11" lengthAdjust="spacing" textLength="71" x="289" y="390.2339">Methodology</text><text fill="#000000" font-family="sans-serif" font-size="11" lengthAdjust="spacing" textLength="125" x="289" y="403.0386">Project administration</text><text fill="#000000" font-family="sans-serif" font-size="11" lengthAdjust="spacing" textLength="60" x="289" y="415.8433">Resources</text><text fill="#000000" font-family="sans-serif" font-size="11" lengthAdjust="spacing" textLength="51" x="289" y="428.6479">Software</text><text fill="#000000" font-family="sans-serif" font-size="11" lengthAdjust="spacing" textLength="67" x="289" y="441.4526">Supervision</text><text fill="#000000" font-family="sans-serif" font-size="11" lengthAdjust="spacing" textLength="55" x="289" y="454.2573">Validation</text><text fill="#000000" font-family="sans-serif" font-size="11" lengthAdjust="spacing" textLength="70" x="289" y="467.062">Visualization</text><text fill="#000000" font-family="sans-serif" font-size="11" lengthAdjust="spacing" textLength="123" x="289" y="479.8667">Writing - original draft</text><text fill="#000000" font-family="sans-serif" font-size="11" lengthAdjust="spacing" textLength="143" x="289" y="492.6714">Writing - review &amp; editing</text><!--MD5=[ff9dfe2dddb5fe4a69020d7834f0d207]
link Document to Activity--><path codeLine="238" d="M993.22,73.05 C952.62,96.59 898.18,128.15 860.5,149.99 " fill="none" id="Document-Activity" style="stroke:#A80036;stroke-width:1.0;"/><polygon fill="#000000" points="940.1743,114.0741,949.4735,112.0802,946.5256,106.9951,940.1743,114.0741" style="stroke:#000000;stroke-width:1.0;"/><text fill="#000000" font-family="sans-serif" font-size="13" lengthAdjust="spacing" textLength="36" x="953.5" y="116.0669">prove</text><text fill="#000000" font-family="sans-serif" font-size="13" lengthAdjust="spacing" textLength="23" x="957.9074" y="92.6416">0..*</text><text fill="#000000" font-family="sans-serif" font-size="13" lengthAdjust="spacing" textLength="23" x="845.4219" y="138.8069">0..*</text><!--MD5=[cd935cc757d29bd6a59b1252b30899e0]
link Activity to Agent--><path codeLine="244" d="M816.5,203.37 C816.5,238.69 816.5,302.48 816.5,345.16 " fill="none" id="Activity-to-Agent" style="stroke:#A80036;stroke-width:1.0;"/><polygon fill="#A80036" points="816.5,350.26,820.5,341.26,816.5,345.26,812.5,341.26,816.5,350.26" style="stroke:#A80036;stroke-width:1.0;"/><polygon fill="#000000" points="821.5,246.5664,824.4389,237.5213,818.5611,237.5213,821.5,246.5664" style="stroke:#000000;stroke-width:1.0;"/><text fill="#000000" font-family="sans-serif" font-size="13" lengthAdjust="spacing" textLength="33" x="830.5" y="246.0669">actor</text><text fill="#000000" font-family="sans-serif" font-size="13" lengthAdjust="spacing" textLength="23" x="790.9844" y="222.9912">0..*</text><text fill="#000000" font-family="sans-serif" font-size="13" lengthAdjust="spacing" textLength="24" x="790.5125" y="339.5623">0..1</text><!--MD5=[2da288daa10c3ee0fffff7997d0d73e1]
link Activity to Date_Range--><path codeLine="794" d="M765.57,203.1 C736.83,220.52 703.38,246.51 686.5,280 C642.09,368.12 653.28,487.21 665.1,554.82 " fill="none" id="Activity-to-Date_Range" style="stroke:#A80036;stroke-width:1.0;stroke-dasharray:7.0,7.0;"/><polygon fill="#A80036" points="666.03,560,668.3971,550.4398,665.157,555.0768,660.52,551.8367,666.03,560" style="stroke:#A80036;stroke-width:1.0;"/><!--MD5=[ff11c2ae19cf8b0222e8ec830cb319de]
link Activity to Funding--><path codeLine="795" d="M740.99,193.65 C691.28,208.12 628.58,234.34 590.5,280 C509.78,376.77 506.81,542 507.93,592.44 " fill="none" id="Activity-Funding" style="stroke:#A80036;stroke-width:1.0;"/><polygon fill="#000000" points="598.0228,385.2496,590.9216,391.5759,595.9964,394.5417,598.0228,385.2496" style="stroke:#000000;stroke-width:1.0;"/><text fill="#000000" font-family="sans-serif" font-size="13" lengthAdjust="spacing" textLength="42" x="604.5" y="394.0669">covers</text><text fill="#000000" font-family="sans-serif" font-size="13" lengthAdjust="spacing" textLength="23" x="709.9688" y="191.6216">0..*</text><text fill="#000000" font-family="sans-serif" font-size="13" lengthAdjust="spacing" textLength="23" x="480.7809" y="581.431">0..*</text><!--MD5=[55f20054f286b2e7074e8d22fab1f608]
reverse link Activity to Contribution--><path codeLine="197" d="M871.11,215.01 C895.37,233.1 923.37,256.04 945.5,280 C973.23,310.02 998.06,351.46 1010.35,373.43 " fill="none" id="Activity-backto-Contribution" style="stroke:#A80036;stroke-width:1.0;"/><polygon fill="none" points="866.7,220.46,854.64,203.03,874.93,209.13,866.7,220.46" style="stroke:#A80036;stroke-width:1.0;"/><!--MD5=[b01ee177fc17bf8bb95324fc01c31b3b]
link Contribution_Statement to Resource--><path codeLine="613" d="M116.38,56.17 C103.31,80.59 77.6,128.61 63.1,155.7 " fill="none" id="Contribution_Statement-to-Resource" style="stroke:#A80036;stroke-width:1.0;"/><polygon fill="#A80036" points="60.7,160.18,68.4759,154.1356,63.0611,155.7726,61.4241,150.3578,60.7,160.18" style="stroke:#A80036;stroke-width:1.0;"/><polygon fill="#000000" points="94.1403,115.9745,101.0001,109.3872,95.818,106.6131,94.1403,115.9745" style="stroke:#000000;stroke-width:1.0;"/><text fill="#000000" font-family="sans-serif" font-size="13" lengthAdjust="spacing" textLength="54" x="105.5" y="116.0669">provides</text><text fill="#000000" font-family="sans-serif" font-size="13" lengthAdjust="spacing" textLength="24" x="35.4413" y="149.3785">0..1</text><!--MD5=[8d7c614e8203540f95956299e63d224a]
reverse link Contribution to Contribution_to_Document--><path codeLine="215" d="M1031.68,424.54 C1050.21,472.41 1083.2,557.65 1096.6,592.26 " fill="none" id="Contribution-backto-Contribution_to_Document" style="stroke:#A80036;stroke-width:1.0;"/><polygon fill="none" points="1025.1,426.94,1024.41,405.76,1038.15,421.88,1025.1,426.94" style="stroke:#A80036;stroke-width:1.0;"/><!--MD5=[117c8d017b65f89954aa553a8ad2cfe8]
link Contribution_to_Document to Document--><path codeLine="597" d="M1102.72,587.15 C1103.08,535.6 1102.73,395.73 1090.5,280 C1082.9,208.05 1066.59,125.07 1056.68,78.25 " fill="none" id="Contribution_to_Document-Document" style="stroke:#A80036;stroke-width:1.0;"/><polygon fill="#A80036" points="1055.63,73.27,1053.5911,82.9055,1056.6708,78.1605,1061.4159,81.2402,1055.63,73.27" style="stroke:#A80036;stroke-width:1.0;"/><polygon fill="#A80036" points="1102.68,592.43,1106.757,583.4646,1102.7229,587.4302,1098.7573,583.396,1102.68,592.43" style="stroke:#A80036;stroke-width:1.0;"/><text fill="#000000" font-family="sans-serif" font-size="13" lengthAdjust="spacing" textLength="208" x="858.9919" y="581.4175">0..* contributions &lt;&lt;ordered&gt;&gt;</text><text fill="#000000" font-family="sans-serif" font-size="13" lengthAdjust="spacing" textLength="8" x="1048.1875" y="92.6457">1</text><!--MD5=[392b5d5331db5043115a06bd654f787a]
link Agent to Date_Range--><path codeLine="15" d="M791.79,428.8 C769.07,464.01 735.19,516.53 710.03,555.52 " fill="none" id="Agent-to-Date_Range" style="stroke:#A80036;stroke-width:1.0;stroke-dasharray:7.0,7.0;"/><polygon fill="#A80036" points="707.32,559.73,715.5645,554.3422,710.0339,555.5306,708.8455,550,707.32,559.73" style="stroke:#A80036;stroke-width:1.0;"/><!--MD5=[d43df4fbdad36fd00892352d175d5460]
link Agent to Contact_Information--><path codeLine="16" d="M828.15,428.8 C842.22,475.07 865.37,551.19 876.35,587.29 " fill="none" id="Agent-to-Contact_Information" style="stroke:#A80036;stroke-width:1.0;stroke-dasharray:7.0,7.0;"/><polygon fill="#A80036" points="877.88,592.32,879.0851,582.5451,876.4236,587.5368,871.432,584.8753,877.88,592.32" style="stroke:#A80036;stroke-width:1.0;"/><text fill="#000000" font-family="sans-serif" font-size="13" lengthAdjust="spacing" textLength="23" x="849.5403" y="581.5649">0..*</text><!--MD5=[7276caa4191a3f95f28b5ba112f82c6c]
reverse link Contribution_Statement to CRediT_Contribution_Statement--><path codeLine="154" d="M152.09,71.17 C177.37,98.81 213.76,138.6 233.49,160.18 " fill="none" id="Contribution_Statement-backto-CRediT_Contribution_Statement" style="stroke:#A80036;stroke-width:1.0;"/><polygon fill="none" points="146.7,75.65,138.37,56.17,157.03,66.2,146.7,75.65" style="stroke:#A80036;stroke-width:1.0;"/><!--MD5=[fb8e7b03155fc2d9c40ee98c4cf95180]
link CRediT_Contribution_Statement to CRediT_Role_Type--><path codeLine="167" d="M255.63,192.67 C265.29,210.72 282.33,242.53 299.9,275.34 " fill="none" id="CRediT_Contribution_Statement-to-CRediT_Role_Type" style="stroke:#A80036;stroke-width:1.0;stroke-dasharray:7.0,7.0;"/><polygon fill="#A80036" points="302.27,279.77,301.5212,269.9496,299.8978,275.3686,294.4789,273.7452,302.27,279.77" style="stroke:#A80036;stroke-width:1.0;"/><text fill="#000000" font-family="sans-serif" font-size="13" lengthAdjust="spacing" textLength="54" x="242.5436" y="268.956">roleType</text><!--MD5=[fd5d8cb6bc72986bd3560f3b69973f17]
link CRediT_Contribution_Statement to CRediT_Degree_of_Contribution--><path codeLine="170" d="M239.37,192.67 C222.41,224.35 182.71,298.48 157.31,345.9 " fill="none" id="CRediT_Contribution_Statement-to-CRediT_Degree_of_Contribution" style="stroke:#A80036;stroke-width:1.0;stroke-dasharray:7.0,7.0;"/><polygon fill="#A80036" points="154.9,350.4,162.6678,344.3451,157.2552,345.9894,155.6108,340.5768,154.9,350.4" style="stroke:#A80036;stroke-width:1.0;"/><text fill="#000000" font-family="sans-serif" font-size="13" lengthAdjust="spacing" textLength="137" x="9.6328" y="339.4333">degreeOfContribution</text><!--MD5=[656445fb6f1974042651a50aa3b67912]
@startuml

    !includesub ../../CERIF-Core/diagrams/core.puml!common

    !includesub ../../CERIF-Core/diagrams/core.puml!Resource
    !includesub ../../CERIF-Core/diagrams/core.puml!Document
    !includesub ../../CERIF-Core/diagrams/core.puml!Activity
    !includesub ../../CERIF-Core/diagrams/core.puml!Contribution
    !includesub ../../CERIF-Core/diagrams/core.puml!Contribution_to_Document
    !includesub ../../CERIF-Core/diagrams/core.puml!Agent

    !includesub ./module.puml!CRediT

@enduml

@startuml

    hide empty members
    skinparam BoxPadding 120

    class "Resource" #ffffff {
    }
    class "Document" #ffffff {
        title : Multilingual_String
        publicationDate : Date
    }
    class "Activity" #ffffff {
  		dateRange : Date_Range
    }
	"Document" "0..*" - - "0..*" "Activity" : prove >
    "Activity" "0..*" - -> "0..1" "Agent" : actor >
    class Date_Range << (D,#add0b2) DataType>> #ffffff {
        start_date : Date
        start_date_inclusive : Boolean
        end_date : Date
        end_date_inclusive : Boolean
	}
	"Activity" ..> "Date_Range"
	"Activity" "0..*" - - - "0..*" "Funding" : covers <
    class "Contribution" #ffffff {
    }
    "Activity" <|-d- "Contribution"
     "Contribution_Statement" - -> "0..1" "Resource" : provides >
    class "Contribution_to_Document" #ffffff {
    }
    "Contribution" <|-d- "Contribution_to_Document"
    "Contribution_to_Document" "0..* contributions <<ordered>>" <- -> "1" "Document"
    class "Agent" #ffffff {
        keywords : List<Multilingual_String>
    	lifetime : Date_Range
    	contacts : List<Contact_Information>
    }
    "Agent" ..> "Date_Range"
    "Agent" ..> "0..*" "Contact_Information"

        class "CRediT_Contribution_Statement" #ddeedd {
        }
        enum "CRediT_Degree_of_Contribution" #ddeedd {
            Lead
            Supporting
            Equal
        }
        enum "CRediT_Role_Type" #ddeedd {
            Conceptualization
            Data curation
            Formal analysis
            Funding acquisition
            Investigation
            Methodology
            Project administration
            Resources
            Software
            Supervision
            Validation
            Visualization
            Writing - original draft
            Writing - review & editing
        }
        "Contribution_Statement" <|- - "CRediT_Contribution_Statement"
        "CRediT_Contribution_Statement" ..> "roleType" "CRediT_Role_Type"
        "CRediT_Contribution_Statement" ..> "degreeOfContribution" "CRediT_Degree_of_Contribution"

@enduml

PlantUML version 1.2021.8(Sat Jun 26 08:20:59 UTC 2021)
(GPL source distribution)
Java Runtime: OpenJDK Runtime Environment
JVM: OpenJDK 64-Bit Server VM
Default Encoding: UTF-8
Language: en
Country: null
--></g></svg>