<?xml version="1.0" encoding="UTF-8" standalone="no"?><svg xmlns="http://www.w3.org/2000/svg" xmlns:xlink="http://www.w3.org/1999/xlink" contentScriptType="application/ecmascript" contentStyleType="text/css" height="606px" preserveAspectRatio="none" style="width:1141px;height:606px;background:#FFFFFF;" version="1.1" viewBox="0 0 1141 606" width="1141px" zoomAndPan="magnify"><defs><filter height="300%" id="f1x4xkm4cgrbp3" width="300%" x="-1" y="-1"><feGaussianBlur result="blurOut" stdDeviation="2.0"/><feColorMatrix in="blurOut" result="blurOut2" type="matrix" values="0 0 0 0 0 0 0 0 0 0 0 0 0 0 0 0 0 0 .4 0"/><feOffset dx="4.0" dy="4.0" in="blurOut2" result="blurOut3"/><feBlend in="SourceGraphic" in2="blurOut3" mode="normal"/></filter></defs><g><!--MD5=[6b13f1b330d33795af281e5c1dfe1e98]
class Resource--><rect codeLine="267" fill="#FFFFFF" filter="url(#f1x4xkm4cgrbp3)" height="32" id="Resource" style="stroke:#A80036;stroke-width:1.5;" width="91" x="7" y="160.5"/><ellipse cx="22" cy="176.5" fill="#ADD1B2" rx="11" ry="11" style="stroke:#A80036;stroke-width:1.0;"/><path d="M24.9688,182.1406 Q24.3906,182.4375 23.75,182.5781 Q23.1094,182.7344 22.4063,182.7344 Q19.9063,182.7344 18.5781,181.0938 Q17.2656,179.4375 17.2656,176.3125 Q17.2656,173.1875 18.5781,171.5313 Q19.9063,169.875 22.4063,169.875 Q23.1094,169.875 23.75,170.0313 Q24.4063,170.1875 24.9688,170.4844 L24.9688,173.2031 Q24.3438,172.625 23.75,172.3594 Q23.1563,172.0781 22.5313,172.0781 Q21.1875,172.0781 20.5,173.1563 Q19.8125,174.2188 19.8125,176.3125 Q19.8125,178.4063 20.5,179.4844 Q21.1875,180.5469 22.5313,180.5469 Q23.1563,180.5469 23.75,180.2813 Q24.3438,180 24.9688,179.4219 L24.9688,182.1406 Z " fill="#000000"/><text fill="#000000" font-family="sans-serif" font-size="12" lengthAdjust="spacing" textLength="59" x="36" y="180.6543">Resource</text><!--MD5=[59b530d44ae785dc18db921986a9c15c]
class Document--><rect codeLine="312" fill="#FFFFFF" filter="url(#f1x4xkm4cgrbp3)" height="65.6094" id="Document" style="stroke:#A80036;stroke-width:1.5;" width="148" x="971.5" y="7"/><ellipse cx="1009.9" cy="23" fill="#ADD1B2" rx="11" ry="11" style="stroke:#A80036;stroke-width:1.0;"/><path d="M1012.8688,28.6406 Q1012.2906,28.9375 1011.65,29.0781 Q1011.0094,29.2344 1010.3063,29.2344 Q1007.8063,29.2344 1006.4781,27.5938 Q1005.1656,25.9375 1005.1656,22.8125 Q1005.1656,19.6875 1006.4781,18.0313 Q1007.8063,16.375 1010.3063,16.375 Q1011.0094,16.375 1011.65,16.5313 Q1012.3063,16.6875 1012.8688,16.9844 L1012.8688,19.7031 Q1012.2438,19.125 1011.65,18.8594 Q1011.0563,18.5781 1010.4313,18.5781 Q1009.0875,18.5781 1008.4,19.6563 Q1007.7125,20.7188 1007.7125,22.8125 Q1007.7125,24.9063 1008.4,25.9844 Q1009.0875,27.0469 1010.4313,27.0469 Q1011.0563,27.0469 1011.65,26.7813 Q1012.2438,26.5 1012.8688,25.9219 L1012.8688,28.6406 Z " fill="#000000"/><text fill="#000000" font-family="sans-serif" font-size="12" lengthAdjust="spacing" textLength="64" x="1029.1" y="27.1543">Document</text><line style="stroke:#A80036;stroke-width:1.5;" x1="972.5" x2="1118.5" y1="39" y2="39"/><text fill="#000000" font-family="sans-serif" font-size="11" lengthAdjust="spacing" textLength="136" x="977.5" y="53.2104">title : Multilingual_String</text><text fill="#000000" font-family="sans-serif" font-size="11" lengthAdjust="spacing" textLength="125" x="977.5" y="66.0151">publicationDate : Date</text><!--MD5=[c881b25adf3665c6568c9693d41a70f3]
class Activity--><rect codeLine="142" fill="#FFFFFF" filter="url(#f1x4xkm4cgrbp3)" height="52.8047" id="Activity" style="stroke:#A80036;stroke-width:1.5;" width="151" x="738" y="150"/><ellipse cx="787.75" cy="166" fill="#ADD1B2" rx="11" ry="11" style="stroke:#A80036;stroke-width:1.0;"/><path d="M790.7188,171.6406 Q790.1406,171.9375 789.5,172.0781 Q788.8594,172.2344 788.1563,172.2344 Q785.6563,172.2344 784.3281,170.5938 Q783.0156,168.9375 783.0156,165.8125 Q783.0156,162.6875 784.3281,161.0313 Q785.6563,159.375 788.1563,159.375 Q788.8594,159.375 789.5,159.5313 Q790.1563,159.6875 790.7188,159.9844 L790.7188,162.7031 Q790.0938,162.125 789.5,161.8594 Q788.9063,161.5781 788.2813,161.5781 Q786.9375,161.5781 786.25,162.6563 Q785.5625,163.7188 785.5625,165.8125 Q785.5625,167.9063 786.25,168.9844 Q786.9375,170.0469 788.2813,170.0469 Q788.9063,170.0469 789.5,169.7813 Q790.0938,169.5 790.7188,168.9219 L790.7188,171.6406 Z " fill="#000000"/><text fill="#000000" font-family="sans-serif" font-size="12" lengthAdjust="spacing" textLength="43" x="808.25" y="170.1543">Activity</text><line style="stroke:#A80036;stroke-width:1.5;" x1="739" x2="888" y1="182" y2="182"/><text fill="#000000" font-family="sans-serif" font-size="11" lengthAdjust="spacing" textLength="139" x="744" y="196.2104">dateRange : Date_Range</text><!--MD5=[9d44916250b776386006c440668bcfbb]
class Agent--><rect codeLine="10" fill="#FFFFFF" filter="url(#f1x4xkm4cgrbp3)" height="78.4141" id="Agent" style="stroke:#A80036;stroke-width:1.5;" width="224" x="643.5" y="350.5"/><ellipse cx="732.75" cy="366.5" fill="#ADD1B2" rx="11" ry="11" style="stroke:#A80036;stroke-width:1.0;"/><path d="M735.7188,372.1406 Q735.1406,372.4375 734.5,372.5781 Q733.8594,372.7344 733.1563,372.7344 Q730.6563,372.7344 729.3281,371.0938 Q728.0156,369.4375 728.0156,366.3125 Q728.0156,363.1875 729.3281,361.5313 Q730.6563,359.875 733.1563,359.875 Q733.8594,359.875 734.5,360.0313 Q735.1563,360.1875 735.7188,360.4844 L735.7188,363.2031 Q735.0938,362.625 734.5,362.3594 Q733.9063,362.0781 733.2813,362.0781 Q731.9375,362.0781 731.25,363.1563 Q730.5625,364.2188 730.5625,366.3125 Q730.5625,368.4063 731.25,369.4844 Q731.9375,370.5469 733.2813,370.5469 Q733.9063,370.5469 734.5,370.2813 Q735.0938,370 735.7188,369.4219 L735.7188,372.1406 Z " fill="#000000"/><text fill="#000000" font-family="sans-serif" font-size="12" lengthAdjust="spacing" textLength="37" x="753.25" y="370.6543">Agent</text><line style="stroke:#A80036;stroke-width:1.5;" x1="644.5" x2="866.5" y1="382.5" y2="382.5"/><text fill="#000000" font-family="sans-serif" font-size="11" lengthAdjust="spacing" textLength="207" x="649.5" y="396.7104">keywords : List&lt;Multilingual_String&gt;</text><text fill="#000000" font-family="sans-serif" font-size="11" lengthAdjust="spacing" textLength="121" x="649.5" y="409.5151">lifetime : Date_Range</text><text fill="#000000" font-family="sans-serif" font-size="11" lengthAdjust="spacing" textLength="212" x="649.5" y="422.3198">contacts : List&lt;Contact_Information&gt;</text><!--MD5=[176bc0a65f2558a2e68a39a8b34c74bb]
class Date_Range--><rect fill="#FEFECE" filter="url(#f1x4xkm4cgrbp3)" height="32" id="Date_Range" style="stroke:#A80036;stroke-width:1.5;" width="108" x="536.5" y="560"/><ellipse cx="551.5" cy="576" fill="#ADD1B2" rx="11" ry="11" style="stroke:#A80036;stroke-width:1.0;"/><path d="M554.4688,581.6406 Q553.8906,581.9375 553.25,582.0781 Q552.6094,582.2344 551.9063,582.2344 Q549.4063,582.2344 548.0781,580.5938 Q546.7656,578.9375 546.7656,575.8125 Q546.7656,572.6875 548.0781,571.0313 Q549.4063,569.375 551.9063,569.375 Q552.6094,569.375 553.25,569.5313 Q553.9063,569.6875 554.4688,569.9844 L554.4688,572.7031 Q553.8438,572.125 553.25,571.8594 Q552.6563,571.5781 552.0313,571.5781 Q550.6875,571.5781 550,572.6563 Q549.3125,573.7188 549.3125,575.8125 Q549.3125,577.9063 550,578.9844 Q550.6875,580.0469 552.0313,580.0469 Q552.6563,580.0469 553.25,579.7813 Q553.8438,579.5 554.4688,578.9219 L554.4688,581.6406 Z " fill="#000000"/><text fill="#000000" font-family="sans-serif" font-size="12" lengthAdjust="spacing" textLength="76" x="565.5" y="580.1543">Date_Range</text><!--MD5=[0330879a1a385efee19ba3488ed490fa]
class Contribution--><rect codeLine="187" fill="#FFFFFF" filter="url(#f1x4xkm4cgrbp3)" height="32" id="Contribution" style="stroke:#A80036;stroke-width:1.5;" width="109" x="903" y="373.5"/><ellipse cx="918" cy="389.5" fill="#ADD1B2" rx="11" ry="11" style="stroke:#A80036;stroke-width:1.0;"/><path d="M920.9688,395.1406 Q920.3906,395.4375 919.75,395.5781 Q919.1094,395.7344 918.4063,395.7344 Q915.9063,395.7344 914.5781,394.0938 Q913.2656,392.4375 913.2656,389.3125 Q913.2656,386.1875 914.5781,384.5313 Q915.9063,382.875 918.4063,382.875 Q919.1094,382.875 919.75,383.0313 Q920.4063,383.1875 920.9688,383.4844 L920.9688,386.2031 Q920.3438,385.625 919.75,385.3594 Q919.1563,385.0781 918.5313,385.0781 Q917.1875,385.0781 916.5,386.1563 Q915.8125,387.2188 915.8125,389.3125 Q915.8125,391.4063 916.5,392.4844 Q917.1875,393.5469 918.5313,393.5469 Q919.1563,393.5469 919.75,393.2813 Q920.3438,393 920.9688,392.4219 L920.9688,395.1406 Z " fill="#000000"/><text fill="#000000" font-family="sans-serif" font-size="12" lengthAdjust="spacing" textLength="77" x="932" y="393.6543">Contribution</text><!--MD5=[532fe005ca0bef0ad6b309c9c6480e22]
class Contribution_Statement--><rect fill="#FEFECE" filter="url(#f1x4xkm4cgrbp3)" height="32" id="Contribution_Statement" style="stroke:#A80036;stroke-width:1.5;" width="181" x="109" y="24"/><ellipse cx="124" cy="40" fill="#ADD1B2" rx="11" ry="11" style="stroke:#A80036;stroke-width:1.0;"/><path d="M126.9688,45.6406 Q126.3906,45.9375 125.75,46.0781 Q125.1094,46.2344 124.4063,46.2344 Q121.9063,46.2344 120.5781,44.5938 Q119.2656,42.9375 119.2656,39.8125 Q119.2656,36.6875 120.5781,35.0313 Q121.9063,33.375 124.4063,33.375 Q125.1094,33.375 125.75,33.5313 Q126.4063,33.6875 126.9688,33.9844 L126.9688,36.7031 Q126.3438,36.125 125.75,35.8594 Q125.1563,35.5781 124.5313,35.5781 Q123.1875,35.5781 122.5,36.6563 Q121.8125,37.7188 121.8125,39.8125 Q121.8125,41.9063 122.5,42.9844 Q123.1875,44.0469 124.5313,44.0469 Q125.1563,44.0469 125.75,43.7813 Q126.3438,43.5 126.9688,42.9219 L126.9688,45.6406 Z " fill="#000000"/><text fill="#000000" font-family="sans-serif" font-size="12" lengthAdjust="spacing" textLength="149" x="138" y="44.1543">Contribution_Statement</text><!--MD5=[05151c161079be2c12996cf31a3c6866]
class Contribution_to_Document--><rect codeLine="205" fill="#FFFFFF" filter="url(#f1x4xkm4cgrbp3)" height="32" id="Contribution_to_Document" style="stroke:#A80036;stroke-width:1.5;" width="198" x="929.5" y="560"/><ellipse cx="944.5" cy="576" fill="#ADD1B2" rx="11" ry="11" style="stroke:#A80036;stroke-width:1.0;"/><path d="M947.4688,581.6406 Q946.8906,581.9375 946.25,582.0781 Q945.6094,582.2344 944.9063,582.2344 Q942.4063,582.2344 941.0781,580.5938 Q939.7656,578.9375 939.7656,575.8125 Q939.7656,572.6875 941.0781,571.0313 Q942.4063,569.375 944.9063,569.375 Q945.6094,569.375 946.25,569.5313 Q946.9063,569.6875 947.4688,569.9844 L947.4688,572.7031 Q946.8438,572.125 946.25,571.8594 Q945.6563,571.5781 945.0313,571.5781 Q943.6875,571.5781 943,572.6563 Q942.3125,573.7188 942.3125,575.8125 Q942.3125,577.9063 943,578.9844 Q943.6875,580.0469 945.0313,580.0469 Q945.6563,580.0469 946.25,579.7813 Q946.8438,579.5 947.4688,578.9219 L947.4688,581.6406 Z " fill="#000000"/><text fill="#000000" font-family="sans-serif" font-size="12" lengthAdjust="spacing" textLength="166" x="958.5" y="580.1543">Contribution_to_Document</text><!--MD5=[a0318ef586937002b2555963e2a1f4ad]
class Contact_Information--><rect fill="#FEFECE" filter="url(#f1x4xkm4cgrbp3)" height="32" id="Contact_Information" style="stroke:#A80036;stroke-width:1.5;" width="158" x="679.5" y="560"/><ellipse cx="694.5" cy="576" fill="#ADD1B2" rx="11" ry="11" style="stroke:#A80036;stroke-width:1.0;"/><path d="M697.4688,581.6406 Q696.8906,581.9375 696.25,582.0781 Q695.6094,582.2344 694.9063,582.2344 Q692.4063,582.2344 691.0781,580.5938 Q689.7656,578.9375 689.7656,575.8125 Q689.7656,572.6875 691.0781,571.0313 Q692.4063,569.375 694.9063,569.375 Q695.6094,569.375 696.25,569.5313 Q696.9063,569.6875 697.4688,569.9844 L697.4688,572.7031 Q696.8438,572.125 696.25,571.8594 Q695.6563,571.5781 695.0313,571.5781 Q693.6875,571.5781 693,572.6563 Q692.3125,573.7188 692.3125,575.8125 Q692.3125,577.9063 693,578.9844 Q693.6875,580.0469 695.0313,580.0469 Q695.6563,580.0469 696.25,579.7813 Q696.8438,579.5 697.4688,578.9219 L697.4688,581.6406 Z " fill="#000000"/><text fill="#000000" font-family="sans-serif" font-size="12" lengthAdjust="spacing" textLength="126" x="708.5" y="580.1543">Contact_Information</text><!--MD5=[3d3814e6d18e193800c83fb27de84142]
class CRediT_Contribution_Statement--><rect codeLine="151" fill="#DDEEDD" filter="url(#f1x4xkm4cgrbp3)" height="32" id="CRediT_Contribution_Statement" style="stroke:#A80036;stroke-width:1.5;" width="229" x="232" y="160.5"/><ellipse cx="247" cy="176.5" fill="#ADD1B2" rx="11" ry="11" style="stroke:#A80036;stroke-width:1.0;"/><path d="M249.9688,182.1406 Q249.3906,182.4375 248.75,182.5781 Q248.1094,182.7344 247.4063,182.7344 Q244.9063,182.7344 243.5781,181.0938 Q242.2656,179.4375 242.2656,176.3125 Q242.2656,173.1875 243.5781,171.5313 Q244.9063,169.875 247.4063,169.875 Q248.1094,169.875 248.75,170.0313 Q249.4063,170.1875 249.9688,170.4844 L249.9688,173.2031 Q249.3438,172.625 248.75,172.3594 Q248.1563,172.0781 247.5313,172.0781 Q246.1875,172.0781 245.5,173.1563 Q244.8125,174.2188 244.8125,176.3125 Q244.8125,178.4063 245.5,179.4844 Q246.1875,180.5469 247.5313,180.5469 Q248.1563,180.5469 248.75,180.2813 Q249.3438,180 249.9688,179.4219 L249.9688,182.1406 Z " fill="#000000"/><text fill="#000000" font-family="sans-serif" font-size="12" lengthAdjust="spacing" textLength="197" x="261" y="180.6543">CRediT_Contribution_Statement</text><!--MD5=[42c2141a95e7f85966762f44b3023ac5]
class CRediT_Degree_of_Contribution--><rect codeLine="153" fill="#DDEEDD" filter="url(#f1x4xkm4cgrbp3)" height="78.4141" id="CRediT_Degree_of_Contribution" style="stroke:#A80036;stroke-width:1.5;" width="227" x="120" y="350.5"/><ellipse cx="135" cy="366.5" fill="#EB937F" rx="11" ry="11" style="stroke:#A80036;stroke-width:1.0;"/><path d="M139.1094,372.5 L131.3906,372.5 L131.3906,360.1094 L139.1094,360.1094 L139.1094,362.2656 L133.8438,362.2656 L133.8438,364.9375 L138.6094,364.9375 L138.6094,367.0938 L133.8438,367.0938 L133.8438,370.3438 L139.1094,370.3438 L139.1094,372.5 Z " fill="#000000"/><text fill="#000000" font-family="sans-serif" font-size="12" lengthAdjust="spacing" textLength="195" x="149" y="370.6543">CRediT_Degree_of_Contribution</text><line style="stroke:#A80036;stroke-width:1.5;" x1="121" x2="346" y1="382.5" y2="382.5"/><text fill="#000000" font-family="sans-serif" font-size="11" lengthAdjust="spacing" textLength="27" x="126" y="396.7104">Lead</text><text fill="#000000" font-family="sans-serif" font-size="11" lengthAdjust="spacing" textLength="62" x="126" y="409.5151">Supporting</text><text fill="#000000" font-family="sans-serif" font-size="11" lengthAdjust="spacing" textLength="31" x="126" y="422.3198">Equal</text><!--MD5=[b5846dfcb37d6127d0d9f5f5e77b1e64]
class CRediT_Role_Type--><rect codeLine="158" fill="#DDEEDD" filter="url(#f1x4xkm4cgrbp3)" height="219.2656" id="CRediT_Role_Type" style="stroke:#A80036;stroke-width:1.5;" width="155" x="382" y="280"/><ellipse cx="402.85" cy="296" fill="#EB937F" rx="11" ry="11" style="stroke:#A80036;stroke-width:1.0;"/><path d="M406.9594,302 L399.2406,302 L399.2406,289.6094 L406.9594,289.6094 L406.9594,291.7656 L401.6938,291.7656 L401.6938,294.4375 L406.4594,294.4375 L406.4594,296.5938 L401.6938,296.5938 L401.6938,299.8438 L406.9594,299.8438 L406.9594,302 Z " fill="#000000"/><text fill="#000000" font-family="sans-serif" font-size="12" lengthAdjust="spacing" textLength="110" x="418.15" y="300.1543">CRediT_Role_Type</text><line style="stroke:#A80036;stroke-width:1.5;" x1="383" x2="536" y1="312" y2="312"/><text fill="#000000" font-family="sans-serif" font-size="11" lengthAdjust="spacing" textLength="99" x="388" y="326.2104">Conceptualization</text><text fill="#000000" font-family="sans-serif" font-size="11" lengthAdjust="spacing" textLength="76" x="388" y="339.0151">Data curation</text><text fill="#000000" font-family="sans-serif" font-size="11" lengthAdjust="spacing" textLength="90" x="388" y="351.8198">Formal analysis</text><text fill="#000000" font-family="sans-serif" font-size="11" lengthAdjust="spacing" textLength="109" x="388" y="364.6245">Funding acquisition</text><text fill="#000000" font-family="sans-serif" font-size="11" lengthAdjust="spacing" textLength="72" x="388" y="377.4292">Investigation</text><text fill="#000000" font-family="sans-serif" font-size="11" lengthAdjust="spacing" textLength="71" x="388" y="390.2339">Methodology</text><text fill="#000000" font-family="sans-serif" font-size="11" lengthAdjust="spacing" textLength="125" x="388" y="403.0386">Project administration</text><text fill="#000000" font-family="sans-serif" font-size="11" lengthAdjust="spacing" textLength="60" x="388" y="415.8433">Resources</text><text fill="#000000" font-family="sans-serif" font-size="11" lengthAdjust="spacing" textLength="51" x="388" y="428.6479">Software</text><text fill="#000000" font-family="sans-serif" font-size="11" lengthAdjust="spacing" textLength="67" x="388" y="441.4526">Supervision</text><text fill="#000000" font-family="sans-serif" font-size="11" lengthAdjust="spacing" textLength="55" x="388" y="454.2573">Validation</text><text fill="#000000" font-family="sans-serif" font-size="11" lengthAdjust="spacing" textLength="70" x="388" y="467.062">Visualization</text><text fill="#000000" font-family="sans-serif" font-size="11" lengthAdjust="spacing" textLength="123" x="388" y="479.8667">Writing - original draft</text><text fill="#000000" font-family="sans-serif" font-size="11" lengthAdjust="spacing" textLength="143" x="388" y="492.6714">Writing - review &amp; editing</text><!--MD5=[61da7fda2e2744fa0481a20df550fe38]
link Resource to Resource--><path codeLine="329" d="M98.02,164.61 C116.95,163.79 133,167.75 133,176.5 C133,185.25 116.95,189.21 98.02,188.39 " fill="none" id="Resource-Resource" style="stroke:#A80036;stroke-width:1.0;"/><polygon fill="#000000" points="137.7836,181.5617,141.1112,172.6523,135.2389,172.3979,137.7836,181.5617" style="stroke:#000000;stroke-width:1.0;"/><text fill="#000000" font-family="sans-serif" font-size="13" lengthAdjust="spacing" textLength="56" x="152" y="181.0669">is part of</text><text fill="#000000" font-family="sans-serif" font-size="13" lengthAdjust="spacing" textLength="23" x="106.0384" y="158.9595">0..*</text><text fill="#000000" font-family="sans-serif" font-size="13" lengthAdjust="spacing" textLength="23" x="106.0384" y="186.0836">0..*</text><!--MD5=[ff9dfe2dddb5fe4a69020d7834f0d207]
link Document to Activity--><path codeLine="251" d="M990.22,73.05 C949.62,96.59 895.18,128.15 857.5,149.99 " fill="none" id="Document-Activity" style="stroke:#A80036;stroke-width:1.0;"/><polygon fill="#000000" points="937.1743,114.0741,946.4735,112.0802,943.5256,106.9951,937.1743,114.0741" style="stroke:#000000;stroke-width:1.0;"/><text fill="#000000" font-family="sans-serif" font-size="13" lengthAdjust="spacing" textLength="36" x="950.5" y="116.0669">prove</text><text fill="#000000" font-family="sans-serif" font-size="13" lengthAdjust="spacing" textLength="23" x="954.9074" y="92.6416">0..*</text><text fill="#000000" font-family="sans-serif" font-size="13" lengthAdjust="spacing" textLength="23" x="842.4219" y="138.8069">0..*</text><!--MD5=[cd935cc757d29bd6a59b1252b30899e0]
link Activity to Agent--><path codeLine="257" d="M806.39,203.37 C796.66,238.76 779.07,302.74 767.34,345.42 " fill="none" id="Activity-to-Agent" style="stroke:#A80036;stroke-width:1.0;"/><polygon fill="#A80036" points="766.01,350.26,772.2601,342.6484,767.3401,345.4402,764.5483,340.5202,766.01,350.26" style="stroke:#A80036;stroke-width:1.0;"/><polygon fill="#000000" points="802.1747,246.3876,807.406,238.445,801.7384,236.887,802.1747,246.3876" style="stroke:#000000;stroke-width:1.0;"/><text fill="#000000" font-family="sans-serif" font-size="13" lengthAdjust="spacing" textLength="33" x="812.5" y="246.0669">actor</text><text fill="#000000" font-family="sans-serif" font-size="13" lengthAdjust="spacing" textLength="23" x="779.3191" y="222.9912">0..*</text><text fill="#000000" font-family="sans-serif" font-size="13" lengthAdjust="spacing" textLength="24" x="741.7632" y="339.5623">0..1</text><!--MD5=[2da288daa10c3ee0fffff7997d0d73e1]
link Activity to Date_Range--><path codeLine="816" d="M737.6,199.94 C697.7,215.77 651.75,241.21 625.5,280 C566.38,367.37 579.39,503.46 587.01,554.63 " fill="none" id="Activity-to-Date_Range" style="stroke:#A80036;stroke-width:1.0;stroke-dasharray:7.0,7.0;"/><polygon fill="#A80036" points="587.82,559.88,590.4112,550.3781,587.0629,554.9376,582.5034,551.5894,587.82,559.88" style="stroke:#A80036;stroke-width:1.0;"/><!--MD5=[55f20054f286b2e7074e8d22fab1f608]
reverse link Activity to Contribution--><path codeLine="192" d="M845.12,219.84 C848.32,224.26 851.49,228.71 854.5,233 C889.96,283.67 929.84,345.29 947.81,373.32 " fill="none" id="Activity-backto-Contribution" style="stroke:#A80036;stroke-width:1.0;"/><polygon fill="none" points="839.16,223.54,832.97,203.28,850.44,215.26,839.16,223.54" style="stroke:#A80036;stroke-width:1.0;"/><!--MD5=[b01ee177fc17bf8bb95324fc01c31b3b]
link Contribution_Statement to Resource--><path codeLine="644" d="M182.92,56.17 C155.9,80.89 102.44,129.81 73.05,156.7 " fill="none" id="Contribution_Statement-to-Resource" style="stroke:#A80036;stroke-width:1.0;"/><polygon fill="#A80036" points="69.24,160.18,78.5806,157.0569,72.9293,156.8053,73.181,151.154,69.24,160.18" style="stroke:#A80036;stroke-width:1.0;"/><polygon fill="#000000" points="131.8112,114.9417,140.4683,111.004,136.5004,106.6675,131.8112,114.9417" style="stroke:#000000;stroke-width:1.0;"/><text fill="#000000" font-family="sans-serif" font-size="13" lengthAdjust="spacing" textLength="54" x="144.5" y="116.0669">provides</text><text fill="#000000" font-family="sans-serif" font-size="13" lengthAdjust="spacing" textLength="24" x="46.8101" y="149.3785">0..1</text><!--MD5=[8d7c614e8203540f95956299e63d224a]
reverse link Contribution to Contribution_to_Document--><path codeLine="210" d="M970.51,424.32 C986.06,464.72 1011.39,530.53 1022.71,559.95 " fill="none" id="Contribution-backto-Contribution_to_Document" style="stroke:#A80036;stroke-width:1.0;"/><polygon fill="none" points="963.96,426.78,963.31,405.6,977.03,421.75,963.96,426.78" style="stroke:#A80036;stroke-width:1.0;"/><!--MD5=[117c8d017b65f89954aa553a8ad2cfe8]
link Contribution_to_Document to Document--><path codeLine="628" d="M1033.39,554.6 C1035.02,546.93 1036.63,538.11 1037.5,530 C1055.49,362.3 1050.38,160.44 1047.18,78.39 " fill="none" id="Contribution_to_Document-Document" style="stroke:#A80036;stroke-width:1.0;"/><polygon fill="#A80036" points="1046.98,73.16,1043.344,82.3131,1047.1804,78.156,1051.3375,81.9924,1046.98,73.16" style="stroke:#A80036;stroke-width:1.0;"/><polygon fill="#A80036" points="1032.28,559.69,1038.0929,551.7395,1033.3374,554.8031,1030.2738,550.0476,1032.28,559.69" style="stroke:#A80036;stroke-width:1.0;"/><text fill="#000000" font-family="sans-serif" font-size="13" lengthAdjust="spacing" textLength="208" x="791.0821" y="548.8918">0..* contributions &lt;&lt;ordered&gt;&gt;</text><text fill="#000000" font-family="sans-serif" font-size="13" lengthAdjust="spacing" textLength="8" x="1038.5154" y="92.7718">1</text><!--MD5=[392b5d5331db5043115a06bd654f787a]
link Agent to Date_Range--><path codeLine="15" d="M721.31,428.73 C686.62,467.52 634.34,525.98 607.59,555.89 " fill="none" id="Agent-to-Date_Range" style="stroke:#A80036;stroke-width:1.0;stroke-dasharray:7.0,7.0;"/><polygon fill="#A80036" points="604.14,559.74,613.1176,555.6899,607.4698,556.0101,607.1497,550.3623,604.14,559.74" style="stroke:#A80036;stroke-width:1.0;"/><!--MD5=[d43df4fbdad36fd00892352d175d5460]
link Agent to Contact_Information--><path codeLine="16" d="M756.12,428.73 C756.74,466.88 757.67,524.08 758.17,554.41 " fill="none" id="Agent-to-Contact_Information" style="stroke:#A80036;stroke-width:1.0;stroke-dasharray:7.0,7.0;"/><polygon fill="#A80036" points="758.25,559.74,762.121,550.6838,758.1786,554.7405,754.1218,550.7981,758.25,559.74" style="stroke:#A80036;stroke-width:1.0;"/><text fill="#000000" font-family="sans-serif" font-size="13" lengthAdjust="spacing" textLength="23" x="731.3578" y="548.9584">0..*</text><!--MD5=[7276caa4191a3f95f28b5ba112f82c6c]
reverse link Contribution_Statement to CRediT_Contribution_Statement--><path codeLine="194" d="M231.21,70.01 C261.45,97.68 305.84,138.3 329.76,160.18 " fill="none" id="Contribution_Statement-backto-CRediT_Contribution_Statement" style="stroke:#A80036;stroke-width:1.0;"/><polygon fill="none" points="226.11,74.83,216.08,56.17,235.56,64.5,226.11,74.83" style="stroke:#A80036;stroke-width:1.0;"/><!--MD5=[fb8e7b03155fc2d9c40ee98c4cf95180]
link CRediT_Contribution_Statement to CRediT_Role_Type--><path codeLine="207" d="M354.63,192.67 C364.29,210.72 381.33,242.53 398.9,275.34 " fill="none" id="CRediT_Contribution_Statement-to-CRediT_Role_Type" style="stroke:#A80036;stroke-width:1.0;stroke-dasharray:7.0,7.0;"/><polygon fill="#A80036" points="401.27,279.77,400.5212,269.9496,398.8978,275.3686,393.4789,273.7452,401.27,279.77" style="stroke:#A80036;stroke-width:1.0;"/><text fill="#000000" font-family="sans-serif" font-size="13" lengthAdjust="spacing" textLength="54" x="341.5436" y="268.956">roleType</text><!--MD5=[fd5d8cb6bc72986bd3560f3b69973f17]
link CRediT_Contribution_Statement to CRediT_Degree_of_Contribution--><path codeLine="210" d="M338.37,192.67 C321.41,224.35 281.71,298.48 256.31,345.9 " fill="none" id="CRediT_Contribution_Statement-to-CRediT_Degree_of_Contribution" style="stroke:#A80036;stroke-width:1.0;stroke-dasharray:7.0,7.0;"/><polygon fill="#A80036" points="253.9,350.4,261.6678,344.3451,256.2552,345.9894,254.6108,340.5768,253.9,350.4" style="stroke:#A80036;stroke-width:1.0;"/><text fill="#000000" font-family="sans-serif" font-size="13" lengthAdjust="spacing" textLength="137" x="108.6328" y="339.4333">degreeOfContribution</text><!--MD5=[5835cac2d0b15fc36c34cc03509a22d7]
@startuml

    !includesub ../../CERIF-Core/diagrams/core.puml!common

    !includesub ../../CERIF-Core/diagrams/core.puml!Resource
    !includesub ../../CERIF-Core/diagrams/core.puml!Document
    !includesub ../../CERIF-Core/diagrams/core.puml!Activity
    !includesub ../../CERIF-Core/diagrams/core.puml!Contribution
    !includesub ../../CERIF-Core/diagrams/core.puml!Contribution_to_Document
    !includesub ../../CERIF-Core/diagrams/core.puml!Agent

    !includesub ./module.puml!CRediT

@enduml

@startuml

    hide empty members
    skinparam BoxPadding 120

    class "Resource" #ffffff {
    }
     "Resource" "0..*" - - "0..*" "Resource" : is part of >
    class "Document" #ffffff {
        title : Multilingual_String
        publicationDate : Date
    }
    class "Activity" #ffffff {
  		dateRange : Date_Range
    }
	"Document" "0..*" - - "0..*" "Activity" : prove >
    "Activity" "0..*" - -> "0..1" "Agent" : actor >
	"Activity" ..> "Date_Range"
    class "Contribution" #ffffff {
    }
    "Activity" <|-d- "Contribution"
     "Contribution_Statement" - -> "0..1" "Resource" : provides >
    class "Contribution_to_Document" #ffffff {
    }
    "Contribution" <|-d- "Contribution_to_Document"
    "Contribution_to_Document" "0..* contributions <<ordered>>" <- -> "1" "Document"
    class "Agent" #ffffff {
        keywords : List<Multilingual_String>
    	lifetime : Date_Range
    	contacts : List<Contact_Information>
    }
    "Agent" ..> "Date_Range"
    "Agent" ..> "0..*" "Contact_Information"

        class "CRediT_Contribution_Statement" #ddeedd {
        }
        enum "CRediT_Degree_of_Contribution" #ddeedd {
            Lead
            Supporting
            Equal
        }
        enum "CRediT_Role_Type" #ddeedd {
            Conceptualization
            Data curation
            Formal analysis
            Funding acquisition
            Investigation
            Methodology
            Project administration
            Resources
            Software
            Supervision
            Validation
            Visualization
            Writing - original draft
            Writing - review & editing
        }
        "Contribution_Statement" <|- - "CRediT_Contribution_Statement"
        "CRediT_Contribution_Statement" ..> "roleType" "CRediT_Role_Type"
        "CRediT_Contribution_Statement" ..> "degreeOfContribution" "CRediT_Degree_of_Contribution"

@enduml

PlantUML version 1.2021.8(Sat Jun 26 08:20:59 UTC 2021)
(GPL source distribution)
Java Runtime: OpenJDK Runtime Environment
JVM: OpenJDK 64-Bit Server VM
Default Encoding: UTF-8
Language: en
Country: null
--></g></svg>