<?xml version="1.0" encoding="UTF-8" standalone="no"?><svg xmlns="http://www.w3.org/2000/svg" xmlns:xlink="http://www.w3.org/1999/xlink" contentScriptType="application/ecmascript" contentStyleType="text/css" height="504px" preserveAspectRatio="none" style="width:1021px;height:504px;background:#FFFFFF;" version="1.1" viewBox="0 0 1021 504" width="1021px" zoomAndPan="magnify"><defs><filter height="300%" id="f9xkw1ydspukm" width="300%" x="-1" y="-1"><feGaussianBlur result="blurOut" stdDeviation="2.0"/><feColorMatrix in="blurOut" result="blurOut2" type="matrix" values="0 0 0 0 0 0 0 0 0 0 0 0 0 0 0 0 0 0 .4 0"/><feOffset dx="4.0" dy="4.0" in="blurOut2" result="blurOut3"/><feBlend in="SourceGraphic" in2="blurOut3" mode="normal"/></filter></defs><g><!--MD5=[0ce99cd3eae675f87caad727cac20a4b]
cluster CERIF core--><polygon fill="#EFEFEF" filter="url(#f9xkw1ydspukm)" points="16,6,106,6,113,28.2969,687,28.2969,687,227,16,227,16,6" style="stroke:#000000;stroke-width:1.5;"/><line style="stroke:#000000;stroke-width:1.5;" x1="16" x2="113" y1="28.2969" y2="28.2969"/><text fill="#000000" font-family="sans-serif" font-size="14" font-weight="bold" lengthAdjust="spacing" textLength="84" x="20" y="20.9951">CERIF core</text><!--MD5=[59b530d44ae785dc18db921986a9c15c]
class Document--><rect codeLine="7" fill="#FEFECE" filter="url(#f9xkw1ydspukm)" height="78.4141" id="Document" style="stroke:#A80036;stroke-width:1.5;" width="148" x="32" y="133"/><ellipse cx="70.4" cy="149" fill="#ADD1B2" rx="11" ry="11" style="stroke:#A80036;stroke-width:1.0;"/><path d="M73.3688,154.6406 Q72.7906,154.9375 72.15,155.0781 Q71.5094,155.2344 70.8063,155.2344 Q68.3063,155.2344 66.9781,153.5938 Q65.6656,151.9375 65.6656,148.8125 Q65.6656,145.6875 66.9781,144.0313 Q68.3063,142.375 70.8063,142.375 Q71.5094,142.375 72.15,142.5313 Q72.8063,142.6875 73.3688,142.9844 L73.3688,145.7031 Q72.7438,145.125 72.15,144.8594 Q71.5563,144.5781 70.9313,144.5781 Q69.5875,144.5781 68.9,145.6563 Q68.2125,146.7188 68.2125,148.8125 Q68.2125,150.9063 68.9,151.9844 Q69.5875,153.0469 70.9313,153.0469 Q71.5563,153.0469 72.15,152.7813 Q72.7438,152.5 73.3688,151.9219 L73.3688,154.6406 Z " fill="#000000"/><text fill="#000000" font-family="sans-serif" font-size="12" lengthAdjust="spacing" textLength="64" x="89.6" y="153.1543">Document</text><line style="stroke:#A80036;stroke-width:1.5;" x1="33" x2="179" y1="165" y2="165"/><text fill="#000000" font-family="sans-serif" font-size="11" lengthAdjust="spacing" textLength="136" x="38" y="179.2104">title : Multilingual_String</text><text fill="#000000" font-family="sans-serif" font-size="11" lengthAdjust="spacing" textLength="125" x="38" y="192.0151">publicationDate : Date</text><text fill="#000000" font-family="sans-serif" font-size="11" lengthAdjust="spacing" textLength="85" x="38" y="204.8198">DOI : DOI_Type</text><!--MD5=[406eabaf9672e74804bc505a9777bf8f]
class Textual Document--><rect codeLine="12" fill="#FEFECE" filter="url(#f9xkw1ydspukm)" height="32" id="Textual Document" style="stroke:#A80036;stroke-width:1.5;" width="145" x="33.5" y="41"/><ellipse cx="48.5" cy="57" fill="#ADD1B2" rx="11" ry="11" style="stroke:#A80036;stroke-width:1.0;"/><path d="M51.4688,62.6406 Q50.8906,62.9375 50.25,63.0781 Q49.6094,63.2344 48.9063,63.2344 Q46.4063,63.2344 45.0781,61.5938 Q43.7656,59.9375 43.7656,56.8125 Q43.7656,53.6875 45.0781,52.0313 Q46.4063,50.375 48.9063,50.375 Q49.6094,50.375 50.25,50.5313 Q50.9063,50.6875 51.4688,50.9844 L51.4688,53.7031 Q50.8438,53.125 50.25,52.8594 Q49.6563,52.5781 49.0313,52.5781 Q47.6875,52.5781 47,53.6563 Q46.3125,54.7188 46.3125,56.8125 Q46.3125,58.9063 47,59.9844 Q47.6875,61.0469 49.0313,61.0469 Q49.6563,61.0469 50.25,60.7813 Q50.8438,60.5 51.4688,59.9219 L51.4688,62.6406 Z " fill="#000000"/><text fill="#000000" font-family="sans-serif" font-size="12" lengthAdjust="spacing" textLength="113" x="62.5" y="61.1543">Textual Document</text><!--MD5=[b821bb113f9f55c728f1fbb8949cc3af]
class Contributorship--><rect codeLine="37" fill="#FEFECE" filter="url(#f9xkw1ydspukm)" height="65.6094" id="Contributorship" style="stroke:#A80036;stroke-width:1.5;" width="131" x="539.5" y="139"/><ellipse cx="555.4" cy="155" fill="#ADD1B2" rx="11" ry="11" style="stroke:#A80036;stroke-width:1.0;"/><path d="M558.3688,160.6406 Q557.7906,160.9375 557.15,161.0781 Q556.5094,161.2344 555.8063,161.2344 Q553.3063,161.2344 551.9781,159.5938 Q550.6656,157.9375 550.6656,154.8125 Q550.6656,151.6875 551.9781,150.0313 Q553.3063,148.375 555.8063,148.375 Q556.5094,148.375 557.15,148.5313 Q557.8063,148.6875 558.3688,148.9844 L558.3688,151.7031 Q557.7438,151.125 557.15,150.8594 Q556.5563,150.5781 555.9313,150.5781 Q554.5875,150.5781 553.9,151.6563 Q553.2125,152.7188 553.2125,154.8125 Q553.2125,156.9063 553.9,157.9844 Q554.5875,159.0469 555.9313,159.0469 Q556.5563,159.0469 557.15,158.7813 Q557.7438,158.5 558.3688,157.9219 L558.3688,160.6406 Z " fill="#000000"/><text fill="#000000" font-family="sans-serif" font-size="12" lengthAdjust="spacing" textLength="97" x="569.6" y="159.1543">Contributorship</text><line style="stroke:#A80036;stroke-width:1.5;" x1="540.5" x2="669.5" y1="171" y2="171"/><text fill="#000000" font-family="sans-serif" font-size="11" lengthAdjust="spacing" textLength="116" x="545.5" y="185.2104">contacts : List&lt;URI&gt;</text><text fill="#000000" font-family="sans-serif" font-size="11" lengthAdjust="spacing" textLength="119" x="545.5" y="198.0151">displayName : String</text><!--MD5=[f8f29aeb30962b8f0c17f3bed64bd579]
class Contribution Statement--><rect codeLine="41" fill="#FEFECE" filter="url(#f9xkw1ydspukm)" height="32" id="Contribution Statement" style="stroke:#A80036;stroke-width:1.5;" width="179" x="491.5" y="41"/><ellipse cx="506.5" cy="57" fill="#ADD1B2" rx="11" ry="11" style="stroke:#A80036;stroke-width:1.0;"/><path d="M509.4688,62.6406 Q508.8906,62.9375 508.25,63.0781 Q507.6094,63.2344 506.9063,63.2344 Q504.4063,63.2344 503.0781,61.5938 Q501.7656,59.9375 501.7656,56.8125 Q501.7656,53.6875 503.0781,52.0313 Q504.4063,50.375 506.9063,50.375 Q507.6094,50.375 508.25,50.5313 Q508.9063,50.6875 509.4688,50.9844 L509.4688,53.7031 Q508.8438,53.125 508.25,52.8594 Q507.6563,52.5781 507.0313,52.5781 Q505.6875,52.5781 505,53.6563 Q504.3125,54.7188 504.3125,56.8125 Q504.3125,58.9063 505,59.9844 Q505.6875,61.0469 507.0313,61.0469 Q507.6563,61.0469 508.25,60.7813 Q508.8438,60.5 509.4688,59.9219 L509.4688,62.6406 Z " fill="#000000"/><text fill="#000000" font-family="sans-serif" font-size="12" lengthAdjust="spacing" textLength="147" x="520.5" y="61.1543">Contribution Statement</text><!--MD5=[3f6954d26e8fa8feef64f8ba628c4304]
class Free Text Contribution--><rect codeLine="43" fill="#FEFECE" filter="url(#f9xkw1ydspukm)" height="52.8047" id="Free Text Contribution" style="stroke:#A80036;stroke-width:1.5;" width="185" x="319.5" y="145.5"/><ellipse cx="340.8" cy="161.5" fill="#ADD1B2" rx="11" ry="11" style="stroke:#A80036;stroke-width:1.0;"/><path d="M343.7688,167.1406 Q343.1906,167.4375 342.55,167.5781 Q341.9094,167.7344 341.2063,167.7344 Q338.7063,167.7344 337.3781,166.0938 Q336.0656,164.4375 336.0656,161.3125 Q336.0656,158.1875 337.3781,156.5313 Q338.7063,154.875 341.2063,154.875 Q341.9094,154.875 342.55,155.0313 Q343.2063,155.1875 343.7688,155.4844 L343.7688,158.2031 Q343.1438,157.625 342.55,157.3594 Q341.9563,157.0781 341.3313,157.0781 Q339.9875,157.0781 339.3,158.1563 Q338.6125,159.2188 338.6125,161.3125 Q338.6125,163.4063 339.3,164.4844 Q339.9875,165.5469 341.3313,165.5469 Q341.9563,165.5469 342.55,165.2813 Q343.1438,165 343.7688,164.4219 L343.7688,167.1406 Z " fill="#000000"/><text fill="#000000" font-family="sans-serif" font-size="12" lengthAdjust="spacing" textLength="139" x="356.2" y="165.6543">Free Text Contribution</text><line style="stroke:#A80036;stroke-width:1.5;" x1="320.5" x2="503.5" y1="177.5" y2="177.5"/><text fill="#000000" font-family="sans-serif" font-size="11" lengthAdjust="spacing" textLength="173" x="325.5" y="191.7104">statement : Multilingual_String</text><!--MD5=[9d44916250b776386006c440668bcfbb]
class Agent--><rect fill="#FEFECE" filter="url(#f9xkw1ydspukm)" height="32" id="Agent" style="stroke:#A80036;stroke-width:1.5;" width="69" x="215.5" y="156"/><ellipse cx="230.5" cy="172" fill="#ADD1B2" rx="11" ry="11" style="stroke:#A80036;stroke-width:1.0;"/><path d="M233.4688,177.6406 Q232.8906,177.9375 232.25,178.0781 Q231.6094,178.2344 230.9063,178.2344 Q228.4063,178.2344 227.0781,176.5938 Q225.7656,174.9375 225.7656,171.8125 Q225.7656,168.6875 227.0781,167.0313 Q228.4063,165.375 230.9063,165.375 Q231.6094,165.375 232.25,165.5313 Q232.9063,165.6875 233.4688,165.9844 L233.4688,168.7031 Q232.8438,168.125 232.25,167.8594 Q231.6563,167.5781 231.0313,167.5781 Q229.6875,167.5781 229,168.6563 Q228.3125,169.7188 228.3125,171.8125 Q228.3125,173.9063 229,174.9844 Q229.6875,176.0469 231.0313,176.0469 Q231.6563,176.0469 232.25,175.7813 Q232.8438,175.5 233.4688,174.9219 L233.4688,177.6406 Z " fill="#000000"/><text fill="#000000" font-family="sans-serif" font-size="12" lengthAdjust="spacing" textLength="37" x="244.5" y="176.1543">Agent</text><!--MD5=[9b52481d50260ad8943b648ad422cf7e]
class CRediT Contribution Statement--><rect codeLine="50" fill="#FEFECE" filter="url(#f9xkw1ydspukm)" height="32" id="CRediT Contribution Statement" style="stroke:#A80036;stroke-width:1.5;" width="225" x="705.5" y="156"/><ellipse cx="720.5" cy="172" fill="#ADD1B2" rx="11" ry="11" style="stroke:#A80036;stroke-width:1.0;"/><path d="M723.4688,177.6406 Q722.8906,177.9375 722.25,178.0781 Q721.6094,178.2344 720.9063,178.2344 Q718.4063,178.2344 717.0781,176.5938 Q715.7656,174.9375 715.7656,171.8125 Q715.7656,168.6875 717.0781,167.0313 Q718.4063,165.375 720.9063,165.375 Q721.6094,165.375 722.25,165.5313 Q722.9063,165.6875 723.4688,165.9844 L723.4688,168.7031 Q722.8438,168.125 722.25,167.8594 Q721.6563,167.5781 721.0313,167.5781 Q719.6875,167.5781 719,168.6563 Q718.3125,169.7188 718.3125,171.8125 Q718.3125,173.9063 719,174.9844 Q719.6875,176.0469 721.0313,176.0469 Q721.6563,176.0469 722.25,175.7813 Q722.8438,175.5 723.4688,174.9219 L723.4688,177.6406 Z " fill="#000000"/><text fill="#000000" font-family="sans-serif" font-size="12" lengthAdjust="spacing" textLength="193" x="734.5" y="176.1543">CRediT Contribution Statement</text><!--MD5=[28e58af2686987234c8603397d0bdfdc]
class CRediT Degree of Contribution--><rect codeLine="52" fill="#FEFECE" filter="url(#f9xkw1ydspukm)" height="78.4141" id="CRediT Degree of Contribution" style="stroke:#A80036;stroke-width:1.5;" width="221" x="596.5" y="341.5"/><ellipse cx="611.5" cy="357.5" fill="#EB937F" rx="11" ry="11" style="stroke:#A80036;stroke-width:1.0;"/><path d="M615.6094,363.5 L607.8906,363.5 L607.8906,351.1094 L615.6094,351.1094 L615.6094,353.2656 L610.3438,353.2656 L610.3438,355.9375 L615.1094,355.9375 L615.1094,358.0938 L610.3438,358.0938 L610.3438,361.3438 L615.6094,361.3438 L615.6094,363.5 Z " fill="#000000"/><text fill="#000000" font-family="sans-serif" font-size="12" lengthAdjust="spacing" textLength="189" x="625.5" y="361.6543">CRediT Degree of Contribution</text><line style="stroke:#A80036;stroke-width:1.5;" x1="597.5" x2="816.5" y1="373.5" y2="373.5"/><text fill="#000000" font-family="sans-serif" font-size="11" lengthAdjust="spacing" textLength="27" x="602.5" y="387.7104">Lead</text><text fill="#000000" font-family="sans-serif" font-size="11" lengthAdjust="spacing" textLength="31" x="602.5" y="400.5151">Equal</text><text fill="#000000" font-family="sans-serif" font-size="11" lengthAdjust="spacing" textLength="62" x="602.5" y="413.3198">Supporting</text><!--MD5=[c311ebaeb70986101ddf4181c43abf49]
class CRediT Role Type--><rect codeLine="57" fill="#FEFECE" filter="url(#f9xkw1ydspukm)" height="219.2656" id="CRediT Role Type" style="stroke:#A80036;stroke-width:1.5;" width="155" x="852.5" y="271"/><ellipse cx="875.15" cy="287" fill="#EB937F" rx="11" ry="11" style="stroke:#A80036;stroke-width:1.0;"/><path d="M879.2594,293 L871.5406,293 L871.5406,280.6094 L879.2594,280.6094 L879.2594,282.7656 L873.9938,282.7656 L873.9938,285.4375 L878.7594,285.4375 L878.7594,287.5938 L873.9938,287.5938 L873.9938,290.8438 L879.2594,290.8438 L879.2594,293 Z " fill="#000000"/><text fill="#000000" font-family="sans-serif" font-size="12" lengthAdjust="spacing" textLength="106" x="890.85" y="291.1543">CRediT Role Type</text><line style="stroke:#A80036;stroke-width:1.5;" x1="853.5" x2="1006.5" y1="303" y2="303"/><text fill="#000000" font-family="sans-serif" font-size="11" lengthAdjust="spacing" textLength="99" x="858.5" y="317.2104">Conceptualization</text><text fill="#000000" font-family="sans-serif" font-size="11" lengthAdjust="spacing" textLength="76" x="858.5" y="330.0151">Data curation</text><text fill="#000000" font-family="sans-serif" font-size="11" lengthAdjust="spacing" textLength="90" x="858.5" y="342.8198">Formal analysis</text><text fill="#000000" font-family="sans-serif" font-size="11" lengthAdjust="spacing" textLength="109" x="858.5" y="355.6245">Funding acquisition</text><text fill="#000000" font-family="sans-serif" font-size="11" lengthAdjust="spacing" textLength="72" x="858.5" y="368.4292">Investigation</text><text fill="#000000" font-family="sans-serif" font-size="11" lengthAdjust="spacing" textLength="71" x="858.5" y="381.2339">Methodology</text><text fill="#000000" font-family="sans-serif" font-size="11" lengthAdjust="spacing" textLength="125" x="858.5" y="394.0386">Project administration</text><text fill="#000000" font-family="sans-serif" font-size="11" lengthAdjust="spacing" textLength="60" x="858.5" y="406.8433">Resources</text><text fill="#000000" font-family="sans-serif" font-size="11" lengthAdjust="spacing" textLength="51" x="858.5" y="419.6479">Software</text><text fill="#000000" font-family="sans-serif" font-size="11" lengthAdjust="spacing" textLength="67" x="858.5" y="432.4526">Supervision</text><text fill="#000000" font-family="sans-serif" font-size="11" lengthAdjust="spacing" textLength="55" x="858.5" y="445.2573">Validation</text><text fill="#000000" font-family="sans-serif" font-size="11" lengthAdjust="spacing" textLength="70" x="858.5" y="458.062">Visualization</text><text fill="#000000" font-family="sans-serif" font-size="11" lengthAdjust="spacing" textLength="123" x="858.5" y="470.8667">Writing - original draft</text><text fill="#000000" font-family="sans-serif" font-size="11" lengthAdjust="spacing" textLength="143" x="858.5" y="483.6714">Writing - review &amp; editing</text><!--MD5=[0cd4e18d651655357be10210466ee4fc]
link Textual Document to Document--><path codeLine="84" d="M106,73.24 C106,83.62 106,98.08 106,112.7 " fill="none" id="Textual Document-to-Document" style="stroke:#A80036;stroke-width:1.0;"/><polygon fill="none" points="113,112.72,106,132.72,99,112.72,113,112.72" style="stroke:#A80036;stroke-width:1.0;"/><!--MD5=[1e703325bca9787769503a051e7183a5]
reverse link Contribution Statement to Free Text Contribution--><path codeLine="66" d="M541.6,84.35 C514.13,102.71 477.66,127.09 450.41,145.31 " fill="none" id="Contribution Statement-backto-Free Text Contribution" style="stroke:#A80036;stroke-width:1.0;"/><polygon fill="none" points="538.04,78.3,558.56,73.01,545.82,89.94,538.04,78.3" style="stroke:#A80036;stroke-width:1.0;"/><!--MD5=[1f014480a3afa8c0325c3be3fbf7ad6f]
link Contributorship to Document--><path codeLine="67" d="M568.28,138.83 C550.39,124.87 527.75,110.21 504.5,103 C381.82,64.94 338.9,67.36 215.5,103 C198.47,107.92 181.54,116.36 166.26,125.68 " fill="none" id="Contributorship-to-Document" style="stroke:#A80036;stroke-width:1.0;"/><polygon fill="#A80036" points="154.92,132.94,162.1298,133.0764,165.0287,126.4736,157.8189,126.3372,154.92,132.94" style="stroke:#A80036;stroke-width:1.0;"/><!--MD5=[504de05de5dc33320621ff1be2e6e6ff]
reverse link Agent to Contributorship--><path codeLine="70" d="M268.53,145.12 C280.93,129.62 298.75,111.55 319.5,103 C395.52,71.67 425.97,78.64 504.5,103 C527.75,110.21 550.39,124.87 568.28,138.83 " fill="none" id="Agent-backto-Contributorship" style="stroke:#A80036;stroke-width:1.0;"/><polygon fill="#A80036" points="260.49,155.79,267.2958,153.4064,267.7132,146.2074,260.9074,148.591,260.49,155.79" style="stroke:#A80036;stroke-width:1.0;"/><!--MD5=[87dce73954b4196bb1c032bbee886bf4]
link Contribution Statement to Contributorship--><path codeLine="74" d="M584.24,73.24 C587.11,86.78 591.47,107.28 595.44,126.01 " fill="none" id="Contribution Statement-to-Contributorship" style="stroke:#A80036;stroke-width:1.0;"/><polygon fill="#A80036" points="598.18,138.9,600.8464,132.2,595.6873,127.1618,593.0209,133.8618,598.18,138.9" style="stroke:#A80036;stroke-width:1.0;"/><text fill="#000000" font-family="sans-serif" font-size="13" lengthAdjust="spacing" textLength="152" x="408.1383" y="93.1928">contributionStatements</text><!--MD5=[ada0d5f2ef99a95b12b3ee57e9956fc4]
reverse link Contribution Statement to CRediT Contribution Statement--><path codeLine="97" d="M630.78,81.74 C677.7,104.11 746.58,136.95 786.4,155.93 " fill="none" id="Contribution Statement-backto-CRediT Contribution Statement" style="stroke:#A80036;stroke-width:1.0;"/><polygon fill="none" points="627.51,87.93,612.47,73.01,633.54,75.29,627.51,87.93" style="stroke:#A80036;stroke-width:1.0;"/><!--MD5=[4988656fb52909980ee128ebe79785b8]
link CRediT Contribution Statement to CRediT Role Type--><path codeLine="111" d="M826.24,188.18 C835.6,205.45 851.79,235.3 868.63,266.35 " fill="none" id="CRediT Contribution Statement-to-CRediT Role Type" style="stroke:#A80036;stroke-width:1.0;stroke-dasharray:7.0,7.0;"/><polygon fill="#A80036" points="871.12,270.93,870.3465,261.1116,868.7367,266.5345,863.3138,264.9248,871.12,270.93" style="stroke:#A80036;stroke-width:1.0;"/><text fill="#000000" font-family="sans-serif" font-size="13" lengthAdjust="spacing" textLength="54" x="811.0816" y="259.7607">roleType</text><!--MD5=[3b14847940e7ff9713f828433e10fbac]
link CRediT Contribution Statement to CRediT Degree of Contribution--><path codeLine="112" d="M809.84,188.18 C793.24,219.07 755,290.2 730.12,336.49 " fill="none" id="CRediT Contribution Statement-to-CRediT Degree of Contribution" style="stroke:#A80036;stroke-width:1.0;stroke-dasharray:7.0,7.0;"/><polygon fill="#A80036" points="727.6,341.17,735.3759,335.1256,729.9611,336.7626,728.3241,331.3478,727.6,341.17" style="stroke:#A80036;stroke-width:1.0;"/><text fill="#000000" font-family="sans-serif" font-size="13" lengthAdjust="spacing" textLength="137" x="582.6666" y="330.4574">degreeOfContribution</text><!--MD5=[c97003eb2777d3c0a6881ca46fa9cf69]
@startuml

!includesub core.puml!common

package "CERIF core" #EFEFEF{
    !includesub ./core.puml!Document
    !includesub ./core.puml!Contributorship
}

!includesub ./module.puml!CRediT

@enduml

@startuml

    	hide empty members

package "CERIF core" #EFEFEF{
    class "Document"{
        title : Multilingual_String
        publicationDate : Date
        DOI : DOI_Type
    }
    class "Textual Document"{
    }
    "Document" <|-u- "Textual Document"
    class "Contributorship"{
        contacts : List<URI>
        displayName : String
    }
    class "Contribution Statement"{
    }
    class "Free Text Contribution"{
        statement : Multilingual_String
    }
    "Contribution Statement" <|- - "Free Text Contribution"
    "Contributorship" -r-* "Document"
    "Contributorship" -l-* "Agent"
    "Contributorship" *-u- "contributionStatements" "Contribution Statement"
}

    class "CRediT Contribution Statement"{
    }
    enum "CRediT Degree of Contribution"{
        Lead
        Equal
        Supporting
    }
    enum "CRediT Role Type"{
        Conceptualization
        Data curation
        Formal analysis
        Funding acquisition
        Investigation
        Methodology
        Project administration
        Resources
        Software
        Supervision
        Validation
        Visualization
        Writing - original draft
        Writing - review & editing
    }
    "Contribution Statement" <|- - "CRediT Contribution Statement"
    "CRediT Contribution Statement" ..> "roleType" "CRediT Role Type"
    "CRediT Contribution Statement" ..> "degreeOfContribution" "CRediT Degree of Contribution"

@enduml

PlantUML version 1.2021.8(Sat Jun 26 08:20:59 UTC 2021)
(GPL source distribution)
Java Runtime: OpenJDK Runtime Environment
JVM: OpenJDK 64-Bit Server VM
Default Encoding: UTF-8
Language: en
Country: null
--></g></svg>