<?xml version="1.0" encoding="UTF-8" standalone="no"?><svg xmlns="http://www.w3.org/2000/svg" xmlns:xlink="http://www.w3.org/1999/xlink" contentScriptType="application/ecmascript" contentStyleType="text/css" height="639px" preserveAspectRatio="none" style="width:752px;height:639px;background:#FFFFFF;" version="1.1" viewBox="0 0 752 639" width="752px" zoomAndPan="magnify"><defs><filter height="300%" id="f2tz9sqgd0b" width="300%" x="-1" y="-1"><feGaussianBlur result="blurOut" stdDeviation="2.0"/><feColorMatrix in="blurOut" result="blurOut2" type="matrix" values="0 0 0 0 0 0 0 0 0 0 0 0 0 0 0 0 0 0 .4 0"/><feOffset dx="4.0" dy="4.0" in="blurOut2" result="blurOut3"/><feBlend in="SourceGraphic" in2="blurOut3" mode="normal"/></filter></defs><g><!--MD5=[6b13f1b330d33795af281e5c1dfe1e98]
class Resource--><rect codeLine="181" fill="#FFFFFF" filter="url(#f2tz9sqgd0b)" height="32" id="Resource" style="stroke:#A80036;stroke-width:1.5;" width="91" x="26.9102" y="147.5"/><ellipse cx="41.9102" cy="163.5" fill="#ADD1B2" rx="11" ry="11" style="stroke:#A80036;stroke-width:1.0;"/><path d="M44.8789,169.1406 Q44.3008,169.4375 43.6602,169.5781 Q43.0195,169.7344 42.3164,169.7344 Q39.8164,169.7344 38.4883,168.0938 Q37.1758,166.4375 37.1758,163.3125 Q37.1758,160.1875 38.4883,158.5313 Q39.8164,156.875 42.3164,156.875 Q43.0195,156.875 43.6602,157.0313 Q44.3164,157.1875 44.8789,157.4844 L44.8789,160.2031 Q44.2539,159.625 43.6602,159.3594 Q43.0664,159.0781 42.4414,159.0781 Q41.0977,159.0781 40.4102,160.1563 Q39.7227,161.2188 39.7227,163.3125 Q39.7227,165.4063 40.4102,166.4844 Q41.0977,167.5469 42.4414,167.5469 Q43.0664,167.5469 43.6602,167.2813 Q44.2539,167 44.8789,166.4219 L44.8789,169.1406 Z " fill="#000000"/><text fill="#000000" font-family="sans-serif" font-size="12" lengthAdjust="spacing" textLength="59" x="55.9102" y="167.6543">Resource</text><!--MD5=[59b530d44ae785dc18db921986a9c15c]
class Document--><rect codeLine="199" fill="#FFFFFF" filter="url(#f2tz9sqgd0b)" height="78.4141" id="Document" style="stroke:#A80036;stroke-width:1.5;" width="148" x="565.4102" y="547"/><ellipse cx="603.8102" cy="563" fill="#ADD1B2" rx="11" ry="11" style="stroke:#A80036;stroke-width:1.0;"/><path d="M606.7789,568.6406 Q606.2008,568.9375 605.5602,569.0781 Q604.9195,569.2344 604.2164,569.2344 Q601.7164,569.2344 600.3883,567.5938 Q599.0758,565.9375 599.0758,562.8125 Q599.0758,559.6875 600.3883,558.0313 Q601.7164,556.375 604.2164,556.375 Q604.9195,556.375 605.5602,556.5313 Q606.2164,556.6875 606.7789,556.9844 L606.7789,559.7031 Q606.1539,559.125 605.5602,558.8594 Q604.9664,558.5781 604.3414,558.5781 Q602.9977,558.5781 602.3102,559.6563 Q601.6227,560.7188 601.6227,562.8125 Q601.6227,564.9063 602.3102,565.9844 Q602.9977,567.0469 604.3414,567.0469 Q604.9664,567.0469 605.5602,566.7813 Q606.1539,566.5 606.7789,565.9219 L606.7789,568.6406 Z " fill="#000000"/><text fill="#000000" font-family="sans-serif" font-size="12" lengthAdjust="spacing" textLength="64" x="623.0102" y="567.1543">Document</text><line style="stroke:#A80036;stroke-width:1.5;" x1="566.4102" x2="712.4102" y1="579" y2="579"/><text fill="#000000" font-family="sans-serif" font-size="11" lengthAdjust="spacing" textLength="52" x="571.4102" y="593.2104">DOI : DOI</text><text fill="#000000" font-family="sans-serif" font-size="11" lengthAdjust="spacing" textLength="136" x="571.4102" y="606.0151">title : Multilingual_String</text><text fill="#000000" font-family="sans-serif" font-size="11" lengthAdjust="spacing" textLength="125" x="571.4102" y="618.8198">publicationDate : Date</text><!--MD5=[c881b25adf3665c6568c9693d41a70f3]
class Activity--><rect codeLine="91" fill="#FFFFFF" filter="url(#f2tz9sqgd0b)" height="52.8047" id="Activity" style="stroke:#A80036;stroke-width:1.5;" width="151" x="442.9102" y="7"/><ellipse cx="492.6602" cy="23" fill="#ADD1B2" rx="11" ry="11" style="stroke:#A80036;stroke-width:1.0;"/><path d="M495.6289,28.6406 Q495.0508,28.9375 494.4102,29.0781 Q493.7695,29.2344 493.0664,29.2344 Q490.5664,29.2344 489.2383,27.5938 Q487.9258,25.9375 487.9258,22.8125 Q487.9258,19.6875 489.2383,18.0313 Q490.5664,16.375 493.0664,16.375 Q493.7695,16.375 494.4102,16.5313 Q495.0664,16.6875 495.6289,16.9844 L495.6289,19.7031 Q495.0039,19.125 494.4102,18.8594 Q493.8164,18.5781 493.1914,18.5781 Q491.8477,18.5781 491.1602,19.6563 Q490.4727,20.7188 490.4727,22.8125 Q490.4727,24.9063 491.1602,25.9844 Q491.8477,27.0469 493.1914,27.0469 Q493.8164,27.0469 494.4102,26.7813 Q495.0039,26.5 495.6289,25.9219 L495.6289,28.6406 Z " fill="#000000"/><text fill="#000000" font-family="sans-serif" font-size="12" lengthAdjust="spacing" textLength="43" x="513.1602" y="27.1543">Activity</text><line style="stroke:#A80036;stroke-width:1.5;" x1="443.9102" x2="592.9102" y1="39" y2="39"/><text fill="#000000" font-family="sans-serif" font-size="11" lengthAdjust="spacing" textLength="139" x="448.9102" y="53.2104">dateRange : Date_Range</text><!--MD5=[9d44916250b776386006c440668bcfbb]
class Agent--><rect codeLine="10" fill="#FFFFFF" filter="url(#f2tz9sqgd0b)" height="52.8047" id="Agent" style="stroke:#A80036;stroke-width:1.5;" width="133" x="416.9102" y="137"/><ellipse cx="460.7102" cy="153" fill="#ADD1B2" rx="11" ry="11" style="stroke:#A80036;stroke-width:1.0;"/><path d="M463.6789,158.6406 Q463.1008,158.9375 462.4602,159.0781 Q461.8195,159.2344 461.1164,159.2344 Q458.6164,159.2344 457.2883,157.5938 Q455.9758,155.9375 455.9758,152.8125 Q455.9758,149.6875 457.2883,148.0313 Q458.6164,146.375 461.1164,146.375 Q461.8195,146.375 462.4602,146.5313 Q463.1164,146.6875 463.6789,146.9844 L463.6789,149.7031 Q463.0539,149.125 462.4602,148.8594 Q461.8664,148.5781 461.2414,148.5781 Q459.8977,148.5781 459.2102,149.6563 Q458.5227,150.7188 458.5227,152.8125 Q458.5227,154.9063 459.2102,155.9844 Q459.8977,157.0469 461.2414,157.0469 Q461.8664,157.0469 462.4602,156.7813 Q463.0539,156.5 463.6789,155.9219 L463.6789,158.6406 Z " fill="#000000"/><text fill="#000000" font-family="sans-serif" font-size="12" lengthAdjust="spacing" textLength="37" x="481.1102" y="157.1543">Agent</text><line style="stroke:#A80036;stroke-width:1.5;" x1="417.9102" x2="548.9102" y1="169" y2="169"/><text fill="#000000" font-family="sans-serif" font-size="11" lengthAdjust="spacing" textLength="121" x="422.9102" y="183.2104">lifetime : Date_Range</text><!--MD5=[0330879a1a385efee19ba3488ed490fa]
class Contribution--><rect codeLine="133" fill="#FFFFFF" filter="url(#f2tz9sqgd0b)" height="32" id="Contribution" style="stroke:#A80036;stroke-width:1.5;" width="109" x="584.9102" y="147.5"/><ellipse cx="599.9102" cy="163.5" fill="#ADD1B2" rx="11" ry="11" style="stroke:#A80036;stroke-width:1.0;"/><path d="M602.8789,169.1406 Q602.3008,169.4375 601.6602,169.5781 Q601.0195,169.7344 600.3164,169.7344 Q597.8164,169.7344 596.4883,168.0938 Q595.1758,166.4375 595.1758,163.3125 Q595.1758,160.1875 596.4883,158.5313 Q597.8164,156.875 600.3164,156.875 Q601.0195,156.875 601.6602,157.0313 Q602.3164,157.1875 602.8789,157.4844 L602.8789,160.2031 Q602.2539,159.625 601.6602,159.3594 Q601.0664,159.0781 600.4414,159.0781 Q599.0977,159.0781 598.4102,160.1563 Q597.7227,161.2188 597.7227,163.3125 Q597.7227,165.4063 598.4102,166.4844 Q599.0977,167.5469 600.4414,167.5469 Q601.0664,167.5469 601.6602,167.2813 Q602.2539,167 602.8789,166.4219 L602.8789,169.1406 Z " fill="#000000"/><text fill="#000000" font-family="sans-serif" font-size="12" lengthAdjust="spacing" textLength="77" x="613.9102" y="167.6543">Contribution</text><!--MD5=[532fe005ca0bef0ad6b309c9c6480e22]
class Contribution_Statement--><rect fill="#FEFECE" filter="url(#f2tz9sqgd0b)" height="32" id="Contribution_Statement" style="stroke:#A80036;stroke-width:1.5;" width="181" x="53.9102" y="17.5"/><ellipse cx="68.9102" cy="33.5" fill="#ADD1B2" rx="11" ry="11" style="stroke:#A80036;stroke-width:1.0;"/><path d="M71.8789,39.1406 Q71.3008,39.4375 70.6602,39.5781 Q70.0195,39.7344 69.3164,39.7344 Q66.8164,39.7344 65.4883,38.0938 Q64.1758,36.4375 64.1758,33.3125 Q64.1758,30.1875 65.4883,28.5313 Q66.8164,26.875 69.3164,26.875 Q70.0195,26.875 70.6602,27.0313 Q71.3164,27.1875 71.8789,27.4844 L71.8789,30.2031 Q71.2539,29.625 70.6602,29.3594 Q70.0664,29.0781 69.4414,29.0781 Q68.0977,29.0781 67.4102,30.1563 Q66.7227,31.2188 66.7227,33.3125 Q66.7227,35.4063 67.4102,36.4844 Q68.0977,37.5469 69.4414,37.5469 Q70.0664,37.5469 70.6602,37.2813 Q71.2539,37 71.8789,36.4219 L71.8789,39.1406 Z " fill="#000000"/><text fill="#000000" font-family="sans-serif" font-size="12" lengthAdjust="spacing" textLength="149" x="82.9102" y="37.6543">Contribution_Statement</text><!--MD5=[05151c161079be2c12996cf31a3c6866]
class Contribution_to_Document--><rect codeLine="151" fill="#FFFFFF" filter="url(#f2tz9sqgd0b)" height="32" id="Contribution_to_Document" style="stroke:#A80036;stroke-width:1.5;" width="198" x="540.4102" y="344.5"/><ellipse cx="555.4102" cy="360.5" fill="#ADD1B2" rx="11" ry="11" style="stroke:#A80036;stroke-width:1.0;"/><path d="M558.3789,366.1406 Q557.8008,366.4375 557.1602,366.5781 Q556.5195,366.7344 555.8164,366.7344 Q553.3164,366.7344 551.9883,365.0938 Q550.6758,363.4375 550.6758,360.3125 Q550.6758,357.1875 551.9883,355.5313 Q553.3164,353.875 555.8164,353.875 Q556.5195,353.875 557.1602,354.0313 Q557.8164,354.1875 558.3789,354.4844 L558.3789,357.2031 Q557.7539,356.625 557.1602,356.3594 Q556.5664,356.0781 555.9414,356.0781 Q554.5977,356.0781 553.9102,357.1563 Q553.2227,358.2188 553.2227,360.3125 Q553.2227,362.4063 553.9102,363.4844 Q554.5977,364.5469 555.9414,364.5469 Q556.5664,364.5469 557.1602,364.2813 Q557.7539,364 558.3789,363.4219 L558.3789,366.1406 Z " fill="#000000"/><text fill="#000000" font-family="sans-serif" font-size="12" lengthAdjust="spacing" textLength="166" x="569.4102" y="364.6543">Contribution_to_Document</text><!--MD5=[3d3814e6d18e193800c83fb27de84142]
class CRediT_Contribution_Statement--><rect codeLine="49" fill="#DDEEDD" filter="url(#f2tz9sqgd0b)" height="32" id="CRediT_Contribution_Statement" style="stroke:#A80036;stroke-width:1.5;" width="229" x="152.9102" y="147.5"/><ellipse cx="167.9102" cy="163.5" fill="#ADD1B2" rx="11" ry="11" style="stroke:#A80036;stroke-width:1.0;"/><path d="M170.8789,169.1406 Q170.3008,169.4375 169.6602,169.5781 Q169.0195,169.7344 168.3164,169.7344 Q165.8164,169.7344 164.4883,168.0938 Q163.1758,166.4375 163.1758,163.3125 Q163.1758,160.1875 164.4883,158.5313 Q165.8164,156.875 168.3164,156.875 Q169.0195,156.875 169.6602,157.0313 Q170.3164,157.1875 170.8789,157.4844 L170.8789,160.2031 Q170.2539,159.625 169.6602,159.3594 Q169.0664,159.0781 168.4414,159.0781 Q167.0977,159.0781 166.4102,160.1563 Q165.7227,161.2188 165.7227,163.3125 Q165.7227,165.4063 166.4102,166.4844 Q167.0977,167.5469 168.4414,167.5469 Q169.0664,167.5469 169.6602,167.2813 Q170.2539,167 170.8789,166.4219 L170.8789,169.1406 Z " fill="#000000"/><text fill="#000000" font-family="sans-serif" font-size="12" lengthAdjust="spacing" textLength="197" x="181.9102" y="167.6543">CRediT_Contribution_Statement</text><!--MD5=[42c2141a95e7f85966762f44b3023ac5]
class CRediT_Degree_of_Contribution--><rect codeLine="51" fill="#DDEEDD" filter="url(#f2tz9sqgd0b)" height="78.4141" id="CRediT_Degree_of_Contribution" style="stroke:#A80036;stroke-width:1.5;" width="227" x="7.9102" y="321.5"/><ellipse cx="22.9102" cy="337.5" fill="#EB937F" rx="11" ry="11" style="stroke:#A80036;stroke-width:1.0;"/><path d="M27.0195,343.5 L19.3008,343.5 L19.3008,331.1094 L27.0195,331.1094 L27.0195,333.2656 L21.7539,333.2656 L21.7539,335.9375 L26.5195,335.9375 L26.5195,338.0938 L21.7539,338.0938 L21.7539,341.3438 L27.0195,341.3438 L27.0195,343.5 Z " fill="#000000"/><text fill="#000000" font-family="sans-serif" font-size="12" lengthAdjust="spacing" textLength="195" x="36.9102" y="341.6543">CRediT_Degree_of_Contribution</text><line style="stroke:#A80036;stroke-width:1.5;" x1="8.9102" x2="233.9102" y1="353.5" y2="353.5"/><text fill="#000000" font-family="sans-serif" font-size="11" lengthAdjust="spacing" textLength="27" x="13.9102" y="367.7104">Lead</text><text fill="#000000" font-family="sans-serif" font-size="11" lengthAdjust="spacing" textLength="62" x="13.9102" y="380.5151">Supporting</text><text fill="#000000" font-family="sans-serif" font-size="11" lengthAdjust="spacing" textLength="31" x="13.9102" y="393.3198">Equal</text><!--MD5=[b5846dfcb37d6127d0d9f5f5e77b1e64]
class CRediT_Role_Type--><rect codeLine="56" fill="#DDEEDD" filter="url(#f2tz9sqgd0b)" height="219.2656" id="CRediT_Role_Type" style="stroke:#A80036;stroke-width:1.5;" width="155" x="269.9102" y="251"/><ellipse cx="290.7602" cy="267" fill="#EB937F" rx="11" ry="11" style="stroke:#A80036;stroke-width:1.0;"/><path d="M294.8695,273 L287.1508,273 L287.1508,260.6094 L294.8695,260.6094 L294.8695,262.7656 L289.6039,262.7656 L289.6039,265.4375 L294.3695,265.4375 L294.3695,267.5938 L289.6039,267.5938 L289.6039,270.8438 L294.8695,270.8438 L294.8695,273 Z " fill="#000000"/><text fill="#000000" font-family="sans-serif" font-size="12" lengthAdjust="spacing" textLength="110" x="306.0602" y="271.1543">CRediT_Role_Type</text><line style="stroke:#A80036;stroke-width:1.5;" x1="270.9102" x2="423.9102" y1="283" y2="283"/><text fill="#000000" font-family="sans-serif" font-size="11" lengthAdjust="spacing" textLength="99" x="275.9102" y="297.2104">Conceptualization</text><text fill="#000000" font-family="sans-serif" font-size="11" lengthAdjust="spacing" textLength="76" x="275.9102" y="310.0151">Data curation</text><text fill="#000000" font-family="sans-serif" font-size="11" lengthAdjust="spacing" textLength="90" x="275.9102" y="322.8198">Formal analysis</text><text fill="#000000" font-family="sans-serif" font-size="11" lengthAdjust="spacing" textLength="109" x="275.9102" y="335.6245">Funding acquisition</text><text fill="#000000" font-family="sans-serif" font-size="11" lengthAdjust="spacing" textLength="72" x="275.9102" y="348.4292">Investigation</text><text fill="#000000" font-family="sans-serif" font-size="11" lengthAdjust="spacing" textLength="71" x="275.9102" y="361.2339">Methodology</text><text fill="#000000" font-family="sans-serif" font-size="11" lengthAdjust="spacing" textLength="125" x="275.9102" y="374.0386">Project administration</text><text fill="#000000" font-family="sans-serif" font-size="11" lengthAdjust="spacing" textLength="60" x="275.9102" y="386.8433">Resources</text><text fill="#000000" font-family="sans-serif" font-size="11" lengthAdjust="spacing" textLength="51" x="275.9102" y="399.6479">Software</text><text fill="#000000" font-family="sans-serif" font-size="11" lengthAdjust="spacing" textLength="67" x="275.9102" y="412.4526">Supervision</text><text fill="#000000" font-family="sans-serif" font-size="11" lengthAdjust="spacing" textLength="55" x="275.9102" y="425.2573">Validation</text><text fill="#000000" font-family="sans-serif" font-size="11" lengthAdjust="spacing" textLength="70" x="275.9102" y="438.062">Visualization</text><text fill="#000000" font-family="sans-serif" font-size="11" lengthAdjust="spacing" textLength="123" x="275.9102" y="450.8667">Writing - original draft</text><text fill="#000000" font-family="sans-serif" font-size="11" lengthAdjust="spacing" textLength="143" x="275.9102" y="463.6714">Writing - review &amp; editing</text><!--MD5=[cd935cc757d29bd6a59b1252b30899e0]
link Activity to Agent--><path codeLine="171" d="M511.4102,60.1 C505.7402,80.85 497.7202,110.16 491.7202,132.1 " fill="none" id="Activity-to-Agent" style="stroke:#A80036;stroke-width:1.0;"/><polygon fill="#A80036" points="490.4002,136.95,496.6502,129.3384,491.7303,132.1302,488.9385,127.2102,490.4002,136.95" style="stroke:#A80036;stroke-width:1.0;"/><polygon fill="#000000" points="507.0912,103.3893,512.312,95.4398,506.6424,93.8893,507.0912,103.3893" style="stroke:#000000;stroke-width:1.0;"/><text fill="#000000" font-family="sans-serif" font-size="13" lengthAdjust="spacing" textLength="33" x="517.4102" y="103.0669">actor</text><text fill="#000000" font-family="sans-serif" font-size="13" lengthAdjust="spacing" textLength="23" x="484.3633" y="79.6622">0..*</text><text fill="#000000" font-family="sans-serif" font-size="13" lengthAdjust="spacing" textLength="24" x="465.179" y="125.7572">0..1</text><!--MD5=[55f20054f286b2e7074e8d22fab1f608]
reverse link Activity to Contribution--><path codeLine="138" d="M556.6502,74.95 C579.9502,99.6 608.3602,129.65 625.1102,147.37 " fill="none" id="Activity-backto-Contribution" style="stroke:#A80036;stroke-width:1.0;"/><polygon fill="none" points="551.2602,79.44,542.6102,60.1,561.4302,69.82,551.2602,79.44" style="stroke:#A80036;stroke-width:1.0;"/><!--MD5=[b01ee177fc17bf8bb95324fc01c31b3b]
link Contribution_Statement to Resource--><path codeLine="433" d="M135.8702,49.69 C122.8202,72.88 97.9302,117.12 83.5102,142.77 " fill="none" id="Contribution_Statement-to-Resource" style="stroke:#A80036;stroke-width:1.0;"/><polygon fill="#A80036" points="80.9402,147.33,88.8306,141.4358,83.3853,142.9687,81.8525,137.5235,80.9402,147.33" style="stroke:#A80036;stroke-width:1.0;"/><polygon fill="#000000" points="115.9588,102.9242,122.9548,96.4817,117.8319,93.6,115.9588,102.9242" style="stroke:#000000;stroke-width:1.0;"/><text fill="#000000" font-family="sans-serif" font-size="13" lengthAdjust="spacing" textLength="54" x="127.4102" y="103.0669">provides</text><text fill="#000000" font-family="sans-serif" font-size="13" lengthAdjust="spacing" textLength="24" x="55.7907" y="136.5782">0..1</text><!--MD5=[8d7c614e8203540f95956299e63d224a]
reverse link Contribution to Contribution_to_Document--><path codeLine="156" d="M639.4102,199.91 C639.4102,242.89 639.4102,313.43 639.4102,344.27 " fill="none" id="Contribution-backto-Contribution_to_Document" style="stroke:#A80036;stroke-width:1.0;"/><polygon fill="none" points="632.4102,199.8,639.4102,179.8,646.4102,199.8,632.4102,199.8" style="stroke:#A80036;stroke-width:1.0;"/><!--MD5=[117c8d017b65f89954aa553a8ad2cfe8]
link Contribution_to_Document to Document--><path codeLine="417" d="M639.4102,376.51 C639.4102,409.82 639.4102,490.96 639.4102,541.63 " fill="none" id="Contribution_to_Document-to-Document" style="stroke:#A80036;stroke-width:1.0;"/><polygon fill="#A80036" points="639.4102,546.74,643.4102,537.74,639.4102,541.74,635.4102,537.74,639.4102,546.74" style="stroke:#A80036;stroke-width:1.0;"/><polygon fill="#000000" points="644.4102,513.5664,647.3491,504.5213,641.4712,504.5213,644.4102,513.5664" style="stroke:#000000;stroke-width:1.0;"/><text fill="#000000" font-family="sans-serif" font-size="13" lengthAdjust="spacing" textLength="65" x="653.4102" y="513.0669">document</text><!--MD5=[7276caa4191a3f95f28b5ba112f82c6c]
reverse link Contribution_Statement to CRediT_Contribution_Statement--><path codeLine="96" d="M173.0002,64.25 C197.9902,90.25 233.2402,126.94 252.8402,147.33 " fill="none" id="Contribution_Statement-backto-CRediT_Contribution_Statement" style="stroke:#A80036;stroke-width:1.0;"/><polygon fill="none" points="167.8102,68.96,159.0002,49.69,177.9102,59.26,167.8102,68.96" style="stroke:#A80036;stroke-width:1.0;"/><!--MD5=[fb8e7b03155fc2d9c40ee98c4cf95180]
link CRediT_Contribution_Statement to CRediT_Role_Type--><path codeLine="110" d="M273.6902,179.8 C279.8902,194.93 290.0002,219.57 300.7702,245.81 " fill="none" id="CRediT_Contribution_Statement-to-CRediT_Role_Type" style="stroke:#A80036;stroke-width:1.0;stroke-dasharray:7.0,7.0;"/><polygon fill="#A80036" points="302.7902,250.73,303.0728,240.8852,300.8914,246.1045,295.6721,243.9232,302.7902,250.73" style="stroke:#A80036;stroke-width:1.0;"/><text fill="#000000" font-family="sans-serif" font-size="13" lengthAdjust="spacing" textLength="54" x="243.9782" y="239.9134">roleType</text><!--MD5=[fd5d8cb6bc72986bd3560f3b69973f17]
link CRediT_Contribution_Statement to CRediT_Degree_of_Contribution--><path codeLine="113" d="M255.9502,179.8 C234.0102,209.11 185.3502,274.11 152.9602,317.36 " fill="none" id="CRediT_Contribution_Statement-to-CRediT_Degree_of_Contribution" style="stroke:#A80036;stroke-width:1.0;stroke-dasharray:7.0,7.0;"/><polygon fill="#A80036" points="149.8802,321.48,158.4802,316.68,152.8802,317.48,152.0802,311.88,149.8802,321.48" style="stroke:#A80036;stroke-width:1.0;"/><text fill="#000000" font-family="sans-serif" font-size="13" lengthAdjust="spacing" textLength="137" x="6" y="310.5271">degreeOfContribution</text><!--MD5=[39bf7d0ced62dbdf1c304173406d105b]
@startuml

    !includesub ../../CERIF-Core/diagrams/core.puml!common

    !includesub ../../CERIF-Core/diagrams/core.puml!Resource
    !includesub ../../CERIF-Core/diagrams/core.puml!Document
    !includesub ../../CERIF-Core/diagrams/core.puml!Activity
    !includesub ../../CERIF-Core/diagrams/core.puml!Contribution
    !includesub ../../CERIF-Core/diagrams/core.puml!Contribution_to_Document
    !includesub ../../CERIF-Core/diagrams/core.puml!Agent

    !includesub ./module.puml!CRediT

@enduml

@startuml

    hide empty members
    skinparam BoxPadding 120

    class "Resource" #ffffff {
    }
    class "Document" #ffffff {
        DOI : DOI
        title : Multilingual_String
        publicationDate : Date
    }
    class "Activity" #ffffff {
  		dateRange : Date_Range
    }
    "Activity" "0..*" - -> "0..1" "Agent" : actor >
    class "Contribution" #ffffff {
    }
    "Activity" <|- - "Contribution"
     "Contribution_Statement" - -> "0..1" "Resource" : provides >
    class "Contribution_to_Document" #ffffff {
    }
    "Contribution" <|- - "Contribution_to_Document"
    "Contribution_to_Document" - -> "Document" : document >
    class "Agent" #ffffff {
    	lifetime : Date_Range
    }

        class "CRediT_Contribution_Statement" #ddeedd {
        }
        enum "CRediT_Degree_of_Contribution" #ddeedd {
            Lead
            Supporting
            Equal
        }
        enum "CRediT_Role_Type" #ddeedd {
            Conceptualization
            Data curation
            Formal analysis
            Funding acquisition
            Investigation
            Methodology
            Project administration
            Resources
            Software
            Supervision
            Validation
            Visualization
            Writing - original draft
            Writing - review & editing
        }
        "Contribution_Statement" <|- - "CRediT_Contribution_Statement"
        "CRediT_Contribution_Statement" ..> "roleType" "CRediT_Role_Type"
        "CRediT_Contribution_Statement" ..> "degreeOfContribution" "CRediT_Degree_of_Contribution"

@enduml

PlantUML version 1.2021.8(Sat Jun 26 08:20:59 UTC 2021)
(GPL source distribution)
Java Runtime: OpenJDK Runtime Environment
JVM: OpenJDK 64-Bit Server VM
Default Encoding: UTF-8
Language: en
Country: null
--></g></svg>