<?xml version="1.0" encoding="UTF-8" standalone="no"?><svg xmlns="http://www.w3.org/2000/svg" xmlns:xlink="http://www.w3.org/1999/xlink" contentScriptType="application/ecmascript" contentStyleType="text/css" height="470px" preserveAspectRatio="none" style="width:923px;height:470px;background:#FFFFFF;" version="1.1" viewBox="0 0 923 470" width="923px" zoomAndPan="magnify"><defs><filter height="300%" id="f821qe4mu6a19" width="300%" x="-1" y="-1"><feGaussianBlur result="blurOut" stdDeviation="2.0"/><feColorMatrix in="blurOut" result="blurOut2" type="matrix" values="0 0 0 0 0 0 0 0 0 0 0 0 0 0 0 0 0 0 .4 0"/><feOffset dx="4.0" dy="4.0" in="blurOut2" result="blurOut3"/><feBlend in="SourceGraphic" in2="blurOut3" mode="normal"/></filter></defs><g><!--MD5=[59b530d44ae785dc18db921986a9c15c]
class Document--><rect codeLine="7" fill="#FFFFFF" filter="url(#f821qe4mu6a19)" height="78.4141" id="Document" style="stroke:#A80036;stroke-width:1.5;" width="148" x="761.5" y="99"/><ellipse cx="799.9" cy="115" fill="#ADD1B2" rx="11" ry="11" style="stroke:#A80036;stroke-width:1.0;"/><path d="M802.8688,120.6406 Q802.2906,120.9375 801.65,121.0781 Q801.0094,121.2344 800.3063,121.2344 Q797.8063,121.2344 796.4781,119.5938 Q795.1656,117.9375 795.1656,114.8125 Q795.1656,111.6875 796.4781,110.0313 Q797.8063,108.375 800.3063,108.375 Q801.0094,108.375 801.65,108.5313 Q802.3063,108.6875 802.8688,108.9844 L802.8688,111.7031 Q802.2438,111.125 801.65,110.8594 Q801.0563,110.5781 800.4313,110.5781 Q799.0875,110.5781 798.4,111.6563 Q797.7125,112.7188 797.7125,114.8125 Q797.7125,116.9063 798.4,117.9844 Q799.0875,119.0469 800.4313,119.0469 Q801.0563,119.0469 801.65,118.7813 Q802.2438,118.5 802.8688,117.9219 L802.8688,120.6406 Z " fill="#000000"/><text fill="#000000" font-family="sans-serif" font-size="12" lengthAdjust="spacing" textLength="64" x="819.1" y="119.1543">Document</text><line style="stroke:#A80036;stroke-width:1.5;" x1="762.5" x2="908.5" y1="131" y2="131"/><text fill="#000000" font-family="sans-serif" font-size="11" lengthAdjust="spacing" textLength="85" x="767.5" y="145.2104">DOI : DOI_Type</text><text fill="#000000" font-family="sans-serif" font-size="11" lengthAdjust="spacing" textLength="136" x="767.5" y="158.0151">title : Multilingual_String</text><text fill="#000000" font-family="sans-serif" font-size="11" lengthAdjust="spacing" textLength="125" x="767.5" y="170.8198">publicationDate : Date</text><!--MD5=[fe105c2ee1fabf2400c31a97ce9128bc]
class Textual_Document--><rect codeLine="12" fill="#FFFFFF" filter="url(#f821qe4mu6a19)" height="32" id="Textual_Document" style="stroke:#A80036;stroke-width:1.5;" width="147" x="762" y="7"/><ellipse cx="777" cy="23" fill="#ADD1B2" rx="11" ry="11" style="stroke:#A80036;stroke-width:1.0;"/><path d="M779.9688,28.6406 Q779.3906,28.9375 778.75,29.0781 Q778.1094,29.2344 777.4063,29.2344 Q774.9063,29.2344 773.5781,27.5938 Q772.2656,25.9375 772.2656,22.8125 Q772.2656,19.6875 773.5781,18.0313 Q774.9063,16.375 777.4063,16.375 Q778.1094,16.375 778.75,16.5313 Q779.4063,16.6875 779.9688,16.9844 L779.9688,19.7031 Q779.3438,19.125 778.75,18.8594 Q778.1563,18.5781 777.5313,18.5781 Q776.1875,18.5781 775.5,19.6563 Q774.8125,20.7188 774.8125,22.8125 Q774.8125,24.9063 775.5,25.9844 Q776.1875,27.0469 777.5313,27.0469 Q778.1563,27.0469 778.75,26.7813 Q779.3438,26.5 779.9688,25.9219 L779.9688,28.6406 Z " fill="#000000"/><text fill="#000000" font-family="sans-serif" font-size="12" lengthAdjust="spacing" textLength="115" x="791" y="27.1543">Textual_Document</text><!--MD5=[b821bb113f9f55c728f1fbb8949cc3af]
class Contributorship--><rect codeLine="43" fill="#FFFFFF" filter="url(#f821qe4mu6a19)" height="65.6094" id="Contributorship" style="stroke:#A80036;stroke-width:1.5;" width="131" x="595" y="105"/><ellipse cx="610.9" cy="121" fill="#ADD1B2" rx="11" ry="11" style="stroke:#A80036;stroke-width:1.0;"/><path d="M613.8688,126.6406 Q613.2906,126.9375 612.65,127.0781 Q612.0094,127.2344 611.3063,127.2344 Q608.8063,127.2344 607.4781,125.5938 Q606.1656,123.9375 606.1656,120.8125 Q606.1656,117.6875 607.4781,116.0313 Q608.8063,114.375 611.3063,114.375 Q612.0094,114.375 612.65,114.5313 Q613.3063,114.6875 613.8688,114.9844 L613.8688,117.7031 Q613.2438,117.125 612.65,116.8594 Q612.0563,116.5781 611.4313,116.5781 Q610.0875,116.5781 609.4,117.6563 Q608.7125,118.7188 608.7125,120.8125 Q608.7125,122.9063 609.4,123.9844 Q610.0875,125.0469 611.4313,125.0469 Q612.0563,125.0469 612.65,124.7813 Q613.2438,124.5 613.8688,123.9219 L613.8688,126.6406 Z " fill="#000000"/><text fill="#000000" font-family="sans-serif" font-size="12" lengthAdjust="spacing" textLength="97" x="625.1" y="125.1543">Contributorship</text><line style="stroke:#A80036;stroke-width:1.5;" x1="596" x2="725" y1="137" y2="137"/><text fill="#000000" font-family="sans-serif" font-size="11" lengthAdjust="spacing" textLength="116" x="601" y="151.2104">contacts : List&lt;URI&gt;</text><text fill="#000000" font-family="sans-serif" font-size="11" lengthAdjust="spacing" textLength="119" x="601" y="164.0151">displayName : String</text><!--MD5=[532fe005ca0bef0ad6b309c9c6480e22]
class Contribution_Statement--><rect codeLine="47" fill="#FFFFFF" filter="url(#f821qe4mu6a19)" height="32" id="Contribution_Statement" style="stroke:#A80036;stroke-width:1.5;" width="181" x="251" y="7"/><ellipse cx="266" cy="23" fill="#ADD1B2" rx="11" ry="11" style="stroke:#A80036;stroke-width:1.0;"/><path d="M268.9688,28.6406 Q268.3906,28.9375 267.75,29.0781 Q267.1094,29.2344 266.4063,29.2344 Q263.9063,29.2344 262.5781,27.5938 Q261.2656,25.9375 261.2656,22.8125 Q261.2656,19.6875 262.5781,18.0313 Q263.9063,16.375 266.4063,16.375 Q267.1094,16.375 267.75,16.5313 Q268.4063,16.6875 268.9688,16.9844 L268.9688,19.7031 Q268.3438,19.125 267.75,18.8594 Q267.1563,18.5781 266.5313,18.5781 Q265.1875,18.5781 264.5,19.6563 Q263.8125,20.7188 263.8125,22.8125 Q263.8125,24.9063 264.5,25.9844 Q265.1875,27.0469 266.5313,27.0469 Q267.1563,27.0469 267.75,26.7813 Q268.3438,26.5 268.9688,25.9219 L268.9688,28.6406 Z " fill="#000000"/><text fill="#000000" font-family="sans-serif" font-size="12" lengthAdjust="spacing" textLength="149" x="280" y="27.1543">Contribution_Statement</text><!--MD5=[e67d803be009978640e98815ecdddf28]
class Free_Text_Contribution--><rect codeLine="49" fill="#FFFFFF" filter="url(#f821qe4mu6a19)" height="52.8047" id="Free_Text_Contribution" style="stroke:#A80036;stroke-width:1.5;" width="185" x="7" y="111.5"/><ellipse cx="26.5" cy="127.5" fill="#ADD1B2" rx="11" ry="11" style="stroke:#A80036;stroke-width:1.0;"/><path d="M29.4688,133.1406 Q28.8906,133.4375 28.25,133.5781 Q27.6094,133.7344 26.9063,133.7344 Q24.4063,133.7344 23.0781,132.0938 Q21.7656,130.4375 21.7656,127.3125 Q21.7656,124.1875 23.0781,122.5313 Q24.4063,120.875 26.9063,120.875 Q27.6094,120.875 28.25,121.0313 Q28.9063,121.1875 29.4688,121.4844 L29.4688,124.2031 Q28.8438,123.625 28.25,123.3594 Q27.6563,123.0781 27.0313,123.0781 Q25.6875,123.0781 25,124.1563 Q24.3125,125.2188 24.3125,127.3125 Q24.3125,129.4063 25,130.4844 Q25.6875,131.5469 27.0313,131.5469 Q27.6563,131.5469 28.25,131.2813 Q28.8438,131 29.4688,130.4219 L29.4688,133.1406 Z " fill="#000000"/><text fill="#000000" font-family="sans-serif" font-size="12" lengthAdjust="spacing" textLength="143" x="41.5" y="131.6543">Free_Text_Contribution</text><line style="stroke:#A80036;stroke-width:1.5;" x1="8" x2="191" y1="143.5" y2="143.5"/><text fill="#000000" font-family="sans-serif" font-size="11" lengthAdjust="spacing" textLength="173" x="13" y="157.7104">statement : Multilingual_String</text><!--MD5=[9d44916250b776386006c440668bcfbb]
class Agent--><rect codeLine="22" fill="#FFFFFF" filter="url(#f821qe4mu6a19)" height="32" id="Agent" style="stroke:#A80036;stroke-width:1.5;" width="69" x="491" y="122"/><ellipse cx="506" cy="138" fill="#ADD1B2" rx="11" ry="11" style="stroke:#A80036;stroke-width:1.0;"/><path d="M508.9688,143.6406 Q508.3906,143.9375 507.75,144.0781 Q507.1094,144.2344 506.4063,144.2344 Q503.9063,144.2344 502.5781,142.5938 Q501.2656,140.9375 501.2656,137.8125 Q501.2656,134.6875 502.5781,133.0313 Q503.9063,131.375 506.4063,131.375 Q507.1094,131.375 507.75,131.5313 Q508.4063,131.6875 508.9688,131.9844 L508.9688,134.7031 Q508.3438,134.125 507.75,133.8594 Q507.1563,133.5781 506.5313,133.5781 Q505.1875,133.5781 504.5,134.6563 Q503.8125,135.7188 503.8125,137.8125 Q503.8125,139.9063 504.5,140.9844 Q505.1875,142.0469 506.5313,142.0469 Q507.1563,142.0469 507.75,141.7813 Q508.3438,141.5 508.9688,140.9219 L508.9688,143.6406 Z " fill="#000000"/><text fill="#000000" font-family="sans-serif" font-size="12" lengthAdjust="spacing" textLength="37" x="520" y="142.1543">Agent</text><!--MD5=[3d3814e6d18e193800c83fb27de84142]
class CRediT_Contribution_Statement--><rect codeLine="48" fill="#FEFECE" filter="url(#f821qe4mu6a19)" height="32" id="CRediT_Contribution_Statement" style="stroke:#A80036;stroke-width:1.5;" width="229" x="227" y="122"/><ellipse cx="242" cy="138" fill="#ADD1B2" rx="11" ry="11" style="stroke:#A80036;stroke-width:1.0;"/><path d="M244.9688,143.6406 Q244.3906,143.9375 243.75,144.0781 Q243.1094,144.2344 242.4063,144.2344 Q239.9063,144.2344 238.5781,142.5938 Q237.2656,140.9375 237.2656,137.8125 Q237.2656,134.6875 238.5781,133.0313 Q239.9063,131.375 242.4063,131.375 Q243.1094,131.375 243.75,131.5313 Q244.4063,131.6875 244.9688,131.9844 L244.9688,134.7031 Q244.3438,134.125 243.75,133.8594 Q243.1563,133.5781 242.5313,133.5781 Q241.1875,133.5781 240.5,134.6563 Q239.8125,135.7188 239.8125,137.8125 Q239.8125,139.9063 240.5,140.9844 Q241.1875,142.0469 242.5313,142.0469 Q243.1563,142.0469 243.75,141.7813 Q244.3438,141.5 244.9688,140.9219 L244.9688,143.6406 Z " fill="#000000"/><text fill="#000000" font-family="sans-serif" font-size="12" lengthAdjust="spacing" textLength="197" x="256" y="142.1543">CRediT_Contribution_Statement</text><!--MD5=[42c2141a95e7f85966762f44b3023ac5]
class CRediT_Degree_of_Contribution--><rect codeLine="50" fill="#FEFECE" filter="url(#f821qe4mu6a19)" height="78.4141" id="CRediT_Degree_of_Contribution" style="stroke:#A80036;stroke-width:1.5;" width="227" x="115" y="307.5"/><ellipse cx="130" cy="323.5" fill="#EB937F" rx="11" ry="11" style="stroke:#A80036;stroke-width:1.0;"/><path d="M134.1094,329.5 L126.3906,329.5 L126.3906,317.1094 L134.1094,317.1094 L134.1094,319.2656 L128.8438,319.2656 L128.8438,321.9375 L133.6094,321.9375 L133.6094,324.0938 L128.8438,324.0938 L128.8438,327.3438 L134.1094,327.3438 L134.1094,329.5 Z " fill="#000000"/><text fill="#000000" font-family="sans-serif" font-size="12" lengthAdjust="spacing" textLength="195" x="144" y="327.6543">CRediT_Degree_of_Contribution</text><line style="stroke:#A80036;stroke-width:1.5;" x1="116" x2="341" y1="339.5" y2="339.5"/><text fill="#000000" font-family="sans-serif" font-size="11" lengthAdjust="spacing" textLength="27" x="121" y="353.7104">Lead</text><text fill="#000000" font-family="sans-serif" font-size="11" lengthAdjust="spacing" textLength="62" x="121" y="366.5151">Supporting</text><text fill="#000000" font-family="sans-serif" font-size="11" lengthAdjust="spacing" textLength="31" x="121" y="379.3198">Equal</text><!--MD5=[b5846dfcb37d6127d0d9f5f5e77b1e64]
class CRediT_Role_Type--><rect codeLine="55" fill="#FEFECE" filter="url(#f821qe4mu6a19)" height="219.2656" id="CRediT_Role_Type" style="stroke:#A80036;stroke-width:1.5;" width="155" x="377" y="237"/><ellipse cx="397.85" cy="253" fill="#EB937F" rx="11" ry="11" style="stroke:#A80036;stroke-width:1.0;"/><path d="M401.9594,259 L394.2406,259 L394.2406,246.6094 L401.9594,246.6094 L401.9594,248.7656 L396.6938,248.7656 L396.6938,251.4375 L401.4594,251.4375 L401.4594,253.5938 L396.6938,253.5938 L396.6938,256.8438 L401.9594,256.8438 L401.9594,259 Z " fill="#000000"/><text fill="#000000" font-family="sans-serif" font-size="12" lengthAdjust="spacing" textLength="110" x="413.15" y="257.1543">CRediT_Role_Type</text><line style="stroke:#A80036;stroke-width:1.5;" x1="378" x2="531" y1="269" y2="269"/><text fill="#000000" font-family="sans-serif" font-size="11" lengthAdjust="spacing" textLength="99" x="383" y="283.2104">Conceptualization</text><text fill="#000000" font-family="sans-serif" font-size="11" lengthAdjust="spacing" textLength="76" x="383" y="296.0151">Data curation</text><text fill="#000000" font-family="sans-serif" font-size="11" lengthAdjust="spacing" textLength="90" x="383" y="308.8198">Formal analysis</text><text fill="#000000" font-family="sans-serif" font-size="11" lengthAdjust="spacing" textLength="109" x="383" y="321.6245">Funding acquisition</text><text fill="#000000" font-family="sans-serif" font-size="11" lengthAdjust="spacing" textLength="72" x="383" y="334.4292">Investigation</text><text fill="#000000" font-family="sans-serif" font-size="11" lengthAdjust="spacing" textLength="71" x="383" y="347.2339">Methodology</text><text fill="#000000" font-family="sans-serif" font-size="11" lengthAdjust="spacing" textLength="125" x="383" y="360.0386">Project administration</text><text fill="#000000" font-family="sans-serif" font-size="11" lengthAdjust="spacing" textLength="60" x="383" y="372.8433">Resources</text><text fill="#000000" font-family="sans-serif" font-size="11" lengthAdjust="spacing" textLength="51" x="383" y="385.6479">Software</text><text fill="#000000" font-family="sans-serif" font-size="11" lengthAdjust="spacing" textLength="67" x="383" y="398.4526">Supervision</text><text fill="#000000" font-family="sans-serif" font-size="11" lengthAdjust="spacing" textLength="55" x="383" y="411.2573">Validation</text><text fill="#000000" font-family="sans-serif" font-size="11" lengthAdjust="spacing" textLength="70" x="383" y="424.062">Visualization</text><text fill="#000000" font-family="sans-serif" font-size="11" lengthAdjust="spacing" textLength="123" x="383" y="436.8667">Writing - original draft</text><text fill="#000000" font-family="sans-serif" font-size="11" lengthAdjust="spacing" textLength="143" x="383" y="449.6714">Writing - review &amp; editing</text><!--MD5=[8d9b790276a1e6c61f0b091de629785c]
link Textual_Document to Document--><path codeLine="95" d="M835.5,39.24 C835.5,49.62 835.5,64.08 835.5,78.7 " fill="none" id="Textual_Document-to-Document" style="stroke:#A80036;stroke-width:1.0;"/><polygon fill="none" points="842.5,78.72,835.5,98.72,828.5,78.72,842.5,78.72" style="stroke:#A80036;stroke-width:1.0;"/><!--MD5=[b5c017ecc32f857930efae613c226920]
reverse link Contribution_Statement to Free_Text_Contribution--><path codeLine="75" d="M291.18,47.5 C251.27,66.13 195.58,92.14 154.51,111.31 " fill="none" id="Contribution_Statement-backto-Free_Text_Contribution" style="stroke:#A80036;stroke-width:1.0;"/><polygon fill="none" points="288.28,41.12,309.36,39.01,294.2,53.81,288.28,41.12" style="stroke:#A80036;stroke-width:1.0;"/><!--MD5=[1f014480a3afa8c0325c3be3fbf7ad6f]
link Contributorship to Document--><path codeLine="78" d="M726.12,138 C733.42,138 740.72,138 748.02,138 " fill="none" id="Contributorship-to-Document" style="stroke:#A80036;stroke-width:1.0;"/><polygon fill="#A80036" points="761.16,138,755.16,134,749.16,138,755.16,142,761.16,138" style="stroke:#A80036;stroke-width:1.0;"/><text fill="#000000" font-family="sans-serif" font-size="13" lengthAdjust="spacing" textLength="23" x="734.073" y="134.3204">0..*</text><!--MD5=[504de05de5dc33320621ff1be2e6e6ff]
reverse link Agent to Contributorship--><path codeLine="81" d="M573.14,138 C580.41,138 587.69,138 594.97,138 " fill="none" id="Agent-backto-Contributorship" style="stroke:#A80036;stroke-width:1.0;"/><polygon fill="#A80036" points="560.04,138,566.04,142,572.04,138,566.04,134,560.04,138" style="stroke:#A80036;stroke-width:1.0;"/><text fill="#000000" font-family="sans-serif" font-size="13" lengthAdjust="spacing" textLength="98" x="499.8281" y="110.7706">0..1 contributor</text><text fill="#000000" font-family="sans-serif" font-size="13" lengthAdjust="spacing" textLength="23" x="568.0128" y="151.5341">0..*</text><!--MD5=[302d116419dc4c6a2265e61d4260f04e]
link Contribution_Statement to Contributorship--><path codeLine="85" d="M395.1,39.01 C443.35,53 515.94,75.23 577.5,99 C579.17,99.64 580.85,100.31 582.54,100.98 " fill="none" id="Contribution_Statement-to-Contributorship" style="stroke:#A80036;stroke-width:1.0;"/><polygon fill="#A80036" points="594.67,105.98,590.6492,99.9939,583.5771,101.403,587.5979,107.3891,594.67,105.98" style="stroke:#A80036;stroke-width:1.0;"/><text fill="#000000" font-family="sans-serif" font-size="13" lengthAdjust="spacing" textLength="179" x="203.7594" y="59.1813">0..* contributionStatements</text><!--MD5=[7276caa4191a3f95f28b5ba112f82c6c]
reverse link Contribution_Statement to CRediT_Contribution_Statement--><path codeLine="95" d="M341.5,59.5 C341.5,80.39 341.5,105.76 341.5,121.64 " fill="none" id="Contribution_Statement-backto-CRediT_Contribution_Statement" style="stroke:#A80036;stroke-width:1.0;"/><polygon fill="none" points="334.5,59.24,341.5,39.24,348.5,59.24,334.5,59.24" style="stroke:#A80036;stroke-width:1.0;"/><!--MD5=[fb8e7b03155fc2d9c40ee98c4cf95180]
link CRediT_Contribution_Statement to CRediT_Role_Type--><path codeLine="109" d="M349.81,154.18 C359.26,171.45 375.59,201.3 392.58,232.35 " fill="none" id="CRediT_Contribution_Statement-to-CRediT_Role_Type" style="stroke:#A80036;stroke-width:1.0;stroke-dasharray:7.0,7.0;"/><polygon fill="#A80036" points="395.09,236.93,394.2785,227.1146,392.6897,232.5438,387.2606,230.9551,395.09,236.93" style="stroke:#A80036;stroke-width:1.0;"/><text fill="#000000" font-family="sans-serif" font-size="13" lengthAdjust="spacing" textLength="54" x="335.0143" y="225.7607">roleType</text><!--MD5=[fd5d8cb6bc72986bd3560f3b69973f17]
link CRediT_Contribution_Statement to CRediT_Degree_of_Contribution--><path codeLine="110" d="M333.19,154.18 C316.25,185.13 277.21,256.49 251.88,302.77 " fill="none" id="CRediT_Contribution_Statement-to-CRediT_Degree_of_Contribution" style="stroke:#A80036;stroke-width:1.0;stroke-dasharray:7.0,7.0;"/><polygon fill="#A80036" points="249.47,307.17,257.2994,301.1951,251.8703,302.7838,250.2815,297.3546,249.47,307.17" style="stroke:#A80036;stroke-width:1.0;"/><text fill="#000000" font-family="sans-serif" font-size="13" lengthAdjust="spacing" textLength="137" x="104.5978" y="296.4574">degreeOfContribution</text><!--MD5=[c5f8beb40d222f40c0dedaf816d1ba76]
@startuml

!includesub core.puml!common


    !includesub ./core.puml!Document
    !includesub ./core.puml!Contributorship
    !includesub ./core.puml!Agent

!includesub ./module.puml!CRediT

@enduml

@startuml

    	hide empty members


    class "Document" #ffffff {
        DOI : DOI_Type
        title : Multilingual_String
        publicationDate : Date
    }
    class "Textual_Document" #ffffff {
    }
    "Document" <|-u- "Textual_Document"
    class "Contributorship" #ffffff {
        contacts : List<URI>
        displayName : String
    }
    class "Contribution_Statement" #ffffff {
    }
    class "Free_Text_Contribution" #ffffff {
        statement : Multilingual_String
    }
    "Contribution_Statement" <|- - "Free_Text_Contribution"
    "Contributorship" "0..*" -r-* "Document"
    "Contributorship" "0..*" -l-* "0..1 contributor" "Agent"
    "Contributorship" *-u- "0..* contributionStatements" "Contribution_Statement"
    class "Agent" #ffffff {

        }

    class "CRediT_Contribution_Statement"{
    }
    enum "CRediT_Degree_of_Contribution"{
        Lead
        Supporting
        Equal
    }
    enum "CRediT_Role_Type"{
        Conceptualization
        Data curation
        Formal analysis
        Funding acquisition
        Investigation
        Methodology
        Project administration
        Resources
        Software
        Supervision
        Validation
        Visualization
        Writing - original draft
        Writing - review & editing
    }
    "Contribution_Statement" <|- - "CRediT_Contribution_Statement"
    "CRediT_Contribution_Statement" ..> "roleType" "CRediT_Role_Type"
    "CRediT_Contribution_Statement" ..> "degreeOfContribution" "CRediT_Degree_of_Contribution"

@enduml

PlantUML version 1.2021.8(Sat Jun 26 08:20:59 UTC 2021)
(GPL source distribution)
Java Runtime: OpenJDK Runtime Environment
JVM: OpenJDK 64-Bit Server VM
Default Encoding: UTF-8
Language: en
Country: null
--></g></svg>