<?xml version="1.0" encoding="UTF-8" standalone="no"?><svg xmlns="http://www.w3.org/2000/svg" xmlns:xlink="http://www.w3.org/1999/xlink" contentScriptType="application/ecmascript" contentStyleType="text/css" height="536px" preserveAspectRatio="none" style="width:1003px;height:536px;background:#FFFFFF;" version="1.1" viewBox="0 0 1003 536" width="1003px" zoomAndPan="magnify"><defs><filter height="300%" id="f1ui9yh5y9yufa" width="300%" x="-1" y="-1"><feGaussianBlur result="blurOut" stdDeviation="2.0"/><feColorMatrix in="blurOut" result="blurOut2" type="matrix" values="0 0 0 0 0 0 0 0 0 0 0 0 0 0 0 0 0 0 .4 0"/><feOffset dx="4.0" dy="4.0" in="blurOut2" result="blurOut3"/><feBlend in="SourceGraphic" in2="blurOut3" mode="normal"/></filter></defs><g><!--MD5=[0ce99cd3eae675f87caad727cac20a4b]
cluster CERIF core--><polygon fill="#EFEFEF" filter="url(#f1ui9yh5y9yufa)" points="16,6,106,6,113,28.2969,669,28.2969,669,251,16,251,16,6" style="stroke:#000000;stroke-width:1.5;"/><line style="stroke:#000000;stroke-width:1.5;" x1="16" x2="113" y1="28.2969" y2="28.2969"/><text fill="#000000" font-family="sans-serif" font-size="14" font-weight="bold" lengthAdjust="spacing" textLength="84" x="20" y="20.9951">CERIF core</text><!--MD5=[59b530d44ae785dc18db921986a9c15c]
class Document--><rect codeLine="2" fill="#FEFECE" filter="url(#f1ui9yh5y9yufa)" height="86.4141" id="Document" style="stroke:#A80036;stroke-width:1.5;" width="140" x="32" y="149"/><ellipse cx="66.8" cy="165" fill="#ADD1B2" rx="11" ry="11" style="stroke:#A80036;stroke-width:1.0;"/><path d="M69.7688,170.6406 Q69.1906,170.9375 68.55,171.0781 Q67.9094,171.2344 67.2063,171.2344 Q64.7063,171.2344 63.3781,169.5938 Q62.0656,167.9375 62.0656,164.8125 Q62.0656,161.6875 63.3781,160.0313 Q64.7063,158.375 67.2063,158.375 Q67.9094,158.375 68.55,158.5313 Q69.2063,158.6875 69.7688,158.9844 L69.7688,161.7031 Q69.1438,161.125 68.55,160.8594 Q67.9563,160.5781 67.3313,160.5781 Q65.9875,160.5781 65.3,161.6563 Q64.6125,162.7188 64.6125,164.8125 Q64.6125,166.9063 65.3,167.9844 Q65.9875,169.0469 67.3313,169.0469 Q67.9563,169.0469 68.55,168.7813 Q69.1438,168.5 69.7688,167.9219 L69.7688,170.6406 Z " fill="#000000"/><text fill="#000000" font-family="sans-serif" font-size="12" lengthAdjust="spacing" textLength="64" x="85.2" y="169.1543">Document</text><line style="stroke:#A80036;stroke-width:1.5;" x1="33" x2="171" y1="181" y2="181"/><text fill="#000000" font-family="sans-serif" font-size="11" lengthAdjust="spacing" textLength="128" x="38" y="195.2104">Multilingual_String title</text><text fill="#000000" font-family="sans-serif" font-size="11" lengthAdjust="spacing" textLength="117" x="38" y="208.0151">Date publicationDate</text><text fill="#000000" font-family="sans-serif" font-size="11" lengthAdjust="spacing" textLength="77" x="38" y="220.8198">DOI_Type DOI</text><line style="stroke:#A80036;stroke-width:1.5;" x1="33" x2="171" y1="227.4141" y2="227.4141"/><!--MD5=[406eabaf9672e74804bc505a9777bf8f]
class Textual Document--><rect codeLine="7" fill="#FEFECE" filter="url(#f1ui9yh5y9yufa)" height="48" id="Textual Document" style="stroke:#A80036;stroke-width:1.5;" width="145" x="32.5" y="41"/><ellipse cx="47.5" cy="57" fill="#ADD1B2" rx="11" ry="11" style="stroke:#A80036;stroke-width:1.0;"/><path d="M50.4688,62.6406 Q49.8906,62.9375 49.25,63.0781 Q48.6094,63.2344 47.9063,63.2344 Q45.4063,63.2344 44.0781,61.5938 Q42.7656,59.9375 42.7656,56.8125 Q42.7656,53.6875 44.0781,52.0313 Q45.4063,50.375 47.9063,50.375 Q48.6094,50.375 49.25,50.5313 Q49.9063,50.6875 50.4688,50.9844 L50.4688,53.7031 Q49.8438,53.125 49.25,52.8594 Q48.6563,52.5781 48.0313,52.5781 Q46.6875,52.5781 46,53.6563 Q45.3125,54.7188 45.3125,56.8125 Q45.3125,58.9063 46,59.9844 Q46.6875,61.0469 48.0313,61.0469 Q48.6563,61.0469 49.25,60.7813 Q49.8438,60.5 50.4688,59.9219 L50.4688,62.6406 Z " fill="#000000"/><text fill="#000000" font-family="sans-serif" font-size="12" lengthAdjust="spacing" textLength="113" x="61.5" y="61.1543">Textual Document</text><line style="stroke:#A80036;stroke-width:1.5;" x1="33.5" x2="176.5" y1="73" y2="73"/><line style="stroke:#A80036;stroke-width:1.5;" x1="33.5" x2="176.5" y1="81" y2="81"/><!--MD5=[b821bb113f9f55c728f1fbb8949cc3af]
class Contributorship--><rect codeLine="32" fill="#FEFECE" filter="url(#f1ui9yh5y9yufa)" height="73.6094" id="Contributorship" style="stroke:#A80036;stroke-width:1.5;" width="129" x="523.5" y="155"/><ellipse cx="538.5" cy="171" fill="#ADD1B2" rx="11" ry="11" style="stroke:#A80036;stroke-width:1.0;"/><path d="M541.4688,176.6406 Q540.8906,176.9375 540.25,177.0781 Q539.6094,177.2344 538.9063,177.2344 Q536.4063,177.2344 535.0781,175.5938 Q533.7656,173.9375 533.7656,170.8125 Q533.7656,167.6875 535.0781,166.0313 Q536.4063,164.375 538.9063,164.375 Q539.6094,164.375 540.25,164.5313 Q540.9063,164.6875 541.4688,164.9844 L541.4688,167.7031 Q540.8438,167.125 540.25,166.8594 Q539.6563,166.5781 539.0313,166.5781 Q537.6875,166.5781 537,167.6563 Q536.3125,168.7188 536.3125,170.8125 Q536.3125,172.9063 537,173.9844 Q537.6875,175.0469 539.0313,175.0469 Q539.6563,175.0469 540.25,174.7813 Q540.8438,174.5 541.4688,173.9219 L541.4688,176.6406 Z " fill="#000000"/><text fill="#000000" font-family="sans-serif" font-size="12" lengthAdjust="spacing" textLength="97" x="552.5" y="175.1543">Contributorship</text><line style="stroke:#A80036;stroke-width:1.5;" x1="524.5" x2="651.5" y1="187" y2="187"/><text fill="#000000" font-family="sans-serif" font-size="11" lengthAdjust="spacing" textLength="108" x="529.5" y="201.2104">List&lt;URI&gt; contacts</text><text fill="#000000" font-family="sans-serif" font-size="11" lengthAdjust="spacing" textLength="111" x="529.5" y="214.0151">String displayName</text><line style="stroke:#A80036;stroke-width:1.5;" x1="524.5" x2="651.5" y1="220.6094" y2="220.6094"/><!--MD5=[f8f29aeb30962b8f0c17f3bed64bd579]
class Contribution Statement--><rect codeLine="36" fill="#FEFECE" filter="url(#f1ui9yh5y9yufa)" height="48" id="Contribution Statement" style="stroke:#A80036;stroke-width:1.5;" width="179" x="473.5" y="41"/><ellipse cx="488.5" cy="57" fill="#ADD1B2" rx="11" ry="11" style="stroke:#A80036;stroke-width:1.0;"/><path d="M491.4688,62.6406 Q490.8906,62.9375 490.25,63.0781 Q489.6094,63.2344 488.9063,63.2344 Q486.4063,63.2344 485.0781,61.5938 Q483.7656,59.9375 483.7656,56.8125 Q483.7656,53.6875 485.0781,52.0313 Q486.4063,50.375 488.9063,50.375 Q489.6094,50.375 490.25,50.5313 Q490.9063,50.6875 491.4688,50.9844 L491.4688,53.7031 Q490.8438,53.125 490.25,52.8594 Q489.6563,52.5781 489.0313,52.5781 Q487.6875,52.5781 487,53.6563 Q486.3125,54.7188 486.3125,56.8125 Q486.3125,58.9063 487,59.9844 Q487.6875,61.0469 489.0313,61.0469 Q489.6563,61.0469 490.25,60.7813 Q490.8438,60.5 491.4688,59.9219 L491.4688,62.6406 Z " fill="#000000"/><text fill="#000000" font-family="sans-serif" font-size="12" lengthAdjust="spacing" textLength="147" x="502.5" y="61.1543">Contribution Statement</text><line style="stroke:#A80036;stroke-width:1.5;" x1="474.5" x2="651.5" y1="73" y2="73"/><line style="stroke:#A80036;stroke-width:1.5;" x1="474.5" x2="651.5" y1="81" y2="81"/><!--MD5=[3f6954d26e8fa8feef64f8ba628c4304]
class Free Text Contribution--><rect codeLine="38" fill="#FEFECE" filter="url(#f1ui9yh5y9yufa)" height="60.8047" id="Free Text Contribution" style="stroke:#A80036;stroke-width:1.5;" width="177" x="311.5" y="161.5"/><ellipse cx="329.2" cy="177.5" fill="#ADD1B2" rx="11" ry="11" style="stroke:#A80036;stroke-width:1.0;"/><path d="M332.1688,183.1406 Q331.5906,183.4375 330.95,183.5781 Q330.3094,183.7344 329.6063,183.7344 Q327.1063,183.7344 325.7781,182.0938 Q324.4656,180.4375 324.4656,177.3125 Q324.4656,174.1875 325.7781,172.5313 Q327.1063,170.875 329.6063,170.875 Q330.3094,170.875 330.95,171.0313 Q331.6063,171.1875 332.1688,171.4844 L332.1688,174.2031 Q331.5438,173.625 330.95,173.3594 Q330.3563,173.0781 329.7313,173.0781 Q328.3875,173.0781 327.7,174.1563 Q327.0125,175.2188 327.0125,177.3125 Q327.0125,179.4063 327.7,180.4844 Q328.3875,181.5469 329.7313,181.5469 Q330.3563,181.5469 330.95,181.2813 Q331.5438,181 332.1688,180.4219 L332.1688,183.1406 Z " fill="#000000"/><text fill="#000000" font-family="sans-serif" font-size="12" lengthAdjust="spacing" textLength="139" x="343.8" y="181.6543">Free Text Contribution</text><line style="stroke:#A80036;stroke-width:1.5;" x1="312.5" x2="487.5" y1="193.5" y2="193.5"/><text fill="#000000" font-family="sans-serif" font-size="11" lengthAdjust="spacing" textLength="165" x="317.5" y="207.7104">Multilingual_String statement</text><line style="stroke:#A80036;stroke-width:1.5;" x1="312.5" x2="487.5" y1="214.3047" y2="214.3047"/><!--MD5=[9d44916250b776386006c440668bcfbb]
class Agent--><rect fill="#FEFECE" filter="url(#f1ui9yh5y9yufa)" height="48" id="Agent" style="stroke:#A80036;stroke-width:1.5;" width="69" x="207.5" y="168"/><ellipse cx="222.5" cy="184" fill="#ADD1B2" rx="11" ry="11" style="stroke:#A80036;stroke-width:1.0;"/><path d="M225.4688,189.6406 Q224.8906,189.9375 224.25,190.0781 Q223.6094,190.2344 222.9063,190.2344 Q220.4063,190.2344 219.0781,188.5938 Q217.7656,186.9375 217.7656,183.8125 Q217.7656,180.6875 219.0781,179.0313 Q220.4063,177.375 222.9063,177.375 Q223.6094,177.375 224.25,177.5313 Q224.9063,177.6875 225.4688,177.9844 L225.4688,180.7031 Q224.8438,180.125 224.25,179.8594 Q223.6563,179.5781 223.0313,179.5781 Q221.6875,179.5781 221,180.6563 Q220.3125,181.7188 220.3125,183.8125 Q220.3125,185.9063 221,186.9844 Q221.6875,188.0469 223.0313,188.0469 Q223.6563,188.0469 224.25,187.7813 Q224.8438,187.5 225.4688,186.9219 L225.4688,189.6406 Z " fill="#000000"/><text fill="#000000" font-family="sans-serif" font-size="12" lengthAdjust="spacing" textLength="37" x="236.5" y="188.1543">Agent</text><line style="stroke:#A80036;stroke-width:1.5;" x1="208.5" x2="275.5" y1="200" y2="200"/><line style="stroke:#A80036;stroke-width:1.5;" x1="208.5" x2="275.5" y1="208" y2="208"/><!--MD5=[9b52481d50260ad8943b648ad422cf7e]
class CRediT Contribution Statement--><rect codeLine="47" fill="#FEFECE" filter="url(#f1ui9yh5y9yufa)" height="48" id="CRediT Contribution Statement" style="stroke:#A80036;stroke-width:1.5;" width="225" x="687.5" y="168"/><ellipse cx="702.5" cy="184" fill="#ADD1B2" rx="11" ry="11" style="stroke:#A80036;stroke-width:1.0;"/><path d="M705.4688,189.6406 Q704.8906,189.9375 704.25,190.0781 Q703.6094,190.2344 702.9063,190.2344 Q700.4063,190.2344 699.0781,188.5938 Q697.7656,186.9375 697.7656,183.8125 Q697.7656,180.6875 699.0781,179.0313 Q700.4063,177.375 702.9063,177.375 Q703.6094,177.375 704.25,177.5313 Q704.9063,177.6875 705.4688,177.9844 L705.4688,180.7031 Q704.8438,180.125 704.25,179.8594 Q703.6563,179.5781 703.0313,179.5781 Q701.6875,179.5781 701,180.6563 Q700.3125,181.7188 700.3125,183.8125 Q700.3125,185.9063 701,186.9844 Q701.6875,188.0469 703.0313,188.0469 Q703.6563,188.0469 704.25,187.7813 Q704.8438,187.5 705.4688,186.9219 L705.4688,189.6406 Z " fill="#000000"/><text fill="#000000" font-family="sans-serif" font-size="12" lengthAdjust="spacing" textLength="193" x="716.5" y="188.1543">CRediT Contribution Statement</text><line style="stroke:#A80036;stroke-width:1.5;" x1="688.5" x2="911.5" y1="200" y2="200"/><line style="stroke:#A80036;stroke-width:1.5;" x1="688.5" x2="911.5" y1="208" y2="208"/><!--MD5=[28e58af2686987234c8603397d0bdfdc]
class CRediT Degree of Contribution--><rect codeLine="49" fill="#FEFECE" filter="url(#f1ui9yh5y9yufa)" height="86.4141" id="CRediT Degree of Contribution" style="stroke:#A80036;stroke-width:1.5;" width="221" x="578.5" y="365.5"/><ellipse cx="593.5" cy="381.5" fill="#EB937F" rx="11" ry="11" style="stroke:#A80036;stroke-width:1.0;"/><path d="M597.6094,387.5 L589.8906,387.5 L589.8906,375.1094 L597.6094,375.1094 L597.6094,377.2656 L592.3438,377.2656 L592.3438,379.9375 L597.1094,379.9375 L597.1094,382.0938 L592.3438,382.0938 L592.3438,385.3438 L597.6094,385.3438 L597.6094,387.5 Z " fill="#000000"/><text fill="#000000" font-family="sans-serif" font-size="12" lengthAdjust="spacing" textLength="189" x="607.5" y="385.6543">CRediT Degree of Contribution</text><line style="stroke:#A80036;stroke-width:1.5;" x1="579.5" x2="798.5" y1="397.5" y2="397.5"/><text fill="#000000" font-family="sans-serif" font-size="11" lengthAdjust="spacing" textLength="27" x="584.5" y="411.7104">Lead</text><text fill="#000000" font-family="sans-serif" font-size="11" lengthAdjust="spacing" textLength="31" x="584.5" y="424.5151">Equal</text><text fill="#000000" font-family="sans-serif" font-size="11" lengthAdjust="spacing" textLength="62" x="584.5" y="437.3198">Supporting</text><line style="stroke:#A80036;stroke-width:1.5;" x1="579.5" x2="798.5" y1="443.9141" y2="443.9141"/><!--MD5=[c311ebaeb70986101ddf4181c43abf49]
class CRediT Role Type--><rect codeLine="54" fill="#FEFECE" filter="url(#f1ui9yh5y9yufa)" height="227.2656" id="CRediT Role Type" style="stroke:#A80036;stroke-width:1.5;" width="155" x="834.5" y="295"/><ellipse cx="857.15" cy="311" fill="#EB937F" rx="11" ry="11" style="stroke:#A80036;stroke-width:1.0;"/><path d="M861.2594,317 L853.5406,317 L853.5406,304.6094 L861.2594,304.6094 L861.2594,306.7656 L855.9938,306.7656 L855.9938,309.4375 L860.7594,309.4375 L860.7594,311.5938 L855.9938,311.5938 L855.9938,314.8438 L861.2594,314.8438 L861.2594,317 Z " fill="#000000"/><text fill="#000000" font-family="sans-serif" font-size="12" lengthAdjust="spacing" textLength="106" x="872.85" y="315.1543">CRediT Role Type</text><line style="stroke:#A80036;stroke-width:1.5;" x1="835.5" x2="988.5" y1="327" y2="327"/><text fill="#000000" font-family="sans-serif" font-size="11" lengthAdjust="spacing" textLength="99" x="840.5" y="341.2104">Conceptualization</text><text fill="#000000" font-family="sans-serif" font-size="11" lengthAdjust="spacing" textLength="76" x="840.5" y="354.0151">Data curation</text><text fill="#000000" font-family="sans-serif" font-size="11" lengthAdjust="spacing" textLength="90" x="840.5" y="366.8198">Formal analysis</text><text fill="#000000" font-family="sans-serif" font-size="11" lengthAdjust="spacing" textLength="109" x="840.5" y="379.6245">Funding acquisition</text><text fill="#000000" font-family="sans-serif" font-size="11" lengthAdjust="spacing" textLength="72" x="840.5" y="392.4292">Investigation</text><text fill="#000000" font-family="sans-serif" font-size="11" lengthAdjust="spacing" textLength="71" x="840.5" y="405.2339">Methodology</text><text fill="#000000" font-family="sans-serif" font-size="11" lengthAdjust="spacing" textLength="125" x="840.5" y="418.0386">Project administration</text><text fill="#000000" font-family="sans-serif" font-size="11" lengthAdjust="spacing" textLength="60" x="840.5" y="430.8433">Resources</text><text fill="#000000" font-family="sans-serif" font-size="11" lengthAdjust="spacing" textLength="51" x="840.5" y="443.6479">Software</text><text fill="#000000" font-family="sans-serif" font-size="11" lengthAdjust="spacing" textLength="67" x="840.5" y="456.4526">Supervision</text><text fill="#000000" font-family="sans-serif" font-size="11" lengthAdjust="spacing" textLength="55" x="840.5" y="469.2573">Validation</text><text fill="#000000" font-family="sans-serif" font-size="11" lengthAdjust="spacing" textLength="70" x="840.5" y="482.062">Visualization</text><text fill="#000000" font-family="sans-serif" font-size="11" lengthAdjust="spacing" textLength="123" x="840.5" y="494.8667">Writing - original draft</text><text fill="#000000" font-family="sans-serif" font-size="11" lengthAdjust="spacing" textLength="143" x="840.5" y="507.6714">Writing - review &amp; editing</text><line style="stroke:#A80036;stroke-width:1.5;" x1="835.5" x2="988.5" y1="514.2656" y2="514.2656"/><!--MD5=[0cd4e18d651655357be10210466ee4fc]
link Textual Document to Document--><path codeLine="79" d="M104.44,89.22 C104.17,100.46 103.83,114.56 103.5,128.64 " fill="none" id="Textual Document-to-Document" style="stroke:#A80036;stroke-width:1.0;"/><polygon fill="none" points="110.49,129.11,103.01,148.94,96.49,128.77,110.49,129.11" style="stroke:#A80036;stroke-width:1.0;"/><!--MD5=[1e703325bca9787769503a051e7183a5]
reverse link Contribution Statement to Free Text Contribution--><path codeLine="61" d="M516.67,101.53 C492.05,120.41 462.13,143.35 438.76,161.28 " fill="none" id="Contribution Statement-backto-Free Text Contribution" style="stroke:#A80036;stroke-width:1.0;"/><polygon fill="none" points="512.59,95.83,532.72,89.22,521.11,106.94,512.59,95.83" style="stroke:#A80036;stroke-width:1.0;"/><!--MD5=[1f014480a3afa8c0325c3be3fbf7ad6f]
link Contributorship to Document--><path codeLine="62" d="M549.21,154.62 C532.03,140.58 510.69,126.27 488.5,119 C369.81,80.13 326.71,81.78 207.5,119 C191.65,123.95 176.08,132.21 161.97,141.43 " fill="none" id="Contributorship-to-Document" style="stroke:#A80036;stroke-width:1.0;"/><polygon fill="#A80036" points="151,148.99,158.2102,148.8735,160.8758,142.1732,153.6656,142.2897,151,148.99" style="stroke:#A80036;stroke-width:1.0;"/><!--MD5=[504de05de5dc33320621ff1be2e6e6ff]
reverse link Agent to Contributorship--><path codeLine="65" d="M265.17,157.2 C277.08,142.48 292.99,126.93 311.5,119 C383.8,88.01 413.74,94.52 488.5,119 C510.69,126.27 532.03,140.58 549.21,154.62 " fill="none" id="Agent-backto-Contributorship" style="stroke:#A80036;stroke-width:1.0;"/><polygon fill="#A80036" points="257.23,167.65,264.0451,165.2934,264.491,158.0961,257.6759,160.4527,257.23,167.65" style="stroke:#A80036;stroke-width:1.0;"/><!--MD5=[87dce73954b4196bb1c032bbee886bf4]
link Contribution Statement to Contributorship--><path codeLine="69" d="M567.64,89.22 C570.6,103.99 574.54,123.68 578.16,141.81 " fill="none" id="Contribution Statement-to-Contributorship" style="stroke:#A80036;stroke-width:1.0;"/><polygon fill="#FFFFFF" points="580.73,154.64,583.4713,147.9703,578.369,142.8746,575.6277,149.5443,580.73,154.64" style="stroke:#A80036;stroke-width:1.0;"/><text fill="#000000" font-family="sans-serif" font-size="13" lengthAdjust="spacing" textLength="152" x="398.246" y="109.0348">contributionStatements</text><!--MD5=[ada0d5f2ef99a95b12b3ee57e9956fc4]
reverse link Contribution Statement to CRediT Contribution Statement--><path codeLine="94" d="M624.46,98.42 C665.72,120.18 719.1,148.33 756.11,167.85 " fill="none" id="Contribution Statement-backto-CRediT Contribution Statement" style="stroke:#A80036;stroke-width:1.0;"/><polygon fill="none" points="621.17,104.59,606.75,89.07,627.7,92.21,621.17,104.59" style="stroke:#A80036;stroke-width:1.0;"/><!--MD5=[39d47dfc537c04b947bba34e041f2c3b]
reverse link CRediT Contribution Statement to CRediT Role Type--><path codeLine="108" d="M818.27,228 C827.96,246.54 840.45,270.47 853.14,294.78 " fill="none" id="CRediT Contribution Statement-backto-CRediT Role Type" style="stroke:#A80036;stroke-width:1.0;"/><polygon fill="#A80036" points="812.2,216.36,811.4288,223.5297,817.7503,226.9993,818.5216,219.8295,812.2,216.36" style="stroke:#A80036;stroke-width:1.0;"/><text fill="#000000" font-family="sans-serif" font-size="13" lengthAdjust="spacing" textLength="54" x="793.6396" y="284.077">roleType</text><!--MD5=[ed94ca42c9bf6f983cb0cda92653ca5a]
reverse link CRediT Contribution Statement to CRediT Degree of Contribution--><path codeLine="109" d="M781.78,228.21 C762.33,265.8 731.51,325.35 710.79,365.39 " fill="none" id="CRediT Contribution Statement-backto-CRediT Degree of Contribution" style="stroke:#A80036;stroke-width:1.0;"/><polygon fill="#A80036" points="787.91,216.36,781.6021,219.8544,782.4016,227.021,788.7095,223.5266,787.91,216.36" style="stroke:#A80036;stroke-width:1.0;"/><text fill="#000000" font-family="sans-serif" font-size="13" lengthAdjust="spacing" textLength="137" x="566.3456" y="354.3685">degreeOfContribution</text><!--MD5=[1b79180b4140e516a58dc46c24970b90]
@startuml
package "CERIF core" #EFEFEF{
    !includesub ./core.puml!Document
    !includesub ./core.puml!Contributorship
}

    !includesub ./module.puml!CRediT
@enduml

@startuml
package "CERIF core" #EFEFEF{
    class "Document"{
        Multilingual_String title
        Date publicationDate
        DOI_Type DOI
    }
    class "Textual Document"{
    }
    "Document" <|-u- "Textual Document"
    class "Contributorship"{
        List<URI> contacts
        String displayName
    }
    class "Contribution Statement"{
    }
    class "Free Text Contribution"{
        Multilingual_String statement
    }
    "Contribution Statement" <|- - "Free Text Contribution"
    "Contributorship" -r-* "Document"
    "Contributorship" -l-* "Agent"
    "Contributorship" o-u- "contributionStatements" "Contribution Statement"
}

    class "CRediT Contribution Statement"{
    }
    enum "CRediT Degree of Contribution"{
        Lead
        Equal
        Supporting
    }
    enum "CRediT Role Type"{
        Conceptualization
        Data curation
        Formal analysis
        Funding acquisition
        Investigation
        Methodology
        Project administration
        Resources
        Software
        Supervision
        Validation
        Visualization
        Writing - original draft
        Writing - review & editing
    }
    "Contribution Statement" <|- - "CRediT Contribution Statement"
    "CRediT Contribution Statement" *- - "roleType" "CRediT Role Type"
    "CRediT Contribution Statement" *- - "degreeOfContribution" "CRediT Degree of Contribution"
@enduml

PlantUML version 1.2021.8(Sat Jun 26 08:20:59 UTC 2021)
(GPL source distribution)
Java Runtime: OpenJDK Runtime Environment
JVM: OpenJDK 64-Bit Server VM
Default Encoding: UTF-8
Language: en
Country: null
--></g></svg>