<svg xmlns="http://www.w3.org/2000/svg" xmlns:xlink="http://www.w3.org/1999/xlink" contentStyleType="text/css" data-diagram-type="CLASS" height="690px" preserveAspectRatio="none" style="width:1488px;height:690px;background:#FFFFFF;" version="1.1" viewBox="0 0 1488 690" width="1488px" zoomAndPan="magnify"><defs/><g><!--class Resource--><g class="entity" data-entity="Resource" data-source-line="255" data-uid="ent0002" id="entity_Resource"><rect fill="#FFFFFF" height="32" rx="2.5" ry="2.5" style="stroke:#181818;stroke-width:0.5;" width="97.1396" x="7" y="153.1082"/><ellipse cx="22" cy="169.1082" fill="#ADD1B2" rx="11" ry="11" style="stroke:#181818;stroke-width:1;"/><path d="M24.9688,174.7489 Q24.3906,175.0457 23.75,175.1864 Q23.1094,175.3426 22.4063,175.3426 Q19.9063,175.3426 18.5781,173.702 Q17.2656,172.0457 17.2656,168.9207 Q17.2656,165.7957 18.5781,164.1395 Q19.9063,162.4832 22.4063,162.4832 Q23.1094,162.4832 23.75,162.6395 Q24.4063,162.7957 24.9688,163.0926 L24.9688,165.8114 Q24.3438,165.2332 23.75,164.9676 Q23.1563,164.6864 22.5313,164.6864 Q21.1875,164.6864 20.5,165.7645 Q19.8125,166.827 19.8125,168.9207 Q19.8125,171.0145 20.5,172.0926 Q21.1875,173.1551 22.5313,173.1551 Q23.1563,173.1551 23.75,172.8895 Q24.3438,172.6082 24.9688,172.0301 L24.9688,174.7489 Z " fill="#000000"/><text fill="#000000" font-family="sans-serif" font-size="14" lengthAdjust="spacing" textLength="65.1396" x="36" y="173.9549">Resource</text></g><!--class Document--><g class="entity" data-entity="Document" data-source-line="300" data-uid="ent0003" id="entity_Document"><rect fill="#FFFFFF" height="56.2969" rx="2.5" ry="2.5" style="stroke:#181818;stroke-width:0.5;" width="182.8711" x="835" y="8.1082"/><ellipse cx="885.9209" cy="24.1082" fill="#ADD1B2" rx="11" ry="11" style="stroke:#181818;stroke-width:1;"/><path d="M888.8896,29.7489 Q888.3115,30.0457 887.6709,30.1864 Q887.0303,30.3426 886.3271,30.3426 Q883.8271,30.3426 882.499,28.702 Q881.1865,27.0457 881.1865,23.9207 Q881.1865,20.7957 882.499,19.1395 Q883.8271,17.4832 886.3271,17.4832 Q887.0303,17.4832 887.6709,17.6395 Q888.3271,17.7957 888.8896,18.0926 L888.8896,20.8114 Q888.2646,20.2332 887.6709,19.9676 Q887.0771,19.6864 886.4521,19.6864 Q885.1084,19.6864 884.4209,20.7645 Q883.7334,21.827 883.7334,23.9207 Q883.7334,26.0145 884.4209,27.0926 Q885.1084,28.1551 886.4521,28.1551 Q887.0771,28.1551 887.6709,27.8895 Q888.2646,27.6082 888.8896,27.0301 L888.8896,29.7489 Z " fill="#000000"/><text fill="#000000" font-family="sans-serif" font-size="14" lengthAdjust="spacing" textLength="72.5293" x="906.4209" y="28.9549">Document</text><line style="stroke:#181818;stroke-width:0.5;" x1="836" x2="1016.8711" y1="40.1082" y2="40.1082"/><text fill="#000000" font-family="sans-serif" font-size="14" lengthAdjust="spacing" textLength="170.8711" x="841" y="57.1033">title : Multilingual_String</text></g><!--class Contents_Location--><g class="entity" data-entity="Contents_Location" data-source-line="305" data-uid="ent0005" id="entity_Contents_Location"><rect fill="#FFFFFF" height="64.5625" rx="2.5" ry="2.5" style="stroke:#181818;stroke-width:0.5;" width="161.4316" x="528" y="375.6082"/><ellipse cx="543" cy="395.741" fill="#ADD0B2" rx="11" ry="11" style="stroke:#181818;stroke-width:1;"/><path d="M542.5938,391.5535 L542.5938,399.5379 L543.25,399.5379 Q544.6875,399.5379 545.2969,398.6317 Q545.9219,397.7098 545.9219,395.5379 Q545.9219,393.366 545.2969,392.4598 Q544.6875,391.5535 543.25,391.5535 L542.5938,391.5535 Z M540.1406,389.3504 L542.7656,389.3504 Q545.7969,389.3504 547.125,390.8035 Q548.4688,392.241 548.4688,395.5379 Q548.4688,398.8348 547.125,400.2879 Q545.7969,401.741 542.7656,401.741 L540.1406,401.741 L540.1406,389.3504 Z " fill="#000000"/><text fill="#000000" font-family="sans-serif" font-size="12" font-style="italic" lengthAdjust="spacing" textLength="72.8965" x="585.2676" y="391.7469">&#171;DataType&#187;</text><text fill="#000000" font-family="sans-serif" font-size="14" lengthAdjust="spacing" textLength="129.4316" x="557" y="407.5721">Contents_Location</text><line style="stroke:#181818;stroke-width:0.5;" x1="529" x2="688.4316" y1="415.8739" y2="415.8739"/><text fill="#000000" font-family="sans-serif" font-size="14" lengthAdjust="spacing" textLength="110.0381" x="534" y="432.869">number : String</text></g><ellipse cx="802.5" cy="169.1082" fill="#181818" rx="2" ry="2" style="stroke:#181818;stroke-width:1;"/><!--class Page_Based_Contents_Location--><g class="entity" data-entity="Page_Based_Contents_Location" data-source-line="316" data-uid="ent0012" id="entity_Page_Based_Contents_Location"><rect fill="#FFFFFF" height="80.8594" rx="2.5" ry="2.5" style="stroke:#181818;stroke-width:0.5;" width="252.9307" x="194" y="603.1082"/><ellipse cx="209" cy="623.241" fill="#ADD0B2" rx="11" ry="11" style="stroke:#181818;stroke-width:1;"/><path d="M208.5938,619.0535 L208.5938,627.0379 L209.25,627.0379 Q210.6875,627.0379 211.2969,626.1317 Q211.9219,625.2098 211.9219,623.0379 Q211.9219,620.866 211.2969,619.9598 Q210.6875,619.0535 209.25,619.0535 L208.5938,619.0535 Z M206.1406,616.8504 L208.7656,616.8504 Q211.7969,616.8504 213.125,618.3035 Q214.4688,619.741 214.4688,623.0379 Q214.4688,626.3348 213.125,627.7879 Q211.7969,629.241 208.7656,629.241 L206.1406,629.241 L206.1406,616.8504 Z " fill="#000000"/><text fill="#000000" font-family="sans-serif" font-size="12" font-style="italic" lengthAdjust="spacing" textLength="72.8965" x="297.0171" y="619.2469">&#171;DataType&#187;</text><text fill="#000000" font-family="sans-serif" font-size="14" lengthAdjust="spacing" textLength="220.9307" x="223" y="635.0721">Page_Based_Contents_Location</text><line style="stroke:#181818;stroke-width:0.5;" x1="195" x2="445.9307" y1="643.3739" y2="643.3739"/><text fill="#000000" font-family="sans-serif" font-size="14" lengthAdjust="spacing" textLength="122.5273" x="200" y="660.369">startPage : String</text><text fill="#000000" font-family="sans-serif" font-size="14" lengthAdjust="spacing" textLength="116.293" x="200" y="676.6658">endPage : String</text></g><!--class Time_Based_Contents_Location--><g class="entity" data-entity="Time_Based_Contents_Location" data-source-line="323" data-uid="ent0014" id="entity_Time_Based_Contents_Location"><rect fill="#FFFFFF" height="80.8594" rx="2.5" ry="2.5" style="stroke:#181818;stroke-width:0.5;" width="253.1016" x="482" y="603.1082"/><ellipse cx="497" cy="623.241" fill="#ADD0B2" rx="11" ry="11" style="stroke:#181818;stroke-width:1;"/><path d="M496.5938,619.0535 L496.5938,627.0379 L497.25,627.0379 Q498.6875,627.0379 499.2969,626.1317 Q499.9219,625.2098 499.9219,623.0379 Q499.9219,620.866 499.2969,619.9598 Q498.6875,619.0535 497.25,619.0535 L496.5938,619.0535 Z M494.1406,616.8504 L496.7656,616.8504 Q499.7969,616.8504 501.125,618.3035 Q502.4688,619.741 502.4688,623.0379 Q502.4688,626.3348 501.125,627.7879 Q499.7969,629.241 496.7656,629.241 L494.1406,629.241 L494.1406,616.8504 Z " fill="#000000"/><text fill="#000000" font-family="sans-serif" font-size="12" font-style="italic" lengthAdjust="spacing" textLength="72.8965" x="585.1025" y="619.2469">&#171;DataType&#187;</text><text fill="#000000" font-family="sans-serif" font-size="14" lengthAdjust="spacing" textLength="221.1016" x="511" y="635.0721">Time_Based_Contents_Location</text><line style="stroke:#181818;stroke-width:0.5;" x1="483" x2="734.1016" y1="643.3739" y2="643.3739"/><text fill="#000000" font-family="sans-serif" font-size="14" lengthAdjust="spacing" textLength="115.6094" x="488" y="660.369">startTime : Time</text><text fill="#000000" font-family="sans-serif" font-size="14" lengthAdjust="spacing" textLength="109.375" x="488" y="676.6658">endTime : Time</text></g><!--class Activity--><g class="entity" data-entity="Activity" data-source-line="129" data-uid="ent0016" id="entity_Activity"><rect fill="#FFFFFF" height="56.2969" rx="2.5" ry="2.5" style="stroke:#181818;stroke-width:0.5;" width="187.0068" x="862" y="141.1082"/><ellipse cx="924.9521" cy="157.1082" fill="#ADD1B2" rx="11" ry="11" style="stroke:#181818;stroke-width:1;"/><path d="M927.9209,162.7489 Q927.3428,163.0457 926.7021,163.1864 Q926.0615,163.3426 925.3584,163.3426 Q922.8584,163.3426 921.5303,161.702 Q920.2178,160.0457 920.2178,156.9207 Q920.2178,153.7957 921.5303,152.1395 Q922.8584,150.4832 925.3584,150.4832 Q926.0615,150.4832 926.7021,150.6395 Q927.3584,150.7957 927.9209,151.0926 L927.9209,153.8114 Q927.2959,153.2332 926.7021,152.9676 Q926.1084,152.6864 925.4834,152.6864 Q924.1396,152.6864 923.4521,153.7645 Q922.7646,154.827 922.7646,156.9207 Q922.7646,159.0145 923.4521,160.0926 Q924.1396,161.1551 925.4834,161.1551 Q926.1084,161.1551 926.7021,160.8895 Q927.2959,160.6082 927.9209,160.0301 L927.9209,162.7489 Z " fill="#000000"/><text fill="#000000" font-family="sans-serif" font-size="14" lengthAdjust="spacing" textLength="52.6025" x="945.4521" y="161.9549">Activity</text><line style="stroke:#181818;stroke-width:0.5;" x1="863" x2="1048.0068" y1="173.1082" y2="173.1082"/><text fill="#000000" font-family="sans-serif" font-size="14" lengthAdjust="spacing" textLength="175.0068" x="868" y="190.1033">dateRange : Date_Range</text></g><!--class Agent--><g class="entity" data-entity="Agent" data-source-line="245" data-uid="ent0018" id="entity_Agent"><rect fill="#FFFFFF" height="88.8906" rx="2.5" ry="2.5" style="stroke:#181818;stroke-width:0.5;" width="275.9902" x="817.5" y="363.6082"/><ellipse cx="930.5254" cy="379.6082" fill="#ADD1B2" rx="11" ry="11" style="stroke:#181818;stroke-width:1;"/><path d="M933.4941,385.2489 Q932.916,385.5457 932.2754,385.6864 Q931.6348,385.8426 930.9316,385.8426 Q928.4316,385.8426 927.1035,384.202 Q925.791,382.5457 925.791,379.4207 Q925.791,376.2957 927.1035,374.6395 Q928.4316,372.9832 930.9316,372.9832 Q931.6348,372.9832 932.2754,373.1395 Q932.9316,373.2957 933.4941,373.5926 L933.4941,376.3114 Q932.8691,375.7332 932.2754,375.4676 Q931.6816,375.1864 931.0566,375.1864 Q929.7129,375.1864 929.0254,376.2645 Q928.3379,377.327 928.3379,379.4207 Q928.3379,381.5145 929.0254,382.5926 Q929.7129,383.6551 931.0566,383.6551 Q931.6816,383.6551 932.2754,383.3895 Q932.8691,383.1082 933.4941,382.5301 L933.4941,385.2489 Z " fill="#000000"/><text fill="#000000" font-family="sans-serif" font-size="14" lengthAdjust="spacing" textLength="41.4395" x="951.0254" y="384.4549">Agent</text><line style="stroke:#181818;stroke-width:0.5;" x1="818.5" x2="1092.4902" y1="395.6082" y2="395.6082"/><text fill="#000000" font-family="sans-serif" font-size="14" lengthAdjust="spacing" textLength="258.3916" x="823.5" y="412.6033">keywords : List&lt;Multilingual_String&gt;</text><text fill="#000000" font-family="sans-serif" font-size="14" lengthAdjust="spacing" textLength="151.71" x="823.5" y="428.9002">lifetime : Date_Range</text><text fill="#000000" font-family="sans-serif" font-size="14" lengthAdjust="spacing" textLength="263.9902" x="823.5" y="445.1971">contacts : List&lt;Contact_Information&gt;</text></g><!--class Date_Range--><g class="entity" data-entity="Date_Range" data-source-line="844" data-uid="ent0020" id="entity_Date_Range"><rect fill="#F1F1F1" height="32" rx="2.5" ry="2.5" style="stroke:#181818;stroke-width:0.5;" width="117.1416" x="770" y="627.6082"/><ellipse cx="785" cy="643.6082" fill="#ADD1B2" rx="11" ry="11" style="stroke:#181818;stroke-width:1;"/><path d="M787.9688,649.2489 Q787.3906,649.5457 786.75,649.6864 Q786.1094,649.8426 785.4063,649.8426 Q782.9063,649.8426 781.5781,648.202 Q780.2656,646.5457 780.2656,643.4207 Q780.2656,640.2957 781.5781,638.6395 Q782.9063,636.9832 785.4063,636.9832 Q786.1094,636.9832 786.75,637.1395 Q787.4063,637.2957 787.9688,637.5926 L787.9688,640.3114 Q787.3438,639.7332 786.75,639.4676 Q786.1563,639.1864 785.5313,639.1864 Q784.1875,639.1864 783.5,640.2645 Q782.8125,641.327 782.8125,643.4207 Q782.8125,645.5145 783.5,646.5926 Q784.1875,647.6551 785.5313,647.6551 Q786.1563,647.6551 786.75,647.3895 Q787.3438,647.1082 787.9688,646.5301 L787.9688,649.2489 Z " fill="#000000"/><text fill="#000000" font-family="sans-serif" font-size="14" lengthAdjust="spacing" textLength="85.1416" x="799" y="648.4549">Date_Range</text></g><!--class Contribution--><g class="entity" data-entity="Contribution" data-source-line="174" data-uid="ent0022" id="entity_Contribution"><rect fill="#FFFFFF" height="56.2969" rx="2.5" ry="2.5" style="stroke:#181818;stroke-width:0.5;" width="243.9775" x="1128.5" y="380.1082"/><ellipse cx="1202.7759" cy="396.1082" fill="#ADD1B2" rx="11" ry="11" style="stroke:#181818;stroke-width:1;"/><path d="M1205.7446,401.7489 Q1205.1665,402.0457 1204.5259,402.1864 Q1203.8853,402.3426 1203.1821,402.3426 Q1200.6821,402.3426 1199.354,400.702 Q1198.0415,399.0457 1198.0415,395.9207 Q1198.0415,392.7957 1199.354,391.1395 Q1200.6821,389.4832 1203.1821,389.4832 Q1203.8853,389.4832 1204.5259,389.6395 Q1205.1821,389.7957 1205.7446,390.0926 L1205.7446,392.8114 Q1205.1196,392.2332 1204.5259,391.9676 Q1203.9321,391.6864 1203.3071,391.6864 Q1201.9634,391.6864 1201.2759,392.7645 Q1200.5884,393.827 1200.5884,395.9207 Q1200.5884,398.0145 1201.2759,399.0926 Q1201.9634,400.1551 1203.3071,400.1551 Q1203.9321,400.1551 1204.5259,399.8895 Q1205.1196,399.6082 1205.7446,399.0301 L1205.7446,401.7489 Z " fill="#000000"/><text fill="#000000" font-family="sans-serif" font-size="14" lengthAdjust="spacing" textLength="86.9258" x="1223.2759" y="400.9549">Contribution</text><line style="stroke:#181818;stroke-width:0.5;" x1="1129.5" x2="1371.4775" y1="412.1082" y2="412.1082"/><text fill="#000000" font-family="sans-serif" font-size="14" lengthAdjust="spacing" textLength="231.9775" x="1134.5" y="429.1033">contributionSortingKey : Decimal</text></g><!--class Contribution_Statement--><g class="entity" data-entity="Contribution_Statement" data-source-line="672" data-uid="ent0024" id="entity_Contribution_Statement"><rect fill="#F1F1F1" height="32" rx="2.5" ry="2.5" style="stroke:#181818;stroke-width:0.5;" width="199.5967" x="61.5" y="20.1082"/><ellipse cx="76.5" cy="36.1082" fill="#ADD1B2" rx="11" ry="11" style="stroke:#181818;stroke-width:1;"/><path d="M79.4688,41.7489 Q78.8906,42.0457 78.25,42.1864 Q77.6094,42.3426 76.9063,42.3426 Q74.4063,42.3426 73.0781,40.702 Q71.7656,39.0457 71.7656,35.9207 Q71.7656,32.7957 73.0781,31.1395 Q74.4063,29.4832 76.9063,29.4832 Q77.6094,29.4832 78.25,29.6395 Q78.9063,29.7957 79.4688,30.0926 L79.4688,32.8114 Q78.8438,32.2332 78.25,31.9676 Q77.6563,31.6864 77.0313,31.6864 Q75.6875,31.6864 75,32.7645 Q74.3125,33.827 74.3125,35.9207 Q74.3125,38.0145 75,39.0926 Q75.6875,40.1551 77.0313,40.1551 Q77.6563,40.1551 78.25,39.8895 Q78.8438,39.6082 79.4688,39.0301 L79.4688,41.7489 Z " fill="#000000"/><text fill="#000000" font-family="sans-serif" font-size="14" lengthAdjust="spacing" textLength="167.5967" x="90.5" y="40.9549">Contribution_Statement</text></g><!--class Contribution_to_Document--><g class="entity" data-entity="Contribution_to_Document" data-source-line="193" data-uid="ent0026" id="entity_Contribution_to_Document"><rect fill="#FFFFFF" height="32" rx="2.5" ry="2.5" style="stroke:#181818;stroke-width:0.5;" width="219.5098" x="1261.5" y="627.6082"/><ellipse cx="1276.5" cy="643.6082" fill="#ADD1B2" rx="11" ry="11" style="stroke:#181818;stroke-width:1;"/><path d="M1279.4688,649.2489 Q1278.8906,649.5457 1278.25,649.6864 Q1277.6094,649.8426 1276.9063,649.8426 Q1274.4063,649.8426 1273.0781,648.202 Q1271.7656,646.5457 1271.7656,643.4207 Q1271.7656,640.2957 1273.0781,638.6395 Q1274.4063,636.9832 1276.9063,636.9832 Q1277.6094,636.9832 1278.25,637.1395 Q1278.9063,637.2957 1279.4688,637.5926 L1279.4688,640.3114 Q1278.8438,639.7332 1278.25,639.4676 Q1277.6563,639.1864 1277.0313,639.1864 Q1275.6875,639.1864 1275,640.2645 Q1274.3125,641.327 1274.3125,643.4207 Q1274.3125,645.5145 1275,646.5926 Q1275.6875,647.6551 1277.0313,647.6551 Q1277.6563,647.6551 1278.25,647.3895 Q1278.8438,647.1082 1279.4688,646.5301 L1279.4688,649.2489 Z " fill="#000000"/><text fill="#000000" font-family="sans-serif" font-size="14" lengthAdjust="spacing" textLength="187.5098" x="1290.5" y="648.4549">Contribution_to_Document</text></g><!--class Contact_Information--><g class="entity" data-entity="Contact_Information" data-source-line="16" data-uid="ent0030" id="entity_Contact_Information"><rect fill="#F1F1F1" height="32" rx="2.5" ry="2.5" style="stroke:#181818;stroke-width:0.5;" width="174.7549" x="922" y="627.6082"/><ellipse cx="937" cy="643.6082" fill="#ADD1B2" rx="11" ry="11" style="stroke:#181818;stroke-width:1;"/><path d="M939.9688,649.2489 Q939.3906,649.5457 938.75,649.6864 Q938.1094,649.8426 937.4063,649.8426 Q934.9063,649.8426 933.5781,648.202 Q932.2656,646.5457 932.2656,643.4207 Q932.2656,640.2957 933.5781,638.6395 Q934.9063,636.9832 937.4063,636.9832 Q938.1094,636.9832 938.75,637.1395 Q939.4063,637.2957 939.9688,637.5926 L939.9688,640.3114 Q939.3438,639.7332 938.75,639.4676 Q938.1563,639.1864 937.5313,639.1864 Q936.1875,639.1864 935.5,640.2645 Q934.8125,641.327 934.8125,643.4207 Q934.8125,645.5145 935.5,646.5926 Q936.1875,647.6551 937.5313,647.6551 Q938.1563,647.6551 938.75,647.3895 Q939.3438,647.1082 939.9688,646.5301 L939.9688,649.2489 Z " fill="#000000"/><text fill="#000000" font-family="sans-serif" font-size="14" lengthAdjust="spacing" textLength="142.7549" x="951" y="648.4549">Contact_Information</text></g><!--class CRediT_Contribution_Statement--><g class="entity" data-entity="CRediT_Contribution_Statement" data-source-line="182" data-uid="ent0032" id="entity_CRediT_Contribution_Statement"><rect fill="#DDEEDD" height="32" rx="2.5" ry="2.5" style="stroke:#181818;stroke-width:0.5;" width="256.041" x="139.5" y="153.1082"/><ellipse cx="154.5" cy="169.1082" fill="#ADD1B2" rx="11" ry="11" style="stroke:#181818;stroke-width:1;"/><path d="M157.4688,174.7489 Q156.8906,175.0457 156.25,175.1864 Q155.6094,175.3426 154.9063,175.3426 Q152.4063,175.3426 151.0781,173.702 Q149.7656,172.0457 149.7656,168.9207 Q149.7656,165.7957 151.0781,164.1395 Q152.4063,162.4832 154.9063,162.4832 Q155.6094,162.4832 156.25,162.6395 Q156.9063,162.7957 157.4688,163.0926 L157.4688,165.8114 Q156.8438,165.2332 156.25,164.9676 Q155.6563,164.6864 155.0313,164.6864 Q153.6875,164.6864 153,165.7645 Q152.3125,166.827 152.3125,168.9207 Q152.3125,171.0145 153,172.0926 Q153.6875,173.1551 155.0313,173.1551 Q155.6563,173.1551 156.25,172.8895 Q156.8438,172.6082 157.4688,172.0301 L157.4688,174.7489 Z " fill="#000000"/><text fill="#000000" font-family="sans-serif" font-size="14" lengthAdjust="spacing" textLength="224.041" x="168.5" y="173.9549">CRediT_Contribution_Statement</text></g><!--class CRediT_Degree_of_Contribution--><g class="entity" data-entity="CRediT_Degree_of_Contribution" data-source-line="184" data-uid="ent0033" id="entity_CRediT_Degree_of_Contribution"><rect fill="#DDEEDD" height="88.8906" rx="2.5" ry="2.5" style="stroke:#181818;stroke-width:0.5;" width="254.127" x="11.5" y="363.6082"/><ellipse cx="26.5" cy="379.6082" fill="#EB937F" rx="11" ry="11" style="stroke:#181818;stroke-width:1;"/><path d="M30.6094,385.6082 L22.8906,385.6082 L22.8906,373.2176 L30.6094,373.2176 L30.6094,375.3739 L25.3438,375.3739 L25.3438,378.0457 L30.1094,378.0457 L30.1094,380.202 L25.3438,380.202 L25.3438,383.452 L30.6094,383.452 L30.6094,385.6082 Z " fill="#000000"/><text fill="#000000" font-family="sans-serif" font-size="14" lengthAdjust="spacing" textLength="222.127" x="40.5" y="384.4549">CRediT_Degree_of_Contribution</text><line style="stroke:#181818;stroke-width:0.5;" x1="12.5" x2="264.627" y1="395.6082" y2="395.6082"/><text fill="#000000" font-family="sans-serif" font-size="14" lengthAdjust="spacing" textLength="33.8789" x="17.5" y="412.6033">Lead</text><text fill="#000000" font-family="sans-serif" font-size="14" lengthAdjust="spacing" textLength="76.9932" x="17.5" y="428.9002">Supporting</text><text fill="#000000" font-family="sans-serif" font-size="14" lengthAdjust="spacing" textLength="39.0742" x="17.5" y="445.1971">Equal</text></g><!--class CRediT_Role_Type--><g class="entity" data-entity="CRediT_Role_Type" data-source-line="189" data-uid="ent0034" id="entity_CRediT_Role_Type"><rect fill="#DDEEDD" height="268.1563" rx="2.5" ry="2.5" style="stroke:#181818;stroke-width:0.5;" width="191.5322" x="300.5" y="274.1082"/><ellipse cx="329.4298" cy="290.1082" fill="#EB937F" rx="11" ry="11" style="stroke:#181818;stroke-width:1;"/><path d="M333.5392,296.1082 L325.8204,296.1082 L325.8204,283.7176 L333.5392,283.7176 L333.5392,285.8739 L328.2735,285.8739 L328.2735,288.5457 L333.0392,288.5457 L333.0392,290.702 L328.2735,290.702 L328.2735,293.952 L333.5392,293.952 L333.5392,296.1082 Z " fill="#000000"/><text fill="#000000" font-family="sans-serif" font-size="14" lengthAdjust="spacing" textLength="128.5771" x="346.5253" y="294.9549">CRediT_Role_Type</text><line style="stroke:#181818;stroke-width:0.5;" x1="301.5" x2="491.0322" y1="306.1082" y2="306.1082"/><text fill="#000000" font-family="sans-serif" font-size="14" lengthAdjust="spacing" textLength="125.877" x="306.5" y="323.1033">Conceptualization</text><text fill="#000000" font-family="sans-serif" font-size="14" lengthAdjust="spacing" textLength="95.6006" x="306.5" y="339.4002">Data curation</text><text fill="#000000" font-family="sans-serif" font-size="14" lengthAdjust="spacing" textLength="109.6143" x="306.5" y="355.6971">Formal analysis</text><text fill="#000000" font-family="sans-serif" font-size="14" lengthAdjust="spacing" textLength="136.7119" x="306.5" y="371.994">Funding acquisition</text><text fill="#000000" font-family="sans-serif" font-size="14" lengthAdjust="spacing" textLength="90.8564" x="306.5" y="388.2908">Investigation</text><text fill="#000000" font-family="sans-serif" font-size="14" lengthAdjust="spacing" textLength="90.6992" x="306.5" y="404.5877">Methodology</text><text fill="#000000" font-family="sans-serif" font-size="14" lengthAdjust="spacing" textLength="154.5947" x="306.5" y="420.8846">Project administration</text><text fill="#000000" font-family="sans-serif" font-size="14" lengthAdjust="spacing" textLength="72.4336" x="306.5" y="437.1815">Resources</text><text fill="#000000" font-family="sans-serif" font-size="14" lengthAdjust="spacing" textLength="62.2686" x="306.5" y="453.4783">Software</text><text fill="#000000" font-family="sans-serif" font-size="14" lengthAdjust="spacing" textLength="81.8125" x="306.5" y="469.7752">Supervision</text><text fill="#000000" font-family="sans-serif" font-size="14" lengthAdjust="spacing" textLength="70.2188" x="306.5" y="486.0721">Validation</text><text fill="#000000" font-family="sans-serif" font-size="14" lengthAdjust="spacing" textLength="88.7373" x="306.5" y="502.369">Visualization</text><text fill="#000000" font-family="sans-serif" font-size="14" lengthAdjust="spacing" textLength="154.998" x="306.5" y="518.6658">Writing - original draft</text><text fill="#000000" font-family="sans-serif" font-size="14" lengthAdjust="spacing" textLength="179.5322" x="306.5" y="534.9627">Writing - review &amp; editing</text></g><!--link Document to apoint6--><g class="link" data-entity-1="Document" data-entity-2="apoint6" data-source-line="305" data-uid="lnk8" id="link_Document_apoint6"><path d="M834.79,62.5682 C820.81,70.4482 808.17,80.7182 799.5,94.1082 C783.29,119.1482 798.92,159.5782 802,166.9382" fill="none" id="Document-apoint6" style="stroke:#181818;stroke-width:1;"/><polygon fill="#000000" points="803.0014,107.4448,808.5162,99.6964,802.9086,97.9346,803.0014,107.4448" style="stroke:#000000;stroke-width:1;"/><text fill="#000000" font-family="sans-serif" font-size="13" lengthAdjust="spacing" textLength="57.8398" x="813.5" y="107.1751">is part of</text><text fill="#000000" font-family="sans-serif" font-size="13" lengthAdjust="spacing" textLength="23.0356" x="803.8943" y="61.0805">0..*</text></g><!--link apoint6 to Document--><g class="link" data-entity-1="apoint6" data-entity-2="Document" data-source-line="305" data-uid="lnk9" id="link_apoint6_Document"><path d="M803.63,167.4182 C810.75,163.0082 849.92,138.2582 875.5,111.1082 C888.87,96.9082 901.35,78.9382 910.61,64.2582" fill="none" id="apoint6-Document" style="stroke:#181818;stroke-width:1;"/><text fill="#000000" font-family="sans-serif" font-size="13" lengthAdjust="spacing" textLength="23.0356" x="881.2951" y="84.5502">0..*</text></g><!--link apoint6 to Contents_Location--><g class="link" data-entity-1="apoint6" data-entity-2="Contents_Location" data-source-line="305" data-uid="lnk10" id="link_apoint6_Contents_Location"><path d="M801.19,171.0982 C794.24,176.3882 761.23,201.9282 738.5,227.1082 C694.98,275.3182 652.43,338.0482 628.43,375.2982" fill="none" id="apoint6-Contents_Location" style="stroke:#181818;stroke-width:1;stroke-dasharray:7,7;"/></g><!--link Document to Document--><g class="link" data-entity-1="Document" data-entity-2="Document" data-source-line="307" data-uid="lnk11" id="link_Document_Document"><path codeLine="307" d="M1018.04,24.0682 C1038.27,25.1982 1053,29.2082 1053,36.1082 C1053,43.0082 1038.27,47.0182 1018.04,48.1482" fill="none" id="Document-Document" style="stroke:#181818;stroke-width:1;"/><polygon fill="#000000" points="1058.2789,41.1669,1060.7088,31.9719,1054.8401,32.2998,1058.2789,41.1669" style="stroke:#000000;stroke-width:1;"/><text fill="#000000" font-family="sans-serif" font-size="13" lengthAdjust="spacing" textLength="167.5464" x="1072" y="40.6751">another representation of</text><text fill="#000000" font-family="sans-serif" font-size="13" lengthAdjust="spacing" textLength="23.0356" x="1025.9353" y="19.6328">0..*</text><text fill="#000000" font-family="sans-serif" font-size="13" lengthAdjust="spacing" textLength="23.0356" x="1025.9353" y="45.5564">0..*</text></g><!--reverse link Contents_Location to Page_Based_Contents_Location--><g class="link" data-entity-1="Contents_Location" data-entity-2="Page_Based_Contents_Location" data-source-line="321" data-uid="lnk13" id="link_Contents_Location_Page_Based_Contents_Location"><path codeLine="321" d="M581.2207,456.1197 C563.5207,485.2397 543.56,512.8482 509.5,542.1082 C481.45,566.2082 446.66,586.7582 414.6,602.8682" fill="none" id="Contents_Location-backto-Page_Based_Contents_Location" style="stroke:#181818;stroke-width:1;"/><polygon fill="none" points="590.57,440.7382,576.0935,453.0033,586.3478,459.2362,590.57,440.7382" style="stroke:#181818;stroke-width:1;"/></g><!--reverse link Contents_Location to Time_Based_Contents_Location--><g class="link" data-entity-1="Contents_Location" data-entity-2="Time_Based_Contents_Location" data-source-line="328" data-uid="lnk15" id="link_Contents_Location_Time_Based_Contents_Location"><path codeLine="328" d="M608.5,459.0882 C608.5,501.1782 608.5,557.1682 608.5,602.8282" fill="none" id="Contents_Location-backto-Time_Based_Contents_Location" style="stroke:#181818;stroke-width:1;"/><polygon fill="none" points="608.5,441.0882,602.5,459.0882,614.5,459.0882,608.5,441.0882" style="stroke:#181818;stroke-width:1;"/></g><!--link Document to Activity--><g class="link" data-entity-1="Document" data-entity-2="Activity" data-source-line="239" data-uid="lnk17" id="link_Document_Activity"><path codeLine="239" d="M932.51,64.2482 C937.49,86.7382 944.52,118.5282 949.5,140.9982" fill="none" id="Document-Activity" style="stroke:#181818;stroke-width:1;"/><polygon fill="#000000" points="949.5807,107.5565,950.4952,98.09,944.7563,99.3604,949.5807,107.5565" style="stroke:#000000;stroke-width:1;"/><text fill="#000000" font-family="sans-serif" font-size="13" lengthAdjust="spacing" textLength="37.2417" x="957.5" y="107.1751">prove</text><text fill="#000000" font-family="sans-serif" font-size="13" lengthAdjust="spacing" textLength="23.0356" x="936.5782" y="84.5379">0..*</text><text fill="#000000" font-family="sans-serif" font-size="13" lengthAdjust="spacing" textLength="23.0356" x="922.675" y="130.2575">0..*</text></g><!--link Activity to Agent--><g class="link" data-entity-1="Activity" data-entity-2="Agent" data-source-line="245" data-uid="lnk19" id="link_Activity_Agent"><path codeLine="245" d="M955.5,197.2982 C955.5,237.9082 955.5,308.8182 955.5,357.3882" fill="none" id="Activity-to-Agent" style="stroke:#181818;stroke-width:1;"/><polygon fill="#181818" points="955.5,363.3882,959.5,354.3882,955.5,358.3882,951.5,354.3882,955.5,363.3882" style="stroke:#181818;stroke-width:1;"/><polygon fill="#000000" points="960.5,240.6746,963.4389,231.6296,957.5611,231.6296,960.5,240.6746" style="stroke:#000000;stroke-width:1;"/><text fill="#000000" font-family="sans-serif" font-size="13" lengthAdjust="spacing" textLength="33.5093" x="969.5" y="240.1751">actor</text><text fill="#000000" font-family="sans-serif" font-size="13" lengthAdjust="spacing" textLength="23.0356" x="929.844" y="217.5995">0..*</text><text fill="#000000" font-family="sans-serif" font-size="13" lengthAdjust="spacing" textLength="24.8066" x="929.725" y="352.4775">0..1</text></g><!--link Activity to Date_Range--><g class="link" data-entity-1="Activity" data-entity-2="Date_Range" data-source-line="844" data-uid="lnk21" id="link_Activity_Date_Range"><path codeLine="844" d="M887.02,197.1882 C854.25,214.0382 818.16,239.2382 799.5,274.1082 C734.09,396.3182 797.3911,569.1044 819.4911,621.8444" fill="none" id="Activity-to-Date_Range" style="stroke:#181818;stroke-width:1;stroke-dasharray:7,7;"/><polygon fill="#181818" points="821.81,627.3782,822.0209,617.5316,819.8776,622.7667,814.6425,620.6234,821.81,627.3782" style="stroke:#181818;stroke-width:1;"/></g><!--reverse link Activity to Contribution--><g class="link" data-entity-1="Activity" data-entity-2="Contribution" data-source-line="180" data-uid="lnk23" id="link_Activity_Contribution"><path codeLine="180" d="M1015.2194,206.7074 C1046.9894,226.6774 1074.96,245.6482 1110.5,274.1082 C1152.76,307.9582 1197.42,352.0282 1224.63,379.9582" fill="none" id="Activity-backto-Contribution" style="stroke:#181818;stroke-width:1;"/><polygon fill="none" points="999.98,197.1282,1012.0263,211.7872,1018.4125,201.6276,999.98,197.1282" style="stroke:#181818;stroke-width:1;"/></g><!--link Contribution_Statement to Resource--><g class="link" data-entity-1="Contribution_Statement" data-entity-2="Resource" data-source-line="672" data-uid="lnk25" id="link_Contribution_Statement_Resource"><path codeLine="672" d="M147.61,52.3282 C137.4,63.6682 123.31,79.6182 111.5,94.1082 C95.31,113.9682 81.1714,132.8548 70.1014,147.9948" fill="none" id="Contribution_Statement-to-Resource" style="stroke:#181818;stroke-width:1;"/><polygon fill="#181818" points="66.56,152.8382,75.101,147.934,69.5112,148.8021,68.6431,143.2122,66.56,152.8382" style="stroke:#181818;stroke-width:1;"/><polygon fill="#000000" points="113.3524,106.5596,121.33,101.3817,116.7629,97.6816,113.3524,106.5596" style="stroke:#000000;stroke-width:1;"/><text fill="#000000" font-family="sans-serif" font-size="13" lengthAdjust="spacing" textLength="55.8784" x="125.5" y="107.1751">provides</text><text fill="#000000" font-family="sans-serif" font-size="13" lengthAdjust="spacing" textLength="24.8066" x="42.3591" y="142.0533">0..1</text></g><!--reverse link Contribution to Contribution_to_Document--><g class="link" data-entity-1="Contribution" data-entity-2="Contribution_to_Document" data-source-line="198" data-uid="lnk27" id="link_Contribution_Contribution_to_Document"><path codeLine="198" d="M1272.9004,452.3305 C1298.5204,501.7805 1343.6,588.7682 1363.65,627.4682" fill="none" id="Contribution-backto-Contribution_to_Document" style="stroke:#181818;stroke-width:1;"/><polygon fill="none" points="1264.62,436.3482,1267.573,455.0907,1278.2279,449.5704,1264.62,436.3482" style="stroke:#181818;stroke-width:1;"/></g><!--link Contribution_to_Document to Document--><g class="link" data-entity-1="Contribution_to_Document" data-entity-2="Document" data-source-line="656" data-uid="lnk28" id="link_Contribution_to_Document_Document"><path codeLine="656" d="M1380.0319,621.8708 C1401.1619,568.5908 1461.85,392.4182 1389.5,274.1082 C1308.71,141.9882 1134.2076,81.9149 1023.9576,55.7249" fill="none" id="Contribution_to_Document-Document" style="stroke:#181818;stroke-width:1;"/><polygon fill="#181818" points="1377.82,627.4482,1384.8561,620.5567,1379.6633,622.8004,1377.4196,617.6075,1377.82,627.4482" style="stroke:#181818;stroke-width:1;"/><polygon fill="#181818" points="1018.12,54.3382,1025.9519,60.31,1022.9846,55.4938,1027.8008,52.5266,1018.12,54.3382" style="stroke:#181818;stroke-width:1;"/><text fill="#000000" font-family="sans-serif" font-size="13" lengthAdjust="spacing" textLength="183.9106" x="1165.7802" y="616.4048">0..* contributions &#171;ordered&#187;</text><text fill="#000000" font-family="sans-serif" font-size="13" lengthAdjust="spacing" textLength="8.271" x="1025.7557" y="68.4489">1</text></g><!--link Agent to Date_Range--><g class="link" data-entity-1="Agent" data-entity-2="Date_Range" data-source-line="15" data-uid="lnk29" id="link_Agent_Date_Range"><path codeLine="15" d="M931.76,452.7582 C902.9,505.8182 858.5675,587.3278 839.6175,622.1578" fill="none" id="Agent-to-Date_Range" style="stroke:#181818;stroke-width:1;stroke-dasharray:7,7;"/><polygon fill="#181818" points="836.75,627.4282,844.5649,621.4342,839.1396,623.0362,837.5376,617.6109,836.75,627.4282" style="stroke:#181818;stroke-width:1;"/></g><!--link Agent to Contact_Information--><g class="link" data-entity-1="Agent" data-entity-2="Contact_Information" data-source-line="16" data-uid="lnk31" id="link_Agent_Contact_Information"><path codeLine="16" d="M965.59,452.7582 C977.87,505.8182 996.5773,586.7527 1004.6373,621.5827" fill="none" id="Agent-to-Contact_Information" style="stroke:#181818;stroke-width:1;stroke-dasharray:7,7;"/><polygon fill="#181818" points="1005.99,627.4282,1007.858,617.7581,1004.8627,622.557,1000.0639,619.5617,1005.99,627.4282" style="stroke:#181818;stroke-width:1;"/><text fill="#000000" font-family="sans-serif" font-size="13" lengthAdjust="spacing" textLength="23.0356" x="978.0644" y="616.6731">0..*</text></g><!--reverse link Contribution_Statement to CRediT_Contribution_Statement--><g class="link" data-entity-1="Contribution_Statement" data-entity-2="CRediT_Contribution_Statement" data-source-line="225" data-uid="lnk35" id="link_Contribution_Statement_CRediT_Contribution_Statement"><path codeLine="225" d="M184.9844,66.1295 C205.3244,91.2595 234.69,127.5682 255.16,152.8482" fill="none" id="Contribution_Statement-backto-CRediT_Contribution_Statement" style="stroke:#181818;stroke-width:1;"/><polygon fill="none" points="173.66,52.1382,180.3207,69.9044,189.6482,62.3547,173.66,52.1382" style="stroke:#181818;stroke-width:1;"/></g><!--link CRediT_Contribution_Statement to CRediT_Role_Type--><g class="link" data-entity-1="CRediT_Contribution_Statement" data-entity-2="CRediT_Role_Type" data-source-line="238" data-uid="lnk36" id="link_CRediT_Contribution_Statement_CRediT_Role_Type"><path codeLine="238" d="M275.77,185.2982 C286.03,204.1482 301.702,232.9381 321.222,268.8081" fill="none" id="CRediT_Contribution_Statement-to-CRediT_Role_Type" style="stroke:#181818;stroke-width:1;stroke-dasharray:7,7;"/><polygon fill="#181818" points="324.09,274.0782,323.3015,264.261,321.7,269.6864,316.2746,268.0849,324.09,274.0782" style="stroke:#181818;stroke-width:1;"/><text fill="#000000" font-family="sans-serif" font-size="13" lengthAdjust="spacing" textLength="56.7925" x="262.3215" y="262.9622">roleType</text></g><!--link CRediT_Contribution_Statement to CRediT_Degree_of_Contribution--><g class="link" data-entity-1="CRediT_Contribution_Statement" data-entity-2="CRediT_Degree_of_Contribution" data-source-line="241" data-uid="lnk37" id="link_CRediT_Contribution_Statement_CRediT_Degree_of_Contribution"><path codeLine="241" d="M259.23,185.2982 C239.99,220.6382 194.4882,304.2482 165.1482,358.1582" fill="none" id="CRediT_Contribution_Statement-to-CRediT_Degree_of_Contribution" style="stroke:#181818;stroke-width:1;stroke-dasharray:7,7;"/><polygon fill="#181818" points="162.28,363.4282,170.0956,357.4353,164.6702,359.0365,163.0689,353.611,162.28,363.4282" style="stroke:#181818;stroke-width:1;"/><text fill="#000000" font-family="sans-serif" font-size="13" lengthAdjust="spacing" textLength="141.3687" x="14.1445" y="352.5236">degreeOfContribution</text></g><!--SRC=[fSyn2iCm30NGFQTG3b3x3CLjeQlf7XBP185j5LigzFPrXqxT7FZB7vx41m2OgM3I49jkO8pjSLT_lvqSrsW3hNjTSxFOctbgJZDopboc2GQiZusrOXp25qRDiSWGFgFGY-GzX1qNgRIfK1z-zC0Yl1oRid_bFxMPWwRVHny3FQOF]--></g></svg>