<?xml version="1.0" encoding="UTF-8" standalone="no"?><svg xmlns="http://www.w3.org/2000/svg" xmlns:xlink="http://www.w3.org/1999/xlink" contentScriptType="application/ecmascript" contentStyleType="text/css" height="606px" preserveAspectRatio="none" style="width:1332px;height:606px;background:#FFFFFF;" version="1.1" viewBox="0 0 1332 606" width="1332px" zoomAndPan="magnify"><defs><filter height="300%" id="fsqr4gb0pf080" width="300%" x="-1" y="-1"><feGaussianBlur result="blurOut" stdDeviation="2.0"/><feColorMatrix in="blurOut" result="blurOut2" type="matrix" values="0 0 0 0 0 0 0 0 0 0 0 0 0 0 0 0 0 0 .4 0"/><feOffset dx="4.0" dy="4.0" in="blurOut2" result="blurOut3"/><feBlend in="SourceGraphic" in2="blurOut3" mode="normal"/></filter></defs><g><!--MD5=[6b13f1b330d33795af281e5c1dfe1e98]
class Resource--><rect codeLine="267" fill="#FFFFFF" filter="url(#fsqr4gb0pf080)" height="32" id="Resource" style="stroke:#A80036;stroke-width:1.5;" width="91" x="7" y="160.5"/><ellipse cx="22" cy="176.5" fill="#ADD1B2" rx="11" ry="11" style="stroke:#A80036;stroke-width:1.0;"/><path d="M24.9688,182.1406 Q24.3906,182.4375 23.75,182.5781 Q23.1094,182.7344 22.4063,182.7344 Q19.9063,182.7344 18.5781,181.0938 Q17.2656,179.4375 17.2656,176.3125 Q17.2656,173.1875 18.5781,171.5313 Q19.9063,169.875 22.4063,169.875 Q23.1094,169.875 23.75,170.0313 Q24.4063,170.1875 24.9688,170.4844 L24.9688,173.2031 Q24.3438,172.625 23.75,172.3594 Q23.1563,172.0781 22.5313,172.0781 Q21.1875,172.0781 20.5,173.1563 Q19.8125,174.2188 19.8125,176.3125 Q19.8125,178.4063 20.5,179.4844 Q21.1875,180.5469 22.5313,180.5469 Q23.1563,180.5469 23.75,180.2813 Q24.3438,180 24.9688,179.4219 L24.9688,182.1406 Z " fill="#000000"/><text fill="#000000" font-family="sans-serif" font-size="12" lengthAdjust="spacing" textLength="59" x="36" y="180.6543">Resource</text><!--MD5=[59b530d44ae785dc18db921986a9c15c]
class Document--><rect codeLine="312" fill="#FFFFFF" filter="url(#fsqr4gb0pf080)" height="65.6094" id="Document" style="stroke:#A80036;stroke-width:1.5;" width="148" x="872.5" y="7"/><ellipse cx="910.9" cy="23" fill="#ADD1B2" rx="11" ry="11" style="stroke:#A80036;stroke-width:1.0;"/><path d="M913.8688,28.6406 Q913.2906,28.9375 912.65,29.0781 Q912.0094,29.2344 911.3063,29.2344 Q908.8063,29.2344 907.4781,27.5938 Q906.1656,25.9375 906.1656,22.8125 Q906.1656,19.6875 907.4781,18.0313 Q908.8063,16.375 911.3063,16.375 Q912.0094,16.375 912.65,16.5313 Q913.3063,16.6875 913.8688,16.9844 L913.8688,19.7031 Q913.2438,19.125 912.65,18.8594 Q912.0563,18.5781 911.4313,18.5781 Q910.0875,18.5781 909.4,19.6563 Q908.7125,20.7188 908.7125,22.8125 Q908.7125,24.9063 909.4,25.9844 Q910.0875,27.0469 911.4313,27.0469 Q912.0563,27.0469 912.65,26.7813 Q913.2438,26.5 913.8688,25.9219 L913.8688,28.6406 Z " fill="#000000"/><text fill="#000000" font-family="sans-serif" font-size="12" lengthAdjust="spacing" textLength="64" x="930.1" y="27.1543">Document</text><line style="stroke:#A80036;stroke-width:1.5;" x1="873.5" x2="1019.5" y1="39" y2="39"/><text fill="#000000" font-family="sans-serif" font-size="11" lengthAdjust="spacing" textLength="136" x="878.5" y="53.2104">title : Multilingual_String</text><text fill="#000000" font-family="sans-serif" font-size="11" lengthAdjust="spacing" textLength="125" x="878.5" y="66.0151">publicationDate : Date</text><!--MD5=[c881b25adf3665c6568c9693d41a70f3]
class Activity--><rect codeLine="142" fill="#FFFFFF" filter="url(#fsqr4gb0pf080)" height="52.8047" id="Activity" style="stroke:#A80036;stroke-width:1.5;" width="151" x="639" y="150"/><ellipse cx="688.75" cy="166" fill="#ADD1B2" rx="11" ry="11" style="stroke:#A80036;stroke-width:1.0;"/><path d="M691.7188,171.6406 Q691.1406,171.9375 690.5,172.0781 Q689.8594,172.2344 689.1563,172.2344 Q686.6563,172.2344 685.3281,170.5938 Q684.0156,168.9375 684.0156,165.8125 Q684.0156,162.6875 685.3281,161.0313 Q686.6563,159.375 689.1563,159.375 Q689.8594,159.375 690.5,159.5313 Q691.1563,159.6875 691.7188,159.9844 L691.7188,162.7031 Q691.0938,162.125 690.5,161.8594 Q689.9063,161.5781 689.2813,161.5781 Q687.9375,161.5781 687.25,162.6563 Q686.5625,163.7188 686.5625,165.8125 Q686.5625,167.9063 687.25,168.9844 Q687.9375,170.0469 689.2813,170.0469 Q689.9063,170.0469 690.5,169.7813 Q691.0938,169.5 691.7188,168.9219 L691.7188,171.6406 Z " fill="#000000"/><text fill="#000000" font-family="sans-serif" font-size="12" lengthAdjust="spacing" textLength="43" x="709.25" y="170.1543">Activity</text><line style="stroke:#A80036;stroke-width:1.5;" x1="640" x2="789" y1="182" y2="182"/><text fill="#000000" font-family="sans-serif" font-size="11" lengthAdjust="spacing" textLength="139" x="645" y="196.2104">dateRange : Date_Range</text><!--MD5=[9d44916250b776386006c440668bcfbb]
class Agent--><rect codeLine="10" fill="#FFFFFF" filter="url(#fsqr4gb0pf080)" height="78.4141" id="Agent" style="stroke:#A80036;stroke-width:1.5;" width="224" x="544.5" y="350.5"/><ellipse cx="633.75" cy="366.5" fill="#ADD1B2" rx="11" ry="11" style="stroke:#A80036;stroke-width:1.0;"/><path d="M636.7188,372.1406 Q636.1406,372.4375 635.5,372.5781 Q634.8594,372.7344 634.1563,372.7344 Q631.6563,372.7344 630.3281,371.0938 Q629.0156,369.4375 629.0156,366.3125 Q629.0156,363.1875 630.3281,361.5313 Q631.6563,359.875 634.1563,359.875 Q634.8594,359.875 635.5,360.0313 Q636.1563,360.1875 636.7188,360.4844 L636.7188,363.2031 Q636.0938,362.625 635.5,362.3594 Q634.9063,362.0781 634.2813,362.0781 Q632.9375,362.0781 632.25,363.1563 Q631.5625,364.2188 631.5625,366.3125 Q631.5625,368.4063 632.25,369.4844 Q632.9375,370.5469 634.2813,370.5469 Q634.9063,370.5469 635.5,370.2813 Q636.0938,370 636.7188,369.4219 L636.7188,372.1406 Z " fill="#000000"/><text fill="#000000" font-family="sans-serif" font-size="12" lengthAdjust="spacing" textLength="37" x="654.25" y="370.6543">Agent</text><line style="stroke:#A80036;stroke-width:1.5;" x1="545.5" x2="767.5" y1="382.5" y2="382.5"/><text fill="#000000" font-family="sans-serif" font-size="11" lengthAdjust="spacing" textLength="207" x="550.5" y="396.7104">keywords : List&lt;Multilingual_String&gt;</text><text fill="#000000" font-family="sans-serif" font-size="11" lengthAdjust="spacing" textLength="121" x="550.5" y="409.5151">lifetime : Date_Range</text><text fill="#000000" font-family="sans-serif" font-size="11" lengthAdjust="spacing" textLength="212" x="550.5" y="422.3198">contacts : List&lt;Contact_Information&gt;</text><!--MD5=[176bc0a65f2558a2e68a39a8b34c74bb]
class Date_Range--><rect fill="#FEFECE" filter="url(#fsqr4gb0pf080)" height="32" id="Date_Range" style="stroke:#A80036;stroke-width:1.5;" width="108" x="437.5" y="560"/><ellipse cx="452.5" cy="576" fill="#ADD1B2" rx="11" ry="11" style="stroke:#A80036;stroke-width:1.0;"/><path d="M455.4688,581.6406 Q454.8906,581.9375 454.25,582.0781 Q453.6094,582.2344 452.9063,582.2344 Q450.4063,582.2344 449.0781,580.5938 Q447.7656,578.9375 447.7656,575.8125 Q447.7656,572.6875 449.0781,571.0313 Q450.4063,569.375 452.9063,569.375 Q453.6094,569.375 454.25,569.5313 Q454.9063,569.6875 455.4688,569.9844 L455.4688,572.7031 Q454.8438,572.125 454.25,571.8594 Q453.6563,571.5781 453.0313,571.5781 Q451.6875,571.5781 451,572.6563 Q450.3125,573.7188 450.3125,575.8125 Q450.3125,577.9063 451,578.9844 Q451.6875,580.0469 453.0313,580.0469 Q453.6563,580.0469 454.25,579.7813 Q454.8438,579.5 455.4688,578.9219 L455.4688,581.6406 Z " fill="#000000"/><text fill="#000000" font-family="sans-serif" font-size="12" lengthAdjust="spacing" textLength="76" x="466.5" y="580.1543">Date_Range</text><!--MD5=[0330879a1a385efee19ba3488ed490fa]
class Contribution--><rect codeLine="187" fill="#FFFFFF" filter="url(#fsqr4gb0pf080)" height="32" id="Contribution" style="stroke:#A80036;stroke-width:1.5;" width="109" x="804" y="373.5"/><ellipse cx="819" cy="389.5" fill="#ADD1B2" rx="11" ry="11" style="stroke:#A80036;stroke-width:1.0;"/><path d="M821.9688,395.1406 Q821.3906,395.4375 820.75,395.5781 Q820.1094,395.7344 819.4063,395.7344 Q816.9063,395.7344 815.5781,394.0938 Q814.2656,392.4375 814.2656,389.3125 Q814.2656,386.1875 815.5781,384.5313 Q816.9063,382.875 819.4063,382.875 Q820.1094,382.875 820.75,383.0313 Q821.4063,383.1875 821.9688,383.4844 L821.9688,386.2031 Q821.3438,385.625 820.75,385.3594 Q820.1563,385.0781 819.5313,385.0781 Q818.1875,385.0781 817.5,386.1563 Q816.8125,387.2188 816.8125,389.3125 Q816.8125,391.4063 817.5,392.4844 Q818.1875,393.5469 819.5313,393.5469 Q820.1563,393.5469 820.75,393.2813 Q821.3438,393 821.9688,392.4219 L821.9688,395.1406 Z " fill="#000000"/><text fill="#000000" font-family="sans-serif" font-size="12" lengthAdjust="spacing" textLength="77" x="833" y="393.6543">Contribution</text><!--MD5=[532fe005ca0bef0ad6b309c9c6480e22]
class Contribution_Statement--><rect fill="#FEFECE" filter="url(#fsqr4gb0pf080)" height="32" id="Contribution_Statement" style="stroke:#A80036;stroke-width:1.5;" width="181" x="34" y="24"/><ellipse cx="49" cy="40" fill="#ADD1B2" rx="11" ry="11" style="stroke:#A80036;stroke-width:1.0;"/><path d="M51.9688,45.6406 Q51.3906,45.9375 50.75,46.0781 Q50.1094,46.2344 49.4063,46.2344 Q46.9063,46.2344 45.5781,44.5938 Q44.2656,42.9375 44.2656,39.8125 Q44.2656,36.6875 45.5781,35.0313 Q46.9063,33.375 49.4063,33.375 Q50.1094,33.375 50.75,33.5313 Q51.4063,33.6875 51.9688,33.9844 L51.9688,36.7031 Q51.3438,36.125 50.75,35.8594 Q50.1563,35.5781 49.5313,35.5781 Q48.1875,35.5781 47.5,36.6563 Q46.8125,37.7188 46.8125,39.8125 Q46.8125,41.9063 47.5,42.9844 Q48.1875,44.0469 49.5313,44.0469 Q50.1563,44.0469 50.75,43.7813 Q51.3438,43.5 51.9688,42.9219 L51.9688,45.6406 Z " fill="#000000"/><text fill="#000000" font-family="sans-serif" font-size="12" lengthAdjust="spacing" textLength="149" x="63" y="44.1543">Contribution_Statement</text><!--MD5=[05151c161079be2c12996cf31a3c6866]
class Contribution_to_Document--><rect codeLine="205" fill="#FFFFFF" filter="url(#fsqr4gb0pf080)" height="32" id="Contribution_to_Document" style="stroke:#A80036;stroke-width:1.5;" width="198" x="830.5" y="560"/><ellipse cx="845.5" cy="576" fill="#ADD1B2" rx="11" ry="11" style="stroke:#A80036;stroke-width:1.0;"/><path d="M848.4688,581.6406 Q847.8906,581.9375 847.25,582.0781 Q846.6094,582.2344 845.9063,582.2344 Q843.4063,582.2344 842.0781,580.5938 Q840.7656,578.9375 840.7656,575.8125 Q840.7656,572.6875 842.0781,571.0313 Q843.4063,569.375 845.9063,569.375 Q846.6094,569.375 847.25,569.5313 Q847.9063,569.6875 848.4688,569.9844 L848.4688,572.7031 Q847.8438,572.125 847.25,571.8594 Q846.6563,571.5781 846.0313,571.5781 Q844.6875,571.5781 844,572.6563 Q843.3125,573.7188 843.3125,575.8125 Q843.3125,577.9063 844,578.9844 Q844.6875,580.0469 846.0313,580.0469 Q846.6563,580.0469 847.25,579.7813 Q847.8438,579.5 848.4688,578.9219 L848.4688,581.6406 Z " fill="#000000"/><text fill="#000000" font-family="sans-serif" font-size="12" lengthAdjust="spacing" textLength="166" x="859.5" y="580.1543">Contribution_to_Document</text><!--MD5=[a0318ef586937002b2555963e2a1f4ad]
class Contact_Information--><rect fill="#FEFECE" filter="url(#fsqr4gb0pf080)" height="32" id="Contact_Information" style="stroke:#A80036;stroke-width:1.5;" width="158" x="580.5" y="560"/><ellipse cx="595.5" cy="576" fill="#ADD1B2" rx="11" ry="11" style="stroke:#A80036;stroke-width:1.0;"/><path d="M598.4688,581.6406 Q597.8906,581.9375 597.25,582.0781 Q596.6094,582.2344 595.9063,582.2344 Q593.4063,582.2344 592.0781,580.5938 Q590.7656,578.9375 590.7656,575.8125 Q590.7656,572.6875 592.0781,571.0313 Q593.4063,569.375 595.9063,569.375 Q596.6094,569.375 597.25,569.5313 Q597.9063,569.6875 598.4688,569.9844 L598.4688,572.7031 Q597.8438,572.125 597.25,571.8594 Q596.6563,571.5781 596.0313,571.5781 Q594.6875,571.5781 594,572.6563 Q593.3125,573.7188 593.3125,575.8125 Q593.3125,577.9063 594,578.9844 Q594.6875,580.0469 596.0313,580.0469 Q596.6563,580.0469 597.25,579.7813 Q597.8438,579.5 598.4688,578.9219 L598.4688,581.6406 Z " fill="#000000"/><text fill="#000000" font-family="sans-serif" font-size="12" lengthAdjust="spacing" textLength="126" x="609.5" y="580.1543">Contact_Information</text><!--MD5=[3d3814e6d18e193800c83fb27de84142]
class CRediT_Contribution_Statement--><rect codeLine="182" fill="#DDEEDD" filter="url(#fsqr4gb0pf080)" height="32" id="CRediT_Contribution_Statement" style="stroke:#A80036;stroke-width:1.5;" width="229" x="133" y="160.5"/><ellipse cx="148" cy="176.5" fill="#ADD1B2" rx="11" ry="11" style="stroke:#A80036;stroke-width:1.0;"/><path d="M150.9688,182.1406 Q150.3906,182.4375 149.75,182.5781 Q149.1094,182.7344 148.4063,182.7344 Q145.9063,182.7344 144.5781,181.0938 Q143.2656,179.4375 143.2656,176.3125 Q143.2656,173.1875 144.5781,171.5313 Q145.9063,169.875 148.4063,169.875 Q149.1094,169.875 149.75,170.0313 Q150.4063,170.1875 150.9688,170.4844 L150.9688,173.2031 Q150.3438,172.625 149.75,172.3594 Q149.1563,172.0781 148.5313,172.0781 Q147.1875,172.0781 146.5,173.1563 Q145.8125,174.2188 145.8125,176.3125 Q145.8125,178.4063 146.5,179.4844 Q147.1875,180.5469 148.5313,180.5469 Q149.1563,180.5469 149.75,180.2813 Q150.3438,180 150.9688,179.4219 L150.9688,182.1406 Z " fill="#000000"/><text fill="#000000" font-family="sans-serif" font-size="12" lengthAdjust="spacing" textLength="197" x="162" y="180.6543">CRediT_Contribution_Statement</text><!--MD5=[42c2141a95e7f85966762f44b3023ac5]
class CRediT_Degree_of_Contribution--><rect codeLine="184" fill="#DDEEDD" filter="url(#fsqr4gb0pf080)" height="78.4141" id="CRediT_Degree_of_Contribution" style="stroke:#A80036;stroke-width:1.5;" width="227" x="21" y="350.5"/><ellipse cx="36" cy="366.5" fill="#EB937F" rx="11" ry="11" style="stroke:#A80036;stroke-width:1.0;"/><path d="M40.1094,372.5 L32.3906,372.5 L32.3906,360.1094 L40.1094,360.1094 L40.1094,362.2656 L34.8438,362.2656 L34.8438,364.9375 L39.6094,364.9375 L39.6094,367.0938 L34.8438,367.0938 L34.8438,370.3438 L40.1094,370.3438 L40.1094,372.5 Z " fill="#000000"/><text fill="#000000" font-family="sans-serif" font-size="12" lengthAdjust="spacing" textLength="195" x="50" y="370.6543">CRediT_Degree_of_Contribution</text><line style="stroke:#A80036;stroke-width:1.5;" x1="22" x2="247" y1="382.5" y2="382.5"/><text fill="#000000" font-family="sans-serif" font-size="11" lengthAdjust="spacing" textLength="27" x="27" y="396.7104">Lead</text><text fill="#000000" font-family="sans-serif" font-size="11" lengthAdjust="spacing" textLength="62" x="27" y="409.5151">Supporting</text><text fill="#000000" font-family="sans-serif" font-size="11" lengthAdjust="spacing" textLength="31" x="27" y="422.3198">Equal</text><!--MD5=[b5846dfcb37d6127d0d9f5f5e77b1e64]
class CRediT_Role_Type--><rect codeLine="189" fill="#DDEEDD" filter="url(#fsqr4gb0pf080)" height="219.2656" id="CRediT_Role_Type" style="stroke:#A80036;stroke-width:1.5;" width="155" x="283" y="280"/><ellipse cx="303.85" cy="296" fill="#EB937F" rx="11" ry="11" style="stroke:#A80036;stroke-width:1.0;"/><path d="M307.9594,302 L300.2406,302 L300.2406,289.6094 L307.9594,289.6094 L307.9594,291.7656 L302.6938,291.7656 L302.6938,294.4375 L307.4594,294.4375 L307.4594,296.5938 L302.6938,296.5938 L302.6938,299.8438 L307.9594,299.8438 L307.9594,302 Z " fill="#000000"/><text fill="#000000" font-family="sans-serif" font-size="12" lengthAdjust="spacing" textLength="110" x="319.15" y="300.1543">CRediT_Role_Type</text><line style="stroke:#A80036;stroke-width:1.5;" x1="284" x2="437" y1="312" y2="312"/><text fill="#000000" font-family="sans-serif" font-size="11" lengthAdjust="spacing" textLength="99" x="289" y="326.2104">Conceptualization</text><text fill="#000000" font-family="sans-serif" font-size="11" lengthAdjust="spacing" textLength="76" x="289" y="339.0151">Data curation</text><text fill="#000000" font-family="sans-serif" font-size="11" lengthAdjust="spacing" textLength="90" x="289" y="351.8198">Formal analysis</text><text fill="#000000" font-family="sans-serif" font-size="11" lengthAdjust="spacing" textLength="109" x="289" y="364.6245">Funding acquisition</text><text fill="#000000" font-family="sans-serif" font-size="11" lengthAdjust="spacing" textLength="72" x="289" y="377.4292">Investigation</text><text fill="#000000" font-family="sans-serif" font-size="11" lengthAdjust="spacing" textLength="71" x="289" y="390.2339">Methodology</text><text fill="#000000" font-family="sans-serif" font-size="11" lengthAdjust="spacing" textLength="125" x="289" y="403.0386">Project administration</text><text fill="#000000" font-family="sans-serif" font-size="11" lengthAdjust="spacing" textLength="60" x="289" y="415.8433">Resources</text><text fill="#000000" font-family="sans-serif" font-size="11" lengthAdjust="spacing" textLength="51" x="289" y="428.6479">Software</text><text fill="#000000" font-family="sans-serif" font-size="11" lengthAdjust="spacing" textLength="67" x="289" y="441.4526">Supervision</text><text fill="#000000" font-family="sans-serif" font-size="11" lengthAdjust="spacing" textLength="55" x="289" y="454.2573">Validation</text><text fill="#000000" font-family="sans-serif" font-size="11" lengthAdjust="spacing" textLength="70" x="289" y="467.062">Visualization</text><text fill="#000000" font-family="sans-serif" font-size="11" lengthAdjust="spacing" textLength="123" x="289" y="479.8667">Writing - original draft</text><text fill="#000000" font-family="sans-serif" font-size="11" lengthAdjust="spacing" textLength="143" x="289" y="492.6714">Writing - review &amp; editing</text><!--MD5=[9373bd5d5c413819ce8399fe055a7522]
link Document to Document--><path codeLine="317" d="M1020.63,33.49 C1040.45,33.85 1055.5,36.02 1055.5,40 C1055.5,43.98 1040.45,46.15 1020.63,46.51 " fill="none" id="Document-Document" style="stroke:#A80036;stroke-width:1.0;"/><polygon fill="#000000" points="1060.5908,45.0656,1063.365,35.9686,1057.4881,36.0754,1060.5908,45.0656" style="stroke:#000000;stroke-width:1.0;"/><text fill="#000000" font-family="sans-serif" font-size="13" lengthAdjust="spacing" textLength="56" x="1074.5" y="44.5669">is part of</text><text fill="#000000" font-family="sans-serif" font-size="13" lengthAdjust="spacing" textLength="23" x="1028.524" y="45.6723">0..*</text><text fill="#000000" font-family="sans-serif" font-size="13" lengthAdjust="spacing" textLength="23" x="1028.524" y="59.8926">0..*</text><!--MD5=[9373bd5d5c413819ce8399fe055a7522]
link Document to Document--><path codeLine="319" d="M1020.73,28.09 C1076.07,24.62 1136.5,28.58 1136.5,40 C1136.5,51.42 1076.07,55.38 1020.73,51.91 " fill="none" id="Document-Document-1" style="stroke:#A80036;stroke-width:1.0;"/><polygon fill="#000000" points="1141.1871,45.0566,1144.6863,36.2132,1138.82,35.8453,1141.1871,45.0566" style="stroke:#000000;stroke-width:1.0;"/><text fill="#000000" font-family="sans-serif" font-size="13" lengthAdjust="spacing" textLength="164" x="1155.5" y="44.5669">another representation of</text><text fill="#000000" font-family="sans-serif" font-size="13" lengthAdjust="spacing" textLength="23" x="1028.6332" y="23.3917">0..*</text><text fill="#000000" font-family="sans-serif" font-size="13" lengthAdjust="spacing" textLength="23" x="1028.6332" y="65.7904">0..*</text><!--MD5=[ff9dfe2dddb5fe4a69020d7834f0d207]
link Document to Activity--><path codeLine="251" d="M891.22,73.05 C850.62,96.59 796.18,128.15 758.5,149.99 " fill="none" id="Document-Activity" style="stroke:#A80036;stroke-width:1.0;"/><polygon fill="#000000" points="838.1743,114.0741,847.4735,112.0802,844.5256,106.9951,838.1743,114.0741" style="stroke:#000000;stroke-width:1.0;"/><text fill="#000000" font-family="sans-serif" font-size="13" lengthAdjust="spacing" textLength="36" x="851.5" y="116.0669">prove</text><text fill="#000000" font-family="sans-serif" font-size="13" lengthAdjust="spacing" textLength="23" x="855.9074" y="92.6416">0..*</text><text fill="#000000" font-family="sans-serif" font-size="13" lengthAdjust="spacing" textLength="23" x="743.4219" y="138.8069">0..*</text><!--MD5=[cd935cc757d29bd6a59b1252b30899e0]
link Activity to Agent--><path codeLine="257" d="M707.39,203.37 C697.66,238.76 680.07,302.74 668.34,345.42 " fill="none" id="Activity-to-Agent" style="stroke:#A80036;stroke-width:1.0;"/><polygon fill="#A80036" points="667.01,350.26,673.2601,342.6484,668.3401,345.4402,665.5483,340.5202,667.01,350.26" style="stroke:#A80036;stroke-width:1.0;"/><polygon fill="#000000" points="703.1747,246.3876,708.406,238.445,702.7384,236.887,703.1747,246.3876" style="stroke:#000000;stroke-width:1.0;"/><text fill="#000000" font-family="sans-serif" font-size="13" lengthAdjust="spacing" textLength="33" x="713.5" y="246.0669">actor</text><text fill="#000000" font-family="sans-serif" font-size="13" lengthAdjust="spacing" textLength="23" x="680.3191" y="222.9912">0..*</text><text fill="#000000" font-family="sans-serif" font-size="13" lengthAdjust="spacing" textLength="24" x="642.7632" y="339.5623">0..1</text><!--MD5=[2da288daa10c3ee0fffff7997d0d73e1]
link Activity to Date_Range--><path codeLine="840" d="M638.6,199.94 C598.7,215.77 552.75,241.21 526.5,280 C467.38,367.37 480.39,503.46 488.01,554.63 " fill="none" id="Activity-to-Date_Range" style="stroke:#A80036;stroke-width:1.0;stroke-dasharray:7.0,7.0;"/><polygon fill="#A80036" points="488.82,559.88,491.4112,550.3781,488.0629,554.9376,483.5034,551.5894,488.82,559.88" style="stroke:#A80036;stroke-width:1.0;"/><!--MD5=[55f20054f286b2e7074e8d22fab1f608]
reverse link Activity to Contribution--><path codeLine="192" d="M746.12,219.84 C749.32,224.26 752.49,228.71 755.5,233 C790.96,283.67 830.84,345.29 848.81,373.32 " fill="none" id="Activity-backto-Contribution" style="stroke:#A80036;stroke-width:1.0;"/><polygon fill="none" points="740.16,223.54,733.97,203.28,751.44,215.26,740.16,223.54" style="stroke:#A80036;stroke-width:1.0;"/><!--MD5=[b01ee177fc17bf8bb95324fc01c31b3b]
link Contribution_Statement to Resource--><path codeLine="668" d="M116.38,56.17 C103.31,80.59 77.6,128.61 63.1,155.7 " fill="none" id="Contribution_Statement-to-Resource" style="stroke:#A80036;stroke-width:1.0;"/><polygon fill="#A80036" points="60.7,160.18,68.4759,154.1356,63.0611,155.7726,61.4241,150.3578,60.7,160.18" style="stroke:#A80036;stroke-width:1.0;"/><polygon fill="#000000" points="94.1403,115.9745,101.0001,109.3872,95.818,106.6131,94.1403,115.9745" style="stroke:#000000;stroke-width:1.0;"/><text fill="#000000" font-family="sans-serif" font-size="13" lengthAdjust="spacing" textLength="54" x="105.5" y="116.0669">provides</text><text fill="#000000" font-family="sans-serif" font-size="13" lengthAdjust="spacing" textLength="24" x="35.4413" y="149.3785">0..1</text><!--MD5=[8d7c614e8203540f95956299e63d224a]
reverse link Contribution to Contribution_to_Document--><path codeLine="210" d="M871.51,424.32 C887.06,464.72 912.39,530.53 923.71,559.95 " fill="none" id="Contribution-backto-Contribution_to_Document" style="stroke:#A80036;stroke-width:1.0;"/><polygon fill="none" points="864.96,426.78,864.31,405.6,878.03,421.75,864.96,426.78" style="stroke:#A80036;stroke-width:1.0;"/><!--MD5=[117c8d017b65f89954aa553a8ad2cfe8]
link Contribution_to_Document to Document--><path codeLine="652" d="M934.39,554.6 C936.02,546.93 937.63,538.11 938.5,530 C956.49,362.3 951.38,160.44 948.18,78.39 " fill="none" id="Contribution_to_Document-Document" style="stroke:#A80036;stroke-width:1.0;"/><polygon fill="#A80036" points="947.98,73.16,944.344,82.3131,948.1804,78.156,952.3375,81.9924,947.98,73.16" style="stroke:#A80036;stroke-width:1.0;"/><polygon fill="#A80036" points="933.28,559.69,939.0929,551.7395,934.3374,554.8031,931.2738,550.0476,933.28,559.69" style="stroke:#A80036;stroke-width:1.0;"/><text fill="#000000" font-family="sans-serif" font-size="13" lengthAdjust="spacing" textLength="208" x="692.0821" y="548.8918">0..* contributions &lt;&lt;ordered&gt;&gt;</text><text fill="#000000" font-family="sans-serif" font-size="13" lengthAdjust="spacing" textLength="8" x="939.5154" y="92.7718">1</text><!--MD5=[392b5d5331db5043115a06bd654f787a]
link Agent to Date_Range--><path codeLine="15" d="M622.31,428.73 C587.62,467.52 535.34,525.98 508.59,555.89 " fill="none" id="Agent-to-Date_Range" style="stroke:#A80036;stroke-width:1.0;stroke-dasharray:7.0,7.0;"/><polygon fill="#A80036" points="505.14,559.74,514.1176,555.6899,508.4698,556.0101,508.1497,550.3623,505.14,559.74" style="stroke:#A80036;stroke-width:1.0;"/><!--MD5=[d43df4fbdad36fd00892352d175d5460]
link Agent to Contact_Information--><path codeLine="16" d="M657.12,428.73 C657.74,466.88 658.67,524.08 659.17,554.41 " fill="none" id="Agent-to-Contact_Information" style="stroke:#A80036;stroke-width:1.0;stroke-dasharray:7.0,7.0;"/><polygon fill="#A80036" points="659.25,559.74,663.121,550.6838,659.1786,554.7405,655.1218,550.7981,659.25,559.74" style="stroke:#A80036;stroke-width:1.0;"/><text fill="#000000" font-family="sans-serif" font-size="13" lengthAdjust="spacing" textLength="23" x="632.3578" y="548.9584">0..*</text><!--MD5=[7276caa4191a3f95f28b5ba112f82c6c]
reverse link Contribution_Statement to CRediT_Contribution_Statement--><path codeLine="225" d="M152.09,71.17 C177.37,98.81 213.76,138.6 233.49,160.18 " fill="none" id="Contribution_Statement-backto-CRediT_Contribution_Statement" style="stroke:#A80036;stroke-width:1.0;"/><polygon fill="none" points="146.7,75.65,138.37,56.17,157.03,66.2,146.7,75.65" style="stroke:#A80036;stroke-width:1.0;"/><!--MD5=[fb8e7b03155fc2d9c40ee98c4cf95180]
link CRediT_Contribution_Statement to CRediT_Role_Type--><path codeLine="238" d="M255.63,192.67 C265.29,210.72 282.33,242.53 299.9,275.34 " fill="none" id="CRediT_Contribution_Statement-to-CRediT_Role_Type" style="stroke:#A80036;stroke-width:1.0;stroke-dasharray:7.0,7.0;"/><polygon fill="#A80036" points="302.27,279.77,301.5212,269.9496,299.8978,275.3686,294.4789,273.7452,302.27,279.77" style="stroke:#A80036;stroke-width:1.0;"/><text fill="#000000" font-family="sans-serif" font-size="13" lengthAdjust="spacing" textLength="54" x="242.5436" y="268.956">roleType</text><!--MD5=[fd5d8cb6bc72986bd3560f3b69973f17]
link CRediT_Contribution_Statement to CRediT_Degree_of_Contribution--><path codeLine="241" d="M239.37,192.67 C222.41,224.35 182.71,298.48 157.31,345.9 " fill="none" id="CRediT_Contribution_Statement-to-CRediT_Degree_of_Contribution" style="stroke:#A80036;stroke-width:1.0;stroke-dasharray:7.0,7.0;"/><polygon fill="#A80036" points="154.9,350.4,162.6678,344.3451,157.2552,345.9894,155.6108,340.5768,154.9,350.4" style="stroke:#A80036;stroke-width:1.0;"/><text fill="#000000" font-family="sans-serif" font-size="13" lengthAdjust="spacing" textLength="137" x="9.6328" y="339.4333">degreeOfContribution</text><!--MD5=[3039952ddf98fe7ffe31fc2e889ef67d]
@startuml

    !includesub ../../CERIF-Core/diagrams/core.puml!common

    !includesub ../../CERIF-Core/diagrams/core.puml!Resource
    !includesub ../../CERIF-Core/diagrams/core.puml!Document
    !includesub ../../CERIF-Core/diagrams/core.puml!Activity
    !includesub ../../CERIF-Core/diagrams/core.puml!Contribution
    !includesub ../../CERIF-Core/diagrams/core.puml!Contribution_to_Document
    !includesub ../../CERIF-Core/diagrams/core.puml!Agent

    !includesub ./module.puml!CRediT

@enduml

@startuml

    hide empty members
    skinparam BoxPadding 120

    class "Resource" #ffffff {
    }
    class "Document" #ffffff {
        title : Multilingual_String
        publicationDate : Date
    }

    "Document" "0..*" - - "0..*" "Document" : is part of >

    "Document" "0..*" - - "0..*" "Document" : another representation of >

    class "Activity" #ffffff {
  		dateRange : Date_Range
    }
	"Document" "0..*" - - "0..*" "Activity" : prove >
    "Activity" "0..*" - -> "0..1" "Agent" : actor >
	"Activity" ..> "Date_Range"
    class "Contribution" #ffffff {
    }
    "Activity" <|-d- "Contribution"
     "Contribution_Statement" - -> "0..1" "Resource" : provides >
    class "Contribution_to_Document" #ffffff {
    }
    "Contribution" <|-d- "Contribution_to_Document"
    "Contribution_to_Document" "0..* contributions <<ordered>>" <- -> "1" "Document"
    class "Agent" #ffffff {
        keywords : List<Multilingual_String>
    	lifetime : Date_Range
    	contacts : List<Contact_Information>
    }
    "Agent" ..> "Date_Range"
    "Agent" ..> "0..*" "Contact_Information"

        class "CRediT_Contribution_Statement" #ddeedd {
        }
        enum "CRediT_Degree_of_Contribution" #ddeedd {
            Lead
            Supporting
            Equal
        }
        enum "CRediT_Role_Type" #ddeedd {
            Conceptualization
            Data curation
            Formal analysis
            Funding acquisition
            Investigation
            Methodology
            Project administration
            Resources
            Software
            Supervision
            Validation
            Visualization
            Writing - original draft
            Writing - review & editing
        }
        "Contribution_Statement" <|- - "CRediT_Contribution_Statement"
        "CRediT_Contribution_Statement" ..> "roleType" "CRediT_Role_Type"
        "CRediT_Contribution_Statement" ..> "degreeOfContribution" "CRediT_Degree_of_Contribution"

@enduml

PlantUML version 1.2021.8(Sat Jun 26 08:20:59 UTC 2021)
(GPL source distribution)
Java Runtime: OpenJDK Runtime Environment
JVM: OpenJDK 64-Bit Server VM
Default Encoding: UTF-8
Language: en
Country: null
--></g></svg>