<?xml version="1.0" encoding="UTF-8" standalone="no"?><svg xmlns="http://www.w3.org/2000/svg" xmlns:xlink="http://www.w3.org/1999/xlink" contentScriptType="application/ecmascript" contentStyleType="text/css" height="488px" preserveAspectRatio="none" style="width:841px;height:488px;background:#FFFFFF;" version="1.1" viewBox="0 0 841 488" width="841px" zoomAndPan="magnify"><defs><filter height="300%" id="f195l3yu8istlb" width="300%" x="-1" y="-1"><feGaussianBlur result="blurOut" stdDeviation="2.0"/><feColorMatrix in="blurOut" result="blurOut2" type="matrix" values="0 0 0 0 0 0 0 0 0 0 0 0 0 0 0 0 0 0 .4 0"/><feOffset dx="4.0" dy="4.0" in="blurOut2" result="blurOut3"/><feBlend in="SourceGraphic" in2="blurOut3" mode="normal"/></filter></defs><g><!--MD5=[59b530d44ae785dc18db921986a9c15c]
class Document--><rect codeLine="7" fill="#00FFFF" filter="url(#f195l3yu8istlb)" height="81.5078" id="Document" style="stroke:#A80036;stroke-width:1.5;" width="122" x="699" y="99"/><ellipse cx="728.85" cy="115" fill="#ADD1B2" rx="11" ry="11" style="stroke:#A80036;stroke-width:1.0;"/><path d="M731.6156,110.875 Q731.7719,110.6563 731.9594,110.5469 Q732.1469,110.4375 732.3656,110.4375 Q732.7406,110.4375 732.975,110.6953 Q733.2094,110.9531 733.2094,111.5625 L733.2094,113.0156 Q733.2094,113.625 732.975,113.8906 Q732.7406,114.1563 732.3656,114.1563 Q732.0219,114.1563 731.8188,113.9531 Q731.6156,113.7656 731.5063,113.25 Q731.4594,112.8906 731.2719,112.7031 Q730.9438,112.3281 730.3344,112.1094 Q729.725,111.8906 729.1,111.8906 Q728.3344,111.8906 727.7016,112.2188 Q727.0688,112.5469 726.5766,113.2969 Q726.0844,114.0469 726.0844,115.0781 L726.0844,116.1719 Q726.0844,117.4063 726.975,118.2266 Q727.8656,119.0469 729.4594,119.0469 Q730.3969,119.0469 731.0531,118.7969 Q731.4438,118.6406 731.8656,118.2031 Q732.1313,117.9375 732.2797,117.8594 Q732.4281,117.7813 732.6313,117.7813 Q732.9594,117.7813 733.2172,118.0391 Q733.475,118.2969 733.475,118.6406 Q733.475,118.9844 733.1313,119.3906 Q732.6313,119.9688 731.8344,120.2969 Q730.7563,120.75 729.4594,120.75 Q727.9438,120.75 726.7406,120.125 Q725.7563,119.625 725.0688,118.5547 Q724.3813,117.4844 724.3813,116.2031 L724.3813,115.0469 Q724.3813,113.7188 724.9984,112.5703 Q725.6156,111.4219 726.7094,110.8047 Q727.8031,110.1875 729.0375,110.1875 Q729.7719,110.1875 730.4203,110.3516 Q731.0688,110.5156 731.6156,110.875 Z " fill="#000000"/><text fill="#000000" font-family="sans-serif" font-size="12" lengthAdjust="spacing" textLength="57" x="746.15" y="119.9102">Document</text><line style="stroke:#A80036;stroke-width:1.5;" x1="700" x2="820" y1="131" y2="131"/><text fill="#000000" font-family="sans-serif" font-size="11" lengthAdjust="spacing" textLength="73" x="705" y="146.4189">DOI : DOI_Type</text><text fill="#000000" font-family="sans-serif" font-size="11" lengthAdjust="spacing" textLength="110" x="705" y="160.2549">title : Multilingual_String</text><text fill="#000000" font-family="sans-serif" font-size="11" lengthAdjust="spacing" textLength="104" x="705" y="174.0908">publicationDate : Date</text><!--MD5=[fe105c2ee1fabf2400c31a97ce9128bc]
class Textual_Document--><rect codeLine="12" fill="#00FFFF" filter="url(#f195l3yu8istlb)" height="32" id="Textual_Document" style="stroke:#A80036;stroke-width:1.5;" width="135" x="692.5" y="7"/><ellipse cx="707.5" cy="23" fill="#ADD1B2" rx="11" ry="11" style="stroke:#A80036;stroke-width:1.0;"/><path d="M710.2656,18.875 Q710.4219,18.6563 710.6094,18.5469 Q710.7969,18.4375 711.0156,18.4375 Q711.3906,18.4375 711.625,18.6953 Q711.8594,18.9531 711.8594,19.5625 L711.8594,21.0156 Q711.8594,21.625 711.625,21.8906 Q711.3906,22.1563 711.0156,22.1563 Q710.6719,22.1563 710.4688,21.9531 Q710.2656,21.7656 710.1563,21.25 Q710.1094,20.8906 709.9219,20.7031 Q709.5938,20.3281 708.9844,20.1094 Q708.375,19.8906 707.75,19.8906 Q706.9844,19.8906 706.3516,20.2188 Q705.7188,20.5469 705.2266,21.2969 Q704.7344,22.0469 704.7344,23.0781 L704.7344,24.1719 Q704.7344,25.4063 705.625,26.2266 Q706.5156,27.0469 708.1094,27.0469 Q709.0469,27.0469 709.7031,26.7969 Q710.0938,26.6406 710.5156,26.2031 Q710.7813,25.9375 710.9297,25.8594 Q711.0781,25.7813 711.2813,25.7813 Q711.6094,25.7813 711.8672,26.0391 Q712.125,26.2969 712.125,26.6406 Q712.125,26.9844 711.7813,27.3906 Q711.2813,27.9688 710.4844,28.2969 Q709.4063,28.75 708.1094,28.75 Q706.5938,28.75 705.3906,28.125 Q704.4063,27.625 703.7188,26.5547 Q703.0313,25.4844 703.0313,24.2031 L703.0313,23.0469 Q703.0313,21.7188 703.6484,20.5703 Q704.2656,19.4219 705.3594,18.8047 Q706.4531,18.1875 707.6875,18.1875 Q708.4219,18.1875 709.0703,18.3516 Q709.7188,18.5156 710.2656,18.875 Z " fill="#000000"/><text fill="#000000" font-family="sans-serif" font-size="12" lengthAdjust="spacing" textLength="103" x="721.5" y="27.9102">Textual_Document</text><!--MD5=[b821bb113f9f55c728f1fbb8949cc3af]
class Contributorship--><rect codeLine="43" fill="#00FFFF" filter="url(#f195l3yu8istlb)" height="67.6719" id="Contributorship" style="stroke:#A80036;stroke-width:1.5;" width="117" x="546.5" y="106"/><ellipse cx="561.5" cy="122" fill="#ADD1B2" rx="11" ry="11" style="stroke:#A80036;stroke-width:1.0;"/><path d="M564.2656,117.875 Q564.4219,117.6563 564.6094,117.5469 Q564.7969,117.4375 565.0156,117.4375 Q565.3906,117.4375 565.625,117.6953 Q565.8594,117.9531 565.8594,118.5625 L565.8594,120.0156 Q565.8594,120.625 565.625,120.8906 Q565.3906,121.1563 565.0156,121.1563 Q564.6719,121.1563 564.4688,120.9531 Q564.2656,120.7656 564.1563,120.25 Q564.1094,119.8906 563.9219,119.7031 Q563.5938,119.3281 562.9844,119.1094 Q562.375,118.8906 561.75,118.8906 Q560.9844,118.8906 560.3516,119.2188 Q559.7188,119.5469 559.2266,120.2969 Q558.7344,121.0469 558.7344,122.0781 L558.7344,123.1719 Q558.7344,124.4063 559.625,125.2266 Q560.5156,126.0469 562.1094,126.0469 Q563.0469,126.0469 563.7031,125.7969 Q564.0938,125.6406 564.5156,125.2031 Q564.7813,124.9375 564.9297,124.8594 Q565.0781,124.7813 565.2813,124.7813 Q565.6094,124.7813 565.8672,125.0391 Q566.125,125.2969 566.125,125.6406 Q566.125,125.9844 565.7813,126.3906 Q565.2813,126.9688 564.4844,127.2969 Q563.4063,127.75 562.1094,127.75 Q560.5938,127.75 559.3906,127.125 Q558.4063,126.625 557.7188,125.5547 Q557.0313,124.4844 557.0313,123.2031 L557.0313,122.0469 Q557.0313,120.7188 557.6484,119.5703 Q558.2656,118.4219 559.3594,117.8047 Q560.4531,117.1875 561.6875,117.1875 Q562.4219,117.1875 563.0703,117.3516 Q563.7188,117.5156 564.2656,117.875 Z " fill="#000000"/><text fill="#000000" font-family="sans-serif" font-size="12" lengthAdjust="spacing" textLength="85" x="575.5" y="126.9102">Contributorship</text><line style="stroke:#A80036;stroke-width:1.5;" x1="547.5" x2="662.5" y1="138" y2="138"/><text fill="#000000" font-family="sans-serif" font-size="11" lengthAdjust="spacing" textLength="96" x="552.5" y="153.4189">contacts : List&lt;URI&gt;</text><text fill="#000000" font-family="sans-serif" font-size="11" lengthAdjust="spacing" textLength="98" x="552.5" y="167.2549">displayName : String</text><!--MD5=[532fe005ca0bef0ad6b309c9c6480e22]
class Contribution_Statement--><rect codeLine="47" fill="#00FFFF" filter="url(#f195l3yu8istlb)" height="32" id="Contribution_Statement" style="stroke:#A80036;stroke-width:1.5;" width="162" x="227" y="7"/><ellipse cx="242" cy="23" fill="#ADD1B2" rx="11" ry="11" style="stroke:#A80036;stroke-width:1.0;"/><path d="M244.7656,18.875 Q244.9219,18.6563 245.1094,18.5469 Q245.2969,18.4375 245.5156,18.4375 Q245.8906,18.4375 246.125,18.6953 Q246.3594,18.9531 246.3594,19.5625 L246.3594,21.0156 Q246.3594,21.625 246.125,21.8906 Q245.8906,22.1563 245.5156,22.1563 Q245.1719,22.1563 244.9688,21.9531 Q244.7656,21.7656 244.6563,21.25 Q244.6094,20.8906 244.4219,20.7031 Q244.0938,20.3281 243.4844,20.1094 Q242.875,19.8906 242.25,19.8906 Q241.4844,19.8906 240.8516,20.2188 Q240.2188,20.5469 239.7266,21.2969 Q239.2344,22.0469 239.2344,23.0781 L239.2344,24.1719 Q239.2344,25.4063 240.125,26.2266 Q241.0156,27.0469 242.6094,27.0469 Q243.5469,27.0469 244.2031,26.7969 Q244.5938,26.6406 245.0156,26.2031 Q245.2813,25.9375 245.4297,25.8594 Q245.5781,25.7813 245.7813,25.7813 Q246.1094,25.7813 246.3672,26.0391 Q246.625,26.2969 246.625,26.6406 Q246.625,26.9844 246.2813,27.3906 Q245.7813,27.9688 244.9844,28.2969 Q243.9063,28.75 242.6094,28.75 Q241.0938,28.75 239.8906,28.125 Q238.9063,27.625 238.2188,26.5547 Q237.5313,25.4844 237.5313,24.2031 L237.5313,23.0469 Q237.5313,21.7188 238.1484,20.5703 Q238.7656,19.4219 239.8594,18.8047 Q240.9531,18.1875 242.1875,18.1875 Q242.9219,18.1875 243.5703,18.3516 Q244.2188,18.5156 244.7656,18.875 Z " fill="#000000"/><text fill="#000000" font-family="sans-serif" font-size="12" lengthAdjust="spacing" textLength="130" x="256" y="27.9102">Contribution_Statement</text><!--MD5=[e67d803be009978640e98815ecdddf28]
class Free_Text_Contribution--><rect codeLine="49" fill="#00FFFF" filter="url(#f195l3yu8istlb)" height="53.8359" id="Free_Text_Contribution" style="stroke:#A80036;stroke-width:1.5;" width="160" x="7" y="113"/><ellipse cx="22" cy="129" fill="#ADD1B2" rx="11" ry="11" style="stroke:#A80036;stroke-width:1.0;"/><path d="M24.7656,124.875 Q24.9219,124.6563 25.1094,124.5469 Q25.2969,124.4375 25.5156,124.4375 Q25.8906,124.4375 26.125,124.6953 Q26.3594,124.9531 26.3594,125.5625 L26.3594,127.0156 Q26.3594,127.625 26.125,127.8906 Q25.8906,128.1563 25.5156,128.1563 Q25.1719,128.1563 24.9688,127.9531 Q24.7656,127.7656 24.6563,127.25 Q24.6094,126.8906 24.4219,126.7031 Q24.0938,126.3281 23.4844,126.1094 Q22.875,125.8906 22.25,125.8906 Q21.4844,125.8906 20.8516,126.2188 Q20.2188,126.5469 19.7266,127.2969 Q19.2344,128.0469 19.2344,129.0781 L19.2344,130.1719 Q19.2344,131.4063 20.125,132.2266 Q21.0156,133.0469 22.6094,133.0469 Q23.5469,133.0469 24.2031,132.7969 Q24.5938,132.6406 25.0156,132.2031 Q25.2813,131.9375 25.4297,131.8594 Q25.5781,131.7813 25.7813,131.7813 Q26.1094,131.7813 26.3672,132.0391 Q26.625,132.2969 26.625,132.6406 Q26.625,132.9844 26.2813,133.3906 Q25.7813,133.9688 24.9844,134.2969 Q23.9063,134.75 22.6094,134.75 Q21.0938,134.75 19.8906,134.125 Q18.9063,133.625 18.2188,132.5547 Q17.5313,131.4844 17.5313,130.2031 L17.5313,129.0469 Q17.5313,127.7188 18.1484,126.5703 Q18.7656,125.4219 19.8594,124.8047 Q20.9531,124.1875 22.1875,124.1875 Q22.9219,124.1875 23.5703,124.3516 Q24.2188,124.5156 24.7656,124.875 Z " fill="#000000"/><text fill="#000000" font-family="sans-serif" font-size="12" lengthAdjust="spacing" textLength="128" x="36" y="133.9102">Free_Text_Contribution</text><line style="stroke:#A80036;stroke-width:1.5;" x1="8" x2="166" y1="145" y2="145"/><text fill="#000000" font-family="sans-serif" font-size="11" lengthAdjust="spacing" textLength="141" x="13" y="160.4189">statement : Multilingual_String</text><!--MD5=[9d44916250b776386006c440668bcfbb]
class Agent--><rect codeLine="22" fill="#00FFFF" filter="url(#f195l3yu8istlb)" height="32" id="Agent" style="stroke:#A80036;stroke-width:1.5;" width="63" x="448.5" y="124"/><ellipse cx="463.5" cy="140" fill="#ADD1B2" rx="11" ry="11" style="stroke:#A80036;stroke-width:1.0;"/><path d="M466.2656,135.875 Q466.4219,135.6563 466.6094,135.5469 Q466.7969,135.4375 467.0156,135.4375 Q467.3906,135.4375 467.625,135.6953 Q467.8594,135.9531 467.8594,136.5625 L467.8594,138.0156 Q467.8594,138.625 467.625,138.8906 Q467.3906,139.1563 467.0156,139.1563 Q466.6719,139.1563 466.4688,138.9531 Q466.2656,138.7656 466.1563,138.25 Q466.1094,137.8906 465.9219,137.7031 Q465.5938,137.3281 464.9844,137.1094 Q464.375,136.8906 463.75,136.8906 Q462.9844,136.8906 462.3516,137.2188 Q461.7188,137.5469 461.2266,138.2969 Q460.7344,139.0469 460.7344,140.0781 L460.7344,141.1719 Q460.7344,142.4063 461.625,143.2266 Q462.5156,144.0469 464.1094,144.0469 Q465.0469,144.0469 465.7031,143.7969 Q466.0938,143.6406 466.5156,143.2031 Q466.7813,142.9375 466.9297,142.8594 Q467.0781,142.7813 467.2813,142.7813 Q467.6094,142.7813 467.8672,143.0391 Q468.125,143.2969 468.125,143.6406 Q468.125,143.9844 467.7813,144.3906 Q467.2813,144.9688 466.4844,145.2969 Q465.4063,145.75 464.1094,145.75 Q462.5938,145.75 461.3906,145.125 Q460.4063,144.625 459.7188,143.5547 Q459.0313,142.4844 459.0313,141.2031 L459.0313,140.0469 Q459.0313,138.7188 459.6484,137.5703 Q460.2656,136.4219 461.3594,135.8047 Q462.4531,135.1875 463.6875,135.1875 Q464.4219,135.1875 465.0703,135.3516 Q465.7188,135.5156 466.2656,135.875 Z " fill="#000000"/><text fill="#000000" font-family="sans-serif" font-size="12" lengthAdjust="spacing" textLength="31" x="477.5" y="144.9102">Agent</text><!--MD5=[3d3814e6d18e193800c83fb27de84142]
class CRediT_Contribution_Statement--><rect codeLine="51" fill="#FEFECE" filter="url(#f195l3yu8istlb)" height="32" id="CRediT_Contribution_Statement" style="stroke:#A80036;stroke-width:1.5;" width="211" x="202.5" y="124"/><ellipse cx="217.5" cy="140" fill="#ADD1B2" rx="11" ry="11" style="stroke:#A80036;stroke-width:1.0;"/><path d="M220.2656,135.875 Q220.4219,135.6563 220.6094,135.5469 Q220.7969,135.4375 221.0156,135.4375 Q221.3906,135.4375 221.625,135.6953 Q221.8594,135.9531 221.8594,136.5625 L221.8594,138.0156 Q221.8594,138.625 221.625,138.8906 Q221.3906,139.1563 221.0156,139.1563 Q220.6719,139.1563 220.4688,138.9531 Q220.2656,138.7656 220.1563,138.25 Q220.1094,137.8906 219.9219,137.7031 Q219.5938,137.3281 218.9844,137.1094 Q218.375,136.8906 217.75,136.8906 Q216.9844,136.8906 216.3516,137.2188 Q215.7188,137.5469 215.2266,138.2969 Q214.7344,139.0469 214.7344,140.0781 L214.7344,141.1719 Q214.7344,142.4063 215.625,143.2266 Q216.5156,144.0469 218.1094,144.0469 Q219.0469,144.0469 219.7031,143.7969 Q220.0938,143.6406 220.5156,143.2031 Q220.7813,142.9375 220.9297,142.8594 Q221.0781,142.7813 221.2813,142.7813 Q221.6094,142.7813 221.8672,143.0391 Q222.125,143.2969 222.125,143.6406 Q222.125,143.9844 221.7813,144.3906 Q221.2813,144.9688 220.4844,145.2969 Q219.4063,145.75 218.1094,145.75 Q216.5938,145.75 215.3906,145.125 Q214.4063,144.625 213.7188,143.5547 Q213.0313,142.4844 213.0313,141.2031 L213.0313,140.0469 Q213.0313,138.7188 213.6484,137.5703 Q214.2656,136.4219 215.3594,135.8047 Q216.4531,135.1875 217.6875,135.1875 Q218.4219,135.1875 219.0703,135.3516 Q219.7188,135.5156 220.2656,135.875 Z " fill="#000000"/><text fill="#000000" font-family="sans-serif" font-size="12" lengthAdjust="spacing" textLength="179" x="231.5" y="144.9102">CRediT_Contribution_Statement</text><!--MD5=[42c2141a95e7f85966762f44b3023ac5]
class CRediT_Degree_of_Contribution--><rect codeLine="53" fill="#FEFECE" filter="url(#f195l3yu8istlb)" height="81.5078" id="CRediT_Degree_of_Contribution" style="stroke:#A80036;stroke-width:1.5;" width="213" x="95.5" y="317"/><ellipse cx="110.5" cy="333" fill="#EB937F" rx="11" ry="11" style="stroke:#A80036;stroke-width:1.0;"/><path d="M109.3594,333.7969 L109.3594,336.2969 L113.6875,336.2969 L113.6875,335.375 Q113.6875,334.7656 113.9297,334.5 Q114.1719,334.2344 114.5469,334.2344 Q114.9219,334.2344 115.1563,334.5 Q115.3906,334.7656 115.3906,335.375 L115.3906,338 L107.3906,338 Q106.7656,338 106.5078,337.7656 Q106.25,337.5313 106.25,337.1406 Q106.25,336.7656 106.5156,336.5313 Q106.7813,336.2969 107.3906,336.2969 L107.6563,336.2969 L107.6563,329.6406 L107.3906,329.6406 Q106.7656,329.6406 106.5078,329.4063 Q106.25,329.1719 106.25,328.7813 Q106.25,328.4063 106.5078,328.1719 Q106.7656,327.9375 107.3906,327.9375 L115.0156,327.9375 L115.0156,330.5313 Q115.0156,331.1406 114.7891,331.3984 Q114.5625,331.6563 114.1719,331.6563 Q113.7969,331.6563 113.5625,331.3984 Q113.3281,331.1406 113.3281,330.5313 L113.3281,329.6406 L109.3594,329.6406 L109.3594,332.0938 L110.8438,332.0938 Q110.8438,331.4375 110.9688,331.25 Q111.2344,330.8438 111.7031,330.8438 Q112.0781,330.8438 112.3125,331.1016 Q112.5469,331.3594 112.5469,331.9688 L112.5469,333.9375 Q112.5469,334.4844 112.4219,334.6719 Q112.1563,335.0625 111.7031,335.0625 Q111.2344,335.0625 110.9688,334.6563 Q110.8438,334.4688 110.8438,333.7969 L109.3594,333.7969 Z " fill="#000000"/><text fill="#000000" font-family="sans-serif" font-size="12" lengthAdjust="spacing" textLength="181" x="124.5" y="337.9102">CRediT_Degree_of_Contribution</text><line style="stroke:#A80036;stroke-width:1.5;" x1="96.5" x2="307.5" y1="349" y2="349"/><text fill="#000000" font-family="sans-serif" font-size="11" lengthAdjust="spacing" textLength="24" x="101.5" y="364.4189">Lead</text><text fill="#000000" font-family="sans-serif" font-size="11" lengthAdjust="spacing" textLength="52" x="101.5" y="378.2549">Supporting</text><text fill="#000000" font-family="sans-serif" font-size="11" lengthAdjust="spacing" textLength="26" x="101.5" y="392.0908">Equal</text><!--MD5=[b5846dfcb37d6127d0d9f5f5e77b1e64]
class CRediT_Role_Type--><rect codeLine="58" fill="#FEFECE" filter="url(#f195l3yu8istlb)" height="233.7031" id="CRediT_Role_Type" style="stroke:#A80036;stroke-width:1.5;" width="140" x="344" y="241"/><ellipse cx="359" cy="257" fill="#EB937F" rx="11" ry="11" style="stroke:#A80036;stroke-width:1.0;"/><path d="M357.8594,257.7969 L357.8594,260.2969 L362.1875,260.2969 L362.1875,259.375 Q362.1875,258.7656 362.4297,258.5 Q362.6719,258.2344 363.0469,258.2344 Q363.4219,258.2344 363.6563,258.5 Q363.8906,258.7656 363.8906,259.375 L363.8906,262 L355.8906,262 Q355.2656,262 355.0078,261.7656 Q354.75,261.5313 354.75,261.1406 Q354.75,260.7656 355.0156,260.5313 Q355.2813,260.2969 355.8906,260.2969 L356.1563,260.2969 L356.1563,253.6406 L355.8906,253.6406 Q355.2656,253.6406 355.0078,253.4063 Q354.75,253.1719 354.75,252.7813 Q354.75,252.4063 355.0078,252.1719 Q355.2656,251.9375 355.8906,251.9375 L363.5156,251.9375 L363.5156,254.5313 Q363.5156,255.1406 363.2891,255.3984 Q363.0625,255.6563 362.6719,255.6563 Q362.2969,255.6563 362.0625,255.3984 Q361.8281,255.1406 361.8281,254.5313 L361.8281,253.6406 L357.8594,253.6406 L357.8594,256.0938 L359.3438,256.0938 Q359.3438,255.4375 359.4688,255.25 Q359.7344,254.8438 360.2031,254.8438 Q360.5781,254.8438 360.8125,255.1016 Q361.0469,255.3594 361.0469,255.9688 L361.0469,257.9375 Q361.0469,258.4844 360.9219,258.6719 Q360.6563,259.0625 360.2031,259.0625 Q359.7344,259.0625 359.4688,258.6563 Q359.3438,258.4688 359.3438,257.7969 L357.8594,257.7969 Z " fill="#000000"/><text fill="#000000" font-family="sans-serif" font-size="12" lengthAdjust="spacing" textLength="108" x="373" y="261.9102">CRediT_Role_Type</text><line style="stroke:#A80036;stroke-width:1.5;" x1="345" x2="483" y1="273" y2="273"/><text fill="#000000" font-family="sans-serif" font-size="11" lengthAdjust="spacing" textLength="85" x="350" y="288.4189">Conceptualization</text><text fill="#000000" font-family="sans-serif" font-size="11" lengthAdjust="spacing" textLength="64" x="350" y="302.2549">Data curation</text><text fill="#000000" font-family="sans-serif" font-size="11" lengthAdjust="spacing" textLength="75" x="350" y="316.0908">Formal analysis</text><text fill="#000000" font-family="sans-serif" font-size="11" lengthAdjust="spacing" textLength="92" x="350" y="329.9268">Funding acquisition</text><text fill="#000000" font-family="sans-serif" font-size="11" lengthAdjust="spacing" textLength="60" x="350" y="343.7627">Investigation</text><text fill="#000000" font-family="sans-serif" font-size="11" lengthAdjust="spacing" textLength="61" x="350" y="357.5986">Methodology</text><text fill="#000000" font-family="sans-serif" font-size="11" lengthAdjust="spacing" textLength="102" x="350" y="371.4346">Project administration</text><text fill="#000000" font-family="sans-serif" font-size="11" lengthAdjust="spacing" textLength="53" x="350" y="385.2705">Resources</text><text fill="#000000" font-family="sans-serif" font-size="11" lengthAdjust="spacing" textLength="46" x="350" y="399.1064">Software</text><text fill="#000000" font-family="sans-serif" font-size="11" lengthAdjust="spacing" textLength="57" x="350" y="412.9424">Supervision</text><text fill="#000000" font-family="sans-serif" font-size="11" lengthAdjust="spacing" textLength="47" x="350" y="426.7783">Validation</text><text fill="#000000" font-family="sans-serif" font-size="11" lengthAdjust="spacing" textLength="61" x="350" y="440.6143">Visualization</text><text fill="#000000" font-family="sans-serif" font-size="11" lengthAdjust="spacing" textLength="103" x="350" y="454.4502">Writing - original draft</text><text fill="#000000" font-family="sans-serif" font-size="11" lengthAdjust="spacing" textLength="121" x="350" y="468.2861">Writing - review &amp; editing</text><!--MD5=[8d9b790276a1e6c61f0b091de629785c]
link Textual_Document to Document--><path codeLine="95" d="M760,39.03 C760,49.36 760,63.8 760,78.51 " fill="none" id="Textual_Document-to-Document" style="stroke:#A80036;stroke-width:1.0;"/><polygon fill="none" points="767,78.72,760,98.72,753,78.72,767,78.72" style="stroke:#A80036;stroke-width:1.0;"/><!--MD5=[b5c017ecc32f857930efae613c226920]
reverse link Contribution_Statement to Free_Text_Contribution--><path codeLine="75" d="M261.23,48.34 C224.78,67.31 174.28,93.58 137.03,112.97 " fill="none" id="Contribution_Statement-backto-Free_Text_Contribution" style="stroke:#A80036;stroke-width:1.0;"/><polygon fill="none" points="258.14,42.06,279.11,39.03,264.6,54.48,258.14,42.06" style="stroke:#A80036;stroke-width:1.0;"/><!--MD5=[1f014480a3afa8c0325c3be3fbf7ad6f]
link Contributorship to Document--><path codeLine="78" d="M663.73,140 C671.02,140 678.3,140 685.59,140 " fill="none" id="Contributorship-to-Document" style="stroke:#A80036;stroke-width:1.0;"/><polygon fill="#A80036" points="698.7,140,692.7,136,686.7,140,692.7,144,698.7,140" style="stroke:#A80036;stroke-width:1.0;"/><text fill="#000000" font-family="sans-serif" font-size="13" lengthAdjust="spacing" textLength="20" x="671.6769" y="136.6094">0..*</text><!--MD5=[504de05de5dc33320621ff1be2e6e6ff]
reverse link Agent to Contributorship--><path codeLine="81" d="M524.99,140 C532.11,140 539.23,140 546.35,140 " fill="none" id="Agent-backto-Contributorship" style="stroke:#A80036;stroke-width:1.0;"/><polygon fill="#A80036" points="511.74,140,517.74,144,523.74,140,517.74,136,511.74,140" style="stroke:#A80036;stroke-width:1.0;"/><text fill="#000000" font-family="sans-serif" font-size="13" lengthAdjust="spacing" textLength="87" x="463.2825" y="113.0545">0..1 contributor</text><text fill="#000000" font-family="sans-serif" font-size="13" lengthAdjust="spacing" textLength="20" x="519.547" y="154.6736">0..*</text><!--MD5=[302d116419dc4c6a2265e61d4260f04e]
link Contribution_Statement to Contributorship--><path codeLine="85" d="M359.77,39.04 C405.11,52.81 472.42,74.69 529,99 C530.76,99.75 532.53,100.53 534.3,101.33 " fill="none" id="Contribution_Statement-to-Contributorship" style="stroke:#A80036;stroke-width:1.0;"/><polygon fill="#A80036" points="546.11,106.86,542.3673,100.6962,535.2382,101.7803,538.9809,107.9441,546.11,106.86" style="stroke:#A80036;stroke-width:1.0;"/><text fill="#000000" font-family="sans-serif" font-size="13" lengthAdjust="spacing" textLength="158" x="192.7501" y="60.5566">0..* contributionStatements</text><!--MD5=[7276caa4191a3f95f28b5ba112f82c6c]
reverse link Contribution_Statement to CRediT_Contribution_Statement--><path codeLine="98" d="M308,59.19 C308,80.89 308,107.6 308,123.96 " fill="none" id="Contribution_Statement-backto-CRediT_Contribution_Statement" style="stroke:#A80036;stroke-width:1.0;"/><polygon fill="none" points="301,59.03,308,39.03,315,59.03,301,59.03" style="stroke:#A80036;stroke-width:1.0;"/><!--MD5=[fb8e7b03155fc2d9c40ee98c4cf95180]
link CRediT_Contribution_Statement to CRediT_Role_Type--><path codeLine="112" d="M315.45,156.19 C324.03,173.67 338.97,204.11 354.66,236.08 " fill="none" id="CRediT_Contribution_Statement-to-CRediT_Role_Type" style="stroke:#A80036;stroke-width:1.0;stroke-dasharray:7.0,7.0;"/><polygon fill="#A80036" points="356.98,240.8,356.5955,230.9587,354.7725,236.3137,349.4174,234.4907,356.98,240.8" style="stroke:#A80036;stroke-width:1.0;"/><text fill="#000000" font-family="sans-serif" font-size="13" lengthAdjust="spacing" textLength="49" x="302.7576" y="230.2953">roleType</text><!--MD5=[fd5d8cb6bc72986bd3560f3b69973f17]
link CRediT_Contribution_Statement to CRediT_Degree_of_Contribution--><path codeLine="113" d="M300.55,156.19 C284.84,188.19 247.83,263.61 223.9,312.36 " fill="none" id="CRediT_Contribution_Statement-to-CRediT_Degree_of_Contribution" style="stroke:#A80036;stroke-width:1.0;stroke-dasharray:7.0,7.0;"/><polygon fill="#A80036" points="221.63,317,229.1764,310.6714,223.8261,312.5081,221.9894,307.1577,221.63,317" style="stroke:#A80036;stroke-width:1.0;"/><text fill="#000000" font-family="sans-serif" font-size="13" lengthAdjust="spacing" textLength="121" x="93.6055" y="306.1458">degreeOfContribution</text><!--MD5=[68771a31184ce2de21075f40e8aae944]
@startuml

!includesub core.puml!common


    !includesub ./core.puml!Document
    !includesub ./core.puml!Contributorship
    !includesub ./core.puml!Agent

!includesub ./module.puml!CRediT

@enduml

@startuml

    	hide empty members


    class "Document"#00ffff {
        DOI : DOI_Type
        title : Multilingual_String
        publicationDate : Date
    }
    class "Textual_Document"#00ffff {
    }
    "Document" <|-u- "Textual_Document"
    class "Contributorship"#00ffff {
        contacts : List<URI>
        displayName : String
    }
    class "Contribution_Statement"#00ffff {
    }
    class "Free_Text_Contribution"#00ffff {
        statement : Multilingual_String
    }
    "Contribution_Statement" <|- - "Free_Text_Contribution"
    "Contributorship" "0..*" -r-* "Document"
    "Contributorship" "0..*" -l-* "0..1 contributor" "Agent"
    "Contributorship" *-u- "0..* contributionStatements" "Contribution_Statement"
    class "Agent"#00ffff {

        }

    class "CRediT_Contribution_Statement"{
    }
    enum "CRediT_Degree_of_Contribution"{
        Lead
        Supporting
        Equal
    }
    enum "CRediT_Role_Type"{
        Conceptualization
        Data curation
        Formal analysis
        Funding acquisition
        Investigation
        Methodology
        Project administration
        Resources
        Software
        Supervision
        Validation
        Visualization
        Writing - original draft
        Writing - review & editing
    }
    "Contribution_Statement" <|- - "CRediT_Contribution_Statement"
    "CRediT_Contribution_Statement" ..> "roleType" "CRediT_Role_Type"
    "CRediT_Contribution_Statement" ..> "degreeOfContribution" "CRediT_Degree_of_Contribution"

@enduml

PlantUML version 1.2021.8(Sat Jun 26 10:20:59 CEST 2021)
(GPL source distribution)
Java Runtime: Java(TM) SE Runtime Environment
JVM: Java HotSpot(TM) Client VM
Default Encoding: Cp1252
Language: en
Country: US
--></g></svg>