<?xml version="1.0" encoding="UTF-8" standalone="no"?><svg xmlns="http://www.w3.org/2000/svg" xmlns:xlink="http://www.w3.org/1999/xlink" contentScriptType="application/ecmascript" contentStyleType="text/css" height="606px" preserveAspectRatio="none" style="width:959px;height:606px;background:#FFFFFF;" version="1.1" viewBox="0 0 959 606" width="959px" zoomAndPan="magnify"><defs><filter height="300%" id="f8p2c0b9n3yz2" width="300%" x="-1" y="-1"><feGaussianBlur result="blurOut" stdDeviation="2.0"/><feColorMatrix in="blurOut" result="blurOut2" type="matrix" values="0 0 0 0 0 0 0 0 0 0 0 0 0 0 0 0 0 0 .4 0"/><feOffset dx="4.0" dy="4.0" in="blurOut2" result="blurOut3"/><feBlend in="SourceGraphic" in2="blurOut3" mode="normal"/></filter></defs><g><!--MD5=[6b13f1b330d33795af281e5c1dfe1e98]
class Resource--><rect codeLine="236" fill="#FFFFFF" filter="url(#f8p2c0b9n3yz2)" height="32" id="Resource" style="stroke:#A80036;stroke-width:1.5;" width="91" x="7" y="160.5"/><ellipse cx="22" cy="176.5" fill="#ADD1B2" rx="11" ry="11" style="stroke:#A80036;stroke-width:1.0;"/><path d="M24.9688,182.1406 Q24.3906,182.4375 23.75,182.5781 Q23.1094,182.7344 22.4063,182.7344 Q19.9063,182.7344 18.5781,181.0938 Q17.2656,179.4375 17.2656,176.3125 Q17.2656,173.1875 18.5781,171.5313 Q19.9063,169.875 22.4063,169.875 Q23.1094,169.875 23.75,170.0313 Q24.4063,170.1875 24.9688,170.4844 L24.9688,173.2031 Q24.3438,172.625 23.75,172.3594 Q23.1563,172.0781 22.5313,172.0781 Q21.1875,172.0781 20.5,173.1563 Q19.8125,174.2188 19.8125,176.3125 Q19.8125,178.4063 20.5,179.4844 Q21.1875,180.5469 22.5313,180.5469 Q23.1563,180.5469 23.75,180.2813 Q24.3438,180 24.9688,179.4219 L24.9688,182.1406 Z " fill="#000000"/><text fill="#000000" font-family="sans-serif" font-size="12" lengthAdjust="spacing" textLength="59" x="36" y="180.6543">Resource</text><!--MD5=[59b530d44ae785dc18db921986a9c15c]
class Document--><rect codeLine="254" fill="#FFFFFF" filter="url(#f8p2c0b9n3yz2)" height="65.6094" id="Document" style="stroke:#A80036;stroke-width:1.5;" width="148" x="783.5" y="7"/><ellipse cx="821.9" cy="23" fill="#ADD1B2" rx="11" ry="11" style="stroke:#A80036;stroke-width:1.0;"/><path d="M824.8688,28.6406 Q824.2906,28.9375 823.65,29.0781 Q823.0094,29.2344 822.3063,29.2344 Q819.8063,29.2344 818.4781,27.5938 Q817.1656,25.9375 817.1656,22.8125 Q817.1656,19.6875 818.4781,18.0313 Q819.8063,16.375 822.3063,16.375 Q823.0094,16.375 823.65,16.5313 Q824.3063,16.6875 824.8688,16.9844 L824.8688,19.7031 Q824.2438,19.125 823.65,18.8594 Q823.0563,18.5781 822.4313,18.5781 Q821.0875,18.5781 820.4,19.6563 Q819.7125,20.7188 819.7125,22.8125 Q819.7125,24.9063 820.4,25.9844 Q821.0875,27.0469 822.4313,27.0469 Q823.0563,27.0469 823.65,26.7813 Q824.2438,26.5 824.8688,25.9219 L824.8688,28.6406 Z " fill="#000000"/><text fill="#000000" font-family="sans-serif" font-size="12" lengthAdjust="spacing" textLength="64" x="841.1" y="27.1543">Document</text><line style="stroke:#A80036;stroke-width:1.5;" x1="784.5" x2="930.5" y1="39" y2="39"/><text fill="#000000" font-family="sans-serif" font-size="11" lengthAdjust="spacing" textLength="136" x="789.5" y="53.2104">title : Multilingual_String</text><text fill="#000000" font-family="sans-serif" font-size="11" lengthAdjust="spacing" textLength="125" x="789.5" y="66.0151">publicationDate : Date</text><!--MD5=[c881b25adf3665c6568c9693d41a70f3]
class Activity--><rect codeLine="141" fill="#FFFFFF" filter="url(#f8p2c0b9n3yz2)" height="52.8047" id="Activity" style="stroke:#A80036;stroke-width:1.5;" width="151" x="691" y="150"/><ellipse cx="740.75" cy="166" fill="#ADD1B2" rx="11" ry="11" style="stroke:#A80036;stroke-width:1.0;"/><path d="M743.7188,171.6406 Q743.1406,171.9375 742.5,172.0781 Q741.8594,172.2344 741.1563,172.2344 Q738.6563,172.2344 737.3281,170.5938 Q736.0156,168.9375 736.0156,165.8125 Q736.0156,162.6875 737.3281,161.0313 Q738.6563,159.375 741.1563,159.375 Q741.8594,159.375 742.5,159.5313 Q743.1563,159.6875 743.7188,159.9844 L743.7188,162.7031 Q743.0938,162.125 742.5,161.8594 Q741.9063,161.5781 741.2813,161.5781 Q739.9375,161.5781 739.25,162.6563 Q738.5625,163.7188 738.5625,165.8125 Q738.5625,167.9063 739.25,168.9844 Q739.9375,170.0469 741.2813,170.0469 Q741.9063,170.0469 742.5,169.7813 Q743.0938,169.5 743.7188,168.9219 L743.7188,171.6406 Z " fill="#000000"/><text fill="#000000" font-family="sans-serif" font-size="12" lengthAdjust="spacing" textLength="43" x="761.25" y="170.1543">Activity</text><line style="stroke:#A80036;stroke-width:1.5;" x1="692" x2="841" y1="182" y2="182"/><text fill="#000000" font-family="sans-serif" font-size="11" lengthAdjust="spacing" textLength="139" x="697" y="196.2104">dateRange : Date_Range</text><!--MD5=[9d44916250b776386006c440668bcfbb]
class Agent--><rect codeLine="10" fill="#FFFFFF" filter="url(#f8p2c0b9n3yz2)" height="78.4141" id="Agent" style="stroke:#A80036;stroke-width:1.5;" width="224" x="473.5" y="350.5"/><ellipse cx="562.75" cy="366.5" fill="#ADD1B2" rx="11" ry="11" style="stroke:#A80036;stroke-width:1.0;"/><path d="M565.7188,372.1406 Q565.1406,372.4375 564.5,372.5781 Q563.8594,372.7344 563.1563,372.7344 Q560.6563,372.7344 559.3281,371.0938 Q558.0156,369.4375 558.0156,366.3125 Q558.0156,363.1875 559.3281,361.5313 Q560.6563,359.875 563.1563,359.875 Q563.8594,359.875 564.5,360.0313 Q565.1563,360.1875 565.7188,360.4844 L565.7188,363.2031 Q565.0938,362.625 564.5,362.3594 Q563.9063,362.0781 563.2813,362.0781 Q561.9375,362.0781 561.25,363.1563 Q560.5625,364.2188 560.5625,366.3125 Q560.5625,368.4063 561.25,369.4844 Q561.9375,370.5469 563.2813,370.5469 Q563.9063,370.5469 564.5,370.2813 Q565.0938,370 565.7188,369.4219 L565.7188,372.1406 Z " fill="#000000"/><text fill="#000000" font-family="sans-serif" font-size="12" lengthAdjust="spacing" textLength="37" x="583.25" y="370.6543">Agent</text><line style="stroke:#A80036;stroke-width:1.5;" x1="474.5" x2="696.5" y1="382.5" y2="382.5"/><text fill="#000000" font-family="sans-serif" font-size="11" lengthAdjust="spacing" textLength="207" x="479.5" y="396.7104">keywords : List&lt;Multilingual_String&gt;</text><text fill="#000000" font-family="sans-serif" font-size="11" lengthAdjust="spacing" textLength="121" x="479.5" y="409.5151">lifetime : Date_Range</text><text fill="#000000" font-family="sans-serif" font-size="11" lengthAdjust="spacing" textLength="212" x="479.5" y="422.3198">contacts : List&lt;Contact_Information&gt;</text><!--MD5=[0330879a1a385efee19ba3488ed490fa]
class Contribution--><rect codeLine="184" fill="#FFFFFF" filter="url(#f8p2c0b9n3yz2)" height="32" id="Contribution" style="stroke:#A80036;stroke-width:1.5;" width="109" x="733" y="373.5"/><ellipse cx="748" cy="389.5" fill="#ADD1B2" rx="11" ry="11" style="stroke:#A80036;stroke-width:1.0;"/><path d="M750.9688,395.1406 Q750.3906,395.4375 749.75,395.5781 Q749.1094,395.7344 748.4063,395.7344 Q745.9063,395.7344 744.5781,394.0938 Q743.2656,392.4375 743.2656,389.3125 Q743.2656,386.1875 744.5781,384.5313 Q745.9063,382.875 748.4063,382.875 Q749.1094,382.875 749.75,383.0313 Q750.4063,383.1875 750.9688,383.4844 L750.9688,386.2031 Q750.3438,385.625 749.75,385.3594 Q749.1563,385.0781 748.5313,385.0781 Q747.1875,385.0781 746.5,386.1563 Q745.8125,387.2188 745.8125,389.3125 Q745.8125,391.4063 746.5,392.4844 Q747.1875,393.5469 748.5313,393.5469 Q749.1563,393.5469 749.75,393.2813 Q750.3438,393 750.9688,392.4219 L750.9688,395.1406 Z " fill="#000000"/><text fill="#000000" font-family="sans-serif" font-size="12" lengthAdjust="spacing" textLength="77" x="762" y="393.6543">Contribution</text><!--MD5=[532fe005ca0bef0ad6b309c9c6480e22]
class Contribution_Statement--><rect fill="#FEFECE" filter="url(#f8p2c0b9n3yz2)" height="32" id="Contribution_Statement" style="stroke:#A80036;stroke-width:1.5;" width="181" x="34" y="24"/><ellipse cx="49" cy="40" fill="#ADD1B2" rx="11" ry="11" style="stroke:#A80036;stroke-width:1.0;"/><path d="M51.9688,45.6406 Q51.3906,45.9375 50.75,46.0781 Q50.1094,46.2344 49.4063,46.2344 Q46.9063,46.2344 45.5781,44.5938 Q44.2656,42.9375 44.2656,39.8125 Q44.2656,36.6875 45.5781,35.0313 Q46.9063,33.375 49.4063,33.375 Q50.1094,33.375 50.75,33.5313 Q51.4063,33.6875 51.9688,33.9844 L51.9688,36.7031 Q51.3438,36.125 50.75,35.8594 Q50.1563,35.5781 49.5313,35.5781 Q48.1875,35.5781 47.5,36.6563 Q46.8125,37.7188 46.8125,39.8125 Q46.8125,41.9063 47.5,42.9844 Q48.1875,44.0469 49.5313,44.0469 Q50.1563,44.0469 50.75,43.7813 Q51.3438,43.5 51.9688,42.9219 L51.9688,45.6406 Z " fill="#000000"/><text fill="#000000" font-family="sans-serif" font-size="12" lengthAdjust="spacing" textLength="149" x="63" y="44.1543">Contribution_Statement</text><!--MD5=[05151c161079be2c12996cf31a3c6866]
class Contribution_to_Document--><rect codeLine="202" fill="#FFFFFF" filter="url(#f8p2c0b9n3yz2)" height="32" id="Contribution_to_Document" style="stroke:#A80036;stroke-width:1.5;" width="198" x="742.5" y="560"/><ellipse cx="757.5" cy="576" fill="#ADD1B2" rx="11" ry="11" style="stroke:#A80036;stroke-width:1.0;"/><path d="M760.4688,581.6406 Q759.8906,581.9375 759.25,582.0781 Q758.6094,582.2344 757.9063,582.2344 Q755.4063,582.2344 754.0781,580.5938 Q752.7656,578.9375 752.7656,575.8125 Q752.7656,572.6875 754.0781,571.0313 Q755.4063,569.375 757.9063,569.375 Q758.6094,569.375 759.25,569.5313 Q759.9063,569.6875 760.4688,569.9844 L760.4688,572.7031 Q759.8438,572.125 759.25,571.8594 Q758.6563,571.5781 758.0313,571.5781 Q756.6875,571.5781 756,572.6563 Q755.3125,573.7188 755.3125,575.8125 Q755.3125,577.9063 756,578.9844 Q756.6875,580.0469 758.0313,580.0469 Q758.6563,580.0469 759.25,579.7813 Q759.8438,579.5 760.4688,578.9219 L760.4688,581.6406 Z " fill="#000000"/><text fill="#000000" font-family="sans-serif" font-size="12" lengthAdjust="spacing" textLength="166" x="771.5" y="580.1543">Contribution_to_Document</text><!--MD5=[3d3814e6d18e193800c83fb27de84142]
class CRediT_Contribution_Statement--><rect codeLine="102" fill="#DDEEDD" filter="url(#f8p2c0b9n3yz2)" height="32" id="CRediT_Contribution_Statement" style="stroke:#A80036;stroke-width:1.5;" width="229" x="133" y="160.5"/><ellipse cx="148" cy="176.5" fill="#ADD1B2" rx="11" ry="11" style="stroke:#A80036;stroke-width:1.0;"/><path d="M150.9688,182.1406 Q150.3906,182.4375 149.75,182.5781 Q149.1094,182.7344 148.4063,182.7344 Q145.9063,182.7344 144.5781,181.0938 Q143.2656,179.4375 143.2656,176.3125 Q143.2656,173.1875 144.5781,171.5313 Q145.9063,169.875 148.4063,169.875 Q149.1094,169.875 149.75,170.0313 Q150.4063,170.1875 150.9688,170.4844 L150.9688,173.2031 Q150.3438,172.625 149.75,172.3594 Q149.1563,172.0781 148.5313,172.0781 Q147.1875,172.0781 146.5,173.1563 Q145.8125,174.2188 145.8125,176.3125 Q145.8125,178.4063 146.5,179.4844 Q147.1875,180.5469 148.5313,180.5469 Q149.1563,180.5469 149.75,180.2813 Q150.3438,180 150.9688,179.4219 L150.9688,182.1406 Z " fill="#000000"/><text fill="#000000" font-family="sans-serif" font-size="12" lengthAdjust="spacing" textLength="197" x="162" y="180.6543">CRediT_Contribution_Statement</text><!--MD5=[42c2141a95e7f85966762f44b3023ac5]
class CRediT_Degree_of_Contribution--><rect codeLine="104" fill="#DDEEDD" filter="url(#f8p2c0b9n3yz2)" height="78.4141" id="CRediT_Degree_of_Contribution" style="stroke:#A80036;stroke-width:1.5;" width="227" x="21" y="350.5"/><ellipse cx="36" cy="366.5" fill="#EB937F" rx="11" ry="11" style="stroke:#A80036;stroke-width:1.0;"/><path d="M40.1094,372.5 L32.3906,372.5 L32.3906,360.1094 L40.1094,360.1094 L40.1094,362.2656 L34.8438,362.2656 L34.8438,364.9375 L39.6094,364.9375 L39.6094,367.0938 L34.8438,367.0938 L34.8438,370.3438 L40.1094,370.3438 L40.1094,372.5 Z " fill="#000000"/><text fill="#000000" font-family="sans-serif" font-size="12" lengthAdjust="spacing" textLength="195" x="50" y="370.6543">CRediT_Degree_of_Contribution</text><line style="stroke:#A80036;stroke-width:1.5;" x1="22" x2="247" y1="382.5" y2="382.5"/><text fill="#000000" font-family="sans-serif" font-size="11" lengthAdjust="spacing" textLength="27" x="27" y="396.7104">Lead</text><text fill="#000000" font-family="sans-serif" font-size="11" lengthAdjust="spacing" textLength="62" x="27" y="409.5151">Supporting</text><text fill="#000000" font-family="sans-serif" font-size="11" lengthAdjust="spacing" textLength="31" x="27" y="422.3198">Equal</text><!--MD5=[b5846dfcb37d6127d0d9f5f5e77b1e64]
class CRediT_Role_Type--><rect codeLine="109" fill="#DDEEDD" filter="url(#f8p2c0b9n3yz2)" height="219.2656" id="CRediT_Role_Type" style="stroke:#A80036;stroke-width:1.5;" width="155" x="283" y="280"/><ellipse cx="303.85" cy="296" fill="#EB937F" rx="11" ry="11" style="stroke:#A80036;stroke-width:1.0;"/><path d="M307.9594,302 L300.2406,302 L300.2406,289.6094 L307.9594,289.6094 L307.9594,291.7656 L302.6938,291.7656 L302.6938,294.4375 L307.4594,294.4375 L307.4594,296.5938 L302.6938,296.5938 L302.6938,299.8438 L307.9594,299.8438 L307.9594,302 Z " fill="#000000"/><text fill="#000000" font-family="sans-serif" font-size="12" lengthAdjust="spacing" textLength="110" x="319.15" y="300.1543">CRediT_Role_Type</text><line style="stroke:#A80036;stroke-width:1.5;" x1="284" x2="437" y1="312" y2="312"/><text fill="#000000" font-family="sans-serif" font-size="11" lengthAdjust="spacing" textLength="99" x="289" y="326.2104">Conceptualization</text><text fill="#000000" font-family="sans-serif" font-size="11" lengthAdjust="spacing" textLength="76" x="289" y="339.0151">Data curation</text><text fill="#000000" font-family="sans-serif" font-size="11" lengthAdjust="spacing" textLength="90" x="289" y="351.8198">Formal analysis</text><text fill="#000000" font-family="sans-serif" font-size="11" lengthAdjust="spacing" textLength="109" x="289" y="364.6245">Funding acquisition</text><text fill="#000000" font-family="sans-serif" font-size="11" lengthAdjust="spacing" textLength="72" x="289" y="377.4292">Investigation</text><text fill="#000000" font-family="sans-serif" font-size="11" lengthAdjust="spacing" textLength="71" x="289" y="390.2339">Methodology</text><text fill="#000000" font-family="sans-serif" font-size="11" lengthAdjust="spacing" textLength="125" x="289" y="403.0386">Project administration</text><text fill="#000000" font-family="sans-serif" font-size="11" lengthAdjust="spacing" textLength="60" x="289" y="415.8433">Resources</text><text fill="#000000" font-family="sans-serif" font-size="11" lengthAdjust="spacing" textLength="51" x="289" y="428.6479">Software</text><text fill="#000000" font-family="sans-serif" font-size="11" lengthAdjust="spacing" textLength="67" x="289" y="441.4526">Supervision</text><text fill="#000000" font-family="sans-serif" font-size="11" lengthAdjust="spacing" textLength="55" x="289" y="454.2573">Validation</text><text fill="#000000" font-family="sans-serif" font-size="11" lengthAdjust="spacing" textLength="70" x="289" y="467.062">Visualization</text><text fill="#000000" font-family="sans-serif" font-size="11" lengthAdjust="spacing" textLength="123" x="289" y="479.8667">Writing - original draft</text><text fill="#000000" font-family="sans-serif" font-size="11" lengthAdjust="spacing" textLength="143" x="289" y="492.6714">Writing - review &amp; editing</text><!--MD5=[ff9dfe2dddb5fe4a69020d7834f0d207]
link Document to Activity--><path codeLine="220" d="M835.7,73.22 C819.82,96.69 798.6,128.06 783.86,149.84 " fill="none" id="Document-Activity" style="stroke:#A80036;stroke-width:1.0;"/><polygon fill="#000000" points="817.6981,115.7076,825.2009,109.863,820.3326,106.5692,817.6981,115.7076" style="stroke:#000000;stroke-width:1.0;"/><text fill="#000000" font-family="sans-serif" font-size="13" lengthAdjust="spacing" textLength="36" x="829.5" y="116.0669">prove</text><text fill="#000000" font-family="sans-serif" font-size="13" lengthAdjust="spacing" textLength="23" x="806.7684" y="92.5868">0..*</text><text fill="#000000" font-family="sans-serif" font-size="13" lengthAdjust="spacing" textLength="23" x="762.2151" y="139.0453">0..*</text><!--MD5=[cd935cc757d29bd6a59b1252b30899e0]
link Activity to Agent--><path codeLine="226" d="M743.17,203.04 C734.7,212.4 725.1,223.12 716.5,233 C683.43,270.95 646.56,314.87 620.38,346.33 " fill="none" id="Activity-to-Agent" style="stroke:#A80036;stroke-width:1.0;"/><polygon fill="#A80036" points="616.92,350.5,625.753,346.1435,620.1195,346.6577,619.6053,341.0243,616.92,350.5" style="stroke:#A80036;stroke-width:1.0;"/><polygon fill="#000000" points="718.2465,245.3631,726.3638,240.4072,721.9005,236.5825,718.2465,245.3631" style="stroke:#000000;stroke-width:1.0;"/><text fill="#000000" font-family="sans-serif" font-size="13" lengthAdjust="spacing" textLength="33" x="730.5" y="246.0669">actor</text><text fill="#000000" font-family="sans-serif" font-size="13" lengthAdjust="spacing" textLength="23" x="712.1156" y="223.0166">0..*</text><text fill="#000000" font-family="sans-serif" font-size="13" lengthAdjust="spacing" textLength="24" x="596.2578" y="339.5505">0..1</text><!--MD5=[55f20054f286b2e7074e8d22fab1f608]
reverse link Activity to Contribution--><path codeLine="189" d="M771.06,223.3 C775.79,270.86 782.93,342.57 786,373.46 " fill="none" id="Activity-backto-Contribution" style="stroke:#A80036;stroke-width:1.0;"/><polygon fill="none" points="764.09,223.97,769.08,203.37,778.02,222.58,764.09,223.97" style="stroke:#A80036;stroke-width:1.0;"/><!--MD5=[b01ee177fc17bf8bb95324fc01c31b3b]
link Contribution_Statement to Resource--><path codeLine="569" d="M116.38,56.17 C103.31,80.59 77.6,128.61 63.1,155.7 " fill="none" id="Contribution_Statement-to-Resource" style="stroke:#A80036;stroke-width:1.0;"/><polygon fill="#A80036" points="60.7,160.18,68.4759,154.1356,63.0611,155.7726,61.4241,150.3578,60.7,160.18" style="stroke:#A80036;stroke-width:1.0;"/><polygon fill="#000000" points="94.1403,115.9745,101.0001,109.3872,95.818,106.6131,94.1403,115.9745" style="stroke:#000000;stroke-width:1.0;"/><text fill="#000000" font-family="sans-serif" font-size="13" lengthAdjust="spacing" textLength="54" x="105.5" y="116.0669">provides</text><text fill="#000000" font-family="sans-serif" font-size="13" lengthAdjust="spacing" textLength="24" x="35.4413" y="149.3785">0..1</text><!--MD5=[8d7c614e8203540f95956299e63d224a]
reverse link Contribution to Contribution_to_Document--><path codeLine="207" d="M797.56,424.88 C809.4,465.32 828.52,530.66 837.1,559.95 " fill="none" id="Contribution-backto-Contribution_to_Document" style="stroke:#A80036;stroke-width:1.0;"/><polygon fill="none" points="790.82,426.76,791.92,405.6,804.26,422.83,790.82,426.76" style="stroke:#A80036;stroke-width:1.0;"/><!--MD5=[117c8d017b65f89954aa553a8ad2cfe8]
link Contribution_to_Document to Document--><path codeLine="553" d="M846.42,559.71 C849.07,551.06 852.26,540 854.5,530 C857.55,516.38 858.13,512.89 859.5,499 C876.06,331.26 870.39,288.53 873.5,120 C873.64,112.45 874.45,110.5 873.5,103 C872.47,94.87 870.7,86.29 868.72,78.18 " fill="none" id="Contribution_to_Document-to-Document" style="stroke:#A80036;stroke-width:1.0;"/><polygon fill="#A80036" points="867.45,73.2,865.7859,82.9073,868.6795,78.0465,873.5403,80.9401,867.45,73.2" style="stroke:#A80036;stroke-width:1.0;"/><polygon fill="#000000" points="877.7313,236.5718,874.3771,245.4712,880.2486,245.7431,877.7313,236.5718" style="stroke:#000000;stroke-width:1.0;"/><text fill="#000000" font-family="sans-serif" font-size="13" lengthAdjust="spacing" textLength="65" x="886.5" y="246.0669">document</text><!--MD5=[7276caa4191a3f95f28b5ba112f82c6c]
reverse link Contribution_Statement to CRediT_Contribution_Statement--><path codeLine="145" d="M152.09,71.17 C177.37,98.81 213.76,138.6 233.49,160.18 " fill="none" id="Contribution_Statement-backto-CRediT_Contribution_Statement" style="stroke:#A80036;stroke-width:1.0;"/><polygon fill="none" points="146.7,75.65,138.37,56.17,157.03,66.2,146.7,75.65" style="stroke:#A80036;stroke-width:1.0;"/><!--MD5=[fb8e7b03155fc2d9c40ee98c4cf95180]
link CRediT_Contribution_Statement to CRediT_Role_Type--><path codeLine="158" d="M255.63,192.67 C265.29,210.72 282.33,242.53 299.9,275.34 " fill="none" id="CRediT_Contribution_Statement-to-CRediT_Role_Type" style="stroke:#A80036;stroke-width:1.0;stroke-dasharray:7.0,7.0;"/><polygon fill="#A80036" points="302.27,279.77,301.5212,269.9496,299.8978,275.3686,294.4789,273.7452,302.27,279.77" style="stroke:#A80036;stroke-width:1.0;"/><text fill="#000000" font-family="sans-serif" font-size="13" lengthAdjust="spacing" textLength="54" x="242.5436" y="268.956">roleType</text><!--MD5=[fd5d8cb6bc72986bd3560f3b69973f17]
link CRediT_Contribution_Statement to CRediT_Degree_of_Contribution--><path codeLine="161" d="M239.37,192.67 C222.41,224.35 182.71,298.48 157.31,345.9 " fill="none" id="CRediT_Contribution_Statement-to-CRediT_Degree_of_Contribution" style="stroke:#A80036;stroke-width:1.0;stroke-dasharray:7.0,7.0;"/><polygon fill="#A80036" points="154.9,350.4,162.6678,344.3451,157.2552,345.9894,155.6108,340.5768,154.9,350.4" style="stroke:#A80036;stroke-width:1.0;"/><text fill="#000000" font-family="sans-serif" font-size="13" lengthAdjust="spacing" textLength="137" x="9.6328" y="339.4333">degreeOfContribution</text><!--MD5=[ea14c72558cfa08c35081e0fbc6d97a6]
@startuml

    !includesub ../../CERIF-Core/diagrams/core.puml!common

    !includesub ../../CERIF-Core/diagrams/core.puml!Resource
    !includesub ../../CERIF-Core/diagrams/core.puml!Document
    !includesub ../../CERIF-Core/diagrams/core.puml!Activity
    !includesub ../../CERIF-Core/diagrams/core.puml!Contribution
    !includesub ../../CERIF-Core/diagrams/core.puml!Contribution_to_Document
    !includesub ../../CERIF-Core/diagrams/core.puml!Agent

    !includesub ./module.puml!CRediT

@enduml

@startuml

    hide empty members
    skinparam BoxPadding 120

    class "Resource" #ffffff {
    }
    class "Document" #ffffff {
        title : Multilingual_String
        publicationDate : Date
    }
    class "Activity" #ffffff {
  		dateRange : Date_Range
    }
	"Document" "0..*" - - "0..*" "Activity" : prove >
    "Activity" "0..*" - -> "0..1" "Agent" : actor >
    class "Contribution" #ffffff {
    }
    "Activity" <|-d- "Contribution"
     "Contribution_Statement" - -> "0..1" "Resource" : provides >
    class "Contribution_to_Document" #ffffff {
    }
    "Contribution" <|-d- "Contribution_to_Document"
    "Contribution_to_Document" - -> "Document" : document >
    class "Agent" #ffffff {
        keywords : List<Multilingual_String>
    	lifetime : Date_Range
    	contacts : List<Contact_Information>
    }

        class "CRediT_Contribution_Statement" #ddeedd {
        }
        enum "CRediT_Degree_of_Contribution" #ddeedd {
            Lead
            Supporting
            Equal
        }
        enum "CRediT_Role_Type" #ddeedd {
            Conceptualization
            Data curation
            Formal analysis
            Funding acquisition
            Investigation
            Methodology
            Project administration
            Resources
            Software
            Supervision
            Validation
            Visualization
            Writing - original draft
            Writing - review & editing
        }
        "Contribution_Statement" <|- - "CRediT_Contribution_Statement"
        "CRediT_Contribution_Statement" ..> "roleType" "CRediT_Role_Type"
        "CRediT_Contribution_Statement" ..> "degreeOfContribution" "CRediT_Degree_of_Contribution"

@enduml

PlantUML version 1.2021.8(Sat Jun 26 08:20:59 UTC 2021)
(GPL source distribution)
Java Runtime: OpenJDK Runtime Environment
JVM: OpenJDK 64-Bit Server VM
Default Encoding: UTF-8
Language: en
Country: null
--></g></svg>