<?xml version="1.0" encoding="UTF-8" standalone="no"?><svg xmlns="http://www.w3.org/2000/svg" xmlns:xlink="http://www.w3.org/1999/xlink" contentScriptType="application/ecmascript" contentStyleType="text/css" height="504px" preserveAspectRatio="none" style="width:1024px;height:504px;background:#FFFFFF;" version="1.1" viewBox="0 0 1024 504" width="1024px" zoomAndPan="magnify"><defs><filter height="300%" id="f1c34ge7kkipke" width="300%" x="-1" y="-1"><feGaussianBlur result="blurOut" stdDeviation="2.0"/><feColorMatrix in="blurOut" result="blurOut2" type="matrix" values="0 0 0 0 0 0 0 0 0 0 0 0 0 0 0 0 0 0 .4 0"/><feOffset dx="4.0" dy="4.0" in="blurOut2" result="blurOut3"/><feBlend in="SourceGraphic" in2="blurOut3" mode="normal"/></filter></defs><g><!--MD5=[0ce99cd3eae675f87caad727cac20a4b]
cluster CERIF core--><polygon fill="#EFEFEF" filter="url(#f1c34ge7kkipke)" points="16,6,106,6,113,28.2969,687,28.2969,687,227,16,227,16,6" style="stroke:#000000;stroke-width:1.5;"/><line style="stroke:#000000;stroke-width:1.5;" x1="16" x2="113" y1="28.2969" y2="28.2969"/><text fill="#000000" font-family="sans-serif" font-size="14" font-weight="bold" lengthAdjust="spacing" textLength="84" x="20" y="20.9951">CERIF core</text><!--MD5=[59b530d44ae785dc18db921986a9c15c]
class Document--><rect codeLine="7" fill="#FEFECE" filter="url(#f1c34ge7kkipke)" height="78.4141" id="Document" style="stroke:#A80036;stroke-width:1.5;" width="148" x="32" y="133"/><ellipse cx="70.4" cy="149" fill="#ADD1B2" rx="11" ry="11" style="stroke:#A80036;stroke-width:1.0;"/><path d="M73.3688,154.6406 Q72.7906,154.9375 72.15,155.0781 Q71.5094,155.2344 70.8063,155.2344 Q68.3063,155.2344 66.9781,153.5938 Q65.6656,151.9375 65.6656,148.8125 Q65.6656,145.6875 66.9781,144.0313 Q68.3063,142.375 70.8063,142.375 Q71.5094,142.375 72.15,142.5313 Q72.8063,142.6875 73.3688,142.9844 L73.3688,145.7031 Q72.7438,145.125 72.15,144.8594 Q71.5563,144.5781 70.9313,144.5781 Q69.5875,144.5781 68.9,145.6563 Q68.2125,146.7188 68.2125,148.8125 Q68.2125,150.9063 68.9,151.9844 Q69.5875,153.0469 70.9313,153.0469 Q71.5563,153.0469 72.15,152.7813 Q72.7438,152.5 73.3688,151.9219 L73.3688,154.6406 Z " fill="#000000"/><text fill="#000000" font-family="sans-serif" font-size="12" lengthAdjust="spacing" textLength="64" x="89.6" y="153.1543">Document</text><line style="stroke:#A80036;stroke-width:1.5;" x1="33" x2="179" y1="165" y2="165"/><text fill="#000000" font-family="sans-serif" font-size="11" lengthAdjust="spacing" textLength="136" x="38" y="179.2104">title : Multilingual_String</text><text fill="#000000" font-family="sans-serif" font-size="11" lengthAdjust="spacing" textLength="125" x="38" y="192.0151">publicationDate : Date</text><text fill="#000000" font-family="sans-serif" font-size="11" lengthAdjust="spacing" textLength="85" x="38" y="204.8198">DOI : DOI_Type</text><!--MD5=[fe105c2ee1fabf2400c31a97ce9128bc]
class Textual_Document--><rect codeLine="12" fill="#FEFECE" filter="url(#f1c34ge7kkipke)" height="32" id="Textual_Document" style="stroke:#A80036;stroke-width:1.5;" width="147" x="32.5" y="41"/><ellipse cx="47.5" cy="57" fill="#ADD1B2" rx="11" ry="11" style="stroke:#A80036;stroke-width:1.0;"/><path d="M50.4688,62.6406 Q49.8906,62.9375 49.25,63.0781 Q48.6094,63.2344 47.9063,63.2344 Q45.4063,63.2344 44.0781,61.5938 Q42.7656,59.9375 42.7656,56.8125 Q42.7656,53.6875 44.0781,52.0313 Q45.4063,50.375 47.9063,50.375 Q48.6094,50.375 49.25,50.5313 Q49.9063,50.6875 50.4688,50.9844 L50.4688,53.7031 Q49.8438,53.125 49.25,52.8594 Q48.6563,52.5781 48.0313,52.5781 Q46.6875,52.5781 46,53.6563 Q45.3125,54.7188 45.3125,56.8125 Q45.3125,58.9063 46,59.9844 Q46.6875,61.0469 48.0313,61.0469 Q48.6563,61.0469 49.25,60.7813 Q49.8438,60.5 50.4688,59.9219 L50.4688,62.6406 Z " fill="#000000"/><text fill="#000000" font-family="sans-serif" font-size="12" lengthAdjust="spacing" textLength="115" x="61.5" y="61.1543">Textual_Document</text><!--MD5=[b821bb113f9f55c728f1fbb8949cc3af]
class Contributorship--><rect codeLine="37" fill="#FEFECE" filter="url(#f1c34ge7kkipke)" height="65.6094" id="Contributorship" style="stroke:#A80036;stroke-width:1.5;" width="131" x="539.5" y="139"/><ellipse cx="555.4" cy="155" fill="#ADD1B2" rx="11" ry="11" style="stroke:#A80036;stroke-width:1.0;"/><path d="M558.3688,160.6406 Q557.7906,160.9375 557.15,161.0781 Q556.5094,161.2344 555.8063,161.2344 Q553.3063,161.2344 551.9781,159.5938 Q550.6656,157.9375 550.6656,154.8125 Q550.6656,151.6875 551.9781,150.0313 Q553.3063,148.375 555.8063,148.375 Q556.5094,148.375 557.15,148.5313 Q557.8063,148.6875 558.3688,148.9844 L558.3688,151.7031 Q557.7438,151.125 557.15,150.8594 Q556.5563,150.5781 555.9313,150.5781 Q554.5875,150.5781 553.9,151.6563 Q553.2125,152.7188 553.2125,154.8125 Q553.2125,156.9063 553.9,157.9844 Q554.5875,159.0469 555.9313,159.0469 Q556.5563,159.0469 557.15,158.7813 Q557.7438,158.5 558.3688,157.9219 L558.3688,160.6406 Z " fill="#000000"/><text fill="#000000" font-family="sans-serif" font-size="12" lengthAdjust="spacing" textLength="97" x="569.6" y="159.1543">Contributorship</text><line style="stroke:#A80036;stroke-width:1.5;" x1="540.5" x2="669.5" y1="171" y2="171"/><text fill="#000000" font-family="sans-serif" font-size="11" lengthAdjust="spacing" textLength="116" x="545.5" y="185.2104">contacts : List&lt;URI&gt;</text><text fill="#000000" font-family="sans-serif" font-size="11" lengthAdjust="spacing" textLength="119" x="545.5" y="198.0151">displayName : String</text><!--MD5=[532fe005ca0bef0ad6b309c9c6480e22]
class Contribution_Statement--><rect codeLine="41" fill="#FEFECE" filter="url(#f1c34ge7kkipke)" height="32" id="Contribution_Statement" style="stroke:#A80036;stroke-width:1.5;" width="181" x="489.5" y="41"/><ellipse cx="504.5" cy="57" fill="#ADD1B2" rx="11" ry="11" style="stroke:#A80036;stroke-width:1.0;"/><path d="M507.4688,62.6406 Q506.8906,62.9375 506.25,63.0781 Q505.6094,63.2344 504.9063,63.2344 Q502.4063,63.2344 501.0781,61.5938 Q499.7656,59.9375 499.7656,56.8125 Q499.7656,53.6875 501.0781,52.0313 Q502.4063,50.375 504.9063,50.375 Q505.6094,50.375 506.25,50.5313 Q506.9063,50.6875 507.4688,50.9844 L507.4688,53.7031 Q506.8438,53.125 506.25,52.8594 Q505.6563,52.5781 505.0313,52.5781 Q503.6875,52.5781 503,53.6563 Q502.3125,54.7188 502.3125,56.8125 Q502.3125,58.9063 503,59.9844 Q503.6875,61.0469 505.0313,61.0469 Q505.6563,61.0469 506.25,60.7813 Q506.8438,60.5 507.4688,59.9219 L507.4688,62.6406 Z " fill="#000000"/><text fill="#000000" font-family="sans-serif" font-size="12" lengthAdjust="spacing" textLength="149" x="518.5" y="61.1543">Contribution_Statement</text><!--MD5=[e67d803be009978640e98815ecdddf28]
class Free_Text_Contribution--><rect codeLine="43" fill="#FEFECE" filter="url(#f1c34ge7kkipke)" height="52.8047" id="Free_Text_Contribution" style="stroke:#A80036;stroke-width:1.5;" width="185" x="319.5" y="145.5"/><ellipse cx="339" cy="161.5" fill="#ADD1B2" rx="11" ry="11" style="stroke:#A80036;stroke-width:1.0;"/><path d="M341.9688,167.1406 Q341.3906,167.4375 340.75,167.5781 Q340.1094,167.7344 339.4063,167.7344 Q336.9063,167.7344 335.5781,166.0938 Q334.2656,164.4375 334.2656,161.3125 Q334.2656,158.1875 335.5781,156.5313 Q336.9063,154.875 339.4063,154.875 Q340.1094,154.875 340.75,155.0313 Q341.4063,155.1875 341.9688,155.4844 L341.9688,158.2031 Q341.3438,157.625 340.75,157.3594 Q340.1563,157.0781 339.5313,157.0781 Q338.1875,157.0781 337.5,158.1563 Q336.8125,159.2188 336.8125,161.3125 Q336.8125,163.4063 337.5,164.4844 Q338.1875,165.5469 339.5313,165.5469 Q340.1563,165.5469 340.75,165.2813 Q341.3438,165 341.9688,164.4219 L341.9688,167.1406 Z " fill="#000000"/><text fill="#000000" font-family="sans-serif" font-size="12" lengthAdjust="spacing" textLength="143" x="354" y="165.6543">Free_Text_Contribution</text><line style="stroke:#A80036;stroke-width:1.5;" x1="320.5" x2="503.5" y1="177.5" y2="177.5"/><text fill="#000000" font-family="sans-serif" font-size="11" lengthAdjust="spacing" textLength="173" x="325.5" y="191.7104">statement : Multilingual_String</text><!--MD5=[9d44916250b776386006c440668bcfbb]
class Agent--><rect fill="#FEFECE" filter="url(#f1c34ge7kkipke)" height="32" id="Agent" style="stroke:#A80036;stroke-width:1.5;" width="69" x="215.5" y="156"/><ellipse cx="230.5" cy="172" fill="#ADD1B2" rx="11" ry="11" style="stroke:#A80036;stroke-width:1.0;"/><path d="M233.4688,177.6406 Q232.8906,177.9375 232.25,178.0781 Q231.6094,178.2344 230.9063,178.2344 Q228.4063,178.2344 227.0781,176.5938 Q225.7656,174.9375 225.7656,171.8125 Q225.7656,168.6875 227.0781,167.0313 Q228.4063,165.375 230.9063,165.375 Q231.6094,165.375 232.25,165.5313 Q232.9063,165.6875 233.4688,165.9844 L233.4688,168.7031 Q232.8438,168.125 232.25,167.8594 Q231.6563,167.5781 231.0313,167.5781 Q229.6875,167.5781 229,168.6563 Q228.3125,169.7188 228.3125,171.8125 Q228.3125,173.9063 229,174.9844 Q229.6875,176.0469 231.0313,176.0469 Q231.6563,176.0469 232.25,175.7813 Q232.8438,175.5 233.4688,174.9219 L233.4688,177.6406 Z " fill="#000000"/><text fill="#000000" font-family="sans-serif" font-size="12" lengthAdjust="spacing" textLength="37" x="244.5" y="176.1543">Agent</text><!--MD5=[3d3814e6d18e193800c83fb27de84142]
class CRediT_Contribution_Statement--><rect codeLine="50" fill="#FEFECE" filter="url(#f1c34ge7kkipke)" height="32" id="CRediT_Contribution_Statement" style="stroke:#A80036;stroke-width:1.5;" width="229" x="705.5" y="156"/><ellipse cx="720.5" cy="172" fill="#ADD1B2" rx="11" ry="11" style="stroke:#A80036;stroke-width:1.0;"/><path d="M723.4688,177.6406 Q722.8906,177.9375 722.25,178.0781 Q721.6094,178.2344 720.9063,178.2344 Q718.4063,178.2344 717.0781,176.5938 Q715.7656,174.9375 715.7656,171.8125 Q715.7656,168.6875 717.0781,167.0313 Q718.4063,165.375 720.9063,165.375 Q721.6094,165.375 722.25,165.5313 Q722.9063,165.6875 723.4688,165.9844 L723.4688,168.7031 Q722.8438,168.125 722.25,167.8594 Q721.6563,167.5781 721.0313,167.5781 Q719.6875,167.5781 719,168.6563 Q718.3125,169.7188 718.3125,171.8125 Q718.3125,173.9063 719,174.9844 Q719.6875,176.0469 721.0313,176.0469 Q721.6563,176.0469 722.25,175.7813 Q722.8438,175.5 723.4688,174.9219 L723.4688,177.6406 Z " fill="#000000"/><text fill="#000000" font-family="sans-serif" font-size="12" lengthAdjust="spacing" textLength="197" x="734.5" y="176.1543">CRediT_Contribution_Statement</text><!--MD5=[42c2141a95e7f85966762f44b3023ac5]
class CRediT_Degree_of_Contribution--><rect codeLine="52" fill="#FEFECE" filter="url(#f1c34ge7kkipke)" height="78.4141" id="CRediT_Degree_of_Contribution" style="stroke:#A80036;stroke-width:1.5;" width="227" x="593.5" y="341.5"/><ellipse cx="608.5" cy="357.5" fill="#EB937F" rx="11" ry="11" style="stroke:#A80036;stroke-width:1.0;"/><path d="M612.6094,363.5 L604.8906,363.5 L604.8906,351.1094 L612.6094,351.1094 L612.6094,353.2656 L607.3438,353.2656 L607.3438,355.9375 L612.1094,355.9375 L612.1094,358.0938 L607.3438,358.0938 L607.3438,361.3438 L612.6094,361.3438 L612.6094,363.5 Z " fill="#000000"/><text fill="#000000" font-family="sans-serif" font-size="12" lengthAdjust="spacing" textLength="195" x="622.5" y="361.6543">CRediT_Degree_of_Contribution</text><line style="stroke:#A80036;stroke-width:1.5;" x1="594.5" x2="819.5" y1="373.5" y2="373.5"/><text fill="#000000" font-family="sans-serif" font-size="11" lengthAdjust="spacing" textLength="27" x="599.5" y="387.7104">Lead</text><text fill="#000000" font-family="sans-serif" font-size="11" lengthAdjust="spacing" textLength="31" x="599.5" y="400.5151">Equal</text><text fill="#000000" font-family="sans-serif" font-size="11" lengthAdjust="spacing" textLength="62" x="599.5" y="413.3198">Supporting</text><!--MD5=[b5846dfcb37d6127d0d9f5f5e77b1e64]
class CRediT_Role_Type--><rect codeLine="57" fill="#FEFECE" filter="url(#f1c34ge7kkipke)" height="219.2656" id="CRediT_Role_Type" style="stroke:#A80036;stroke-width:1.5;" width="155" x="855.5" y="271"/><ellipse cx="876.35" cy="287" fill="#EB937F" rx="11" ry="11" style="stroke:#A80036;stroke-width:1.0;"/><path d="M880.4594,293 L872.7406,293 L872.7406,280.6094 L880.4594,280.6094 L880.4594,282.7656 L875.1938,282.7656 L875.1938,285.4375 L879.9594,285.4375 L879.9594,287.5938 L875.1938,287.5938 L875.1938,290.8438 L880.4594,290.8438 L880.4594,293 Z " fill="#000000"/><text fill="#000000" font-family="sans-serif" font-size="12" lengthAdjust="spacing" textLength="110" x="891.65" y="291.1543">CRediT_Role_Type</text><line style="stroke:#A80036;stroke-width:1.5;" x1="856.5" x2="1009.5" y1="303" y2="303"/><text fill="#000000" font-family="sans-serif" font-size="11" lengthAdjust="spacing" textLength="99" x="861.5" y="317.2104">Conceptualization</text><text fill="#000000" font-family="sans-serif" font-size="11" lengthAdjust="spacing" textLength="76" x="861.5" y="330.0151">Data curation</text><text fill="#000000" font-family="sans-serif" font-size="11" lengthAdjust="spacing" textLength="90" x="861.5" y="342.8198">Formal analysis</text><text fill="#000000" font-family="sans-serif" font-size="11" lengthAdjust="spacing" textLength="109" x="861.5" y="355.6245">Funding acquisition</text><text fill="#000000" font-family="sans-serif" font-size="11" lengthAdjust="spacing" textLength="72" x="861.5" y="368.4292">Investigation</text><text fill="#000000" font-family="sans-serif" font-size="11" lengthAdjust="spacing" textLength="71" x="861.5" y="381.2339">Methodology</text><text fill="#000000" font-family="sans-serif" font-size="11" lengthAdjust="spacing" textLength="125" x="861.5" y="394.0386">Project administration</text><text fill="#000000" font-family="sans-serif" font-size="11" lengthAdjust="spacing" textLength="60" x="861.5" y="406.8433">Resources</text><text fill="#000000" font-family="sans-serif" font-size="11" lengthAdjust="spacing" textLength="51" x="861.5" y="419.6479">Software</text><text fill="#000000" font-family="sans-serif" font-size="11" lengthAdjust="spacing" textLength="67" x="861.5" y="432.4526">Supervision</text><text fill="#000000" font-family="sans-serif" font-size="11" lengthAdjust="spacing" textLength="55" x="861.5" y="445.2573">Validation</text><text fill="#000000" font-family="sans-serif" font-size="11" lengthAdjust="spacing" textLength="70" x="861.5" y="458.062">Visualization</text><text fill="#000000" font-family="sans-serif" font-size="11" lengthAdjust="spacing" textLength="123" x="861.5" y="470.8667">Writing - original draft</text><text fill="#000000" font-family="sans-serif" font-size="11" lengthAdjust="spacing" textLength="143" x="861.5" y="483.6714">Writing - review &amp; editing</text><!--MD5=[8d9b790276a1e6c61f0b091de629785c]
link Textual_Document to Document--><path codeLine="87" d="M106,73.24 C106,83.62 106,98.08 106,112.7 " fill="none" id="Textual_Document-to-Document" style="stroke:#A80036;stroke-width:1.0;"/><polygon fill="none" points="113,112.72,106,132.72,99,112.72,113,112.72" style="stroke:#A80036;stroke-width:1.0;"/><!--MD5=[b5c017ecc32f857930efae613c226920]
reverse link Contribution_Statement to Free_Text_Contribution--><path codeLine="67" d="M540.83,84.35 C513.52,102.71 477.28,127.09 450.19,145.31 " fill="none" id="Contribution_Statement-backto-Free_Text_Contribution" style="stroke:#A80036;stroke-width:1.0;"/><polygon fill="none" points="537.19,78.36,557.69,73.01,545,89.98,537.19,78.36" style="stroke:#A80036;stroke-width:1.0;"/><!--MD5=[1f014480a3afa8c0325c3be3fbf7ad6f]
link Contributorship to Document--><path codeLine="70" d="M568.28,138.83 C550.39,124.87 527.75,110.21 504.5,103 C381.82,64.94 338.9,67.36 215.5,103 C198.47,107.92 181.54,116.36 166.26,125.68 " fill="none" id="Contributorship-to-Document" style="stroke:#A80036;stroke-width:1.0;"/><polygon fill="#A80036" points="154.92,132.94,162.1298,133.0764,165.0287,126.4736,157.8189,126.3372,154.92,132.94" style="stroke:#A80036;stroke-width:1.0;"/><text fill="#000000" font-family="sans-serif" font-size="13" lengthAdjust="spacing" textLength="23" x="535.7867" y="127.9415">0..*</text><!--MD5=[504de05de5dc33320621ff1be2e6e6ff]
reverse link Agent to Contributorship--><path codeLine="73" d="M268.53,145.12 C280.93,129.62 298.75,111.55 319.5,103 C395.52,71.67 425.97,78.64 504.5,103 C527.75,110.21 550.39,124.87 568.28,138.83 " fill="none" id="Agent-backto-Contributorship" style="stroke:#A80036;stroke-width:1.0;"/><polygon fill="#A80036" points="260.49,155.79,267.2958,153.4064,267.7132,146.2074,260.9074,148.591,260.49,155.79" style="stroke:#A80036;stroke-width:1.0;"/><text fill="#000000" font-family="sans-serif" font-size="13" lengthAdjust="spacing" textLength="98" x="187.3034" y="144.9721">0..1 contributor</text><text fill="#000000" font-family="sans-serif" font-size="13" lengthAdjust="spacing" textLength="23" x="563.3148" y="127.9415">0..*</text><!--MD5=[302d116419dc4c6a2265e61d4260f04e]
link Contribution_Statement to Contributorship--><path codeLine="77" d="M583.37,73.24 C586.37,86.78 590.9,107.28 595.05,126.01 " fill="none" id="Contribution_Statement-to-Contributorship" style="stroke:#A80036;stroke-width:1.0;"/><polygon fill="#A80036" points="597.9,138.9,600.5056,132.1761,595.301,127.1848,592.6955,133.9087,597.9,138.9" style="stroke:#A80036;stroke-width:1.0;"/><text fill="#000000" font-family="sans-serif" font-size="13" lengthAdjust="spacing" textLength="179" x="375.8394" y="93.1928">0..* contributionStatements</text><!--MD5=[7276caa4191a3f95f28b5ba112f82c6c]
reverse link Contribution_Statement to CRediT_Contribution_Statement--><path codeLine="97" d="M630.1,81.59 C677.62,103.96 747.59,136.91 788,155.93 " fill="none" id="Contribution_Statement-backto-CRediT_Contribution_Statement" style="stroke:#A80036;stroke-width:1.0;"/><polygon fill="none" points="626.98,87.86,611.87,73.01,632.95,75.19,626.98,87.86" style="stroke:#A80036;stroke-width:1.0;"/><!--MD5=[fb8e7b03155fc2d9c40ee98c4cf95180]
link CRediT_Contribution_Statement to CRediT_Role_Type--><path codeLine="111" d="M828.31,188.18 C837.76,205.45 854.09,235.3 871.08,266.35 " fill="none" id="CRediT_Contribution_Statement-to-CRediT_Role_Type" style="stroke:#A80036;stroke-width:1.0;stroke-dasharray:7.0,7.0;"/><polygon fill="#A80036" points="873.59,270.93,872.7785,261.1146,871.1897,266.5438,865.7606,264.9551,873.59,270.93" style="stroke:#A80036;stroke-width:1.0;"/><text fill="#000000" font-family="sans-serif" font-size="13" lengthAdjust="spacing" textLength="54" x="813.5143" y="259.7607">roleType</text><!--MD5=[fd5d8cb6bc72986bd3560f3b69973f17]
link CRediT_Contribution_Statement to CRediT_Degree_of_Contribution--><path codeLine="112" d="M811.69,188.18 C794.75,219.13 755.71,290.49 730.38,336.77 " fill="none" id="CRediT_Contribution_Statement-to-CRediT_Degree_of_Contribution" style="stroke:#A80036;stroke-width:1.0;stroke-dasharray:7.0,7.0;"/><polygon fill="#A80036" points="727.97,341.17,735.7994,335.1951,730.3703,336.7838,728.7815,331.3546,727.97,341.17" style="stroke:#A80036;stroke-width:1.0;"/><text fill="#000000" font-family="sans-serif" font-size="13" lengthAdjust="spacing" textLength="137" x="583.0978" y="330.4574">degreeOfContribution</text><!--MD5=[3a658adbe0859d53bf5255c655ff5c4f]
@startuml

!includesub core.puml!common

package "CERIF core" #EFEFEF{
    !includesub ./core.puml!Document
    !includesub ./core.puml!Contributorship
}

!includesub ./module.puml!CRediT

@enduml

@startuml

    	hide empty members

package "CERIF core" #EFEFEF{
    class "Document"{
        title : Multilingual_String
        publicationDate : Date
        DOI : DOI_Type
    }
    class "Textual_Document"{
    }
    "Document" <|-u- "Textual_Document"
    class "Contributorship"{
        contacts : List<URI>
        displayName : String
    }
    class "Contribution_Statement"{
    }
    class "Free_Text_Contribution"{
        statement : Multilingual_String
    }
    "Contribution_Statement" <|- - "Free_Text_Contribution"
    "Contributorship" "0..*" -r-* "Document"
    "Contributorship" "0..*" -l-* "0..1 contributor" "Agent"
    "Contributorship" *-u- "0..* contributionStatements" "Contribution_Statement"
}

    class "CRediT_Contribution_Statement"{
    }
    enum "CRediT_Degree_of_Contribution"{
        Lead
        Equal
        Supporting
    }
    enum "CRediT_Role_Type"{
        Conceptualization
        Data curation
        Formal analysis
        Funding acquisition
        Investigation
        Methodology
        Project administration
        Resources
        Software
        Supervision
        Validation
        Visualization
        Writing - original draft
        Writing - review & editing
    }
    "Contribution_Statement" <|- - "CRediT_Contribution_Statement"
    "CRediT_Contribution_Statement" ..> "roleType" "CRediT_Role_Type"
    "CRediT_Contribution_Statement" ..> "degreeOfContribution" "CRediT_Degree_of_Contribution"

@enduml

PlantUML version 1.2021.8(Sat Jun 26 08:20:59 UTC 2021)
(GPL source distribution)
Java Runtime: OpenJDK Runtime Environment
JVM: OpenJDK 64-Bit Server VM
Default Encoding: UTF-8
Language: en
Country: null
--></g></svg>