<?xml version="1.0" encoding="UTF-8" standalone="no"?><svg xmlns="http://www.w3.org/2000/svg" xmlns:xlink="http://www.w3.org/1999/xlink" contentScriptType="application/ecmascript" contentStyleType="text/css" height="675px" preserveAspectRatio="none" style="width:546px;height:675px;background:#FFFFFF;" version="1.1" viewBox="0 0 546 675" width="546px" zoomAndPan="magnify"><defs><filter height="300%" id="fzfogjnf51407" width="300%" x="-1" y="-1"><feGaussianBlur result="blurOut" stdDeviation="2.0"/><feColorMatrix in="blurOut" result="blurOut2" type="matrix" values="0 0 0 0 0 0 0 0 0 0 0 0 0 0 0 0 0 0 .4 0"/><feOffset dx="4.0" dy="4.0" in="blurOut2" result="blurOut3"/><feBlend in="SourceGraphic" in2="blurOut3" mode="normal"/></filter></defs><g><!--MD5=[59b530d44ae785dc18db921986a9c15c]
class Document--><rect codeLine="8" fill="#FFFFFF" filter="url(#fzfogjnf51407)" height="78.4141" id="Document" style="stroke:#A80036;stroke-width:1.5;" width="148" x="7" y="7"/><ellipse cx="45.4" cy="23" fill="#ADD1B2" rx="11" ry="11" style="stroke:#A80036;stroke-width:1.0;"/><path d="M48.3688,28.6406 Q47.7906,28.9375 47.15,29.0781 Q46.5094,29.2344 45.8063,29.2344 Q43.3063,29.2344 41.9781,27.5938 Q40.6656,25.9375 40.6656,22.8125 Q40.6656,19.6875 41.9781,18.0313 Q43.3063,16.375 45.8063,16.375 Q46.5094,16.375 47.15,16.5313 Q47.8063,16.6875 48.3688,16.9844 L48.3688,19.7031 Q47.7438,19.125 47.15,18.8594 Q46.5563,18.5781 45.9313,18.5781 Q44.5875,18.5781 43.9,19.6563 Q43.2125,20.7188 43.2125,22.8125 Q43.2125,24.9063 43.9,25.9844 Q44.5875,27.0469 45.9313,27.0469 Q46.5563,27.0469 47.15,26.7813 Q47.7438,26.5 48.3688,25.9219 L48.3688,28.6406 Z " fill="#000000"/><text fill="#000000" font-family="sans-serif" font-size="12" lengthAdjust="spacing" textLength="64" x="64.6" y="27.1543">Document</text><line style="stroke:#A80036;stroke-width:1.5;" x1="8" x2="154" y1="39" y2="39"/><text fill="#000000" font-family="sans-serif" font-size="11" lengthAdjust="spacing" textLength="85" x="13" y="53.2104">DOI : DOI_Type</text><text fill="#000000" font-family="sans-serif" font-size="11" lengthAdjust="spacing" textLength="136" x="13" y="66.0151">title : Multilingual_String</text><text fill="#000000" font-family="sans-serif" font-size="11" lengthAdjust="spacing" textLength="125" x="13" y="78.8198">publicationDate : Date</text><!--MD5=[fe105c2ee1fabf2400c31a97ce9128bc]
class Textual_Document--><rect codeLine="13" fill="#FFFFFF" filter="url(#fzfogjnf51407)" height="32" id="Textual_Document" style="stroke:#A80036;stroke-width:1.5;" width="147" x="7.5" y="145"/><ellipse cx="22.5" cy="161" fill="#ADD1B2" rx="11" ry="11" style="stroke:#A80036;stroke-width:1.0;"/><path d="M25.4688,166.6406 Q24.8906,166.9375 24.25,167.0781 Q23.6094,167.2344 22.9063,167.2344 Q20.4063,167.2344 19.0781,165.5938 Q17.7656,163.9375 17.7656,160.8125 Q17.7656,157.6875 19.0781,156.0313 Q20.4063,154.375 22.9063,154.375 Q23.6094,154.375 24.25,154.5313 Q24.9063,154.6875 25.4688,154.9844 L25.4688,157.7031 Q24.8438,157.125 24.25,156.8594 Q23.6563,156.5781 23.0313,156.5781 Q21.6875,156.5781 21,157.6563 Q20.3125,158.7188 20.3125,160.8125 Q20.3125,162.9063 21,163.9844 Q21.6875,165.0469 23.0313,165.0469 Q23.6563,165.0469 24.25,164.7813 Q24.8438,164.5 25.4688,163.9219 L25.4688,166.6406 Z " fill="#000000"/><text fill="#000000" font-family="sans-serif" font-size="12" lengthAdjust="spacing" textLength="115" x="36.5" y="165.1543">Textual_Document</text><!--MD5=[0330879a1a385efee19ba3488ed490fa]
class Contribution--><rect codeLine="88" fill="#FFFFFF" filter="url(#fzfogjnf51407)" height="32" id="Contribution" style="stroke:#A80036;stroke-width:1.5;" width="109" x="189.5" y="145"/><ellipse cx="204.5" cy="161" fill="#ADD1B2" rx="11" ry="11" style="stroke:#A80036;stroke-width:1.0;"/><path d="M207.4688,166.6406 Q206.8906,166.9375 206.25,167.0781 Q205.6094,167.2344 204.9063,167.2344 Q202.4063,167.2344 201.0781,165.5938 Q199.7656,163.9375 199.7656,160.8125 Q199.7656,157.6875 201.0781,156.0313 Q202.4063,154.375 204.9063,154.375 Q205.6094,154.375 206.25,154.5313 Q206.9063,154.6875 207.4688,154.9844 L207.4688,157.7031 Q206.8438,157.125 206.25,156.8594 Q205.6563,156.5781 205.0313,156.5781 Q203.6875,156.5781 203,157.6563 Q202.3125,158.7188 202.3125,160.8125 Q202.3125,162.9063 203,163.9844 Q203.6875,165.0469 205.0313,165.0469 Q205.6563,165.0469 206.25,164.7813 Q206.8438,164.5 207.4688,163.9219 L207.4688,166.6406 Z " fill="#000000"/><text fill="#000000" font-family="sans-serif" font-size="12" lengthAdjust="spacing" textLength="77" x="218.5" y="165.1543">Contribution</text><!--MD5=[532fe005ca0bef0ad6b309c9c6480e22]
class Contribution_Statement--><rect codeLine="94" fill="#FFFFFF" filter="url(#fzfogjnf51407)" height="52.8047" id="Contribution_Statement" style="stroke:#A80036;stroke-width:1.5;" width="185" x="151.5" y="237"/><ellipse cx="168.3" cy="253" fill="#ADD1B2" rx="11" ry="11" style="stroke:#A80036;stroke-width:1.0;"/><path d="M171.2688,258.6406 Q170.6906,258.9375 170.05,259.0781 Q169.4094,259.2344 168.7063,259.2344 Q166.2063,259.2344 164.8781,257.5938 Q163.5656,255.9375 163.5656,252.8125 Q163.5656,249.6875 164.8781,248.0313 Q166.2063,246.375 168.7063,246.375 Q169.4094,246.375 170.05,246.5313 Q170.7063,246.6875 171.2688,246.9844 L171.2688,249.7031 Q170.6438,249.125 170.05,248.8594 Q169.4563,248.5781 168.8313,248.5781 Q167.4875,248.5781 166.8,249.6563 Q166.1125,250.7188 166.1125,252.8125 Q166.1125,254.9063 166.8,255.9844 Q167.4875,257.0469 168.8313,257.0469 Q169.4563,257.0469 170.05,256.7813 Q170.6438,256.5 171.2688,255.9219 L171.2688,258.6406 Z " fill="#000000"/><text fill="#000000" font-family="sans-serif" font-size="12" lengthAdjust="spacing" textLength="149" x="182.7" y="257.1543">Contribution_Statement</text><line style="stroke:#A80036;stroke-width:1.5;" x1="152.5" x2="335.5" y1="269" y2="269"/><text fill="#000000" font-family="sans-serif" font-size="11" lengthAdjust="spacing" textLength="173" x="157.5" y="283.2104">statement : Multilingual_String</text><!--MD5=[6b13f1b330d33795af281e5c1dfe1e98]
class Resource--><rect codeLine="98" fill="#FFFFFF" filter="url(#fzfogjnf51407)" height="32" id="Resource" style="stroke:#A80036;stroke-width:1.5;" width="91" x="101.5" y="350"/><ellipse cx="116.5" cy="366" fill="#ADD1B2" rx="11" ry="11" style="stroke:#A80036;stroke-width:1.0;"/><path d="M119.4688,371.6406 Q118.8906,371.9375 118.25,372.0781 Q117.6094,372.2344 116.9063,372.2344 Q114.4063,372.2344 113.0781,370.5938 Q111.7656,368.9375 111.7656,365.8125 Q111.7656,362.6875 113.0781,361.0313 Q114.4063,359.375 116.9063,359.375 Q117.6094,359.375 118.25,359.5313 Q118.9063,359.6875 119.4688,359.9844 L119.4688,362.7031 Q118.8438,362.125 118.25,361.8594 Q117.6563,361.5781 117.0313,361.5781 Q115.6875,361.5781 115,362.6563 Q114.3125,363.7188 114.3125,365.8125 Q114.3125,367.9063 115,368.9844 Q115.6875,370.0469 117.0313,370.0469 Q117.6563,370.0469 118.25,369.7813 Q118.8438,369.5 119.4688,368.9219 L119.4688,371.6406 Z " fill="#000000"/><text fill="#000000" font-family="sans-serif" font-size="12" lengthAdjust="spacing" textLength="59" x="130.5" y="370.1543">Resource</text><!--MD5=[c881b25adf3665c6568c9693d41a70f3]
class Activity--><rect fill="#FEFECE" filter="url(#fzfogjnf51407)" height="32" id="Activity" style="stroke:#A80036;stroke-width:1.5;" width="75" x="206.5" y="30"/><ellipse cx="221.5" cy="46" fill="#ADD1B2" rx="11" ry="11" style="stroke:#A80036;stroke-width:1.0;"/><path d="M224.4688,51.6406 Q223.8906,51.9375 223.25,52.0781 Q222.6094,52.2344 221.9063,52.2344 Q219.4063,52.2344 218.0781,50.5938 Q216.7656,48.9375 216.7656,45.8125 Q216.7656,42.6875 218.0781,41.0313 Q219.4063,39.375 221.9063,39.375 Q222.6094,39.375 223.25,39.5313 Q223.9063,39.6875 224.4688,39.9844 L224.4688,42.7031 Q223.8438,42.125 223.25,41.8594 Q222.6563,41.5781 222.0313,41.5781 Q220.6875,41.5781 220,42.6563 Q219.3125,43.7188 219.3125,45.8125 Q219.3125,47.9063 220,48.9844 Q220.6875,50.0469 222.0313,50.0469 Q222.6563,50.0469 223.25,49.7813 Q223.8438,49.5 224.4688,48.9219 L224.4688,51.6406 Z " fill="#000000"/><text fill="#000000" font-family="sans-serif" font-size="12" lengthAdjust="spacing" textLength="43" x="235.5" y="50.1543">Activity</text><!--MD5=[9d44916250b776386006c440668bcfbb]
class Agent--><rect codeLine="23" fill="#FFFFFF" filter="url(#fzfogjnf51407)" height="32" id="Agent" style="stroke:#A80036;stroke-width:1.5;" width="69" x="316.5" y="30"/><ellipse cx="331.5" cy="46" fill="#ADD1B2" rx="11" ry="11" style="stroke:#A80036;stroke-width:1.0;"/><path d="M334.4688,51.6406 Q333.8906,51.9375 333.25,52.0781 Q332.6094,52.2344 331.9063,52.2344 Q329.4063,52.2344 328.0781,50.5938 Q326.7656,48.9375 326.7656,45.8125 Q326.7656,42.6875 328.0781,41.0313 Q329.4063,39.375 331.9063,39.375 Q332.6094,39.375 333.25,39.5313 Q333.9063,39.6875 334.4688,39.9844 L334.4688,42.7031 Q333.8438,42.125 333.25,41.8594 Q332.6563,41.5781 332.0313,41.5781 Q330.6875,41.5781 330,42.6563 Q329.3125,43.7188 329.3125,45.8125 Q329.3125,47.9063 330,48.9844 Q330.6875,50.0469 332.0313,50.0469 Q332.6563,50.0469 333.25,49.7813 Q333.8438,49.5 334.4688,48.9219 L334.4688,51.6406 Z " fill="#000000"/><text fill="#000000" font-family="sans-serif" font-size="12" lengthAdjust="spacing" textLength="37" x="345.5" y="50.1543">Agent</text><!--MD5=[3d3814e6d18e193800c83fb27de84142]
class CRediT_Contribution_Statement--><rect codeLine="49" fill="#00FF00" filter="url(#fzfogjnf51407)" height="32" id="CRediT_Contribution_Statement" style="stroke:#A80036;stroke-width:1.5;" width="229" x="227.5" y="350"/><ellipse cx="242.5" cy="366" fill="#ADD1B2" rx="11" ry="11" style="stroke:#A80036;stroke-width:1.0;"/><path d="M245.4688,371.6406 Q244.8906,371.9375 244.25,372.0781 Q243.6094,372.2344 242.9063,372.2344 Q240.4063,372.2344 239.0781,370.5938 Q237.7656,368.9375 237.7656,365.8125 Q237.7656,362.6875 239.0781,361.0313 Q240.4063,359.375 242.9063,359.375 Q243.6094,359.375 244.25,359.5313 Q244.9063,359.6875 245.4688,359.9844 L245.4688,362.7031 Q244.8438,362.125 244.25,361.8594 Q243.6563,361.5781 243.0313,361.5781 Q241.6875,361.5781 241,362.6563 Q240.3125,363.7188 240.3125,365.8125 Q240.3125,367.9063 241,368.9844 Q241.6875,370.0469 243.0313,370.0469 Q243.6563,370.0469 244.25,369.7813 Q244.8438,369.5 245.4688,368.9219 L245.4688,371.6406 Z " fill="#000000"/><text fill="#000000" font-family="sans-serif" font-size="12" lengthAdjust="spacing" textLength="197" x="256.5" y="370.1543">CRediT_Contribution_Statement</text><!--MD5=[42c2141a95e7f85966762f44b3023ac5]
class CRediT_Degree_of_Contribution--><rect codeLine="51" fill="#00FF00" filter="url(#fzfogjnf51407)" height="78.4141" id="CRediT_Degree_of_Contribution" style="stroke:#A80036;stroke-width:1.5;" width="227" x="115.5" y="512.5"/><ellipse cx="130.5" cy="528.5" fill="#EB937F" rx="11" ry="11" style="stroke:#A80036;stroke-width:1.0;"/><path d="M134.6094,534.5 L126.8906,534.5 L126.8906,522.1094 L134.6094,522.1094 L134.6094,524.2656 L129.3438,524.2656 L129.3438,526.9375 L134.1094,526.9375 L134.1094,529.0938 L129.3438,529.0938 L129.3438,532.3438 L134.6094,532.3438 L134.6094,534.5 Z " fill="#000000"/><text fill="#000000" font-family="sans-serif" font-size="12" lengthAdjust="spacing" textLength="195" x="144.5" y="532.6543">CRediT_Degree_of_Contribution</text><line style="stroke:#A80036;stroke-width:1.5;" x1="116.5" x2="341.5" y1="544.5" y2="544.5"/><text fill="#000000" font-family="sans-serif" font-size="11" lengthAdjust="spacing" textLength="27" x="121.5" y="558.7104">Lead</text><text fill="#000000" font-family="sans-serif" font-size="11" lengthAdjust="spacing" textLength="62" x="121.5" y="571.5151">Supporting</text><text fill="#000000" font-family="sans-serif" font-size="11" lengthAdjust="spacing" textLength="31" x="121.5" y="584.3198">Equal</text><!--MD5=[b5846dfcb37d6127d0d9f5f5e77b1e64]
class CRediT_Role_Type--><rect codeLine="56" fill="#00FF00" filter="url(#fzfogjnf51407)" height="219.2656" id="CRediT_Role_Type" style="stroke:#A80036;stroke-width:1.5;" width="155" x="377.5" y="442"/><ellipse cx="398.35" cy="458" fill="#EB937F" rx="11" ry="11" style="stroke:#A80036;stroke-width:1.0;"/><path d="M402.4594,464 L394.7406,464 L394.7406,451.6094 L402.4594,451.6094 L402.4594,453.7656 L397.1938,453.7656 L397.1938,456.4375 L401.9594,456.4375 L401.9594,458.5938 L397.1938,458.5938 L397.1938,461.8438 L402.4594,461.8438 L402.4594,464 Z " fill="#000000"/><text fill="#000000" font-family="sans-serif" font-size="12" lengthAdjust="spacing" textLength="110" x="413.65" y="462.1543">CRediT_Role_Type</text><line style="stroke:#A80036;stroke-width:1.5;" x1="378.5" x2="531.5" y1="474" y2="474"/><text fill="#000000" font-family="sans-serif" font-size="11" lengthAdjust="spacing" textLength="99" x="383.5" y="488.2104">Conceptualization</text><text fill="#000000" font-family="sans-serif" font-size="11" lengthAdjust="spacing" textLength="76" x="383.5" y="501.0151">Data curation</text><text fill="#000000" font-family="sans-serif" font-size="11" lengthAdjust="spacing" textLength="90" x="383.5" y="513.8198">Formal analysis</text><text fill="#000000" font-family="sans-serif" font-size="11" lengthAdjust="spacing" textLength="109" x="383.5" y="526.6245">Funding acquisition</text><text fill="#000000" font-family="sans-serif" font-size="11" lengthAdjust="spacing" textLength="72" x="383.5" y="539.4292">Investigation</text><text fill="#000000" font-family="sans-serif" font-size="11" lengthAdjust="spacing" textLength="71" x="383.5" y="552.2339">Methodology</text><text fill="#000000" font-family="sans-serif" font-size="11" lengthAdjust="spacing" textLength="125" x="383.5" y="565.0386">Project administration</text><text fill="#000000" font-family="sans-serif" font-size="11" lengthAdjust="spacing" textLength="60" x="383.5" y="577.8433">Resources</text><text fill="#000000" font-family="sans-serif" font-size="11" lengthAdjust="spacing" textLength="51" x="383.5" y="590.6479">Software</text><text fill="#000000" font-family="sans-serif" font-size="11" lengthAdjust="spacing" textLength="67" x="383.5" y="603.4526">Supervision</text><text fill="#000000" font-family="sans-serif" font-size="11" lengthAdjust="spacing" textLength="55" x="383.5" y="616.2573">Validation</text><text fill="#000000" font-family="sans-serif" font-size="11" lengthAdjust="spacing" textLength="70" x="383.5" y="629.062">Visualization</text><text fill="#000000" font-family="sans-serif" font-size="11" lengthAdjust="spacing" textLength="123" x="383.5" y="641.8667">Writing - original draft</text><text fill="#000000" font-family="sans-serif" font-size="11" lengthAdjust="spacing" textLength="143" x="383.5" y="654.6714">Writing - review &amp; editing</text><!--MD5=[67ceb885199ca7e1fa058287d8756a2e]
reverse link Document to Textual_Document--><path codeLine="351" d="M81,105.39 C81,120.09 81,134.62 81,144.99 " fill="none" id="Document-backto-Textual_Document" style="stroke:#A80036;stroke-width:1.0;"/><polygon fill="none" points="74,105.26,81,85.26,88,105.26,74,105.26" style="stroke:#A80036;stroke-width:1.0;"/><!--MD5=[985660d160cc1234ef784a412fcab047]
reverse link Contribution to Contribution_Statement--><path codeLine="253" d="M244,190.61 C244,205.19 244,222.78 244,236.91 " fill="none" id="Contribution-backto-Contribution_Statement" style="stroke:#A80036;stroke-width:1.0;"/><polygon fill="#A80036" points="244,177.26,240,183.26,244,189.26,248,183.26,244,177.26" style="stroke:#A80036;stroke-width:1.0;"/><text fill="#000000" font-family="sans-serif" font-size="13" lengthAdjust="spacing" textLength="179" x="44.3031" y="226.1315">0..* contributionStatements</text><!--MD5=[55f20054f286b2e7074e8d22fab1f608]
reverse link Activity to Contribution--><path codeLine="293" d="M244,82.5 C244,103.39 244,128.76 244,144.64 " fill="none" id="Activity-backto-Contribution" style="stroke:#A80036;stroke-width:1.0;"/><polygon fill="none" points="237,82.24,244,62.24,251,82.24,237,82.24" style="stroke:#A80036;stroke-width:1.0;"/><!--MD5=[b01ee177fc17bf8bb95324fc01c31b3b]
link Contribution_Statement to Resource--><path codeLine="313" d="M219.27,290.12 C202.51,307.49 180.71,330.08 165.45,345.88 " fill="none" id="Contribution_Statement-to-Resource" style="stroke:#A80036;stroke-width:1.0;"/><polygon fill="#A80036" points="161.72,349.75,170.8466,346.0479,165.1907,346.1508,165.0878,340.4949,161.72,349.75" style="stroke:#A80036;stroke-width:1.0;"/><text fill="#000000" font-family="sans-serif" font-size="13" lengthAdjust="spacing" textLength="84" x="68.6835" y="338.9717">0..1 resource</text><!--MD5=[7276caa4191a3f95f28b5ba112f82c6c]
reverse link Contribution_Statement to CRediT_Contribution_Statement--><path codeLine="96" d="M283.17,304.67 C298.63,320.52 315.45,337.77 327.13,349.75 " fill="none" id="Contribution_Statement-backto-CRediT_Contribution_Statement" style="stroke:#A80036;stroke-width:1.0;"/><polygon fill="none" points="277.93,309.33,268.98,290.12,287.96,299.55,277.93,309.33" style="stroke:#A80036;stroke-width:1.0;"/><!--MD5=[fb8e7b03155fc2d9c40ee98c4cf95180]
link CRediT_Contribution_Statement to CRediT_Role_Type--><path codeLine="110" d="M351.25,382.02 C359.3,395.1 371.79,415.38 385.35,437.4 " fill="none" id="CRediT_Contribution_Statement-to-CRediT_Role_Type" style="stroke:#A80036;stroke-width:1.0;stroke-dasharray:7.0,7.0;"/><polygon fill="#A80036" points="388.07,441.82,386.7689,432.0575,385.4535,437.5593,379.9517,436.2439,388.07,441.82" style="stroke:#A80036;stroke-width:1.0;"/><text fill="#000000" font-family="sans-serif" font-size="13" lengthAdjust="spacing" textLength="54" x="327.7591" y="431.0094">roleType</text><!--MD5=[fd5d8cb6bc72986bd3560f3b69973f17]
link CRediT_Contribution_Statement to CRediT_Degree_of_Contribution--><path codeLine="113" d="M332.75,382.02 C315.97,409.27 279.94,467.78 255.09,508.14 " fill="none" id="CRediT_Contribution_Statement-to-CRediT_Degree_of_Contribution" style="stroke:#A80036;stroke-width:1.0;stroke-dasharray:7.0,7.0;"/><polygon fill="#A80036" points="252.42,512.48,260.5518,506.9236,255.0469,508.2256,253.7448,502.7207,252.42,512.48" style="stroke:#A80036;stroke-width:1.0;"/><text fill="#000000" font-family="sans-serif" font-size="13" lengthAdjust="spacing" textLength="137" x="107.6719" y="501.5271">degreeOfContribution</text><!--MD5=[3360ffa6abf2b9a4485c3fb5632212b1]
@startuml

    !includesub ../../CERIF-Core/diagrams/core.puml!common


    !includesub ../../CERIF-Core/diagrams/core.puml!Document
    !includesub ../../CERIF-Core/diagrams/core.puml!Contribution
    !includesub ../../CERIF-Core/diagrams/core.puml!Agent

    !includesub ./module.puml!CRediT

@enduml

@startuml

        hide empty members
        skinparam BoxPadding 120


        class "Document" #ffffff {
            DOI : DOI_Type
            title : Multilingual_String
            publicationDate : Date
        }
        class "Textual_Document" #ffffff {
        }
        "Document" <|- - "Textual_Document"
        class "Contribution" #ffffff {
        }
            
        
        class "Contribution_Statement" #ffffff {
            statement : Multilingual_String
        }
    
        class "Resource" #ffffff {
        }
        "Contribution" *- - "0..* contributionStatements" "Contribution_Statement"
        "Activity" <|- - "Contribution"
        "Contribution_Statement" - -> "0..1 resource" "Resource"
        class "Agent" #ffffff {
        }

        class "CRediT_Contribution_Statement" #00ff00{
        }
        enum "CRediT_Degree_of_Contribution" #00ff00{
            Lead
            Supporting
            Equal
        }
        enum "CRediT_Role_Type" #00ff00{
            Conceptualization
            Data curation
            Formal analysis
            Funding acquisition
            Investigation
            Methodology
            Project administration
            Resources
            Software
            Supervision
            Validation
            Visualization
            Writing - original draft
            Writing - review & editing
        }
        "Contribution_Statement" <|- - "CRediT_Contribution_Statement"
        "CRediT_Contribution_Statement" ..> "roleType" "CRediT_Role_Type"
        "CRediT_Contribution_Statement" ..> "degreeOfContribution" "CRediT_Degree_of_Contribution"

@enduml

PlantUML version 1.2021.8(Sat Jun 26 08:20:59 UTC 2021)
(GPL source distribution)
Java Runtime: OpenJDK Runtime Environment
JVM: OpenJDK 64-Bit Server VM
Default Encoding: UTF-8
Language: en
Country: null
--></g></svg>