<?xml version="1.0" encoding="UTF-8" standalone="no"?><svg xmlns="http://www.w3.org/2000/svg" xmlns:xlink="http://www.w3.org/1999/xlink" contentScriptType="application/ecmascript" contentStyleType="text/css" height="317px" preserveAspectRatio="none" style="width:442px;height:317px;background:#FFFFFF;" version="1.1" viewBox="0 0 442 317" width="442px" zoomAndPan="magnify"><defs><filter height="300%" id="f1hw80asw6631g" width="300%" x="-1" y="-1"><feGaussianBlur result="blurOut" stdDeviation="2.0"/><feColorMatrix in="blurOut" result="blurOut2" type="matrix" values="0 0 0 0 0 0 0 0 0 0 0 0 0 0 0 0 0 0 .4 0"/><feOffset dx="4.0" dy="4.0" in="blurOut2" result="blurOut3"/><feBlend in="SourceGraphic" in2="blurOut3" mode="normal"/></filter></defs><g><!--MD5=[59b530d44ae785dc18db921986a9c15c]
class Document--><rect codeLine="254" fill="#FFFFFF" filter="url(#f1hw80asw6631g)" height="65.6094" id="Document" style="stroke:#A80036;stroke-width:1.5;" width="148" x="7" y="7"/><ellipse cx="45.4" cy="23" fill="#ADD1B2" rx="11" ry="11" style="stroke:#A80036;stroke-width:1.0;"/><path d="M48.3688,28.6406 Q47.7906,28.9375 47.15,29.0781 Q46.5094,29.2344 45.8063,29.2344 Q43.3063,29.2344 41.9781,27.5938 Q40.6656,25.9375 40.6656,22.8125 Q40.6656,19.6875 41.9781,18.0313 Q43.3063,16.375 45.8063,16.375 Q46.5094,16.375 47.15,16.5313 Q47.8063,16.6875 48.3688,16.9844 L48.3688,19.7031 Q47.7438,19.125 47.15,18.8594 Q46.5563,18.5781 45.9313,18.5781 Q44.5875,18.5781 43.9,19.6563 Q43.2125,20.7188 43.2125,22.8125 Q43.2125,24.9063 43.9,25.9844 Q44.5875,27.0469 45.9313,27.0469 Q46.5563,27.0469 47.15,26.7813 Q47.7438,26.5 48.3688,25.9219 L48.3688,28.6406 Z " fill="#000000"/><text fill="#000000" font-family="sans-serif" font-size="12" lengthAdjust="spacing" textLength="64" x="64.6" y="27.1543">Document</text><line style="stroke:#A80036;stroke-width:1.5;" x1="8" x2="154" y1="39" y2="39"/><text fill="#000000" font-family="sans-serif" font-size="11" lengthAdjust="spacing" textLength="136" x="13" y="53.2104">title : Multilingual_String</text><text fill="#000000" font-family="sans-serif" font-size="11" lengthAdjust="spacing" textLength="125" x="13" y="66.0151">publicationDate : Date</text><!--MD5=[fe105c2ee1fabf2400c31a97ce9128bc]
class Textual_Document--><rect codeLine="261" fill="#FFFFFF" filter="url(#f1hw80asw6631g)" height="32" id="Textual_Document" style="stroke:#A80036;stroke-width:1.5;" width="147" x="7.5" y="156"/><ellipse cx="22.5" cy="172" fill="#ADD1B2" rx="11" ry="11" style="stroke:#A80036;stroke-width:1.0;"/><path d="M25.4688,177.6406 Q24.8906,177.9375 24.25,178.0781 Q23.6094,178.2344 22.9063,178.2344 Q20.4063,178.2344 19.0781,176.5938 Q17.7656,174.9375 17.7656,171.8125 Q17.7656,168.6875 19.0781,167.0313 Q20.4063,165.375 22.9063,165.375 Q23.6094,165.375 24.25,165.5313 Q24.9063,165.6875 25.4688,165.9844 L25.4688,168.7031 Q24.8438,168.125 24.25,167.8594 Q23.6563,167.5781 23.0313,167.5781 Q21.6875,167.5781 21,168.6563 Q20.3125,169.7188 20.3125,171.8125 Q20.3125,173.9063 21,174.9844 Q21.6875,176.0469 23.0313,176.0469 Q23.6563,176.0469 24.25,175.7813 Q24.8438,175.5 25.4688,174.9219 L25.4688,177.6406 Z " fill="#000000"/><text fill="#000000" font-family="sans-serif" font-size="12" lengthAdjust="spacing" textLength="115" x="36.5" y="176.1543">Textual_Document</text><!--MD5=[9a5422ab15122c8d1cd75d14414799b8]
class Journal--><rect codeLine="19" fill="#DDEEDD" filter="url(#f1hw80asw6631g)" height="78.4141" id="Journal" style="stroke:#A80036;stroke-width:1.5;" width="103" x="211.5" y="133"/><ellipse cx="239.1" cy="149" fill="#ADD1B2" rx="11" ry="11" style="stroke:#A80036;stroke-width:1.0;"/><path d="M242.0688,154.6406 Q241.4906,154.9375 240.85,155.0781 Q240.2094,155.2344 239.5063,155.2344 Q237.0063,155.2344 235.6781,153.5938 Q234.3656,151.9375 234.3656,148.8125 Q234.3656,145.6875 235.6781,144.0313 Q237.0063,142.375 239.5063,142.375 Q240.2094,142.375 240.85,142.5313 Q241.5063,142.6875 242.0688,142.9844 L242.0688,145.7031 Q241.4438,145.125 240.85,144.8594 Q240.2563,144.5781 239.6313,144.5781 Q238.2875,144.5781 237.6,145.6563 Q236.9125,146.7188 236.9125,148.8125 Q236.9125,150.9063 237.6,151.9844 Q238.2875,153.0469 239.6313,153.0469 Q240.2563,153.0469 240.85,152.7813 Q241.4438,152.5 242.0688,151.9219 L242.0688,154.6406 Z " fill="#000000"/><text fill="#000000" font-family="sans-serif" font-size="12" lengthAdjust="spacing" textLength="43" x="255.9" y="153.1543">Journal</text><line style="stroke:#A80036;stroke-width:1.5;" x1="212.5" x2="313.5" y1="165" y2="165"/><text fill="#000000" font-family="sans-serif" font-size="11" lengthAdjust="spacing" textLength="52" x="217.5" y="179.2104">DOI : DOI</text><text fill="#000000" font-family="sans-serif" font-size="11" lengthAdjust="spacing" textLength="91" x="217.5" y="192.0151">startDate : Date</text><text fill="#000000" font-family="sans-serif" font-size="11" lengthAdjust="spacing" textLength="85" x="217.5" y="204.8198">endDate : Date</text><!--MD5=[cee4b16e9c4c3b435207f3333dc7e3c1]
class Publication_Series--><rect fill="#FEFECE" filter="url(#f1hw80asw6631g)" height="32" id="Publication_Series" style="stroke:#A80036;stroke-width:1.5;" width="146" x="190" y="24"/><ellipse cx="205" cy="40" fill="#ADD1B2" rx="11" ry="11" style="stroke:#A80036;stroke-width:1.0;"/><path d="M207.9688,45.6406 Q207.3906,45.9375 206.75,46.0781 Q206.1094,46.2344 205.4063,46.2344 Q202.9063,46.2344 201.5781,44.5938 Q200.2656,42.9375 200.2656,39.8125 Q200.2656,36.6875 201.5781,35.0313 Q202.9063,33.375 205.4063,33.375 Q206.1094,33.375 206.75,33.5313 Q207.4063,33.6875 207.9688,33.9844 L207.9688,36.7031 Q207.3438,36.125 206.75,35.8594 Q206.1563,35.5781 205.5313,35.5781 Q204.1875,35.5781 203.5,36.6563 Q202.8125,37.7188 202.8125,39.8125 Q202.8125,41.9063 203.5,42.9844 Q204.1875,44.0469 205.5313,44.0469 Q206.1563,44.0469 206.75,43.7813 Q207.3438,43.5 207.9688,42.9219 L207.9688,45.6406 Z " fill="#000000"/><text fill="#000000" font-family="sans-serif" font-size="12" lengthAdjust="spacing" textLength="114" x="219" y="44.1543">Publication_Series</text><!--MD5=[9d44916250b776386006c440668bcfbb]
class Agent--><rect fill="#FEFECE" filter="url(#f1hw80asw6631g)" height="32" id="Agent" style="stroke:#A80036;stroke-width:1.5;" width="69" x="228.5" y="271"/><ellipse cx="243.5" cy="287" fill="#ADD1B2" rx="11" ry="11" style="stroke:#A80036;stroke-width:1.0;"/><path d="M246.4688,292.6406 Q245.8906,292.9375 245.25,293.0781 Q244.6094,293.2344 243.9063,293.2344 Q241.4063,293.2344 240.0781,291.5938 Q238.7656,289.9375 238.7656,286.8125 Q238.7656,283.6875 240.0781,282.0313 Q241.4063,280.375 243.9063,280.375 Q244.6094,280.375 245.25,280.5313 Q245.9063,280.6875 246.4688,280.9844 L246.4688,283.7031 Q245.8438,283.125 245.25,282.8594 Q244.6563,282.5781 244.0313,282.5781 Q242.6875,282.5781 242,283.6563 Q241.3125,284.7188 241.3125,286.8125 Q241.3125,288.9063 242,289.9844 Q242.6875,291.0469 244.0313,291.0469 Q244.6563,291.0469 245.25,290.7813 Q245.8438,290.5 246.4688,289.9219 L246.4688,292.6406 Z " fill="#000000"/><text fill="#000000" font-family="sans-serif" font-size="12" lengthAdjust="spacing" textLength="37" x="257.5" y="291.1543">Agent</text><!--MD5=[67ceb885199ca7e1fa058287d8756a2e]
reverse link Document to Textual_Document--><path codeLine="266" d="M81,93.26 C81,115.74 81,140.33 81,155.71 " fill="none" id="Document-backto-Textual_Document" style="stroke:#A80036;stroke-width:1.0;"/><polygon fill="none" points="74,93.13,81,73.13,88,93.13,74,93.13" style="stroke:#A80036;stroke-width:1.0;"/><!--MD5=[82e06a9ab4eb01586ad4d1c674f71186]
reverse link Publication_Series to Journal--><path codeLine="25" d="M263,76.2 C263,93.74 263,114.98 263,132.91 " fill="none" id="Publication_Series-backto-Journal" style="stroke:#A80036;stroke-width:1.0;"/><polygon fill="none" points="256,76.17,263,56.17,270,76.17,256,76.17" style="stroke:#A80036;stroke-width:1.0;"/><!--MD5=[88f40439064ff4845bc7e4cfd1a224e6]
reverse link Journal to Journal--><path codeLine="148" d="M327.68,151.54 C340.43,153.87 349.5,160.69 349.5,172 C349.5,186.92 333.7,194.03 314.51,193.33 " fill="none" id="Journal-backto-Journal" style="stroke:#A80036;stroke-width:1.0;"/><polygon fill="#FFFFFF" points="314.51,150.67,320.2335,155.0565,326.4839,151.4604,320.7604,147.0739,314.51,150.67" style="stroke:#A80036;stroke-width:1.0;"/><text fill="#000000" font-family="sans-serif" font-size="13" lengthAdjust="spacing" textLength="113" x="322.442" y="191.4022">0..* predecessors</text><!--MD5=[a0fe4bcc2e634d581797c23ae087e232]
reverse link Journal to Agent--><path codeLine="151" d="M263,224.33 C263,241.33 263,258.96 263,270.99 " fill="none" id="Journal-backto-Agent" style="stroke:#A80036;stroke-width:1.0;"/><polygon fill="#FFFFFF" points="263,211.26,259,217.26,263,223.26,267,217.26,263,211.26" style="stroke:#A80036;stroke-width:1.0;"/><text fill="#000000" font-family="sans-serif" font-size="13" lengthAdjust="spacing" textLength="92" x="155.1875" y="259.9982">0..* publishers</text><!--MD5=[cb444b89e08d5f8678e370bb3ea20244]
@startuml

    !includesub ../../CERIF-Core/diagrams/core.puml!common

    !includesub ../../CERIF-Core/diagrams/core.puml!Document
    !includesub ../../CERIF-Core/diagrams/core.puml!Textual_Document

    !includesub ./module.puml!Journal

@enduml

@startuml

    hide empty members
    skinparam BoxPadding 120

    class "Document" #ffffff {
        title : Multilingual_String
        publicationDate : Date
    }
    class "Textual_Document" #ffffff {
    }
    "Document" <|- - "Textual_Document"

        class "Journal" #ddeedd {
            DOI : DOI
            startDate : Date
            endDate : Date
        }

        "Publication_Series" <|- - "Journal"

        "Journal" o- - "0..* predecessors" "Journal"
        "Journal" o- -  "0..* publishers" "Agent"

@enduml

PlantUML version 1.2021.8(Sat Jun 26 08:20:59 UTC 2021)
(GPL source distribution)
Java Runtime: OpenJDK Runtime Environment
JVM: OpenJDK 64-Bit Server VM
Default Encoding: UTF-8
Language: en
Country: null
--></g></svg>