<?xml version="1.0" encoding="UTF-8" standalone="no"?><svg xmlns="http://www.w3.org/2000/svg" xmlns:xlink="http://www.w3.org/1999/xlink" contentScriptType="application/ecmascript" contentStyleType="text/css" height="427px" preserveAspectRatio="none" style="width:491px;height:427px;background:#FFFFFF;" version="1.1" viewBox="0 0 491 427" width="491px" zoomAndPan="magnify"><defs><filter height="300%" id="f2e5kmrsr1imh" width="300%" x="-1" y="-1"><feGaussianBlur result="blurOut" stdDeviation="2.0"/><feColorMatrix in="blurOut" result="blurOut2" type="matrix" values="0 0 0 0 0 0 0 0 0 0 0 0 0 0 0 0 0 0 .4 0"/><feOffset dx="4.0" dy="4.0" in="blurOut2" result="blurOut3"/><feBlend in="SourceGraphic" in2="blurOut3" mode="normal"/></filter></defs><g><!--MD5=[0ce99cd3eae675f87caad727cac20a4b]
cluster CERIF core--><polygon fill="#EFEFEF" filter="url(#f2e5kmrsr1imh)" points="16,6,106,6,113,28.2969,196,28.2969,196,233.5,16,233.5,16,6" style="stroke:#000000;stroke-width:1.5;"/><line style="stroke:#000000;stroke-width:1.5;" x1="16" x2="113" y1="28.2969" y2="28.2969"/><text fill="#000000" font-family="sans-serif" font-size="14" font-weight="bold" lengthAdjust="spacing" textLength="84" x="20" y="20.9951">CERIF core</text><!--MD5=[59b530d44ae785dc18db921986a9c15c]
class Document--><rect codeLine="7" fill="#FEFECE" filter="url(#f2e5kmrsr1imh)" height="78.4141" id="Document" style="stroke:#A80036;stroke-width:1.5;" width="148" x="32" y="139.5"/><ellipse cx="70.4" cy="155.5" fill="#ADD1B2" rx="11" ry="11" style="stroke:#A80036;stroke-width:1.0;"/><path d="M73.3688,161.1406 Q72.7906,161.4375 72.15,161.5781 Q71.5094,161.7344 70.8063,161.7344 Q68.3063,161.7344 66.9781,160.0938 Q65.6656,158.4375 65.6656,155.3125 Q65.6656,152.1875 66.9781,150.5313 Q68.3063,148.875 70.8063,148.875 Q71.5094,148.875 72.15,149.0313 Q72.8063,149.1875 73.3688,149.4844 L73.3688,152.2031 Q72.7438,151.625 72.15,151.3594 Q71.5563,151.0781 70.9313,151.0781 Q69.5875,151.0781 68.9,152.1563 Q68.2125,153.2188 68.2125,155.3125 Q68.2125,157.4063 68.9,158.4844 Q69.5875,159.5469 70.9313,159.5469 Q71.5563,159.5469 72.15,159.2813 Q72.7438,159 73.3688,158.4219 L73.3688,161.1406 Z " fill="#000000"/><text fill="#000000" font-family="sans-serif" font-size="12" lengthAdjust="spacing" textLength="64" x="89.6" y="159.6543">Document</text><line style="stroke:#A80036;stroke-width:1.5;" x1="33" x2="179" y1="171.5" y2="171.5"/><text fill="#000000" font-family="sans-serif" font-size="11" lengthAdjust="spacing" textLength="136" x="38" y="185.7104">title : Multilingual_String</text><text fill="#000000" font-family="sans-serif" font-size="11" lengthAdjust="spacing" textLength="125" x="38" y="198.5151">publicationDate : Date</text><text fill="#000000" font-family="sans-serif" font-size="11" lengthAdjust="spacing" textLength="85" x="38" y="211.3198">DOI : DOI_Type</text><!--MD5=[fe105c2ee1fabf2400c31a97ce9128bc]
class Textual_Document--><rect codeLine="12" fill="#FEFECE" filter="url(#f2e5kmrsr1imh)" height="32" id="Textual_Document" style="stroke:#A80036;stroke-width:1.5;" width="147" x="32.5" y="41"/><ellipse cx="47.5" cy="57" fill="#ADD1B2" rx="11" ry="11" style="stroke:#A80036;stroke-width:1.0;"/><path d="M50.4688,62.6406 Q49.8906,62.9375 49.25,63.0781 Q48.6094,63.2344 47.9063,63.2344 Q45.4063,63.2344 44.0781,61.5938 Q42.7656,59.9375 42.7656,56.8125 Q42.7656,53.6875 44.0781,52.0313 Q45.4063,50.375 47.9063,50.375 Q48.6094,50.375 49.25,50.5313 Q49.9063,50.6875 50.4688,50.9844 L50.4688,53.7031 Q49.8438,53.125 49.25,52.8594 Q48.6563,52.5781 48.0313,52.5781 Q46.6875,52.5781 46,53.6563 Q45.3125,54.7188 45.3125,56.8125 Q45.3125,58.9063 46,59.9844 Q46.6875,61.0469 48.0313,61.0469 Q48.6563,61.0469 49.25,60.7813 Q49.8438,60.5 50.4688,59.9219 L50.4688,62.6406 Z " fill="#000000"/><text fill="#000000" font-family="sans-serif" font-size="12" lengthAdjust="spacing" textLength="115" x="61.5" y="61.1543">Textual_Document</text><!--MD5=[9a5422ab15122c8d1cd75d14414799b8]
class Journal--><rect codeLine="22" fill="#FEFECE" filter="url(#f2e5kmrsr1imh)" height="129.6328" id="Journal" style="stroke:#A80036;stroke-width:1.5;" width="176" x="187" y="284"/><ellipse cx="249.25" cy="300" fill="#ADD1B2" rx="11" ry="11" style="stroke:#A80036;stroke-width:1.0;"/><path d="M252.2188,305.6406 Q251.6406,305.9375 251,306.0781 Q250.3594,306.2344 249.6563,306.2344 Q247.1563,306.2344 245.8281,304.5938 Q244.5156,302.9375 244.5156,299.8125 Q244.5156,296.6875 245.8281,295.0313 Q247.1563,293.375 249.6563,293.375 Q250.3594,293.375 251,293.5313 Q251.6563,293.6875 252.2188,293.9844 L252.2188,296.7031 Q251.5938,296.125 251,295.8594 Q250.4063,295.5781 249.7813,295.5781 Q248.4375,295.5781 247.75,296.6563 Q247.0625,297.7188 247.0625,299.8125 Q247.0625,301.9063 247.75,302.9844 Q248.4375,304.0469 249.7813,304.0469 Q250.4063,304.0469 251,303.7813 Q251.5938,303.5 252.2188,302.9219 L252.2188,305.6406 Z " fill="#000000"/><text fill="#000000" font-family="sans-serif" font-size="12" lengthAdjust="spacing" textLength="43" x="269.75" y="304.1543">Journal</text><line style="stroke:#A80036;stroke-width:1.5;" x1="188" x2="362" y1="316" y2="316"/><text fill="#000000" font-family="sans-serif" font-size="11" lengthAdjust="spacing" textLength="136" x="193" y="330.2104">title : Multilingual_String</text><text fill="#000000" font-family="sans-serif" font-size="11" lengthAdjust="spacing" textLength="164" x="193" y="343.0151">acronym : Multilingual_String</text><text fill="#000000" font-family="sans-serif" font-size="11" lengthAdjust="spacing" textLength="99" x="193" y="355.8198">ISSN : ISSN_Type</text><text fill="#000000" font-family="sans-serif" font-size="11" lengthAdjust="spacing" textLength="106" x="193" y="368.6245">eISSN : ISSN_Type</text><text fill="#000000" font-family="sans-serif" font-size="11" lengthAdjust="spacing" textLength="91" x="193" y="381.4292">startDate : Date</text><text fill="#000000" font-family="sans-serif" font-size="11" lengthAdjust="spacing" textLength="85" x="193" y="394.2339">endDate : Date</text><text fill="#000000" font-family="sans-serif" font-size="11" lengthAdjust="spacing" textLength="85" x="193" y="407.0386">DOI : DOI_Type</text><!--MD5=[6187a6e1e3f43e4e2525b450325f9ab5]
class Journal_Article--><rect codeLine="31" fill="#FEFECE" filter="url(#f2e5kmrsr1imh)" height="91.2188" id="Journal_Article" style="stroke:#A80036;stroke-width:1.5;" width="120" x="215" y="133"/><ellipse cx="230" cy="149" fill="#ADD1B2" rx="11" ry="11" style="stroke:#A80036;stroke-width:1.0;"/><path d="M232.9688,154.6406 Q232.3906,154.9375 231.75,155.0781 Q231.1094,155.2344 230.4063,155.2344 Q227.9063,155.2344 226.5781,153.5938 Q225.2656,151.9375 225.2656,148.8125 Q225.2656,145.6875 226.5781,144.0313 Q227.9063,142.375 230.4063,142.375 Q231.1094,142.375 231.75,142.5313 Q232.4063,142.6875 232.9688,142.9844 L232.9688,145.7031 Q232.3438,145.125 231.75,144.8594 Q231.1563,144.5781 230.5313,144.5781 Q229.1875,144.5781 228.5,145.6563 Q227.8125,146.7188 227.8125,148.8125 Q227.8125,150.9063 228.5,151.9844 Q229.1875,153.0469 230.5313,153.0469 Q231.1563,153.0469 231.75,152.7813 Q232.3438,152.5 232.9688,151.9219 L232.9688,154.6406 Z " fill="#000000"/><text fill="#000000" font-family="sans-serif" font-size="12" lengthAdjust="spacing" textLength="88" x="244" y="153.1543">Journal_Article</text><line style="stroke:#A80036;stroke-width:1.5;" x1="216" x2="334" y1="165" y2="165"/><text fill="#000000" font-family="sans-serif" font-size="11" lengthAdjust="spacing" textLength="101" x="221" y="179.2104">startPage : String</text><text fill="#000000" font-family="sans-serif" font-size="11" lengthAdjust="spacing" textLength="95" x="221" y="192.0151">endPage : String</text><text fill="#000000" font-family="sans-serif" font-size="11" lengthAdjust="spacing" textLength="87" x="221" y="204.8198">volume : String</text><text fill="#000000" font-family="sans-serif" font-size="11" lengthAdjust="spacing" textLength="77" x="221" y="217.6245">issue : String</text><!--MD5=[8d9b790276a1e6c61f0b091de629785c]
link Textual_Document to Document--><path codeLine="87" d="M106,73.13 C106,84.99 106,102.28 106,119.4 " fill="none" id="Textual_Document-to-Document" style="stroke:#A80036;stroke-width:1.0;"/><polygon fill="none" points="113,119.43,106,139.43,99,119.43,113,119.43" style="stroke:#A80036;stroke-width:1.0;"/><!--MD5=[c60a4b536c71b88487ebbf01e6b75384]
reverse link Textual_Document to Journal_Article--><path codeLine="91" d="M143.82,84.74 C164.75,99.54 191.25,118.28 214.94,135.03 " fill="none" id="Textual_Document-backto-Journal_Article" style="stroke:#A80036;stroke-width:1.0;"/><polygon fill="none" points="139.69,90.4,127.4,73.13,147.78,78.97,139.69,90.4" style="stroke:#A80036;stroke-width:1.0;"/><!--MD5=[88f40439064ff4845bc7e4cfd1a224e6]
reverse link Journal to Journal--><path codeLine="100" d="M375.9,320.91 C389.19,325.7 398,335.07 398,349 C398,367.01 383.27,377.39 363.18,380.14 " fill="none" id="Journal-backto-Journal" style="stroke:#A80036;stroke-width:1.0;"/><polygon fill="#FFFFFF" points="363.18,317.86,368.0831,323.1477,374.8498,320.6555,369.9468,315.3678,363.18,317.86" style="stroke:#A80036;stroke-width:1.0;"/><text fill="#000000" font-family="sans-serif" font-size="13" lengthAdjust="spacing" textLength="113" x="371.0922" y="378.5134">0..* predecessors</text><!--MD5=[a7ff7daa03c30e603ee3c4860dcf798f]
reverse link Journal_Article to Journal--><path codeLine="104" d="M275,237.5 C275,252.4 275,268.53 275,283.73 " fill="none" id="Journal_Article-backto-Journal" style="stroke:#A80036;stroke-width:1.0;"/><polygon fill="#FFFFFF" points="275,224.21,271,230.21,275,236.21,279,230.21,275,224.21" style="stroke:#A80036;stroke-width:1.0;"/><text fill="#000000" font-family="sans-serif" font-size="13" lengthAdjust="spacing" textLength="23" x="250.2391" y="244.4181">0..*</text><text fill="#000000" font-family="sans-serif" font-size="13" lengthAdjust="spacing" textLength="43" x="229.6484" y="272.865">source</text><!--MD5=[49ad09595580411fccb60ae7ccba742a]
@startuml

!includesub core.puml!common

package "CERIF core" #EFEFEF{
    !includesub ./core.puml!Document
}

!includesub ./module.puml!Journal

@enduml

@startuml

    	hide empty members

package "CERIF core" #EFEFEF{
    class "Document"{
        title : Multilingual_String
        publicationDate : Date
        DOI : DOI_Type
    }
    class "Textual_Document"{
    }
    "Document" <|-u- "Textual_Document"
}

    class "Journal"{
        title : Multilingual_String
        acronym : Multilingual_String
        ISSN : ISSN_Type
        eISSN : ISSN_Type
        startDate : Date
        endDate : Date
        DOI : DOI_Type
    }
    class "Journal_Article"{
        startPage : String
        endPage : String
        volume : String
        issue : String
    }
    "Textual_Document" <|- - "Journal_Article"
    "Journal" o- - "0..* predecessors" "Journal"
    "Journal_Article" "0..*" o- - "source" "Journal"

@enduml

PlantUML version 1.2021.8(Sat Jun 26 08:20:59 UTC 2021)
(GPL source distribution)
Java Runtime: OpenJDK Runtime Environment
JVM: OpenJDK 64-Bit Server VM
Default Encoding: UTF-8
Language: en
Country: null
--></g></svg>