<?xml version="1.0" encoding="UTF-8" standalone="no"?><svg xmlns="http://www.w3.org/2000/svg" xmlns:xlink="http://www.w3.org/1999/xlink" contentScriptType="application/ecmascript" contentStyleType="text/css" height="459px" preserveAspectRatio="none" style="width:447px;height:459px;background:#FFFFFF;" version="1.1" viewBox="0 0 447 459" width="447px" zoomAndPan="magnify"><defs><filter height="300%" id="f16r6cy9m2bwmn" width="300%" x="-1" y="-1"><feGaussianBlur result="blurOut" stdDeviation="2.0"/><feColorMatrix in="blurOut" result="blurOut2" type="matrix" values="0 0 0 0 0 0 0 0 0 0 0 0 0 0 0 0 0 0 .4 0"/><feOffset dx="4.0" dy="4.0" in="blurOut2" result="blurOut3"/><feBlend in="SourceGraphic" in2="blurOut3" mode="normal"/></filter></defs><g><!--MD5=[0ce99cd3eae675f87caad727cac20a4b]
cluster CERIF core--><polygon fill="#EFEFEF" filter="url(#f16r6cy9m2bwmn)" points="16,6,106,6,113,28.2969,194,28.2969,194,257.5,16,257.5,16,6" style="stroke:#000000;stroke-width:1.5;"/><line style="stroke:#000000;stroke-width:1.5;" x1="16" x2="113" y1="28.2969" y2="28.2969"/><text fill="#000000" font-family="sans-serif" font-size="14" font-weight="bold" lengthAdjust="spacing" textLength="84" x="20" y="20.9951">CERIF core</text><!--MD5=[59b530d44ae785dc18db921986a9c15c]
class Document--><rect codeLine="2" fill="#FEFECE" filter="url(#f16r6cy9m2bwmn)" height="86.4141" id="Document" style="stroke:#A80036;stroke-width:1.5;" width="140" x="35" y="155.5"/><ellipse cx="69.8" cy="171.5" fill="#ADD1B2" rx="11" ry="11" style="stroke:#A80036;stroke-width:1.0;"/><path d="M72.7688,177.1406 Q72.1906,177.4375 71.55,177.5781 Q70.9094,177.7344 70.2063,177.7344 Q67.7063,177.7344 66.3781,176.0938 Q65.0656,174.4375 65.0656,171.3125 Q65.0656,168.1875 66.3781,166.5313 Q67.7063,164.875 70.2063,164.875 Q70.9094,164.875 71.55,165.0313 Q72.2063,165.1875 72.7688,165.4844 L72.7688,168.2031 Q72.1438,167.625 71.55,167.3594 Q70.9563,167.0781 70.3313,167.0781 Q68.9875,167.0781 68.3,168.1563 Q67.6125,169.2188 67.6125,171.3125 Q67.6125,173.4063 68.3,174.4844 Q68.9875,175.5469 70.3313,175.5469 Q70.9563,175.5469 71.55,175.2813 Q72.1438,175 72.7688,174.4219 L72.7688,177.1406 Z " fill="#000000"/><text fill="#000000" font-family="sans-serif" font-size="12" lengthAdjust="spacing" textLength="64" x="88.2" y="175.6543">Document</text><line style="stroke:#A80036;stroke-width:1.5;" x1="36" x2="174" y1="187.5" y2="187.5"/><text fill="#000000" font-family="sans-serif" font-size="11" lengthAdjust="spacing" textLength="128" x="41" y="201.7104">Multilingual_String title</text><text fill="#000000" font-family="sans-serif" font-size="11" lengthAdjust="spacing" textLength="117" x="41" y="214.5151">Date publicationDate</text><text fill="#000000" font-family="sans-serif" font-size="11" lengthAdjust="spacing" textLength="77" x="41" y="227.3198">DOI_Type DOI</text><line style="stroke:#A80036;stroke-width:1.5;" x1="36" x2="174" y1="233.9141" y2="233.9141"/><!--MD5=[406eabaf9672e74804bc505a9777bf8f]
class Textual Document--><rect codeLine="7" fill="#FEFECE" filter="url(#f16r6cy9m2bwmn)" height="48" id="Textual Document" style="stroke:#A80036;stroke-width:1.5;" width="145" x="32.5" y="41"/><ellipse cx="47.5" cy="57" fill="#ADD1B2" rx="11" ry="11" style="stroke:#A80036;stroke-width:1.0;"/><path d="M50.4688,62.6406 Q49.8906,62.9375 49.25,63.0781 Q48.6094,63.2344 47.9063,63.2344 Q45.4063,63.2344 44.0781,61.5938 Q42.7656,59.9375 42.7656,56.8125 Q42.7656,53.6875 44.0781,52.0313 Q45.4063,50.375 47.9063,50.375 Q48.6094,50.375 49.25,50.5313 Q49.9063,50.6875 50.4688,50.9844 L50.4688,53.7031 Q49.8438,53.125 49.25,52.8594 Q48.6563,52.5781 48.0313,52.5781 Q46.6875,52.5781 46,53.6563 Q45.3125,54.7188 45.3125,56.8125 Q45.3125,58.9063 46,59.9844 Q46.6875,61.0469 48.0313,61.0469 Q48.6563,61.0469 49.25,60.7813 Q49.8438,60.5 50.4688,59.9219 L50.4688,62.6406 Z " fill="#000000"/><text fill="#000000" font-family="sans-serif" font-size="12" lengthAdjust="spacing" textLength="113" x="61.5" y="61.1543">Textual Document</text><line style="stroke:#A80036;stroke-width:1.5;" x1="33.5" x2="176.5" y1="73" y2="73"/><line style="stroke:#A80036;stroke-width:1.5;" x1="33.5" x2="176.5" y1="81" y2="81"/><!--MD5=[9a5422ab15122c8d1cd75d14414799b8]
class Journal--><rect codeLine="19" fill="#FEFECE" filter="url(#f16r6cy9m2bwmn)" height="137.6328" id="Journal" style="stroke:#A80036;stroke-width:1.5;" width="168" x="185" y="308"/><ellipse cx="243.25" cy="324" fill="#ADD1B2" rx="11" ry="11" style="stroke:#A80036;stroke-width:1.0;"/><path d="M246.2188,329.6406 Q245.6406,329.9375 245,330.0781 Q244.3594,330.2344 243.6563,330.2344 Q241.1563,330.2344 239.8281,328.5938 Q238.5156,326.9375 238.5156,323.8125 Q238.5156,320.6875 239.8281,319.0313 Q241.1563,317.375 243.6563,317.375 Q244.3594,317.375 245,317.5313 Q245.6563,317.6875 246.2188,317.9844 L246.2188,320.7031 Q245.5938,320.125 245,319.8594 Q244.4063,319.5781 243.7813,319.5781 Q242.4375,319.5781 241.75,320.6563 Q241.0625,321.7188 241.0625,323.8125 Q241.0625,325.9063 241.75,326.9844 Q242.4375,328.0469 243.7813,328.0469 Q244.4063,328.0469 245,327.7813 Q245.5938,327.5 246.2188,326.9219 L246.2188,329.6406 Z " fill="#000000"/><text fill="#000000" font-family="sans-serif" font-size="12" lengthAdjust="spacing" textLength="43" x="263.75" y="328.1543">Journal</text><line style="stroke:#A80036;stroke-width:1.5;" x1="186" x2="352" y1="340" y2="340"/><text fill="#000000" font-family="sans-serif" font-size="11" lengthAdjust="spacing" textLength="128" x="191" y="354.2104">Multilingual_String title</text><text fill="#000000" font-family="sans-serif" font-size="11" lengthAdjust="spacing" textLength="156" x="191" y="367.0151">Multilingual_String acronym</text><text fill="#000000" font-family="sans-serif" font-size="11" lengthAdjust="spacing" textLength="91" x="191" y="379.8198">ISSN_Type ISSN</text><text fill="#000000" font-family="sans-serif" font-size="11" lengthAdjust="spacing" textLength="98" x="191" y="392.6245">ISSN_Type eISSN</text><text fill="#000000" font-family="sans-serif" font-size="11" lengthAdjust="spacing" textLength="83" x="191" y="405.4292">Date startDate</text><text fill="#000000" font-family="sans-serif" font-size="11" lengthAdjust="spacing" textLength="77" x="191" y="418.2339">Date endDate</text><text fill="#000000" font-family="sans-serif" font-size="11" lengthAdjust="spacing" textLength="77" x="191" y="431.0386">DOI_Type DOI</text><line style="stroke:#A80036;stroke-width:1.5;" x1="186" x2="352" y1="437.6328" y2="437.6328"/><!--MD5=[12beecba4e2542e38d138122c6256afd]
class Journal Article--><rect codeLine="28" fill="#FEFECE" filter="url(#f16r6cy9m2bwmn)" height="99.2188" id="Journal Article" style="stroke:#A80036;stroke-width:1.5;" width="118" x="210" y="149"/><ellipse cx="225" cy="165" fill="#ADD1B2" rx="11" ry="11" style="stroke:#A80036;stroke-width:1.0;"/><path d="M227.9688,170.6406 Q227.3906,170.9375 226.75,171.0781 Q226.1094,171.2344 225.4063,171.2344 Q222.9063,171.2344 221.5781,169.5938 Q220.2656,167.9375 220.2656,164.8125 Q220.2656,161.6875 221.5781,160.0313 Q222.9063,158.375 225.4063,158.375 Q226.1094,158.375 226.75,158.5313 Q227.4063,158.6875 227.9688,158.9844 L227.9688,161.7031 Q227.3438,161.125 226.75,160.8594 Q226.1563,160.5781 225.5313,160.5781 Q224.1875,160.5781 223.5,161.6563 Q222.8125,162.7188 222.8125,164.8125 Q222.8125,166.9063 223.5,167.9844 Q224.1875,169.0469 225.5313,169.0469 Q226.1563,169.0469 226.75,168.7813 Q227.3438,168.5 227.9688,167.9219 L227.9688,170.6406 Z " fill="#000000"/><text fill="#000000" font-family="sans-serif" font-size="12" lengthAdjust="spacing" textLength="86" x="239" y="169.1543">Journal Article</text><line style="stroke:#A80036;stroke-width:1.5;" x1="211" x2="327" y1="181" y2="181"/><text fill="#000000" font-family="sans-serif" font-size="11" lengthAdjust="spacing" textLength="93" x="216" y="195.2104">String startPage</text><text fill="#000000" font-family="sans-serif" font-size="11" lengthAdjust="spacing" textLength="87" x="216" y="208.0151">String endPage</text><text fill="#000000" font-family="sans-serif" font-size="11" lengthAdjust="spacing" textLength="79" x="216" y="220.8198">String volume</text><text fill="#000000" font-family="sans-serif" font-size="11" lengthAdjust="spacing" textLength="69" x="216" y="233.6245">String issue</text><line style="stroke:#A80036;stroke-width:1.5;" x1="211" x2="327" y1="240.2188" y2="240.2188"/><!--MD5=[0cd4e18d651655357be10210466ee4fc]
link Textual Document to Document--><path codeLine="79" d="M105,89.21 C105,102.14 105,118.91 105,135.38 " fill="none" id="Textual Document-to-Document" style="stroke:#A80036;stroke-width:1.0;"/><polygon fill="none" points="112,135.4,105,155.4,98,135.4,112,135.4" style="stroke:#A80036;stroke-width:1.0;"/><!--MD5=[23379735e4fd57b5872021efc15730e6]
reverse link Textual Document to Journal Article--><path codeLine="88" d="M149.59,101.75 C168.14,116.62 189.93,134.1 209.79,150.02 " fill="none" id="Textual Document-backto-Journal Article" style="stroke:#A80036;stroke-width:1.0;"/><polygon fill="none" points="145.17,107.18,133.94,89.21,153.92,96.26,145.17,107.18" style="stroke:#A80036;stroke-width:1.0;"/><!--MD5=[88f40439064ff4845bc7e4cfd1a224e6]
reverse link Journal to Journal--><path codeLine="97" d="M365.9,347.31 C379.16,352.25 388,362.14 388,377 C388,396.21 373.22,407.13 353.23,409.75 " fill="none" id="Journal-backto-Journal" style="stroke:#A80036;stroke-width:1.0;"/><polygon fill="#A80036" points="353.23,344.25,358.1261,349.5442,364.8961,347.061,360,341.7668,353.23,344.25" style="stroke:#A80036;stroke-width:1.0;"/><text fill="#000000" font-family="sans-serif" font-size="13" lengthAdjust="spacing" textLength="79" x="361.1565" y="408.4505">predecessor</text><!--MD5=[8f91533f5c9c0fef1c133cd91b94eb09]
reverse link Journal Article to Journal--><path codeLine="101" d="M269,261.61 C269,276.61 269,292.72 269,307.98 " fill="none" id="Journal Article-backto-Journal" style="stroke:#A80036;stroke-width:1.0;"/><polygon fill="#A80036" points="269,248.2,265,254.2,269,260.2,273,254.2,269,248.2" style="stroke:#A80036;stroke-width:1.0;"/><text fill="#000000" font-family="sans-serif" font-size="13" lengthAdjust="spacing" textLength="43" x="223.6484" y="296.7049">source</text><!--MD5=[08d93d508a21d13d7a53bdfc499e0ba0]
@startuml
package "CERIF core" #EFEFEF{
    !includesub ./core.puml!Document
}

    !includesub ./module.puml!Journal
@enduml

@startuml
package "CERIF core" #EFEFEF{
    class "Document"{
        Multilingual_String title
        Date publicationDate
        DOI_Type DOI
    }
    class "Textual Document"{
    }
    "Document" <|-u- "Textual Document"
}

    class "Journal"{
        Multilingual_String title
        Multilingual_String acronym
        ISSN_Type ISSN
        ISSN_Type eISSN
        Date startDate
        Date endDate
        DOI_Type DOI
    }
    class "Journal Article"{
        String startPage
        String endPage
        String volume
        String issue
    }
    "Textual Document" <|- - "Journal Article"
    "Journal" *- - "predecessor" "Journal"
    "Journal Article" *- - "source" "Journal"
@enduml

PlantUML version 1.2021.8(Sat Jun 26 08:20:59 UTC 2021)
(GPL source distribution)
Java Runtime: OpenJDK Runtime Environment
JVM: OpenJDK 64-Bit Server VM
Default Encoding: UTF-8
Language: en
Country: null
--></g></svg>