<?xml version="1.0" encoding="UTF-8" standalone="no"?><svg xmlns="http://www.w3.org/2000/svg" xmlns:xlink="http://www.w3.org/1999/xlink" contentScriptType="application/ecmascript" contentStyleType="text/css" height="614px" preserveAspectRatio="none" style="width:689px;height:614px;background:#FFFFFF;" version="1.1" viewBox="0 0 689 614" width="689px" zoomAndPan="magnify"><defs><filter height="300%" id="f6j40p54523to" width="300%" x="-1" y="-1"><feGaussianBlur result="blurOut" stdDeviation="2.0"/><feColorMatrix in="blurOut" result="blurOut2" type="matrix" values="0 0 0 0 0 0 0 0 0 0 0 0 0 0 0 0 0 0 .4 0"/><feOffset dx="4.0" dy="4.0" in="blurOut2" result="blurOut3"/><feBlend in="SourceGraphic" in2="blurOut3" mode="normal"/></filter></defs><g><!--MD5=[59b530d44ae785dc18db921986a9c15c]
class Document--><rect codeLine="312" fill="#FFFFFF" filter="url(#f6j40p54523to)" height="65.6094" id="Document" style="stroke:#A80036;stroke-width:1.5;" width="148" x="221.2375" y="7"/><ellipse cx="259.6375" cy="23" fill="#ADD1B2" rx="11" ry="11" style="stroke:#A80036;stroke-width:1.0;"/><path d="M262.6063,28.6406 Q262.0281,28.9375 261.3875,29.0781 Q260.7469,29.2344 260.0438,29.2344 Q257.5438,29.2344 256.2156,27.5938 Q254.9031,25.9375 254.9031,22.8125 Q254.9031,19.6875 256.2156,18.0313 Q257.5438,16.375 260.0438,16.375 Q260.7469,16.375 261.3875,16.5313 Q262.0438,16.6875 262.6063,16.9844 L262.6063,19.7031 Q261.9813,19.125 261.3875,18.8594 Q260.7938,18.5781 260.1688,18.5781 Q258.825,18.5781 258.1375,19.6563 Q257.45,20.7188 257.45,22.8125 Q257.45,24.9063 258.1375,25.9844 Q258.825,27.0469 260.1688,27.0469 Q260.7938,27.0469 261.3875,26.7813 Q261.9813,26.5 262.6063,25.9219 L262.6063,28.6406 Z " fill="#000000"/><text fill="#000000" font-family="sans-serif" font-size="12" lengthAdjust="spacing" textLength="64" x="278.8375" y="27.1543">Document</text><line style="stroke:#A80036;stroke-width:1.5;" x1="222.2375" x2="368.2375" y1="39" y2="39"/><text fill="#000000" font-family="sans-serif" font-size="11" lengthAdjust="spacing" textLength="136" x="227.2375" y="53.2104">title : Multilingual_String</text><text fill="#000000" font-family="sans-serif" font-size="11" lengthAdjust="spacing" textLength="125" x="227.2375" y="66.0151">publicationDate : Date</text><!--MD5=[bcc382d868f32e5ce25faf6e44aed96d]
class Publication_Channel--><rect codeLine="319" fill="#FFFFFF" filter="url(#f6j40p54523to)" height="65.6094" id="Publication_Channel" style="stroke:#A80036;stroke-width:1.5;" width="176" x="105.2375" y="150"/><ellipse cx="128.3375" cy="166" fill="#ADD1B2" rx="11" ry="11" style="stroke:#A80036;stroke-width:1.0;"/><path d="M131.3063,171.6406 Q130.7281,171.9375 130.0875,172.0781 Q129.4469,172.2344 128.7438,172.2344 Q126.2438,172.2344 124.9156,170.5938 Q123.6031,168.9375 123.6031,165.8125 Q123.6031,162.6875 124.9156,161.0313 Q126.2438,159.375 128.7438,159.375 Q129.4469,159.375 130.0875,159.5313 Q130.7438,159.6875 131.3063,159.9844 L131.3063,162.7031 Q130.6813,162.125 130.0875,161.8594 Q129.4938,161.5781 128.8688,161.5781 Q127.525,161.5781 126.8375,162.6563 Q126.15,163.7188 126.15,165.8125 Q126.15,167.9063 126.8375,168.9844 Q127.525,170.0469 128.8688,170.0469 Q129.4938,170.0469 130.0875,169.7813 Q130.6813,169.5 131.3063,168.9219 L131.3063,171.6406 Z " fill="#000000"/><text fill="#000000" font-family="sans-serif" font-size="12" lengthAdjust="spacing" textLength="126" x="144.1375" y="170.1543">Publication_Channel</text><line style="stroke:#A80036;stroke-width:1.5;" x1="106.2375" x2="280.2375" y1="182" y2="182"/><text fill="#000000" font-family="sans-serif" font-size="11" lengthAdjust="spacing" textLength="136" x="111.2375" y="196.2104">title : Multilingual_String</text><text fill="#000000" font-family="sans-serif" font-size="11" lengthAdjust="spacing" textLength="164" x="111.2375" y="209.0151">acronym : Multilingual_String</text><!--MD5=[cee4b16e9c4c3b435207f3333dc7e3c1]
class Publication_Series--><rect codeLine="59" fill="#DDEEDD" filter="url(#f6j40p54523to)" height="65.6094" id="Publication_Series" style="stroke:#A80036;stroke-width:1.5;" width="146" x="118.2375" y="289.5"/><ellipse cx="133.2375" cy="305.5" fill="#ADD1B2" rx="11" ry="11" style="stroke:#A80036;stroke-width:1.0;"/><path d="M136.2063,311.1406 Q135.6281,311.4375 134.9875,311.5781 Q134.3469,311.7344 133.6438,311.7344 Q131.1438,311.7344 129.8156,310.0938 Q128.5031,308.4375 128.5031,305.3125 Q128.5031,302.1875 129.8156,300.5313 Q131.1438,298.875 133.6438,298.875 Q134.3469,298.875 134.9875,299.0313 Q135.6438,299.1875 136.2063,299.4844 L136.2063,302.2031 Q135.5813,301.625 134.9875,301.3594 Q134.3938,301.0781 133.7688,301.0781 Q132.425,301.0781 131.7375,302.1563 Q131.05,303.2188 131.05,305.3125 Q131.05,307.4063 131.7375,308.4844 Q132.425,309.5469 133.7688,309.5469 Q134.3938,309.5469 134.9875,309.2813 Q135.5813,309 136.2063,308.4219 L136.2063,311.1406 Z " fill="#000000"/><text fill="#000000" font-family="sans-serif" font-size="12" lengthAdjust="spacing" textLength="114" x="147.2375" y="309.6543">Publication_Series</text><line style="stroke:#A80036;stroke-width:1.5;" x1="119.2375" x2="263.2375" y1="321.5" y2="321.5"/><text fill="#000000" font-family="sans-serif" font-size="11" lengthAdjust="spacing" textLength="66" x="124.2375" y="335.7104">ISSN : ISSN</text><text fill="#000000" font-family="sans-serif" font-size="11" lengthAdjust="spacing" textLength="73" x="124.2375" y="348.5151">eISSN : ISSN</text><!--MD5=[9a5422ab15122c8d1cd75d14414799b8]
class Journal--><rect codeLine="68" fill="#DDEEDD" filter="url(#f6j40p54523to)" height="78.4141" id="Journal" style="stroke:#A80036;stroke-width:1.5;" width="103" x="61.7375" y="429"/><ellipse cx="89.3375" cy="445" fill="#ADD1B2" rx="11" ry="11" style="stroke:#A80036;stroke-width:1.0;"/><path d="M92.3063,450.6406 Q91.7281,450.9375 91.0875,451.0781 Q90.4469,451.2344 89.7438,451.2344 Q87.2438,451.2344 85.9156,449.5938 Q84.6031,447.9375 84.6031,444.8125 Q84.6031,441.6875 85.9156,440.0313 Q87.2438,438.375 89.7438,438.375 Q90.4469,438.375 91.0875,438.5313 Q91.7438,438.6875 92.3063,438.9844 L92.3063,441.7031 Q91.6813,441.125 91.0875,440.8594 Q90.4938,440.5781 89.8688,440.5781 Q88.525,440.5781 87.8375,441.6563 Q87.15,442.7188 87.15,444.8125 Q87.15,446.9063 87.8375,447.9844 Q88.525,449.0469 89.8688,449.0469 Q90.4938,449.0469 91.0875,448.7813 Q91.6813,448.5 92.3063,447.9219 L92.3063,450.6406 Z " fill="#000000"/><text fill="#000000" font-family="sans-serif" font-size="12" lengthAdjust="spacing" textLength="43" x="106.1375" y="449.1543">Journal</text><line style="stroke:#A80036;stroke-width:1.5;" x1="62.7375" x2="163.7375" y1="461" y2="461"/><text fill="#000000" font-family="sans-serif" font-size="11" lengthAdjust="spacing" textLength="52" x="67.7375" y="475.2104">DOI : DOI</text><text fill="#000000" font-family="sans-serif" font-size="11" lengthAdjust="spacing" textLength="91" x="67.7375" y="488.0151">startDate : Date</text><text fill="#000000" font-family="sans-serif" font-size="11" lengthAdjust="spacing" textLength="85" x="67.7375" y="500.8198">endDate : Date</text><!--MD5=[9d44916250b776386006c440668bcfbb]
class Agent--><rect fill="#FEFECE" filter="url(#f6j40p54523to)" height="32" id="Agent" style="stroke:#A80036;stroke-width:1.5;" width="69" x="78.7375" y="568"/><ellipse cx="93.7375" cy="584" fill="#ADD1B2" rx="11" ry="11" style="stroke:#A80036;stroke-width:1.0;"/><path d="M96.7063,589.6406 Q96.1281,589.9375 95.4875,590.0781 Q94.8469,590.2344 94.1438,590.2344 Q91.6438,590.2344 90.3156,588.5938 Q89.0031,586.9375 89.0031,583.8125 Q89.0031,580.6875 90.3156,579.0313 Q91.6438,577.375 94.1438,577.375 Q94.8469,577.375 95.4875,577.5313 Q96.1438,577.6875 96.7063,577.9844 L96.7063,580.7031 Q96.0813,580.125 95.4875,579.8594 Q94.8938,579.5781 94.2688,579.5781 Q92.925,579.5781 92.2375,580.6563 Q91.55,581.7188 91.55,583.8125 Q91.55,585.9063 92.2375,586.9844 Q92.925,588.0469 94.2688,588.0469 Q94.8938,588.0469 95.4875,587.7813 Q96.0813,587.5 96.7063,586.9219 L96.7063,589.6406 Z " fill="#000000"/><text fill="#000000" font-family="sans-serif" font-size="12" lengthAdjust="spacing" textLength="37" x="107.7375" y="588.1543">Agent</text><!--MD5=[63653625e761dfa0b192a72ef49a851b]
class Scholarly_Publication--><rect codeLine="5" fill="#DDEEDD" filter="url(#f6j40p54523to)" height="32" id="Scholarly_Publication" style="stroke:#A80036;stroke-width:1.5;" width="163" x="316.7375" y="167"/><ellipse cx="331.7375" cy="183" fill="#ADD1B2" rx="11" ry="11" style="stroke:#A80036;stroke-width:1.0;"/><path d="M334.7063,188.6406 Q334.1281,188.9375 333.4875,189.0781 Q332.8469,189.2344 332.1438,189.2344 Q329.6438,189.2344 328.3156,187.5938 Q327.0031,185.9375 327.0031,182.8125 Q327.0031,179.6875 328.3156,178.0313 Q329.6438,176.375 332.1438,176.375 Q332.8469,176.375 333.4875,176.5313 Q334.1438,176.6875 334.7063,176.9844 L334.7063,179.7031 Q334.0813,179.125 333.4875,178.8594 Q332.8938,178.5781 332.2688,178.5781 Q330.925,178.5781 330.2375,179.6563 Q329.55,180.7188 329.55,182.8125 Q329.55,184.9063 330.2375,185.9844 Q330.925,187.0469 332.2688,187.0469 Q332.8938,187.0469 333.4875,186.7813 Q334.0813,186.5 334.7063,185.9219 L334.7063,188.6406 Z " fill="#000000"/><text fill="#000000" font-family="sans-serif" font-size="12" lengthAdjust="spacing" textLength="131" x="345.7375" y="187.1543">Scholarly_Publication</text><!--MD5=[d22815ff63be9cac9a63f8d1ea27d033]
class Article--><rect codeLine="114" fill="#DDEEDD" filter="url(#f6j40p54523to)" height="91.2188" id="Article" style="stroke:#A80036;stroke-width:1.5;" width="161" x="348.7375" y="277"/><ellipse cx="405.4875" cy="293" fill="#ADD1B2" rx="11" ry="11" style="stroke:#A80036;stroke-width:1.0;"/><path d="M408.4563,298.6406 Q407.8781,298.9375 407.2375,299.0781 Q406.5969,299.2344 405.8938,299.2344 Q403.3938,299.2344 402.0656,297.5938 Q400.7531,295.9375 400.7531,292.8125 Q400.7531,289.6875 402.0656,288.0313 Q403.3938,286.375 405.8938,286.375 Q406.5969,286.375 407.2375,286.5313 Q407.8938,286.6875 408.4563,286.9844 L408.4563,289.7031 Q407.8313,289.125 407.2375,288.8594 Q406.6438,288.5781 406.0188,288.5781 Q404.675,288.5781 403.9875,289.6563 Q403.3,290.7188 403.3,292.8125 Q403.3,294.9063 403.9875,295.9844 Q404.675,297.0469 406.0188,297.0469 Q406.6438,297.0469 407.2375,296.7813 Q407.8313,296.5 408.4563,295.9219 L408.4563,298.6406 Z " fill="#000000"/><text fill="#000000" font-family="sans-serif" font-size="12" lengthAdjust="spacing" textLength="39" x="425.9875" y="297.1543">Article</text><line style="stroke:#A80036;stroke-width:1.5;" x1="349.7375" x2="508.7375" y1="309" y2="309"/><text fill="#000000" font-family="sans-serif" font-size="11" lengthAdjust="spacing" textLength="101" x="354.7375" y="323.2104">startPage : String</text><text fill="#000000" font-family="sans-serif" font-size="11" lengthAdjust="spacing" textLength="95" x="354.7375" y="336.0151">endPage : String</text><text fill="#000000" font-family="sans-serif" font-size="11" lengthAdjust="spacing" textLength="149" x="354.7375" y="348.8198">numberOfPages : Decimal</text><text fill="#000000" font-family="sans-serif" font-size="11" lengthAdjust="spacing" textLength="126" x="354.7375" y="361.6245">articleNumber : String</text><!--MD5=[9548cb71c0a277156e2ec959836c9b89]
class Book_Chapter--><rect codeLine="123" fill="#DDEEDD" filter="url(#f6j40p54523to)" height="32" id="Book_Chapter" style="stroke:#A80036;stroke-width:1.5;" width="119" x="217.7375" y="452"/><ellipse cx="232.7375" cy="468" fill="#ADD1B2" rx="11" ry="11" style="stroke:#A80036;stroke-width:1.0;"/><path d="M235.7063,473.6406 Q235.1281,473.9375 234.4875,474.0781 Q233.8469,474.2344 233.1438,474.2344 Q230.6438,474.2344 229.3156,472.5938 Q228.0031,470.9375 228.0031,467.8125 Q228.0031,464.6875 229.3156,463.0313 Q230.6438,461.375 233.1438,461.375 Q233.8469,461.375 234.4875,461.5313 Q235.1438,461.6875 235.7063,461.9844 L235.7063,464.7031 Q235.0813,464.125 234.4875,463.8594 Q233.8938,463.5781 233.2688,463.5781 Q231.925,463.5781 231.2375,464.6563 Q230.55,465.7188 230.55,467.8125 Q230.55,469.9063 231.2375,470.9844 Q231.925,472.0469 233.2688,472.0469 Q233.8938,472.0469 234.4875,471.7813 Q235.0813,471.5 235.7063,470.9219 L235.7063,473.6406 Z " fill="#000000"/><text fill="#000000" font-family="sans-serif" font-size="12" lengthAdjust="spacing" textLength="87" x="246.7375" y="472.1543">Book_Chapter</text><!--MD5=[1d3fc7c86c948f99e0561baef175b459]
class Book_of_Chapters--><rect fill="#FEFECE" filter="url(#f6j40p54523to)" height="32" id="Book_of_Chapters" style="stroke:#A80036;stroke-width:1.5;" width="144" x="205.2375" y="568"/><ellipse cx="220.2375" cy="584" fill="#ADD1B2" rx="11" ry="11" style="stroke:#A80036;stroke-width:1.0;"/><path d="M223.2063,589.6406 Q222.6281,589.9375 221.9875,590.0781 Q221.3469,590.2344 220.6438,590.2344 Q218.1438,590.2344 216.8156,588.5938 Q215.5031,586.9375 215.5031,583.8125 Q215.5031,580.6875 216.8156,579.0313 Q218.1438,577.375 220.6438,577.375 Q221.3469,577.375 221.9875,577.5313 Q222.6438,577.6875 223.2063,577.9844 L223.2063,580.7031 Q222.5813,580.125 221.9875,579.8594 Q221.3938,579.5781 220.7688,579.5781 Q219.425,579.5781 218.7375,580.6563 Q218.05,581.7188 218.05,583.8125 Q218.05,585.9063 218.7375,586.9844 Q219.425,588.0469 220.7688,588.0469 Q221.3938,588.0469 221.9875,587.7813 Q222.5813,587.5 223.2063,586.9219 L223.2063,589.6406 Z " fill="#000000"/><text fill="#000000" font-family="sans-serif" font-size="12" lengthAdjust="spacing" textLength="112" x="234.2375" y="588.1543">Book_of_Chapters</text><!--MD5=[1678d3ff9a2a61263ae88ec1bc90f6e6]
class Conference_Article--><rect codeLine="129" fill="#DDEEDD" filter="url(#f6j40p54523to)" height="32" id="Conference_Article" style="stroke:#A80036;stroke-width:1.5;" width="149" x="371.7375" y="452"/><ellipse cx="386.7375" cy="468" fill="#ADD1B2" rx="11" ry="11" style="stroke:#A80036;stroke-width:1.0;"/><path d="M389.7063,473.6406 Q389.1281,473.9375 388.4875,474.0781 Q387.8469,474.2344 387.1438,474.2344 Q384.6438,474.2344 383.3156,472.5938 Q382.0031,470.9375 382.0031,467.8125 Q382.0031,464.6875 383.3156,463.0313 Q384.6438,461.375 387.1438,461.375 Q387.8469,461.375 388.4875,461.5313 Q389.1438,461.6875 389.7063,461.9844 L389.7063,464.7031 Q389.0813,464.125 388.4875,463.8594 Q387.8938,463.5781 387.2688,463.5781 Q385.925,463.5781 385.2375,464.6563 Q384.55,465.7188 384.55,467.8125 Q384.55,469.9063 385.2375,470.9844 Q385.925,472.0469 387.2688,472.0469 Q387.8938,472.0469 388.4875,471.7813 Q389.0813,471.5 389.7063,470.9219 L389.7063,473.6406 Z " fill="#000000"/><text fill="#000000" font-family="sans-serif" font-size="12" lengthAdjust="spacing" textLength="117" x="400.7375" y="472.1543">Conference_Article</text><!--MD5=[3e68a564cd57557f808fa49eb9c6b7fc]
class Proceedings--><rect fill="#FEFECE" filter="url(#f6j40p54523to)" height="32" id="Proceedings" style="stroke:#A80036;stroke-width:1.5;" width="110" x="391.2375" y="568"/><ellipse cx="406.2375" cy="584" fill="#ADD1B2" rx="11" ry="11" style="stroke:#A80036;stroke-width:1.0;"/><path d="M409.2063,589.6406 Q408.6281,589.9375 407.9875,590.0781 Q407.3469,590.2344 406.6438,590.2344 Q404.1438,590.2344 402.8156,588.5938 Q401.5031,586.9375 401.5031,583.8125 Q401.5031,580.6875 402.8156,579.0313 Q404.1438,577.375 406.6438,577.375 Q407.3469,577.375 407.9875,577.5313 Q408.6438,577.6875 409.2063,577.9844 L409.2063,580.7031 Q408.5813,580.125 407.9875,579.8594 Q407.3938,579.5781 406.7688,579.5781 Q405.425,579.5781 404.7375,580.6563 Q404.05,581.7188 404.05,583.8125 Q404.05,585.9063 404.7375,586.9844 Q405.425,588.0469 406.7688,588.0469 Q407.3938,588.0469 407.9875,587.7813 Q408.5813,587.5 409.2063,586.9219 L409.2063,589.6406 Z " fill="#000000"/><text fill="#000000" font-family="sans-serif" font-size="12" lengthAdjust="spacing" textLength="78" x="420.2375" y="588.1543">Proceedings</text><!--MD5=[6187a6e1e3f43e4e2525b450325f9ab5]
class Journal_Article--><rect codeLine="135" fill="#DDEEDD" filter="url(#f6j40p54523to)" height="65.6094" id="Journal_Article" style="stroke:#A80036;stroke-width:1.5;" width="120" x="555.2375" y="435"/><ellipse cx="570.2375" cy="451" fill="#ADD1B2" rx="11" ry="11" style="stroke:#A80036;stroke-width:1.0;"/><path d="M573.2063,456.6406 Q572.6281,456.9375 571.9875,457.0781 Q571.3469,457.2344 570.6438,457.2344 Q568.1438,457.2344 566.8156,455.5938 Q565.5031,453.9375 565.5031,450.8125 Q565.5031,447.6875 566.8156,446.0313 Q568.1438,444.375 570.6438,444.375 Q571.3469,444.375 571.9875,444.5313 Q572.6438,444.6875 573.2063,444.9844 L573.2063,447.7031 Q572.5813,447.125 571.9875,446.8594 Q571.3938,446.5781 570.7688,446.5781 Q569.425,446.5781 568.7375,447.6563 Q568.05,448.7188 568.05,450.8125 Q568.05,452.9063 568.7375,453.9844 Q569.425,455.0469 570.7688,455.0469 Q571.3938,455.0469 571.9875,454.7813 Q572.5813,454.5 573.2063,453.9219 L573.2063,456.6406 Z " fill="#000000"/><text fill="#000000" font-family="sans-serif" font-size="12" lengthAdjust="spacing" textLength="88" x="584.2375" y="455.1543">Journal_Article</text><line style="stroke:#A80036;stroke-width:1.5;" x1="556.2375" x2="674.2375" y1="467" y2="467"/><text fill="#000000" font-family="sans-serif" font-size="11" lengthAdjust="spacing" textLength="87" x="561.2375" y="481.2104">volume : String</text><text fill="#000000" font-family="sans-serif" font-size="11" lengthAdjust="spacing" textLength="90" x="561.2375" y="494.0151">number : String</text><!--MD5=[3e969255208de71f7bfccf2b9540bd27]
link Document to Publication_Channel--><path codeLine="324" d="M240.5675,73.26 C229.8575,81.75 219.6575,91.74 212.2375,103 C204.0775,115.38 199.4175,130.91 196.7575,144.91 " fill="none" id="Document-to-Publication_Channel" style="stroke:#A80036;stroke-width:1.0;"/><polygon fill="#A80036" points="195.8675,150,201.3734,141.8339,196.7381,145.0764,193.4956,140.441,195.8675,150" style="stroke:#A80036;stroke-width:1.0;"/><polygon fill="#000000" points="214.6292,115.8322,221.855,109.6484,216.8403,106.5822,214.6292,115.8322" style="stroke:#000000;stroke-width:1.0;"/><text fill="#000000" font-family="sans-serif" font-size="13" lengthAdjust="spacing" textLength="137" x="226.2375" y="116.0669">published via channel</text><text fill="#000000" font-family="sans-serif" font-size="13" lengthAdjust="spacing" textLength="24" x="169.9349" y="138.7677">0..1</text><!--MD5=[a68abcec40f40f5cbbbda0c1525bfe1a]
reverse link Publication_Channel to Publication_Series--><path codeLine="64" d="M192.4775,236.51 C192.2175,254.34 191.9275,273.72 191.7075,289.46 " fill="none" id="Publication_Channel-backto-Publication_Series" style="stroke:#A80036;stroke-width:1.0;"/><polygon fill="none" points="185.4775,236.13,192.7675,216.24,199.4775,236.34,185.4775,236.13" style="stroke:#A80036;stroke-width:1.0;"/><!--MD5=[82e06a9ab4eb01586ad4d1c674f71186]
reverse link Publication_Series to Journal--><path codeLine="74" d="M164.1475,373.34 C154.2675,391.52 143.2475,411.78 134.0075,428.79 " fill="none" id="Publication_Series-backto-Journal" style="stroke:#A80036;stroke-width:1.0;"/><polygon fill="none" points="158.0275,369.93,173.7375,355.7,170.3275,376.62,158.0275,369.93" style="stroke:#A80036;stroke-width:1.0;"/><!--MD5=[88f40439064ff4845bc7e4cfd1a224e6]
reverse link Journal to Journal--><path codeLine="197" d="M177.9175,455.79 C190.6675,457.19 199.7375,461.26 199.7375,468 C199.7375,476.9 183.9375,481.14 164.7475,480.72 " fill="none" id="Journal-backto-Journal" style="stroke:#A80036;stroke-width:1.0;"/><polygon fill="#FFFFFF" points="164.7475,455.28,170.5892,459.5079,176.7386,455.7417,170.897,451.5138,164.7475,455.28" style="stroke:#A80036;stroke-width:1.0;"/><text fill="#000000" font-family="sans-serif" font-size="13" lengthAdjust="spacing" textLength="113" x="150.4527" y="504.3259">0..* predecessors</text><!--MD5=[a0fe4bcc2e634d581797c23ae087e232]
reverse link Journal to Agent--><path codeLine="200" d="M113.2375,520.5 C113.2375,537.7 113.2375,555.57 113.2375,567.77 " fill="none" id="Journal-backto-Agent" style="stroke:#A80036;stroke-width:1.0;"/><polygon fill="#FFFFFF" points="113.2375,507.28,109.2375,513.28,113.2375,519.28,117.2375,513.28,113.2375,507.28" style="stroke:#A80036;stroke-width:1.0;"/><text fill="#000000" font-family="sans-serif" font-size="13" lengthAdjust="spacing" textLength="92" x="6" y="556.9983">0..* publishers</text><!--MD5=[c8d1862492c5b5e25951e586acc2f1e2]
reverse link Document to Scholarly_Publication--><path codeLine="10" d="M355.2575,87.33 C359.9775,92.32 364.3975,97.57 368.2375,103 C382.2875,122.89 390.7275,150.21 394.9275,166.95 " fill="none" id="Document-backto-Scholarly_Publication" style="stroke:#A80036;stroke-width:1.0;"/><polygon fill="none" points="350.0875,92.07,340.4275,73.21,359.7375,81.93,350.0875,92.07" style="stroke:#A80036;stroke-width:1.0;"/><!--MD5=[ff21ff78bda4a9da792f658c602cf652]
reverse link Scholarly_Publication to Article--><path codeLine="121" d="M406.1075,218.92 C410.0775,236.51 414.9275,258.04 419.1675,276.83 " fill="none" id="Scholarly_Publication-backto-Article" style="stroke:#A80036;stroke-width:1.0;"/><polygon fill="none" points="399.2475,220.29,401.6775,199.24,412.8975,217.21,399.2475,220.29" style="stroke:#A80036;stroke-width:1.0;"/><!--MD5=[e08cfb285a4e8ed248d07b84efca5d5e]
reverse link Article to Book_Chapter--><path codeLine="126" d="M367.3275,381.95 C340.3375,407.43 310.8975,435.22 293.2575,451.88 " fill="none" id="Article-backto-Book_Chapter" style="stroke:#A80036;stroke-width:1.0;"/><polygon fill="none" points="362.6275,376.76,381.9775,368.12,372.2375,386.94,362.6275,376.76" style="stroke:#A80036;stroke-width:1.0;"/><!--MD5=[4bfdd489591558c229d1f994615a69ce]
reverse link Book_Chapter to Book_of_Chapters--><path codeLine="127" d="M277.2375,497.38 C277.2375,519.71 277.2375,549.95 277.2375,567.87 " fill="none" id="Book_Chapter-backto-Book_of_Chapters" style="stroke:#A80036;stroke-width:1.0;"/><polygon fill="#A80036" points="277.2375,484.37,273.2375,490.37,277.2375,496.37,281.2375,490.37,277.2375,484.37" style="stroke:#A80036;stroke-width:1.0;"/><text fill="#000000" font-family="sans-serif" font-size="13" lengthAdjust="spacing" textLength="8" x="267.8625" y="556.8369">1</text><!--MD5=[90d211e9335c6fbad58e70470042855a]
reverse link Article to Conference_Article--><path codeLine="132" d="M436.8775,388 C439.6875,411.73 442.6275,436.54 444.4475,451.88 " fill="none" id="Article-backto-Conference_Article" style="stroke:#A80036;stroke-width:1.0;"/><polygon fill="none" points="429.9275,388.8,434.5275,368.12,443.8275,387.16,429.9275,388.8" style="stroke:#A80036;stroke-width:1.0;"/><!--MD5=[eac7307ca628de9ca37b2f322f7426aa]
reverse link Conference_Article to Proceedings--><path codeLine="133" d="M446.2375,497.38 C446.2375,519.71 446.2375,549.95 446.2375,567.87 " fill="none" id="Conference_Article-backto-Proceedings" style="stroke:#A80036;stroke-width:1.0;"/><polygon fill="#A80036" points="446.2375,484.37,442.2375,490.37,446.2375,496.37,450.2375,490.37,446.2375,484.37" style="stroke:#A80036;stroke-width:1.0;"/><text fill="#000000" font-family="sans-serif" font-size="13" lengthAdjust="spacing" textLength="24" x="418.1125" y="556.8369">0..1</text><!--MD5=[f7e3c478638caf5f09f8f1ad52009cc0]
reverse link Article to Journal_Article--><path codeLine="140" d="M502.9475,380.37 C526.9975,398.92 552.8475,418.87 573.6775,434.94 " fill="none" id="Article-backto-Journal_Article" style="stroke:#A80036;stroke-width:1.0;"/><polygon fill="none" points="498.6275,385.88,487.0675,368.12,507.1775,374.79,498.6275,385.88" style="stroke:#A80036;stroke-width:1.0;"/><!--MD5=[fcb27908c82f215232379c2daa68ef49]
@startuml

    !includesub ../../CERIF-Core/diagrams/core.puml!common

    !includesub ../../CERIF-Core/diagrams/core.puml!Document


    !includesub ../../CERIF-Core/diagrams/core.puml!Publication_Channel
    !includesub ./module.puml!Publication_Series
    !includesub ./module.puml!Journal
    !includesub ./module.puml!Scholarly_Publication
    !includesub ./module.puml!Article

@enduml

@startuml

    hide empty members
    skinparam BoxPadding 120

    class "Document" #ffffff {
        title : Multilingual_String
        publicationDate : Date
    }


    class "Publication_Channel" #ffffff {
        title : Multilingual_String
        acronym : Multilingual_String
    }

    "Document" - -> "0..1" "Publication_Channel" : published via channel >

        class "Publication_Series" #ddeedd {
            ISSN : ISSN
            eISSN : ISSN
        }

        "Publication_Channel" <|- - "Publication_Series"
        class "Journal" #ddeedd {
            DOI : DOI
            startDate : Date
            endDate : Date
        }

        "Publication_Series" <|- - "Journal"

        "Journal" o- - "0..* predecessors" "Journal"
        "Journal" o- -  "0..* publishers" "Agent"
        class "Scholarly_Publication" #ddeedd {
        }
        "Document" <|- - "Scholarly_Publication"
            class "Article" #ddeedd {
                startPage : String
                endPage : String
                numberOfPages : Decimal
                articleNumber : String
            }

            "Scholarly_Publication" <|- - "Article"

            class "Book_Chapter" #ddeedd {
            }

            "Article" <|- - "Book_Chapter"
            "Book_Chapter" *- - "1" "Book_of_Chapters"

            class "Conference_Article" #ddeedd {
            }

            "Article" <|- - "Conference_Article"
            "Conference_Article" *- - "0..1" "Proceedings"

             class "Journal_Article" #ddeedd {
                volume : String
                number : String
             }

             "Article" <|- - "Journal_Article"

@enduml

PlantUML version 1.2021.8(Sat Jun 26 08:20:59 UTC 2021)
(GPL source distribution)
Java Runtime: OpenJDK Runtime Environment
JVM: OpenJDK 64-Bit Server VM
Default Encoding: UTF-8
Language: en
Country: null
--></g></svg>