<?xml version="1.0" encoding="UTF-8" standalone="no"?><svg xmlns="http://www.w3.org/2000/svg" xmlns:xlink="http://www.w3.org/1999/xlink" contentScriptType="application/ecmascript" contentStyleType="text/css" height="921px" preserveAspectRatio="none" style="width:1496px;height:921px;background:#FFFFFF;" version="1.1" viewBox="0 0 1496 921" width="1496px" zoomAndPan="magnify"><defs><filter height="300%" id="f7cddbuubd9su" width="300%" x="-1" y="-1"><feGaussianBlur result="blurOut" stdDeviation="2.0"/><feColorMatrix in="blurOut" result="blurOut2" type="matrix" values="0 0 0 0 0 0 0 0 0 0 0 0 0 0 0 0 0 0 .4 0"/><feOffset dx="4.0" dy="4.0" in="blurOut2" result="blurOut3"/><feBlend in="SourceGraphic" in2="blurOut3" mode="normal"/></filter></defs><g><!--MD5=[59b530d44ae785dc18db921986a9c15c]
class Document--><rect codeLine="312" fill="#FFFFFF" filter="url(#f7cddbuubd9su)" height="65.6094" id="Document" style="stroke:#A80036;stroke-width:1.5;" width="148" x="524.2375" y="116"/><ellipse cx="562.6375" cy="132" fill="#ADD1B2" rx="11" ry="11" style="stroke:#A80036;stroke-width:1.0;"/><path d="M565.6062,137.6406 Q565.0281,137.9375 564.3875,138.0781 Q563.7469,138.2344 563.0437,138.2344 Q560.5437,138.2344 559.2156,136.5938 Q557.9031,134.9375 557.9031,131.8125 Q557.9031,128.6875 559.2156,127.0313 Q560.5437,125.375 563.0437,125.375 Q563.7469,125.375 564.3875,125.5313 Q565.0437,125.6875 565.6062,125.9844 L565.6062,128.7031 Q564.9812,128.125 564.3875,127.8594 Q563.7937,127.5781 563.1687,127.5781 Q561.825,127.5781 561.1375,128.6563 Q560.45,129.7188 560.45,131.8125 Q560.45,133.9063 561.1375,134.9844 Q561.825,136.0469 563.1687,136.0469 Q563.7937,136.0469 564.3875,135.7813 Q564.9812,135.5 565.6062,134.9219 L565.6062,137.6406 Z " fill="#000000"/><text fill="#000000" font-family="sans-serif" font-size="12" lengthAdjust="spacing" textLength="64" x="581.8375" y="136.1543">Document</text><line style="stroke:#A80036;stroke-width:1.5;" x1="525.2375" x2="671.2375" y1="148" y2="148"/><text fill="#000000" font-family="sans-serif" font-size="11" lengthAdjust="spacing" textLength="136" x="530.2375" y="162.2104">title : Multilingual_String</text><text fill="#000000" font-family="sans-serif" font-size="11" lengthAdjust="spacing" textLength="125" x="530.2375" y="175.0151">publicationDate : Date</text><!--MD5=[bcc382d868f32e5ce25faf6e44aed96d]
class Publication_Channel--><rect codeLine="324" fill="#FFFFFF" filter="url(#f7cddbuubd9su)" height="65.6094" id="Publication_Channel" style="stroke:#A80036;stroke-width:1.5;" width="176" x="88.2375" y="466"/><ellipse cx="111.3375" cy="482" fill="#ADD1B2" rx="11" ry="11" style="stroke:#A80036;stroke-width:1.0;"/><path d="M114.3063,487.6406 Q113.7281,487.9375 113.0875,488.0781 Q112.4469,488.2344 111.7438,488.2344 Q109.2438,488.2344 107.9156,486.5938 Q106.6031,484.9375 106.6031,481.8125 Q106.6031,478.6875 107.9156,477.0313 Q109.2438,475.375 111.7438,475.375 Q112.4469,475.375 113.0875,475.5313 Q113.7438,475.6875 114.3063,475.9844 L114.3063,478.7031 Q113.6813,478.125 113.0875,477.8594 Q112.4938,477.5781 111.8688,477.5781 Q110.525,477.5781 109.8375,478.6563 Q109.15,479.7188 109.15,481.8125 Q109.15,483.9063 109.8375,484.9844 Q110.525,486.0469 111.8688,486.0469 Q112.4938,486.0469 113.0875,485.7813 Q113.6813,485.5 114.3063,484.9219 L114.3063,487.6406 Z " fill="#000000"/><text fill="#000000" font-family="sans-serif" font-size="12" lengthAdjust="spacing" textLength="126" x="127.1375" y="486.1543">Publication_Channel</text><line style="stroke:#A80036;stroke-width:1.5;" x1="89.2375" x2="263.2375" y1="498" y2="498"/><text fill="#000000" font-family="sans-serif" font-size="11" lengthAdjust="spacing" textLength="136" x="94.2375" y="512.2104">title : Multilingual_String</text><text fill="#000000" font-family="sans-serif" font-size="11" lengthAdjust="spacing" textLength="164" x="94.2375" y="525.0151">acronym : Multilingual_String</text><!--MD5=[3c081c04a295355c2a2d4b68ff992080]
class Document_Publication_Channel--><rect codeLine="331" fill="#FFFFFF" filter="url(#f7cddbuubd9su)" height="129.6328" id="Document_Publication_Channel" style="stroke:#A80036;stroke-width:1.5;" width="228" x="108.2375" y="259"/><ellipse cx="123.2375" cy="275" fill="#ADD1B2" rx="11" ry="11" style="stroke:#A80036;stroke-width:1.0;"/><path d="M126.2063,280.6406 Q125.6281,280.9375 124.9875,281.0781 Q124.3469,281.2344 123.6438,281.2344 Q121.1438,281.2344 119.8156,279.5938 Q118.5031,277.9375 118.5031,274.8125 Q118.5031,271.6875 119.8156,270.0313 Q121.1438,268.375 123.6438,268.375 Q124.3469,268.375 124.9875,268.5313 Q125.6438,268.6875 126.2063,268.9844 L126.2063,271.7031 Q125.5813,271.125 124.9875,270.8594 Q124.3938,270.5781 123.7688,270.5781 Q122.425,270.5781 121.7375,271.6563 Q121.05,272.7188 121.05,274.8125 Q121.05,276.9063 121.7375,277.9844 Q122.425,279.0469 123.7688,279.0469 Q124.3938,279.0469 124.9875,278.7813 Q125.5813,278.5 126.2063,277.9219 L126.2063,280.6406 Z " fill="#000000"/><text fill="#000000" font-family="sans-serif" font-size="12" lengthAdjust="spacing" textLength="196" x="137.2375" y="279.1543">Document_Publication_Channel</text><line style="stroke:#A80036;stroke-width:1.5;" x1="109.2375" x2="335.2375" y1="291" y2="291"/><text fill="#000000" font-family="sans-serif" font-size="11" lengthAdjust="spacing" textLength="101" x="114.2375" y="305.2104">startPage : String</text><text fill="#000000" font-family="sans-serif" font-size="11" lengthAdjust="spacing" textLength="95" x="114.2375" y="318.0151">endPage : String</text><text fill="#000000" font-family="sans-serif" font-size="11" lengthAdjust="spacing" textLength="126" x="114.2375" y="330.8198">articleNumber : String</text><text fill="#000000" font-family="sans-serif" font-size="11" lengthAdjust="spacing" textLength="87" x="114.2375" y="343.6245">volume : String</text><text fill="#000000" font-family="sans-serif" font-size="11" lengthAdjust="spacing" textLength="90" x="114.2375" y="356.4292">number : String</text><text fill="#000000" font-family="sans-serif" font-size="11" lengthAdjust="spacing" textLength="103" x="114.2375" y="369.2339">startFrame : Time</text><text fill="#000000" font-family="sans-serif" font-size="11" lengthAdjust="spacing" textLength="97" x="114.2375" y="382.0386">endFrame : Time</text><!--MD5=[c05f8d4c5007184b0fb1ea93cdb8d9fe]
class Repository--><rect codeLine="343" fill="#FFFFFF" filter="url(#f7cddbuubd9su)" height="32" id="Repository" style="stroke:#A80036;stroke-width:1.5;" width="98" x="221.2375" y="626"/><ellipse cx="236.2375" cy="642" fill="#ADD1B2" rx="11" ry="11" style="stroke:#A80036;stroke-width:1.0;"/><path d="M239.2063,647.6406 Q238.6281,647.9375 237.9875,648.0781 Q237.3469,648.2344 236.6438,648.2344 Q234.1438,648.2344 232.8156,646.5938 Q231.5031,644.9375 231.5031,641.8125 Q231.5031,638.6875 232.8156,637.0313 Q234.1438,635.375 236.6438,635.375 Q237.3469,635.375 237.9875,635.5313 Q238.6438,635.6875 239.2063,635.9844 L239.2063,638.7031 Q238.5813,638.125 237.9875,637.8594 Q237.3938,637.5781 236.7688,637.5781 Q235.425,637.5781 234.7375,638.6563 Q234.05,639.7188 234.05,641.8125 Q234.05,643.9063 234.7375,644.9844 Q235.425,646.0469 236.7688,646.0469 Q237.3938,646.0469 237.9875,645.7813 Q238.5813,645.5 239.2063,644.9219 L239.2063,647.6406 Z " fill="#000000"/><text fill="#000000" font-family="sans-serif" font-size="12" lengthAdjust="spacing" textLength="66" x="250.2375" y="646.1543">Repository</text><!--MD5=[b8117d633c9720af740746592f168adb]
class Infrastructure--><rect fill="#FEFECE" filter="url(#f7cddbuubd9su)" height="32" id="Infrastructure" style="stroke:#A80036;stroke-width:1.5;" width="118" x="299.2375" y="483"/><ellipse cx="314.2375" cy="499" fill="#ADD1B2" rx="11" ry="11" style="stroke:#A80036;stroke-width:1.0;"/><path d="M317.2063,504.6406 Q316.6281,504.9375 315.9875,505.0781 Q315.3469,505.2344 314.6438,505.2344 Q312.1438,505.2344 310.8156,503.5938 Q309.5031,501.9375 309.5031,498.8125 Q309.5031,495.6875 310.8156,494.0313 Q312.1438,492.375 314.6438,492.375 Q315.3469,492.375 315.9875,492.5313 Q316.6438,492.6875 317.2063,492.9844 L317.2063,495.7031 Q316.5813,495.125 315.9875,494.8594 Q315.3938,494.5781 314.7688,494.5781 Q313.425,494.5781 312.7375,495.6563 Q312.05,496.7188 312.05,498.8125 Q312.05,500.9063 312.7375,501.9844 Q313.425,503.0469 314.7688,503.0469 Q315.3938,503.0469 315.9875,502.7813 Q316.5813,502.5 317.2063,501.9219 L317.2063,504.6406 Z " fill="#000000"/><text fill="#000000" font-family="sans-serif" font-size="12" lengthAdjust="spacing" textLength="86" x="328.2375" y="503.1543">Infrastructure</text><!--MD5=[cee4b16e9c4c3b435207f3333dc7e3c1]
class Publication_Series--><rect codeLine="59" fill="#DDEEDD" filter="url(#f7cddbuubd9su)" height="65.6094" id="Publication_Series" style="stroke:#A80036;stroke-width:1.5;" width="146" x="40.2375" y="609"/><ellipse cx="55.2375" cy="625" fill="#ADD1B2" rx="11" ry="11" style="stroke:#A80036;stroke-width:1.0;"/><path d="M58.2063,630.6406 Q57.6281,630.9375 56.9875,631.0781 Q56.3469,631.2344 55.6438,631.2344 Q53.1438,631.2344 51.8156,629.5938 Q50.5031,627.9375 50.5031,624.8125 Q50.5031,621.6875 51.8156,620.0313 Q53.1438,618.375 55.6438,618.375 Q56.3469,618.375 56.9875,618.5313 Q57.6438,618.6875 58.2063,618.9844 L58.2063,621.7031 Q57.5813,621.125 56.9875,620.8594 Q56.3938,620.5781 55.7688,620.5781 Q54.425,620.5781 53.7375,621.6563 Q53.05,622.7188 53.05,624.8125 Q53.05,626.9063 53.7375,627.9844 Q54.425,629.0469 55.7688,629.0469 Q56.3938,629.0469 56.9875,628.7813 Q57.5813,628.5 58.2063,627.9219 L58.2063,630.6406 Z " fill="#000000"/><text fill="#000000" font-family="sans-serif" font-size="12" lengthAdjust="spacing" textLength="114" x="69.2375" y="629.1543">Publication_Series</text><line style="stroke:#A80036;stroke-width:1.5;" x1="41.2375" x2="185.2375" y1="641" y2="641"/><text fill="#000000" font-family="sans-serif" font-size="11" lengthAdjust="spacing" textLength="66" x="46.2375" y="655.2104">ISSN : ISSN</text><text fill="#000000" font-family="sans-serif" font-size="11" lengthAdjust="spacing" textLength="73" x="46.2375" y="668.0151">eISSN : ISSN</text><!--MD5=[9a5422ab15122c8d1cd75d14414799b8]
class Journal--><rect codeLine="68" fill="#DDEEDD" filter="url(#f7cddbuubd9su)" height="78.4141" id="Journal" style="stroke:#A80036;stroke-width:1.5;" width="103" x="61.7375" y="736"/><ellipse cx="89.3375" cy="752" fill="#ADD1B2" rx="11" ry="11" style="stroke:#A80036;stroke-width:1.0;"/><path d="M92.3063,757.6406 Q91.7281,757.9375 91.0875,758.0781 Q90.4469,758.2344 89.7438,758.2344 Q87.2438,758.2344 85.9156,756.5938 Q84.6031,754.9375 84.6031,751.8125 Q84.6031,748.6875 85.9156,747.0313 Q87.2438,745.375 89.7438,745.375 Q90.4469,745.375 91.0875,745.5313 Q91.7438,745.6875 92.3063,745.9844 L92.3063,748.7031 Q91.6813,748.125 91.0875,747.8594 Q90.4938,747.5781 89.8688,747.5781 Q88.525,747.5781 87.8375,748.6563 Q87.15,749.7188 87.15,751.8125 Q87.15,753.9063 87.8375,754.9844 Q88.525,756.0469 89.8688,756.0469 Q90.4938,756.0469 91.0875,755.7813 Q91.6813,755.5 92.3063,754.9219 L92.3063,757.6406 Z " fill="#000000"/><text fill="#000000" font-family="sans-serif" font-size="12" lengthAdjust="spacing" textLength="43" x="106.1375" y="756.1543">Journal</text><line style="stroke:#A80036;stroke-width:1.5;" x1="62.7375" x2="163.7375" y1="768" y2="768"/><text fill="#000000" font-family="sans-serif" font-size="11" lengthAdjust="spacing" textLength="52" x="67.7375" y="782.2104">DOI : DOI</text><text fill="#000000" font-family="sans-serif" font-size="11" lengthAdjust="spacing" textLength="91" x="67.7375" y="795.0151">startDate : Date</text><text fill="#000000" font-family="sans-serif" font-size="11" lengthAdjust="spacing" textLength="85" x="67.7375" y="807.8198">endDate : Date</text><!--MD5=[9d44916250b776386006c440668bcfbb]
class Agent--><rect fill="#FEFECE" filter="url(#f7cddbuubd9su)" height="32" id="Agent" style="stroke:#A80036;stroke-width:1.5;" width="69" x="78.7375" y="875"/><ellipse cx="93.7375" cy="891" fill="#ADD1B2" rx="11" ry="11" style="stroke:#A80036;stroke-width:1.0;"/><path d="M96.7063,896.6406 Q96.1281,896.9375 95.4875,897.0781 Q94.8469,897.2344 94.1438,897.2344 Q91.6438,897.2344 90.3156,895.5938 Q89.0031,893.9375 89.0031,890.8125 Q89.0031,887.6875 90.3156,886.0313 Q91.6438,884.375 94.1438,884.375 Q94.8469,884.375 95.4875,884.5313 Q96.1438,884.6875 96.7063,884.9844 L96.7063,887.7031 Q96.0813,887.125 95.4875,886.8594 Q94.8938,886.5781 94.2688,886.5781 Q92.925,886.5781 92.2375,887.6563 Q91.55,888.7188 91.55,890.8125 Q91.55,892.9063 92.2375,893.9844 Q92.925,895.0469 94.2688,895.0469 Q94.8938,895.0469 95.4875,894.7813 Q96.0813,894.5 96.7063,893.9219 L96.7063,896.6406 Z " fill="#000000"/><text fill="#000000" font-family="sans-serif" font-size="12" lengthAdjust="spacing" textLength="37" x="107.7375" y="895.1543">Agent</text><!--MD5=[63653625e761dfa0b192a72ef49a851b]
class Scholarly_Publication--><rect codeLine="5" fill="#DDEEDD" filter="url(#f7cddbuubd9su)" height="32" id="Scholarly_Publication" style="stroke:#A80036;stroke-width:1.5;" width="163" x="789.7375" y="308"/><ellipse cx="804.7375" cy="324" fill="#ADD1B2" rx="11" ry="11" style="stroke:#A80036;stroke-width:1.0;"/><path d="M807.7063,329.6406 Q807.1281,329.9375 806.4875,330.0781 Q805.8469,330.2344 805.1438,330.2344 Q802.6438,330.2344 801.3156,328.5938 Q800.0031,326.9375 800.0031,323.8125 Q800.0031,320.6875 801.3156,319.0313 Q802.6438,317.375 805.1438,317.375 Q805.8469,317.375 806.4875,317.5313 Q807.1438,317.6875 807.7063,317.9844 L807.7063,320.7031 Q807.0813,320.125 806.4875,319.8594 Q805.8938,319.5781 805.2688,319.5781 Q803.925,319.5781 803.2375,320.6563 Q802.55,321.7188 802.55,323.8125 Q802.55,325.9063 803.2375,326.9844 Q803.925,328.0469 805.2688,328.0469 Q805.8938,328.0469 806.4875,327.7813 Q807.0813,327.5 807.7063,326.9219 L807.7063,329.6406 Z " fill="#000000"/><text fill="#000000" font-family="sans-serif" font-size="12" lengthAdjust="spacing" textLength="131" x="818.7375" y="328.1543">Scholarly_Publication</text><!--MD5=[d22815ff63be9cac9a63f8d1ea27d033]
class Article--><rect codeLine="114" fill="#DDEEDD" filter="url(#f7cddbuubd9su)" height="32" id="Article" style="stroke:#A80036;stroke-width:1.5;" width="71" x="930.7375" y="483"/><ellipse cx="945.7375" cy="499" fill="#ADD1B2" rx="11" ry="11" style="stroke:#A80036;stroke-width:1.0;"/><path d="M948.7063,504.6406 Q948.1281,504.9375 947.4875,505.0781 Q946.8469,505.2344 946.1438,505.2344 Q943.6438,505.2344 942.3156,503.5938 Q941.0031,501.9375 941.0031,498.8125 Q941.0031,495.6875 942.3156,494.0313 Q943.6438,492.375 946.1438,492.375 Q946.8469,492.375 947.4875,492.5313 Q948.1438,492.6875 948.7063,492.9844 L948.7063,495.7031 Q948.0813,495.125 947.4875,494.8594 Q946.8938,494.5781 946.2688,494.5781 Q944.925,494.5781 944.2375,495.6563 Q943.55,496.7188 943.55,498.8125 Q943.55,500.9063 944.2375,501.9844 Q944.925,503.0469 946.2688,503.0469 Q946.8938,503.0469 947.4875,502.7813 Q948.0813,502.5 948.7063,501.9219 L948.7063,504.6406 Z " fill="#000000"/><text fill="#000000" font-family="sans-serif" font-size="12" lengthAdjust="spacing" textLength="39" x="959.7375" y="503.1543">Article</text><!--MD5=[9548cb71c0a277156e2ec959836c9b89]
class Book_Chapter--><rect codeLine="119" fill="#DDEEDD" filter="url(#f7cddbuubd9su)" height="32" id="Book_Chapter" style="stroke:#A80036;stroke-width:1.5;" width="119" x="800.7375" y="626"/><ellipse cx="815.7375" cy="642" fill="#ADD1B2" rx="11" ry="11" style="stroke:#A80036;stroke-width:1.0;"/><path d="M818.7063,647.6406 Q818.1281,647.9375 817.4875,648.0781 Q816.8469,648.2344 816.1438,648.2344 Q813.6438,648.2344 812.3156,646.5938 Q811.0031,644.9375 811.0031,641.8125 Q811.0031,638.6875 812.3156,637.0313 Q813.6438,635.375 816.1438,635.375 Q816.8469,635.375 817.4875,635.5313 Q818.1438,635.6875 818.7063,635.9844 L818.7063,638.7031 Q818.0813,638.125 817.4875,637.8594 Q816.8938,637.5781 816.2688,637.5781 Q814.925,637.5781 814.2375,638.6563 Q813.55,639.7188 813.55,641.8125 Q813.55,643.9063 814.2375,644.9844 Q814.925,646.0469 816.2688,646.0469 Q816.8938,646.0469 817.4875,645.7813 Q818.0813,645.5 818.7063,644.9219 L818.7063,647.6406 Z " fill="#000000"/><text fill="#000000" font-family="sans-serif" font-size="12" lengthAdjust="spacing" textLength="87" x="829.7375" y="646.1543">Book_Chapter</text><!--MD5=[1678d3ff9a2a61263ae88ec1bc90f6e6]
class Conference_Article--><rect codeLine="124" fill="#DDEEDD" filter="url(#f7cddbuubd9su)" height="32" id="Conference_Article" style="stroke:#A80036;stroke-width:1.5;" width="149" x="954.7375" y="626"/><ellipse cx="969.7375" cy="642" fill="#ADD1B2" rx="11" ry="11" style="stroke:#A80036;stroke-width:1.0;"/><path d="M972.7063,647.6406 Q972.1281,647.9375 971.4875,648.0781 Q970.8469,648.2344 970.1438,648.2344 Q967.6438,648.2344 966.3156,646.5938 Q965.0031,644.9375 965.0031,641.8125 Q965.0031,638.6875 966.3156,637.0313 Q967.6438,635.375 970.1438,635.375 Q970.8469,635.375 971.4875,635.5313 Q972.1438,635.6875 972.7063,635.9844 L972.7063,638.7031 Q972.0813,638.125 971.4875,637.8594 Q970.8938,637.5781 970.2688,637.5781 Q968.925,637.5781 968.2375,638.6563 Q967.55,639.7188 967.55,641.8125 Q967.55,643.9063 968.2375,644.9844 Q968.925,646.0469 970.2688,646.0469 Q970.8938,646.0469 971.4875,645.7813 Q972.0813,645.5 972.7063,644.9219 L972.7063,647.6406 Z " fill="#000000"/><text fill="#000000" font-family="sans-serif" font-size="12" lengthAdjust="spacing" textLength="117" x="983.7375" y="646.1543">Conference_Article</text><!--MD5=[6187a6e1e3f43e4e2525b450325f9ab5]
class Journal_Article--><rect codeLine="129" fill="#DDEEDD" filter="url(#f7cddbuubd9su)" height="32" id="Journal_Article" style="stroke:#A80036;stroke-width:1.5;" width="120" x="1138.2375" y="626"/><ellipse cx="1153.2375" cy="642" fill="#ADD1B2" rx="11" ry="11" style="stroke:#A80036;stroke-width:1.0;"/><path d="M1156.2063,647.6406 Q1155.6281,647.9375 1154.9875,648.0781 Q1154.3469,648.2344 1153.6438,648.2344 Q1151.1438,648.2344 1149.8156,646.5938 Q1148.5031,644.9375 1148.5031,641.8125 Q1148.5031,638.6875 1149.8156,637.0313 Q1151.1438,635.375 1153.6438,635.375 Q1154.3469,635.375 1154.9875,635.5313 Q1155.6438,635.6875 1156.2063,635.9844 L1156.2063,638.7031 Q1155.5813,638.125 1154.9875,637.8594 Q1154.3938,637.5781 1153.7688,637.5781 Q1152.425,637.5781 1151.7375,638.6563 Q1151.05,639.7188 1151.05,641.8125 Q1151.05,643.9063 1151.7375,644.9844 Q1152.425,646.0469 1153.7688,646.0469 Q1154.3938,646.0469 1154.9875,645.7813 Q1155.5813,645.5 1156.2063,644.9219 L1156.2063,647.6406 Z " fill="#000000"/><text fill="#000000" font-family="sans-serif" font-size="12" lengthAdjust="spacing" textLength="88" x="1167.2375" y="646.1543">Journal_Article</text><!--MD5=[c141975d2abc540997c2e66953e71981]
class Conference_Abstract--><rect codeLine="134" fill="#DDEEDD" filter="url(#f7cddbuubd9su)" height="32" id="Conference_Abstract" style="stroke:#A80036;stroke-width:1.5;" width="163" x="486.7375" y="626"/><ellipse cx="501.7375" cy="642" fill="#ADD1B2" rx="11" ry="11" style="stroke:#A80036;stroke-width:1.0;"/><path d="M504.7063,647.6406 Q504.1281,647.9375 503.4875,648.0781 Q502.8469,648.2344 502.1438,648.2344 Q499.6438,648.2344 498.3156,646.5938 Q497.0031,644.9375 497.0031,641.8125 Q497.0031,638.6875 498.3156,637.0313 Q499.6438,635.375 502.1438,635.375 Q502.8469,635.375 503.4875,635.5313 Q504.1438,635.6875 504.7063,635.9844 L504.7063,638.7031 Q504.0813,638.125 503.4875,637.8594 Q502.8938,637.5781 502.2688,637.5781 Q500.925,637.5781 500.2375,638.6563 Q499.55,639.7188 499.55,641.8125 Q499.55,643.9063 500.2375,644.9844 Q500.925,646.0469 502.2688,646.0469 Q502.8938,646.0469 503.4875,645.7813 Q504.0813,645.5 504.7063,644.9219 L504.7063,647.6406 Z " fill="#000000"/><text fill="#000000" font-family="sans-serif" font-size="12" lengthAdjust="spacing" textLength="131" x="515.7375" y="646.1543">Conference_Abstract</text><!--MD5=[dbb7ba3d0d21354681a0e7a6e103d486]
class Presentation--><rect codeLine="139" fill="#DDEEDD" filter="url(#f7cddbuubd9su)" height="32" id="Presentation" style="stroke:#A80036;stroke-width:1.5;" width="113" x="782.7375" y="483"/><ellipse cx="797.7375" cy="499" fill="#ADD1B2" rx="11" ry="11" style="stroke:#A80036;stroke-width:1.0;"/><path d="M800.7063,504.6406 Q800.1281,504.9375 799.4875,505.0781 Q798.8469,505.2344 798.1438,505.2344 Q795.6438,505.2344 794.3156,503.5938 Q793.0031,501.9375 793.0031,498.8125 Q793.0031,495.6875 794.3156,494.0313 Q795.6438,492.375 798.1438,492.375 Q798.8469,492.375 799.4875,492.5313 Q800.1438,492.6875 800.7063,492.9844 L800.7063,495.7031 Q800.0813,495.125 799.4875,494.8594 Q798.8938,494.5781 798.2688,494.5781 Q796.925,494.5781 796.2375,495.6563 Q795.55,496.7188 795.55,498.8125 Q795.55,500.9063 796.2375,501.9844 Q796.925,503.0469 798.2688,503.0469 Q798.8938,503.0469 799.4875,502.7813 Q800.0813,502.5 800.7063,501.9219 L800.7063,504.6406 Z " fill="#000000"/><text fill="#000000" font-family="sans-serif" font-size="12" lengthAdjust="spacing" textLength="81" x="811.7375" y="503.1543">Presentation</text><!--MD5=[c5673d96f261822ff1f68c6e37a11e4a]
class Preface--><rect codeLine="144" fill="#DDEEDD" filter="url(#f7cddbuubd9su)" height="32" id="Preface" style="stroke:#A80036;stroke-width:1.5;" width="80" x="685.2375" y="626"/><ellipse cx="700.2375" cy="642" fill="#ADD1B2" rx="11" ry="11" style="stroke:#A80036;stroke-width:1.0;"/><path d="M703.2063,647.6406 Q702.6281,647.9375 701.9875,648.0781 Q701.3469,648.2344 700.6438,648.2344 Q698.1438,648.2344 696.8156,646.5938 Q695.5031,644.9375 695.5031,641.8125 Q695.5031,638.6875 696.8156,637.0313 Q698.1438,635.375 700.6438,635.375 Q701.3469,635.375 701.9875,635.5313 Q702.6438,635.6875 703.2063,635.9844 L703.2063,638.7031 Q702.5813,638.125 701.9875,637.8594 Q701.3938,637.5781 700.7688,637.5781 Q699.425,637.5781 698.7375,638.6563 Q698.05,639.7188 698.05,641.8125 Q698.05,643.9063 698.7375,644.9844 Q699.425,646.0469 700.7688,646.0469 Q701.3938,646.0469 701.9875,645.7813 Q702.5813,645.5 703.2063,644.9219 L703.2063,647.6406 Z " fill="#000000"/><text fill="#000000" font-family="sans-serif" font-size="12" lengthAdjust="spacing" textLength="48" x="714.2375" y="646.1543">Preface</text><!--MD5=[bcb283912f8f05473c4d1d13596b4114]
class Correction--><rect codeLine="149" fill="#DDEEDD" filter="url(#f7cddbuubd9su)" height="32" id="Correction" style="stroke:#A80036;stroke-width:1.5;" width="97" x="354.7375" y="626"/><ellipse cx="369.7375" cy="642" fill="#ADD1B2" rx="11" ry="11" style="stroke:#A80036;stroke-width:1.0;"/><path d="M372.7063,647.6406 Q372.1281,647.9375 371.4875,648.0781 Q370.8469,648.2344 370.1438,648.2344 Q367.6438,648.2344 366.3156,646.5938 Q365.0031,644.9375 365.0031,641.8125 Q365.0031,638.6875 366.3156,637.0313 Q367.6438,635.375 370.1438,635.375 Q370.8469,635.375 371.4875,635.5313 Q372.1438,635.6875 372.7063,635.9844 L372.7063,638.7031 Q372.0813,638.125 371.4875,637.8594 Q370.8938,637.5781 370.2688,637.5781 Q368.925,637.5781 368.2375,638.6563 Q367.55,639.7188 367.55,641.8125 Q367.55,643.9063 368.2375,644.9844 Q368.925,646.0469 370.2688,646.0469 Q370.8938,646.0469 371.4875,645.7813 Q372.0813,645.5 372.7063,644.9219 L372.7063,647.6406 Z " fill="#000000"/><text fill="#000000" font-family="sans-serif" font-size="12" lengthAdjust="spacing" textLength="65" x="383.7375" y="646.1543">Correction</text><!--MD5=[042fa140da40c49659127f611bcff931]
class Comment--><rect codeLine="154" fill="#DDEEDD" filter="url(#f7cddbuubd9su)" height="32" id="Comment" style="stroke:#A80036;stroke-width:1.5;" width="91" x="1391.7375" y="626"/><ellipse cx="1406.7375" cy="642" fill="#ADD1B2" rx="11" ry="11" style="stroke:#A80036;stroke-width:1.0;"/><path d="M1409.7063,647.6406 Q1409.1281,647.9375 1408.4875,648.0781 Q1407.8469,648.2344 1407.1438,648.2344 Q1404.6438,648.2344 1403.3156,646.5938 Q1402.0031,644.9375 1402.0031,641.8125 Q1402.0031,638.6875 1403.3156,637.0313 Q1404.6438,635.375 1407.1438,635.375 Q1407.8469,635.375 1408.4875,635.5313 Q1409.1438,635.6875 1409.7063,635.9844 L1409.7063,638.7031 Q1409.0813,638.125 1408.4875,637.8594 Q1407.8938,637.5781 1407.2688,637.5781 Q1405.925,637.5781 1405.2375,638.6563 Q1404.55,639.7188 1404.55,641.8125 Q1404.55,643.9063 1405.2375,644.9844 Q1405.925,646.0469 1407.2688,646.0469 Q1407.8938,646.0469 1408.4875,645.7813 Q1409.0813,645.5 1409.7063,644.9219 L1409.7063,647.6406 Z " fill="#000000"/><text fill="#000000" font-family="sans-serif" font-size="12" lengthAdjust="spacing" textLength="59" x="1420.7375" y="646.1543">Comment</text><!--MD5=[eb0e8f8ddfdc21c3fdb48447501fec67]
class Review--><rect codeLine="159" fill="#DDEEDD" filter="url(#f7cddbuubd9su)" height="32" id="Review" style="stroke:#A80036;stroke-width:1.5;" width="74" x="561.2375" y="7"/><ellipse cx="576.2375" cy="23" fill="#ADD1B2" rx="11" ry="11" style="stroke:#A80036;stroke-width:1.0;"/><path d="M579.2063,28.6406 Q578.6281,28.9375 577.9875,29.0781 Q577.3469,29.2344 576.6438,29.2344 Q574.1438,29.2344 572.8156,27.5938 Q571.5031,25.9375 571.5031,22.8125 Q571.5031,19.6875 572.8156,18.0313 Q574.1438,16.375 576.6438,16.375 Q577.3469,16.375 577.9875,16.5313 Q578.6438,16.6875 579.2063,16.9844 L579.2063,19.7031 Q578.5813,19.125 577.9875,18.8594 Q577.3938,18.5781 576.7688,18.5781 Q575.425,18.5781 574.7375,19.6563 Q574.05,20.7188 574.05,22.8125 Q574.05,24.9063 574.7375,25.9844 Q575.425,27.0469 576.7688,27.0469 Q577.3938,27.0469 577.9875,26.7813 Q578.5813,26.5 579.2063,25.9219 L579.2063,28.6406 Z " fill="#000000"/><text fill="#000000" font-family="sans-serif" font-size="12" lengthAdjust="spacing" textLength="42" x="590.2375" y="27.1543">Review</text><!--MD5=[84e3a5e42879fb3231104d3c8e592439]
class Book--><rect fill="#FEFECE" filter="url(#f7cddbuubd9su)" height="32" id="Book" style="stroke:#A80036;stroke-width:1.5;" width="63" x="1293.7375" y="626"/><ellipse cx="1308.7375" cy="642" fill="#ADD1B2" rx="11" ry="11" style="stroke:#A80036;stroke-width:1.0;"/><path d="M1311.7063,647.6406 Q1311.1281,647.9375 1310.4875,648.0781 Q1309.8469,648.2344 1309.1438,648.2344 Q1306.6438,648.2344 1305.3156,646.5938 Q1304.0031,644.9375 1304.0031,641.8125 Q1304.0031,638.6875 1305.3156,637.0313 Q1306.6438,635.375 1309.1438,635.375 Q1309.8469,635.375 1310.4875,635.5313 Q1311.1438,635.6875 1311.7063,635.9844 L1311.7063,638.7031 Q1311.0813,638.125 1310.4875,637.8594 Q1309.8938,637.5781 1309.2688,637.5781 Q1307.925,637.5781 1307.2375,638.6563 Q1306.55,639.7188 1306.55,641.8125 Q1306.55,643.9063 1307.2375,644.9844 Q1307.925,646.0469 1309.2688,646.0469 Q1309.8938,646.0469 1310.4875,645.7813 Q1311.0813,645.5 1311.7063,644.9219 L1311.7063,647.6406 Z " fill="#000000"/><text fill="#000000" font-family="sans-serif" font-size="12" lengthAdjust="spacing" textLength="31" x="1322.7375" y="646.1543">Book</text><!--MD5=[9373bd5d5c413819ce8399fe055a7522]
link Document to Document--><path codeLine="317" d="M672.3675,142.49 C692.1875,142.85 707.2375,145.02 707.2375,149 C707.2375,152.98 692.1875,155.15 672.3675,155.51 " fill="none" id="Document-Document" style="stroke:#A80036;stroke-width:1.0;"/><polygon fill="#000000" points="712.3283,154.0656,715.1025,144.9686,709.2256,145.0754,712.3283,154.0656" style="stroke:#000000;stroke-width:1.0;"/><text fill="#000000" font-family="sans-serif" font-size="13" lengthAdjust="spacing" textLength="56" x="726.2375" y="153.5669">is part of</text><text fill="#000000" font-family="sans-serif" font-size="13" lengthAdjust="spacing" textLength="23" x="680.2615" y="154.6723">0..*</text><text fill="#000000" font-family="sans-serif" font-size="13" lengthAdjust="spacing" textLength="23" x="680.2615" y="168.8926">0..*</text><!--MD5=[9373bd5d5c413819ce8399fe055a7522]
link Document to Document--><path codeLine="319" d="M672.4675,137.09 C727.8075,133.62 788.2375,137.58 788.2375,149 C788.2375,160.42 727.8075,164.38 672.4675,160.91 " fill="none" id="Document-Document-1" style="stroke:#A80036;stroke-width:1.0;"/><polygon fill="#000000" points="792.9246,154.0566,796.4238,145.2132,790.5575,144.8453,792.9246,154.0566" style="stroke:#000000;stroke-width:1.0;"/><text fill="#000000" font-family="sans-serif" font-size="13" lengthAdjust="spacing" textLength="164" x="807.2375" y="153.5669">another representation of</text><text fill="#000000" font-family="sans-serif" font-size="13" lengthAdjust="spacing" textLength="23" x="680.3707" y="132.3917">0..*</text><text fill="#000000" font-family="sans-serif" font-size="13" lengthAdjust="spacing" textLength="23" x="680.3707" y="174.7904">0..*</text><!--MD5=[a5e4bae6c9f0200dc10df240743bae8f]
link Document to Document_Publication_Channel--><path codeLine="329" d="M524.2275,158.45 C446.6275,168.45 330.9575,186.97 294.2375,212 C278.4475,222.76 265.3175,238.25 254.7875,254.25 " fill="none" id="Document-to-Document_Publication_Channel" style="stroke:#A80036;stroke-width:1.0;"/><polygon fill="#A80036" points="251.8875,258.78,260.119,253.3724,254.5913,254.5741,253.3896,249.0464,251.8875,258.78" style="stroke:#A80036;stroke-width:1.0;"/><polygon fill="#000000" points="294.5264,222.2414,304.0334,221.9804,302.0643,216.4422,294.5264,222.2414" style="stroke:#000000;stroke-width:1.0;"/><text fill="#000000" font-family="sans-serif" font-size="13" lengthAdjust="spacing" textLength="137" x="308.2375" y="225.0669">published via channel</text><text fill="#000000" font-family="sans-serif" font-size="13" lengthAdjust="spacing" textLength="24" x="229.818" y="247.9205">0..1</text><!--MD5=[923e2afd98683ea3e231d9a7746fd074]
link Document_Publication_Channel to Publication_Channel--><path codeLine="341" d="M205.1075,389.42 C198.7275,413.43 191.6875,439.88 186.1675,460.66 " fill="none" id="Document_Publication_Channel-to-Publication_Channel" style="stroke:#A80036;stroke-width:1.0;"/><polygon fill="#A80036" points="184.8675,465.54,191.043,457.8677,186.1505,460.7074,183.3108,455.8149,184.8675,465.54" style="stroke:#A80036;stroke-width:1.0;"/><polygon fill="#000000" points="200.9528,432.3985,206.1171,424.4122,200.4366,422.902,200.9528,432.3985" style="stroke:#000000;stroke-width:1.0;"/><text fill="#000000" font-family="sans-serif" font-size="13" lengthAdjust="spacing" textLength="76" x="211.2375" y="432.0669">published in</text><text fill="#000000" font-family="sans-serif" font-size="13" lengthAdjust="spacing" textLength="24" x="160.2251" y="454.8488">0..1</text><!--MD5=[6e6eb0bcfa925f358f50965a26c1075d]
reverse link Publication_Channel to Repository--><path codeLine="346" d="M209.0075,549.16 C226.9175,576.02 247.8675,607.44 260.0375,625.7 " fill="none" id="Publication_Channel-backto-Repository" style="stroke:#A80036;stroke-width:1.0;"/><polygon fill="none" points="203.0775,552.87,197.8075,532.35,214.7175,545.11,203.0775,552.87" style="stroke:#A80036;stroke-width:1.0;"/><!--MD5=[d1980c18a8a7985280aab3255201d86c]
reverse link Infrastructure to Repository--><path codeLine="348" d="M338.1775,532.14 C319.9375,561.37 293.7975,603.26 279.8575,625.59 " fill="none" id="Infrastructure-backto-Repository" style="stroke:#A80036;stroke-width:1.0;"/><polygon fill="none" points="332.2875,528.35,348.8175,515.09,344.1675,535.76,332.2875,528.35" style="stroke:#A80036;stroke-width:1.0;"/><!--MD5=[a68abcec40f40f5cbbbda0c1525bfe1a]
reverse link Publication_Channel to Publication_Series--><path codeLine="64" d="M153.5675,550.75 C144.9075,570.11 135.2975,591.63 127.6275,608.8 " fill="none" id="Publication_Channel-backto-Publication_Series" style="stroke:#A80036;stroke-width:1.0;"/><polygon fill="none" points="147.2375,547.75,161.7875,532.35,160.0175,553.46,147.2375,547.75" style="stroke:#A80036;stroke-width:1.0;"/><!--MD5=[82e06a9ab4eb01586ad4d1c674f71186]
reverse link Publication_Series to Journal--><path codeLine="74" d="M113.2375,695.29 C113.2375,708.81 113.2375,723.11 113.2375,735.76 " fill="none" id="Publication_Series-backto-Journal" style="stroke:#A80036;stroke-width:1.0;"/><polygon fill="none" points="106.2375,695.05,113.2375,675.05,120.2375,695.05,106.2375,695.05" style="stroke:#A80036;stroke-width:1.0;"/><!--MD5=[88f40439064ff4845bc7e4cfd1a224e6]
reverse link Journal to Journal--><path codeLine="228" d="M177.9175,762.79 C190.6675,764.19 199.7375,768.26 199.7375,775 C199.7375,783.9 183.9375,788.14 164.7475,787.72 " fill="none" id="Journal-backto-Journal" style="stroke:#A80036;stroke-width:1.0;"/><polygon fill="#FFFFFF" points="164.7475,762.28,170.5892,766.5079,176.7386,762.7417,170.897,758.5138,164.7475,762.28" style="stroke:#A80036;stroke-width:1.0;"/><text fill="#000000" font-family="sans-serif" font-size="13" lengthAdjust="spacing" textLength="113" x="172.6795" y="785.1599">0..* predecessors</text><!--MD5=[a0fe4bcc2e634d581797c23ae087e232]
reverse link Journal to Agent--><path codeLine="231" d="M113.2375,827.5 C113.2375,844.7 113.2375,862.57 113.2375,874.77 " fill="none" id="Journal-backto-Agent" style="stroke:#A80036;stroke-width:1.0;"/><polygon fill="#FFFFFF" points="113.2375,814.28,109.2375,820.28,113.2375,826.28,117.2375,820.28,113.2375,814.28" style="stroke:#A80036;stroke-width:1.0;"/><text fill="#000000" font-family="sans-serif" font-size="13" lengthAdjust="spacing" textLength="92" x="6" y="863.9983">0..* publishers</text><!--MD5=[c8d1862492c5b5e25951e586acc2f1e2]
reverse link Document to Scholarly_Publication--><path codeLine="10" d="M666.0575,192.98 C725.0375,230.35 807.1475,282.39 847.2575,307.81 " fill="none" id="Document-backto-Scholarly_Publication" style="stroke:#A80036;stroke-width:1.0;"/><polygon fill="none" points="662.0975,198.75,648.9475,182.13,669.5875,186.93,662.0975,198.75" style="stroke:#A80036;stroke-width:1.0;"/><!--MD5=[ff21ff78bda4a9da792f658c602cf652]
reverse link Scholarly_Publication to Article--><path codeLine="117" d="M889.2475,357.79 C909.8375,395.29 942.6575,455.06 957.9275,482.86 " fill="none" id="Scholarly_Publication-backto-Article" style="stroke:#A80036;stroke-width:1.0;"/><polygon fill="none" points="882.9975,360.95,879.4975,340.05,895.2675,354.21,882.9975,360.95" style="stroke:#A80036;stroke-width:1.0;"/><!--MD5=[e08cfb285a4e8ed248d07b84efca5d5e]
reverse link Article to Book_Chapter--><path codeLine="122" d="M942.6975,531.31 C920.6975,560.57 888.7675,603.05 871.8175,625.59 " fill="none" id="Article-backto-Book_Chapter" style="stroke:#A80036;stroke-width:1.0;"/><polygon fill="none" points="937.2775,526.87,954.8975,515.09,948.4675,535.28,937.2775,526.87" style="stroke:#A80036;stroke-width:1.0;"/><!--MD5=[90d211e9335c6fbad58e70470042855a]
reverse link Article to Conference_Article--><path codeLine="127" d="M981.1575,533.4 C994.1975,562.57 1012.5175,603.58 1022.3575,625.59 " fill="none" id="Article-backto-Conference_Article" style="stroke:#A80036;stroke-width:1.0;"/><polygon fill="none" points="974.7475,536.21,972.9775,515.09,987.5275,530.49,974.7475,536.21" style="stroke:#A80036;stroke-width:1.0;"/><!--MD5=[f7e3c478638caf5f09f8f1ad52009cc0]
reverse link Article to Journal_Article--><path codeLine="132" d="M1008.2475,525.53 C1056.3875,554.79 1133.7275,601.79 1173.2375,625.81 " fill="none" id="Article-backto-Journal_Article" style="stroke:#A80036;stroke-width:1.0;"/><polygon fill="none" points="1004.5175,531.46,991.0675,515.09,1011.7875,519.49,1004.5175,531.46" style="stroke:#A80036;stroke-width:1.0;"/><!--MD5=[015a30f30a1582e7d453b283b4fda6e0]
reverse link Article to Conference_Abstract--><path codeLine="137" d="M926.6075,525.31 C922.1775,527.72 917.6575,530.01 913.2375,532 C861.0075,555.53 721.8275,591.64 667.2375,609 C650.0275,614.48 631.1575,620.56 614.5475,625.93 " fill="none" id="Article-backto-Conference_Abstract" style="stroke:#A80036;stroke-width:1.0;"/><polygon fill="none" points="923.1475,519.22,943.9275,515.1,930.2575,531.28,923.1475,519.22" style="stroke:#A80036;stroke-width:1.0;"/><!--MD5=[141cb29c915b562238a99a9676f0a8b1]
reverse link Scholarly_Publication to Presentation--><path codeLine="142" d="M864.7875,359.89 C857.8275,397.48 847.0875,455.57 842.0375,482.86 " fill="none" id="Scholarly_Publication-backto-Presentation" style="stroke:#A80036;stroke-width:1.0;"/><polygon fill="none" points="857.9375,358.44,868.4575,340.05,871.6975,360.99,857.9375,358.44" style="stroke:#A80036;stroke-width:1.0;"/><!--MD5=[d000c977187c1e4acefaca54127e73fb]
reverse link Article to Preface--><path codeLine="147" d="M924.3475,525.39 C920.5975,527.63 916.8475,529.86 913.2375,532 C855.7675,566.01 787.8975,605.1 751.4775,625.98 " fill="none" id="Article-backto-Preface" style="stroke:#A80036;stroke-width:1.0;"/><polygon fill="none" points="920.7375,519.39,941.4875,515.07,927.9575,531.38,920.7375,519.39" style="stroke:#A80036;stroke-width:1.0;"/><!--MD5=[e8524118e49b2d8a8908a1a0110320f8]
reverse link Article to Correction--><path codeLine="152" d="M927.8675,525.38 C923.0675,527.89 918.1275,530.17 913.2375,532 C866.3375,549.52 516.8975,593.65 469.2375,609 C455.9075,613.29 441.8475,619.81 430.1475,625.84 " fill="none" id="Article-backto-Correction" style="stroke:#A80036;stroke-width:1.0;"/><polygon fill="none" points="924.4575,519.27,945.2475,515.15,931.5675,531.33,924.4575,519.27" style="stroke:#A80036;stroke-width:1.0;"/><!--MD5=[5a239de7bfd61ab9339b8d0fffec56c1]
reverse link Article to Comment--><path codeLine="157" d="M1021.7375,506.37 C1085.4175,514.73 1192.3675,531.97 1280.2375,562 C1324.4375,577.1 1332.5275,587.98 1374.2375,609 C1385.1975,614.52 1397.1975,620.61 1407.7675,625.98 " fill="none" id="Article-backto-Comment" style="stroke:#A80036;stroke-width:1.0;"/><polygon fill="none" points="1020.8575,513.32,1001.8975,503.88,1022.6075,499.43,1020.8575,513.32" style="stroke:#A80036;stroke-width:1.0;"/><!--MD5=[dc9902982bef3c193f6869104bfc5c17]
reverse link Scholarly_Publication to Comment--><path codeLine="162" d="M921.8675,348.69 C1007.0275,389.14 1183.5175,475.55 1325.2375,562 C1358.7575,582.44 1395.5975,609.35 1417.5475,625.9 " fill="none" id="Scholarly_Publication-backto-Comment" style="stroke:#A80036;stroke-width:1.0;"/><polygon fill="none" points="918.7775,354.97,903.6875,340.1,924.7675,342.32,918.7775,354.97" style="stroke:#A80036;stroke-width:1.0;"/><!--MD5=[3116d22d8e7eb73411c9fde69f28bf35]
link Article to Book--><path codeLine="164" d="M1001.7475,509.46 C1060.5475,525.78 1181.0775,562.05 1276.2375,609 C1285.8975,613.77 1295.9575,620.07 1304.4275,625.82 " fill="none" id="Article-Book" style="stroke:#A80036;stroke-width:1.0;"/><polygon fill="#000000" points="1210.9045,572.3606,1203.5164,566.3717,1201.4072,571.8581,1210.9045,572.3606" style="stroke:#000000;stroke-width:1.0;"/><text fill="#000000" font-family="sans-serif" font-size="13" lengthAdjust="spacing" textLength="56" x="1215.2375" y="575.0669">is part of</text><text fill="#000000" font-family="sans-serif" font-size="13" lengthAdjust="spacing" textLength="23" x="1009.8273" y="507.0471">0..*</text><text fill="#000000" font-family="sans-serif" font-size="13" lengthAdjust="spacing" textLength="24" x="1269.5592" y="615.0649">0..1</text><!--MD5=[35540ce9c7cd0b404c8da5a40c00a099]
link Comment to Document--><path codeLine="166" d="M1424.4475,625.78 C1410.3675,609.36 1386.7375,582.78 1364.2375,562 C1201.9675,412.11 1167.4075,358.61 970.2375,259 C872.9275,209.84 749.8075,179.25 672.5075,163.41 " fill="none" id="Comment-Document" style="stroke:#A80036;stroke-width:1.0;"/><polygon fill="#000000" points="1229.9783,424.9474,1236.1439,432.1887,1239.2227,427.1817,1229.9783,424.9474" style="stroke:#000000;stroke-width:1.0;"/><text fill="#000000" font-family="sans-serif" font-size="13" lengthAdjust="spacing" textLength="17" x="1243.2375" y="432.0669">for</text><text fill="#000000" font-family="sans-serif" font-size="13" lengthAdjust="spacing" textLength="23" x="1393.4014" y="615.0116">0..*</text><text fill="#000000" font-family="sans-serif" font-size="13" lengthAdjust="spacing" textLength="24" x="680.4209" y="164.1524">1..1</text><!--MD5=[156032de9de984a72811493b5365041c]
link Correction to Document--><path codeLine="168" d="M409.2875,625.77 C436.4475,557.37 547.4875,277.8 585.4475,182.22 " fill="none" id="Correction-Document" style="stroke:#A80036;stroke-width:1.0;"/><polygon fill="#000000" points="497.0831,422.9195,491.013,430.241,496.4758,432.4106,497.0831,422.9195" style="stroke:#000000;stroke-width:1.0;"/><text fill="#000000" font-family="sans-serif" font-size="13" lengthAdjust="spacing" textLength="17" x="504.2375" y="432.0669">for</text><text fill="#000000" font-family="sans-serif" font-size="13" lengthAdjust="spacing" textLength="23" x="384.4822" y="614.9983">0..*</text><text fill="#000000" font-family="sans-serif" font-size="13" lengthAdjust="spacing" textLength="24" x="557.0318" y="201.5868">1..1</text><!--MD5=[65c28c831bedeb4e09ad45806825d0d7]
link Review to Document--><path codeLine="170" d="M598.2375,39.2 C598.2375,58.22 598.2375,91.27 598.2375,115.97 " fill="none" id="Review-Document" style="stroke:#A80036;stroke-width:1.0;"/><polygon fill="#000000" points="603.2375,82.5664,606.1764,73.5213,600.2986,73.5213,603.2375,82.5664" style="stroke:#000000;stroke-width:1.0;"/><text fill="#000000" font-family="sans-serif" font-size="13" lengthAdjust="spacing" textLength="17" x="612.2375" y="82.0669">for</text><text fill="#000000" font-family="sans-serif" font-size="13" lengthAdjust="spacing" textLength="23" x="571.4281" y="59.1395">0..*</text><text fill="#000000" font-family="sans-serif" font-size="13" lengthAdjust="spacing" textLength="24" x="571.7625" y="104.7316">1..1</text><!--MD5=[d2d36677d0b46f091eff0279e1e4f506]
@startuml

    !includesub ../../CERIF-Core/diagrams/core.puml!common

    !includesub ../../CERIF-Core/diagrams/core.puml!Document


    !includesub ../../CERIF-Core/diagrams/core.puml!Publication_Channel
    !includesub ./module.puml!Publication_Series
    !includesub ./module.puml!Journal
    !includesub ./module.puml!Scholarly_Publication
    !includesub ./module.puml!Article

@enduml

@startuml

    hide empty members
    skinparam BoxPadding 120

    class "Document" #ffffff {
        title : Multilingual_String
        publicationDate : Date
    }

    "Document" "0..*" - - "0..*" "Document" : is part of >

    "Document" "0..*" - - "0..*" "Document" : another representation of >



    class "Publication_Channel" #ffffff {
        title : Multilingual_String
        acronym : Multilingual_String
    }

    "Document" - -> "0..1" "Document_Publication_Channel" : published via channel >

    class "Document_Publication_Channel" #ffffff {
        startPage : String
        endPage : String
        articleNumber : String
        volume : String
        number : String
        startFrame : Time
        endFrame : Time
    }

    "Document_Publication_Channel" - -> "0..1" "Publication_Channel" : published in >

    class "Repository" #ffffff {
    }

    "Publication_Channel" <|- - "Repository"

    "Infrastructure" <|- - "Repository"

        class "Publication_Series" #ddeedd {
            ISSN : ISSN
            eISSN : ISSN
        }

        "Publication_Channel" <|- - "Publication_Series"
        class "Journal" #ddeedd {
            DOI : DOI
            startDate : Date
            endDate : Date
        }

        "Publication_Series" <|- - "Journal"

        "Journal" o- - "0..* predecessors" "Journal"
        "Journal" o- -  "0..* publishers" "Agent"
        class "Scholarly_Publication" #ddeedd {
        }
        "Document" <|- - "Scholarly_Publication"
        class "Article" #ddeedd {
        }

        "Scholarly_Publication" <|- - "Article"

        class "Book_Chapter" #ddeedd {
        }

        "Article" <|- - "Book_Chapter"

        class "Conference_Article" #ddeedd {
        }

        "Article" <|- - "Conference_Article"

         class "Journal_Article" #ddeedd {
         }

         "Article" <|- - "Journal_Article"

         class "Conference_Abstract" #ddeedd {
         }

         "Article" <|- - "Conference_Abstract"

         class "Presentation" #ddeedd {
         }

         "Scholarly_Publication" <|- - "Presentation"

         class "Preface" #ddeedd {
         }

         "Article" <|- - "Preface"

         class "Correction" #ddeedd {
         }

         "Article" <|- - "Correction"

         class "Comment" #ddeedd {
         }

         "Article" <|- - "Comment"

         class "Review" #ddeedd {
         }

         "Scholarly_Publication" <|- - "Comment"

         "Article" "0..*" - - "0..1" "Book" : is part of >

         "Comment" "0..*" - - "1..1" "Document" : for >

         "Correction" "0..*" - - "1..1" "Document" : for >

         "Review" "0..*" - - "1..1" "Document" : for >


@enduml

PlantUML version 1.2021.8(Sat Jun 26 08:20:59 UTC 2021)
(GPL source distribution)
Java Runtime: OpenJDK Runtime Environment
JVM: OpenJDK 64-Bit Server VM
Default Encoding: UTF-8
Language: en
Country: null
--></g></svg>