<?xml version="1.0" encoding="UTF-8" standalone="no"?><svg xmlns="http://www.w3.org/2000/svg" xmlns:xlink="http://www.w3.org/1999/xlink" contentScriptType="application/ecmascript" contentStyleType="text/css" height="404px" preserveAspectRatio="none" style="width:412px;height:404px;background:#FFFFFF;" version="1.1" viewBox="0 0 412 404" width="412px" zoomAndPan="magnify"><defs><filter height="300%" id="fnlbp3kcudv06" width="300%" x="-1" y="-1"><feGaussianBlur result="blurOut" stdDeviation="2.0"/><feColorMatrix in="blurOut" result="blurOut2" type="matrix" values="0 0 0 0 0 0 0 0 0 0 0 0 0 0 0 0 0 0 .4 0"/><feOffset dx="4.0" dy="4.0" in="blurOut2" result="blurOut3"/><feBlend in="SourceGraphic" in2="blurOut3" mode="normal"/></filter></defs><g><!--MD5=[59b530d44ae785dc18db921986a9c15c]
class Document--><rect codeLine="7" fill="#FFFFFF" filter="url(#fnlbp3kcudv06)" height="81.5078" id="Document" style="stroke:#A80036;stroke-width:1.5;" width="122" x="7" y="105.5"/><ellipse cx="36.85" cy="121.5" fill="#ADD1B2" rx="11" ry="11" style="stroke:#A80036;stroke-width:1.0;"/><path d="M39.6156,117.375 Q39.7719,117.1563 39.9594,117.0469 Q40.1469,116.9375 40.3656,116.9375 Q40.7406,116.9375 40.975,117.2031 Q41.2094,117.4531 41.2094,118.0625 L41.2094,119.5156 Q41.2094,120.125 40.975,120.3906 Q40.7406,120.6563 40.3656,120.6563 Q40.0219,120.6563 39.8188,120.4531 Q39.6156,120.2656 39.5063,119.75 Q39.4594,119.3906 39.2719,119.2031 Q38.9438,118.8281 38.3344,118.6094 Q37.725,118.3906 37.1,118.3906 Q36.3344,118.3906 35.6938,118.7188 Q35.0688,119.0469 34.5688,119.7969 Q34.0844,120.5469 34.0844,121.5781 L34.0844,122.6719 Q34.0844,123.9063 34.975,124.7344 Q35.8656,125.5469 37.4594,125.5469 Q38.3969,125.5469 39.0531,125.2969 Q39.4438,125.1406 39.8656,124.7031 Q40.1313,124.4375 40.2719,124.3594 Q40.4281,124.2813 40.6313,124.2813 Q40.9594,124.2813 41.2094,124.5469 Q41.475,124.7969 41.475,125.1406 Q41.475,125.4844 41.1313,125.8906 Q40.6313,126.4688 39.8344,126.7969 Q38.7563,127.25 37.4594,127.25 Q35.9438,127.25 34.7406,126.625 Q33.7563,126.125 33.0688,125.0625 Q32.3813,123.9844 32.3813,122.7031 L32.3813,121.5469 Q32.3813,120.2188 32.9906,119.0781 Q33.6156,117.9219 34.7094,117.3125 Q35.8031,116.6875 37.0375,116.6875 Q37.7719,116.6875 38.4125,116.8594 Q39.0688,117.0156 39.6156,117.375 Z " fill="#000000"/><text fill="#000000" font-family="sans-serif" font-size="12" lengthAdjust="spacing" textLength="57" x="54.15" y="126.4102">Document</text><line style="stroke:#A80036;stroke-width:1.5;" x1="8" x2="128" y1="137.5" y2="137.5"/><text fill="#000000" font-family="sans-serif" font-size="11" lengthAdjust="spacing" textLength="73" x="13" y="152.9189">DOI : DOI_Type</text><text fill="#000000" font-family="sans-serif" font-size="11" lengthAdjust="spacing" textLength="110" x="13" y="166.7549">title : Multilingual_String</text><text fill="#000000" font-family="sans-serif" font-size="11" lengthAdjust="spacing" textLength="104" x="13" y="180.5908">publicationDate : Date</text><!--MD5=[fe105c2ee1fabf2400c31a97ce9128bc]
class Textual_Document--><rect codeLine="12" fill="#FFFFFF" filter="url(#fnlbp3kcudv06)" height="32" id="Textual_Document" style="stroke:#A80036;stroke-width:1.5;" width="135" x="76.5" y="7"/><ellipse cx="91.5" cy="23" fill="#ADD1B2" rx="11" ry="11" style="stroke:#A80036;stroke-width:1.0;"/><path d="M94.2656,18.875 Q94.4219,18.6563 94.6094,18.5469 Q94.7969,18.4375 95.0156,18.4375 Q95.3906,18.4375 95.625,18.7031 Q95.8594,18.9531 95.8594,19.5625 L95.8594,21.0156 Q95.8594,21.625 95.625,21.8906 Q95.3906,22.1563 95.0156,22.1563 Q94.6719,22.1563 94.4688,21.9531 Q94.2656,21.7656 94.1563,21.25 Q94.1094,20.8906 93.9219,20.7031 Q93.5938,20.3281 92.9844,20.1094 Q92.375,19.8906 91.75,19.8906 Q90.9844,19.8906 90.3438,20.2188 Q89.7188,20.5469 89.2188,21.2969 Q88.7344,22.0469 88.7344,23.0781 L88.7344,24.1719 Q88.7344,25.4063 89.625,26.2344 Q90.5156,27.0469 92.1094,27.0469 Q93.0469,27.0469 93.7031,26.7969 Q94.0938,26.6406 94.5156,26.2031 Q94.7813,25.9375 94.9219,25.8594 Q95.0781,25.7813 95.2813,25.7813 Q95.6094,25.7813 95.8594,26.0469 Q96.125,26.2969 96.125,26.6406 Q96.125,26.9844 95.7813,27.3906 Q95.2813,27.9688 94.4844,28.2969 Q93.4063,28.75 92.1094,28.75 Q90.5938,28.75 89.3906,28.125 Q88.4063,27.625 87.7188,26.5625 Q87.0313,25.4844 87.0313,24.2031 L87.0313,23.0469 Q87.0313,21.7188 87.6406,20.5781 Q88.2656,19.4219 89.3594,18.8125 Q90.4531,18.1875 91.6875,18.1875 Q92.4219,18.1875 93.0625,18.3594 Q93.7188,18.5156 94.2656,18.875 Z " fill="#000000"/><text fill="#000000" font-family="sans-serif" font-size="12" lengthAdjust="spacing" textLength="103" x="105.5" y="27.9102">Textual_Document</text><!--MD5=[9a5422ab15122c8d1cd75d14414799b8]
class Journal--><rect codeLine="22" fill="#FEFECE" filter="url(#fnlbp3kcudv06)" height="136.8516" id="Journal" style="stroke:#A80036;stroke-width:1.5;" width="148" x="147" y="254"/><ellipse cx="196.25" cy="270" fill="#ADD1B2" rx="11" ry="11" style="stroke:#A80036;stroke-width:1.0;"/><path d="M199.0156,265.875 Q199.1719,265.6563 199.3594,265.5469 Q199.5469,265.4375 199.7656,265.4375 Q200.1406,265.4375 200.375,265.7031 Q200.6094,265.9531 200.6094,266.5625 L200.6094,268.0156 Q200.6094,268.625 200.375,268.8906 Q200.1406,269.1563 199.7656,269.1563 Q199.4219,269.1563 199.2188,268.9531 Q199.0156,268.7656 198.9063,268.25 Q198.8594,267.8906 198.6719,267.7031 Q198.3438,267.3281 197.7344,267.1094 Q197.125,266.8906 196.5,266.8906 Q195.7344,266.8906 195.0938,267.2188 Q194.4688,267.5469 193.9688,268.2969 Q193.4844,269.0469 193.4844,270.0781 L193.4844,271.1719 Q193.4844,272.4063 194.375,273.2344 Q195.2656,274.0469 196.8594,274.0469 Q197.7969,274.0469 198.4531,273.7969 Q198.8438,273.6406 199.2656,273.2031 Q199.5313,272.9375 199.6719,272.8594 Q199.8281,272.7813 200.0313,272.7813 Q200.3594,272.7813 200.6094,273.0469 Q200.875,273.2969 200.875,273.6406 Q200.875,273.9844 200.5313,274.3906 Q200.0313,274.9688 199.2344,275.2969 Q198.1563,275.75 196.8594,275.75 Q195.3438,275.75 194.1406,275.125 Q193.1563,274.625 192.4688,273.5625 Q191.7813,272.4844 191.7813,271.2031 L191.7813,270.0469 Q191.7813,268.7188 192.3906,267.5781 Q193.0156,266.4219 194.1094,265.8125 Q195.2031,265.1875 196.4375,265.1875 Q197.1719,265.1875 197.8125,265.3594 Q198.4688,265.5156 199.0156,265.875 Z " fill="#000000"/><text fill="#000000" font-family="sans-serif" font-size="12" lengthAdjust="spacing" textLength="41" x="216.75" y="274.9102">Journal</text><line style="stroke:#A80036;stroke-width:1.5;" x1="148" x2="294" y1="286" y2="286"/><text fill="#000000" font-family="sans-serif" font-size="11" lengthAdjust="spacing" textLength="73" x="153" y="301.4189">DOI : DOI_Type</text><text fill="#000000" font-family="sans-serif" font-size="11" lengthAdjust="spacing" textLength="110" x="153" y="315.2549">title : Multilingual_String</text><text fill="#000000" font-family="sans-serif" font-size="11" lengthAdjust="spacing" textLength="85" x="153" y="329.0908">ISSN : ISSN_Type</text><text fill="#000000" font-family="sans-serif" font-size="11" lengthAdjust="spacing" textLength="91" x="153" y="342.9268">eISSN : ISSN_Type</text><text fill="#000000" font-family="sans-serif" font-size="11" lengthAdjust="spacing" textLength="136" x="153" y="356.7627">acronym : Multilingual_String</text><text fill="#000000" font-family="sans-serif" font-size="11" lengthAdjust="spacing" textLength="75" x="153" y="370.5986">startDate : Date</text><text fill="#000000" font-family="sans-serif" font-size="11" lengthAdjust="spacing" textLength="71" x="153" y="384.4346">endDate : Date</text><!--MD5=[6187a6e1e3f43e4e2525b450325f9ab5]
class Journal_Article--><rect codeLine="32" fill="#FEFECE" filter="url(#fnlbp3kcudv06)" height="95.3438" id="Journal_Article" style="stroke:#A80036;stroke-width:1.5;" width="113" x="164.5" y="99"/><ellipse cx="179.5" cy="115" fill="#ADD1B2" rx="11" ry="11" style="stroke:#A80036;stroke-width:1.0;"/><path d="M182.2656,110.875 Q182.4219,110.6563 182.6094,110.5469 Q182.7969,110.4375 183.0156,110.4375 Q183.3906,110.4375 183.625,110.7031 Q183.8594,110.9531 183.8594,111.5625 L183.8594,113.0156 Q183.8594,113.625 183.625,113.8906 Q183.3906,114.1563 183.0156,114.1563 Q182.6719,114.1563 182.4688,113.9531 Q182.2656,113.7656 182.1563,113.25 Q182.1094,112.8906 181.9219,112.7031 Q181.5938,112.3281 180.9844,112.1094 Q180.375,111.8906 179.75,111.8906 Q178.9844,111.8906 178.3438,112.2188 Q177.7188,112.5469 177.2188,113.2969 Q176.7344,114.0469 176.7344,115.0781 L176.7344,116.1719 Q176.7344,117.4063 177.625,118.2344 Q178.5156,119.0469 180.1094,119.0469 Q181.0469,119.0469 181.7031,118.7969 Q182.0938,118.6406 182.5156,118.2031 Q182.7813,117.9375 182.9219,117.8594 Q183.0781,117.7813 183.2813,117.7813 Q183.6094,117.7813 183.8594,118.0469 Q184.125,118.2969 184.125,118.6406 Q184.125,118.9844 183.7813,119.3906 Q183.2813,119.9688 182.4844,120.2969 Q181.4063,120.75 180.1094,120.75 Q178.5938,120.75 177.3906,120.125 Q176.4063,119.625 175.7188,118.5625 Q175.0313,117.4844 175.0313,116.2031 L175.0313,115.0469 Q175.0313,113.7188 175.6406,112.5781 Q176.2656,111.4219 177.3594,110.8125 Q178.4531,110.1875 179.6875,110.1875 Q180.4219,110.1875 181.0625,110.3594 Q181.7188,110.5156 182.2656,110.875 Z " fill="#000000"/><text fill="#000000" font-family="sans-serif" font-size="12" lengthAdjust="spacing" textLength="81" x="193.5" y="119.9102">Journal_Article</text><line style="stroke:#A80036;stroke-width:1.5;" x1="165.5" x2="276.5" y1="131" y2="131"/><text fill="#000000" font-family="sans-serif" font-size="11" lengthAdjust="spacing" textLength="83" x="170.5" y="146.4189">startPage : String</text><text fill="#000000" font-family="sans-serif" font-size="11" lengthAdjust="spacing" textLength="79" x="170.5" y="160.2549">endPage : String</text><text fill="#000000" font-family="sans-serif" font-size="11" lengthAdjust="spacing" textLength="71" x="170.5" y="174.0908">volume : String</text><text fill="#000000" font-family="sans-serif" font-size="11" lengthAdjust="spacing" textLength="73" x="170.5" y="187.9268">number : String</text><!--MD5=[8d9b790276a1e6c61f0b091de629785c]
link Textual_Document to Document--><path codeLine="95" d="M134.37,39.39 C126.53,51.92 114.95,70.44 103.65,88.51 " fill="none" id="Textual_Document-to-Document" style="stroke:#A80036;stroke-width:1.0;"/><polygon fill="none" points="109.57,92.25,93.03,105.49,97.7,84.82,109.57,92.25" style="stroke:#A80036;stroke-width:1.0;"/><!--MD5=[c60a4b536c71b88487ebbf01e6b75384]
reverse link Textual_Document to Journal_Article--><path codeLine="92" d="M164.57,56.46 C172.81,69.46 182.46,84.69 191.43,98.84 " fill="none" id="Textual_Document-backto-Journal_Article" style="stroke:#A80036;stroke-width:1.0;"/><polygon fill="none" points="158.55,60.03,153.75,39.39,170.37,52.53,158.55,60.03" style="stroke:#A80036;stroke-width:1.0;"/><!--MD5=[88f40439064ff4845bc7e4cfd1a224e6]
reverse link Journal to Journal--><path codeLine="101" d="M308.15,292.53 C321.18,297.18 330,307.17 330,322.5 C330,342.52 314.95,353.43 295.13,355.23 " fill="none" id="Journal-backto-Journal" style="stroke:#A80036;stroke-width:1.0;"/><polygon fill="#FFFFFF" points="295.13,289.77,300.1682,294.9291,306.8682,292.2627,301.83,287.1036,295.13,289.77" style="stroke:#A80036;stroke-width:1.0;"/><text fill="#000000" font-family="sans-serif" font-size="13" lengthAdjust="spacing" textLength="102" x="303.1461" y="354.3254">0..* predecessors</text><!--MD5=[a7ff7daa03c30e603ee3c4860dcf798f]
reverse link Journal_Article to Journal--><path codeLine="105" d="M221,207.46 C221,222.4 221,238.52 221,253.8 " fill="none" id="Journal_Article-backto-Journal" style="stroke:#A80036;stroke-width:1.0;"/><polygon fill="#FFFFFF" points="221,194.13,217,200.13,221,206.13,225,200.13,221,194.13" style="stroke:#A80036;stroke-width:1.0;"/><text fill="#000000" font-family="sans-serif" font-size="13" lengthAdjust="spacing" textLength="20" x="199.5313" y="215.7963">0..*</text><text fill="#000000" font-family="sans-serif" font-size="13" lengthAdjust="spacing" textLength="39" x="179.8672" y="242.9334">source</text><!--MD5=[1f227900ee31b5afde6b54764c25d949]
@startuml

!includesub core.puml!common


    !includesub ./core.puml!Document


!includesub ./module.puml!Journal

@enduml

@startuml

    	hide empty members


    class "Document" #ffffff {
        DOI : DOI_Type
        title : Multilingual_String
        publicationDate : Date
    }
    class "Textual_Document" #ffffff {
    }
    "Document" <|-u- "Textual_Document"


    class "Journal"{
        DOI : DOI_Type
        title : Multilingual_String
        ISSN : ISSN_Type
        eISSN : ISSN_Type
        acronym : Multilingual_String
        startDate : Date
        endDate : Date
    }

    class "Journal_Article"{
        startPage : String
        endPage : String
        volume : String
        number : String
    }
    "Textual_Document" <|- - "Journal_Article"
    "Journal" o- - "0..* predecessors" "Journal"
    "Journal_Article" "0..*" o- - "source" "Journal"

@enduml

PlantUML version 1.2021.8(Sat Jun 26 10:20:59 CEST 2021)
(GPL source distribution)
Java Runtime: Java(TM) SE Runtime Environment
JVM: Java HotSpot(TM) 64-Bit Server VM
Default Encoding: Cp1252
Language: en
Country: US
--></g></svg>