<?xml version="1.0" encoding="UTF-8" standalone="no"?><svg xmlns="http://www.w3.org/2000/svg" xmlns:xlink="http://www.w3.org/1999/xlink" contentScriptType="application/ecmascript" contentStyleType="text/css" height="531px" preserveAspectRatio="none" style="width:311px;height:531px;background:#FFFFFF;" version="1.1" viewBox="0 0 311 531" width="311px" zoomAndPan="magnify"><defs><filter height="300%" id="f7r01xajvluw8" width="300%" x="-1" y="-1"><feGaussianBlur result="blurOut" stdDeviation="2.0"/><feColorMatrix in="blurOut" result="blurOut2" type="matrix" values="0 0 0 0 0 0 0 0 0 0 0 0 0 0 0 0 0 0 .4 0"/><feOffset dx="4.0" dy="4.0" in="blurOut2" result="blurOut3"/><feBlend in="SourceGraphic" in2="blurOut3" mode="normal"/></filter></defs><g><!--MD5=[59b530d44ae785dc18db921986a9c15c]
class Document--><rect codeLine="199" fill="#FFFFFF" filter="url(#f7r01xajvluw8)" height="78.4141" id="Document" style="stroke:#A80036;stroke-width:1.5;" width="148" x="21" y="7"/><ellipse cx="59.4" cy="23" fill="#ADD1B2" rx="11" ry="11" style="stroke:#A80036;stroke-width:1.0;"/><path d="M62.3688,28.6406 Q61.7906,28.9375 61.15,29.0781 Q60.5094,29.2344 59.8063,29.2344 Q57.3063,29.2344 55.9781,27.5938 Q54.6656,25.9375 54.6656,22.8125 Q54.6656,19.6875 55.9781,18.0313 Q57.3063,16.375 59.8063,16.375 Q60.5094,16.375 61.15,16.5313 Q61.8063,16.6875 62.3688,16.9844 L62.3688,19.7031 Q61.7438,19.125 61.15,18.8594 Q60.5563,18.5781 59.9313,18.5781 Q58.5875,18.5781 57.9,19.6563 Q57.2125,20.7188 57.2125,22.8125 Q57.2125,24.9063 57.9,25.9844 Q58.5875,27.0469 59.9313,27.0469 Q60.5563,27.0469 61.15,26.7813 Q61.7438,26.5 62.3688,25.9219 L62.3688,28.6406 Z " fill="#000000"/><text fill="#000000" font-family="sans-serif" font-size="12" lengthAdjust="spacing" textLength="64" x="78.6" y="27.1543">Document</text><line style="stroke:#A80036;stroke-width:1.5;" x1="22" x2="168" y1="39" y2="39"/><text fill="#000000" font-family="sans-serif" font-size="11" lengthAdjust="spacing" textLength="52" x="27" y="53.2104">DOI : DOI</text><text fill="#000000" font-family="sans-serif" font-size="11" lengthAdjust="spacing" textLength="136" x="27" y="66.0151">title : Multilingual_String</text><text fill="#000000" font-family="sans-serif" font-size="11" lengthAdjust="spacing" textLength="125" x="27" y="78.8198">publicationDate : Date</text><!--MD5=[fe105c2ee1fabf2400c31a97ce9128bc]
class Textual_Document--><rect codeLine="207" fill="#FFFFFF" filter="url(#f7r01xajvluw8)" height="32" id="Textual_Document" style="stroke:#A80036;stroke-width:1.5;" width="147" x="21.5" y="145"/><ellipse cx="36.5" cy="161" fill="#ADD1B2" rx="11" ry="11" style="stroke:#A80036;stroke-width:1.0;"/><path d="M39.4688,166.6406 Q38.8906,166.9375 38.25,167.0781 Q37.6094,167.2344 36.9063,167.2344 Q34.4063,167.2344 33.0781,165.5938 Q31.7656,163.9375 31.7656,160.8125 Q31.7656,157.6875 33.0781,156.0313 Q34.4063,154.375 36.9063,154.375 Q37.6094,154.375 38.25,154.5313 Q38.9063,154.6875 39.4688,154.9844 L39.4688,157.7031 Q38.8438,157.125 38.25,156.8594 Q37.6563,156.5781 37.0313,156.5781 Q35.6875,156.5781 35,157.6563 Q34.3125,158.7188 34.3125,160.8125 Q34.3125,162.9063 35,163.9844 Q35.6875,165.0469 37.0313,165.0469 Q37.6563,165.0469 38.25,164.7813 Q38.8438,164.5 39.4688,163.9219 L39.4688,166.6406 Z " fill="#000000"/><text fill="#000000" font-family="sans-serif" font-size="12" lengthAdjust="spacing" textLength="115" x="50.5" y="165.1543">Textual_Document</text><!--MD5=[9a5422ab15122c8d1cd75d14414799b8]
class Journal--><rect codeLine="19" fill="#DDEEDD" filter="url(#f7r01xajvluw8)" height="129.6328" id="Journal" style="stroke:#A80036;stroke-width:1.5;" width="176" x="7" y="388"/><ellipse cx="69.25" cy="404" fill="#ADD1B2" rx="11" ry="11" style="stroke:#A80036;stroke-width:1.0;"/><path d="M72.2188,409.6406 Q71.6406,409.9375 71,410.0781 Q70.3594,410.2344 69.6563,410.2344 Q67.1563,410.2344 65.8281,408.5938 Q64.5156,406.9375 64.5156,403.8125 Q64.5156,400.6875 65.8281,399.0313 Q67.1563,397.375 69.6563,397.375 Q70.3594,397.375 71,397.5313 Q71.6563,397.6875 72.2188,397.9844 L72.2188,400.7031 Q71.5938,400.125 71,399.8594 Q70.4063,399.5781 69.7813,399.5781 Q68.4375,399.5781 67.75,400.6563 Q67.0625,401.7188 67.0625,403.8125 Q67.0625,405.9063 67.75,406.9844 Q68.4375,408.0469 69.7813,408.0469 Q70.4063,408.0469 71,407.7813 Q71.5938,407.5 72.2188,406.9219 L72.2188,409.6406 Z " fill="#000000"/><text fill="#000000" font-family="sans-serif" font-size="12" lengthAdjust="spacing" textLength="43" x="89.75" y="408.1543">Journal</text><line style="stroke:#A80036;stroke-width:1.5;" x1="8" x2="182" y1="420" y2="420"/><text fill="#000000" font-family="sans-serif" font-size="11" lengthAdjust="spacing" textLength="52" x="13" y="434.2104">DOI : DOI</text><text fill="#000000" font-family="sans-serif" font-size="11" lengthAdjust="spacing" textLength="136" x="13" y="447.0151">title : Multilingual_String</text><text fill="#000000" font-family="sans-serif" font-size="11" lengthAdjust="spacing" textLength="66" x="13" y="459.8198">ISSN : ISSN</text><text fill="#000000" font-family="sans-serif" font-size="11" lengthAdjust="spacing" textLength="73" x="13" y="472.6245">eISSN : ISSN</text><text fill="#000000" font-family="sans-serif" font-size="11" lengthAdjust="spacing" textLength="164" x="13" y="485.4292">acronym : Multilingual_String</text><text fill="#000000" font-family="sans-serif" font-size="11" lengthAdjust="spacing" textLength="91" x="13" y="498.2339">startDate : Date</text><text fill="#000000" font-family="sans-serif" font-size="11" lengthAdjust="spacing" textLength="85" x="13" y="511.0386">endDate : Date</text><!--MD5=[6187a6e1e3f43e4e2525b450325f9ab5]
class Journal_Article--><rect codeLine="29" fill="#DDEEDD" filter="url(#f7r01xajvluw8)" height="91.2188" id="Journal_Article" style="stroke:#A80036;stroke-width:1.5;" width="120" x="35" y="237"/><ellipse cx="50" cy="253" fill="#ADD1B2" rx="11" ry="11" style="stroke:#A80036;stroke-width:1.0;"/><path d="M52.9688,258.6406 Q52.3906,258.9375 51.75,259.0781 Q51.1094,259.2344 50.4063,259.2344 Q47.9063,259.2344 46.5781,257.5938 Q45.2656,255.9375 45.2656,252.8125 Q45.2656,249.6875 46.5781,248.0313 Q47.9063,246.375 50.4063,246.375 Q51.1094,246.375 51.75,246.5313 Q52.4063,246.6875 52.9688,246.9844 L52.9688,249.7031 Q52.3438,249.125 51.75,248.8594 Q51.1563,248.5781 50.5313,248.5781 Q49.1875,248.5781 48.5,249.6563 Q47.8125,250.7188 47.8125,252.8125 Q47.8125,254.9063 48.5,255.9844 Q49.1875,257.0469 50.5313,257.0469 Q51.1563,257.0469 51.75,256.7813 Q52.3438,256.5 52.9688,255.9219 L52.9688,258.6406 Z " fill="#000000"/><text fill="#000000" font-family="sans-serif" font-size="12" lengthAdjust="spacing" textLength="88" x="64" y="257.1543">Journal_Article</text><line style="stroke:#A80036;stroke-width:1.5;" x1="36" x2="154" y1="269" y2="269"/><text fill="#000000" font-family="sans-serif" font-size="11" lengthAdjust="spacing" textLength="101" x="41" y="283.2104">startPage : String</text><text fill="#000000" font-family="sans-serif" font-size="11" lengthAdjust="spacing" textLength="95" x="41" y="296.0151">endPage : String</text><text fill="#000000" font-family="sans-serif" font-size="11" lengthAdjust="spacing" textLength="87" x="41" y="308.8198">volume : String</text><text fill="#000000" font-family="sans-serif" font-size="11" lengthAdjust="spacing" textLength="90" x="41" y="321.6245">number : String</text><!--MD5=[67ceb885199ca7e1fa058287d8756a2e]
reverse link Document to Textual_Document--><path codeLine="212" d="M95,105.39 C95,120.09 95,134.62 95,144.99 " fill="none" id="Document-backto-Textual_Document" style="stroke:#A80036;stroke-width:1.0;"/><polygon fill="none" points="88,105.26,95,85.26,102,105.26,88,105.26" style="stroke:#A80036;stroke-width:1.0;"/><!--MD5=[c60a4b536c71b88487ebbf01e6b75384]
reverse link Textual_Document to Journal_Article--><path codeLine="90" d="M95,197.57 C95,209.92 95,223.94 95,236.93 " fill="none" id="Textual_Document-backto-Journal_Article" style="stroke:#A80036;stroke-width:1.0;"/><polygon fill="none" points="88,197.13,95,177.13,102,197.13,88,197.13" style="stroke:#A80036;stroke-width:1.0;"/><!--MD5=[88f40439064ff4845bc7e4cfd1a224e6]
reverse link Journal to Journal--><path codeLine="99" d="M195.9,424.91 C209.19,429.7 218,439.07 218,453 C218,471.01 203.27,481.39 183.18,484.14 " fill="none" id="Journal-backto-Journal" style="stroke:#A80036;stroke-width:1.0;"/><polygon fill="#FFFFFF" points="183.18,421.86,188.0831,427.1477,194.8498,424.6555,189.9468,419.3678,183.18,421.86" style="stroke:#A80036;stroke-width:1.0;"/><text fill="#000000" font-family="sans-serif" font-size="13" lengthAdjust="spacing" textLength="113" x="191.0922" y="482.5134">0..* predecessors</text><!--MD5=[a7ff7daa03c30e603ee3c4860dcf798f]
reverse link Journal_Article to Journal--><path codeLine="103" d="M95,341.5 C95,356.4 95,372.53 95,387.73 " fill="none" id="Journal_Article-backto-Journal" style="stroke:#A80036;stroke-width:1.0;"/><polygon fill="#FFFFFF" points="95,328.21,91,334.21,95,340.21,99,334.21,95,328.21" style="stroke:#A80036;stroke-width:1.0;"/><text fill="#000000" font-family="sans-serif" font-size="13" lengthAdjust="spacing" textLength="23" x="70.2391" y="348.4181">0..*</text><text fill="#000000" font-family="sans-serif" font-size="13" lengthAdjust="spacing" textLength="43" x="49.6484" y="376.865">source</text><!--MD5=[de7d73f197646d8edb4c7ff009c84fe8]
@startuml

    !includesub ../../CERIF-Core/diagrams/core.puml!common

    !includesub ../../CERIF-Core/diagrams/core.puml!Document
    !includesub ../../CERIF-Core/diagrams/core.puml!Textual_Document

    !includesub ./module.puml!Journal

@enduml

@startuml

    hide empty members
    skinparam BoxPadding 120

    class "Document" #ffffff {
        DOI : DOI
        title : Multilingual_String
        publicationDate : Date
    }
    class "Textual_Document" #ffffff {
    }
    "Document" <|- - "Textual_Document"

        class "Journal" #ddeedd {
            DOI : DOI
            title : Multilingual_String
            ISSN : ISSN
            eISSN : ISSN
            acronym : Multilingual_String
            startDate : Date
            endDate : Date
        }

        class "Journal_Article" #ddeedd {
            startPage : String
            endPage : String
            volume : String
            number : String
        }
        "Textual_Document" <|- - "Journal_Article"
        "Journal" o- - "0..* predecessors" "Journal"
        "Journal_Article" "0..*" o- - "source" "Journal"

@enduml

PlantUML version 1.2021.8(Sat Jun 26 08:20:59 UTC 2021)
(GPL source distribution)
Java Runtime: OpenJDK Runtime Environment
JVM: OpenJDK 64-Bit Server VM
Default Encoding: UTF-8
Language: en
Country: null
--></g></svg>