<?xml version="1.0" encoding="UTF-8" standalone="no"?><svg xmlns="http://www.w3.org/2000/svg" xmlns:xlink="http://www.w3.org/1999/xlink" contentScriptType="application/ecmascript" contentStyleType="text/css" height="393px" preserveAspectRatio="none" style="width:594px;height:393px;background:#FFFFFF;" version="1.1" viewBox="0 0 594 393" width="594px" zoomAndPan="magnify"><defs><filter height="300%" id="f68b2hrl2crm6" width="300%" x="-1" y="-1"><feGaussianBlur result="blurOut" stdDeviation="2.0"/><feColorMatrix in="blurOut" result="blurOut2" type="matrix" values="0 0 0 0 0 0 0 0 0 0 0 0 0 0 0 0 0 0 .4 0"/><feOffset dx="4.0" dy="4.0" in="blurOut2" result="blurOut3"/><feBlend in="SourceGraphic" in2="blurOut3" mode="normal"/></filter></defs><g><!--MD5=[59b530d44ae785dc18db921986a9c15c]
class Document--><rect codeLine="8" fill="#FFFFFF" filter="url(#f68b2hrl2crm6)" height="78.4141" id="Document" style="stroke:#A80036;stroke-width:1.5;" width="148" x="7" y="105.5"/><ellipse cx="45.4" cy="121.5" fill="#ADD1B2" rx="11" ry="11" style="stroke:#A80036;stroke-width:1.0;"/><path d="M48.3688,127.1406 Q47.7906,127.4375 47.15,127.5781 Q46.5094,127.7344 45.8063,127.7344 Q43.3063,127.7344 41.9781,126.0938 Q40.6656,124.4375 40.6656,121.3125 Q40.6656,118.1875 41.9781,116.5313 Q43.3063,114.875 45.8063,114.875 Q46.5094,114.875 47.15,115.0313 Q47.8063,115.1875 48.3688,115.4844 L48.3688,118.2031 Q47.7438,117.625 47.15,117.3594 Q46.5563,117.0781 45.9313,117.0781 Q44.5875,117.0781 43.9,118.1563 Q43.2125,119.2188 43.2125,121.3125 Q43.2125,123.4063 43.9,124.4844 Q44.5875,125.5469 45.9313,125.5469 Q46.5563,125.5469 47.15,125.2813 Q47.7438,125 48.3688,124.4219 L48.3688,127.1406 Z " fill="#000000"/><text fill="#000000" font-family="sans-serif" font-size="12" lengthAdjust="spacing" textLength="64" x="64.6" y="125.6543">Document</text><line style="stroke:#A80036;stroke-width:1.5;" x1="8" x2="154" y1="137.5" y2="137.5"/><text fill="#000000" font-family="sans-serif" font-size="11" lengthAdjust="spacing" textLength="85" x="13" y="151.7104">DOI : DOI_Type</text><text fill="#000000" font-family="sans-serif" font-size="11" lengthAdjust="spacing" textLength="136" x="13" y="164.5151">title : Multilingual_String</text><text fill="#000000" font-family="sans-serif" font-size="11" lengthAdjust="spacing" textLength="125" x="13" y="177.3198">publicationDate : Date</text><!--MD5=[fe105c2ee1fabf2400c31a97ce9128bc]
class Textual_Document--><rect codeLine="13" fill="#FFFFFF" filter="url(#f68b2hrl2crm6)" height="32" id="Textual_Document" style="stroke:#A80036;stroke-width:1.5;" width="147" x="88.5" y="7"/><ellipse cx="103.5" cy="23" fill="#ADD1B2" rx="11" ry="11" style="stroke:#A80036;stroke-width:1.0;"/><path d="M106.4688,28.6406 Q105.8906,28.9375 105.25,29.0781 Q104.6094,29.2344 103.9063,29.2344 Q101.4063,29.2344 100.0781,27.5938 Q98.7656,25.9375 98.7656,22.8125 Q98.7656,19.6875 100.0781,18.0313 Q101.4063,16.375 103.9063,16.375 Q104.6094,16.375 105.25,16.5313 Q105.9063,16.6875 106.4688,16.9844 L106.4688,19.7031 Q105.8438,19.125 105.25,18.8594 Q104.6563,18.5781 104.0313,18.5781 Q102.6875,18.5781 102,19.6563 Q101.3125,20.7188 101.3125,22.8125 Q101.3125,24.9063 102,25.9844 Q102.6875,27.0469 104.0313,27.0469 Q104.6563,27.0469 105.25,26.7813 Q105.8438,26.5 106.4688,25.9219 L106.4688,28.6406 Z " fill="#000000"/><text fill="#000000" font-family="sans-serif" font-size="12" lengthAdjust="spacing" textLength="115" x="117.5" y="27.1543">Textual_Document</text><!--MD5=[9a5422ab15122c8d1cd75d14414799b8]
class Journal--><rect codeLine="19" fill="#00FF00" filter="url(#f68b2hrl2crm6)" height="129.6328" id="Journal" style="stroke:#A80036;stroke-width:1.5;" width="176" x="162" y="250"/><ellipse cx="224.25" cy="266" fill="#ADD1B2" rx="11" ry="11" style="stroke:#A80036;stroke-width:1.0;"/><path d="M227.2188,271.6406 Q226.6406,271.9375 226,272.0781 Q225.3594,272.2344 224.6563,272.2344 Q222.1563,272.2344 220.8281,270.5938 Q219.5156,268.9375 219.5156,265.8125 Q219.5156,262.6875 220.8281,261.0313 Q222.1563,259.375 224.6563,259.375 Q225.3594,259.375 226,259.5313 Q226.6563,259.6875 227.2188,259.9844 L227.2188,262.7031 Q226.5938,262.125 226,261.8594 Q225.4063,261.5781 224.7813,261.5781 Q223.4375,261.5781 222.75,262.6563 Q222.0625,263.7188 222.0625,265.8125 Q222.0625,267.9063 222.75,268.9844 Q223.4375,270.0469 224.7813,270.0469 Q225.4063,270.0469 226,269.7813 Q226.5938,269.5 227.2188,268.9219 L227.2188,271.6406 Z " fill="#000000"/><text fill="#000000" font-family="sans-serif" font-size="12" lengthAdjust="spacing" textLength="43" x="244.75" y="270.1543">Journal</text><line style="stroke:#A80036;stroke-width:1.5;" x1="163" x2="337" y1="282" y2="282"/><text fill="#000000" font-family="sans-serif" font-size="11" lengthAdjust="spacing" textLength="85" x="168" y="296.2104">DOI : DOI_Type</text><text fill="#000000" font-family="sans-serif" font-size="11" lengthAdjust="spacing" textLength="136" x="168" y="309.0151">title : Multilingual_String</text><text fill="#000000" font-family="sans-serif" font-size="11" lengthAdjust="spacing" textLength="99" x="168" y="321.8198">ISSN : ISSN_Type</text><text fill="#000000" font-family="sans-serif" font-size="11" lengthAdjust="spacing" textLength="106" x="168" y="334.6245">eISSN : ISSN_Type</text><text fill="#000000" font-family="sans-serif" font-size="11" lengthAdjust="spacing" textLength="164" x="168" y="347.4292">acronym : Multilingual_String</text><text fill="#000000" font-family="sans-serif" font-size="11" lengthAdjust="spacing" textLength="91" x="168" y="360.2339">startDate : Date</text><text fill="#000000" font-family="sans-serif" font-size="11" lengthAdjust="spacing" textLength="85" x="168" y="373.0386">endDate : Date</text><!--MD5=[6187a6e1e3f43e4e2525b450325f9ab5]
class Journal_Article--><rect codeLine="29" fill="#00FF00" filter="url(#f68b2hrl2crm6)" height="91.2188" id="Journal_Article" style="stroke:#A80036;stroke-width:1.5;" width="120" x="190" y="99"/><ellipse cx="205" cy="115" fill="#ADD1B2" rx="11" ry="11" style="stroke:#A80036;stroke-width:1.0;"/><path d="M207.9688,120.6406 Q207.3906,120.9375 206.75,121.0781 Q206.1094,121.2344 205.4063,121.2344 Q202.9063,121.2344 201.5781,119.5938 Q200.2656,117.9375 200.2656,114.8125 Q200.2656,111.6875 201.5781,110.0313 Q202.9063,108.375 205.4063,108.375 Q206.1094,108.375 206.75,108.5313 Q207.4063,108.6875 207.9688,108.9844 L207.9688,111.7031 Q207.3438,111.125 206.75,110.8594 Q206.1563,110.5781 205.5313,110.5781 Q204.1875,110.5781 203.5,111.6563 Q202.8125,112.7188 202.8125,114.8125 Q202.8125,116.9063 203.5,117.9844 Q204.1875,119.0469 205.5313,119.0469 Q206.1563,119.0469 206.75,118.7813 Q207.3438,118.5 207.9688,117.9219 L207.9688,120.6406 Z " fill="#000000"/><text fill="#000000" font-family="sans-serif" font-size="12" lengthAdjust="spacing" textLength="88" x="219" y="119.1543">Journal_Article</text><line style="stroke:#A80036;stroke-width:1.5;" x1="191" x2="309" y1="131" y2="131"/><text fill="#000000" font-family="sans-serif" font-size="11" lengthAdjust="spacing" textLength="101" x="196" y="145.2104">startPage : String</text><text fill="#000000" font-family="sans-serif" font-size="11" lengthAdjust="spacing" textLength="95" x="196" y="158.0151">endPage : String</text><text fill="#000000" font-family="sans-serif" font-size="11" lengthAdjust="spacing" textLength="87" x="196" y="170.8198">volume : String</text><text fill="#000000" font-family="sans-serif" font-size="11" lengthAdjust="spacing" textLength="90" x="196" y="183.6245">number : String</text><!--MD5=[3d3814e6d18e193800c83fb27de84142]
class CRediT_Contribution_Statement--><rect fill="#FEFECE" filter="url(#f68b2hrl2crm6)" height="32" id="CRediT_Contribution_Statement" style="stroke:#A80036;stroke-width:1.5;" width="229" x="351.5" y="7"/><ellipse cx="366.5" cy="23" fill="#ADD1B2" rx="11" ry="11" style="stroke:#A80036;stroke-width:1.0;"/><path d="M369.4688,28.6406 Q368.8906,28.9375 368.25,29.0781 Q367.6094,29.2344 366.9063,29.2344 Q364.4063,29.2344 363.0781,27.5938 Q361.7656,25.9375 361.7656,22.8125 Q361.7656,19.6875 363.0781,18.0313 Q364.4063,16.375 366.9063,16.375 Q367.6094,16.375 368.25,16.5313 Q368.9063,16.6875 369.4688,16.9844 L369.4688,19.7031 Q368.8438,19.125 368.25,18.8594 Q367.6563,18.5781 367.0313,18.5781 Q365.6875,18.5781 365,19.6563 Q364.3125,20.7188 364.3125,22.8125 Q364.3125,24.9063 365,25.9844 Q365.6875,27.0469 367.0313,27.0469 Q367.6563,27.0469 368.25,26.7813 Q368.8438,26.5 369.4688,25.9219 L369.4688,28.6406 Z " fill="#000000"/><text fill="#000000" font-family="sans-serif" font-size="12" lengthAdjust="spacing" textLength="197" x="380.5" y="27.1543">CRediT_Contribution_Statement</text><!--MD5=[42c2141a95e7f85966762f44b3023ac5]
class CRediT_Degree_of_Contribution--><rect fill="#FEFECE" filter="url(#f68b2hrl2crm6)" height="32" id="CRediT_Degree_of_Contribution" style="stroke:#A80036;stroke-width:1.5;" width="227" x="352.5" y="128.5"/><ellipse cx="367.5" cy="144.5" fill="#ADD1B2" rx="11" ry="11" style="stroke:#A80036;stroke-width:1.0;"/><path d="M370.4688,150.1406 Q369.8906,150.4375 369.25,150.5781 Q368.6094,150.7344 367.9063,150.7344 Q365.4063,150.7344 364.0781,149.0938 Q362.7656,147.4375 362.7656,144.3125 Q362.7656,141.1875 364.0781,139.5313 Q365.4063,137.875 367.9063,137.875 Q368.6094,137.875 369.25,138.0313 Q369.9063,138.1875 370.4688,138.4844 L370.4688,141.2031 Q369.8438,140.625 369.25,140.3594 Q368.6563,140.0781 368.0313,140.0781 Q366.6875,140.0781 366,141.1563 Q365.3125,142.2188 365.3125,144.3125 Q365.3125,146.4063 366,147.4844 Q366.6875,148.5469 368.0313,148.5469 Q368.6563,148.5469 369.25,148.2813 Q369.8438,148 370.4688,147.4219 L370.4688,150.1406 Z " fill="#000000"/><text fill="#000000" font-family="sans-serif" font-size="12" lengthAdjust="spacing" textLength="195" x="381.5" y="148.6543">CRediT_Degree_of_Contribution</text><!--MD5=[8d9b790276a1e6c61f0b091de629785c]
link Textual_Document to Document--><path codeLine="139" d="M151.74,39.13 C143.18,51.76 130.43,70.57 118.11,88.76 " fill="none" id="Textual_Document-to-Document" style="stroke:#A80036;stroke-width:1.0;"/><polygon fill="none" points="123.82,92.81,106.8,105.43,112.23,84.95,123.82,92.81" style="stroke:#A80036;stroke-width:1.0;"/><!--MD5=[c60a4b536c71b88487ebbf01e6b75384]
reverse link Textual_Document to Journal_Article--><path codeLine="90" d="M185.13,55.42 C194.93,68.72 206.52,84.46 217.18,98.93 " fill="none" id="Textual_Document-backto-Journal_Article" style="stroke:#A80036;stroke-width:1.0;"/><polygon fill="none" points="179.37,59.39,173.15,39.13,190.64,51.09,179.37,59.39" style="stroke:#A80036;stroke-width:1.0;"/><!--MD5=[88f40439064ff4845bc7e4cfd1a224e6]
reverse link Journal to Journal--><path codeLine="99" d="M350.9,286.91 C364.19,291.7 373,301.07 373,315 C373,333.01 358.27,343.39 338.18,346.14 " fill="none" id="Journal-backto-Journal" style="stroke:#A80036;stroke-width:1.0;"/><polygon fill="#FFFFFF" points="338.18,283.86,343.0831,289.1477,349.8498,286.6555,344.9468,281.3678,338.18,283.86" style="stroke:#A80036;stroke-width:1.0;"/><text fill="#000000" font-family="sans-serif" font-size="13" lengthAdjust="spacing" textLength="113" x="346.0922" y="344.5134">0..* predecessors</text><!--MD5=[a7ff7daa03c30e603ee3c4860dcf798f]
reverse link Journal_Article to Journal--><path codeLine="103" d="M250,203.5 C250,218.4 250,234.53 250,249.73 " fill="none" id="Journal_Article-backto-Journal" style="stroke:#A80036;stroke-width:1.0;"/><polygon fill="#FFFFFF" points="250,190.21,246,196.21,250,202.21,254,196.21,250,190.21" style="stroke:#A80036;stroke-width:1.0;"/><text fill="#000000" font-family="sans-serif" font-size="13" lengthAdjust="spacing" textLength="23" x="225.2391" y="210.4181">0..*</text><text fill="#000000" font-family="sans-serif" font-size="13" lengthAdjust="spacing" textLength="43" x="204.6484" y="238.865">source</text><!--MD5=[fd5d8cb6bc72986bd3560f3b69973f17]
link CRediT_Contribution_Statement to CRediT_Degree_of_Contribution--><path codeLine="113" d="M466,39.13 C466,60.5 466,99.57 466,123.36 " fill="none" id="CRediT_Contribution_Statement-to-CRediT_Degree_of_Contribution" style="stroke:#A80036;stroke-width:1.0;stroke-dasharray:7.0,7.0;"/><polygon fill="#A80036" points="466,128.49,470,119.49,466,123.49,462,119.49,466,128.49" style="stroke:#A80036;stroke-width:1.0;"/><text fill="#000000" font-family="sans-serif" font-size="13" lengthAdjust="spacing" textLength="137" x="305.4531" y="117.4982">degreeOfContribution</text><!--MD5=[5036e5545571bb619843fd2f9ac8d7de]
@startuml

    !includesub ../../CERIF-Core/diagrams/core.puml!common


    !includesub ../../CERIF-Core/diagrams/core.puml!Document


    !includesub ./module.puml!Journal

@enduml

@startuml

        hide empty members
        skinparam BoxPadding 120


        class "Document" #ffffff {
            DOI : DOI_Type
            title : Multilingual_String
            publicationDate : Date
        }
        class "Textual_Document" #ffffff {
        }
        "Document" <|-u- "Textual_Document"


        class "Journal" #00ff00{
            DOI : DOI_Type
            title : Multilingual_String
            ISSN : ISSN_Type
            eISSN : ISSN_Type
            acronym : Multilingual_String
            startDate : Date
            endDate : Date
        }

        class "Journal_Article" #00ff00{
            startPage : String
            endPage : String
            volume : String
            number : String
        }
        "Textual_Document" <|- - "Journal_Article"
        "Journal" o- - "0..* predecessors" "Journal"
        "Journal_Article" "0..*" o- - "source" "Journal"
        "CRediT_Contribution_Statement" ..> "degreeOfContribution" "CRediT_Degree_of_Contribution"

@enduml

PlantUML version 1.2021.8(Sat Jun 26 08:20:59 UTC 2021)
(GPL source distribution)
Java Runtime: OpenJDK Runtime Environment
JVM: OpenJDK 64-Bit Server VM
Default Encoding: UTF-8
Language: en
Country: null
--></g></svg>