<?xml version="1.0" encoding="UTF-8" standalone="no"?><svg xmlns="http://www.w3.org/2000/svg" xmlns:xlink="http://www.w3.org/1999/xlink" contentScriptType="application/ecmascript" contentStyleType="text/css" height="589px" preserveAspectRatio="none" style="width:456px;height:589px;background:#FFFFFF;" version="1.1" viewBox="0 0 456 589" width="456px" zoomAndPan="magnify"><defs><filter height="300%" id="f1eapstyptfiph" width="300%" x="-1" y="-1"><feGaussianBlur result="blurOut" stdDeviation="2.0"/><feColorMatrix in="blurOut" result="blurOut2" type="matrix" values="0 0 0 0 0 0 0 0 0 0 0 0 0 0 0 0 0 0 .4 0"/><feOffset dx="4.0" dy="4.0" in="blurOut2" result="blurOut3"/><feBlend in="SourceGraphic" in2="blurOut3" mode="normal"/></filter></defs><g><!--MD5=[59b530d44ae785dc18db921986a9c15c]
class Document--><rect codeLine="299" fill="#FFFFFF" filter="url(#f1eapstyptfiph)" height="65.6094" id="Document" style="stroke:#A80036;stroke-width:1.5;" width="148" x="35.5" y="7"/><ellipse cx="73.9" cy="23" fill="#ADD1B2" rx="11" ry="11" style="stroke:#A80036;stroke-width:1.0;"/><path d="M76.8688,28.6406 Q76.2906,28.9375 75.65,29.0781 Q75.0094,29.2344 74.3063,29.2344 Q71.8063,29.2344 70.4781,27.5938 Q69.1656,25.9375 69.1656,22.8125 Q69.1656,19.6875 70.4781,18.0313 Q71.8063,16.375 74.3063,16.375 Q75.0094,16.375 75.65,16.5313 Q76.3063,16.6875 76.8688,16.9844 L76.8688,19.7031 Q76.2438,19.125 75.65,18.8594 Q75.0563,18.5781 74.4313,18.5781 Q73.0875,18.5781 72.4,19.6563 Q71.7125,20.7188 71.7125,22.8125 Q71.7125,24.9063 72.4,25.9844 Q73.0875,27.0469 74.4313,27.0469 Q75.0563,27.0469 75.65,26.7813 Q76.2438,26.5 76.8688,25.9219 L76.8688,28.6406 Z " fill="#000000"/><text fill="#000000" font-family="sans-serif" font-size="12" lengthAdjust="spacing" textLength="64" x="93.1" y="27.1543">Document</text><line style="stroke:#A80036;stroke-width:1.5;" x1="36.5" x2="182.5" y1="39" y2="39"/><text fill="#000000" font-family="sans-serif" font-size="11" lengthAdjust="spacing" textLength="136" x="41.5" y="53.2104">title : Multilingual_String</text><text fill="#000000" font-family="sans-serif" font-size="11" lengthAdjust="spacing" textLength="125" x="41.5" y="66.0151">publicationDate : Date</text><!--MD5=[fe105c2ee1fabf2400c31a97ce9128bc]
class Textual_Document--><rect codeLine="306" fill="#FFFFFF" filter="url(#f1eapstyptfiph)" height="32" id="Textual_Document" style="stroke:#A80036;stroke-width:1.5;" width="147" x="7" y="167"/><ellipse cx="22" cy="183" fill="#ADD1B2" rx="11" ry="11" style="stroke:#A80036;stroke-width:1.0;"/><path d="M24.9688,188.6406 Q24.3906,188.9375 23.75,189.0781 Q23.1094,189.2344 22.4063,189.2344 Q19.9063,189.2344 18.5781,187.5938 Q17.2656,185.9375 17.2656,182.8125 Q17.2656,179.6875 18.5781,178.0313 Q19.9063,176.375 22.4063,176.375 Q23.1094,176.375 23.75,176.5313 Q24.4063,176.6875 24.9688,176.9844 L24.9688,179.7031 Q24.3438,179.125 23.75,178.8594 Q23.1563,178.5781 22.5313,178.5781 Q21.1875,178.5781 20.5,179.6563 Q19.8125,180.7188 19.8125,182.8125 Q19.8125,184.9063 20.5,185.9844 Q21.1875,187.0469 22.5313,187.0469 Q23.1563,187.0469 23.75,186.7813 Q24.3438,186.5 24.9688,185.9219 L24.9688,188.6406 Z " fill="#000000"/><text fill="#000000" font-family="sans-serif" font-size="12" lengthAdjust="spacing" textLength="115" x="36" y="187.1543">Textual_Document</text><!--MD5=[bcc382d868f32e5ce25faf6e44aed96d]
class Publication_Channel--><rect codeLine="315" fill="#FFFFFF" filter="url(#f1eapstyptfiph)" height="65.6094" id="Publication_Channel" style="stroke:#A80036;stroke-width:1.5;" width="176" x="189.5" y="150"/><ellipse cx="212.6" cy="166" fill="#ADD1B2" rx="11" ry="11" style="stroke:#A80036;stroke-width:1.0;"/><path d="M215.5688,171.6406 Q214.9906,171.9375 214.35,172.0781 Q213.7094,172.2344 213.0063,172.2344 Q210.5063,172.2344 209.1781,170.5938 Q207.8656,168.9375 207.8656,165.8125 Q207.8656,162.6875 209.1781,161.0313 Q210.5063,159.375 213.0063,159.375 Q213.7094,159.375 214.35,159.5313 Q215.0063,159.6875 215.5688,159.9844 L215.5688,162.7031 Q214.9438,162.125 214.35,161.8594 Q213.7563,161.5781 213.1313,161.5781 Q211.7875,161.5781 211.1,162.6563 Q210.4125,163.7188 210.4125,165.8125 Q210.4125,167.9063 211.1,168.9844 Q211.7875,170.0469 213.1313,170.0469 Q213.7563,170.0469 214.35,169.7813 Q214.9438,169.5 215.5688,168.9219 L215.5688,171.6406 Z " fill="#000000"/><text fill="#000000" font-family="sans-serif" font-size="12" lengthAdjust="spacing" textLength="126" x="228.4" y="170.1543">Publication_Channel</text><line style="stroke:#A80036;stroke-width:1.5;" x1="190.5" x2="364.5" y1="182" y2="182"/><text fill="#000000" font-family="sans-serif" font-size="11" lengthAdjust="spacing" textLength="136" x="195.5" y="196.2104">title : Multilingual_String</text><text fill="#000000" font-family="sans-serif" font-size="11" lengthAdjust="spacing" textLength="164" x="195.5" y="209.0151">acronym : Multilingual_String</text><!--MD5=[cee4b16e9c4c3b435207f3333dc7e3c1]
class Publication_Series--><rect codeLine="19" fill="#FFFFFF" filter="url(#f1eapstyptfiph)" height="65.6094" id="Publication_Series" style="stroke:#A80036;stroke-width:1.5;" width="146" x="204.5" y="277"/><ellipse cx="219.5" cy="293" fill="#ADD1B2" rx="11" ry="11" style="stroke:#A80036;stroke-width:1.0;"/><path d="M222.4688,298.6406 Q221.8906,298.9375 221.25,299.0781 Q220.6094,299.2344 219.9063,299.2344 Q217.4063,299.2344 216.0781,297.5938 Q214.7656,295.9375 214.7656,292.8125 Q214.7656,289.6875 216.0781,288.0313 Q217.4063,286.375 219.9063,286.375 Q220.6094,286.375 221.25,286.5313 Q221.9063,286.6875 222.4688,286.9844 L222.4688,289.7031 Q221.8438,289.125 221.25,288.8594 Q220.6563,288.5781 220.0313,288.5781 Q218.6875,288.5781 218,289.6563 Q217.3125,290.7188 217.3125,292.8125 Q217.3125,294.9063 218,295.9844 Q218.6875,297.0469 220.0313,297.0469 Q220.6563,297.0469 221.25,296.7813 Q221.8438,296.5 222.4688,295.9219 L222.4688,298.6406 Z " fill="#000000"/><text fill="#000000" font-family="sans-serif" font-size="12" lengthAdjust="spacing" textLength="114" x="233.5" y="297.1543">Publication_Series</text><line style="stroke:#A80036;stroke-width:1.5;" x1="205.5" x2="349.5" y1="309" y2="309"/><text fill="#000000" font-family="sans-serif" font-size="11" lengthAdjust="spacing" textLength="66" x="210.5" y="323.2104">ISSN : ISSN</text><text fill="#000000" font-family="sans-serif" font-size="11" lengthAdjust="spacing" textLength="73" x="210.5" y="336.0151">eISSN : ISSN</text><!--MD5=[9a5422ab15122c8d1cd75d14414799b8]
class Journal--><rect codeLine="28" fill="#DDEEDD" filter="url(#f1eapstyptfiph)" height="78.4141" id="Journal" style="stroke:#A80036;stroke-width:1.5;" width="103" x="226" y="404"/><ellipse cx="253.6" cy="420" fill="#ADD1B2" rx="11" ry="11" style="stroke:#A80036;stroke-width:1.0;"/><path d="M256.5688,425.6406 Q255.9906,425.9375 255.35,426.0781 Q254.7094,426.2344 254.0063,426.2344 Q251.5063,426.2344 250.1781,424.5938 Q248.8656,422.9375 248.8656,419.8125 Q248.8656,416.6875 250.1781,415.0313 Q251.5063,413.375 254.0063,413.375 Q254.7094,413.375 255.35,413.5313 Q256.0063,413.6875 256.5688,413.9844 L256.5688,416.7031 Q255.9438,416.125 255.35,415.8594 Q254.7563,415.5781 254.1313,415.5781 Q252.7875,415.5781 252.1,416.6563 Q251.4125,417.7188 251.4125,419.8125 Q251.4125,421.9063 252.1,422.9844 Q252.7875,424.0469 254.1313,424.0469 Q254.7563,424.0469 255.35,423.7813 Q255.9438,423.5 256.5688,422.9219 L256.5688,425.6406 Z " fill="#000000"/><text fill="#000000" font-family="sans-serif" font-size="12" lengthAdjust="spacing" textLength="43" x="270.4" y="424.1543">Journal</text><line style="stroke:#A80036;stroke-width:1.5;" x1="227" x2="328" y1="436" y2="436"/><text fill="#000000" font-family="sans-serif" font-size="11" lengthAdjust="spacing" textLength="52" x="232" y="450.2104">DOI : DOI</text><text fill="#000000" font-family="sans-serif" font-size="11" lengthAdjust="spacing" textLength="91" x="232" y="463.0151">startDate : Date</text><text fill="#000000" font-family="sans-serif" font-size="11" lengthAdjust="spacing" textLength="85" x="232" y="475.8198">endDate : Date</text><!--MD5=[9d44916250b776386006c440668bcfbb]
class Agent--><rect fill="#FEFECE" filter="url(#f1eapstyptfiph)" height="32" id="Agent" style="stroke:#A80036;stroke-width:1.5;" width="69" x="243" y="543"/><ellipse cx="258" cy="559" fill="#ADD1B2" rx="11" ry="11" style="stroke:#A80036;stroke-width:1.0;"/><path d="M260.9688,564.6406 Q260.3906,564.9375 259.75,565.0781 Q259.1094,565.2344 258.4063,565.2344 Q255.9063,565.2344 254.5781,563.5938 Q253.2656,561.9375 253.2656,558.8125 Q253.2656,555.6875 254.5781,554.0313 Q255.9063,552.375 258.4063,552.375 Q259.1094,552.375 259.75,552.5313 Q260.4063,552.6875 260.9688,552.9844 L260.9688,555.7031 Q260.3438,555.125 259.75,554.8594 Q259.1563,554.5781 258.5313,554.5781 Q257.1875,554.5781 256.5,555.6563 Q255.8125,556.7188 255.8125,558.8125 Q255.8125,560.9063 256.5,561.9844 Q257.1875,563.0469 258.5313,563.0469 Q259.1563,563.0469 259.75,562.7813 Q260.3438,562.5 260.9688,561.9219 L260.9688,564.6406 Z " fill="#000000"/><text fill="#000000" font-family="sans-serif" font-size="12" lengthAdjust="spacing" textLength="37" x="272" y="563.1543">Agent</text><!--MD5=[67ceb885199ca7e1fa058287d8756a2e]
reverse link Document to Textual_Document--><path codeLine="311" d="M98.75,93.24 C93.38,119.39 87.26,149.14 83.65,166.7 " fill="none" id="Document-backto-Textual_Document" style="stroke:#A80036;stroke-width:1.0;"/><polygon fill="none" points="91.96,91.53,102.85,73.35,105.67,94.35,91.96,91.53" style="stroke:#A80036;stroke-width:1.0;"/><!--MD5=[3e969255208de71f7bfccf2b9540bd27]
link Document to Publication_Channel--><path codeLine="320" d="M148.04,73.35 C174.08,95.2 208.46,124.05 235.24,146.53 " fill="none" id="Document-to-Publication_Channel" style="stroke:#A80036;stroke-width:1.0;"/><polygon fill="#A80036" points="239.14,149.8,234.8191,140.9496,235.3106,146.585,229.6752,147.0766,239.14,149.8" style="stroke:#A80036;stroke-width:1.0;"/><polygon fill="#000000" points="212.33,114.7806,207.2907,106.7148,203.5122,111.2173,212.33,114.7806" style="stroke:#000000;stroke-width:1.0;"/><text fill="#000000" font-family="sans-serif" font-size="13" lengthAdjust="spacing" textLength="137" x="217.5" y="116.0669">published via channel</text><text fill="#000000" font-family="sans-serif" font-size="13" lengthAdjust="spacing" textLength="24" x="205.2254" y="138.9056">0..1</text><!--MD5=[a68abcec40f40f5cbbbda0c1525bfe1a]
reverse link Publication_Channel to Publication_Series--><path codeLine="24" d="M277.5,236.25 C277.5,250.05 277.5,264.54 277.5,276.92 " fill="none" id="Publication_Channel-backto-Publication_Series" style="stroke:#A80036;stroke-width:1.0;"/><polygon fill="none" points="270.5,236.19,277.5,216.19,284.5,236.19,270.5,236.19" style="stroke:#A80036;stroke-width:1.0;"/><!--MD5=[82e06a9ab4eb01586ad4d1c674f71186]
reverse link Publication_Series to Journal--><path codeLine="34" d="M277.5,363.29 C277.5,376.81 277.5,391.11 277.5,403.76 " fill="none" id="Publication_Series-backto-Journal" style="stroke:#A80036;stroke-width:1.0;"/><polygon fill="none" points="270.5,363.05,277.5,343.05,284.5,363.05,270.5,363.05" style="stroke:#A80036;stroke-width:1.0;"/><!--MD5=[88f40439064ff4845bc7e4cfd1a224e6]
reverse link Journal to Journal--><path codeLine="157" d="M342.18,430.79 C354.93,432.19 364,436.26 364,443 C364,451.9 348.2,456.14 329.01,455.72 " fill="none" id="Journal-backto-Journal" style="stroke:#A80036;stroke-width:1.0;"/><polygon fill="#FFFFFF" points="329.01,430.28,334.8517,434.5079,341.0011,430.7417,335.1595,426.5138,329.01,430.28" style="stroke:#A80036;stroke-width:1.0;"/><text fill="#000000" font-family="sans-serif" font-size="13" lengthAdjust="spacing" textLength="113" x="336.942" y="453.1599">0..* predecessors</text><!--MD5=[a0fe4bcc2e634d581797c23ae087e232]
reverse link Journal to Agent--><path codeLine="160" d="M277.5,495.5 C277.5,512.7 277.5,530.57 277.5,542.77 " fill="none" id="Journal-backto-Agent" style="stroke:#A80036;stroke-width:1.0;"/><polygon fill="#FFFFFF" points="277.5,482.28,273.5,488.28,277.5,494.28,281.5,488.28,277.5,482.28" style="stroke:#A80036;stroke-width:1.0;"/><text fill="#000000" font-family="sans-serif" font-size="13" lengthAdjust="spacing" textLength="92" x="170.2625" y="531.9983">0..* publishers</text><!--MD5=[949412f4f29081b1b7be21016d20e738]
@startuml

    !includesub ../../CERIF-Core/diagrams/core.puml!common

    !includesub ../../CERIF-Core/diagrams/core.puml!Document
    !includesub ../../CERIF-Core/diagrams/core.puml!Textual_Document


    !includesub ../../CERIF-Core/diagrams/core.puml!Publication_Channel
    !includesub ./module.puml!Publication_Series
    !includesub ./module.puml!Journal

@enduml

@startuml

    hide empty members
    skinparam BoxPadding 120

    class "Document" #ffffff {
        title : Multilingual_String
        publicationDate : Date
    }
    class "Textual_Document" #ffffff {
    }
    "Document" <|- - "Textual_Document"


    class "Publication_Channel" #ffffff {
        title : Multilingual_String
        acronym : Multilingual_String
    }

    "Document" - -> "0..1" "Publication_Channel" : published via channel >

        class "Publication_Series" #ffffff {
            ISSN : ISSN
            eISSN : ISSN
        }

        "Publication_Channel" <|- - "Publication_Series"
        class "Journal" #ddeedd {
            DOI : DOI
            startDate : Date
            endDate : Date
        }

        "Publication_Series" <|- - "Journal"

        "Journal" o- - "0..* predecessors" "Journal"
        "Journal" o- -  "0..* publishers" "Agent"

@enduml

PlantUML version 1.2021.8(Sat Jun 26 08:20:59 UTC 2021)
(GPL source distribution)
Java Runtime: OpenJDK Runtime Environment
JVM: OpenJDK 64-Bit Server VM
Default Encoding: UTF-8
Language: en
Country: null
--></g></svg>