<?xml version="1.0" encoding="UTF-8" standalone="no"?><svg xmlns="http://www.w3.org/2000/svg" xmlns:xlink="http://www.w3.org/1999/xlink" contentScriptType="application/ecmascript" contentStyleType="text/css" height="427px" preserveAspectRatio="none" style="width:455px;height:427px;background:#FFFFFF;" version="1.1" viewBox="0 0 455 427" width="455px" zoomAndPan="magnify"><defs><filter height="300%" id="facquwkdx5s9u" width="300%" x="-1" y="-1"><feGaussianBlur result="blurOut" stdDeviation="2.0"/><feColorMatrix in="blurOut" result="blurOut2" type="matrix" values="0 0 0 0 0 0 0 0 0 0 0 0 0 0 0 0 0 0 .4 0"/><feOffset dx="4.0" dy="4.0" in="blurOut2" result="blurOut3"/><feBlend in="SourceGraphic" in2="blurOut3" mode="normal"/></filter></defs><g><!--MD5=[0ce99cd3eae675f87caad727cac20a4b]
cluster CERIF core--><polygon fill="#EFEFEF" filter="url(#facquwkdx5s9u)" points="16,6,106,6,113,28.2969,196,28.2969,196,233.5,16,233.5,16,6" style="stroke:#000000;stroke-width:1.5;"/><line style="stroke:#000000;stroke-width:1.5;" x1="16" x2="113" y1="28.2969" y2="28.2969"/><text fill="#000000" font-family="sans-serif" font-size="14" font-weight="bold" lengthAdjust="spacing" textLength="84" x="20" y="20.9951">CERIF core</text><!--MD5=[59b530d44ae785dc18db921986a9c15c]
class Document--><rect codeLine="7" fill="#FEFECE" filter="url(#facquwkdx5s9u)" height="78.4141" id="Document" style="stroke:#A80036;stroke-width:1.5;" width="148" x="32" y="139.5"/><ellipse cx="70.4" cy="155.5" fill="#ADD1B2" rx="11" ry="11" style="stroke:#A80036;stroke-width:1.0;"/><path d="M73.3688,161.1406 Q72.7906,161.4375 72.15,161.5781 Q71.5094,161.7344 70.8063,161.7344 Q68.3063,161.7344 66.9781,160.0938 Q65.6656,158.4375 65.6656,155.3125 Q65.6656,152.1875 66.9781,150.5313 Q68.3063,148.875 70.8063,148.875 Q71.5094,148.875 72.15,149.0313 Q72.8063,149.1875 73.3688,149.4844 L73.3688,152.2031 Q72.7438,151.625 72.15,151.3594 Q71.5563,151.0781 70.9313,151.0781 Q69.5875,151.0781 68.9,152.1563 Q68.2125,153.2188 68.2125,155.3125 Q68.2125,157.4063 68.9,158.4844 Q69.5875,159.5469 70.9313,159.5469 Q71.5563,159.5469 72.15,159.2813 Q72.7438,159 73.3688,158.4219 L73.3688,161.1406 Z " fill="#000000"/><text fill="#000000" font-family="sans-serif" font-size="12" lengthAdjust="spacing" textLength="64" x="89.6" y="159.6543">Document</text><line style="stroke:#A80036;stroke-width:1.5;" x1="33" x2="179" y1="171.5" y2="171.5"/><text fill="#000000" font-family="sans-serif" font-size="11" lengthAdjust="spacing" textLength="136" x="38" y="185.7104">title : Multilingual_String</text><text fill="#000000" font-family="sans-serif" font-size="11" lengthAdjust="spacing" textLength="125" x="38" y="198.5151">publicationDate : Date</text><text fill="#000000" font-family="sans-serif" font-size="11" lengthAdjust="spacing" textLength="85" x="38" y="211.3198">DOI : DOI_Type</text><!--MD5=[406eabaf9672e74804bc505a9777bf8f]
class Textual Document--><rect codeLine="12" fill="#FEFECE" filter="url(#facquwkdx5s9u)" height="32" id="Textual Document" style="stroke:#A80036;stroke-width:1.5;" width="145" x="33.5" y="41"/><ellipse cx="48.5" cy="57" fill="#ADD1B2" rx="11" ry="11" style="stroke:#A80036;stroke-width:1.0;"/><path d="M51.4688,62.6406 Q50.8906,62.9375 50.25,63.0781 Q49.6094,63.2344 48.9063,63.2344 Q46.4063,63.2344 45.0781,61.5938 Q43.7656,59.9375 43.7656,56.8125 Q43.7656,53.6875 45.0781,52.0313 Q46.4063,50.375 48.9063,50.375 Q49.6094,50.375 50.25,50.5313 Q50.9063,50.6875 51.4688,50.9844 L51.4688,53.7031 Q50.8438,53.125 50.25,52.8594 Q49.6563,52.5781 49.0313,52.5781 Q47.6875,52.5781 47,53.6563 Q46.3125,54.7188 46.3125,56.8125 Q46.3125,58.9063 47,59.9844 Q47.6875,61.0469 49.0313,61.0469 Q49.6563,61.0469 50.25,60.7813 Q50.8438,60.5 51.4688,59.9219 L51.4688,62.6406 Z " fill="#000000"/><text fill="#000000" font-family="sans-serif" font-size="12" lengthAdjust="spacing" textLength="113" x="62.5" y="61.1543">Textual Document</text><!--MD5=[9a5422ab15122c8d1cd75d14414799b8]
class Journal--><rect codeLine="22" fill="#FEFECE" filter="url(#facquwkdx5s9u)" height="129.6328" id="Journal" style="stroke:#A80036;stroke-width:1.5;" width="176" x="186" y="284"/><ellipse cx="248.25" cy="300" fill="#ADD1B2" rx="11" ry="11" style="stroke:#A80036;stroke-width:1.0;"/><path d="M251.2188,305.6406 Q250.6406,305.9375 250,306.0781 Q249.3594,306.2344 248.6563,306.2344 Q246.1563,306.2344 244.8281,304.5938 Q243.5156,302.9375 243.5156,299.8125 Q243.5156,296.6875 244.8281,295.0313 Q246.1563,293.375 248.6563,293.375 Q249.3594,293.375 250,293.5313 Q250.6563,293.6875 251.2188,293.9844 L251.2188,296.7031 Q250.5938,296.125 250,295.8594 Q249.4063,295.5781 248.7813,295.5781 Q247.4375,295.5781 246.75,296.6563 Q246.0625,297.7188 246.0625,299.8125 Q246.0625,301.9063 246.75,302.9844 Q247.4375,304.0469 248.7813,304.0469 Q249.4063,304.0469 250,303.7813 Q250.5938,303.5 251.2188,302.9219 L251.2188,305.6406 Z " fill="#000000"/><text fill="#000000" font-family="sans-serif" font-size="12" lengthAdjust="spacing" textLength="43" x="268.75" y="304.1543">Journal</text><line style="stroke:#A80036;stroke-width:1.5;" x1="187" x2="361" y1="316" y2="316"/><text fill="#000000" font-family="sans-serif" font-size="11" lengthAdjust="spacing" textLength="136" x="192" y="330.2104">title : Multilingual_String</text><text fill="#000000" font-family="sans-serif" font-size="11" lengthAdjust="spacing" textLength="164" x="192" y="343.0151">acronym : Multilingual_String</text><text fill="#000000" font-family="sans-serif" font-size="11" lengthAdjust="spacing" textLength="99" x="192" y="355.8198">ISSN : ISSN_Type</text><text fill="#000000" font-family="sans-serif" font-size="11" lengthAdjust="spacing" textLength="106" x="192" y="368.6245">eISSN : ISSN_Type</text><text fill="#000000" font-family="sans-serif" font-size="11" lengthAdjust="spacing" textLength="91" x="192" y="381.4292">startDate : Date</text><text fill="#000000" font-family="sans-serif" font-size="11" lengthAdjust="spacing" textLength="85" x="192" y="394.2339">endDate : Date</text><text fill="#000000" font-family="sans-serif" font-size="11" lengthAdjust="spacing" textLength="85" x="192" y="407.0386">DOI : DOI_Type</text><!--MD5=[12beecba4e2542e38d138122c6256afd]
class Journal Article--><rect codeLine="31" fill="#FEFECE" filter="url(#facquwkdx5s9u)" height="91.2188" id="Journal Article" style="stroke:#A80036;stroke-width:1.5;" width="118" x="215" y="133"/><ellipse cx="230" cy="149" fill="#ADD1B2" rx="11" ry="11" style="stroke:#A80036;stroke-width:1.0;"/><path d="M232.9688,154.6406 Q232.3906,154.9375 231.75,155.0781 Q231.1094,155.2344 230.4063,155.2344 Q227.9063,155.2344 226.5781,153.5938 Q225.2656,151.9375 225.2656,148.8125 Q225.2656,145.6875 226.5781,144.0313 Q227.9063,142.375 230.4063,142.375 Q231.1094,142.375 231.75,142.5313 Q232.4063,142.6875 232.9688,142.9844 L232.9688,145.7031 Q232.3438,145.125 231.75,144.8594 Q231.1563,144.5781 230.5313,144.5781 Q229.1875,144.5781 228.5,145.6563 Q227.8125,146.7188 227.8125,148.8125 Q227.8125,150.9063 228.5,151.9844 Q229.1875,153.0469 230.5313,153.0469 Q231.1563,153.0469 231.75,152.7813 Q232.3438,152.5 232.9688,151.9219 L232.9688,154.6406 Z " fill="#000000"/><text fill="#000000" font-family="sans-serif" font-size="12" lengthAdjust="spacing" textLength="86" x="244" y="153.1543">Journal Article</text><line style="stroke:#A80036;stroke-width:1.5;" x1="216" x2="332" y1="165" y2="165"/><text fill="#000000" font-family="sans-serif" font-size="11" lengthAdjust="spacing" textLength="101" x="221" y="179.2104">startPage : String</text><text fill="#000000" font-family="sans-serif" font-size="11" lengthAdjust="spacing" textLength="95" x="221" y="192.0151">endPage : String</text><text fill="#000000" font-family="sans-serif" font-size="11" lengthAdjust="spacing" textLength="87" x="221" y="204.8198">volume : String</text><text fill="#000000" font-family="sans-serif" font-size="11" lengthAdjust="spacing" textLength="77" x="221" y="217.6245">issue : String</text><!--MD5=[0cd4e18d651655357be10210466ee4fc]
link Textual Document to Document--><path codeLine="84" d="M106,73.13 C106,84.99 106,102.28 106,119.4 " fill="none" id="Textual Document-to-Document" style="stroke:#A80036;stroke-width:1.0;"/><polygon fill="none" points="113,119.43,106,139.43,99,119.43,113,119.43" style="stroke:#A80036;stroke-width:1.0;"/><!--MD5=[23379735e4fd57b5872021efc15730e6]
reverse link Textual Document to Journal Article--><path codeLine="91" d="M143.67,84.8 C164.57,99.66 191.05,118.5 214.67,135.3 " fill="none" id="Textual Document-backto-Journal Article" style="stroke:#A80036;stroke-width:1.0;"/><polygon fill="none" points="139.52,90.43,127.28,73.13,147.63,79.02,139.52,90.43" style="stroke:#A80036;stroke-width:1.0;"/><!--MD5=[88f40439064ff4845bc7e4cfd1a224e6]
reverse link Journal to Journal--><path codeLine="100" d="M374.9,320.91 C388.19,325.7 397,335.07 397,349 C397,367.01 382.27,377.39 362.18,380.14 " fill="none" id="Journal-backto-Journal" style="stroke:#A80036;stroke-width:1.0;"/><polygon fill="#FFFFFF" points="362.18,317.86,367.0831,323.1477,373.8498,320.6555,368.9468,315.3678,362.18,317.86" style="stroke:#A80036;stroke-width:1.0;"/><text fill="#000000" font-family="sans-serif" font-size="13" lengthAdjust="spacing" textLength="79" x="369.9605" y="378.6627">predecessor</text><!--MD5=[8f91533f5c9c0fef1c133cd91b94eb09]
reverse link Journal Article to Journal--><path codeLine="104" d="M274,237.5 C274,252.4 274,268.53 274,283.73 " fill="none" id="Journal Article-backto-Journal" style="stroke:#A80036;stroke-width:1.0;"/><polygon fill="#FFFFFF" points="274,224.21,270,230.21,274,236.21,278,230.21,274,224.21" style="stroke:#A80036;stroke-width:1.0;"/><text fill="#000000" font-family="sans-serif" font-size="13" lengthAdjust="spacing" textLength="43" x="228.6484" y="272.865">source</text><!--MD5=[f21bcc87b18999e4355f3c4576606ad6]
@startuml

!includesub core.puml!common

package "CERIF core" #EFEFEF{
    !includesub ./core.puml!Document
}

!includesub ./module.puml!Journal

@enduml

@startuml

    	hide empty members

package "CERIF core" #EFEFEF{
    class "Document"{
        title : Multilingual_String
        publicationDate : Date
        DOI : DOI_Type
    }
    class "Textual Document"{
    }
    "Document" <|-u- "Textual Document"
}

    class "Journal"{
        title : Multilingual_String
        acronym : Multilingual_String
        ISSN : ISSN_Type
        eISSN : ISSN_Type
        startDate : Date
        endDate : Date
        DOI : DOI_Type
    }
    class "Journal Article"{
        startPage : String
        endPage : String
        volume : String
        issue : String
    }
    "Textual Document" <|- - "Journal Article"
    "Journal" o- - "predecessor" "Journal"
    "Journal Article" o- - "source" "Journal"

@enduml

PlantUML version 1.2021.8(Sat Jun 26 08:20:59 UTC 2021)
(GPL source distribution)
Java Runtime: OpenJDK Runtime Environment
JVM: OpenJDK 64-Bit Server VM
Default Encoding: UTF-8
Language: en
Country: null
--></g></svg>