<?xml version="1.0" encoding="UTF-8" standalone="no"?><svg xmlns="http://www.w3.org/2000/svg" xmlns:xlink="http://www.w3.org/1999/xlink" contentScriptType="application/ecmascript" contentStyleType="text/css" height="439px" preserveAspectRatio="none" style="width:448px;height:439px;background:#FFFFFF;" version="1.1" viewBox="0 0 448 439" width="448px" zoomAndPan="magnify"><defs><filter height="300%" id="f1aj0urjcy5dn8" width="300%" x="-1" y="-1"><feGaussianBlur result="blurOut" stdDeviation="2.0"/><feColorMatrix in="blurOut" result="blurOut2" type="matrix" values="0 0 0 0 0 0 0 0 0 0 0 0 0 0 0 0 0 0 .4 0"/><feOffset dx="4.0" dy="4.0" in="blurOut2" result="blurOut3"/><feBlend in="SourceGraphic" in2="blurOut3" mode="normal"/></filter></defs><g><!--MD5=[0ce99cd3eae675f87caad727cac20a4b]
cluster CERIF core--><polygon fill="#EFEFEF" filter="url(#f1aj0urjcy5dn8)" points="16,6,100,6,107,29.6094,184,29.6094,184,238.5,16,238.5,16,6" style="stroke:#000000;stroke-width:1.5;"/><line style="stroke:#000000;stroke-width:1.5;" x1="16" x2="107" y1="29.6094" y2="29.6094"/><text fill="#000000" font-family="sans-serif" font-size="14" font-weight="bold" lengthAdjust="spacing" textLength="78" x="20" y="22.5332">CERIF core</text><!--MD5=[59b530d44ae785dc18db921986a9c15c]
class Document--><rect codeLine="7" fill="#FEFECE" filter="url(#f1aj0urjcy5dn8)" height="81.5078" id="Document" style="stroke:#A80036;stroke-width:1.5;" width="122" x="39" y="140.5"/><ellipse cx="68.85" cy="156.5" fill="#ADD1B2" rx="11" ry="11" style="stroke:#A80036;stroke-width:1.0;"/><path d="M71.6156,152.375 Q71.7719,152.1563 71.9594,152.0469 Q72.1469,151.9375 72.3656,151.9375 Q72.7406,151.9375 72.975,152.1953 Q73.2094,152.4531 73.2094,153.0625 L73.2094,154.5156 Q73.2094,155.125 72.975,155.3906 Q72.7406,155.6563 72.3656,155.6563 Q72.0219,155.6563 71.8188,155.4531 Q71.6156,155.2656 71.5063,154.75 Q71.4594,154.3906 71.2719,154.2031 Q70.9438,153.8281 70.3344,153.6094 Q69.725,153.3906 69.1,153.3906 Q68.3344,153.3906 67.7016,153.7188 Q67.0688,154.0469 66.5766,154.7969 Q66.0844,155.5469 66.0844,156.5781 L66.0844,157.6719 Q66.0844,158.9063 66.975,159.7266 Q67.8656,160.5469 69.4594,160.5469 Q70.3969,160.5469 71.0531,160.2969 Q71.4438,160.1406 71.8656,159.7031 Q72.1313,159.4375 72.2797,159.3594 Q72.4281,159.2813 72.6313,159.2813 Q72.9594,159.2813 73.2172,159.5391 Q73.475,159.7969 73.475,160.1406 Q73.475,160.4844 73.1313,160.8906 Q72.6313,161.4688 71.8344,161.7969 Q70.7563,162.25 69.4594,162.25 Q67.9438,162.25 66.7406,161.625 Q65.7563,161.125 65.0688,160.0547 Q64.3813,158.9844 64.3813,157.7031 L64.3813,156.5469 Q64.3813,155.2188 64.9984,154.0703 Q65.6156,152.9219 66.7094,152.3047 Q67.8031,151.6875 69.0375,151.6875 Q69.7719,151.6875 70.4203,151.8516 Q71.0688,152.0156 71.6156,152.375 Z " fill="#000000"/><text fill="#000000" font-family="sans-serif" font-size="12" lengthAdjust="spacing" textLength="57" x="86.15" y="161.4102">Document</text><line style="stroke:#A80036;stroke-width:1.5;" x1="40" x2="160" y1="172.5" y2="172.5"/><text fill="#000000" font-family="sans-serif" font-size="11" lengthAdjust="spacing" textLength="73" x="45" y="187.9189">DOI : DOI_Type</text><text fill="#000000" font-family="sans-serif" font-size="11" lengthAdjust="spacing" textLength="110" x="45" y="201.7549">title : Multilingual_String</text><text fill="#000000" font-family="sans-serif" font-size="11" lengthAdjust="spacing" textLength="104" x="45" y="215.5908">publicationDate : Date</text><!--MD5=[fe105c2ee1fabf2400c31a97ce9128bc]
class Textual_Document--><rect codeLine="12" fill="#FEFECE" filter="url(#f1aj0urjcy5dn8)" height="32" id="Textual_Document" style="stroke:#A80036;stroke-width:1.5;" width="135" x="32.5" y="42"/><ellipse cx="47.5" cy="58" fill="#ADD1B2" rx="11" ry="11" style="stroke:#A80036;stroke-width:1.0;"/><path d="M50.2656,53.875 Q50.4219,53.6563 50.6094,53.5469 Q50.7969,53.4375 51.0156,53.4375 Q51.3906,53.4375 51.625,53.6953 Q51.8594,53.9531 51.8594,54.5625 L51.8594,56.0156 Q51.8594,56.625 51.625,56.8906 Q51.3906,57.1563 51.0156,57.1563 Q50.6719,57.1563 50.4688,56.9531 Q50.2656,56.7656 50.1563,56.25 Q50.1094,55.8906 49.9219,55.7031 Q49.5938,55.3281 48.9844,55.1094 Q48.375,54.8906 47.75,54.8906 Q46.9844,54.8906 46.3516,55.2188 Q45.7188,55.5469 45.2266,56.2969 Q44.7344,57.0469 44.7344,58.0781 L44.7344,59.1719 Q44.7344,60.4063 45.625,61.2266 Q46.5156,62.0469 48.1094,62.0469 Q49.0469,62.0469 49.7031,61.7969 Q50.0938,61.6406 50.5156,61.2031 Q50.7813,60.9375 50.9297,60.8594 Q51.0781,60.7813 51.2813,60.7813 Q51.6094,60.7813 51.8672,61.0391 Q52.125,61.2969 52.125,61.6406 Q52.125,61.9844 51.7813,62.3906 Q51.2813,62.9688 50.4844,63.2969 Q49.4063,63.75 48.1094,63.75 Q46.5938,63.75 45.3906,63.125 Q44.4063,62.625 43.7188,61.5547 Q43.0313,60.4844 43.0313,59.2031 L43.0313,58.0469 Q43.0313,56.7188 43.6484,55.5703 Q44.2656,54.4219 45.3594,53.8047 Q46.4531,53.1875 47.6875,53.1875 Q48.4219,53.1875 49.0703,53.3516 Q49.7188,53.5156 50.2656,53.875 Z " fill="#000000"/><text fill="#000000" font-family="sans-serif" font-size="12" lengthAdjust="spacing" textLength="103" x="61.5" y="62.9102">Textual_Document</text><!--MD5=[9a5422ab15122c8d1cd75d14414799b8]
class Journal--><rect codeLine="22" fill="#FEFECE" filter="url(#f1aj0urjcy5dn8)" height="136.8516" id="Journal" style="stroke:#A80036;stroke-width:1.5;" width="148" x="183" y="289"/><ellipse cx="232.25" cy="305" fill="#ADD1B2" rx="11" ry="11" style="stroke:#A80036;stroke-width:1.0;"/><path d="M235.0156,300.875 Q235.1719,300.6563 235.3594,300.5469 Q235.5469,300.4375 235.7656,300.4375 Q236.1406,300.4375 236.375,300.6953 Q236.6094,300.9531 236.6094,301.5625 L236.6094,303.0156 Q236.6094,303.625 236.375,303.8906 Q236.1406,304.1563 235.7656,304.1563 Q235.4219,304.1563 235.2188,303.9531 Q235.0156,303.7656 234.9063,303.25 Q234.8594,302.8906 234.6719,302.7031 Q234.3438,302.3281 233.7344,302.1094 Q233.125,301.8906 232.5,301.8906 Q231.7344,301.8906 231.1016,302.2188 Q230.4688,302.5469 229.9766,303.2969 Q229.4844,304.0469 229.4844,305.0781 L229.4844,306.1719 Q229.4844,307.4063 230.375,308.2266 Q231.2656,309.0469 232.8594,309.0469 Q233.7969,309.0469 234.4531,308.7969 Q234.8438,308.6406 235.2656,308.2031 Q235.5313,307.9375 235.6797,307.8594 Q235.8281,307.7813 236.0313,307.7813 Q236.3594,307.7813 236.6172,308.0391 Q236.875,308.2969 236.875,308.6406 Q236.875,308.9844 236.5313,309.3906 Q236.0313,309.9688 235.2344,310.2969 Q234.1563,310.75 232.8594,310.75 Q231.3438,310.75 230.1406,310.125 Q229.1563,309.625 228.4688,308.5547 Q227.7813,307.4844 227.7813,306.2031 L227.7813,305.0469 Q227.7813,303.7188 228.3984,302.5703 Q229.0156,301.4219 230.1094,300.8047 Q231.2031,300.1875 232.4375,300.1875 Q233.1719,300.1875 233.8203,300.3516 Q234.4688,300.5156 235.0156,300.875 Z " fill="#000000"/><text fill="#000000" font-family="sans-serif" font-size="12" lengthAdjust="spacing" textLength="41" x="252.75" y="309.9102">Journal</text><line style="stroke:#A80036;stroke-width:1.5;" x1="184" x2="330" y1="321" y2="321"/><text fill="#000000" font-family="sans-serif" font-size="11" lengthAdjust="spacing" textLength="73" x="189" y="336.4189">DOI : DOI_Type</text><text fill="#000000" font-family="sans-serif" font-size="11" lengthAdjust="spacing" textLength="110" x="189" y="350.2549">title : Multilingual_String</text><text fill="#000000" font-family="sans-serif" font-size="11" lengthAdjust="spacing" textLength="85" x="189" y="364.0908">ISSN : ISSN_Type</text><text fill="#000000" font-family="sans-serif" font-size="11" lengthAdjust="spacing" textLength="91" x="189" y="377.9268">eISSN : ISSN_Type</text><text fill="#000000" font-family="sans-serif" font-size="11" lengthAdjust="spacing" textLength="136" x="189" y="391.7627">acronym : Multilingual_String</text><text fill="#000000" font-family="sans-serif" font-size="11" lengthAdjust="spacing" textLength="75" x="189" y="405.5986">startDate : Date</text><text fill="#000000" font-family="sans-serif" font-size="11" lengthAdjust="spacing" textLength="71" x="189" y="419.4346">endDate : Date</text><!--MD5=[6187a6e1e3f43e4e2525b450325f9ab5]
class Journal_Article--><rect codeLine="32" fill="#FEFECE" filter="url(#f1aj0urjcy5dn8)" height="95.3438" id="Journal_Article" style="stroke:#A80036;stroke-width:1.5;" width="113" x="200.5" y="134"/><ellipse cx="215.5" cy="150" fill="#ADD1B2" rx="11" ry="11" style="stroke:#A80036;stroke-width:1.0;"/><path d="M218.2656,145.875 Q218.4219,145.6563 218.6094,145.5469 Q218.7969,145.4375 219.0156,145.4375 Q219.3906,145.4375 219.625,145.6953 Q219.8594,145.9531 219.8594,146.5625 L219.8594,148.0156 Q219.8594,148.625 219.625,148.8906 Q219.3906,149.1563 219.0156,149.1563 Q218.6719,149.1563 218.4688,148.9531 Q218.2656,148.7656 218.1563,148.25 Q218.1094,147.8906 217.9219,147.7031 Q217.5938,147.3281 216.9844,147.1094 Q216.375,146.8906 215.75,146.8906 Q214.9844,146.8906 214.3516,147.2188 Q213.7188,147.5469 213.2266,148.2969 Q212.7344,149.0469 212.7344,150.0781 L212.7344,151.1719 Q212.7344,152.4063 213.625,153.2266 Q214.5156,154.0469 216.1094,154.0469 Q217.0469,154.0469 217.7031,153.7969 Q218.0938,153.6406 218.5156,153.2031 Q218.7813,152.9375 218.9297,152.8594 Q219.0781,152.7813 219.2813,152.7813 Q219.6094,152.7813 219.8672,153.0391 Q220.125,153.2969 220.125,153.6406 Q220.125,153.9844 219.7813,154.3906 Q219.2813,154.9688 218.4844,155.2969 Q217.4063,155.75 216.1094,155.75 Q214.5938,155.75 213.3906,155.125 Q212.4063,154.625 211.7188,153.5547 Q211.0313,152.4844 211.0313,151.2031 L211.0313,150.0469 Q211.0313,148.7188 211.6484,147.5703 Q212.2656,146.4219 213.3594,145.8047 Q214.4531,145.1875 215.6875,145.1875 Q216.4219,145.1875 217.0703,145.3516 Q217.7188,145.5156 218.2656,145.875 Z " fill="#000000"/><text fill="#000000" font-family="sans-serif" font-size="12" lengthAdjust="spacing" textLength="81" x="229.5" y="154.9102">Journal_Article</text><line style="stroke:#A80036;stroke-width:1.5;" x1="201.5" x2="312.5" y1="166" y2="166"/><text fill="#000000" font-family="sans-serif" font-size="11" lengthAdjust="spacing" textLength="83" x="206.5" y="181.4189">startPage : String</text><text fill="#000000" font-family="sans-serif" font-size="11" lengthAdjust="spacing" textLength="79" x="206.5" y="195.2549">endPage : String</text><text fill="#000000" font-family="sans-serif" font-size="11" lengthAdjust="spacing" textLength="71" x="206.5" y="209.0908">volume : String</text><text fill="#000000" font-family="sans-serif" font-size="11" lengthAdjust="spacing" textLength="73" x="206.5" y="222.9268">number : String</text><!--MD5=[8d9b790276a1e6c61f0b091de629785c]
link Textual_Document to Document--><path codeLine="88" d="M100,74.39 C100,86.21 100,103.36 100,120.43 " fill="none" id="Textual_Document-to-Document" style="stroke:#A80036;stroke-width:1.0;"/><polygon fill="none" points="107,120.49,100,140.49,93,120.49,107,120.49" style="stroke:#A80036;stroke-width:1.0;"/><!--MD5=[c60a4b536c71b88487ebbf01e6b75384]
reverse link Textual_Document to Journal_Article--><path codeLine="92" d="M135.53,86.49 C154.64,101.28 178.66,119.87 200.29,136.61 " fill="none" id="Textual_Document-backto-Journal_Article" style="stroke:#A80036;stroke-width:1.0;"/><polygon fill="none" points="131.1,91.92,119.57,74.14,139.67,80.85,131.1,91.92" style="stroke:#A80036;stroke-width:1.0;"/><!--MD5=[88f40439064ff4845bc7e4cfd1a224e6]
reverse link Journal to Journal--><path codeLine="101" d="M344.15,327.53 C357.18,332.18 366,342.17 366,357.5 C366,377.52 350.95,388.43 331.13,390.23 " fill="none" id="Journal-backto-Journal" style="stroke:#A80036;stroke-width:1.0;"/><polygon fill="#FFFFFF" points="331.13,324.77,336.1682,329.9291,342.8682,327.2627,337.83,322.1036,331.13,324.77" style="stroke:#A80036;stroke-width:1.0;"/><text fill="#000000" font-family="sans-serif" font-size="13" lengthAdjust="spacing" textLength="102" x="339.1461" y="389.3254">0..* predecessors</text><!--MD5=[a7ff7daa03c30e603ee3c4860dcf798f]
reverse link Journal_Article to Journal--><path codeLine="105" d="M257,242.46 C257,257.4 257,273.52 257,288.8 " fill="none" id="Journal_Article-backto-Journal" style="stroke:#A80036;stroke-width:1.0;"/><polygon fill="#FFFFFF" points="257,229.13,253,235.13,257,241.13,261,235.13,257,229.13" style="stroke:#A80036;stroke-width:1.0;"/><text fill="#000000" font-family="sans-serif" font-size="13" lengthAdjust="spacing" textLength="20" x="235.5313" y="250.7963">0..*</text><text fill="#000000" font-family="sans-serif" font-size="13" lengthAdjust="spacing" textLength="39" x="215.8672" y="277.9334">source</text><!--MD5=[172c574da54f25a91619c430df633c07]
@startuml

!includesub core.puml!common

package "CERIF core" #EFEFEF{
    !includesub ./core.puml!Document
}

!includesub ./module.puml!Journal

@enduml

@startuml

    	hide empty members

package "CERIF core" #EFEFEF{
    class "Document"{
        DOI : DOI_Type
        title : Multilingual_String
        publicationDate : Date
    }
    class "Textual_Document"{
    }
    "Document" <|-u- "Textual_Document"
}

    class "Journal"{
        DOI : DOI_Type
        title : Multilingual_String
        ISSN : ISSN_Type
        eISSN : ISSN_Type
        acronym : Multilingual_String
        startDate : Date
        endDate : Date
    }

    class "Journal_Article"{
        startPage : String
        endPage : String
        volume : String
        number : String
    }
    "Textual_Document" <|- - "Journal_Article"
    "Journal" o- - "0..* predecessors" "Journal"
    "Journal_Article" "0..*" o- - "source" "Journal"

@enduml

PlantUML version 1.2021.8(Sat Jun 26 10:20:59 CEST 2021)
(GPL source distribution)
Java Runtime: Java(TM) SE Runtime Environment
JVM: Java HotSpot(TM) Client VM
Default Encoding: Cp1252
Language: en
Country: US
--></g></svg>