<?xml version="1.0" encoding="UTF-8" standalone="no"?><svg xmlns="http://www.w3.org/2000/svg" xmlns:xlink="http://www.w3.org/1999/xlink" contentScriptType="application/ecmascript" contentStyleType="text/css" height="774px" preserveAspectRatio="none" style="width:1173px;height:774px;background:#FFFFFF;" version="1.1" viewBox="0 0 1173 774" width="1173px" zoomAndPan="magnify"><defs><filter height="300%" id="f1gkzjciwuwuec" width="300%" x="-1" y="-1"><feGaussianBlur result="blurOut" stdDeviation="2.0"/><feColorMatrix in="blurOut" result="blurOut2" type="matrix" values="0 0 0 0 0 0 0 0 0 0 0 0 0 0 0 0 0 0 .4 0"/><feOffset dx="4.0" dy="4.0" in="blurOut2" result="blurOut3"/><feBlend in="SourceGraphic" in2="blurOut3" mode="normal"/></filter></defs><g><rect fill="#FFFFFF" filter="url(#f1gkzjciwuwuec)" height="95.8125" style="stroke:#A80036;stroke-width:1.5;" width="358" x="7" y="271"/><text fill="#000000" font-family="sans-serif" font-size="12" lengthAdjust="spacing" text-decoration="underline" textLength="55" x="158.5" y="284.1387">X:Person</text><line style="stroke:#A80036;stroke-width:1.5;" x1="8" x2="364" y1="288.9688" y2="288.9688"/><text fill="#000000" font-family="sans-serif" font-size="10" lengthAdjust="spacing" textLength="83" x="13" y="302.251">personName = {</text><text fill="#000000" font-family="sans-serif" font-size="10" lengthAdjust="spacing" textLength="105" x="40" y="313.8916">firstNames = "Urlike"</text><text fill="#000000" font-family="sans-serif" font-size="10" lengthAdjust="spacing" textLength="126" x="40" y="325.5322">familyNames = "Reisach"</text><text fill="#000000" font-family="sans-serif" font-size="10" lengthAdjust="spacing" textLength="92" x="13" y="337.1729">} ^^ PersonName</text><text fill="#000000" font-family="sans-serif" font-size="10" lengthAdjust="spacing" textLength="346" x="13" y="348.8135">orcid_id = "https://orcid.org/0000-0003-3432-8728" ^^ ORCID_iD_Type</text><text fill="#000000" font-family="sans-serif" font-size="10" lengthAdjust="spacing" textLength="278" x="13" y="360.4541">affiliations = [Affiliation 1] ^^ List&lt;AffiliationStatement&gt;</text><rect fill="#FFFFFF" filter="url(#f1gkzjciwuwuec)" height="84.1719" style="stroke:#A80036;stroke-width:1.5;" width="332" x="136" y="676"/><text fill="#000000" font-family="sans-serif" font-size="12" lengthAdjust="spacing" text-decoration="underline" textLength="126" x="239" y="689.1387">Institution 1:OrgUnit</text><line style="stroke:#A80036;stroke-width:1.5;" x1="137" x2="467" y1="693.9688" y2="693.9688"/><text fill="#000000" font-family="sans-serif" font-size="10" lengthAdjust="spacing" textLength="270" x="142" y="707.251">name = "Neu-Ulm University of Applied Sciences"@en,</text><text fill="#000000" font-family="sans-serif" font-size="10" lengthAdjust="spacing" textLength="293" x="169" y="718.8916">"Hochschule für angewandte Wissenschaften Neu-Ulm"@de</text><text fill="#000000" font-family="sans-serif" font-size="10" lengthAdjust="spacing" textLength="91" x="142" y="730.5322">acronym = "HNU"</text><text fill="#000000" font-family="sans-serif" font-size="10" lengthAdjust="spacing" textLength="258" x="142" y="742.1729">rorId = "https://ror.org/03ggzay52" ^^ ROR_ID_Type</text><text fill="#000000" font-family="sans-serif" font-size="10" lengthAdjust="spacing" textLength="234" x="142" y="753.8135">websiteURL = "https://www.hnu.de/en/" ^^ URI</text><rect fill="#FFFFFF" filter="url(#f1gkzjciwuwuec)" height="37.6094" style="stroke:#A80036;stroke-width:1.5;" width="148" x="1011" y="300"/><text fill="#000000" font-family="sans-serif" font-size="12" lengthAdjust="spacing" text-decoration="underline" textLength="127" x="1021.5" y="313.1387">Elsevier B.V.:OrgUnit</text><line style="stroke:#A80036;stroke-width:1.5;" x1="1012" x2="1158" y1="317.9688" y2="317.9688"/><text fill="#000000" font-family="sans-serif" font-size="10" lengthAdjust="spacing" textLength="136" x="1017" y="331.251">name = "Elsevier B.V."@en</text><rect fill="#FFFFFF" filter="url(#f1gkzjciwuwuec)" height="188.9375" style="stroke:#A80036;stroke-width:1.5;" width="335" x="134.5" y="427"/><text fill="#000000" font-family="sans-serif" font-size="12" lengthAdjust="spacing" text-decoration="underline" textLength="204" x="200" y="440.1387">Affiliation 1 : AffiliationStatement</text><line style="stroke:#A80036;stroke-width:1.5;" x1="135.5" x2="468.5" y1="444.9688" y2="444.9688"/><text fill="#000000" font-family="sans-serif" font-size="10" lengthAdjust="spacing" textLength="301" x="140.5" y="458.251">displayAffiliation = "Department of Information Management,</text><text fill="#000000" font-family="sans-serif" font-size="10" lengthAdjust="spacing" textLength="115" x="167.5" y="469.8916">Prof. Dr. Ulrike Reisach,</text><text fill="#000000" font-family="sans-serif" font-size="10" lengthAdjust="spacing" textLength="195" x="167.5" y="481.5322">Neu-Ulm University of Applied Sciences,</text><text fill="#000000" font-family="sans-serif" font-size="10" lengthAdjust="spacing" textLength="221" x="167.5" y="493.1729">Wiley-Street 1, D-89231 Neu-Ulm, Germany"</text><text fill="#000000" font-family="sans-serif" font-size="10" lengthAdjust="spacing" textLength="88" x="140.5" y="504.8135">postalAddress = {</text><text fill="#000000" font-family="sans-serif" font-size="10" lengthAdjust="spacing" textLength="161" x="167.5" y="516.4541">streetAddress = "Wiley-Street 1"</text><text fill="#000000" font-family="sans-serif" font-size="10" lengthAdjust="spacing" textLength="85" x="167.5" y="528.0947">city = "Neu-Ulm"</text><text fill="#000000" font-family="sans-serif" font-size="10" lengthAdjust="spacing" textLength="57" x="167.5" y="539.7354">country = {</text><text fill="#000000" font-family="sans-serif" font-size="10" lengthAdjust="spacing" textLength="220" x="191.5" y="551.376">name = "Germany"@en, "Deutschland"@de</text><text fill="#000000" font-family="sans-serif" font-size="10" lengthAdjust="spacing" textLength="272" x="191.5" y="563.0166">iso3166alpha2Code = "DE" ^^ ISO_3166_Alpha2_Code</text><text fill="#000000" font-family="sans-serif" font-size="10" lengthAdjust="spacing" textLength="65" x="167.5" y="574.6572">}^^ Country</text><text fill="#000000" font-family="sans-serif" font-size="10" lengthAdjust="spacing" textLength="105" x="167.5" y="586.2979">zipCode = "D-89231"</text><text fill="#000000" font-family="sans-serif" font-size="10" lengthAdjust="spacing" textLength="97" x="140.5" y="597.9385">} ^^ PostalAddress</text><text fill="#000000" font-family="sans-serif" font-size="10" lengthAdjust="spacing" textLength="178" x="140.5" y="609.5791">institution = Institution 1 ^^ OrgUnit</text><rect fill="#FFFFFF" filter="url(#f1gkzjciwuwuec)" height="95.8125" style="stroke:#A80036;stroke-width:1.5;" width="305" x="239.5" y="115"/><text fill="#000000" font-family="sans-serif" font-size="12" lengthAdjust="spacing" text-decoration="underline" textLength="160" x="312" y="128.1387">Authorship 1 : Authorship</text><line style="stroke:#A80036;stroke-width:1.5;" x1="240.5" x2="543.5" y1="132.9688" y2="132.9688"/><text fill="#000000" font-family="sans-serif" font-size="10" lengthAdjust="spacing" textLength="293" x="245.5" y="146.251">contacts = [ "mailto:xxxxxxxx@hnu.de" ][Collection&lt;URI&gt;]</text><text fill="#000000" font-family="sans-serif" font-size="10" lengthAdjust="spacing" textLength="154" x="245.5" y="157.8916">displayName = "Ulrike Reisach"</text><text fill="#000000" font-family="sans-serif" font-size="10" lengthAdjust="spacing" textLength="156" x="245.5" y="169.5322">correspondingAuthorFlag = True</text><text fill="#000000" font-family="sans-serif" font-size="10" lengthAdjust="spacing" textLength="103" x="245.5" y="181.1729">author = X ^^ Agent</text><text fill="#000000" font-family="sans-serif" font-size="10" lengthAdjust="spacing" textLength="264" x="245.5" y="192.8135">document = 10.1016/j.ejor.2020.09.020 ^^ Document</text><text fill="#000000" font-family="sans-serif" font-size="10" lengthAdjust="spacing" textLength="278" x="245.5" y="204.4541">affiliations = [Affiliation 1] ^^ List&lt;AffiliationStatement&gt;</text><rect fill="#FEFECE" filter="url(#f1gkzjciwuwuec)" height="33.9688" style="stroke:#A80036;stroke-width:1.5;" width="418" x="580" y="146"/><text fill="#000000" font-family="sans-serif" font-size="12" lengthAdjust="spacing" text-decoration="underline" textLength="404" x="587" y="159.1387">Open Access: Open Access COAR v.1.0 Accessibility Specification</text><line style="stroke:#A80036;stroke-width:1.5;" x1="581" x2="997" y1="163.9688" y2="163.9688"/><!--MD5=[aea3ae4de71a476feaa6f32f1641cf1f]
class journalEJOR--><rect fill="#FEFECE" filter="url(#f1gkzjciwuwuec)" height="48" id="journalEJOR" style="stroke:#A80036;stroke-width:1.5;" width="103" x="1033.5" y="139"/><ellipse cx="1048.5" cy="155" fill="#ADD1B2" rx="11" ry="11" style="stroke:#A80036;stroke-width:1.0;"/><path d="M1051.4688,160.6406 Q1050.8906,160.9375 1050.25,161.0781 Q1049.6094,161.2344 1048.9063,161.2344 Q1046.4063,161.2344 1045.0781,159.5938 Q1043.7656,157.9375 1043.7656,154.8125 Q1043.7656,151.6875 1045.0781,150.0313 Q1046.4063,148.375 1048.9063,148.375 Q1049.6094,148.375 1050.25,148.5313 Q1050.9063,148.6875 1051.4688,148.9844 L1051.4688,151.7031 Q1050.8438,151.125 1050.25,150.8594 Q1049.6563,150.5781 1049.0313,150.5781 Q1047.6875,150.5781 1047,151.6563 Q1046.3125,152.7188 1046.3125,154.8125 Q1046.3125,156.9063 1047,157.9844 Q1047.6875,159.0469 1049.0313,159.0469 Q1049.6563,159.0469 1050.25,158.7813 Q1050.8438,158.5 1051.4688,157.9219 L1051.4688,160.6406 Z " fill="#000000"/><text fill="#000000" font-family="sans-serif" font-size="12" lengthAdjust="spacing" textLength="71" x="1062.5" y="159.1543">journalEJOR</text><line style="stroke:#A80036;stroke-width:1.5;" x1="1034.5" x2="1135.5" y1="171" y2="171"/><line style="stroke:#A80036;stroke-width:1.5;" x1="1034.5" x2="1135.5" y1="179" y2="179"/><!--MD5=[0cfb7043913e33b5d11ee9d6c4f30cf8]
class article09020--><rect fill="#FEFECE" filter="url(#f1gkzjciwuwuec)" height="48" id="article09020" style="stroke:#A80036;stroke-width:1.5;" width="111" x="534.5" y="7"/><ellipse cx="549.5" cy="23" fill="#ADD1B2" rx="11" ry="11" style="stroke:#A80036;stroke-width:1.0;"/><path d="M552.4688,28.6406 Q551.8906,28.9375 551.25,29.0781 Q550.6094,29.2344 549.9063,29.2344 Q547.4063,29.2344 546.0781,27.5938 Q544.7656,25.9375 544.7656,22.8125 Q544.7656,19.6875 546.0781,18.0313 Q547.4063,16.375 549.9063,16.375 Q550.6094,16.375 551.25,16.5313 Q551.9063,16.6875 552.4688,16.9844 L552.4688,19.7031 Q551.8438,19.125 551.25,18.8594 Q550.6563,18.5781 550.0313,18.5781 Q548.6875,18.5781 548,19.6563 Q547.3125,20.7188 547.3125,22.8125 Q547.3125,24.9063 548,25.9844 Q548.6875,27.0469 550.0313,27.0469 Q550.6563,27.0469 551.25,26.7813 Q551.8438,26.5 552.4688,25.9219 L552.4688,28.6406 Z " fill="#000000"/><text fill="#000000" font-family="sans-serif" font-size="12" lengthAdjust="spacing" textLength="79" x="563.5" y="27.1543">article09020</text><line style="stroke:#A80036;stroke-width:1.5;" x1="535.5" x2="644.5" y1="39" y2="39"/><line style="stroke:#A80036;stroke-width:1.5;" x1="535.5" x2="644.5" y1="47" y2="47"/><!--MD5=[6cafdc760387d9ea46ffb3839ecb8ba8]
link Aut1 to X--><path codeLine="60" d="M319.4589,218.2252 C319.4589,218.2252 278.57,248.8 259.38,263.14 " fill="none" id="Aut1-X" style="stroke:#A80036;stroke-width:1.0;"/><polygon fill="#A80036" points="248.9,270.98,258.5034,268.7948,252.9046,267.9862,253.7132,262.3874,248.9,270.98" style="stroke:#A80036;stroke-width:1.0;"/><line style="stroke:#A80036;stroke-width:1.0;" x1="252.9046" x2="259.305" y1="267.9862" y2="263.195"/><polygon fill="#FFFFFF" points="329.07,211.04,321.8694,211.4289,319.4589,218.2252,326.6595,217.8363,329.07,211.04" style="stroke:#A80036;stroke-width:1.0;"/><text fill="#000000" font-family="sans-serif" font-size="13" lengthAdjust="spacing" textLength="42" x="213.0541" y="259.9159">author</text><!--MD5=[95d1426ce0860d1e9f4491dbb03adc2d]
link Aut1 to Aff1--><path codeLine="63" d="M395.6891,223.2443 C395.6891,223.2443 394.68,320.24 382,367 C377.64,383.06 371.43,399.36 364.36,415.04 " fill="none" id="Aut1-Aff1" style="stroke:#A80036;stroke-width:1.0;"/><polygon fill="#A80036" points="358.81,426.89,366.2501,420.4368,360.931,422.3622,359.0056,417.0431,358.81,426.89" style="stroke:#A80036;stroke-width:1.0;"/><line style="stroke:#A80036;stroke-width:1.0;" x1="360.931" x2="364.32" y1="422.3622" y2="415.12"/><polygon fill="#A80036" points="395.32,211.25,391.5064,217.3702,395.6891,223.2443,399.5026,217.1241,395.32,211.25" style="stroke:#A80036;stroke-width:1.0;"/><text fill="#000000" font-family="sans-serif" font-size="13" lengthAdjust="spacing" textLength="91" x="268.7113" y="415.8278">0..* affiliations</text><!--MD5=[e9e6ee0994f4ed96c825e5add7595754]
link Aff1 to Ins1--><path codeLine="67" d="M302,628.05 C302,628.05 302,652.14 302,662.62 " fill="none" id="Aff1-Ins1" style="stroke:#A80036;stroke-width:1.0;"/><polygon fill="#A80036" points="302,675.87,306,666.87,302,670.87,298,666.87,302,675.87" style="stroke:#A80036;stroke-width:1.0;"/><line style="stroke:#A80036;stroke-width:1.0;" x1="302" x2="302" y1="670.87" y2="662.87"/><polygon fill="#FFFFFF" points="302,616.05,298,622.05,302,628.05,306,622.05,302,616.05" style="stroke:#A80036;stroke-width:1.0;"/><text fill="#000000" font-family="sans-serif" font-size="13" lengthAdjust="spacing" textLength="63" x="233.9797" y="665.024">institution</text><!--MD5=[9d7e9da5b42b6be5c86405585fbaee15]
link X to Aff1--><path codeLine="70" d="M219.2104,377.3963 C219.2104,377.3963 233.9,402.79 241.31,415.6 " fill="none" id="X-Aff1" style="stroke:#A80036;stroke-width:1.0;"/><polygon fill="#A80036" points="247.82,426.86,246.7689,417.0674,245.3133,422.5337,239.8469,421.0781,247.82,426.86" style="stroke:#A80036;stroke-width:1.0;"/><line style="stroke:#A80036;stroke-width:1.0;" x1="245.3133" x2="241.315" y1="422.5337" y2="415.61"/><polygon fill="#FFFFFF" points="213.2,367.01,212.7431,374.2066,219.2104,377.3963,219.6673,370.1997,213.2,367.01" style="stroke:#A80036;stroke-width:1.0;"/><text fill="#000000" font-family="sans-serif" font-size="13" lengthAdjust="spacing" textLength="91" x="148.8768" y="415.7954">0..* affiliations</text><!--MD5=[78d295f6486c4d03a8c3749297f4290e]
link journalEJOR to Elsevier--><path codeLine="31" d="M1085,199.06 C1085,199.06 1085,261.56 1085,286.55 " fill="none" id="journalEJOR-Elsevier" style="stroke:#A80036;stroke-width:1.0;"/><polygon fill="#A80036" points="1085,299.62,1089,290.62,1085,294.62,1081,290.62,1085,299.62" style="stroke:#A80036;stroke-width:1.0;"/><line style="stroke:#A80036;stroke-width:1.0;" x1="1085" x2="1085" y1="294.62" y2="286.62"/><polygon fill="#FFFFFF" points="1085,187.06,1081,193.06,1085,199.06,1089,193.06,1085,187.06" style="stroke:#A80036;stroke-width:1.0;"/><text fill="#000000" font-family="sans-serif" font-size="13" lengthAdjust="spacing" textLength="92" x="979.4875" y="288.8678">0..* publishers</text><!--MD5=[f85fa358000293560bab4694ebcbe378]
link article09020 to journalEJOR--><path codeLine="34" d="M657.4635,36.7055 C657.4635,36.7055 896.23,65.04 1016,115 C1026.18,119.24 1036.4,125.12 1045.74,131.27 " fill="none" id="article09020-journalEJOR" style="stroke:#A80036;stroke-width:1.0;"/><polygon fill="#A80036" points="1056.63,138.84,1051.5212,130.4198,1052.5238,135.9871,1046.9565,136.9897,1056.63,138.84" style="stroke:#A80036;stroke-width:1.0;"/><line style="stroke:#A80036;stroke-width:1.0;" x1="1052.5238" x2="1045.955" y1="135.9871" y2="131.425"/><polygon fill="#FFFFFF" points="645.51,35.65,651.1349,40.1622,657.4635,36.7055,651.8386,32.1933,645.51,35.65" style="stroke:#A80036;stroke-width:1.0;"/><text fill="#000000" font-family="sans-serif" font-size="13" lengthAdjust="spacing" textLength="43" x="1000.8508" y="127.811">source</text><!--MD5=[147229d7a9bf6acfab943c9c5fe25232]
link article09020 to OpenAccess--><path codeLine="37" d="M635.625,61.8049 C635.625,61.8049 720.56,117.29 753.16,138.58 " fill="none" id="article09020-OpenAccess" style="stroke:#A80036;stroke-width:1.0;"/><polygon fill="#A80036" points="764.4,145.93,759.0545,137.658,760.2146,143.1946,754.6779,144.3547,764.4,145.93" style="stroke:#A80036;stroke-width:1.0;"/><line style="stroke:#A80036;stroke-width:1.0;" x1="760.2146" x2="753.52" y1="143.1946" y2="138.82"/><polygon fill="#FFFFFF" points="625.58,55.24,628.4142,61.8708,635.625,61.8049,632.7908,55.1741,625.58,55.24" style="stroke:#A80036;stroke-width:1.0;"/><text fill="#000000" font-family="sans-serif" font-size="13" lengthAdjust="spacing" textLength="83" x="659.5044" y="134.8853">accessRights</text><!--MD5=[e2f5b33376fa71555aee5a8473f6ae29]
link article09020 to Aut1--><path codeLine="40" d="M544.565,61.8201 C544.565,61.8201 498.13,92.32 474.63,107.75 " fill="none" id="article09020-Aut1" style="stroke:#A80036;stroke-width:1.0;"/><polygon fill="#A80036" points="463.59,115,473.3097,113.4099,467.7713,112.2583,468.9229,106.7199,463.59,115" style="stroke:#A80036;stroke-width:1.0;"/><line style="stroke:#A80036;stroke-width:1.0;" x1="467.7713" x2="474.455" y1="112.2583" y2="107.865"/><polygon fill="#A80036" points="554.6,55.24,547.3891,55.1851,544.565,61.8201,551.7759,61.8751,554.6,55.24" style="stroke:#A80036;stroke-width:1.0;"/><text fill="#000000" font-family="sans-serif" font-size="13" lengthAdjust="spacing" textLength="102" x="364.6142" y="103.9389">0..* authorships</text><!--MD5=[9319e62fcbbab493b1953bc62c52e63b]
link article09020 to X--><path codeLine="43" d="M522.2283,38.3889 C522.2283,38.3889 262.45,72.63 222,115 C186.2,152.5 179.38,212.56 180.22,257.64 " fill="none" id="article09020-X" style="stroke:#A80036;stroke-width:1.0;"/><polygon fill="#A80036" points="180.68,270.81,184.3609,261.6748,180.5041,265.8131,176.3658,261.9563,180.68,270.81" style="stroke:#A80036;stroke-width:1.0;"/><line style="stroke:#A80036;stroke-width:1.0;" x1="180.5041" x2="180.225" y1="265.8131" y2="257.82"/><polygon fill="#FFFFFF" points="534.16,37.11,527.7679,33.7722,522.2283,38.3889,528.6205,41.7267,534.16,37.11" style="stroke:#A80036;stroke-width:1.0;"/><text fill="#000000" font-family="sans-serif" font-size="13" lengthAdjust="spacing" textLength="76" x="98.5881" y="260.068">0..* authors</text><!--MD5=[4c761d9854e0708bdafc0d78f6c8ba0a]
@startuml

!include ./example.puml



@enduml

@startuml



	object "<u>X:Person</u>" as X #ffffff {
           personName = {
           \t firstNames = "Urlike"
           \t familyNames = "Reisach"
           } ^^ PersonName
           orcid_id = "https://orcid.org/0000-0003-3432-8728" ^^ ORCID_iD_Type
           affiliations = [Affiliation 1] ^^ List<AffiliationStatement>
        }

    object "<u>Institution 1:OrgUnit</u>" as Ins1 #ffffff {
    	    name = "Neu-Ulm University of Applied Sciences"@en,
    	    \t "Hochschule für angewandte Wissenschaften Neu-Ulm"@de
            acronym = "HNU"
            rorId = "https://ror.org/03ggzay52" ^^ ROR_ID_Type
            websiteURL = "https://www.hnu.de/en/" ^^ URI
    	}


    object "<u>Elsevier B.V.:OrgUnit</u>" as Elsevier #ffffff {
            name = "Elsevier B.V."@en
        }

    object "<u>Affiliation 1 : AffiliationStatement</u>" as Aff1 #ffffff {
            displayAffiliation = "Department of Information Management,
            \t Prof. Dr. Ulrike Reisach,
            \t Neu-Ulm University of Applied Sciences,
            \t Wiley-Street 1, D-89231 Neu-Ulm, Germany"
            postalAddress = {
            \t streetAddress = "Wiley-Street 1"
            \t city = "Neu-Ulm"
            \t country = {
                        \t\t name = "Germany"@en, "Deutschland"@de
                        \t\t iso3166alpha2Code = "DE" ^^ ISO_3166_Alpha2_Code
                        \t }^^ Country
            \t zipCode = "D-89231"
            } ^^ PostalAddress
            institution = Institution 1 ^^ OrgUnit
        }

    object "<u>Authorship 1 : Authorship</u>" as Aut1 #ffffff {
            contacts = [ "mailto:xxxxxxxx@hnu.de" ][Collection<URI>]
            displayName = "Ulrike Reisach"
            correspondingAuthorFlag = True
            author = X ^^ Agent
            document = 10.1016/j.ejor.2020.09.020 ^^ Document
            affiliations = [Affiliation 1] ^^ List<AffiliationStatement>
        }

        Aut1 o- -> "author" X
        Aut1 *- -> "0..* affiliations" Aff1

        Aff1 o- -> "institution" Ins1
        X o- -> "0..* affiliations" Aff1



        object "<u>Open Access: Open Access COAR v.1.0 Accessibility Specification</u>" as OpenAccess
        journalEJOR o- ->  "0..* publishers" Elsevier
        article09020 o- -> "source" journalEJOR
        article09020 o- -> "accessRights" OpenAccess
        article09020 *- -> "0..* authorships" Aut1
        article09020 o- -> "0..* authors" X




@enduml

PlantUML version 1.2021.8(Sat Jun 26 08:20:59 UTC 2021)
(GPL source distribution)
Java Runtime: OpenJDK Runtime Environment
JVM: OpenJDK 64-Bit Server VM
Default Encoding: UTF-8
Language: en
Country: null
--></g></svg>