<?xml version="1.0" encoding="UTF-8" standalone="no"?><svg xmlns="http://www.w3.org/2000/svg" xmlns:xlink="http://www.w3.org/1999/xlink" contentScriptType="application/ecmascript" contentStyleType="text/css" height="1460px" preserveAspectRatio="none" style="width:2300px;height:1460px;background:#FFFFFF;" version="1.1" viewBox="0 0 2300 1460" width="2300px" zoomAndPan="magnify"><defs><filter height="300%" id="fhquhjrrl7vqu" width="300%" x="-1" y="-1"><feGaussianBlur result="blurOut" stdDeviation="2.0"/><feColorMatrix in="blurOut" result="blurOut2" type="matrix" values="0 0 0 0 0 0 0 0 0 0 0 0 0 0 0 0 0 0 .4 0"/><feOffset dx="4.0" dy="4.0" in="blurOut2" result="blurOut3"/><feBlend in="SourceGraphic" in2="blurOut3" mode="normal"/></filter></defs><g><!--MD5=[59b530d44ae785dc18db921986a9c15c]
class Document--><rect codeLine="7" fill="#00FFFF" filter="url(#fhquhjrrl7vqu)" height="81.5078" id="Document" style="stroke:#A80036;stroke-width:1.5;" width="122" x="660.5" y="696"/><ellipse cx="690.35" cy="712" fill="#ADD1B2" rx="11" ry="11" style="stroke:#A80036;stroke-width:1.0;"/><path d="M693.1156,707.875 Q693.2719,707.6563 693.4594,707.5469 Q693.6469,707.4375 693.8656,707.4375 Q694.2406,707.4375 694.475,707.6953 Q694.7094,707.9531 694.7094,708.5625 L694.7094,710.0156 Q694.7094,710.625 694.475,710.8906 Q694.2406,711.1563 693.8656,711.1563 Q693.5219,711.1563 693.3188,710.9531 Q693.1156,710.7656 693.0063,710.25 Q692.9594,709.8906 692.7719,709.7031 Q692.4438,709.3281 691.8344,709.1094 Q691.225,708.8906 690.6,708.8906 Q689.8344,708.8906 689.2016,709.2188 Q688.5688,709.5469 688.0766,710.2969 Q687.5844,711.0469 687.5844,712.0781 L687.5844,713.1719 Q687.5844,714.4063 688.475,715.2266 Q689.3656,716.0469 690.9594,716.0469 Q691.8969,716.0469 692.5531,715.7969 Q692.9438,715.6406 693.3656,715.2031 Q693.6313,714.9375 693.7797,714.8594 Q693.9281,714.7813 694.1313,714.7813 Q694.4594,714.7813 694.7172,715.0391 Q694.975,715.2969 694.975,715.6406 Q694.975,715.9844 694.6313,716.3906 Q694.1313,716.9688 693.3344,717.2969 Q692.2563,717.75 690.9594,717.75 Q689.4438,717.75 688.2406,717.125 Q687.2563,716.625 686.5688,715.5547 Q685.8813,714.4844 685.8813,713.2031 L685.8813,712.0469 Q685.8813,710.7188 686.4984,709.5703 Q687.1156,708.4219 688.2094,707.8047 Q689.3031,707.1875 690.5375,707.1875 Q691.2719,707.1875 691.9203,707.3516 Q692.5688,707.5156 693.1156,707.875 Z " fill="#000000"/><text fill="#000000" font-family="sans-serif" font-size="12" lengthAdjust="spacing" textLength="57" x="707.65" y="716.9102">Document</text><line style="stroke:#A80036;stroke-width:1.5;" x1="661.5" x2="781.5" y1="728" y2="728"/><text fill="#000000" font-family="sans-serif" font-size="11" lengthAdjust="spacing" textLength="73" x="666.5" y="743.4189">DOI : DOI_Type</text><text fill="#000000" font-family="sans-serif" font-size="11" lengthAdjust="spacing" textLength="110" x="666.5" y="757.2549">title : Multilingual_String</text><text fill="#000000" font-family="sans-serif" font-size="11" lengthAdjust="spacing" textLength="104" x="666.5" y="771.0908">publicationDate : Date</text><!--MD5=[fe105c2ee1fabf2400c31a97ce9128bc]
class Textual_Document--><rect codeLine="12" fill="#00FFFF" filter="url(#fhquhjrrl7vqu)" height="32" id="Textual_Document" style="stroke:#A80036;stroke-width:1.5;" width="135" x="541" y="186"/><ellipse cx="556" cy="202" fill="#ADD1B2" rx="11" ry="11" style="stroke:#A80036;stroke-width:1.0;"/><path d="M558.7656,197.875 Q558.9219,197.6563 559.1094,197.5469 Q559.2969,197.4375 559.5156,197.4375 Q559.8906,197.4375 560.125,197.6953 Q560.3594,197.9531 560.3594,198.5625 L560.3594,200.0156 Q560.3594,200.625 560.125,200.8906 Q559.8906,201.1563 559.5156,201.1563 Q559.1719,201.1563 558.9688,200.9531 Q558.7656,200.7656 558.6563,200.25 Q558.6094,199.8906 558.4219,199.7031 Q558.0938,199.3281 557.4844,199.1094 Q556.875,198.8906 556.25,198.8906 Q555.4844,198.8906 554.8516,199.2188 Q554.2188,199.5469 553.7266,200.2969 Q553.2344,201.0469 553.2344,202.0781 L553.2344,203.1719 Q553.2344,204.4063 554.125,205.2266 Q555.0156,206.0469 556.6094,206.0469 Q557.5469,206.0469 558.2031,205.7969 Q558.5938,205.6406 559.0156,205.2031 Q559.2813,204.9375 559.4297,204.8594 Q559.5781,204.7813 559.7813,204.7813 Q560.1094,204.7813 560.3672,205.0391 Q560.625,205.2969 560.625,205.6406 Q560.625,205.9844 560.2813,206.3906 Q559.7813,206.9688 558.9844,207.2969 Q557.9063,207.75 556.6094,207.75 Q555.0938,207.75 553.8906,207.125 Q552.9063,206.625 552.2188,205.5547 Q551.5313,204.4844 551.5313,203.2031 L551.5313,202.0469 Q551.5313,200.7188 552.1484,199.5703 Q552.7656,198.4219 553.8594,197.8047 Q554.9531,197.1875 556.1875,197.1875 Q556.9219,197.1875 557.5703,197.3516 Q558.2188,197.5156 558.7656,197.875 Z " fill="#000000"/><text fill="#000000" font-family="sans-serif" font-size="12" lengthAdjust="spacing" textLength="103" x="570" y="206.9102">Textual_Document</text><!--MD5=[152f153d79baedb26b20a34b9b1b571f]
class Textual_Document_Accessibility_Specification--><rect codeLine="17" fill="#00FFFF" filter="url(#fhquhjrrl7vqu)" height="32" id="Textual_Document_Accessibility_Specification" style="stroke:#A80036;stroke-width:1.5;" width="286" x="848.5" y="44"/><ellipse cx="863.5" cy="60" fill="#ADD1B2" rx="11" ry="11" style="stroke:#A80036;stroke-width:1.0;"/><path d="M866.2656,55.875 Q866.4219,55.6563 866.6094,55.5469 Q866.7969,55.4375 867.0156,55.4375 Q867.3906,55.4375 867.625,55.6953 Q867.8594,55.9531 867.8594,56.5625 L867.8594,58.0156 Q867.8594,58.625 867.625,58.8906 Q867.3906,59.1563 867.0156,59.1563 Q866.6719,59.1563 866.4688,58.9531 Q866.2656,58.7656 866.1563,58.25 Q866.1094,57.8906 865.9219,57.7031 Q865.5938,57.3281 864.9844,57.1094 Q864.375,56.8906 863.75,56.8906 Q862.9844,56.8906 862.3516,57.2188 Q861.7188,57.5469 861.2266,58.2969 Q860.7344,59.0469 860.7344,60.0781 L860.7344,61.1719 Q860.7344,62.4063 861.625,63.2266 Q862.5156,64.0469 864.1094,64.0469 Q865.0469,64.0469 865.7031,63.7969 Q866.0938,63.6406 866.5156,63.2031 Q866.7813,62.9375 866.9297,62.8594 Q867.0781,62.7813 867.2813,62.7813 Q867.6094,62.7813 867.8672,63.0391 Q868.125,63.2969 868.125,63.6406 Q868.125,63.9844 867.7813,64.3906 Q867.2813,64.9688 866.4844,65.2969 Q865.4063,65.75 864.1094,65.75 Q862.5938,65.75 861.3906,65.125 Q860.4063,64.625 859.7188,63.5547 Q859.0313,62.4844 859.0313,61.2031 L859.0313,60.0469 Q859.0313,58.7188 859.6484,57.5703 Q860.2656,56.4219 861.3594,55.8047 Q862.4531,55.1875 863.6875,55.1875 Q864.4219,55.1875 865.0703,55.3516 Q865.7188,55.5156 866.2656,55.875 Z " fill="#000000"/><text fill="#000000" font-family="sans-serif" font-size="12" lengthAdjust="spacing" textLength="254" x="877.5" y="64.9102">Textual_Document_Accessibility_Specification</text><!--MD5=[9d44916250b776386006c440668bcfbb]
class Agent--><rect codeLine="22" fill="#00FFFF" filter="url(#fhquhjrrl7vqu)" height="32" id="Agent" style="stroke:#A80036;stroke-width:1.5;" width="63" x="282" y="721"/><ellipse cx="297" cy="737" fill="#ADD1B2" rx="11" ry="11" style="stroke:#A80036;stroke-width:1.0;"/><path d="M299.7656,732.875 Q299.9219,732.6563 300.1094,732.5469 Q300.2969,732.4375 300.5156,732.4375 Q300.8906,732.4375 301.125,732.6953 Q301.3594,732.9531 301.3594,733.5625 L301.3594,735.0156 Q301.3594,735.625 301.125,735.8906 Q300.8906,736.1563 300.5156,736.1563 Q300.1719,736.1563 299.9688,735.9531 Q299.7656,735.7656 299.6563,735.25 Q299.6094,734.8906 299.4219,734.7031 Q299.0938,734.3281 298.4844,734.1094 Q297.875,733.8906 297.25,733.8906 Q296.4844,733.8906 295.8516,734.2188 Q295.2188,734.5469 294.7266,735.2969 Q294.2344,736.0469 294.2344,737.0781 L294.2344,738.1719 Q294.2344,739.4063 295.125,740.2266 Q296.0156,741.0469 297.6094,741.0469 Q298.5469,741.0469 299.2031,740.7969 Q299.5938,740.6406 300.0156,740.2031 Q300.2813,739.9375 300.4297,739.8594 Q300.5781,739.7813 300.7813,739.7813 Q301.1094,739.7813 301.3672,740.0391 Q301.625,740.2969 301.625,740.6406 Q301.625,740.9844 301.2813,741.3906 Q300.7813,741.9688 299.9844,742.2969 Q298.9063,742.75 297.6094,742.75 Q296.0938,742.75 294.8906,742.125 Q293.9063,741.625 293.2188,740.5547 Q292.5313,739.4844 292.5313,738.2031 L292.5313,737.0469 Q292.5313,735.7188 293.1484,734.5703 Q293.7656,733.4219 294.8594,732.8047 Q295.9531,732.1875 297.1875,732.1875 Q297.9219,732.1875 298.5703,732.3516 Q299.2188,732.5156 299.7656,732.875 Z " fill="#000000"/><text fill="#000000" font-family="sans-serif" font-size="12" lengthAdjust="spacing" textLength="31" x="311" y="741.9102">Agent</text><!--MD5=[779f3743e425ed8a6f0bf188ddea4860]
class Organisation_Unit--><rect codeLine="27" fill="#00FFFF" filter="url(#fhquhjrrl7vqu)" height="53.8359" id="Organisation_Unit" style="stroke:#A80036;stroke-width:1.5;" width="132" x="154.5" y="1211"/><ellipse cx="169.5" cy="1227" fill="#ADD1B2" rx="11" ry="11" style="stroke:#A80036;stroke-width:1.0;"/><path d="M172.2656,1222.875 Q172.4219,1222.6563 172.6094,1222.5469 Q172.7969,1222.4375 173.0156,1222.4375 Q173.3906,1222.4375 173.625,1222.6953 Q173.8594,1222.9531 173.8594,1223.5625 L173.8594,1225.0156 Q173.8594,1225.625 173.625,1225.8906 Q173.3906,1226.1563 173.0156,1226.1563 Q172.6719,1226.1563 172.4688,1225.9531 Q172.2656,1225.7656 172.1563,1225.25 Q172.1094,1224.8906 171.9219,1224.7031 Q171.5938,1224.3281 170.9844,1224.1094 Q170.375,1223.8906 169.75,1223.8906 Q168.9844,1223.8906 168.3516,1224.2188 Q167.7188,1224.5469 167.2266,1225.2969 Q166.7344,1226.0469 166.7344,1227.0781 L166.7344,1228.1719 Q166.7344,1229.4063 167.625,1230.2266 Q168.5156,1231.0469 170.1094,1231.0469 Q171.0469,1231.0469 171.7031,1230.7969 Q172.0938,1230.6406 172.5156,1230.2031 Q172.7813,1229.9375 172.9297,1229.8594 Q173.0781,1229.7813 173.2813,1229.7813 Q173.6094,1229.7813 173.8672,1230.0391 Q174.125,1230.2969 174.125,1230.6406 Q174.125,1230.9844 173.7813,1231.3906 Q173.2813,1231.9688 172.4844,1232.2969 Q171.4063,1232.75 170.1094,1232.75 Q168.5938,1232.75 167.3906,1232.125 Q166.4063,1231.625 165.7188,1230.5547 Q165.0313,1229.4844 165.0313,1228.2031 L165.0313,1227.0469 Q165.0313,1225.7188 165.6484,1224.5703 Q166.2656,1223.4219 167.3594,1222.8047 Q168.4531,1222.1875 169.6875,1222.1875 Q170.4219,1222.1875 171.0703,1222.3516 Q171.7188,1222.5156 172.2656,1222.875 Z " fill="#000000"/><text fill="#000000" font-family="sans-serif" font-size="12" lengthAdjust="spacing" textLength="100" x="183.5" y="1231.9102">Organisation_Unit</text><line style="stroke:#A80036;stroke-width:1.5;" x1="155.5" x2="285.5" y1="1243" y2="1243"/><text fill="#000000" font-family="sans-serif" font-size="11" lengthAdjust="spacing" textLength="120" x="160.5" y="1258.4189">name : Multilingual_String</text><!--MD5=[09ce52be0ee7de43c61b6e2d59bf108b]
class Person--><rect codeLine="30" fill="#00FFFF" filter="url(#fhquhjrrl7vqu)" height="53.8359" id="Person" style="stroke:#A80036;stroke-width:1.5;" width="99" x="402" y="1211"/><ellipse cx="429.15" cy="1227" fill="#ADD1B2" rx="11" ry="11" style="stroke:#A80036;stroke-width:1.0;"/><path d="M431.9156,1222.875 Q432.0719,1222.6563 432.2594,1222.5469 Q432.4469,1222.4375 432.6656,1222.4375 Q433.0406,1222.4375 433.275,1222.6953 Q433.5094,1222.9531 433.5094,1223.5625 L433.5094,1225.0156 Q433.5094,1225.625 433.275,1225.8906 Q433.0406,1226.1563 432.6656,1226.1563 Q432.3219,1226.1563 432.1188,1225.9531 Q431.9156,1225.7656 431.8063,1225.25 Q431.7594,1224.8906 431.5719,1224.7031 Q431.2438,1224.3281 430.6344,1224.1094 Q430.025,1223.8906 429.4,1223.8906 Q428.6344,1223.8906 428.0016,1224.2188 Q427.3688,1224.5469 426.8766,1225.2969 Q426.3844,1226.0469 426.3844,1227.0781 L426.3844,1228.1719 Q426.3844,1229.4063 427.275,1230.2266 Q428.1656,1231.0469 429.7594,1231.0469 Q430.6969,1231.0469 431.3531,1230.7969 Q431.7438,1230.6406 432.1656,1230.2031 Q432.4313,1229.9375 432.5797,1229.8594 Q432.7281,1229.7813 432.9313,1229.7813 Q433.2594,1229.7813 433.5172,1230.0391 Q433.775,1230.2969 433.775,1230.6406 Q433.775,1230.9844 433.4313,1231.3906 Q432.9313,1231.9688 432.1344,1232.2969 Q431.0563,1232.75 429.7594,1232.75 Q428.2438,1232.75 427.0406,1232.125 Q426.0563,1231.625 425.3688,1230.5547 Q424.6813,1229.4844 424.6813,1228.2031 L424.6813,1227.0469 Q424.6813,1225.7188 425.2984,1224.5703 Q425.9156,1223.4219 427.0094,1222.8047 Q428.1031,1222.1875 429.3375,1222.1875 Q430.0719,1222.1875 430.7203,1222.3516 Q431.3688,1222.5156 431.9156,1222.875 Z " fill="#000000"/><text fill="#000000" font-family="sans-serif" font-size="12" lengthAdjust="spacing" textLength="40" x="445.85" y="1231.9102">Person</text><line style="stroke:#A80036;stroke-width:1.5;" x1="403" x2="500" y1="1243" y2="1243"/><text fill="#000000" font-family="sans-serif" font-size="11" lengthAdjust="spacing" textLength="87" x="408" y="1258.4189">orcidid : ORCID_iD</text><!--MD5=[7b209ef07eb91b93e0aebc9fe4fb9a26]
class Person_Name--><rect codeLine="33" fill="#00FFFF" filter="url(#fhquhjrrl7vqu)" height="89.6953" id="Person_Name" style="stroke:#A80036;stroke-width:1.5;" width="113" x="395" y="1353.5"/><ellipse cx="410" cy="1373.5938" fill="#FF7700" rx="11" ry="11" style="stroke:#A80036;stroke-width:1.0;"/><path d="M407.5469,1376.8906 L407.5469,1370.2344 Q407,1370.2188 406.7422,1369.9844 Q406.4844,1369.75 406.4844,1369.375 Q406.4844,1369 406.75,1368.7656 Q407.0156,1368.5313 407.625,1368.5313 L411.1875,1368.5313 Q412.0156,1368.5313 412.8125,1368.8359 Q413.6094,1369.1406 414.0938,1369.625 Q414.4531,1369.9844 414.8438,1370.6016 Q415.2344,1371.2188 415.4375,1371.8359 Q415.6406,1372.4531 415.6406,1373.3438 L415.6406,1374.1563 Q415.6406,1375.2344 415.2734,1376.0703 Q414.9063,1376.9063 414.3125,1377.4297 Q413.7188,1377.9531 413.2031,1378.2031 Q412.375,1378.5938 411.0469,1378.5938 L407.625,1378.5938 Q407.0156,1378.5938 406.75,1378.3594 Q406.4844,1378.125 406.4844,1377.7344 Q406.4844,1377.3594 406.75,1377.125 Q407.0156,1376.8906 407.5469,1376.8906 Z M409.25,1376.8906 L411.0625,1376.8906 Q412.0625,1376.8906 412.5781,1376.5938 Q413.25,1376.2188 413.5938,1375.6328 Q413.9375,1375.0469 413.9375,1374.1094 L413.9375,1373.2969 Q413.9375,1372.5 413.625,1371.8906 Q413.1406,1370.9375 412.5391,1370.5859 Q411.9375,1370.2344 411.0469,1370.2344 L409.25,1370.2344 L409.25,1376.8906 Z " fill="#000000"/><text fill="#000000" font-family="sans-serif" font-size="12" font-style="italic" lengthAdjust="spacing" textLength="67" x="431" y="1370.957">«DataType»</text><text fill="#000000" font-family="sans-serif" font-size="12" lengthAdjust="spacing" textLength="81" x="424" y="1386.0508">Person_Name</text><line style="stroke:#A80036;stroke-width:1.5;" x1="396" x2="507" y1="1393.6875" y2="1393.6875"/><text fill="#000000" font-family="sans-serif" font-size="11" lengthAdjust="spacing" textLength="89" x="401" y="1409.1064">firstNames : String</text><text fill="#000000" font-family="sans-serif" font-size="11" lengthAdjust="spacing" textLength="98" x="401" y="1422.9424">familyNames : String</text><text fill="#000000" font-family="sans-serif" font-size="11" lengthAdjust="spacing" textLength="95" x="401" y="1436.7783">otherNames : String</text><!--MD5=[3b25461e5df73ababc6765bb9b0c47d3]
class Authorship--><rect codeLine="38" fill="#00FFFF" filter="url(#fhquhjrrl7vqu)" height="53.8359" id="Authorship" style="stroke:#A80036;stroke-width:1.5;" width="183" x="293" y="175"/><ellipse cx="350.75" cy="191" fill="#ADD1B2" rx="11" ry="11" style="stroke:#A80036;stroke-width:1.0;"/><path d="M353.5156,186.875 Q353.6719,186.6563 353.8594,186.5469 Q354.0469,186.4375 354.2656,186.4375 Q354.6406,186.4375 354.875,186.6953 Q355.1094,186.9531 355.1094,187.5625 L355.1094,189.0156 Q355.1094,189.625 354.875,189.8906 Q354.6406,190.1563 354.2656,190.1563 Q353.9219,190.1563 353.7188,189.9531 Q353.5156,189.7656 353.4063,189.25 Q353.3594,188.8906 353.1719,188.7031 Q352.8438,188.3281 352.2344,188.1094 Q351.625,187.8906 351,187.8906 Q350.2344,187.8906 349.6016,188.2188 Q348.9688,188.5469 348.4766,189.2969 Q347.9844,190.0469 347.9844,191.0781 L347.9844,192.1719 Q347.9844,193.4063 348.875,194.2266 Q349.7656,195.0469 351.3594,195.0469 Q352.2969,195.0469 352.9531,194.7969 Q353.3438,194.6406 353.7656,194.2031 Q354.0313,193.9375 354.1797,193.8594 Q354.3281,193.7813 354.5313,193.7813 Q354.8594,193.7813 355.1172,194.0391 Q355.375,194.2969 355.375,194.6406 Q355.375,194.9844 355.0313,195.3906 Q354.5313,195.9688 353.7344,196.2969 Q352.6563,196.75 351.3594,196.75 Q349.8438,196.75 348.6406,196.125 Q347.6563,195.625 346.9688,194.5547 Q346.2813,193.4844 346.2813,192.2031 L346.2813,191.0469 Q346.2813,189.7188 346.8984,188.5703 Q347.5156,187.4219 348.6094,186.8047 Q349.7031,186.1875 350.9375,186.1875 Q351.6719,186.1875 352.3203,186.3516 Q352.9688,186.5156 353.5156,186.875 Z " fill="#000000"/><text fill="#000000" font-family="sans-serif" font-size="12" lengthAdjust="spacing" textLength="59" x="371.25" y="195.9102">Authorship</text><line style="stroke:#A80036;stroke-width:1.5;" x1="294" x2="475" y1="207" y2="207"/><text fill="#000000" font-family="sans-serif" font-size="11" lengthAdjust="spacing" textLength="171" x="299" y="222.4189">correspondingAuthorFlag : Boolean</text><!--MD5=[b821bb113f9f55c728f1fbb8949cc3af]
class Contributorship--><rect codeLine="43" fill="#00FFFF" filter="url(#fhquhjrrl7vqu)" height="67.6719" id="Contributorship" style="stroke:#A80036;stroke-width:1.5;" width="117" x="508" y="703"/><ellipse cx="523" cy="719" fill="#ADD1B2" rx="11" ry="11" style="stroke:#A80036;stroke-width:1.0;"/><path d="M525.7656,714.875 Q525.9219,714.6563 526.1094,714.5469 Q526.2969,714.4375 526.5156,714.4375 Q526.8906,714.4375 527.125,714.6953 Q527.3594,714.9531 527.3594,715.5625 L527.3594,717.0156 Q527.3594,717.625 527.125,717.8906 Q526.8906,718.1563 526.5156,718.1563 Q526.1719,718.1563 525.9688,717.9531 Q525.7656,717.7656 525.6563,717.25 Q525.6094,716.8906 525.4219,716.7031 Q525.0938,716.3281 524.4844,716.1094 Q523.875,715.8906 523.25,715.8906 Q522.4844,715.8906 521.8516,716.2188 Q521.2188,716.5469 520.7266,717.2969 Q520.2344,718.0469 520.2344,719.0781 L520.2344,720.1719 Q520.2344,721.4063 521.125,722.2266 Q522.0156,723.0469 523.6094,723.0469 Q524.5469,723.0469 525.2031,722.7969 Q525.5938,722.6406 526.0156,722.2031 Q526.2813,721.9375 526.4297,721.8594 Q526.5781,721.7813 526.7813,721.7813 Q527.1094,721.7813 527.3672,722.0391 Q527.625,722.2969 527.625,722.6406 Q527.625,722.9844 527.2813,723.3906 Q526.7813,723.9688 525.9844,724.2969 Q524.9063,724.75 523.6094,724.75 Q522.0938,724.75 520.8906,724.125 Q519.9063,723.625 519.2188,722.5547 Q518.5313,721.4844 518.5313,720.2031 L518.5313,719.0469 Q518.5313,717.7188 519.1484,716.5703 Q519.7656,715.4219 520.8594,714.8047 Q521.9531,714.1875 523.1875,714.1875 Q523.9219,714.1875 524.5703,714.3516 Q525.2188,714.5156 525.7656,714.875 Z " fill="#000000"/><text fill="#000000" font-family="sans-serif" font-size="12" lengthAdjust="spacing" textLength="85" x="537" y="723.9102">Contributorship</text><line style="stroke:#A80036;stroke-width:1.5;" x1="509" x2="624" y1="735" y2="735"/><text fill="#000000" font-family="sans-serif" font-size="11" lengthAdjust="spacing" textLength="96" x="514" y="750.4189">contacts : List&lt;URI&gt;</text><text fill="#000000" font-family="sans-serif" font-size="11" lengthAdjust="spacing" textLength="98" x="514" y="764.2549">displayName : String</text><!--MD5=[532fe005ca0bef0ad6b309c9c6480e22]
class Contribution_Statement--><rect codeLine="47" fill="#00FFFF" filter="url(#fhquhjrrl7vqu)" height="32" id="Contribution_Statement" style="stroke:#A80036;stroke-width:1.5;" width="162" x="816.5" y="537.5"/><ellipse cx="831.5" cy="553.5" fill="#ADD1B2" rx="11" ry="11" style="stroke:#A80036;stroke-width:1.0;"/><path d="M834.2656,549.375 Q834.4219,549.1563 834.6094,549.0469 Q834.7969,548.9375 835.0156,548.9375 Q835.3906,548.9375 835.625,549.1953 Q835.8594,549.4531 835.8594,550.0625 L835.8594,551.5156 Q835.8594,552.125 835.625,552.3906 Q835.3906,552.6563 835.0156,552.6563 Q834.6719,552.6563 834.4688,552.4531 Q834.2656,552.2656 834.1563,551.75 Q834.1094,551.3906 833.9219,551.2031 Q833.5938,550.8281 832.9844,550.6094 Q832.375,550.3906 831.75,550.3906 Q830.9844,550.3906 830.3516,550.7188 Q829.7188,551.0469 829.2266,551.7969 Q828.7344,552.5469 828.7344,553.5781 L828.7344,554.6719 Q828.7344,555.9063 829.625,556.7266 Q830.5156,557.5469 832.1094,557.5469 Q833.0469,557.5469 833.7031,557.2969 Q834.0938,557.1406 834.5156,556.7031 Q834.7813,556.4375 834.9297,556.3594 Q835.0781,556.2813 835.2813,556.2813 Q835.6094,556.2813 835.8672,556.5391 Q836.125,556.7969 836.125,557.1406 Q836.125,557.4844 835.7813,557.8906 Q835.2813,558.4688 834.4844,558.7969 Q833.4063,559.25 832.1094,559.25 Q830.5938,559.25 829.3906,558.625 Q828.4063,558.125 827.7188,557.0547 Q827.0313,555.9844 827.0313,554.7031 L827.0313,553.5469 Q827.0313,552.2188 827.6484,551.0703 Q828.2656,549.9219 829.3594,549.3047 Q830.4531,548.6875 831.6875,548.6875 Q832.4219,548.6875 833.0703,548.8516 Q833.7188,549.0156 834.2656,549.375 Z " fill="#000000"/><text fill="#000000" font-family="sans-serif" font-size="12" lengthAdjust="spacing" textLength="130" x="845.5" y="558.4102">Contribution_Statement</text><!--MD5=[e67d803be009978640e98815ecdddf28]
class Free_Text_Contribution--><rect codeLine="49" fill="#00FFFF" filter="url(#fhquhjrrl7vqu)" height="53.8359" id="Free_Text_Contribution" style="stroke:#A80036;stroke-width:1.5;" width="160" x="817.5" y="710"/><ellipse cx="832.5" cy="726" fill="#ADD1B2" rx="11" ry="11" style="stroke:#A80036;stroke-width:1.0;"/><path d="M835.2656,721.875 Q835.4219,721.6563 835.6094,721.5469 Q835.7969,721.4375 836.0156,721.4375 Q836.3906,721.4375 836.625,721.6953 Q836.8594,721.9531 836.8594,722.5625 L836.8594,724.0156 Q836.8594,724.625 836.625,724.8906 Q836.3906,725.1563 836.0156,725.1563 Q835.6719,725.1563 835.4688,724.9531 Q835.2656,724.7656 835.1563,724.25 Q835.1094,723.8906 834.9219,723.7031 Q834.5938,723.3281 833.9844,723.1094 Q833.375,722.8906 832.75,722.8906 Q831.9844,722.8906 831.3516,723.2188 Q830.7188,723.5469 830.2266,724.2969 Q829.7344,725.0469 829.7344,726.0781 L829.7344,727.1719 Q829.7344,728.4063 830.625,729.2266 Q831.5156,730.0469 833.1094,730.0469 Q834.0469,730.0469 834.7031,729.7969 Q835.0938,729.6406 835.5156,729.2031 Q835.7813,728.9375 835.9297,728.8594 Q836.0781,728.7813 836.2813,728.7813 Q836.6094,728.7813 836.8672,729.0391 Q837.125,729.2969 837.125,729.6406 Q837.125,729.9844 836.7813,730.3906 Q836.2813,730.9688 835.4844,731.2969 Q834.4063,731.75 833.1094,731.75 Q831.5938,731.75 830.3906,731.125 Q829.4063,730.625 828.7188,729.5547 Q828.0313,728.4844 828.0313,727.2031 L828.0313,726.0469 Q828.0313,724.7188 828.6484,723.5703 Q829.2656,722.4219 830.3594,721.8047 Q831.4531,721.1875 832.6875,721.1875 Q833.4219,721.1875 834.0703,721.3516 Q834.7188,721.5156 835.2656,721.875 Z " fill="#000000"/><text fill="#000000" font-family="sans-serif" font-size="12" lengthAdjust="spacing" textLength="128" x="846.5" y="730.9102">Free_Text_Contribution</text><line style="stroke:#A80036;stroke-width:1.5;" x1="818.5" x2="976.5" y1="742" y2="742"/><text fill="#000000" font-family="sans-serif" font-size="11" lengthAdjust="spacing" textLength="141" x="823.5" y="757.4189">statement : Multilingual_String</text><!--MD5=[ddbff00b4911ad4b77d6aa32dd14d1d7]
class Affiliation_Statement--><rect codeLine="54" fill="#00FFFF" filter="url(#fhquhjrrl7vqu)" height="53.8359" id="Affiliation_Statement" style="stroke:#A80036;stroke-width:1.5;" width="144" x="678.5" y="981"/><ellipse cx="693.5" cy="997" fill="#ADD1B2" rx="11" ry="11" style="stroke:#A80036;stroke-width:1.0;"/><path d="M696.2656,992.875 Q696.4219,992.6563 696.6094,992.5469 Q696.7969,992.4375 697.0156,992.4375 Q697.3906,992.4375 697.625,992.6953 Q697.8594,992.9531 697.8594,993.5625 L697.8594,995.0156 Q697.8594,995.625 697.625,995.8906 Q697.3906,996.1563 697.0156,996.1563 Q696.6719,996.1563 696.4688,995.9531 Q696.2656,995.7656 696.1563,995.25 Q696.1094,994.8906 695.9219,994.7031 Q695.5938,994.3281 694.9844,994.1094 Q694.375,993.8906 693.75,993.8906 Q692.9844,993.8906 692.3516,994.2188 Q691.7188,994.5469 691.2266,995.2969 Q690.7344,996.0469 690.7344,997.0781 L690.7344,998.1719 Q690.7344,999.4063 691.625,1000.2266 Q692.5156,1001.0469 694.1094,1001.0469 Q695.0469,1001.0469 695.7031,1000.7969 Q696.0938,1000.6406 696.5156,1000.2031 Q696.7813,999.9375 696.9297,999.8594 Q697.0781,999.7813 697.2813,999.7813 Q697.6094,999.7813 697.8672,1000.0391 Q698.125,1000.2969 698.125,1000.6406 Q698.125,1000.9844 697.7813,1001.3906 Q697.2813,1001.9688 696.4844,1002.2969 Q695.4063,1002.75 694.1094,1002.75 Q692.5938,1002.75 691.3906,1002.125 Q690.4063,1001.625 689.7188,1000.5547 Q689.0313,999.4844 689.0313,998.2031 L689.0313,997.0469 Q689.0313,995.7188 689.6484,994.5703 Q690.2656,993.4219 691.3594,992.8047 Q692.4531,992.1875 693.6875,992.1875 Q694.4219,992.1875 695.0703,992.3516 Q695.7188,992.5156 696.2656,992.875 Z " fill="#000000"/><text fill="#000000" font-family="sans-serif" font-size="12" lengthAdjust="spacing" textLength="112" x="707.5" y="1001.9102">Affiliation_Statement</text><line style="stroke:#A80036;stroke-width:1.5;" x1="679.5" x2="821.5" y1="1013" y2="1013"/><text fill="#000000" font-family="sans-serif" font-size="11" lengthAdjust="spacing" textLength="116" x="684.5" y="1028.4189">displayAffiliation : String</text><!--MD5=[fe1d14fe6d68ca7e76eb34268c62a1f3]
class Postal_Address--><rect codeLine="57" fill="#00FFFF" filter="url(#fhquhjrrl7vqu)" height="103.5313" id="Postal_Address" style="stroke:#A80036;stroke-width:1.5;" width="120" x="690.5" y="1186"/><ellipse cx="705.5" cy="1206.0938" fill="#FF7700" rx="11" ry="11" style="stroke:#A80036;stroke-width:1.0;"/><path d="M703.0469,1209.3906 L703.0469,1202.7344 Q702.5,1202.7188 702.2422,1202.4844 Q701.9844,1202.25 701.9844,1201.875 Q701.9844,1201.5 702.25,1201.2656 Q702.5156,1201.0313 703.125,1201.0313 L706.6875,1201.0313 Q707.5156,1201.0313 708.3125,1201.3359 Q709.1094,1201.6406 709.5938,1202.125 Q709.9531,1202.4844 710.3438,1203.1016 Q710.7344,1203.7188 710.9375,1204.3359 Q711.1406,1204.9531 711.1406,1205.8438 L711.1406,1206.6563 Q711.1406,1207.7344 710.7734,1208.5703 Q710.4063,1209.4063 709.8125,1209.9297 Q709.2188,1210.4531 708.7031,1210.7031 Q707.875,1211.0938 706.5469,1211.0938 L703.125,1211.0938 Q702.5156,1211.0938 702.25,1210.8594 Q701.9844,1210.625 701.9844,1210.2344 Q701.9844,1209.8594 702.25,1209.625 Q702.5156,1209.3906 703.0469,1209.3906 Z M704.75,1209.3906 L706.5625,1209.3906 Q707.5625,1209.3906 708.0781,1209.0938 Q708.75,1208.7188 709.0938,1208.1328 Q709.4375,1207.5469 709.4375,1206.6094 L709.4375,1205.7969 Q709.4375,1205 709.125,1204.3906 Q708.6406,1203.4375 708.0391,1203.0859 Q707.4375,1202.7344 706.5469,1202.7344 L704.75,1202.7344 L704.75,1209.3906 Z " fill="#000000"/><text fill="#000000" font-family="sans-serif" font-size="12" font-style="italic" lengthAdjust="spacing" textLength="67" x="730" y="1203.457">«DataType»</text><text fill="#000000" font-family="sans-serif" font-size="12" lengthAdjust="spacing" textLength="88" x="719.5" y="1218.5508">Postal_Address</text><line style="stroke:#A80036;stroke-width:1.5;" x1="691.5" x2="809.5" y1="1226.1875" y2="1226.1875"/><text fill="#000000" font-family="sans-serif" font-size="11" lengthAdjust="spacing" textLength="65" x="696.5" y="1241.6064">street : String</text><text fill="#000000" font-family="sans-serif" font-size="11" lengthAdjust="spacing" textLength="54" x="696.5" y="1255.4424">city : String</text><text fill="#000000" font-family="sans-serif" font-size="11" lengthAdjust="spacing" textLength="76" x="696.5" y="1269.2783">zipCode : String</text><text fill="#000000" font-family="sans-serif" font-size="11" lengthAdjust="spacing" textLength="84" x="696.5" y="1283.1143">country : Country</text><!--MD5=[deb4e1f6eb1e3c1256fdb830f96abfbb]
class Country--><rect codeLine="63" fill="#00FFFF" filter="url(#fhquhjrrl7vqu)" height="95.3438" id="Country" style="stroke:#A80036;stroke-width:1.5;" width="254" x="623.5" y="1351"/><ellipse cx="725.25" cy="1367" fill="#ADD1B2" rx="11" ry="11" style="stroke:#A80036;stroke-width:1.0;"/><path d="M728.0156,1362.875 Q728.1719,1362.6563 728.3594,1362.5469 Q728.5469,1362.4375 728.7656,1362.4375 Q729.1406,1362.4375 729.375,1362.6953 Q729.6094,1362.9531 729.6094,1363.5625 L729.6094,1365.0156 Q729.6094,1365.625 729.375,1365.8906 Q729.1406,1366.1563 728.7656,1366.1563 Q728.4219,1366.1563 728.2188,1365.9531 Q728.0156,1365.7656 727.9063,1365.25 Q727.8594,1364.8906 727.6719,1364.7031 Q727.3438,1364.3281 726.7344,1364.1094 Q726.125,1363.8906 725.5,1363.8906 Q724.7344,1363.8906 724.1016,1364.2188 Q723.4688,1364.5469 722.9766,1365.2969 Q722.4844,1366.0469 722.4844,1367.0781 L722.4844,1368.1719 Q722.4844,1369.4063 723.375,1370.2266 Q724.2656,1371.0469 725.8594,1371.0469 Q726.7969,1371.0469 727.4531,1370.7969 Q727.8438,1370.6406 728.2656,1370.2031 Q728.5313,1369.9375 728.6797,1369.8594 Q728.8281,1369.7813 729.0313,1369.7813 Q729.3594,1369.7813 729.6172,1370.0391 Q729.875,1370.2969 729.875,1370.6406 Q729.875,1370.9844 729.5313,1371.3906 Q729.0313,1371.9688 728.2344,1372.2969 Q727.1563,1372.75 725.8594,1372.75 Q724.3438,1372.75 723.1406,1372.125 Q722.1563,1371.625 721.4688,1370.5547 Q720.7813,1369.4844 720.7813,1368.2031 L720.7813,1367.0469 Q720.7813,1365.7188 721.3984,1364.5703 Q722.0156,1363.4219 723.1094,1362.8047 Q724.2031,1362.1875 725.4375,1362.1875 Q726.1719,1362.1875 726.8203,1362.3516 Q727.4688,1362.5156 728.0156,1362.875 Z " fill="#000000"/><text fill="#000000" font-family="sans-serif" font-size="12" lengthAdjust="spacing" textLength="42" x="745.75" y="1371.9102">Country</text><line style="stroke:#A80036;stroke-width:1.5;" x1="624.5" x2="876.5" y1="1383" y2="1383"/><text fill="#000000" font-family="sans-serif" font-size="11" lengthAdjust="spacing" textLength="120" x="643.5" y="1398.4189">name : Multilingual_String</text><text fill="#000000" font-family="sans-serif" font-size="11" lengthAdjust="spacing" textLength="216" x="643.5" y="1412.2549">iso3166alpha2Code : ISO3166_Alpha2_Code</text><polygon fill="none" points="634.5,1416.6719,638.5,1420.6719,634.5,1424.6719,630.5,1420.6719" style="stroke:#B38D22;stroke-width:1.0;"/><text fill="#000000" font-family="sans-serif" font-size="11" lengthAdjust="spacing" textLength="228" x="643.5" y="1426.0908">iso3166NumericCode : ISO3166_Numeric_Code</text><polygon fill="none" points="634.5,1430.5078,638.5,1434.5078,634.5,1438.5078,630.5,1434.5078" style="stroke:#B38D22;stroke-width:1.0;"/><text fill="#000000" font-family="sans-serif" font-size="11" lengthAdjust="spacing" textLength="172" x="643.5" y="1439.9268">euCountryCode : EU_Country_Code</text><path d="M6,683 L6,791.1094 A0,0 0 0 0 6,791.1094 L247,791.1094 A0,0 0 0 0 247,791.1094 L247,741 L281.82,737 L247,733 L247,693 L237,683 L6,683 A0,0 0 0 0 6,683 " fill="#FBFB77" filter="url(#fhquhjrrl7vqu)" style="stroke:#A80036;stroke-width:1.0;"/><path d="M237,683 L237,693 L247,693 L237,683 " fill="#FBFB77" style="stroke:#A80036;stroke-width:1.0;"/><text fill="#000000" font-family="sans-serif" font-size="13" lengthAdjust="spacing" textLength="216" x="12" y="701.4951">The Agent is mandatory for almost all</text><text fill="#000000" font-family="sans-serif" font-size="13" lengthAdjust="spacing" textLength="175" x="12" y="717.8467">subclasses of Contributorship,</text><text fill="#000000" font-family="sans-serif" font-size="13" lengthAdjust="spacing" textLength="185" x="12" y="734.1982">Reviewing is the exception if the</text><text fill="#000000" font-family="sans-serif" font-size="13" lengthAdjust="spacing" textLength="182" x="12" y="750.5498">reviewer's identity is concealed.</text><text fill="#000000" font-family="sans-serif" font-size="13" lengthAdjust="spacing" textLength="167" x="12" y="766.9014">Also useful when authors are</text><text fill="#000000" font-family="sans-serif" font-size="13" lengthAdjust="spacing" textLength="113" x="12" y="783.2529">using pseudonyms.</text><!--MD5=[414fda41094e70cb8ad23c9df979af6c]
class COAR_Accessibility_Specification_v1--><rect codeLine="8" fill="#FEFECE" filter="url(#fhquhjrrl7vqu)" height="32" id="COAR_Accessibility_Specification_v1" style="stroke:#A80036;stroke-width:1.5;" width="236" x="1258.5" y="186"/><ellipse cx="1273.5" cy="202" fill="#ADD1B2" rx="11" ry="11" style="stroke:#A80036;stroke-width:1.0;"/><path d="M1276.2656,197.875 Q1276.4219,197.6563 1276.6094,197.5469 Q1276.7969,197.4375 1277.0156,197.4375 Q1277.3906,197.4375 1277.625,197.6953 Q1277.8594,197.9531 1277.8594,198.5625 L1277.8594,200.0156 Q1277.8594,200.625 1277.625,200.8906 Q1277.3906,201.1563 1277.0156,201.1563 Q1276.6719,201.1563 1276.4688,200.9531 Q1276.2656,200.7656 1276.1563,200.25 Q1276.1094,199.8906 1275.9219,199.7031 Q1275.5938,199.3281 1274.9844,199.1094 Q1274.375,198.8906 1273.75,198.8906 Q1272.9844,198.8906 1272.3516,199.2188 Q1271.7188,199.5469 1271.2266,200.2969 Q1270.7344,201.0469 1270.7344,202.0781 L1270.7344,203.1719 Q1270.7344,204.4063 1271.625,205.2266 Q1272.5156,206.0469 1274.1094,206.0469 Q1275.0469,206.0469 1275.7031,205.7969 Q1276.0938,205.6406 1276.5156,205.2031 Q1276.7813,204.9375 1276.9297,204.8594 Q1277.0781,204.7813 1277.2813,204.7813 Q1277.6094,204.7813 1277.8672,205.0391 Q1278.125,205.2969 1278.125,205.6406 Q1278.125,205.9844 1277.7813,206.3906 Q1277.2813,206.9688 1276.4844,207.2969 Q1275.4063,207.75 1274.1094,207.75 Q1272.5938,207.75 1271.3906,207.125 Q1270.4063,206.625 1269.7188,205.5547 Q1269.0313,204.4844 1269.0313,203.2031 L1269.0313,202.0469 Q1269.0313,200.7188 1269.6484,199.5703 Q1270.2656,198.4219 1271.3594,197.8047 Q1272.4531,197.1875 1273.6875,197.1875 Q1274.4219,197.1875 1275.0703,197.3516 Q1275.7188,197.5156 1276.2656,197.875 Z " fill="#000000"/><text fill="#000000" font-family="sans-serif" font-size="12" lengthAdjust="spacing" textLength="204" x="1287.5" y="206.9102">COAR_Accessibility_Specification_v1</text><!--MD5=[f37eb47bd79d8dc5fbf0575eddff0ae5]
class Open_Access_COAR_v1_Accessibility_Specification--><rect codeLine="10" fill="#FEFECE" filter="url(#fhquhjrrl7vqu)" height="32" id="Open_Access_COAR_v1_Accessibility_Specification" style="stroke:#A80036;stroke-width:1.5;" width="320" x="1585.5" y="321.5"/><ellipse cx="1600.5" cy="337.5" fill="#ADD1B2" rx="11" ry="11" style="stroke:#A80036;stroke-width:1.0;"/><path d="M1603.2656,333.375 Q1603.4219,333.1563 1603.6094,333.0469 Q1603.7969,332.9375 1604.0156,332.9375 Q1604.3906,332.9375 1604.625,333.1953 Q1604.8594,333.4531 1604.8594,334.0625 L1604.8594,335.5156 Q1604.8594,336.125 1604.625,336.3906 Q1604.3906,336.6563 1604.0156,336.6563 Q1603.6719,336.6563 1603.4688,336.4531 Q1603.2656,336.2656 1603.1563,335.75 Q1603.1094,335.3906 1602.9219,335.2031 Q1602.5938,334.8281 1601.9844,334.6094 Q1601.375,334.3906 1600.75,334.3906 Q1599.9844,334.3906 1599.3516,334.7188 Q1598.7188,335.0469 1598.2266,335.7969 Q1597.7344,336.5469 1597.7344,337.5781 L1597.7344,338.6719 Q1597.7344,339.9063 1598.625,340.7266 Q1599.5156,341.5469 1601.1094,341.5469 Q1602.0469,341.5469 1602.7031,341.2969 Q1603.0938,341.1406 1603.5156,340.7031 Q1603.7813,340.4375 1603.9297,340.3594 Q1604.0781,340.2813 1604.2813,340.2813 Q1604.6094,340.2813 1604.8672,340.5391 Q1605.125,340.7969 1605.125,341.1406 Q1605.125,341.4844 1604.7813,341.8906 Q1604.2813,342.4688 1603.4844,342.7969 Q1602.4063,343.25 1601.1094,343.25 Q1599.5938,343.25 1598.3906,342.625 Q1597.4063,342.125 1596.7188,341.0547 Q1596.0313,339.9844 1596.0313,338.7031 L1596.0313,337.5469 Q1596.0313,336.2188 1596.6484,335.0703 Q1597.2656,333.9219 1598.3594,333.3047 Q1599.4531,332.6875 1600.6875,332.6875 Q1601.4219,332.6875 1602.0703,332.8516 Q1602.7188,333.0156 1603.2656,333.375 Z " fill="#000000"/><text fill="#000000" font-family="sans-serif" font-size="12" lengthAdjust="spacing" textLength="288" x="1614.5" y="342.4102">Open_Access_COAR_v1_Accessibility_Specification</text><!--MD5=[0af8ccda619914f5a4a578f128776a63]
class Restricted_Access_COAR_v1_Accessibility_Specification--><rect codeLine="12" fill="#FEFECE" filter="url(#fhquhjrrl7vqu)" height="32" id="Restricted_Access_COAR_v1_Accessibility_Specification" style="stroke:#A80036;stroke-width:1.5;" width="346" x="1940.5" y="321.5"/><ellipse cx="1955.5" cy="337.5" fill="#ADD1B2" rx="11" ry="11" style="stroke:#A80036;stroke-width:1.0;"/><path d="M1958.2656,333.375 Q1958.4219,333.1563 1958.6094,333.0469 Q1958.7969,332.9375 1959.0156,332.9375 Q1959.3906,332.9375 1959.625,333.1953 Q1959.8594,333.4531 1959.8594,334.0625 L1959.8594,335.5156 Q1959.8594,336.125 1959.625,336.3906 Q1959.3906,336.6563 1959.0156,336.6563 Q1958.6719,336.6563 1958.4688,336.4531 Q1958.2656,336.2656 1958.1563,335.75 Q1958.1094,335.3906 1957.9219,335.2031 Q1957.5938,334.8281 1956.9844,334.6094 Q1956.375,334.3906 1955.75,334.3906 Q1954.9844,334.3906 1954.3516,334.7188 Q1953.7188,335.0469 1953.2266,335.7969 Q1952.7344,336.5469 1952.7344,337.5781 L1952.7344,338.6719 Q1952.7344,339.9063 1953.625,340.7266 Q1954.5156,341.5469 1956.1094,341.5469 Q1957.0469,341.5469 1957.7031,341.2969 Q1958.0938,341.1406 1958.5156,340.7031 Q1958.7813,340.4375 1958.9297,340.3594 Q1959.0781,340.2813 1959.2813,340.2813 Q1959.6094,340.2813 1959.8672,340.5391 Q1960.125,340.7969 1960.125,341.1406 Q1960.125,341.4844 1959.7813,341.8906 Q1959.2813,342.4688 1958.4844,342.7969 Q1957.4063,343.25 1956.1094,343.25 Q1954.5938,343.25 1953.3906,342.625 Q1952.4063,342.125 1951.7188,341.0547 Q1951.0313,339.9844 1951.0313,338.7031 L1951.0313,337.5469 Q1951.0313,336.2188 1951.6484,335.0703 Q1952.2656,333.9219 1953.3594,333.3047 Q1954.4531,332.6875 1955.6875,332.6875 Q1956.4219,332.6875 1957.0703,332.8516 Q1957.7188,333.0156 1958.2656,333.375 Z " fill="#000000"/><text fill="#000000" font-family="sans-serif" font-size="12" lengthAdjust="spacing" textLength="314" x="1969.5" y="342.4102">Restricted_Access_COAR_v1_Accessibility_Specification</text><!--MD5=[c2aa5301644b65ca4f208a5b4b977066]
class Metadata_Only_Access_COAR_v1_Accessibility_Specification--><rect codeLine="14" fill="#FEFECE" filter="url(#fhquhjrrl7vqu)" height="32" id="Metadata_Only_Access_COAR_v1_Accessibility_Specification" style="stroke:#A80036;stroke-width:1.5;" width="371" x="796" y="321.5"/><ellipse cx="811" cy="337.5" fill="#ADD1B2" rx="11" ry="11" style="stroke:#A80036;stroke-width:1.0;"/><path d="M813.7656,333.375 Q813.9219,333.1563 814.1094,333.0469 Q814.2969,332.9375 814.5156,332.9375 Q814.8906,332.9375 815.125,333.1953 Q815.3594,333.4531 815.3594,334.0625 L815.3594,335.5156 Q815.3594,336.125 815.125,336.3906 Q814.8906,336.6563 814.5156,336.6563 Q814.1719,336.6563 813.9688,336.4531 Q813.7656,336.2656 813.6563,335.75 Q813.6094,335.3906 813.4219,335.2031 Q813.0938,334.8281 812.4844,334.6094 Q811.875,334.3906 811.25,334.3906 Q810.4844,334.3906 809.8516,334.7188 Q809.2188,335.0469 808.7266,335.7969 Q808.2344,336.5469 808.2344,337.5781 L808.2344,338.6719 Q808.2344,339.9063 809.125,340.7266 Q810.0156,341.5469 811.6094,341.5469 Q812.5469,341.5469 813.2031,341.2969 Q813.5938,341.1406 814.0156,340.7031 Q814.2813,340.4375 814.4297,340.3594 Q814.5781,340.2813 814.7813,340.2813 Q815.1094,340.2813 815.3672,340.5391 Q815.625,340.7969 815.625,341.1406 Q815.625,341.4844 815.2813,341.8906 Q814.7813,342.4688 813.9844,342.7969 Q812.9063,343.25 811.6094,343.25 Q810.0938,343.25 808.8906,342.625 Q807.9063,342.125 807.2188,341.0547 Q806.5313,339.9844 806.5313,338.7031 L806.5313,337.5469 Q806.5313,336.2188 807.1484,335.0703 Q807.7656,333.9219 808.8594,333.3047 Q809.9531,332.6875 811.1875,332.6875 Q811.9219,332.6875 812.5703,332.8516 Q813.2188,333.0156 813.7656,333.375 Z " fill="#000000"/><text fill="#000000" font-family="sans-serif" font-size="12" lengthAdjust="spacing" textLength="339" x="825" y="342.4102">Metadata_Only_Access_COAR_v1_Accessibility_Specification</text><!--MD5=[7e0e82b0109bd0babe1390b735a24d99]
class Emargoed_Access_COAR_v1_Accessibility_Specification--><rect codeLine="16" fill="#FEFECE" filter="url(#fhquhjrrl7vqu)" height="53.8359" id="Emargoed_Access_COAR_v1_Accessibility_Specification" style="stroke:#A80036;stroke-width:1.5;" width="348" x="1202.5" y="310.5"/><ellipse cx="1217.5" cy="326.5" fill="#ADD1B2" rx="11" ry="11" style="stroke:#A80036;stroke-width:1.0;"/><path d="M1220.2656,322.375 Q1220.4219,322.1563 1220.6094,322.0469 Q1220.7969,321.9375 1221.0156,321.9375 Q1221.3906,321.9375 1221.625,322.1953 Q1221.8594,322.4531 1221.8594,323.0625 L1221.8594,324.5156 Q1221.8594,325.125 1221.625,325.3906 Q1221.3906,325.6563 1221.0156,325.6563 Q1220.6719,325.6563 1220.4688,325.4531 Q1220.2656,325.2656 1220.1563,324.75 Q1220.1094,324.3906 1219.9219,324.2031 Q1219.5938,323.8281 1218.9844,323.6094 Q1218.375,323.3906 1217.75,323.3906 Q1216.9844,323.3906 1216.3516,323.7188 Q1215.7188,324.0469 1215.2266,324.7969 Q1214.7344,325.5469 1214.7344,326.5781 L1214.7344,327.6719 Q1214.7344,328.9063 1215.625,329.7266 Q1216.5156,330.5469 1218.1094,330.5469 Q1219.0469,330.5469 1219.7031,330.2969 Q1220.0938,330.1406 1220.5156,329.7031 Q1220.7813,329.4375 1220.9297,329.3594 Q1221.0781,329.2813 1221.2813,329.2813 Q1221.6094,329.2813 1221.8672,329.5391 Q1222.125,329.7969 1222.125,330.1406 Q1222.125,330.4844 1221.7813,330.8906 Q1221.2813,331.4688 1220.4844,331.7969 Q1219.4063,332.25 1218.1094,332.25 Q1216.5938,332.25 1215.3906,331.625 Q1214.4063,331.125 1213.7188,330.0547 Q1213.0313,328.9844 1213.0313,327.7031 L1213.0313,326.5469 Q1213.0313,325.2188 1213.6484,324.0703 Q1214.2656,322.9219 1215.3594,322.3047 Q1216.4531,321.6875 1217.6875,321.6875 Q1218.4219,321.6875 1219.0703,321.8516 Q1219.7188,322.0156 1220.2656,322.375 Z " fill="#000000"/><text fill="#000000" font-family="sans-serif" font-size="12" lengthAdjust="spacing" textLength="316" x="1231.5" y="331.4102">Emargoed_Access_COAR_v1_Accessibility_Specification</text><line style="stroke:#A80036;stroke-width:1.5;" x1="1203.5" x2="1549.5" y1="342.5" y2="342.5"/><text fill="#000000" font-family="sans-serif" font-size="11" lengthAdjust="spacing" textLength="113" x="1208.5" y="357.9189">embargoEndDate : Date</text><!--MD5=[9a5422ab15122c8d1cd75d14414799b8]
class Journal--><rect codeLine="22" fill="#FEFECE" filter="url(#fhquhjrrl7vqu)" height="136.8516" id="Journal" style="stroke:#A80036;stroke-width:1.5;" width="148" x="437.5" y="485"/><ellipse cx="486.75" cy="501" fill="#ADD1B2" rx="11" ry="11" style="stroke:#A80036;stroke-width:1.0;"/><path d="M489.5156,496.875 Q489.6719,496.6563 489.8594,496.5469 Q490.0469,496.4375 490.2656,496.4375 Q490.6406,496.4375 490.875,496.6953 Q491.1094,496.9531 491.1094,497.5625 L491.1094,499.0156 Q491.1094,499.625 490.875,499.8906 Q490.6406,500.1563 490.2656,500.1563 Q489.9219,500.1563 489.7188,499.9531 Q489.5156,499.7656 489.4063,499.25 Q489.3594,498.8906 489.1719,498.7031 Q488.8438,498.3281 488.2344,498.1094 Q487.625,497.8906 487,497.8906 Q486.2344,497.8906 485.6016,498.2188 Q484.9688,498.5469 484.4766,499.2969 Q483.9844,500.0469 483.9844,501.0781 L483.9844,502.1719 Q483.9844,503.4063 484.875,504.2266 Q485.7656,505.0469 487.3594,505.0469 Q488.2969,505.0469 488.9531,504.7969 Q489.3438,504.6406 489.7656,504.2031 Q490.0313,503.9375 490.1797,503.8594 Q490.3281,503.7813 490.5313,503.7813 Q490.8594,503.7813 491.1172,504.0391 Q491.375,504.2969 491.375,504.6406 Q491.375,504.9844 491.0313,505.3906 Q490.5313,505.9688 489.7344,506.2969 Q488.6563,506.75 487.3594,506.75 Q485.8438,506.75 484.6406,506.125 Q483.6563,505.625 482.9688,504.5547 Q482.2813,503.4844 482.2813,502.2031 L482.2813,501.0469 Q482.2813,499.7188 482.8984,498.5703 Q483.5156,497.4219 484.6094,496.8047 Q485.7031,496.1875 486.9375,496.1875 Q487.6719,496.1875 488.3203,496.3516 Q488.9688,496.5156 489.5156,496.875 Z " fill="#000000"/><text fill="#000000" font-family="sans-serif" font-size="12" lengthAdjust="spacing" textLength="41" x="507.25" y="505.9102">Journal</text><line style="stroke:#A80036;stroke-width:1.5;" x1="438.5" x2="584.5" y1="517" y2="517"/><text fill="#000000" font-family="sans-serif" font-size="11" lengthAdjust="spacing" textLength="73" x="443.5" y="532.4189">DOI : DOI_Type</text><text fill="#000000" font-family="sans-serif" font-size="11" lengthAdjust="spacing" textLength="110" x="443.5" y="546.2549">title : Multilingual_String</text><text fill="#000000" font-family="sans-serif" font-size="11" lengthAdjust="spacing" textLength="85" x="443.5" y="560.0908">ISSN : ISSN_Type</text><text fill="#000000" font-family="sans-serif" font-size="11" lengthAdjust="spacing" textLength="91" x="443.5" y="573.9268">eISSN : ISSN_Type</text><text fill="#000000" font-family="sans-serif" font-size="11" lengthAdjust="spacing" textLength="136" x="443.5" y="587.7627">acronym : Multilingual_String</text><text fill="#000000" font-family="sans-serif" font-size="11" lengthAdjust="spacing" textLength="75" x="443.5" y="601.5986">startDate : Date</text><text fill="#000000" font-family="sans-serif" font-size="11" lengthAdjust="spacing" textLength="71" x="443.5" y="615.4346">endDate : Date</text><!--MD5=[6187a6e1e3f43e4e2525b450325f9ab5]
class Journal_Article--><rect codeLine="32" fill="#FEFECE" filter="url(#fhquhjrrl7vqu)" height="95.3438" id="Journal_Article" style="stroke:#A80036;stroke-width:1.5;" width="113" x="438" y="290"/><ellipse cx="453" cy="306" fill="#ADD1B2" rx="11" ry="11" style="stroke:#A80036;stroke-width:1.0;"/><path d="M455.7656,301.875 Q455.9219,301.6563 456.1094,301.5469 Q456.2969,301.4375 456.5156,301.4375 Q456.8906,301.4375 457.125,301.6953 Q457.3594,301.9531 457.3594,302.5625 L457.3594,304.0156 Q457.3594,304.625 457.125,304.8906 Q456.8906,305.1563 456.5156,305.1563 Q456.1719,305.1563 455.9688,304.9531 Q455.7656,304.7656 455.6563,304.25 Q455.6094,303.8906 455.4219,303.7031 Q455.0938,303.3281 454.4844,303.1094 Q453.875,302.8906 453.25,302.8906 Q452.4844,302.8906 451.8516,303.2188 Q451.2188,303.5469 450.7266,304.2969 Q450.2344,305.0469 450.2344,306.0781 L450.2344,307.1719 Q450.2344,308.4063 451.125,309.2266 Q452.0156,310.0469 453.6094,310.0469 Q454.5469,310.0469 455.2031,309.7969 Q455.5938,309.6406 456.0156,309.2031 Q456.2813,308.9375 456.4297,308.8594 Q456.5781,308.7813 456.7813,308.7813 Q457.1094,308.7813 457.3672,309.0391 Q457.625,309.2969 457.625,309.6406 Q457.625,309.9844 457.2813,310.3906 Q456.7813,310.9688 455.9844,311.2969 Q454.9063,311.75 453.6094,311.75 Q452.0938,311.75 450.8906,311.125 Q449.9063,310.625 449.2188,309.5547 Q448.5313,308.4844 448.5313,307.2031 L448.5313,306.0469 Q448.5313,304.7188 449.1484,303.5703 Q449.7656,302.4219 450.8594,301.8047 Q451.9531,301.1875 453.1875,301.1875 Q453.9219,301.1875 454.5703,301.3516 Q455.2188,301.5156 455.7656,301.875 Z " fill="#000000"/><text fill="#000000" font-family="sans-serif" font-size="12" lengthAdjust="spacing" textLength="81" x="467" y="310.9102">Journal_Article</text><line style="stroke:#A80036;stroke-width:1.5;" x1="439" x2="550" y1="322" y2="322"/><text fill="#000000" font-family="sans-serif" font-size="11" lengthAdjust="spacing" textLength="83" x="444" y="337.4189">startPage : String</text><text fill="#000000" font-family="sans-serif" font-size="11" lengthAdjust="spacing" textLength="79" x="444" y="351.2549">endPage : String</text><text fill="#000000" font-family="sans-serif" font-size="11" lengthAdjust="spacing" textLength="71" x="444" y="365.0908">volume : String</text><text fill="#000000" font-family="sans-serif" font-size="11" lengthAdjust="spacing" textLength="73" x="444" y="378.9268">number : String</text><!--MD5=[1fdedf30c4d453a61b3bca926ec95b50]
class Monograph--><rect codeLine="40" fill="#FEFECE" filter="url(#fhquhjrrl7vqu)" height="67.6719" id="Monograph" style="stroke:#A80036;stroke-width:1.5;" width="103" x="586" y="303.5"/><ellipse cx="605.05" cy="319.5" fill="#ADD1B2" rx="11" ry="11" style="stroke:#A80036;stroke-width:1.0;"/><path d="M607.8156,315.375 Q607.9719,315.1563 608.1594,315.0469 Q608.3469,314.9375 608.5656,314.9375 Q608.9406,314.9375 609.175,315.1953 Q609.4094,315.4531 609.4094,316.0625 L609.4094,317.5156 Q609.4094,318.125 609.175,318.3906 Q608.9406,318.6563 608.5656,318.6563 Q608.2219,318.6563 608.0188,318.4531 Q607.8156,318.2656 607.7063,317.75 Q607.6594,317.3906 607.4719,317.2031 Q607.1438,316.8281 606.5344,316.6094 Q605.925,316.3906 605.3,316.3906 Q604.5344,316.3906 603.9016,316.7188 Q603.2688,317.0469 602.7766,317.7969 Q602.2844,318.5469 602.2844,319.5781 L602.2844,320.6719 Q602.2844,321.9063 603.175,322.7266 Q604.0656,323.5469 605.6594,323.5469 Q606.5969,323.5469 607.2531,323.2969 Q607.6438,323.1406 608.0656,322.7031 Q608.3313,322.4375 608.4797,322.3594 Q608.6281,322.2813 608.8313,322.2813 Q609.1594,322.2813 609.4172,322.5391 Q609.675,322.7969 609.675,323.1406 Q609.675,323.4844 609.3313,323.8906 Q608.8313,324.4688 608.0344,324.7969 Q606.9563,325.25 605.6594,325.25 Q604.1438,325.25 602.9406,324.625 Q601.9563,324.125 601.2688,323.0547 Q600.5813,321.9844 600.5813,320.7031 L600.5813,319.5469 Q600.5813,318.2188 601.1984,317.0703 Q601.8156,315.9219 602.9094,315.3047 Q604.0031,314.6875 605.2375,314.6875 Q605.9719,314.6875 606.6203,314.8516 Q607.2688,315.0156 607.8156,315.375 Z " fill="#000000"/><text fill="#000000" font-family="sans-serif" font-size="12" lengthAdjust="spacing" textLength="62" x="619.95" y="324.4102">Monograph</text><line style="stroke:#A80036;stroke-width:1.5;" x1="587" x2="688" y1="335.5" y2="335.5"/><text fill="#000000" font-family="sans-serif" font-size="11" lengthAdjust="spacing" textLength="85" x="592" y="350.9189">ISBN : ISBN_Type</text><text fill="#000000" font-family="sans-serif" font-size="11" lengthAdjust="spacing" textLength="91" x="592" y="364.7549">eISBN : ISBN_Type</text><!--MD5=[4a7b763a7b102fc008b27a6c6e822cfd]
class Editorship--><rect codeLine="44" fill="#FEFECE" filter="url(#fhquhjrrl7vqu)" height="53.8359" id="Editorship" style="stroke:#A80036;stroke-width:1.5;" width="141" x="502" y="981"/><ellipse cx="540.85" cy="997" fill="#ADD1B2" rx="11" ry="11" style="stroke:#A80036;stroke-width:1.0;"/><path d="M543.6156,992.875 Q543.7719,992.6563 543.9594,992.5469 Q544.1469,992.4375 544.3656,992.4375 Q544.7406,992.4375 544.975,992.6953 Q545.2094,992.9531 545.2094,993.5625 L545.2094,995.0156 Q545.2094,995.625 544.975,995.8906 Q544.7406,996.1563 544.3656,996.1563 Q544.0219,996.1563 543.8188,995.9531 Q543.6156,995.7656 543.5063,995.25 Q543.4594,994.8906 543.2719,994.7031 Q542.9438,994.3281 542.3344,994.1094 Q541.725,993.8906 541.1,993.8906 Q540.3344,993.8906 539.7016,994.2188 Q539.0688,994.5469 538.5766,995.2969 Q538.0844,996.0469 538.0844,997.0781 L538.0844,998.1719 Q538.0844,999.4063 538.975,1000.2266 Q539.8656,1001.0469 541.4594,1001.0469 Q542.3969,1001.0469 543.0531,1000.7969 Q543.4438,1000.6406 543.8656,1000.2031 Q544.1313,999.9375 544.2797,999.8594 Q544.4281,999.7813 544.6313,999.7813 Q544.9594,999.7813 545.2172,1000.0391 Q545.475,1000.2969 545.475,1000.6406 Q545.475,1000.9844 545.1313,1001.3906 Q544.6313,1001.9688 543.8344,1002.2969 Q542.7563,1002.75 541.4594,1002.75 Q539.9438,1002.75 538.7406,1002.125 Q537.7563,1001.625 537.0688,1000.5547 Q536.3813,999.4844 536.3813,998.2031 L536.3813,997.0469 Q536.3813,995.7188 536.9984,994.5703 Q537.6156,993.4219 538.7094,992.8047 Q539.8031,992.1875 541.0375,992.1875 Q541.7719,992.1875 542.4203,992.3516 Q543.0688,992.5156 543.6156,992.875 Z " fill="#000000"/><text fill="#000000" font-family="sans-serif" font-size="12" lengthAdjust="spacing" textLength="56" x="560.15" y="1001.9102">Editorship</text><line style="stroke:#A80036;stroke-width:1.5;" x1="503" x2="642" y1="1013" y2="1013"/><text fill="#000000" font-family="sans-serif" font-size="11" lengthAdjust="spacing" textLength="129" x="508" y="1028.4189">leadingEditorFlag : Boolean</text><!--MD5=[818ab24020f8c95f650e208dd398987b]
class Publishership--><rect codeLine="47" fill="#FEFECE" filter="url(#fhquhjrrl7vqu)" height="53.8359" id="Publishership" style="stroke:#A80036;stroke-width:1.5;" width="158" x="308.5" y="981"/><ellipse cx="345.55" cy="997" fill="#ADD1B2" rx="11" ry="11" style="stroke:#A80036;stroke-width:1.0;"/><path d="M348.3156,992.875 Q348.4719,992.6563 348.6594,992.5469 Q348.8469,992.4375 349.0656,992.4375 Q349.4406,992.4375 349.675,992.6953 Q349.9094,992.9531 349.9094,993.5625 L349.9094,995.0156 Q349.9094,995.625 349.675,995.8906 Q349.4406,996.1563 349.0656,996.1563 Q348.7219,996.1563 348.5188,995.9531 Q348.3156,995.7656 348.2063,995.25 Q348.1594,994.8906 347.9719,994.7031 Q347.6438,994.3281 347.0344,994.1094 Q346.425,993.8906 345.8,993.8906 Q345.0344,993.8906 344.4016,994.2188 Q343.7688,994.5469 343.2766,995.2969 Q342.7844,996.0469 342.7844,997.0781 L342.7844,998.1719 Q342.7844,999.4063 343.675,1000.2266 Q344.5656,1001.0469 346.1594,1001.0469 Q347.0969,1001.0469 347.7531,1000.7969 Q348.1438,1000.6406 348.5656,1000.2031 Q348.8313,999.9375 348.9797,999.8594 Q349.1281,999.7813 349.3313,999.7813 Q349.6594,999.7813 349.9172,1000.0391 Q350.175,1000.2969 350.175,1000.6406 Q350.175,1000.9844 349.8313,1001.3906 Q349.3313,1001.9688 348.5344,1002.2969 Q347.4563,1002.75 346.1594,1002.75 Q344.6438,1002.75 343.4406,1002.125 Q342.4563,1001.625 341.7688,1000.5547 Q341.0813,999.4844 341.0813,998.2031 L341.0813,997.0469 Q341.0813,995.7188 341.6984,994.5703 Q342.3156,993.4219 343.4094,992.8047 Q344.5031,992.1875 345.7375,992.1875 Q346.4719,992.1875 347.1203,992.3516 Q347.7688,992.5156 348.3156,992.875 Z " fill="#000000"/><text fill="#000000" font-family="sans-serif" font-size="12" lengthAdjust="spacing" textLength="77" x="364.45" y="1001.9102">Publishership</text><line style="stroke:#A80036;stroke-width:1.5;" x1="309.5" x2="465.5" y1="1013" y2="1013"/><text fill="#000000" font-family="sans-serif" font-size="11" lengthAdjust="spacing" textLength="146" x="314.5" y="1028.4189">leadingPublisherFlag : Boolean</text><!--MD5=[3d3814e6d18e193800c83fb27de84142]
class CRediT_Contribution_Statement--><rect codeLine="51" fill="#FEFECE" filter="url(#fhquhjrrl7vqu)" height="32" id="CRediT_Contribution_Statement" style="stroke:#A80036;stroke-width:1.5;" width="211" x="1013" y="721"/><ellipse cx="1028" cy="737" fill="#ADD1B2" rx="11" ry="11" style="stroke:#A80036;stroke-width:1.0;"/><path d="M1030.7656,732.875 Q1030.9219,732.6563 1031.1094,732.5469 Q1031.2969,732.4375 1031.5156,732.4375 Q1031.8906,732.4375 1032.125,732.6953 Q1032.3594,732.9531 1032.3594,733.5625 L1032.3594,735.0156 Q1032.3594,735.625 1032.125,735.8906 Q1031.8906,736.1563 1031.5156,736.1563 Q1031.1719,736.1563 1030.9688,735.9531 Q1030.7656,735.7656 1030.6563,735.25 Q1030.6094,734.8906 1030.4219,734.7031 Q1030.0938,734.3281 1029.4844,734.1094 Q1028.875,733.8906 1028.25,733.8906 Q1027.4844,733.8906 1026.8516,734.2188 Q1026.2188,734.5469 1025.7266,735.2969 Q1025.2344,736.0469 1025.2344,737.0781 L1025.2344,738.1719 Q1025.2344,739.4063 1026.125,740.2266 Q1027.0156,741.0469 1028.6094,741.0469 Q1029.5469,741.0469 1030.2031,740.7969 Q1030.5938,740.6406 1031.0156,740.2031 Q1031.2813,739.9375 1031.4297,739.8594 Q1031.5781,739.7813 1031.7813,739.7813 Q1032.1094,739.7813 1032.3672,740.0391 Q1032.625,740.2969 1032.625,740.6406 Q1032.625,740.9844 1032.2813,741.3906 Q1031.7813,741.9688 1030.9844,742.2969 Q1029.9063,742.75 1028.6094,742.75 Q1027.0938,742.75 1025.8906,742.125 Q1024.9063,741.625 1024.2188,740.5547 Q1023.5313,739.4844 1023.5313,738.2031 L1023.5313,737.0469 Q1023.5313,735.7188 1024.1484,734.5703 Q1024.7656,733.4219 1025.8594,732.8047 Q1026.9531,732.1875 1028.1875,732.1875 Q1028.9219,732.1875 1029.5703,732.3516 Q1030.2188,732.5156 1030.7656,732.875 Z " fill="#000000"/><text fill="#000000" font-family="sans-serif" font-size="12" lengthAdjust="spacing" textLength="179" x="1042" y="741.9102">CRediT_Contribution_Statement</text><!--MD5=[42c2141a95e7f85966762f44b3023ac5]
class CRediT_Degree_of_Contribution--><rect codeLine="53" fill="#FEFECE" filter="url(#fhquhjrrl7vqu)" height="81.5078" id="CRediT_Degree_of_Contribution" style="stroke:#A80036;stroke-width:1.5;" width="213" x="1033" y="967"/><ellipse cx="1048" cy="983" fill="#EB937F" rx="11" ry="11" style="stroke:#A80036;stroke-width:1.0;"/><path d="M1046.8594,983.7969 L1046.8594,986.2969 L1051.1875,986.2969 L1051.1875,985.375 Q1051.1875,984.7656 1051.4297,984.5 Q1051.6719,984.2344 1052.0469,984.2344 Q1052.4219,984.2344 1052.6563,984.5 Q1052.8906,984.7656 1052.8906,985.375 L1052.8906,988 L1044.8906,988 Q1044.2656,988 1044.0078,987.7656 Q1043.75,987.5313 1043.75,987.1406 Q1043.75,986.7656 1044.0156,986.5313 Q1044.2813,986.2969 1044.8906,986.2969 L1045.1563,986.2969 L1045.1563,979.6406 L1044.8906,979.6406 Q1044.2656,979.6406 1044.0078,979.4063 Q1043.75,979.1719 1043.75,978.7813 Q1043.75,978.4063 1044.0078,978.1719 Q1044.2656,977.9375 1044.8906,977.9375 L1052.5156,977.9375 L1052.5156,980.5313 Q1052.5156,981.1406 1052.2891,981.3984 Q1052.0625,981.6563 1051.6719,981.6563 Q1051.2969,981.6563 1051.0625,981.3984 Q1050.8281,981.1406 1050.8281,980.5313 L1050.8281,979.6406 L1046.8594,979.6406 L1046.8594,982.0938 L1048.3438,982.0938 Q1048.3438,981.4375 1048.4688,981.25 Q1048.7344,980.8438 1049.2031,980.8438 Q1049.5781,980.8438 1049.8125,981.1016 Q1050.0469,981.3594 1050.0469,981.9688 L1050.0469,983.9375 Q1050.0469,984.4844 1049.9219,984.6719 Q1049.6563,985.0625 1049.2031,985.0625 Q1048.7344,985.0625 1048.4688,984.6563 Q1048.3438,984.4688 1048.3438,983.7969 L1046.8594,983.7969 Z " fill="#000000"/><text fill="#000000" font-family="sans-serif" font-size="12" lengthAdjust="spacing" textLength="181" x="1062" y="987.9102">CRediT_Degree_of_Contribution</text><line style="stroke:#A80036;stroke-width:1.5;" x1="1034" x2="1245" y1="999" y2="999"/><text fill="#000000" font-family="sans-serif" font-size="11" lengthAdjust="spacing" textLength="24" x="1039" y="1014.4189">Lead</text><text fill="#000000" font-family="sans-serif" font-size="11" lengthAdjust="spacing" textLength="52" x="1039" y="1028.2549">Supporting</text><text fill="#000000" font-family="sans-serif" font-size="11" lengthAdjust="spacing" textLength="26" x="1039" y="1042.0908">Equal</text><!--MD5=[b5846dfcb37d6127d0d9f5f5e77b1e64]
class CRediT_Role_Type--><rect codeLine="58" fill="#FEFECE" filter="url(#fhquhjrrl7vqu)" height="233.7031" id="CRediT_Role_Type" style="stroke:#A80036;stroke-width:1.5;" width="140" x="857.5" y="891"/><ellipse cx="872.5" cy="907" fill="#EB937F" rx="11" ry="11" style="stroke:#A80036;stroke-width:1.0;"/><path d="M871.3594,907.7969 L871.3594,910.2969 L875.6875,910.2969 L875.6875,909.375 Q875.6875,908.7656 875.9297,908.5 Q876.1719,908.2344 876.5469,908.2344 Q876.9219,908.2344 877.1563,908.5 Q877.3906,908.7656 877.3906,909.375 L877.3906,912 L869.3906,912 Q868.7656,912 868.5078,911.7656 Q868.25,911.5313 868.25,911.1406 Q868.25,910.7656 868.5156,910.5313 Q868.7813,910.2969 869.3906,910.2969 L869.6563,910.2969 L869.6563,903.6406 L869.3906,903.6406 Q868.7656,903.6406 868.5078,903.4063 Q868.25,903.1719 868.25,902.7813 Q868.25,902.4063 868.5078,902.1719 Q868.7656,901.9375 869.3906,901.9375 L877.0156,901.9375 L877.0156,904.5313 Q877.0156,905.1406 876.7891,905.3984 Q876.5625,905.6563 876.1719,905.6563 Q875.7969,905.6563 875.5625,905.3984 Q875.3281,905.1406 875.3281,904.5313 L875.3281,903.6406 L871.3594,903.6406 L871.3594,906.0938 L872.8438,906.0938 Q872.8438,905.4375 872.9688,905.25 Q873.2344,904.8438 873.7031,904.8438 Q874.0781,904.8438 874.3125,905.1016 Q874.5469,905.3594 874.5469,905.9688 L874.5469,907.9375 Q874.5469,908.4844 874.4219,908.6719 Q874.1563,909.0625 873.7031,909.0625 Q873.2344,909.0625 872.9688,908.6563 Q872.8438,908.4688 872.8438,907.7969 L871.3594,907.7969 Z " fill="#000000"/><text fill="#000000" font-family="sans-serif" font-size="12" lengthAdjust="spacing" textLength="108" x="886.5" y="911.9102">CRediT_Role_Type</text><line style="stroke:#A80036;stroke-width:1.5;" x1="858.5" x2="996.5" y1="923" y2="923"/><text fill="#000000" font-family="sans-serif" font-size="11" lengthAdjust="spacing" textLength="85" x="863.5" y="938.4189">Conceptualization</text><text fill="#000000" font-family="sans-serif" font-size="11" lengthAdjust="spacing" textLength="64" x="863.5" y="952.2549">Data curation</text><text fill="#000000" font-family="sans-serif" font-size="11" lengthAdjust="spacing" textLength="75" x="863.5" y="966.0908">Formal analysis</text><text fill="#000000" font-family="sans-serif" font-size="11" lengthAdjust="spacing" textLength="92" x="863.5" y="979.9268">Funding acquisition</text><text fill="#000000" font-family="sans-serif" font-size="11" lengthAdjust="spacing" textLength="60" x="863.5" y="993.7627">Investigation</text><text fill="#000000" font-family="sans-serif" font-size="11" lengthAdjust="spacing" textLength="61" x="863.5" y="1007.5986">Methodology</text><text fill="#000000" font-family="sans-serif" font-size="11" lengthAdjust="spacing" textLength="102" x="863.5" y="1021.4346">Project administration</text><text fill="#000000" font-family="sans-serif" font-size="11" lengthAdjust="spacing" textLength="53" x="863.5" y="1035.2705">Resources</text><text fill="#000000" font-family="sans-serif" font-size="11" lengthAdjust="spacing" textLength="46" x="863.5" y="1049.1064">Software</text><text fill="#000000" font-family="sans-serif" font-size="11" lengthAdjust="spacing" textLength="57" x="863.5" y="1062.9424">Supervision</text><text fill="#000000" font-family="sans-serif" font-size="11" lengthAdjust="spacing" textLength="47" x="863.5" y="1076.7783">Validation</text><text fill="#000000" font-family="sans-serif" font-size="11" lengthAdjust="spacing" textLength="61" x="863.5" y="1090.6143">Visualization</text><text fill="#000000" font-family="sans-serif" font-size="11" lengthAdjust="spacing" textLength="103" x="863.5" y="1104.4502">Writing - original draft</text><text fill="#000000" font-family="sans-serif" font-size="11" lengthAdjust="spacing" textLength="121" x="863.5" y="1118.2861">Writing - review &amp; editing</text><!--MD5=[c311ebaeb70986101ddf4181c43abf49]
class CRediT Role Type--><rect fill="#FEFECE" filter="url(#fhquhjrrl7vqu)" height="32" id="CRediT Role Type" style="stroke:#A80036;stroke-width:1.5;" width="140" x="1169.5" y="44"/><ellipse cx="1184.5" cy="60" fill="#ADD1B2" rx="11" ry="11" style="stroke:#A80036;stroke-width:1.0;"/><path d="M1187.2656,55.875 Q1187.4219,55.6563 1187.6094,55.5469 Q1187.7969,55.4375 1188.0156,55.4375 Q1188.3906,55.4375 1188.625,55.6953 Q1188.8594,55.9531 1188.8594,56.5625 L1188.8594,58.0156 Q1188.8594,58.625 1188.625,58.8906 Q1188.3906,59.1563 1188.0156,59.1563 Q1187.6719,59.1563 1187.4688,58.9531 Q1187.2656,58.7656 1187.1563,58.25 Q1187.1094,57.8906 1186.9219,57.7031 Q1186.5938,57.3281 1185.9844,57.1094 Q1185.375,56.8906 1184.75,56.8906 Q1183.9844,56.8906 1183.3516,57.2188 Q1182.7188,57.5469 1182.2266,58.2969 Q1181.7344,59.0469 1181.7344,60.0781 L1181.7344,61.1719 Q1181.7344,62.4063 1182.625,63.2266 Q1183.5156,64.0469 1185.1094,64.0469 Q1186.0469,64.0469 1186.7031,63.7969 Q1187.0938,63.6406 1187.5156,63.2031 Q1187.7813,62.9375 1187.9297,62.8594 Q1188.0781,62.7813 1188.2813,62.7813 Q1188.6094,62.7813 1188.8672,63.0391 Q1189.125,63.2969 1189.125,63.6406 Q1189.125,63.9844 1188.7813,64.3906 Q1188.2813,64.9688 1187.4844,65.2969 Q1186.4063,65.75 1185.1094,65.75 Q1183.5938,65.75 1182.3906,65.125 Q1181.4063,64.625 1180.7188,63.5547 Q1180.0313,62.4844 1180.0313,61.2031 L1180.0313,60.0469 Q1180.0313,58.7188 1180.6484,57.5703 Q1181.2656,56.4219 1182.3594,55.8047 Q1183.4531,55.1875 1184.6875,55.1875 Q1185.4219,55.1875 1186.0703,55.3516 Q1186.7188,55.5156 1187.2656,55.875 Z " fill="#000000"/><text fill="#000000" font-family="sans-serif" font-size="12" lengthAdjust="spacing" textLength="108" x="1198.5" y="64.9102">"CRediT Role Type"</text><path d="M1345,6 L1345,56 L1309.5,60 L1345,64 L1345,114.1094 A0,0 0 0 0 1345,114.1094 L1724,114.1094 A0,0 0 0 0 1724,114.1094 L1724,16 L1714,6 L1345,6 A0,0 0 0 0 1345,6 " fill="#FBFB77" filter="url(#fhquhjrrl7vqu)" style="stroke:#A80036;stroke-width:1.0;"/><path d="M1714,6 L1714,16 L1724,16 L1714,6 " fill="#FBFB77" style="stroke:#A80036;stroke-width:1.0;"/><text fill="#000000" font-family="sans-serif" font-size="13" lengthAdjust="spacing" textLength="351" x="1351" y="24.4951">The CRediT is currently not expressed as Linked Open Data.</text><text fill="#000000" font-family="sans-serif" font-size="13" lengthAdjust="spacing" textLength="341" x="1351" y="40.8467">We hope it will be in the future. We estimate it will be more</text><text fill="#000000" font-family="sans-serif" font-size="13" lengthAdjust="spacing" textLength="354" x="1351" y="57.1982">straightforward for it to be exposed as a list of terms (perhaps</text><text fill="#000000" font-family="sans-serif" font-size="13" lengthAdjust="spacing" textLength="329" x="1351" y="73.5498">a SKOS concept scheme), rather than a class hierarchy.</text><text fill="#000000" font-family="sans-serif" font-size="13" lengthAdjust="spacing" textLength="349" x="1351" y="89.9014">This justifies our choice to model it as an enumeration rather</text><text fill="#000000" font-family="sans-serif" font-size="13" lengthAdjust="spacing" textLength="207" x="1351" y="106.2529">than a class hierarchy in our model.</text><!--MD5=[bf7e8cf64254ff374c5acfe277545dd5]
reverse link Postal_Address to Country--><path codeLine="69" d="M750.5,1303.17 C750.5,1319.13 750.5,1335.93 750.5,1350.87 " fill="none" id="Postal_Address-backto-Country" style="stroke:#A80036;stroke-width:1.0;"/><polygon fill="#FFFFFF" points="750.5,1290.02,746.5,1296.02,750.5,1302.02,754.5,1296.02,750.5,1290.02" style="stroke:#A80036;stroke-width:1.0;"/><text fill="#000000" font-family="sans-serif" font-size="13" lengthAdjust="spacing" textLength="43" x="704.3422" y="1340.195">country</text><!--MD5=[af6b79ce3af62c8c5ee779db9fbc8cf6]
link Affiliation_Statement to Postal_Address--><path codeLine="70" d="M750.5,1035.15 C750.5,1070.48 750.5,1134.36 750.5,1180.81 " fill="none" id="Affiliation_Statement-to-Postal_Address" style="stroke:#A80036;stroke-width:1.0;stroke-dasharray:7.0,7.0;"/><polygon fill="#A80036" points="750.5,1185.82,754.5,1176.82,750.5,1180.82,746.5,1176.82,750.5,1185.82" style="stroke:#A80036;stroke-width:1.0;"/><text fill="#000000" font-family="sans-serif" font-size="13" lengthAdjust="spacing" textLength="83" x="661.9234" y="1175.2835">postalAddress</text><!--MD5=[fe03d2c8e9644e7513bef3a6fb6291e6]
reverse link Affiliation_Statement to Organisation_Unit--><path codeLine="71" d="M717.19,1045.66 C698.64,1071.77 674.22,1105.56 643.5,1125 C537.35,1192.18 488.92,1153.76 367.5,1186 C339.69,1193.38 309.54,1202.45 283.68,1210.88 " fill="none" id="Affiliation_Statement-backto-Organisation_Unit" style="stroke:#A80036;stroke-width:1.0;"/><polygon fill="#FFFFFF" points="724.79,1035.01,718.0506,1037.5752,717.8264,1044.7828,724.5658,1042.2176,724.79,1035.01" style="stroke:#A80036;stroke-width:1.0;"/><text fill="#000000" font-family="sans-serif" font-size="13" lengthAdjust="spacing" textLength="67" x="223.5435" y="1200.3132">0..1 orgUnit</text><!--MD5=[fe03d2c8e9644e7513bef3a6fb6291e6]
reverse link Affiliation_Statement to Organisation_Unit--><path codeLine="72" d="M745.46,1047.07 C732.77,1072.98 708.67,1105.91 678.5,1125 C572.35,1192.18 523.92,1153.76 402.5,1186 C364.17,1196.18 321.4,1209.54 286.63,1220.04 " fill="none" id="Affiliation_Statement-backto-Organisation_Unit-1" style="stroke:#A80036;stroke-width:1.0;"/><polygon fill="#FFFFFF" points="750.75,1035.01,744.68,1038.9029,745.9388,1046.0033,752.0088,1042.1104,750.75,1035.01" style="stroke:#A80036;stroke-width:1.0;"/><text fill="#000000" font-family="sans-serif" font-size="13" lengthAdjust="spacing" textLength="82" x="294.4974" y="1215.6476">0..1 institution</text><!--MD5=[d9b08b031298a036c8fb3d44263a5204]
reverse link Affiliation_Statement to Person--><path codeLine="73" d="M727.63,1046.14 C711.17,1070.71 687.23,1102.42 660.5,1125 C611.91,1166.04 545.85,1198.34 501.1,1217.5 " fill="none" id="Affiliation_Statement-backto-Person" style="stroke:#A80036;stroke-width:1.0;"/><polygon fill="#FFFFFF" points="734.86,1035.08,728.2292,1037.9142,728.2951,1045.125,734.9259,1042.2908,734.86,1035.08" style="stroke:#A80036;stroke-width:1.0;"/><text fill="#000000" font-family="sans-serif" font-size="13" lengthAdjust="spacing" textLength="39" x="509.0897" y="1211.7296">person</text><!--MD5=[b5c017ecc32f857930efae613c226920]
reverse link Contribution_Statement to Free_Text_Contribution--><path codeLine="75" d="M897.5,589.77 C897.5,624.95 897.5,678.2 897.5,709.8 " fill="none" id="Contribution_Statement-backto-Free_Text_Contribution" style="stroke:#A80036;stroke-width:1.0;"/><polygon fill="none" points="890.5,589.66,897.5,569.66,904.5,589.66,890.5,589.66" style="stroke:#A80036;stroke-width:1.0;"/><!--MD5=[1f014480a3afa8c0325c3be3fbf7ad6f]
link Contributorship to Document--><path codeLine="78" d="M625.23,737 C632.52,737 639.8,737 647.09,737 " fill="none" id="Contributorship-to-Document" style="stroke:#A80036;stroke-width:1.0;"/><polygon fill="#A80036" points="660.2,737,654.2,733,648.2,737,654.2,741,660.2,737" style="stroke:#A80036;stroke-width:1.0;"/><text fill="#000000" font-family="sans-serif" font-size="13" lengthAdjust="spacing" textLength="20" x="633.1769" y="733.6094">0..*</text><!--MD5=[504de05de5dc33320621ff1be2e6e6ff]
reverse link Agent to Contributorship--><path codeLine="81" d="M358.14,737 C407.99,737 457.85,737 507.7,737 " fill="none" id="Agent-backto-Contributorship" style="stroke:#A80036;stroke-width:1.0;"/><polygon fill="#A80036" points="345.12,737,351.1244,740.9934,357.12,736.9868,351.1156,732.9934,345.12,737" style="stroke:#A80036;stroke-width:1.0;"/><text fill="#000000" font-family="sans-serif" font-size="13" lengthAdjust="spacing" textLength="87" x="352.8668" y="733.6882">0..1 contributor</text><text fill="#000000" font-family="sans-serif" font-size="13" lengthAdjust="spacing" textLength="20" x="480.175" y="733.6573">0..*</text><!--MD5=[d50a95e3ddb5a3ed983c7b2ff4649bd6]
reverse link Contributorship to Affiliation_Statement--><path codeLine="83" d="M619.76,778.4 C627.17,783.04 634.87,787.4 642.5,791 C687.16,812.09 719.55,781.72 749.5,821 C785.04,867.61 770.69,941.62 759.32,980.75 " fill="none" id="Contributorship-backto-Affiliation_Statement" style="stroke:#A80036;stroke-width:1.0;"/><polygon fill="#A80036" points="608.77,771.19,611.5941,777.8251,618.805,777.7701,615.9809,771.1351,608.77,771.19" style="stroke:#A80036;stroke-width:1.0;"/><text fill="#000000" font-family="sans-serif" font-size="13" lengthAdjust="spacing" textLength="81" x="670.994" y="970.1532">0..* affiliations</text><!--MD5=[302d116419dc4c6a2265e61d4260f04e]
link Contribution_Statement to Contributorship--><path codeLine="85" d="M863.68,569.66 C814.07,592.33 719.13,637.29 642.5,683 C635.95,686.91 629.22,691.18 622.6,695.56 " fill="none" id="Contribution_Statement-to-Contributorship" style="stroke:#A80036;stroke-width:1.0;"/><polygon fill="#A80036" points="611.62,702.97,618.831,702.9282,621.5659,696.2559,614.3549,696.2976,611.62,702.97" style="stroke:#A80036;stroke-width:1.0;"/><text fill="#000000" font-family="sans-serif" font-size="13" lengthAdjust="spacing" textLength="158" x="669.7186" y="590.9121">0..* contributionStatements</text><!--MD5=[db20fd804d8595e73b6b8c99fdd1338c]
link Authorship to Textual_Document--><path codeLine="87" d="M476.38,202 C493.51,202 510.65,202 527.78,202 " fill="none" id="Authorship-to-Textual_Document" style="stroke:#A80036;stroke-width:1.0;"/><polygon fill="#A80036" points="540.89,202,534.89,198,528.89,202,534.89,206,540.89,202" style="stroke:#A80036;stroke-width:1.0;"/><!--MD5=[e74e4958a1d7eb99db8e977d8859ba66]
link Authorship to Contributorship--><path codeLine="88" d="M379.85,229.08 C368.92,298.14 347.6,489.52 419.5,622 C435.75,651.95 463.58,676.57 490.67,695.17 " fill="none" id="Authorship-to-Contributorship" style="stroke:#A80036;stroke-width:1.0;"/><polygon fill="none" points="494.8,689.51,507.79,706.25,487.19,701.26,494.8,689.51" style="stroke:#A80036;stroke-width:1.0;"/><!--MD5=[49125a4ba45432b051dcbcd9e53401d7]
link Authorship to Agent--><path codeLine="89" d="M328.99,229.1 C266.37,262.17 168.45,325.79 131.5,415 C106.3,475.85 238.98,646.01 292.19,710.65 " fill="none" id="Authorship-to-Agent" style="stroke:#A80036;stroke-width:1.0;"/><polygon fill="#FFFFFF" points="300.58,720.77,299.8259,713.5984,292.916,711.5362,293.6701,718.7078,300.58,720.77" style="stroke:#A80036;stroke-width:1.0;"/><path d="M136.5,420 L136.5,446 L278.5,446 L278.5,430 L268.5,420 L136.5,420 " fill="#FFFF00" filter="url(#fhquhjrrl7vqu)" style="stroke:#A80036;stroke-width:1.0;"/><path d="M268.5,420 L268.5,430 L278.5,430 L268.5,420 " fill="#FFFF00" style="stroke:#A80036;stroke-width:1.0;"/><text fill="#000000" font-family="sans-serif" font-size="13" lengthAdjust="spacing" textLength="121" x="142.5" y="438.4951">author == contributor</text><text fill="#000000" font-family="sans-serif" font-size="13" lengthAdjust="spacing" textLength="20" x="294.6597" y="250.3296">0..*</text><text fill="#000000" font-family="sans-serif" font-size="13" lengthAdjust="spacing" textLength="62" x="254.6782" y="702.1045">0..1 author</text><!--MD5=[5d8901ce694eb85aefa78b7d82d9f6f6]
link Person to Person_Name--><path codeLine="91" d="M451.5,1265.17 C451.5,1287.69 451.5,1320.78 451.5,1348.24 " fill="none" id="Person-to-Person_Name" style="stroke:#A80036;stroke-width:1.0;stroke-dasharray:7.0,7.0;"/><polygon fill="#A80036" points="451.5,1353.3,455.5,1344.3,451.5,1348.3,447.5,1344.3,451.5,1353.3" style="stroke:#A80036;stroke-width:1.0;"/><text fill="#000000" font-family="sans-serif" font-size="13" lengthAdjust="spacing" textLength="39" x="409.5141" y="1342.6991">names</text><!--MD5=[de96f77e660762cb21a195b4097c3876]
reverse link Agent to Person--><path codeLine="92" d="M300.32,772.29 C275.45,842.95 229.33,1007.94 290.5,1125 C313.76,1169.51 363.66,1199.91 401.79,1217.69 " fill="none" id="Agent-backto-Person" style="stroke:#A80036;stroke-width:1.0;"/><polygon fill="none" points="293.87,769.55,307.35,753.2,307.01,774.38,293.87,769.55" style="stroke:#A80036;stroke-width:1.0;"/><!--MD5=[521d3f26cc3887ed8885a4c0e03f9952]
reverse link Agent to Organisation_Unit--><path codeLine="93" d="M286.63,768.28 C279.59,775.87 271.9,783.87 264.5,791 C249.74,805.21 238.26,802.48 229.5,821 C165.86,955.52 198.81,1142.92 214.11,1210.99 " fill="none" id="Agent-backto-Organisation_Unit" style="stroke:#A80036;stroke-width:1.0;"/><polygon fill="none" points="281.6,763.41,300.22,753.29,291.97,772.81,281.6,763.41" style="stroke:#A80036;stroke-width:1.0;"/><!--MD5=[8d9b790276a1e6c61f0b091de629785c]
link Textual_Document to Document--><path codeLine="95" d="M635.22,218.04 C658.74,232.92 691.51,258.08 706.5,290 C766.05,416.75 748.98,586.87 733.81,675.91 " fill="none" id="Textual_Document-to-Document" style="stroke:#A80036;stroke-width:1.0;"/><polygon fill="none" points="740.68,677.26,730.23,695.7,726.9,674.78,740.68,677.26" style="stroke:#A80036;stroke-width:1.0;"/><!--MD5=[c0a805770ea07def151bfb445be554f3]
link Textual_Document_Accessibility_Specification to Textual_Document--><path codeLine="97" d="M950.15,76.12 C880.34,101.63 739.19,153.23 661.96,181.46 " fill="none" id="Textual_Document_Accessibility_Specification-to-Textual_Document" style="stroke:#A80036;stroke-width:1.0;"/><polygon fill="#A80036" points="649.68,185.95,656.6877,187.6508,660.9529,181.8364,653.9452,180.1356,649.68,185.95" style="stroke:#A80036;stroke-width:1.0;"/><text fill="#000000" font-family="sans-serif" font-size="13" lengthAdjust="spacing" textLength="103" x="817.5541" y="97.3594">0..* accessRights</text><!--MD5=[2c23d09c80fbfac9dc5109bf504b493e]
link Textual_Document to Agent--><path codeLine="98" d="M550.99,218.13 C510.25,231.35 456.62,254.15 420.5,290 C295.31,414.24 306.65,657.38 311.99,720.65 " fill="none" id="Textual_Document-Agent" style="stroke:#A80036;stroke-width:1.0;"/><text fill="#000000" font-family="sans-serif" font-size="13" lengthAdjust="spacing" textLength="140" x="554.9712" y="239.3726">0..* authoredDocuments</text><text fill="#000000" font-family="sans-serif" font-size="13" lengthAdjust="spacing" textLength="67" x="322.5867" y="710.1374">0..* authors</text><!--MD5=[f85d3b7ea4d0f360a9a896da9b8414e4]
reverse link Textual_Document_Accessibility_Specification to COAR_Accessibility_Specification_v1--><path codeLine="77" d="M1052.07,83.02 C1131.01,111.73 1267,161.18 1335.11,185.95 " fill="none" id="Textual_Document_Accessibility_Specification-backto-COAR_Accessibility_Specification_v1" style="stroke:#A80036;stroke-width:1.0;"/><polygon fill="none" points="1049.47,89.53,1033.07,76.12,1054.26,76.37,1049.47,89.53" style="stroke:#A80036;stroke-width:1.0;"/><!--MD5=[bfd88198d372996c25e9794c7dd6e719]
reverse link COAR_Accessibility_Specification_v1 to Open_Access_COAR_v1_Accessibility_Specification--><path codeLine="80" d="M1436.96,224.87 C1512.15,252.08 1638.53,297.8 1703.76,321.4 " fill="none" id="COAR_Accessibility_Specification_v1-backto-Open_Access_COAR_v1_Accessibility_Specification" style="stroke:#A80036;stroke-width:1.0;"/><polygon fill="none" points="1434.54,231.44,1418.11,218.05,1439.3,218.28,1434.54,231.44" style="stroke:#A80036;stroke-width:1.0;"/><!--MD5=[f38eb1e2f6e38e13de2b20f473ff16a5]
reverse link COAR_Accessibility_Specification_v1 to Restricted_Access_COAR_v1_Accessibility_Specification--><path codeLine="83" d="M1508.42,220.88 C1619.56,236.68 1782.51,261.59 1923.5,290 C1968.77,299.12 2019.57,311.68 2057.24,321.44 " fill="none" id="COAR_Accessibility_Specification_v1-backto-Restricted_Access_COAR_v1_Accessibility_Specification" style="stroke:#A80036;stroke-width:1.0;"/><polygon fill="none" points="1507.12,227.76,1488.29,218.03,1509.07,213.9,1507.12,227.76" style="stroke:#A80036;stroke-width:1.0;"/><!--MD5=[55f4ec97aa8e919191239661c27a15a2]
reverse link COAR_Accessibility_Specification_v1 to Emargoed_Access_COAR_v1_Accessibility_Specification--><path codeLine="86" d="M1376.5,238.38 C1376.5,260.96 1376.5,289.73 1376.5,310.27 " fill="none" id="COAR_Accessibility_Specification_v1-backto-Emargoed_Access_COAR_v1_Accessibility_Specification" style="stroke:#A80036;stroke-width:1.0;"/><polygon fill="none" points="1369.5,238.05,1376.5,218.05,1383.5,238.05,1369.5,238.05" style="stroke:#A80036;stroke-width:1.0;"/><!--MD5=[04d6d1b0a6f9e8b81dbdf44803f7976b]
reverse link COAR_Accessibility_Specification_v1 to Metadata_Only_Access_COAR_v1_Accessibility_Specification--><path codeLine="89" d="M1312.8,224.53 C1232.44,251.69 1096.3,297.7 1026.18,321.4 " fill="none" id="COAR_Accessibility_Specification_v1-backto-Metadata_Only_Access_COAR_v1_Accessibility_Specification" style="stroke:#A80036;stroke-width:1.0;"/><polygon fill="none" points="1310.77,217.83,1331.96,218.05,1315.25,231.09,1310.77,217.83" style="stroke:#A80036;stroke-width:1.0;"/><!--MD5=[c60a4b536c71b88487ebbf01e6b75384]
reverse link Textual_Document to Journal_Article--><path codeLine="92" d="M582.63,233.3 C568.38,249.98 550.4,271.04 534.4,289.78 " fill="none" id="Textual_Document-backto-Journal_Article" style="stroke:#A80036;stroke-width:1.0;"/><polygon fill="none" points="577.33,228.72,595.64,218.05,587.98,237.81,577.33,228.72" style="stroke:#A80036;stroke-width:1.0;"/><!--MD5=[f03e94566c19bb3b217b1b618f64fc41]
reverse link Textual_Document to Monograph--><path codeLine="94" d="M616.07,237.86 C620.48,258.13 625.99,283.52 630.32,303.46 " fill="none" id="Textual_Document-backto-Monograph" style="stroke:#A80036;stroke-width:1.0;"/><polygon fill="none" points="609.18,239.08,611.77,218.05,622.86,236.11,609.18,239.08" style="stroke:#A80036;stroke-width:1.0;"/><!--MD5=[7513a9dfb8e1403b404b649e88f9ffeb]
reverse link Contributorship to Editorship--><path codeLine="95" d="M627.25,782.21 C632.32,785.33 637.44,788.3 642.5,791 C674.9,808.29 698.77,790.68 719.5,821 C729.53,835.68 728.8,845.85 719.5,861 C704.12,886.08 683.07,872.14 660.5,891 C629.66,916.77 603.18,955.28 587.54,980.76 " fill="none" id="Contributorship-backto-Editorship" style="stroke:#A80036;stroke-width:1.0;"/><polygon fill="none" points="623.33,788,610.39,771.22,630.97,776.27,623.33,788" style="stroke:#A80036;stroke-width:1.0;"/><!--MD5=[74a7030ad1a3b136fe5c291ba6d0cb8e]
reverse link Contributorship to Publishership--><path codeLine="96" d="M534.35,787.91 C519.83,810.32 502.4,837.06 486.5,861 C458.46,903.22 425.3,951.87 405.36,980.99 " fill="none" id="Contributorship-backto-Publishership" style="stroke:#A80036;stroke-width:1.0;"/><polygon fill="none" points="528.54,784,545.28,771,540.3,791.6,528.54,784" style="stroke:#A80036;stroke-width:1.0;"/><!--MD5=[7276caa4191a3f95f28b5ba112f82c6c]
reverse link Contribution_Statement to CRediT_Contribution_Statement--><path codeLine="98" d="M931.58,582.49 C978.88,621.33 1062.8,690.25 1099.93,720.75 " fill="none" id="Contribution_Statement-backto-CRediT_Contribution_Statement" style="stroke:#A80036;stroke-width:1.0;"/><polygon fill="none" points="926.98,587.77,915.96,569.66,935.86,576.95,926.98,587.77" style="stroke:#A80036;stroke-width:1.0;"/><!--MD5=[88f40439064ff4845bc7e4cfd1a224e6]
reverse link Journal to Journal--><path codeLine="101" d="M598.65,536.81 C611.68,539.4 620.5,544.96 620.5,553.5 C620.5,564.65 605.45,570.72 585.63,571.73 " fill="none" id="Journal-backto-Journal" style="stroke:#A80036;stroke-width:1.0;"/><polygon fill="#FFFFFF" points="585.63,535.27,591.1182,539.9475,597.5468,536.6805,592.0586,532.003,585.63,535.27" style="stroke:#A80036;stroke-width:1.0;"/><text fill="#000000" font-family="sans-serif" font-size="13" lengthAdjust="spacing" textLength="102" x="593.6461" y="569.8965">0..* predecessors</text><!--MD5=[a0fe4bcc2e634d581797c23ae087e232]
reverse link Journal to Agent--><path codeLine="103" d="M428.04,631 C391.42,664.57 351.9,700.8 330.18,720.71 " fill="none" id="Journal-backto-Agent" style="stroke:#A80036;stroke-width:1.0;"/><polygon fill="#FFFFFF" points="437.77,622.08,430.6441,623.1853,428.9236,630.1881,436.0495,629.0828,437.77,622.08" style="stroke:#A80036;stroke-width:1.0;"/><text fill="#000000" font-family="sans-serif" font-size="13" lengthAdjust="spacing" textLength="83" x="253.8068" y="700.4229">0..* publishers</text><!--MD5=[a7ff7daa03c30e603ee3c4860dcf798f]
reverse link Journal_Article to Journal--><path codeLine="105" d="M499.25,398.35 C501.39,425.22 503.92,457.04 506.12,484.78 " fill="none" id="Journal_Article-backto-Journal" style="stroke:#A80036;stroke-width:1.0;"/><polygon fill="#FFFFFF" points="498.21,385.2,494.6973,391.4977,499.1596,397.1624,502.6723,390.8646,498.21,385.2" style="stroke:#A80036;stroke-width:1.0;"/><text fill="#000000" font-family="sans-serif" font-size="13" lengthAdjust="spacing" textLength="20" x="477.2862" y="406.8766">0..*</text><text fill="#000000" font-family="sans-serif" font-size="13" lengthAdjust="spacing" textLength="39" x="464.3988" y="473.9112">source</text><!--MD5=[190e8115f40c8f2a14518699a77fb3e0]
link Editorship to Agent--><path codeLine="107" d="M567.16,980.88 C557.89,941.57 535.39,866.94 490.5,821 C451.57,781.15 389.8,758.28 350.48,747 " fill="none" id="Editorship-to-Agent" style="stroke:#A80036;stroke-width:1.0;"/><polygon fill="#A80036" points="345.33,745.55,352.9244,751.821,350.1462,746.8934,355.0738,744.1152,345.33,745.55" style="stroke:#A80036;stroke-width:1.0;"/><path d="M525.5,826 L525.5,852 L663.5,852 L663.5,836 L653.5,826 L525.5,826 " fill="#FFFF00" filter="url(#fhquhjrrl7vqu)" style="stroke:#A80036;stroke-width:1.0;"/><path d="M653.5,826 L653.5,836 L663.5,836 L653.5,826 " fill="#FFFF00" style="stroke:#A80036;stroke-width:1.0;"/><text fill="#000000" font-family="sans-serif" font-size="13" lengthAdjust="spacing" textLength="117" x="531.5" y="844.4951">editor == contributor</text><text fill="#000000" font-family="sans-serif" font-size="13" lengthAdjust="spacing" textLength="32" x="352.9529" y="761.7108">editor</text><!--MD5=[4ce0a37722dc35c14d3ac31b62ccb709]
link Publishership to Agent--><path codeLine="109" d="M368.67,980.89 C349.7,952.85 321.69,906.2 310.5,861 C301.73,825.58 306,782.65 309.81,758.01 " fill="none" id="Publishership-to-Agent" style="stroke:#A80036;stroke-width:1.0;"/><polygon fill="#A80036" points="310.62,753.04,305.2334,761.2853,309.8211,757.9758,313.1307,762.5635,310.62,753.04" style="stroke:#A80036;stroke-width:1.0;"/><path d="M315.5,826 L315.5,852 L473.5,852 L473.5,836 L463.5,826 L315.5,826 " fill="#FFFF00" filter="url(#fhquhjrrl7vqu)" style="stroke:#A80036;stroke-width:1.0;"/><path d="M463.5,826 L463.5,836 L473.5,836 L463.5,826 " fill="#FFFF00" style="stroke:#A80036;stroke-width:1.0;"/><text fill="#000000" font-family="sans-serif" font-size="13" lengthAdjust="spacing" textLength="137" x="321.5" y="844.4951">publisher == contributor</text><text fill="#000000" font-family="sans-serif" font-size="13" lengthAdjust="spacing" textLength="52" x="254.8564" y="775.8137">publisher</text><!--MD5=[fb8e7b03155fc2d9c40ee98c4cf95180]
link CRediT_Contribution_Statement to CRediT_Role_Type--><path codeLine="112" d="M1107.68,753.23 C1087.15,782.16 1040.93,847.25 1000.45,904.26 " fill="none" id="CRediT_Contribution_Statement-to-CRediT_Role_Type" style="stroke:#A80036;stroke-width:1.0;stroke-dasharray:7.0,7.0;"/><polygon fill="#A80036" points="997.55,908.35,1006.0094,903.3063,1000.4345,904.266,999.4749,898.6911,997.55,908.35" style="stroke:#A80036;stroke-width:1.0;"/><text fill="#000000" font-family="sans-serif" font-size="13" lengthAdjust="spacing" textLength="49" x="1005.3799" y="896.9572">roleType</text><!--MD5=[fd5d8cb6bc72986bd3560f3b69973f17]
link CRediT_Contribution_Statement to CRediT_Degree_of_Contribution--><path codeLine="113" d="M1119.69,753.23 C1122.78,792.8 1131.15,900.03 1135.96,961.7 " fill="none" id="CRediT_Contribution_Statement-to-CRediT_Degree_of_Contribution" style="stroke:#A80036;stroke-width:1.0;stroke-dasharray:7.0,7.0;"/><polygon fill="#A80036" points="1136.36,966.79,1139.6539,957.5083,1135.9743,961.8049,1131.6777,958.1253,1136.36,966.79" style="stroke:#A80036;stroke-width:1.0;"/><text fill="#000000" font-family="sans-serif" font-size="13" lengthAdjust="spacing" textLength="121" x="1005.4657" y="955.9376">degreeOfContribution</text><!--MD5=[752473346c074d110208d8331a48c35a]
@startuml

!includesub core.puml!common


    !include ./core.puml

    !startsub Coar
    class "COAR_Accessibility_Specification_v1"

    class "Open_Access_COAR_v1_Accessibility_Specification"

    class "Restricted_Access_COAR_v1_Accessibility_Specification"

    class "Metadata_Only_Access_COAR_v1_Accessibility_Specification"

    class "Emargoed_Access_COAR_v1_Accessibility_Specification"{
        embargoEndDate : Date
    }
    !endsub

    !startsub Journal
    class "Journal"{
        DOI : DOI_Type
        title : Multilingual_String
        ISSN : ISSN_Type
        eISSN : ISSN_Type
        acronym : Multilingual_String
        startDate : Date
        endDate : Date
    }

    class "Journal_Article"{
        startPage : String
        endPage : String
        volume : String
        number : String
    }
    !endsub

    class "Monograph"{
        ISBN : ISBN_Type
        eISBN : ISBN_Type
    }
    class "Editorship"{
        leadingEditorFlag : Boolean
    }
    class "Publishership"{
        leadingPublisherFlag : Boolean
    }
    !startsub CRediT
    class "CRediT_Contribution_Statement"{
    }
    enum "CRediT_Degree_of_Contribution"{
        Lead
        Supporting
        Equal
    }
    enum "CRediT_Role_Type"{
        Conceptualization
        Data curation
        Formal analysis
        Funding acquisition
        Investigation
        Methodology
        Project administration
        Resources
        Software
        Supervision
        Validation
        Visualization
        Writing - original draft
        Writing - review & editing
    }
    !endsub

    !startsub Coar
    "Textual_Document_Accessibility_Specification" <|- - "COAR_Accessibility_Specification_v1"
    !endsub
    !startsub Coar
    "COAR_Accessibility_Specification_v1" <|- - "Open_Access_COAR_v1_Accessibility_Specification"
    !endsub
    !startsub Coar
    "COAR_Accessibility_Specification_v1" <|- - "Restricted_Access_COAR_v1_Accessibility_Specification"
    !endsub
    !startsub Coar
    "COAR_Accessibility_Specification_v1" <|- - "Emargoed_Access_COAR_v1_Accessibility_Specification"
    !endsub
    !startsub Coar
    "COAR_Accessibility_Specification_v1" <|- - "Metadata_Only_Access_COAR_v1_Accessibility_Specification"
    !endsub
    !startsub Journal
    "Textual_Document" <|- - "Journal_Article"
    !endsub
    "Textual_Document" <|- - "Monograph"
    "Contributorship" <|- - "Editorship"
    "Contributorship" <|- - "Publishership"
    !startsub CRediT
    "Contribution_Statement" <|- - "CRediT_Contribution_Statement"
    !endsub
    !startsub Journal
    "Journal" o- - "0..* predecessors" "Journal"
    !endsub
    "Journal" o- -  "0..* publishers" "Agent"
    !startsub Journal
    "Journal_Article" "0..*" o- - "source" "Journal"
    !endsub
    "Editorship" - -> "editor" "Agent"
    note on link #yellow: editor == contributor
    "Publishership" - -> "publisher" "Agent"
    note on link #yellow: publisher == contributor
    !startsub CRediT
    "CRediT_Contribution_Statement" ..> "roleType" "CRediT_Role_Type"
    "CRediT_Contribution_Statement" ..> "degreeOfContribution" "CRediT_Degree_of_Contribution"
    !endsub

    note right of "CRediT Role Type": The CRediT is currently not expressed as Linked Open Data. \nWe hope it will be in the future. We estimate it will be more \nstraightforward for it to be exposed as a list of terms (perhaps \na SKOS concept scheme), rather than a class hierarchy. \nThis justifies our choice to model it as an enumeration rather \nthan a class hierarchy in our model.
@enduml

@startuml

    	hide empty members


    	hide empty members

    class "Document"#00ffff {
        DOI : DOI_Type
        title : Multilingual_String
        publicationDate : Date
    }
    class "Textual_Document"#00ffff {
    }

    class "Textual_Document_Accessibility_Specification"#00ffff {
    }

    class "Agent"#00ffff {

        }

    class "Organisation_Unit"#00ffff {
        name : Multilingual_String
    }
    class "Person"#00ffff {
        orcidid : ORCID_iD
    }
    class Person_Name << (D,#FF7700) DataType>>#00ffff {
        firstNames : String
        familyNames : String
        otherNames : String
    }
    class "Authorship"#00ffff {
        correspondingAuthorFlag : Boolean
    }

    class "Contributorship"#00ffff {
        contacts : List<URI>
        displayName : String
    }
    class "Contribution_Statement"#00ffff {
    }
    class "Free_Text_Contribution"#00ffff {
        statement : Multilingual_String
    }

    class "Affiliation_Statement"#00ffff {
        displayAffiliation : String
    }
   class Postal_Address << (D,#FF7700) DataType>>#00ffff {
        street : String
        city : String
        zipCode : String
        country : Country
    }
    class "Country"#00ffff {
        name : Multilingual_String
        iso3166alpha2Code : ISO3166_Alpha2_Code
        # iso3166NumericCode : ISO3166_Numeric_Code
        # euCountryCode : EU_Country_Code
    }
    "Postal_Address" o- - "country" "Country"
    "Affiliation_Statement" ..> "postalAddress" "Postal_Address"
    "Affiliation_Statement" o- - "0..1 orgUnit" "Organisation_Unit"
    "Affiliation_Statement" o- - "0..1 institution" "Organisation_Unit"
    "Affiliation_Statement" o- - "person" "Person"
    "Contribution_Statement" <|- - "Free_Text_Contribution"
    "Contributorship" "0..*" -r-* "Document"
    "Contributorship" "0..*" -l-* "0..1 contributor" "Agent"
    "Contributorship" *- - "0..* affiliations" "Affiliation_Statement"
    "Contributorship" *-u- "0..* contributionStatements" "Contribution_Statement"
    "Authorship" -r-* "Textual_Document"
    "Contributorship" <|-u- "Authorship"
    "Authorship" "0..*" - -o "0..1 author" "Agent"
    note on link #yellow: author == contributor
    "Person" .d.> "names" "Person_Name"
    "Agent" <|-d- "Person"
    "Agent" <|-d- "Organisation_Unit"
    "Document" <|-u- "Textual_Document"
    "Textual_Document" *-u- "0..* accessRights" "Textual_Document_Accessibility_Specification"
    "Textual_Document" "0..* authoredDocuments" - - - "0..* authors" "Agent"
    note left of Agent: The Agent is mandatory for almost all \nsubclasses of Contributorship,\nReviewing is the exception if the \nreviewer's identity is concealed. \nAlso useful when authors are \nusing pseudonyms.

    class "COAR_Accessibility_Specification_v1"

    class "Open_Access_COAR_v1_Accessibility_Specification"

    class "Restricted_Access_COAR_v1_Accessibility_Specification"

    class "Metadata_Only_Access_COAR_v1_Accessibility_Specification"

    class "Emargoed_Access_COAR_v1_Accessibility_Specification"{
        embargoEndDate : Date
    }

    class "Journal"{
        DOI : DOI_Type
        title : Multilingual_String
        ISSN : ISSN_Type
        eISSN : ISSN_Type
        acronym : Multilingual_String
        startDate : Date
        endDate : Date
    }

    class "Journal_Article"{
        startPage : String
        endPage : String
        volume : String
        number : String
    }

    class "Monograph"{
        ISBN : ISBN_Type
        eISBN : ISBN_Type
    }
    class "Editorship"{
        leadingEditorFlag : Boolean
    }
    class "Publishership"{
        leadingPublisherFlag : Boolean
    }
    class "CRediT_Contribution_Statement"{
    }
    enum "CRediT_Degree_of_Contribution"{
        Lead
        Supporting
        Equal
    }
    enum "CRediT_Role_Type"{
        Conceptualization
        Data curation
        Formal analysis
        Funding acquisition
        Investigation
        Methodology
        Project administration
        Resources
        Software
        Supervision
        Validation
        Visualization
        Writing - original draft
        Writing - review & editing
    }

    "Textual_Document_Accessibility_Specification" <|- - "COAR_Accessibility_Specification_v1"
    "COAR_Accessibility_Specification_v1" <|- - "Open_Access_COAR_v1_Accessibility_Specification"
    "COAR_Accessibility_Specification_v1" <|- - "Restricted_Access_COAR_v1_Accessibility_Specification"
    "COAR_Accessibility_Specification_v1" <|- - "Emargoed_Access_COAR_v1_Accessibility_Specification"
    "COAR_Accessibility_Specification_v1" <|- - "Metadata_Only_Access_COAR_v1_Accessibility_Specification"
    "Textual_Document" <|- - "Journal_Article"
    "Textual_Document" <|- - "Monograph"
    "Contributorship" <|- - "Editorship"
    "Contributorship" <|- - "Publishership"
    "Contribution_Statement" <|- - "CRediT_Contribution_Statement"
    "Journal" o- - "0..* predecessors" "Journal"
    "Journal" o- -  "0..* publishers" "Agent"
    "Journal_Article" "0..*" o- - "source" "Journal"
    "Editorship" - -> "editor" "Agent"
    note on link #yellow: editor == contributor
    "Publishership" - -> "publisher" "Agent"
    note on link #yellow: publisher == contributor
    "CRediT_Contribution_Statement" ..> "roleType" "CRediT_Role_Type"
    "CRediT_Contribution_Statement" ..> "degreeOfContribution" "CRediT_Degree_of_Contribution"

    note right of "CRediT Role Type": The CRediT is currently not expressed as Linked Open Data. \nWe hope it will be in the future. We estimate it will be more \nstraightforward for it to be exposed as a list of terms (perhaps \na SKOS concept scheme), rather than a class hierarchy. \nThis justifies our choice to model it as an enumeration rather \nthan a class hierarchy in our model.
@enduml

PlantUML version 1.2021.8(Sat Jun 26 10:20:59 CEST 2021)
(GPL source distribution)
Java Runtime: Java(TM) SE Runtime Environment
JVM: Java HotSpot(TM) Client VM
Default Encoding: Cp1252
Language: en
Country: US
--></g></svg>