<?xml version="1.0" encoding="UTF-8" standalone="no"?><svg xmlns="http://www.w3.org/2000/svg" xmlns:xlink="http://www.w3.org/1999/xlink" contentScriptType="application/ecmascript" contentStyleType="text/css" height="1460px" preserveAspectRatio="none" style="width:2309px;height:1460px;background:#FFFFFF;" version="1.1" viewBox="0 0 2309 1460" width="2309px" zoomAndPan="magnify"><defs><filter height="300%" id="fu8377ezjaon2" width="300%" x="-1" y="-1"><feGaussianBlur result="blurOut" stdDeviation="2.0"/><feColorMatrix in="blurOut" result="blurOut2" type="matrix" values="0 0 0 0 0 0 0 0 0 0 0 0 0 0 0 0 0 0 .4 0"/><feOffset dx="4.0" dy="4.0" in="blurOut2" result="blurOut3"/><feBlend in="SourceGraphic" in2="blurOut3" mode="normal"/></filter></defs><g><!--MD5=[59b530d44ae785dc18db921986a9c15c]
class Document--><rect codeLine="7" fill="#00FFFF" filter="url(#fu8377ezjaon2)" height="53.8359" id="Document" style="stroke:#A80036;stroke-width:1.5;" width="314" x="594.5" y="710"/><ellipse cx="718.75" cy="726" fill="#ADD1B2" rx="11" ry="11" style="stroke:#A80036;stroke-width:1.0;"/><path d="M721.5156,721.875 Q721.6719,721.6563 721.8594,721.5469 Q722.0469,721.4375 722.2656,721.4375 Q722.6406,721.4375 722.875,721.6953 Q723.1094,721.9531 723.1094,722.5625 L723.1094,724.0156 Q723.1094,724.625 722.875,724.8906 Q722.6406,725.1563 722.2656,725.1563 Q721.9219,725.1563 721.7188,724.9531 Q721.5156,724.7656 721.4063,724.25 Q721.3594,723.8906 721.1719,723.7031 Q720.8438,723.3281 720.2344,723.1094 Q719.625,722.8906 719,722.8906 Q718.2344,722.8906 717.6016,723.2188 Q716.9688,723.5469 716.4766,724.2969 Q715.9844,725.0469 715.9844,726.0781 L715.9844,727.1719 Q715.9844,728.4063 716.875,729.2266 Q717.7656,730.0469 719.3594,730.0469 Q720.2969,730.0469 720.9531,729.7969 Q721.3438,729.6406 721.7656,729.2031 Q722.0313,728.9375 722.1797,728.8594 Q722.3281,728.7813 722.5313,728.7813 Q722.8594,728.7813 723.1172,729.0391 Q723.375,729.2969 723.375,729.6406 Q723.375,729.9844 723.0313,730.3906 Q722.5313,730.9688 721.7344,731.2969 Q720.6563,731.75 719.3594,731.75 Q717.8438,731.75 716.6406,731.125 Q715.6563,730.625 714.9688,729.5547 Q714.2813,728.4844 714.2813,727.2031 L714.2813,726.0469 Q714.2813,724.7188 714.8984,723.5703 Q715.5156,722.4219 716.6094,721.8047 Q717.7031,721.1875 718.9375,721.1875 Q719.6719,721.1875 720.3203,721.3516 Q720.9688,721.5156 721.5156,721.875 Z " fill="#000000"/><text fill="#000000" font-family="sans-serif" font-size="12" lengthAdjust="spacing" textLength="57" x="739.25" y="730.9102">Document</text><line style="stroke:#A80036;stroke-width:1.5;" x1="595.5" x2="907.5" y1="742" y2="742"/><text fill="#000000" font-family="sans-serif" font-size="11" lengthAdjust="spacing" textLength="302" x="600.5" y="757.4189">class "Textual_Document_Accessibility_Specification"#00ffff {</text><!--MD5=[9d44916250b776386006c440668bcfbb]
class Agent--><rect codeLine="19" fill="#00FFFF" filter="url(#fu8377ezjaon2)" height="32" id="Agent" style="stroke:#A80036;stroke-width:1.5;" width="63" x="282" y="721"/><ellipse cx="297" cy="737" fill="#ADD1B2" rx="11" ry="11" style="stroke:#A80036;stroke-width:1.0;"/><path d="M299.7656,732.875 Q299.9219,732.6563 300.1094,732.5469 Q300.2969,732.4375 300.5156,732.4375 Q300.8906,732.4375 301.125,732.6953 Q301.3594,732.9531 301.3594,733.5625 L301.3594,735.0156 Q301.3594,735.625 301.125,735.8906 Q300.8906,736.1563 300.5156,736.1563 Q300.1719,736.1563 299.9688,735.9531 Q299.7656,735.7656 299.6563,735.25 Q299.6094,734.8906 299.4219,734.7031 Q299.0938,734.3281 298.4844,734.1094 Q297.875,733.8906 297.25,733.8906 Q296.4844,733.8906 295.8516,734.2188 Q295.2188,734.5469 294.7266,735.2969 Q294.2344,736.0469 294.2344,737.0781 L294.2344,738.1719 Q294.2344,739.4063 295.125,740.2266 Q296.0156,741.0469 297.6094,741.0469 Q298.5469,741.0469 299.2031,740.7969 Q299.5938,740.6406 300.0156,740.2031 Q300.2813,739.9375 300.4297,739.8594 Q300.5781,739.7813 300.7813,739.7813 Q301.1094,739.7813 301.3672,740.0391 Q301.625,740.2969 301.625,740.6406 Q301.625,740.9844 301.2813,741.3906 Q300.7813,741.9688 299.9844,742.2969 Q298.9063,742.75 297.6094,742.75 Q296.0938,742.75 294.8906,742.125 Q293.9063,741.625 293.2188,740.5547 Q292.5313,739.4844 292.5313,738.2031 L292.5313,737.0469 Q292.5313,735.7188 293.1484,734.5703 Q293.7656,733.4219 294.8594,732.8047 Q295.9531,732.1875 297.1875,732.1875 Q297.9219,732.1875 298.5703,732.3516 Q299.2188,732.5156 299.7656,732.875 Z " fill="#000000"/><text fill="#000000" font-family="sans-serif" font-size="12" lengthAdjust="spacing" textLength="31" x="311" y="741.9102">Agent</text><!--MD5=[779f3743e425ed8a6f0bf188ddea4860]
class Organisation_Unit--><rect codeLine="22" fill="#00FFFF" filter="url(#fu8377ezjaon2)" height="53.8359" id="Organisation_Unit" style="stroke:#A80036;stroke-width:1.5;" width="132" x="146.5" y="1211"/><ellipse cx="161.5" cy="1227" fill="#ADD1B2" rx="11" ry="11" style="stroke:#A80036;stroke-width:1.0;"/><path d="M164.2656,1222.875 Q164.4219,1222.6563 164.6094,1222.5469 Q164.7969,1222.4375 165.0156,1222.4375 Q165.3906,1222.4375 165.625,1222.6953 Q165.8594,1222.9531 165.8594,1223.5625 L165.8594,1225.0156 Q165.8594,1225.625 165.625,1225.8906 Q165.3906,1226.1563 165.0156,1226.1563 Q164.6719,1226.1563 164.4688,1225.9531 Q164.2656,1225.7656 164.1563,1225.25 Q164.1094,1224.8906 163.9219,1224.7031 Q163.5938,1224.3281 162.9844,1224.1094 Q162.375,1223.8906 161.75,1223.8906 Q160.9844,1223.8906 160.3516,1224.2188 Q159.7188,1224.5469 159.2266,1225.2969 Q158.7344,1226.0469 158.7344,1227.0781 L158.7344,1228.1719 Q158.7344,1229.4063 159.625,1230.2266 Q160.5156,1231.0469 162.1094,1231.0469 Q163.0469,1231.0469 163.7031,1230.7969 Q164.0938,1230.6406 164.5156,1230.2031 Q164.7813,1229.9375 164.9297,1229.8594 Q165.0781,1229.7813 165.2813,1229.7813 Q165.6094,1229.7813 165.8672,1230.0391 Q166.125,1230.2969 166.125,1230.6406 Q166.125,1230.9844 165.7813,1231.3906 Q165.2813,1231.9688 164.4844,1232.2969 Q163.4063,1232.75 162.1094,1232.75 Q160.5938,1232.75 159.3906,1232.125 Q158.4063,1231.625 157.7188,1230.5547 Q157.0313,1229.4844 157.0313,1228.2031 L157.0313,1227.0469 Q157.0313,1225.7188 157.6484,1224.5703 Q158.2656,1223.4219 159.3594,1222.8047 Q160.4531,1222.1875 161.6875,1222.1875 Q162.4219,1222.1875 163.0703,1222.3516 Q163.7188,1222.5156 164.2656,1222.875 Z " fill="#000000"/><text fill="#000000" font-family="sans-serif" font-size="12" lengthAdjust="spacing" textLength="100" x="175.5" y="1231.9102">Organisation_Unit</text><line style="stroke:#A80036;stroke-width:1.5;" x1="147.5" x2="277.5" y1="1243" y2="1243"/><text fill="#000000" font-family="sans-serif" font-size="11" lengthAdjust="spacing" textLength="120" x="152.5" y="1258.4189">name : Multilingual_String</text><!--MD5=[09ce52be0ee7de43c61b6e2d59bf108b]
class Person--><rect codeLine="25" fill="#00FFFF" filter="url(#fu8377ezjaon2)" height="53.8359" id="Person" style="stroke:#A80036;stroke-width:1.5;" width="99" x="394" y="1211"/><ellipse cx="421.15" cy="1227" fill="#ADD1B2" rx="11" ry="11" style="stroke:#A80036;stroke-width:1.0;"/><path d="M423.9156,1222.875 Q424.0719,1222.6563 424.2594,1222.5469 Q424.4469,1222.4375 424.6656,1222.4375 Q425.0406,1222.4375 425.275,1222.6953 Q425.5094,1222.9531 425.5094,1223.5625 L425.5094,1225.0156 Q425.5094,1225.625 425.275,1225.8906 Q425.0406,1226.1563 424.6656,1226.1563 Q424.3219,1226.1563 424.1188,1225.9531 Q423.9156,1225.7656 423.8063,1225.25 Q423.7594,1224.8906 423.5719,1224.7031 Q423.2438,1224.3281 422.6344,1224.1094 Q422.025,1223.8906 421.4,1223.8906 Q420.6344,1223.8906 420.0016,1224.2188 Q419.3688,1224.5469 418.8766,1225.2969 Q418.3844,1226.0469 418.3844,1227.0781 L418.3844,1228.1719 Q418.3844,1229.4063 419.275,1230.2266 Q420.1656,1231.0469 421.7594,1231.0469 Q422.6969,1231.0469 423.3531,1230.7969 Q423.7438,1230.6406 424.1656,1230.2031 Q424.4313,1229.9375 424.5797,1229.8594 Q424.7281,1229.7813 424.9313,1229.7813 Q425.2594,1229.7813 425.5172,1230.0391 Q425.775,1230.2969 425.775,1230.6406 Q425.775,1230.9844 425.4313,1231.3906 Q424.9313,1231.9688 424.1344,1232.2969 Q423.0563,1232.75 421.7594,1232.75 Q420.2438,1232.75 419.0406,1232.125 Q418.0563,1231.625 417.3688,1230.5547 Q416.6813,1229.4844 416.6813,1228.2031 L416.6813,1227.0469 Q416.6813,1225.7188 417.2984,1224.5703 Q417.9156,1223.4219 419.0094,1222.8047 Q420.1031,1222.1875 421.3375,1222.1875 Q422.0719,1222.1875 422.7203,1222.3516 Q423.3688,1222.5156 423.9156,1222.875 Z " fill="#000000"/><text fill="#000000" font-family="sans-serif" font-size="12" lengthAdjust="spacing" textLength="40" x="437.85" y="1231.9102">Person</text><line style="stroke:#A80036;stroke-width:1.5;" x1="395" x2="492" y1="1243" y2="1243"/><text fill="#000000" font-family="sans-serif" font-size="11" lengthAdjust="spacing" textLength="87" x="400" y="1258.4189">orcidid : ORCID_iD</text><!--MD5=[7b209ef07eb91b93e0aebc9fe4fb9a26]
class Person_Name--><rect codeLine="28" fill="#00FFFF" filter="url(#fu8377ezjaon2)" height="89.6953" id="Person_Name" style="stroke:#A80036;stroke-width:1.5;" width="113" x="387" y="1353.5"/><ellipse cx="402" cy="1373.5938" fill="#FF7700" rx="11" ry="11" style="stroke:#A80036;stroke-width:1.0;"/><path d="M399.5469,1376.8906 L399.5469,1370.2344 Q399,1370.2188 398.7422,1369.9844 Q398.4844,1369.75 398.4844,1369.375 Q398.4844,1369 398.75,1368.7656 Q399.0156,1368.5313 399.625,1368.5313 L403.1875,1368.5313 Q404.0156,1368.5313 404.8125,1368.8359 Q405.6094,1369.1406 406.0938,1369.625 Q406.4531,1369.9844 406.8438,1370.6016 Q407.2344,1371.2188 407.4375,1371.8359 Q407.6406,1372.4531 407.6406,1373.3438 L407.6406,1374.1563 Q407.6406,1375.2344 407.2734,1376.0703 Q406.9063,1376.9063 406.3125,1377.4297 Q405.7188,1377.9531 405.2031,1378.2031 Q404.375,1378.5938 403.0469,1378.5938 L399.625,1378.5938 Q399.0156,1378.5938 398.75,1378.3594 Q398.4844,1378.125 398.4844,1377.7344 Q398.4844,1377.3594 398.75,1377.125 Q399.0156,1376.8906 399.5469,1376.8906 Z M401.25,1376.8906 L403.0625,1376.8906 Q404.0625,1376.8906 404.5781,1376.5938 Q405.25,1376.2188 405.5938,1375.6328 Q405.9375,1375.0469 405.9375,1374.1094 L405.9375,1373.2969 Q405.9375,1372.5 405.625,1371.8906 Q405.1406,1370.9375 404.5391,1370.5859 Q403.9375,1370.2344 403.0469,1370.2344 L401.25,1370.2344 L401.25,1376.8906 Z " fill="#000000"/><text fill="#000000" font-family="sans-serif" font-size="12" font-style="italic" lengthAdjust="spacing" textLength="67" x="423" y="1370.957">«DataType»</text><text fill="#000000" font-family="sans-serif" font-size="12" lengthAdjust="spacing" textLength="81" x="416" y="1386.0508">Person_Name</text><line style="stroke:#A80036;stroke-width:1.5;" x1="388" x2="499" y1="1393.6875" y2="1393.6875"/><text fill="#000000" font-family="sans-serif" font-size="11" lengthAdjust="spacing" textLength="89" x="393" y="1409.1064">firstNames : String</text><text fill="#000000" font-family="sans-serif" font-size="11" lengthAdjust="spacing" textLength="98" x="393" y="1422.9424">familyNames : String</text><text fill="#000000" font-family="sans-serif" font-size="11" lengthAdjust="spacing" textLength="95" x="393" y="1436.7783">otherNames : String</text><!--MD5=[3b25461e5df73ababc6765bb9b0c47d3]
class Authorship--><rect codeLine="33" fill="#00FFFF" filter="url(#fu8377ezjaon2)" height="53.8359" id="Authorship" style="stroke:#A80036;stroke-width:1.5;" width="183" x="302" y="175"/><ellipse cx="359.75" cy="191" fill="#ADD1B2" rx="11" ry="11" style="stroke:#A80036;stroke-width:1.0;"/><path d="M362.5156,186.875 Q362.6719,186.6563 362.8594,186.5469 Q363.0469,186.4375 363.2656,186.4375 Q363.6406,186.4375 363.875,186.6953 Q364.1094,186.9531 364.1094,187.5625 L364.1094,189.0156 Q364.1094,189.625 363.875,189.8906 Q363.6406,190.1563 363.2656,190.1563 Q362.9219,190.1563 362.7188,189.9531 Q362.5156,189.7656 362.4063,189.25 Q362.3594,188.8906 362.1719,188.7031 Q361.8438,188.3281 361.2344,188.1094 Q360.625,187.8906 360,187.8906 Q359.2344,187.8906 358.6016,188.2188 Q357.9688,188.5469 357.4766,189.2969 Q356.9844,190.0469 356.9844,191.0781 L356.9844,192.1719 Q356.9844,193.4063 357.875,194.2266 Q358.7656,195.0469 360.3594,195.0469 Q361.2969,195.0469 361.9531,194.7969 Q362.3438,194.6406 362.7656,194.2031 Q363.0313,193.9375 363.1797,193.8594 Q363.3281,193.7813 363.5313,193.7813 Q363.8594,193.7813 364.1172,194.0391 Q364.375,194.2969 364.375,194.6406 Q364.375,194.9844 364.0313,195.3906 Q363.5313,195.9688 362.7344,196.2969 Q361.6563,196.75 360.3594,196.75 Q358.8438,196.75 357.6406,196.125 Q356.6563,195.625 355.9688,194.5547 Q355.2813,193.4844 355.2813,192.2031 L355.2813,191.0469 Q355.2813,189.7188 355.8984,188.5703 Q356.5156,187.4219 357.6094,186.8047 Q358.7031,186.1875 359.9375,186.1875 Q360.6719,186.1875 361.3203,186.3516 Q361.9688,186.5156 362.5156,186.875 Z " fill="#000000"/><text fill="#000000" font-family="sans-serif" font-size="12" lengthAdjust="spacing" textLength="59" x="380.25" y="195.9102">Authorship</text><line style="stroke:#A80036;stroke-width:1.5;" x1="303" x2="484" y1="207" y2="207"/><text fill="#000000" font-family="sans-serif" font-size="11" lengthAdjust="spacing" textLength="171" x="308" y="222.4189">correspondingAuthorFlag : Boolean</text><!--MD5=[b821bb113f9f55c728f1fbb8949cc3af]
class Contributorship--><rect codeLine="37" fill="#00FFFF" filter="url(#fu8377ezjaon2)" height="67.6719" id="Contributorship" style="stroke:#A80036;stroke-width:1.5;" width="117" x="442" y="703"/><ellipse cx="457" cy="719" fill="#ADD1B2" rx="11" ry="11" style="stroke:#A80036;stroke-width:1.0;"/><path d="M459.7656,714.875 Q459.9219,714.6563 460.1094,714.5469 Q460.2969,714.4375 460.5156,714.4375 Q460.8906,714.4375 461.125,714.6953 Q461.3594,714.9531 461.3594,715.5625 L461.3594,717.0156 Q461.3594,717.625 461.125,717.8906 Q460.8906,718.1563 460.5156,718.1563 Q460.1719,718.1563 459.9688,717.9531 Q459.7656,717.7656 459.6563,717.25 Q459.6094,716.8906 459.4219,716.7031 Q459.0938,716.3281 458.4844,716.1094 Q457.875,715.8906 457.25,715.8906 Q456.4844,715.8906 455.8516,716.2188 Q455.2188,716.5469 454.7266,717.2969 Q454.2344,718.0469 454.2344,719.0781 L454.2344,720.1719 Q454.2344,721.4063 455.125,722.2266 Q456.0156,723.0469 457.6094,723.0469 Q458.5469,723.0469 459.2031,722.7969 Q459.5938,722.6406 460.0156,722.2031 Q460.2813,721.9375 460.4297,721.8594 Q460.5781,721.7813 460.7813,721.7813 Q461.1094,721.7813 461.3672,722.0391 Q461.625,722.2969 461.625,722.6406 Q461.625,722.9844 461.2813,723.3906 Q460.7813,723.9688 459.9844,724.2969 Q458.9063,724.75 457.6094,724.75 Q456.0938,724.75 454.8906,724.125 Q453.9063,723.625 453.2188,722.5547 Q452.5313,721.4844 452.5313,720.2031 L452.5313,719.0469 Q452.5313,717.7188 453.1484,716.5703 Q453.7656,715.4219 454.8594,714.8047 Q455.9531,714.1875 457.1875,714.1875 Q457.9219,714.1875 458.5703,714.3516 Q459.2188,714.5156 459.7656,714.875 Z " fill="#000000"/><text fill="#000000" font-family="sans-serif" font-size="12" lengthAdjust="spacing" textLength="85" x="471" y="723.9102">Contributorship</text><line style="stroke:#A80036;stroke-width:1.5;" x1="443" x2="558" y1="735" y2="735"/><text fill="#000000" font-family="sans-serif" font-size="11" lengthAdjust="spacing" textLength="96" x="448" y="750.4189">contacts : List&lt;URI&gt;</text><text fill="#000000" font-family="sans-serif" font-size="11" lengthAdjust="spacing" textLength="98" x="448" y="764.2549">displayName : String</text><!--MD5=[532fe005ca0bef0ad6b309c9c6480e22]
class Contribution_Statement--><rect codeLine="41" fill="#00FFFF" filter="url(#fu8377ezjaon2)" height="32" id="Contribution_Statement" style="stroke:#A80036;stroke-width:1.5;" width="162" x="942.5" y="537.5"/><ellipse cx="957.5" cy="553.5" fill="#ADD1B2" rx="11" ry="11" style="stroke:#A80036;stroke-width:1.0;"/><path d="M960.2656,549.375 Q960.4219,549.1563 960.6094,549.0469 Q960.7969,548.9375 961.0156,548.9375 Q961.3906,548.9375 961.625,549.1953 Q961.8594,549.4531 961.8594,550.0625 L961.8594,551.5156 Q961.8594,552.125 961.625,552.3906 Q961.3906,552.6563 961.0156,552.6563 Q960.6719,552.6563 960.4688,552.4531 Q960.2656,552.2656 960.1563,551.75 Q960.1094,551.3906 959.9219,551.2031 Q959.5938,550.8281 958.9844,550.6094 Q958.375,550.3906 957.75,550.3906 Q956.9844,550.3906 956.3516,550.7188 Q955.7188,551.0469 955.2266,551.7969 Q954.7344,552.5469 954.7344,553.5781 L954.7344,554.6719 Q954.7344,555.9063 955.625,556.7266 Q956.5156,557.5469 958.1094,557.5469 Q959.0469,557.5469 959.7031,557.2969 Q960.0938,557.1406 960.5156,556.7031 Q960.7813,556.4375 960.9297,556.3594 Q961.0781,556.2813 961.2813,556.2813 Q961.6094,556.2813 961.8672,556.5391 Q962.125,556.7969 962.125,557.1406 Q962.125,557.4844 961.7813,557.8906 Q961.2813,558.4688 960.4844,558.7969 Q959.4063,559.25 958.1094,559.25 Q956.5938,559.25 955.3906,558.625 Q954.4063,558.125 953.7188,557.0547 Q953.0313,555.9844 953.0313,554.7031 L953.0313,553.5469 Q953.0313,552.2188 953.6484,551.0703 Q954.2656,549.9219 955.3594,549.3047 Q956.4531,548.6875 957.6875,548.6875 Q958.4219,548.6875 959.0703,548.8516 Q959.7188,549.0156 960.2656,549.375 Z " fill="#000000"/><text fill="#000000" font-family="sans-serif" font-size="12" lengthAdjust="spacing" textLength="130" x="971.5" y="558.4102">Contribution_Statement</text><!--MD5=[e67d803be009978640e98815ecdddf28]
class Free_Text_Contribution--><rect codeLine="43" fill="#00FFFF" filter="url(#fu8377ezjaon2)" height="53.8359" id="Free_Text_Contribution" style="stroke:#A80036;stroke-width:1.5;" width="160" x="943.5" y="710"/><ellipse cx="958.5" cy="726" fill="#ADD1B2" rx="11" ry="11" style="stroke:#A80036;stroke-width:1.0;"/><path d="M961.2656,721.875 Q961.4219,721.6563 961.6094,721.5469 Q961.7969,721.4375 962.0156,721.4375 Q962.3906,721.4375 962.625,721.6953 Q962.8594,721.9531 962.8594,722.5625 L962.8594,724.0156 Q962.8594,724.625 962.625,724.8906 Q962.3906,725.1563 962.0156,725.1563 Q961.6719,725.1563 961.4688,724.9531 Q961.2656,724.7656 961.1563,724.25 Q961.1094,723.8906 960.9219,723.7031 Q960.5938,723.3281 959.9844,723.1094 Q959.375,722.8906 958.75,722.8906 Q957.9844,722.8906 957.3516,723.2188 Q956.7188,723.5469 956.2266,724.2969 Q955.7344,725.0469 955.7344,726.0781 L955.7344,727.1719 Q955.7344,728.4063 956.625,729.2266 Q957.5156,730.0469 959.1094,730.0469 Q960.0469,730.0469 960.7031,729.7969 Q961.0938,729.6406 961.5156,729.2031 Q961.7813,728.9375 961.9297,728.8594 Q962.0781,728.7813 962.2813,728.7813 Q962.6094,728.7813 962.8672,729.0391 Q963.125,729.2969 963.125,729.6406 Q963.125,729.9844 962.7813,730.3906 Q962.2813,730.9688 961.4844,731.2969 Q960.4063,731.75 959.1094,731.75 Q957.5938,731.75 956.3906,731.125 Q955.4063,730.625 954.7188,729.5547 Q954.0313,728.4844 954.0313,727.2031 L954.0313,726.0469 Q954.0313,724.7188 954.6484,723.5703 Q955.2656,722.4219 956.3594,721.8047 Q957.4531,721.1875 958.6875,721.1875 Q959.4219,721.1875 960.0703,721.3516 Q960.7188,721.5156 961.2656,721.875 Z " fill="#000000"/><text fill="#000000" font-family="sans-serif" font-size="12" lengthAdjust="spacing" textLength="128" x="972.5" y="730.9102">Free_Text_Contribution</text><line style="stroke:#A80036;stroke-width:1.5;" x1="944.5" x2="1102.5" y1="742" y2="742"/><text fill="#000000" font-family="sans-serif" font-size="11" lengthAdjust="spacing" textLength="141" x="949.5" y="757.4189">statement : Multilingual_String</text><!--MD5=[ddbff00b4911ad4b77d6aa32dd14d1d7]
class Affiliation_Statement--><rect codeLine="47" fill="#00FFFF" filter="url(#fu8377ezjaon2)" height="53.8359" id="Affiliation_Statement" style="stroke:#A80036;stroke-width:1.5;" width="144" x="670.5" y="981"/><ellipse cx="685.5" cy="997" fill="#ADD1B2" rx="11" ry="11" style="stroke:#A80036;stroke-width:1.0;"/><path d="M688.2656,992.875 Q688.4219,992.6563 688.6094,992.5469 Q688.7969,992.4375 689.0156,992.4375 Q689.3906,992.4375 689.625,992.6953 Q689.8594,992.9531 689.8594,993.5625 L689.8594,995.0156 Q689.8594,995.625 689.625,995.8906 Q689.3906,996.1563 689.0156,996.1563 Q688.6719,996.1563 688.4688,995.9531 Q688.2656,995.7656 688.1563,995.25 Q688.1094,994.8906 687.9219,994.7031 Q687.5938,994.3281 686.9844,994.1094 Q686.375,993.8906 685.75,993.8906 Q684.9844,993.8906 684.3516,994.2188 Q683.7188,994.5469 683.2266,995.2969 Q682.7344,996.0469 682.7344,997.0781 L682.7344,998.1719 Q682.7344,999.4063 683.625,1000.2266 Q684.5156,1001.0469 686.1094,1001.0469 Q687.0469,1001.0469 687.7031,1000.7969 Q688.0938,1000.6406 688.5156,1000.2031 Q688.7813,999.9375 688.9297,999.8594 Q689.0781,999.7813 689.2813,999.7813 Q689.6094,999.7813 689.8672,1000.0391 Q690.125,1000.2969 690.125,1000.6406 Q690.125,1000.9844 689.7813,1001.3906 Q689.2813,1001.9688 688.4844,1002.2969 Q687.4063,1002.75 686.1094,1002.75 Q684.5938,1002.75 683.3906,1002.125 Q682.4063,1001.625 681.7188,1000.5547 Q681.0313,999.4844 681.0313,998.2031 L681.0313,997.0469 Q681.0313,995.7188 681.6484,994.5703 Q682.2656,993.4219 683.3594,992.8047 Q684.4531,992.1875 685.6875,992.1875 Q686.4219,992.1875 687.0703,992.3516 Q687.7188,992.5156 688.2656,992.875 Z " fill="#000000"/><text fill="#000000" font-family="sans-serif" font-size="12" lengthAdjust="spacing" textLength="112" x="699.5" y="1001.9102">Affiliation_Statement</text><line style="stroke:#A80036;stroke-width:1.5;" x1="671.5" x2="813.5" y1="1013" y2="1013"/><text fill="#000000" font-family="sans-serif" font-size="11" lengthAdjust="spacing" textLength="116" x="676.5" y="1028.4189">displayAffiliation : String</text><!--MD5=[fe1d14fe6d68ca7e76eb34268c62a1f3]
class Postal_Address--><rect codeLine="50" fill="#00FFFF" filter="url(#fu8377ezjaon2)" height="103.5313" id="Postal_Address" style="stroke:#A80036;stroke-width:1.5;" width="120" x="682.5" y="1186"/><ellipse cx="697.5" cy="1206.0938" fill="#FF7700" rx="11" ry="11" style="stroke:#A80036;stroke-width:1.0;"/><path d="M695.0469,1209.3906 L695.0469,1202.7344 Q694.5,1202.7188 694.2422,1202.4844 Q693.9844,1202.25 693.9844,1201.875 Q693.9844,1201.5 694.25,1201.2656 Q694.5156,1201.0313 695.125,1201.0313 L698.6875,1201.0313 Q699.5156,1201.0313 700.3125,1201.3359 Q701.1094,1201.6406 701.5938,1202.125 Q701.9531,1202.4844 702.3438,1203.1016 Q702.7344,1203.7188 702.9375,1204.3359 Q703.1406,1204.9531 703.1406,1205.8438 L703.1406,1206.6563 Q703.1406,1207.7344 702.7734,1208.5703 Q702.4063,1209.4063 701.8125,1209.9297 Q701.2188,1210.4531 700.7031,1210.7031 Q699.875,1211.0938 698.5469,1211.0938 L695.125,1211.0938 Q694.5156,1211.0938 694.25,1210.8594 Q693.9844,1210.625 693.9844,1210.2344 Q693.9844,1209.8594 694.25,1209.625 Q694.5156,1209.3906 695.0469,1209.3906 Z M696.75,1209.3906 L698.5625,1209.3906 Q699.5625,1209.3906 700.0781,1209.0938 Q700.75,1208.7188 701.0938,1208.1328 Q701.4375,1207.5469 701.4375,1206.6094 L701.4375,1205.7969 Q701.4375,1205 701.125,1204.3906 Q700.6406,1203.4375 700.0391,1203.0859 Q699.4375,1202.7344 698.5469,1202.7344 L696.75,1202.7344 L696.75,1209.3906 Z " fill="#000000"/><text fill="#000000" font-family="sans-serif" font-size="12" font-style="italic" lengthAdjust="spacing" textLength="67" x="722" y="1203.457">«DataType»</text><text fill="#000000" font-family="sans-serif" font-size="12" lengthAdjust="spacing" textLength="88" x="711.5" y="1218.5508">Postal_Address</text><line style="stroke:#A80036;stroke-width:1.5;" x1="683.5" x2="801.5" y1="1226.1875" y2="1226.1875"/><text fill="#000000" font-family="sans-serif" font-size="11" lengthAdjust="spacing" textLength="65" x="688.5" y="1241.6064">street : String</text><text fill="#000000" font-family="sans-serif" font-size="11" lengthAdjust="spacing" textLength="54" x="688.5" y="1255.4424">city : String</text><text fill="#000000" font-family="sans-serif" font-size="11" lengthAdjust="spacing" textLength="76" x="688.5" y="1269.2783">zipCode : String</text><text fill="#000000" font-family="sans-serif" font-size="11" lengthAdjust="spacing" textLength="84" x="688.5" y="1283.1143">country : Country</text><!--MD5=[deb4e1f6eb1e3c1256fdb830f96abfbb]
class Country--><rect codeLine="56" fill="#00FFFF" filter="url(#fu8377ezjaon2)" height="95.3438" id="Country" style="stroke:#A80036;stroke-width:1.5;" width="254" x="615.5" y="1351"/><ellipse cx="717.25" cy="1367" fill="#ADD1B2" rx="11" ry="11" style="stroke:#A80036;stroke-width:1.0;"/><path d="M720.0156,1362.875 Q720.1719,1362.6563 720.3594,1362.5469 Q720.5469,1362.4375 720.7656,1362.4375 Q721.1406,1362.4375 721.375,1362.6953 Q721.6094,1362.9531 721.6094,1363.5625 L721.6094,1365.0156 Q721.6094,1365.625 721.375,1365.8906 Q721.1406,1366.1563 720.7656,1366.1563 Q720.4219,1366.1563 720.2188,1365.9531 Q720.0156,1365.7656 719.9063,1365.25 Q719.8594,1364.8906 719.6719,1364.7031 Q719.3438,1364.3281 718.7344,1364.1094 Q718.125,1363.8906 717.5,1363.8906 Q716.7344,1363.8906 716.1016,1364.2188 Q715.4688,1364.5469 714.9766,1365.2969 Q714.4844,1366.0469 714.4844,1367.0781 L714.4844,1368.1719 Q714.4844,1369.4063 715.375,1370.2266 Q716.2656,1371.0469 717.8594,1371.0469 Q718.7969,1371.0469 719.4531,1370.7969 Q719.8438,1370.6406 720.2656,1370.2031 Q720.5313,1369.9375 720.6797,1369.8594 Q720.8281,1369.7813 721.0313,1369.7813 Q721.3594,1369.7813 721.6172,1370.0391 Q721.875,1370.2969 721.875,1370.6406 Q721.875,1370.9844 721.5313,1371.3906 Q721.0313,1371.9688 720.2344,1372.2969 Q719.1563,1372.75 717.8594,1372.75 Q716.3438,1372.75 715.1406,1372.125 Q714.1563,1371.625 713.4688,1370.5547 Q712.7813,1369.4844 712.7813,1368.2031 L712.7813,1367.0469 Q712.7813,1365.7188 713.3984,1364.5703 Q714.0156,1363.4219 715.1094,1362.8047 Q716.2031,1362.1875 717.4375,1362.1875 Q718.1719,1362.1875 718.8203,1362.3516 Q719.4688,1362.5156 720.0156,1362.875 Z " fill="#000000"/><text fill="#000000" font-family="sans-serif" font-size="12" lengthAdjust="spacing" textLength="42" x="737.75" y="1371.9102">Country</text><line style="stroke:#A80036;stroke-width:1.5;" x1="616.5" x2="868.5" y1="1383" y2="1383"/><text fill="#000000" font-family="sans-serif" font-size="11" lengthAdjust="spacing" textLength="120" x="635.5" y="1398.4189">name : Multilingual_String</text><text fill="#000000" font-family="sans-serif" font-size="11" lengthAdjust="spacing" textLength="216" x="635.5" y="1412.2549">iso3166alpha2Code : ISO3166_Alpha2_Code</text><polygon fill="none" points="626.5,1416.6719,630.5,1420.6719,626.5,1424.6719,622.5,1420.6719" style="stroke:#B38D22;stroke-width:1.0;"/><text fill="#000000" font-family="sans-serif" font-size="11" lengthAdjust="spacing" textLength="228" x="635.5" y="1426.0908">iso3166NumericCode : ISO3166_Numeric_Code</text><polygon fill="none" points="626.5,1430.5078,630.5,1434.5078,626.5,1438.5078,622.5,1434.5078" style="stroke:#B38D22;stroke-width:1.0;"/><text fill="#000000" font-family="sans-serif" font-size="11" lengthAdjust="spacing" textLength="172" x="635.5" y="1439.9268">euCountryCode : EU_Country_Code</text><!--MD5=[fe105c2ee1fabf2400c31a97ce9128bc]
class Textual_Document--><rect fill="#FEFECE" filter="url(#fu8377ezjaon2)" height="32" id="Textual_Document" style="stroke:#A80036;stroke-width:1.5;" width="135" x="550" y="186"/><ellipse cx="565" cy="202" fill="#ADD1B2" rx="11" ry="11" style="stroke:#A80036;stroke-width:1.0;"/><path d="M567.7656,197.875 Q567.9219,197.6563 568.1094,197.5469 Q568.2969,197.4375 568.5156,197.4375 Q568.8906,197.4375 569.125,197.6953 Q569.3594,197.9531 569.3594,198.5625 L569.3594,200.0156 Q569.3594,200.625 569.125,200.8906 Q568.8906,201.1563 568.5156,201.1563 Q568.1719,201.1563 567.9688,200.9531 Q567.7656,200.7656 567.6563,200.25 Q567.6094,199.8906 567.4219,199.7031 Q567.0938,199.3281 566.4844,199.1094 Q565.875,198.8906 565.25,198.8906 Q564.4844,198.8906 563.8516,199.2188 Q563.2188,199.5469 562.7266,200.2969 Q562.2344,201.0469 562.2344,202.0781 L562.2344,203.1719 Q562.2344,204.4063 563.125,205.2266 Q564.0156,206.0469 565.6094,206.0469 Q566.5469,206.0469 567.2031,205.7969 Q567.5938,205.6406 568.0156,205.2031 Q568.2813,204.9375 568.4297,204.8594 Q568.5781,204.7813 568.7813,204.7813 Q569.1094,204.7813 569.3672,205.0391 Q569.625,205.2969 569.625,205.6406 Q569.625,205.9844 569.2813,206.3906 Q568.7813,206.9688 567.9844,207.2969 Q566.9063,207.75 565.6094,207.75 Q564.0938,207.75 562.8906,207.125 Q561.9063,206.625 561.2188,205.5547 Q560.5313,204.4844 560.5313,203.2031 L560.5313,202.0469 Q560.5313,200.7188 561.1484,199.5703 Q561.7656,198.4219 562.8594,197.8047 Q563.9531,197.1875 565.1875,197.1875 Q565.9219,197.1875 566.5703,197.3516 Q567.2188,197.5156 567.7656,197.875 Z " fill="#000000"/><text fill="#000000" font-family="sans-serif" font-size="12" lengthAdjust="spacing" textLength="103" x="579" y="206.9102">Textual_Document</text><!--MD5=[152f153d79baedb26b20a34b9b1b571f]
class Textual_Document_Accessibility_Specification--><rect fill="#FEFECE" filter="url(#fu8377ezjaon2)" height="32" id="Textual_Document_Accessibility_Specification" style="stroke:#A80036;stroke-width:1.5;" width="286" x="857.5" y="44"/><ellipse cx="872.5" cy="60" fill="#ADD1B2" rx="11" ry="11" style="stroke:#A80036;stroke-width:1.0;"/><path d="M875.2656,55.875 Q875.4219,55.6563 875.6094,55.5469 Q875.7969,55.4375 876.0156,55.4375 Q876.3906,55.4375 876.625,55.6953 Q876.8594,55.9531 876.8594,56.5625 L876.8594,58.0156 Q876.8594,58.625 876.625,58.8906 Q876.3906,59.1563 876.0156,59.1563 Q875.6719,59.1563 875.4688,58.9531 Q875.2656,58.7656 875.1563,58.25 Q875.1094,57.8906 874.9219,57.7031 Q874.5938,57.3281 873.9844,57.1094 Q873.375,56.8906 872.75,56.8906 Q871.9844,56.8906 871.3516,57.2188 Q870.7188,57.5469 870.2266,58.2969 Q869.7344,59.0469 869.7344,60.0781 L869.7344,61.1719 Q869.7344,62.4063 870.625,63.2266 Q871.5156,64.0469 873.1094,64.0469 Q874.0469,64.0469 874.7031,63.7969 Q875.0938,63.6406 875.5156,63.2031 Q875.7813,62.9375 875.9297,62.8594 Q876.0781,62.7813 876.2813,62.7813 Q876.6094,62.7813 876.8672,63.0391 Q877.125,63.2969 877.125,63.6406 Q877.125,63.9844 876.7813,64.3906 Q876.2813,64.9688 875.4844,65.2969 Q874.4063,65.75 873.1094,65.75 Q871.5938,65.75 870.3906,65.125 Q869.4063,64.625 868.7188,63.5547 Q868.0313,62.4844 868.0313,61.2031 L868.0313,60.0469 Q868.0313,58.7188 868.6484,57.5703 Q869.2656,56.4219 870.3594,55.8047 Q871.4531,55.1875 872.6875,55.1875 Q873.4219,55.1875 874.0703,55.3516 Q874.7188,55.5156 875.2656,55.875 Z " fill="#000000"/><text fill="#000000" font-family="sans-serif" font-size="12" lengthAdjust="spacing" textLength="254" x="886.5" y="64.9102">Textual_Document_Accessibility_Specification</text><path d="M6,683 L6,791.1094 A0,0 0 0 0 6,791.1094 L247,791.1094 A0,0 0 0 0 247,791.1094 L247,741 L281.82,737 L247,733 L247,693 L237,683 L6,683 A0,0 0 0 0 6,683 " fill="#FBFB77" filter="url(#fu8377ezjaon2)" style="stroke:#A80036;stroke-width:1.0;"/><path d="M237,683 L237,693 L247,693 L237,683 " fill="#FBFB77" style="stroke:#A80036;stroke-width:1.0;"/><text fill="#000000" font-family="sans-serif" font-size="13" lengthAdjust="spacing" textLength="216" x="12" y="701.4951">The Agent is mandatory for almost all</text><text fill="#000000" font-family="sans-serif" font-size="13" lengthAdjust="spacing" textLength="175" x="12" y="717.8467">subclasses of Contributorship,</text><text fill="#000000" font-family="sans-serif" font-size="13" lengthAdjust="spacing" textLength="185" x="12" y="734.1982">Reviewing is the exception if the</text><text fill="#000000" font-family="sans-serif" font-size="13" lengthAdjust="spacing" textLength="182" x="12" y="750.5498">reviewer's identity is concealed.</text><text fill="#000000" font-family="sans-serif" font-size="13" lengthAdjust="spacing" textLength="167" x="12" y="766.9014">Also useful when authors are</text><text fill="#000000" font-family="sans-serif" font-size="13" lengthAdjust="spacing" textLength="113" x="12" y="783.2529">using pseudonyms.</text><!--MD5=[414fda41094e70cb8ad23c9df979af6c]
class COAR_Accessibility_Specification_v1--><rect codeLine="8" fill="#FEFECE" filter="url(#fu8377ezjaon2)" height="32" id="COAR_Accessibility_Specification_v1" style="stroke:#A80036;stroke-width:1.5;" width="236" x="1267.5" y="186"/><ellipse cx="1282.5" cy="202" fill="#ADD1B2" rx="11" ry="11" style="stroke:#A80036;stroke-width:1.0;"/><path d="M1285.2656,197.875 Q1285.4219,197.6563 1285.6094,197.5469 Q1285.7969,197.4375 1286.0156,197.4375 Q1286.3906,197.4375 1286.625,197.6953 Q1286.8594,197.9531 1286.8594,198.5625 L1286.8594,200.0156 Q1286.8594,200.625 1286.625,200.8906 Q1286.3906,201.1563 1286.0156,201.1563 Q1285.6719,201.1563 1285.4688,200.9531 Q1285.2656,200.7656 1285.1563,200.25 Q1285.1094,199.8906 1284.9219,199.7031 Q1284.5938,199.3281 1283.9844,199.1094 Q1283.375,198.8906 1282.75,198.8906 Q1281.9844,198.8906 1281.3516,199.2188 Q1280.7188,199.5469 1280.2266,200.2969 Q1279.7344,201.0469 1279.7344,202.0781 L1279.7344,203.1719 Q1279.7344,204.4063 1280.625,205.2266 Q1281.5156,206.0469 1283.1094,206.0469 Q1284.0469,206.0469 1284.7031,205.7969 Q1285.0938,205.6406 1285.5156,205.2031 Q1285.7813,204.9375 1285.9297,204.8594 Q1286.0781,204.7813 1286.2813,204.7813 Q1286.6094,204.7813 1286.8672,205.0391 Q1287.125,205.2969 1287.125,205.6406 Q1287.125,205.9844 1286.7813,206.3906 Q1286.2813,206.9688 1285.4844,207.2969 Q1284.4063,207.75 1283.1094,207.75 Q1281.5938,207.75 1280.3906,207.125 Q1279.4063,206.625 1278.7188,205.5547 Q1278.0313,204.4844 1278.0313,203.2031 L1278.0313,202.0469 Q1278.0313,200.7188 1278.6484,199.5703 Q1279.2656,198.4219 1280.3594,197.8047 Q1281.4531,197.1875 1282.6875,197.1875 Q1283.4219,197.1875 1284.0703,197.3516 Q1284.7188,197.5156 1285.2656,197.875 Z " fill="#000000"/><text fill="#000000" font-family="sans-serif" font-size="12" lengthAdjust="spacing" textLength="204" x="1296.5" y="206.9102">COAR_Accessibility_Specification_v1</text><!--MD5=[f37eb47bd79d8dc5fbf0575eddff0ae5]
class Open_Access_COAR_v1_Accessibility_Specification--><rect codeLine="10" fill="#FEFECE" filter="url(#fu8377ezjaon2)" height="32" id="Open_Access_COAR_v1_Accessibility_Specification" style="stroke:#A80036;stroke-width:1.5;" width="320" x="1594.5" y="321.5"/><ellipse cx="1609.5" cy="337.5" fill="#ADD1B2" rx="11" ry="11" style="stroke:#A80036;stroke-width:1.0;"/><path d="M1612.2656,333.375 Q1612.4219,333.1563 1612.6094,333.0469 Q1612.7969,332.9375 1613.0156,332.9375 Q1613.3906,332.9375 1613.625,333.1953 Q1613.8594,333.4531 1613.8594,334.0625 L1613.8594,335.5156 Q1613.8594,336.125 1613.625,336.3906 Q1613.3906,336.6563 1613.0156,336.6563 Q1612.6719,336.6563 1612.4688,336.4531 Q1612.2656,336.2656 1612.1563,335.75 Q1612.1094,335.3906 1611.9219,335.2031 Q1611.5938,334.8281 1610.9844,334.6094 Q1610.375,334.3906 1609.75,334.3906 Q1608.9844,334.3906 1608.3516,334.7188 Q1607.7188,335.0469 1607.2266,335.7969 Q1606.7344,336.5469 1606.7344,337.5781 L1606.7344,338.6719 Q1606.7344,339.9063 1607.625,340.7266 Q1608.5156,341.5469 1610.1094,341.5469 Q1611.0469,341.5469 1611.7031,341.2969 Q1612.0938,341.1406 1612.5156,340.7031 Q1612.7813,340.4375 1612.9297,340.3594 Q1613.0781,340.2813 1613.2813,340.2813 Q1613.6094,340.2813 1613.8672,340.5391 Q1614.125,340.7969 1614.125,341.1406 Q1614.125,341.4844 1613.7813,341.8906 Q1613.2813,342.4688 1612.4844,342.7969 Q1611.4063,343.25 1610.1094,343.25 Q1608.5938,343.25 1607.3906,342.625 Q1606.4063,342.125 1605.7188,341.0547 Q1605.0313,339.9844 1605.0313,338.7031 L1605.0313,337.5469 Q1605.0313,336.2188 1605.6484,335.0703 Q1606.2656,333.9219 1607.3594,333.3047 Q1608.4531,332.6875 1609.6875,332.6875 Q1610.4219,332.6875 1611.0703,332.8516 Q1611.7188,333.0156 1612.2656,333.375 Z " fill="#000000"/><text fill="#000000" font-family="sans-serif" font-size="12" lengthAdjust="spacing" textLength="288" x="1623.5" y="342.4102">Open_Access_COAR_v1_Accessibility_Specification</text><!--MD5=[0af8ccda619914f5a4a578f128776a63]
class Restricted_Access_COAR_v1_Accessibility_Specification--><rect codeLine="12" fill="#FEFECE" filter="url(#fu8377ezjaon2)" height="32" id="Restricted_Access_COAR_v1_Accessibility_Specification" style="stroke:#A80036;stroke-width:1.5;" width="346" x="1949.5" y="321.5"/><ellipse cx="1964.5" cy="337.5" fill="#ADD1B2" rx="11" ry="11" style="stroke:#A80036;stroke-width:1.0;"/><path d="M1967.2656,333.375 Q1967.4219,333.1563 1967.6094,333.0469 Q1967.7969,332.9375 1968.0156,332.9375 Q1968.3906,332.9375 1968.625,333.1953 Q1968.8594,333.4531 1968.8594,334.0625 L1968.8594,335.5156 Q1968.8594,336.125 1968.625,336.3906 Q1968.3906,336.6563 1968.0156,336.6563 Q1967.6719,336.6563 1967.4688,336.4531 Q1967.2656,336.2656 1967.1563,335.75 Q1967.1094,335.3906 1966.9219,335.2031 Q1966.5938,334.8281 1965.9844,334.6094 Q1965.375,334.3906 1964.75,334.3906 Q1963.9844,334.3906 1963.3516,334.7188 Q1962.7188,335.0469 1962.2266,335.7969 Q1961.7344,336.5469 1961.7344,337.5781 L1961.7344,338.6719 Q1961.7344,339.9063 1962.625,340.7266 Q1963.5156,341.5469 1965.1094,341.5469 Q1966.0469,341.5469 1966.7031,341.2969 Q1967.0938,341.1406 1967.5156,340.7031 Q1967.7813,340.4375 1967.9297,340.3594 Q1968.0781,340.2813 1968.2813,340.2813 Q1968.6094,340.2813 1968.8672,340.5391 Q1969.125,340.7969 1969.125,341.1406 Q1969.125,341.4844 1968.7813,341.8906 Q1968.2813,342.4688 1967.4844,342.7969 Q1966.4063,343.25 1965.1094,343.25 Q1963.5938,343.25 1962.3906,342.625 Q1961.4063,342.125 1960.7188,341.0547 Q1960.0313,339.9844 1960.0313,338.7031 L1960.0313,337.5469 Q1960.0313,336.2188 1960.6484,335.0703 Q1961.2656,333.9219 1962.3594,333.3047 Q1963.4531,332.6875 1964.6875,332.6875 Q1965.4219,332.6875 1966.0703,332.8516 Q1966.7188,333.0156 1967.2656,333.375 Z " fill="#000000"/><text fill="#000000" font-family="sans-serif" font-size="12" lengthAdjust="spacing" textLength="314" x="1978.5" y="342.4102">Restricted_Access_COAR_v1_Accessibility_Specification</text><!--MD5=[c2aa5301644b65ca4f208a5b4b977066]
class Metadata_Only_Access_COAR_v1_Accessibility_Specification--><rect codeLine="14" fill="#FEFECE" filter="url(#fu8377ezjaon2)" height="32" id="Metadata_Only_Access_COAR_v1_Accessibility_Specification" style="stroke:#A80036;stroke-width:1.5;" width="371" x="805" y="321.5"/><ellipse cx="820" cy="337.5" fill="#ADD1B2" rx="11" ry="11" style="stroke:#A80036;stroke-width:1.0;"/><path d="M822.7656,333.375 Q822.9219,333.1563 823.1094,333.0469 Q823.2969,332.9375 823.5156,332.9375 Q823.8906,332.9375 824.125,333.1953 Q824.3594,333.4531 824.3594,334.0625 L824.3594,335.5156 Q824.3594,336.125 824.125,336.3906 Q823.8906,336.6563 823.5156,336.6563 Q823.1719,336.6563 822.9688,336.4531 Q822.7656,336.2656 822.6563,335.75 Q822.6094,335.3906 822.4219,335.2031 Q822.0938,334.8281 821.4844,334.6094 Q820.875,334.3906 820.25,334.3906 Q819.4844,334.3906 818.8516,334.7188 Q818.2188,335.0469 817.7266,335.7969 Q817.2344,336.5469 817.2344,337.5781 L817.2344,338.6719 Q817.2344,339.9063 818.125,340.7266 Q819.0156,341.5469 820.6094,341.5469 Q821.5469,341.5469 822.2031,341.2969 Q822.5938,341.1406 823.0156,340.7031 Q823.2813,340.4375 823.4297,340.3594 Q823.5781,340.2813 823.7813,340.2813 Q824.1094,340.2813 824.3672,340.5391 Q824.625,340.7969 824.625,341.1406 Q824.625,341.4844 824.2813,341.8906 Q823.7813,342.4688 822.9844,342.7969 Q821.9063,343.25 820.6094,343.25 Q819.0938,343.25 817.8906,342.625 Q816.9063,342.125 816.2188,341.0547 Q815.5313,339.9844 815.5313,338.7031 L815.5313,337.5469 Q815.5313,336.2188 816.1484,335.0703 Q816.7656,333.9219 817.8594,333.3047 Q818.9531,332.6875 820.1875,332.6875 Q820.9219,332.6875 821.5703,332.8516 Q822.2188,333.0156 822.7656,333.375 Z " fill="#000000"/><text fill="#000000" font-family="sans-serif" font-size="12" lengthAdjust="spacing" textLength="339" x="834" y="342.4102">Metadata_Only_Access_COAR_v1_Accessibility_Specification</text><!--MD5=[7e0e82b0109bd0babe1390b735a24d99]
class Emargoed_Access_COAR_v1_Accessibility_Specification--><rect codeLine="16" fill="#FEFECE" filter="url(#fu8377ezjaon2)" height="53.8359" id="Emargoed_Access_COAR_v1_Accessibility_Specification" style="stroke:#A80036;stroke-width:1.5;" width="348" x="1211.5" y="310.5"/><ellipse cx="1226.5" cy="326.5" fill="#ADD1B2" rx="11" ry="11" style="stroke:#A80036;stroke-width:1.0;"/><path d="M1229.2656,322.375 Q1229.4219,322.1563 1229.6094,322.0469 Q1229.7969,321.9375 1230.0156,321.9375 Q1230.3906,321.9375 1230.625,322.1953 Q1230.8594,322.4531 1230.8594,323.0625 L1230.8594,324.5156 Q1230.8594,325.125 1230.625,325.3906 Q1230.3906,325.6563 1230.0156,325.6563 Q1229.6719,325.6563 1229.4688,325.4531 Q1229.2656,325.2656 1229.1563,324.75 Q1229.1094,324.3906 1228.9219,324.2031 Q1228.5938,323.8281 1227.9844,323.6094 Q1227.375,323.3906 1226.75,323.3906 Q1225.9844,323.3906 1225.3516,323.7188 Q1224.7188,324.0469 1224.2266,324.7969 Q1223.7344,325.5469 1223.7344,326.5781 L1223.7344,327.6719 Q1223.7344,328.9063 1224.625,329.7266 Q1225.5156,330.5469 1227.1094,330.5469 Q1228.0469,330.5469 1228.7031,330.2969 Q1229.0938,330.1406 1229.5156,329.7031 Q1229.7813,329.4375 1229.9297,329.3594 Q1230.0781,329.2813 1230.2813,329.2813 Q1230.6094,329.2813 1230.8672,329.5391 Q1231.125,329.7969 1231.125,330.1406 Q1231.125,330.4844 1230.7813,330.8906 Q1230.2813,331.4688 1229.4844,331.7969 Q1228.4063,332.25 1227.1094,332.25 Q1225.5938,332.25 1224.3906,331.625 Q1223.4063,331.125 1222.7188,330.0547 Q1222.0313,328.9844 1222.0313,327.7031 L1222.0313,326.5469 Q1222.0313,325.2188 1222.6484,324.0703 Q1223.2656,322.9219 1224.3594,322.3047 Q1225.4531,321.6875 1226.6875,321.6875 Q1227.4219,321.6875 1228.0703,321.8516 Q1228.7188,322.0156 1229.2656,322.375 Z " fill="#000000"/><text fill="#000000" font-family="sans-serif" font-size="12" lengthAdjust="spacing" textLength="316" x="1240.5" y="331.4102">Emargoed_Access_COAR_v1_Accessibility_Specification</text><line style="stroke:#A80036;stroke-width:1.5;" x1="1212.5" x2="1558.5" y1="342.5" y2="342.5"/><text fill="#000000" font-family="sans-serif" font-size="11" lengthAdjust="spacing" textLength="113" x="1217.5" y="357.9189">embargoEndDate : Date</text><!--MD5=[9a5422ab15122c8d1cd75d14414799b8]
class Journal--><rect codeLine="22" fill="#FEFECE" filter="url(#fu8377ezjaon2)" height="136.8516" id="Journal" style="stroke:#A80036;stroke-width:1.5;" width="148" x="446.5" y="485"/><ellipse cx="495.75" cy="501" fill="#ADD1B2" rx="11" ry="11" style="stroke:#A80036;stroke-width:1.0;"/><path d="M498.5156,496.875 Q498.6719,496.6563 498.8594,496.5469 Q499.0469,496.4375 499.2656,496.4375 Q499.6406,496.4375 499.875,496.6953 Q500.1094,496.9531 500.1094,497.5625 L500.1094,499.0156 Q500.1094,499.625 499.875,499.8906 Q499.6406,500.1563 499.2656,500.1563 Q498.9219,500.1563 498.7188,499.9531 Q498.5156,499.7656 498.4063,499.25 Q498.3594,498.8906 498.1719,498.7031 Q497.8438,498.3281 497.2344,498.1094 Q496.625,497.8906 496,497.8906 Q495.2344,497.8906 494.6016,498.2188 Q493.9688,498.5469 493.4766,499.2969 Q492.9844,500.0469 492.9844,501.0781 L492.9844,502.1719 Q492.9844,503.4063 493.875,504.2266 Q494.7656,505.0469 496.3594,505.0469 Q497.2969,505.0469 497.9531,504.7969 Q498.3438,504.6406 498.7656,504.2031 Q499.0313,503.9375 499.1797,503.8594 Q499.3281,503.7813 499.5313,503.7813 Q499.8594,503.7813 500.1172,504.0391 Q500.375,504.2969 500.375,504.6406 Q500.375,504.9844 500.0313,505.3906 Q499.5313,505.9688 498.7344,506.2969 Q497.6563,506.75 496.3594,506.75 Q494.8438,506.75 493.6406,506.125 Q492.6563,505.625 491.9688,504.5547 Q491.2813,503.4844 491.2813,502.2031 L491.2813,501.0469 Q491.2813,499.7188 491.8984,498.5703 Q492.5156,497.4219 493.6094,496.8047 Q494.7031,496.1875 495.9375,496.1875 Q496.6719,496.1875 497.3203,496.3516 Q497.9688,496.5156 498.5156,496.875 Z " fill="#000000"/><text fill="#000000" font-family="sans-serif" font-size="12" lengthAdjust="spacing" textLength="41" x="516.25" y="505.9102">Journal</text><line style="stroke:#A80036;stroke-width:1.5;" x1="447.5" x2="593.5" y1="517" y2="517"/><text fill="#000000" font-family="sans-serif" font-size="11" lengthAdjust="spacing" textLength="73" x="452.5" y="532.4189">DOI : DOI_Type</text><text fill="#000000" font-family="sans-serif" font-size="11" lengthAdjust="spacing" textLength="110" x="452.5" y="546.2549">title : Multilingual_String</text><text fill="#000000" font-family="sans-serif" font-size="11" lengthAdjust="spacing" textLength="85" x="452.5" y="560.0908">ISSN : ISSN_Type</text><text fill="#000000" font-family="sans-serif" font-size="11" lengthAdjust="spacing" textLength="91" x="452.5" y="573.9268">eISSN : ISSN_Type</text><text fill="#000000" font-family="sans-serif" font-size="11" lengthAdjust="spacing" textLength="136" x="452.5" y="587.7627">acronym : Multilingual_String</text><text fill="#000000" font-family="sans-serif" font-size="11" lengthAdjust="spacing" textLength="75" x="452.5" y="601.5986">startDate : Date</text><text fill="#000000" font-family="sans-serif" font-size="11" lengthAdjust="spacing" textLength="71" x="452.5" y="615.4346">endDate : Date</text><!--MD5=[6187a6e1e3f43e4e2525b450325f9ab5]
class Journal_Article--><rect codeLine="32" fill="#FEFECE" filter="url(#fu8377ezjaon2)" height="95.3438" id="Journal_Article" style="stroke:#A80036;stroke-width:1.5;" width="113" x="447" y="290"/><ellipse cx="462" cy="306" fill="#ADD1B2" rx="11" ry="11" style="stroke:#A80036;stroke-width:1.0;"/><path d="M464.7656,301.875 Q464.9219,301.6563 465.1094,301.5469 Q465.2969,301.4375 465.5156,301.4375 Q465.8906,301.4375 466.125,301.6953 Q466.3594,301.9531 466.3594,302.5625 L466.3594,304.0156 Q466.3594,304.625 466.125,304.8906 Q465.8906,305.1563 465.5156,305.1563 Q465.1719,305.1563 464.9688,304.9531 Q464.7656,304.7656 464.6563,304.25 Q464.6094,303.8906 464.4219,303.7031 Q464.0938,303.3281 463.4844,303.1094 Q462.875,302.8906 462.25,302.8906 Q461.4844,302.8906 460.8516,303.2188 Q460.2188,303.5469 459.7266,304.2969 Q459.2344,305.0469 459.2344,306.0781 L459.2344,307.1719 Q459.2344,308.4063 460.125,309.2266 Q461.0156,310.0469 462.6094,310.0469 Q463.5469,310.0469 464.2031,309.7969 Q464.5938,309.6406 465.0156,309.2031 Q465.2813,308.9375 465.4297,308.8594 Q465.5781,308.7813 465.7813,308.7813 Q466.1094,308.7813 466.3672,309.0391 Q466.625,309.2969 466.625,309.6406 Q466.625,309.9844 466.2813,310.3906 Q465.7813,310.9688 464.9844,311.2969 Q463.9063,311.75 462.6094,311.75 Q461.0938,311.75 459.8906,311.125 Q458.9063,310.625 458.2188,309.5547 Q457.5313,308.4844 457.5313,307.2031 L457.5313,306.0469 Q457.5313,304.7188 458.1484,303.5703 Q458.7656,302.4219 459.8594,301.8047 Q460.9531,301.1875 462.1875,301.1875 Q462.9219,301.1875 463.5703,301.3516 Q464.2188,301.5156 464.7656,301.875 Z " fill="#000000"/><text fill="#000000" font-family="sans-serif" font-size="12" lengthAdjust="spacing" textLength="81" x="476" y="310.9102">Journal_Article</text><line style="stroke:#A80036;stroke-width:1.5;" x1="448" x2="559" y1="322" y2="322"/><text fill="#000000" font-family="sans-serif" font-size="11" lengthAdjust="spacing" textLength="83" x="453" y="337.4189">startPage : String</text><text fill="#000000" font-family="sans-serif" font-size="11" lengthAdjust="spacing" textLength="79" x="453" y="351.2549">endPage : String</text><text fill="#000000" font-family="sans-serif" font-size="11" lengthAdjust="spacing" textLength="71" x="453" y="365.0908">volume : String</text><text fill="#000000" font-family="sans-serif" font-size="11" lengthAdjust="spacing" textLength="73" x="453" y="378.9268">number : String</text><!--MD5=[1fdedf30c4d453a61b3bca926ec95b50]
class Monograph--><rect codeLine="40" fill="#FEFECE" filter="url(#fu8377ezjaon2)" height="67.6719" id="Monograph" style="stroke:#A80036;stroke-width:1.5;" width="103" x="595" y="303.5"/><ellipse cx="614.05" cy="319.5" fill="#ADD1B2" rx="11" ry="11" style="stroke:#A80036;stroke-width:1.0;"/><path d="M616.8156,315.375 Q616.9719,315.1563 617.1594,315.0469 Q617.3469,314.9375 617.5656,314.9375 Q617.9406,314.9375 618.175,315.1953 Q618.4094,315.4531 618.4094,316.0625 L618.4094,317.5156 Q618.4094,318.125 618.175,318.3906 Q617.9406,318.6563 617.5656,318.6563 Q617.2219,318.6563 617.0188,318.4531 Q616.8156,318.2656 616.7063,317.75 Q616.6594,317.3906 616.4719,317.2031 Q616.1438,316.8281 615.5344,316.6094 Q614.925,316.3906 614.3,316.3906 Q613.5344,316.3906 612.9016,316.7188 Q612.2688,317.0469 611.7766,317.7969 Q611.2844,318.5469 611.2844,319.5781 L611.2844,320.6719 Q611.2844,321.9063 612.175,322.7266 Q613.0656,323.5469 614.6594,323.5469 Q615.5969,323.5469 616.2531,323.2969 Q616.6438,323.1406 617.0656,322.7031 Q617.3313,322.4375 617.4797,322.3594 Q617.6281,322.2813 617.8313,322.2813 Q618.1594,322.2813 618.4172,322.5391 Q618.675,322.7969 618.675,323.1406 Q618.675,323.4844 618.3313,323.8906 Q617.8313,324.4688 617.0344,324.7969 Q615.9563,325.25 614.6594,325.25 Q613.1438,325.25 611.9406,324.625 Q610.9563,324.125 610.2688,323.0547 Q609.5813,321.9844 609.5813,320.7031 L609.5813,319.5469 Q609.5813,318.2188 610.1984,317.0703 Q610.8156,315.9219 611.9094,315.3047 Q613.0031,314.6875 614.2375,314.6875 Q614.9719,314.6875 615.6203,314.8516 Q616.2688,315.0156 616.8156,315.375 Z " fill="#000000"/><text fill="#000000" font-family="sans-serif" font-size="12" lengthAdjust="spacing" textLength="62" x="628.95" y="324.4102">Monograph</text><line style="stroke:#A80036;stroke-width:1.5;" x1="596" x2="697" y1="335.5" y2="335.5"/><text fill="#000000" font-family="sans-serif" font-size="11" lengthAdjust="spacing" textLength="85" x="601" y="350.9189">ISBN : ISBN_Type</text><text fill="#000000" font-family="sans-serif" font-size="11" lengthAdjust="spacing" textLength="91" x="601" y="364.7549">eISBN : ISBN_Type</text><!--MD5=[4a7b763a7b102fc008b27a6c6e822cfd]
class Editorship--><rect codeLine="44" fill="#FEFECE" filter="url(#fu8377ezjaon2)" height="53.8359" id="Editorship" style="stroke:#A80036;stroke-width:1.5;" width="141" x="494" y="981"/><ellipse cx="532.85" cy="997" fill="#ADD1B2" rx="11" ry="11" style="stroke:#A80036;stroke-width:1.0;"/><path d="M535.6156,992.875 Q535.7719,992.6563 535.9594,992.5469 Q536.1469,992.4375 536.3656,992.4375 Q536.7406,992.4375 536.975,992.6953 Q537.2094,992.9531 537.2094,993.5625 L537.2094,995.0156 Q537.2094,995.625 536.975,995.8906 Q536.7406,996.1563 536.3656,996.1563 Q536.0219,996.1563 535.8188,995.9531 Q535.6156,995.7656 535.5063,995.25 Q535.4594,994.8906 535.2719,994.7031 Q534.9438,994.3281 534.3344,994.1094 Q533.725,993.8906 533.1,993.8906 Q532.3344,993.8906 531.7016,994.2188 Q531.0688,994.5469 530.5766,995.2969 Q530.0844,996.0469 530.0844,997.0781 L530.0844,998.1719 Q530.0844,999.4063 530.975,1000.2266 Q531.8656,1001.0469 533.4594,1001.0469 Q534.3969,1001.0469 535.0531,1000.7969 Q535.4438,1000.6406 535.8656,1000.2031 Q536.1313,999.9375 536.2797,999.8594 Q536.4281,999.7813 536.6313,999.7813 Q536.9594,999.7813 537.2172,1000.0391 Q537.475,1000.2969 537.475,1000.6406 Q537.475,1000.9844 537.1313,1001.3906 Q536.6313,1001.9688 535.8344,1002.2969 Q534.7563,1002.75 533.4594,1002.75 Q531.9438,1002.75 530.7406,1002.125 Q529.7563,1001.625 529.0688,1000.5547 Q528.3813,999.4844 528.3813,998.2031 L528.3813,997.0469 Q528.3813,995.7188 528.9984,994.5703 Q529.6156,993.4219 530.7094,992.8047 Q531.8031,992.1875 533.0375,992.1875 Q533.7719,992.1875 534.4203,992.3516 Q535.0688,992.5156 535.6156,992.875 Z " fill="#000000"/><text fill="#000000" font-family="sans-serif" font-size="12" lengthAdjust="spacing" textLength="56" x="552.15" y="1001.9102">Editorship</text><line style="stroke:#A80036;stroke-width:1.5;" x1="495" x2="634" y1="1013" y2="1013"/><text fill="#000000" font-family="sans-serif" font-size="11" lengthAdjust="spacing" textLength="129" x="500" y="1028.4189">leadingEditorFlag : Boolean</text><!--MD5=[818ab24020f8c95f650e208dd398987b]
class Publishership--><rect codeLine="47" fill="#FEFECE" filter="url(#fu8377ezjaon2)" height="53.8359" id="Publishership" style="stroke:#A80036;stroke-width:1.5;" width="158" x="300.5" y="981"/><ellipse cx="337.55" cy="997" fill="#ADD1B2" rx="11" ry="11" style="stroke:#A80036;stroke-width:1.0;"/><path d="M340.3156,992.875 Q340.4719,992.6563 340.6594,992.5469 Q340.8469,992.4375 341.0656,992.4375 Q341.4406,992.4375 341.675,992.6953 Q341.9094,992.9531 341.9094,993.5625 L341.9094,995.0156 Q341.9094,995.625 341.675,995.8906 Q341.4406,996.1563 341.0656,996.1563 Q340.7219,996.1563 340.5188,995.9531 Q340.3156,995.7656 340.2063,995.25 Q340.1594,994.8906 339.9719,994.7031 Q339.6438,994.3281 339.0344,994.1094 Q338.425,993.8906 337.8,993.8906 Q337.0344,993.8906 336.4016,994.2188 Q335.7688,994.5469 335.2766,995.2969 Q334.7844,996.0469 334.7844,997.0781 L334.7844,998.1719 Q334.7844,999.4063 335.675,1000.2266 Q336.5656,1001.0469 338.1594,1001.0469 Q339.0969,1001.0469 339.7531,1000.7969 Q340.1438,1000.6406 340.5656,1000.2031 Q340.8313,999.9375 340.9797,999.8594 Q341.1281,999.7813 341.3313,999.7813 Q341.6594,999.7813 341.9172,1000.0391 Q342.175,1000.2969 342.175,1000.6406 Q342.175,1000.9844 341.8313,1001.3906 Q341.3313,1001.9688 340.5344,1002.2969 Q339.4563,1002.75 338.1594,1002.75 Q336.6438,1002.75 335.4406,1002.125 Q334.4563,1001.625 333.7688,1000.5547 Q333.0813,999.4844 333.0813,998.2031 L333.0813,997.0469 Q333.0813,995.7188 333.6984,994.5703 Q334.3156,993.4219 335.4094,992.8047 Q336.5031,992.1875 337.7375,992.1875 Q338.4719,992.1875 339.1203,992.3516 Q339.7688,992.5156 340.3156,992.875 Z " fill="#000000"/><text fill="#000000" font-family="sans-serif" font-size="12" lengthAdjust="spacing" textLength="77" x="356.45" y="1001.9102">Publishership</text><line style="stroke:#A80036;stroke-width:1.5;" x1="301.5" x2="457.5" y1="1013" y2="1013"/><text fill="#000000" font-family="sans-serif" font-size="11" lengthAdjust="spacing" textLength="146" x="306.5" y="1028.4189">leadingPublisherFlag : Boolean</text><!--MD5=[3d3814e6d18e193800c83fb27de84142]
class CRediT_Contribution_Statement--><rect codeLine="51" fill="#FEFECE" filter="url(#fu8377ezjaon2)" height="32" id="CRediT_Contribution_Statement" style="stroke:#A80036;stroke-width:1.5;" width="211" x="1139" y="721"/><ellipse cx="1154" cy="737" fill="#ADD1B2" rx="11" ry="11" style="stroke:#A80036;stroke-width:1.0;"/><path d="M1156.7656,732.875 Q1156.9219,732.6563 1157.1094,732.5469 Q1157.2969,732.4375 1157.5156,732.4375 Q1157.8906,732.4375 1158.125,732.6953 Q1158.3594,732.9531 1158.3594,733.5625 L1158.3594,735.0156 Q1158.3594,735.625 1158.125,735.8906 Q1157.8906,736.1563 1157.5156,736.1563 Q1157.1719,736.1563 1156.9688,735.9531 Q1156.7656,735.7656 1156.6563,735.25 Q1156.6094,734.8906 1156.4219,734.7031 Q1156.0938,734.3281 1155.4844,734.1094 Q1154.875,733.8906 1154.25,733.8906 Q1153.4844,733.8906 1152.8516,734.2188 Q1152.2188,734.5469 1151.7266,735.2969 Q1151.2344,736.0469 1151.2344,737.0781 L1151.2344,738.1719 Q1151.2344,739.4063 1152.125,740.2266 Q1153.0156,741.0469 1154.6094,741.0469 Q1155.5469,741.0469 1156.2031,740.7969 Q1156.5938,740.6406 1157.0156,740.2031 Q1157.2813,739.9375 1157.4297,739.8594 Q1157.5781,739.7813 1157.7813,739.7813 Q1158.1094,739.7813 1158.3672,740.0391 Q1158.625,740.2969 1158.625,740.6406 Q1158.625,740.9844 1158.2813,741.3906 Q1157.7813,741.9688 1156.9844,742.2969 Q1155.9063,742.75 1154.6094,742.75 Q1153.0938,742.75 1151.8906,742.125 Q1150.9063,741.625 1150.2188,740.5547 Q1149.5313,739.4844 1149.5313,738.2031 L1149.5313,737.0469 Q1149.5313,735.7188 1150.1484,734.5703 Q1150.7656,733.4219 1151.8594,732.8047 Q1152.9531,732.1875 1154.1875,732.1875 Q1154.9219,732.1875 1155.5703,732.3516 Q1156.2188,732.5156 1156.7656,732.875 Z " fill="#000000"/><text fill="#000000" font-family="sans-serif" font-size="12" lengthAdjust="spacing" textLength="179" x="1168" y="741.9102">CRediT_Contribution_Statement</text><!--MD5=[42c2141a95e7f85966762f44b3023ac5]
class CRediT_Degree_of_Contribution--><rect codeLine="53" fill="#FEFECE" filter="url(#fu8377ezjaon2)" height="81.5078" id="CRediT_Degree_of_Contribution" style="stroke:#A80036;stroke-width:1.5;" width="213" x="1244" y="967"/><ellipse cx="1259" cy="983" fill="#EB937F" rx="11" ry="11" style="stroke:#A80036;stroke-width:1.0;"/><path d="M1257.8594,983.7969 L1257.8594,986.2969 L1262.1875,986.2969 L1262.1875,985.375 Q1262.1875,984.7656 1262.4297,984.5 Q1262.6719,984.2344 1263.0469,984.2344 Q1263.4219,984.2344 1263.6563,984.5 Q1263.8906,984.7656 1263.8906,985.375 L1263.8906,988 L1255.8906,988 Q1255.2656,988 1255.0078,987.7656 Q1254.75,987.5313 1254.75,987.1406 Q1254.75,986.7656 1255.0156,986.5313 Q1255.2813,986.2969 1255.8906,986.2969 L1256.1563,986.2969 L1256.1563,979.6406 L1255.8906,979.6406 Q1255.2656,979.6406 1255.0078,979.4063 Q1254.75,979.1719 1254.75,978.7813 Q1254.75,978.4063 1255.0078,978.1719 Q1255.2656,977.9375 1255.8906,977.9375 L1263.5156,977.9375 L1263.5156,980.5313 Q1263.5156,981.1406 1263.2891,981.3984 Q1263.0625,981.6563 1262.6719,981.6563 Q1262.2969,981.6563 1262.0625,981.3984 Q1261.8281,981.1406 1261.8281,980.5313 L1261.8281,979.6406 L1257.8594,979.6406 L1257.8594,982.0938 L1259.3438,982.0938 Q1259.3438,981.4375 1259.4688,981.25 Q1259.7344,980.8438 1260.2031,980.8438 Q1260.5781,980.8438 1260.8125,981.1016 Q1261.0469,981.3594 1261.0469,981.9688 L1261.0469,983.9375 Q1261.0469,984.4844 1260.9219,984.6719 Q1260.6563,985.0625 1260.2031,985.0625 Q1259.7344,985.0625 1259.4688,984.6563 Q1259.3438,984.4688 1259.3438,983.7969 L1257.8594,983.7969 Z " fill="#000000"/><text fill="#000000" font-family="sans-serif" font-size="12" lengthAdjust="spacing" textLength="181" x="1273" y="987.9102">CRediT_Degree_of_Contribution</text><line style="stroke:#A80036;stroke-width:1.5;" x1="1245" x2="1456" y1="999" y2="999"/><text fill="#000000" font-family="sans-serif" font-size="11" lengthAdjust="spacing" textLength="24" x="1250" y="1014.4189">Lead</text><text fill="#000000" font-family="sans-serif" font-size="11" lengthAdjust="spacing" textLength="52" x="1250" y="1028.2549">Supporting</text><text fill="#000000" font-family="sans-serif" font-size="11" lengthAdjust="spacing" textLength="26" x="1250" y="1042.0908">Equal</text><!--MD5=[b5846dfcb37d6127d0d9f5f5e77b1e64]
class CRediT_Role_Type--><rect codeLine="58" fill="#FEFECE" filter="url(#fu8377ezjaon2)" height="233.7031" id="CRediT_Role_Type" style="stroke:#A80036;stroke-width:1.5;" width="140" x="1068.5" y="891"/><ellipse cx="1083.5" cy="907" fill="#EB937F" rx="11" ry="11" style="stroke:#A80036;stroke-width:1.0;"/><path d="M1082.3594,907.7969 L1082.3594,910.2969 L1086.6875,910.2969 L1086.6875,909.375 Q1086.6875,908.7656 1086.9297,908.5 Q1087.1719,908.2344 1087.5469,908.2344 Q1087.9219,908.2344 1088.1563,908.5 Q1088.3906,908.7656 1088.3906,909.375 L1088.3906,912 L1080.3906,912 Q1079.7656,912 1079.5078,911.7656 Q1079.25,911.5313 1079.25,911.1406 Q1079.25,910.7656 1079.5156,910.5313 Q1079.7813,910.2969 1080.3906,910.2969 L1080.6563,910.2969 L1080.6563,903.6406 L1080.3906,903.6406 Q1079.7656,903.6406 1079.5078,903.4063 Q1079.25,903.1719 1079.25,902.7813 Q1079.25,902.4063 1079.5078,902.1719 Q1079.7656,901.9375 1080.3906,901.9375 L1088.0156,901.9375 L1088.0156,904.5313 Q1088.0156,905.1406 1087.7891,905.3984 Q1087.5625,905.6563 1087.1719,905.6563 Q1086.7969,905.6563 1086.5625,905.3984 Q1086.3281,905.1406 1086.3281,904.5313 L1086.3281,903.6406 L1082.3594,903.6406 L1082.3594,906.0938 L1083.8438,906.0938 Q1083.8438,905.4375 1083.9688,905.25 Q1084.2344,904.8438 1084.7031,904.8438 Q1085.0781,904.8438 1085.3125,905.1016 Q1085.5469,905.3594 1085.5469,905.9688 L1085.5469,907.9375 Q1085.5469,908.4844 1085.4219,908.6719 Q1085.1563,909.0625 1084.7031,909.0625 Q1084.2344,909.0625 1083.9688,908.6563 Q1083.8438,908.4688 1083.8438,907.7969 L1082.3594,907.7969 Z " fill="#000000"/><text fill="#000000" font-family="sans-serif" font-size="12" lengthAdjust="spacing" textLength="108" x="1097.5" y="911.9102">CRediT_Role_Type</text><line style="stroke:#A80036;stroke-width:1.5;" x1="1069.5" x2="1207.5" y1="923" y2="923"/><text fill="#000000" font-family="sans-serif" font-size="11" lengthAdjust="spacing" textLength="85" x="1074.5" y="938.4189">Conceptualization</text><text fill="#000000" font-family="sans-serif" font-size="11" lengthAdjust="spacing" textLength="64" x="1074.5" y="952.2549">Data curation</text><text fill="#000000" font-family="sans-serif" font-size="11" lengthAdjust="spacing" textLength="75" x="1074.5" y="966.0908">Formal analysis</text><text fill="#000000" font-family="sans-serif" font-size="11" lengthAdjust="spacing" textLength="92" x="1074.5" y="979.9268">Funding acquisition</text><text fill="#000000" font-family="sans-serif" font-size="11" lengthAdjust="spacing" textLength="60" x="1074.5" y="993.7627">Investigation</text><text fill="#000000" font-family="sans-serif" font-size="11" lengthAdjust="spacing" textLength="61" x="1074.5" y="1007.5986">Methodology</text><text fill="#000000" font-family="sans-serif" font-size="11" lengthAdjust="spacing" textLength="102" x="1074.5" y="1021.4346">Project administration</text><text fill="#000000" font-family="sans-serif" font-size="11" lengthAdjust="spacing" textLength="53" x="1074.5" y="1035.2705">Resources</text><text fill="#000000" font-family="sans-serif" font-size="11" lengthAdjust="spacing" textLength="46" x="1074.5" y="1049.1064">Software</text><text fill="#000000" font-family="sans-serif" font-size="11" lengthAdjust="spacing" textLength="57" x="1074.5" y="1062.9424">Supervision</text><text fill="#000000" font-family="sans-serif" font-size="11" lengthAdjust="spacing" textLength="47" x="1074.5" y="1076.7783">Validation</text><text fill="#000000" font-family="sans-serif" font-size="11" lengthAdjust="spacing" textLength="61" x="1074.5" y="1090.6143">Visualization</text><text fill="#000000" font-family="sans-serif" font-size="11" lengthAdjust="spacing" textLength="103" x="1074.5" y="1104.4502">Writing - original draft</text><text fill="#000000" font-family="sans-serif" font-size="11" lengthAdjust="spacing" textLength="121" x="1074.5" y="1118.2861">Writing - review &amp; editing</text><!--MD5=[c311ebaeb70986101ddf4181c43abf49]
class CRediT Role Type--><rect fill="#FEFECE" filter="url(#fu8377ezjaon2)" height="32" id="CRediT Role Type" style="stroke:#A80036;stroke-width:1.5;" width="140" x="1178.5" y="44"/><ellipse cx="1193.5" cy="60" fill="#ADD1B2" rx="11" ry="11" style="stroke:#A80036;stroke-width:1.0;"/><path d="M1196.2656,55.875 Q1196.4219,55.6563 1196.6094,55.5469 Q1196.7969,55.4375 1197.0156,55.4375 Q1197.3906,55.4375 1197.625,55.6953 Q1197.8594,55.9531 1197.8594,56.5625 L1197.8594,58.0156 Q1197.8594,58.625 1197.625,58.8906 Q1197.3906,59.1563 1197.0156,59.1563 Q1196.6719,59.1563 1196.4688,58.9531 Q1196.2656,58.7656 1196.1563,58.25 Q1196.1094,57.8906 1195.9219,57.7031 Q1195.5938,57.3281 1194.9844,57.1094 Q1194.375,56.8906 1193.75,56.8906 Q1192.9844,56.8906 1192.3516,57.2188 Q1191.7188,57.5469 1191.2266,58.2969 Q1190.7344,59.0469 1190.7344,60.0781 L1190.7344,61.1719 Q1190.7344,62.4063 1191.625,63.2266 Q1192.5156,64.0469 1194.1094,64.0469 Q1195.0469,64.0469 1195.7031,63.7969 Q1196.0938,63.6406 1196.5156,63.2031 Q1196.7813,62.9375 1196.9297,62.8594 Q1197.0781,62.7813 1197.2813,62.7813 Q1197.6094,62.7813 1197.8672,63.0391 Q1198.125,63.2969 1198.125,63.6406 Q1198.125,63.9844 1197.7813,64.3906 Q1197.2813,64.9688 1196.4844,65.2969 Q1195.4063,65.75 1194.1094,65.75 Q1192.5938,65.75 1191.3906,65.125 Q1190.4063,64.625 1189.7188,63.5547 Q1189.0313,62.4844 1189.0313,61.2031 L1189.0313,60.0469 Q1189.0313,58.7188 1189.6484,57.5703 Q1190.2656,56.4219 1191.3594,55.8047 Q1192.4531,55.1875 1193.6875,55.1875 Q1194.4219,55.1875 1195.0703,55.3516 Q1195.7188,55.5156 1196.2656,55.875 Z " fill="#000000"/><text fill="#000000" font-family="sans-serif" font-size="12" lengthAdjust="spacing" textLength="108" x="1207.5" y="64.9102">"CRediT Role Type"</text><path d="M1354,6 L1354,56 L1318.5,60 L1354,64 L1354,114.1094 A0,0 0 0 0 1354,114.1094 L1733,114.1094 A0,0 0 0 0 1733,114.1094 L1733,16 L1723,6 L1354,6 A0,0 0 0 0 1354,6 " fill="#FBFB77" filter="url(#fu8377ezjaon2)" style="stroke:#A80036;stroke-width:1.0;"/><path d="M1723,6 L1723,16 L1733,16 L1723,6 " fill="#FBFB77" style="stroke:#A80036;stroke-width:1.0;"/><text fill="#000000" font-family="sans-serif" font-size="13" lengthAdjust="spacing" textLength="351" x="1360" y="24.4951">The CRediT is currently not expressed as Linked Open Data.</text><text fill="#000000" font-family="sans-serif" font-size="13" lengthAdjust="spacing" textLength="341" x="1360" y="40.8467">We hope it will be in the future. We estimate it will be more</text><text fill="#000000" font-family="sans-serif" font-size="13" lengthAdjust="spacing" textLength="354" x="1360" y="57.1982">straightforward for it to be exposed as a list of terms (perhaps</text><text fill="#000000" font-family="sans-serif" font-size="13" lengthAdjust="spacing" textLength="329" x="1360" y="73.5498">a SKOS concept scheme), rather than a class hierarchy.</text><text fill="#000000" font-family="sans-serif" font-size="13" lengthAdjust="spacing" textLength="349" x="1360" y="89.9014">This justifies our choice to model it as an enumeration rather</text><text fill="#000000" font-family="sans-serif" font-size="13" lengthAdjust="spacing" textLength="207" x="1360" y="106.2529">than a class hierarchy in our model.</text><!--MD5=[bf7e8cf64254ff374c5acfe277545dd5]
reverse link Postal_Address to Country--><path codeLine="62" d="M742.5,1303.17 C742.5,1319.13 742.5,1335.93 742.5,1350.87 " fill="none" id="Postal_Address-backto-Country" style="stroke:#A80036;stroke-width:1.0;"/><polygon fill="#FFFFFF" points="742.5,1290.02,738.5,1296.02,742.5,1302.02,746.5,1296.02,742.5,1290.02" style="stroke:#A80036;stroke-width:1.0;"/><text fill="#000000" font-family="sans-serif" font-size="13" lengthAdjust="spacing" textLength="43" x="696.3422" y="1340.195">country</text><!--MD5=[af6b79ce3af62c8c5ee779db9fbc8cf6]
link Affiliation_Statement to Postal_Address--><path codeLine="63" d="M742.5,1035.15 C742.5,1070.48 742.5,1134.36 742.5,1180.81 " fill="none" id="Affiliation_Statement-to-Postal_Address" style="stroke:#A80036;stroke-width:1.0;stroke-dasharray:7.0,7.0;"/><polygon fill="#A80036" points="742.5,1185.82,746.5,1176.82,742.5,1180.82,738.5,1176.82,742.5,1185.82" style="stroke:#A80036;stroke-width:1.0;"/><text fill="#000000" font-family="sans-serif" font-size="13" lengthAdjust="spacing" textLength="83" x="653.9234" y="1175.2835">postalAddress</text><!--MD5=[fe03d2c8e9644e7513bef3a6fb6291e6]
reverse link Affiliation_Statement to Organisation_Unit--><path codeLine="64" d="M709.19,1045.66 C690.64,1071.77 666.22,1105.56 635.5,1125 C529.35,1192.18 480.92,1153.76 359.5,1186 C331.69,1193.38 301.54,1202.45 275.68,1210.88 " fill="none" id="Affiliation_Statement-backto-Organisation_Unit" style="stroke:#A80036;stroke-width:1.0;"/><polygon fill="#FFFFFF" points="716.79,1035.01,710.0506,1037.5752,709.8264,1044.7828,716.5658,1042.2176,716.79,1035.01" style="stroke:#A80036;stroke-width:1.0;"/><text fill="#000000" font-family="sans-serif" font-size="13" lengthAdjust="spacing" textLength="67" x="215.5435" y="1200.3132">0..1 orgUnit</text><!--MD5=[fe03d2c8e9644e7513bef3a6fb6291e6]
reverse link Affiliation_Statement to Organisation_Unit--><path codeLine="65" d="M737.46,1047.07 C724.77,1072.98 700.67,1105.91 670.5,1125 C564.35,1192.18 515.92,1153.76 394.5,1186 C356.17,1196.18 313.4,1209.54 278.63,1220.04 " fill="none" id="Affiliation_Statement-backto-Organisation_Unit-1" style="stroke:#A80036;stroke-width:1.0;"/><polygon fill="#FFFFFF" points="742.75,1035.01,736.68,1038.9029,737.9388,1046.0033,744.0088,1042.1104,742.75,1035.01" style="stroke:#A80036;stroke-width:1.0;"/><text fill="#000000" font-family="sans-serif" font-size="13" lengthAdjust="spacing" textLength="82" x="286.4974" y="1215.6476">0..1 institution</text><!--MD5=[d9b08b031298a036c8fb3d44263a5204]
reverse link Affiliation_Statement to Person--><path codeLine="66" d="M719.63,1046.14 C703.17,1070.71 679.23,1102.42 652.5,1125 C603.91,1166.04 537.85,1198.34 493.1,1217.5 " fill="none" id="Affiliation_Statement-backto-Person" style="stroke:#A80036;stroke-width:1.0;"/><polygon fill="#FFFFFF" points="726.86,1035.08,720.2292,1037.9142,720.2951,1045.125,726.9259,1042.2908,726.86,1035.08" style="stroke:#A80036;stroke-width:1.0;"/><text fill="#000000" font-family="sans-serif" font-size="13" lengthAdjust="spacing" textLength="39" x="501.0897" y="1211.7296">person</text><!--MD5=[b5c017ecc32f857930efae613c226920]
reverse link Contribution_Statement to Free_Text_Contribution--><path codeLine="68" d="M1023.5,589.77 C1023.5,624.95 1023.5,678.2 1023.5,709.8 " fill="none" id="Contribution_Statement-backto-Free_Text_Contribution" style="stroke:#A80036;stroke-width:1.0;"/><polygon fill="none" points="1016.5,589.66,1023.5,569.66,1030.5,589.66,1016.5,589.66" style="stroke:#A80036;stroke-width:1.0;"/><!--MD5=[1f014480a3afa8c0325c3be3fbf7ad6f]
link Contributorship to Document--><path codeLine="71" d="M559.33,737 C566.6,737 573.87,737 581.14,737 " fill="none" id="Contributorship-to-Document" style="stroke:#A80036;stroke-width:1.0;"/><polygon fill="#A80036" points="594.23,737,588.23,733,582.23,737,588.23,741,594.23,737" style="stroke:#A80036;stroke-width:1.0;"/><text fill="#000000" font-family="sans-serif" font-size="13" lengthAdjust="spacing" textLength="20" x="566.8583" y="733.6573">0..*</text><!--MD5=[504de05de5dc33320621ff1be2e6e6ff]
reverse link Agent to Contributorship--><path codeLine="74" d="M358.5,737 C386.33,737 414.16,737 441.99,737 " fill="none" id="Agent-backto-Contributorship" style="stroke:#A80036;stroke-width:1.0;"/><polygon fill="#A80036" points="345.28,737,351.28,741,357.28,737,351.28,733,345.28,737" style="stroke:#A80036;stroke-width:1.0;"/><text fill="#000000" font-family="sans-serif" font-size="13" lengthAdjust="spacing" textLength="87" x="347.0333" y="733.1987">0..1 contributor</text><text fill="#000000" font-family="sans-serif" font-size="13" lengthAdjust="spacing" textLength="20" x="414.0685" y="751.4594">0..*</text><!--MD5=[d50a95e3ddb5a3ed983c7b2ff4649bd6]
reverse link Contributorship to Affiliation_Statement--><path codeLine="76" d="M552.34,778.4 C560.14,783.2 568.32,787.59 576.5,791 C645.31,819.64 693.59,763.9 741.5,821 C779.38,866.14 763.76,941.45 751.67,980.97 " fill="none" id="Contributorship-backto-Affiliation_Statement" style="stroke:#A80036;stroke-width:1.0;"/><polygon fill="#A80036" points="541.22,771.15,544.0542,777.7808,551.265,777.7149,548.4308,771.0841,541.22,771.15" style="stroke:#A80036;stroke-width:1.0;"/><text fill="#000000" font-family="sans-serif" font-size="13" lengthAdjust="spacing" textLength="81" x="663.0333" y="969.9894">0..* affiliations</text><!--MD5=[302d116419dc4c6a2265e61d4260f04e]
link Contribution_Statement to Contributorship--><path codeLine="78" d="M942.3,569.44 C850.46,588.23 697.88,625.2 576.5,683 C568.88,686.63 561.19,691 553.78,695.65 " fill="none" id="Contribution_Statement-to-Contributorship" style="stroke:#A80036;stroke-width:1.0;"/><polygon fill="#A80036" points="542.8,702.86,550.0109,702.9149,552.835,696.2799,545.6241,696.2249,542.8,702.86" style="stroke:#A80036;stroke-width:1.0;"/><text fill="#000000" font-family="sans-serif" font-size="13" lengthAdjust="spacing" textLength="158" x="776.5403" y="567.3282">0..* contributionStatements</text><!--MD5=[db20fd804d8595e73b6b8c99fdd1338c]
link Authorship to Textual_Document--><path codeLine="80" d="M485.38,202 C502.51,202 519.65,202 536.78,202 " fill="none" id="Authorship-to-Textual_Document" style="stroke:#A80036;stroke-width:1.0;"/><polygon fill="#A80036" points="549.89,202,543.89,198,537.89,202,543.89,206,549.89,202" style="stroke:#A80036;stroke-width:1.0;"/><!--MD5=[e74e4958a1d7eb99db8e977d8859ba66]
link Authorship to Contributorship--><path codeLine="81" d="M391.45,229.37 C387.11,296.78 380.96,480.11 428.5,622 C436.07,644.6 449.01,667.26 461.85,686.35 " fill="none" id="Authorship-to-Contributorship" style="stroke:#A80036;stroke-width:1.0;"/><polygon fill="none" points="467.64,682.41,473.46,702.78,456.2,690.49,467.64,682.41" style="stroke:#A80036;stroke-width:1.0;"/><!--MD5=[49125a4ba45432b051dcbcd9e53401d7]
link Authorship to Agent--><path codeLine="82" d="M337.99,229.1 C275.37,262.17 177.45,325.79 140.5,415 C115.65,475 241.76,645.03 292.82,710.17 " fill="none" id="Authorship-to-Agent" style="stroke:#A80036;stroke-width:1.0;"/><polygon fill="#FFFFFF" points="301.15,720.72,300.5697,713.5323,293.7117,711.3034,294.292,718.4911,301.15,720.72" style="stroke:#A80036;stroke-width:1.0;"/><path d="M145.5,420 L145.5,446 L287.5,446 L287.5,430 L277.5,420 L145.5,420 " fill="#FFFF00" filter="url(#fu8377ezjaon2)" style="stroke:#A80036;stroke-width:1.0;"/><path d="M277.5,420 L277.5,430 L287.5,430 L277.5,420 " fill="#FFFF00" style="stroke:#A80036;stroke-width:1.0;"/><text fill="#000000" font-family="sans-serif" font-size="13" lengthAdjust="spacing" textLength="121" x="151.5" y="438.4951">author == contributor</text><text fill="#000000" font-family="sans-serif" font-size="13" lengthAdjust="spacing" textLength="20" x="303.6597" y="250.3296">0..*</text><text fill="#000000" font-family="sans-serif" font-size="13" lengthAdjust="spacing" textLength="62" x="254.6887" y="702.7974">0..1 author</text><!--MD5=[5d8901ce694eb85aefa78b7d82d9f6f6]
link Person to Person_Name--><path codeLine="84" d="M443.5,1265.17 C443.5,1287.69 443.5,1320.78 443.5,1348.24 " fill="none" id="Person-to-Person_Name" style="stroke:#A80036;stroke-width:1.0;stroke-dasharray:7.0,7.0;"/><polygon fill="#A80036" points="443.5,1353.3,447.5,1344.3,443.5,1348.3,439.5,1344.3,443.5,1353.3" style="stroke:#A80036;stroke-width:1.0;"/><text fill="#000000" font-family="sans-serif" font-size="13" lengthAdjust="spacing" textLength="39" x="401.5141" y="1342.6991">names</text><!--MD5=[de96f77e660762cb21a195b4097c3876]
reverse link Agent to Person--><path codeLine="85" d="M299.38,771.81 C272.33,842.16 221.11,1007.52 282.5,1125 C305.76,1169.51 355.66,1199.91 393.79,1217.69 " fill="none" id="Agent-backto-Person" style="stroke:#A80036;stroke-width:1.0;"/><polygon fill="none" points="292.91,769.14,306.84,753.18,305.9,774.35,292.91,769.14" style="stroke:#A80036;stroke-width:1.0;"/><!--MD5=[521d3f26cc3887ed8885a4c0e03f9952]
reverse link Agent to Organisation_Unit--><path codeLine="86" d="M287.69,768.17 C280.5,775.94 272.46,784.06 264.5,791 C246.93,806.31 232.5,800.46 221.5,821 C151.25,952.19 188.23,1141.61 205.36,1210.6 " fill="none" id="Agent-backto-Organisation_Unit" style="stroke:#A80036;stroke-width:1.0;"/><polygon fill="none" points="282.47,763.51,300.98,753.21,292.93,772.81,282.47,763.51" style="stroke:#A80036;stroke-width:1.0;"/><!--MD5=[8d9b790276a1e6c61f0b091de629785c]
link Textual_Document to Document--><path codeLine="88" d="M643.88,218.2 C667.15,233.21 699.76,258.44 715.5,290 C781.69,422.71 769.18,605.52 758.54,689.9 " fill="none" id="Textual_Document-to-Document" style="stroke:#A80036;stroke-width:1.0;"/><polygon fill="none" points="765.46,690.96,755.82,709.83,751.59,689.07,765.46,690.96" style="stroke:#A80036;stroke-width:1.0;"/><!--MD5=[c0a805770ea07def151bfb445be554f3]
link Textual_Document_Accessibility_Specification to Textual_Document--><path codeLine="90" d="M959.15,76.12 C889.34,101.63 748.19,153.23 670.96,181.46 " fill="none" id="Textual_Document_Accessibility_Specification-to-Textual_Document" style="stroke:#A80036;stroke-width:1.0;"/><polygon fill="#A80036" points="658.68,185.95,665.6877,187.6508,669.9529,181.8364,662.9452,180.1356,658.68,185.95" style="stroke:#A80036;stroke-width:1.0;"/><text fill="#000000" font-family="sans-serif" font-size="13" lengthAdjust="spacing" textLength="103" x="826.5541" y="97.3594">0..* accessRights</text><!--MD5=[2c23d09c80fbfac9dc5109bf504b493e]
link Textual_Document to Agent--><path codeLine="91" d="M555.86,218.08 C515.03,230.98 463.02,253.4 429.5,290 C310.08,420.4 310.4,658.04 312.72,720.58 " fill="none" id="Textual_Document-Agent" style="stroke:#A80036;stroke-width:1.0;"/><text fill="#000000" font-family="sans-serif" font-size="13" lengthAdjust="spacing" textLength="140" x="558.6293" y="239.6098">0..* authoredDocuments</text><text fill="#000000" font-family="sans-serif" font-size="13" lengthAdjust="spacing" textLength="67" x="323.5585" y="710.0442">0..* authors</text><!--MD5=[f85d3b7ea4d0f360a9a896da9b8414e4]
reverse link Textual_Document_Accessibility_Specification to COAR_Accessibility_Specification_v1--><path codeLine="77" d="M1061.07,83.02 C1140.01,111.73 1276,161.18 1344.11,185.95 " fill="none" id="Textual_Document_Accessibility_Specification-backto-COAR_Accessibility_Specification_v1" style="stroke:#A80036;stroke-width:1.0;"/><polygon fill="none" points="1058.47,89.53,1042.07,76.12,1063.26,76.37,1058.47,89.53" style="stroke:#A80036;stroke-width:1.0;"/><!--MD5=[bfd88198d372996c25e9794c7dd6e719]
reverse link COAR_Accessibility_Specification_v1 to Open_Access_COAR_v1_Accessibility_Specification--><path codeLine="80" d="M1445.96,224.87 C1521.15,252.08 1647.53,297.8 1712.76,321.4 " fill="none" id="COAR_Accessibility_Specification_v1-backto-Open_Access_COAR_v1_Accessibility_Specification" style="stroke:#A80036;stroke-width:1.0;"/><polygon fill="none" points="1443.54,231.44,1427.11,218.05,1448.3,218.28,1443.54,231.44" style="stroke:#A80036;stroke-width:1.0;"/><!--MD5=[f38eb1e2f6e38e13de2b20f473ff16a5]
reverse link COAR_Accessibility_Specification_v1 to Restricted_Access_COAR_v1_Accessibility_Specification--><path codeLine="83" d="M1517.42,220.88 C1628.56,236.68 1791.51,261.59 1932.5,290 C1977.77,299.12 2028.57,311.68 2066.24,321.44 " fill="none" id="COAR_Accessibility_Specification_v1-backto-Restricted_Access_COAR_v1_Accessibility_Specification" style="stroke:#A80036;stroke-width:1.0;"/><polygon fill="none" points="1516.12,227.76,1497.29,218.03,1518.07,213.9,1516.12,227.76" style="stroke:#A80036;stroke-width:1.0;"/><!--MD5=[55f4ec97aa8e919191239661c27a15a2]
reverse link COAR_Accessibility_Specification_v1 to Emargoed_Access_COAR_v1_Accessibility_Specification--><path codeLine="86" d="M1385.5,238.38 C1385.5,260.96 1385.5,289.73 1385.5,310.27 " fill="none" id="COAR_Accessibility_Specification_v1-backto-Emargoed_Access_COAR_v1_Accessibility_Specification" style="stroke:#A80036;stroke-width:1.0;"/><polygon fill="none" points="1378.5,238.05,1385.5,218.05,1392.5,238.05,1378.5,238.05" style="stroke:#A80036;stroke-width:1.0;"/><!--MD5=[04d6d1b0a6f9e8b81dbdf44803f7976b]
reverse link COAR_Accessibility_Specification_v1 to Metadata_Only_Access_COAR_v1_Accessibility_Specification--><path codeLine="89" d="M1321.8,224.53 C1241.44,251.69 1105.3,297.7 1035.18,321.4 " fill="none" id="COAR_Accessibility_Specification_v1-backto-Metadata_Only_Access_COAR_v1_Accessibility_Specification" style="stroke:#A80036;stroke-width:1.0;"/><polygon fill="none" points="1319.77,217.83,1340.96,218.05,1324.25,231.09,1319.77,217.83" style="stroke:#A80036;stroke-width:1.0;"/><!--MD5=[c60a4b536c71b88487ebbf01e6b75384]
reverse link Textual_Document to Journal_Article--><path codeLine="92" d="M591.63,233.3 C577.38,249.98 559.4,271.04 543.4,289.78 " fill="none" id="Textual_Document-backto-Journal_Article" style="stroke:#A80036;stroke-width:1.0;"/><polygon fill="none" points="586.33,228.72,604.64,218.05,596.98,237.81,586.33,228.72" style="stroke:#A80036;stroke-width:1.0;"/><!--MD5=[f03e94566c19bb3b217b1b618f64fc41]
reverse link Textual_Document to Monograph--><path codeLine="94" d="M625.07,237.86 C629.48,258.13 634.99,283.52 639.32,303.46 " fill="none" id="Textual_Document-backto-Monograph" style="stroke:#A80036;stroke-width:1.0;"/><polygon fill="none" points="618.18,239.08,620.77,218.05,631.86,236.11,618.18,239.08" style="stroke:#A80036;stroke-width:1.0;"/><!--MD5=[7513a9dfb8e1403b404b649e88f9ffeb]
reverse link Contributorship to Editorship--><path codeLine="95" d="M558.71,781.87 C564.56,785.26 570.54,788.38 576.5,791 C632.78,815.71 673.04,773.06 711.5,821 C722.62,834.87 720.8,845.85 711.5,861 C696.12,886.08 675.07,872.14 652.5,891 C621.66,916.77 595.18,955.28 579.54,980.76 " fill="none" id="Contributorship-backto-Editorship" style="stroke:#A80036;stroke-width:1.0;"/><polygon fill="none" points="554.89,787.73,541.76,771.09,562.4,775.92,554.89,787.73" style="stroke:#A80036;stroke-width:1.0;"/><!--MD5=[74a7030ad1a3b136fe5c291ba6d0cb8e]
reverse link Contributorship to Publishership--><path codeLine="96" d="M495.93,791.12 C492.77,813.31 487.45,839 478.5,861 C459.8,906.95 425.12,953.21 402.18,980.99 " fill="none" id="Contributorship-backto-Publishership" style="stroke:#A80036;stroke-width:1.0;"/><polygon fill="none" points="488.99,790.17,498.34,771.15,502.89,791.85,488.99,790.17" style="stroke:#A80036;stroke-width:1.0;"/><!--MD5=[7276caa4191a3f95f28b5ba112f82c6c]
reverse link Contribution_Statement to CRediT_Contribution_Statement--><path codeLine="98" d="M1057.58,582.49 C1104.88,621.33 1188.8,690.25 1225.93,720.75 " fill="none" id="Contribution_Statement-backto-CRediT_Contribution_Statement" style="stroke:#A80036;stroke-width:1.0;"/><polygon fill="none" points="1052.98,587.77,1041.96,569.66,1061.86,576.95,1052.98,587.77" style="stroke:#A80036;stroke-width:1.0;"/><!--MD5=[88f40439064ff4845bc7e4cfd1a224e6]
reverse link Journal to Journal--><path codeLine="101" d="M607.65,536.81 C620.68,539.4 629.5,544.96 629.5,553.5 C629.5,564.65 614.45,570.72 594.63,571.73 " fill="none" id="Journal-backto-Journal" style="stroke:#A80036;stroke-width:1.0;"/><polygon fill="#FFFFFF" points="594.63,535.27,600.1182,539.9475,606.5468,536.6805,601.0586,532.003,594.63,535.27" style="stroke:#A80036;stroke-width:1.0;"/><text fill="#000000" font-family="sans-serif" font-size="13" lengthAdjust="spacing" textLength="102" x="602.6461" y="569.8965">0..* predecessors</text><!--MD5=[a0fe4bcc2e634d581797c23ae087e232]
reverse link Journal to Agent--><path codeLine="103" d="M436.45,628.19 C397.12,662.68 353.9,700.57 330.63,720.98 " fill="none" id="Journal-backto-Agent" style="stroke:#A80036;stroke-width:1.0;"/><polygon fill="#FFFFFF" points="446.35,619.51,439.2017,620.4596,437.3289,627.4233,444.4772,626.4737,446.35,619.51" style="stroke:#A80036;stroke-width:1.0;"/><text fill="#000000" font-family="sans-serif" font-size="13" lengthAdjust="spacing" textLength="83" x="254.8938" y="699.9124">0..* publishers</text><!--MD5=[a7ff7daa03c30e603ee3c4860dcf798f]
reverse link Journal_Article to Journal--><path codeLine="105" d="M508.25,398.35 C510.39,425.22 512.92,457.04 515.12,484.78 " fill="none" id="Journal_Article-backto-Journal" style="stroke:#A80036;stroke-width:1.0;"/><polygon fill="#FFFFFF" points="507.21,385.2,503.6973,391.4977,508.1596,397.1624,511.6723,390.8646,507.21,385.2" style="stroke:#A80036;stroke-width:1.0;"/><text fill="#000000" font-family="sans-serif" font-size="13" lengthAdjust="spacing" textLength="20" x="486.2862" y="406.8766">0..*</text><text fill="#000000" font-family="sans-serif" font-size="13" lengthAdjust="spacing" textLength="39" x="473.3988" y="473.9112">source</text><!--MD5=[190e8115f40c8f2a14518699a77fb3e0]
link Editorship to Agent--><path codeLine="107" d="M559.05,980.98 C549.65,941.8 526.97,867.34 482.5,821 C479.97,818.37 398.59,778.95 349.7,755.4 " fill="none" id="Editorship-to-Agent" style="stroke:#A80036;stroke-width:1.0;"/><polygon fill="#A80036" points="345.07,753.17,351.4466,760.6759,349.5758,755.3374,354.9144,753.4666,345.07,753.17" style="stroke:#A80036;stroke-width:1.0;"/><path d="M517.5,826 L517.5,852 L655.5,852 L655.5,836 L645.5,826 L517.5,826 " fill="#FFFF00" filter="url(#fu8377ezjaon2)" style="stroke:#A80036;stroke-width:1.0;"/><path d="M645.5,826 L645.5,836 L655.5,836 L645.5,826 " fill="#FFFF00" style="stroke:#A80036;stroke-width:1.0;"/><text fill="#000000" font-family="sans-serif" font-size="13" lengthAdjust="spacing" textLength="117" x="523.5" y="844.4951">editor == contributor</text><text fill="#000000" font-family="sans-serif" font-size="13" lengthAdjust="spacing" textLength="32" x="318.0329" y="774.4253">editor</text><!--MD5=[4ce0a37722dc35c14d3ac31b62ccb709]
link Publishership to Agent--><path codeLine="109" d="M360.67,980.89 C341.7,952.85 313.69,906.2 302.5,861 C293.7,825.44 301.54,782.56 307.74,757.97 " fill="none" id="Publishership-to-Agent" style="stroke:#A80036;stroke-width:1.0;"/><polygon fill="#A80036" points="309.03,753.01,302.8914,760.7118,307.7702,757.8487,310.6334,762.7275,309.03,753.01" style="stroke:#A80036;stroke-width:1.0;"/><path d="M307.5,826 L307.5,852 L465.5,852 L465.5,836 L455.5,826 L307.5,826 " fill="#FFFF00" filter="url(#fu8377ezjaon2)" style="stroke:#A80036;stroke-width:1.0;"/><path d="M455.5,826 L455.5,836 L465.5,836 L455.5,826 " fill="#FFFF00" style="stroke:#A80036;stroke-width:1.0;"/><text fill="#000000" font-family="sans-serif" font-size="13" lengthAdjust="spacing" textLength="137" x="313.5" y="844.4951">publisher == contributor</text><text fill="#000000" font-family="sans-serif" font-size="13" lengthAdjust="spacing" textLength="52" x="254.9451" y="776.2745">publisher</text><!--MD5=[fb8e7b03155fc2d9c40ee98c4cf95180]
link CRediT_Contribution_Statement to CRediT_Role_Type--><path codeLine="112" d="M1238.5,753.23 C1228.29,779.13 1206.67,834 1186.14,886.11 " fill="none" id="CRediT_Contribution_Statement-to-CRediT_Role_Type" style="stroke:#A80036;stroke-width:1.0;stroke-dasharray:7.0,7.0;"/><polygon fill="#A80036" points="1184.28,890.82,1191.2998,883.9119,1186.1122,886.1678,1183.8563,880.9803,1184.28,890.82" style="stroke:#A80036;stroke-width:1.0;"/><text fill="#000000" font-family="sans-serif" font-size="13" lengthAdjust="spacing" textLength="49" x="1136.6433" y="880.3165">roleType</text><!--MD5=[fd5d8cb6bc72986bd3560f3b69973f17]
link CRediT_Contribution_Statement to CRediT_Degree_of_Contribution--><path codeLine="113" d="M1250.5,753.23 C1266.13,792.88 1308.52,900.46 1332.79,962.07 " fill="none" id="CRediT_Contribution_Statement-to-CRediT_Degree_of_Contribution" style="stroke:#A80036;stroke-width:1.0;stroke-dasharray:7.0,7.0;"/><polygon fill="#A80036" points="1334.65,966.79,1335.0579,956.9496,1332.8103,962.1408,1327.6191,959.8932,1334.65,966.79" style="stroke:#A80036;stroke-width:1.0;"/><text fill="#000000" font-family="sans-serif" font-size="13" lengthAdjust="spacing" textLength="121" x="1216.7645" y="948.9058">degreeOfContribution</text><!--MD5=[1a4b4c7ecb9bff8c935a1fc3b9d4a073]
@startuml

!includesub core.puml!common


    !include ./core.puml

    !startsub Coar
    class "COAR_Accessibility_Specification_v1"

    class "Open_Access_COAR_v1_Accessibility_Specification"

    class "Restricted_Access_COAR_v1_Accessibility_Specification"

    class "Metadata_Only_Access_COAR_v1_Accessibility_Specification"

    class "Emargoed_Access_COAR_v1_Accessibility_Specification"{
        embargoEndDate : Date
    }
    !endsub

    !startsub Journal
    class "Journal"{
        DOI : DOI_Type
        title : Multilingual_String
        ISSN : ISSN_Type
        eISSN : ISSN_Type
        acronym : Multilingual_String
        startDate : Date
        endDate : Date
    }

    class "Journal_Article"{
        startPage : String
        endPage : String
        volume : String
        number : String
    }
    !endsub

    class "Monograph"{
        ISBN : ISBN_Type
        eISBN : ISBN_Type
    }
    class "Editorship"{
        leadingEditorFlag : Boolean
    }
    class "Publishership"{
        leadingPublisherFlag : Boolean
    }
    !startsub CRediT
    class "CRediT_Contribution_Statement"{
    }
    enum "CRediT_Degree_of_Contribution"{
        Lead
        Supporting
        Equal
    }
    enum "CRediT_Role_Type"{
        Conceptualization
        Data curation
        Formal analysis
        Funding acquisition
        Investigation
        Methodology
        Project administration
        Resources
        Software
        Supervision
        Validation
        Visualization
        Writing - original draft
        Writing - review & editing
    }
    !endsub

    !startsub Coar
    "Textual_Document_Accessibility_Specification" <|- - "COAR_Accessibility_Specification_v1"
    !endsub
    !startsub Coar
    "COAR_Accessibility_Specification_v1" <|- - "Open_Access_COAR_v1_Accessibility_Specification"
    !endsub
    !startsub Coar
    "COAR_Accessibility_Specification_v1" <|- - "Restricted_Access_COAR_v1_Accessibility_Specification"
    !endsub
    !startsub Coar
    "COAR_Accessibility_Specification_v1" <|- - "Emargoed_Access_COAR_v1_Accessibility_Specification"
    !endsub
    !startsub Coar
    "COAR_Accessibility_Specification_v1" <|- - "Metadata_Only_Access_COAR_v1_Accessibility_Specification"
    !endsub
    !startsub Journal
    "Textual_Document" <|- - "Journal_Article"
    !endsub
    "Textual_Document" <|- - "Monograph"
    "Contributorship" <|- - "Editorship"
    "Contributorship" <|- - "Publishership"
    !startsub CRediT
    "Contribution_Statement" <|- - "CRediT_Contribution_Statement"
    !endsub
    !startsub Journal
    "Journal" o- - "0..* predecessors" "Journal"
    !endsub
    "Journal" o- -  "0..* publishers" "Agent"
    !startsub Journal
    "Journal_Article" "0..*" o- - "source" "Journal"
    !endsub
    "Editorship" - -> "editor" "Agent"
    note on link #yellow: editor == contributor
    "Publishership" - -> "publisher" "Agent"
    note on link #yellow: publisher == contributor
    !startsub CRediT
    "CRediT_Contribution_Statement" ..> "roleType" "CRediT_Role_Type"
    "CRediT_Contribution_Statement" ..> "degreeOfContribution" "CRediT_Degree_of_Contribution"
    !endsub

    note right of "CRediT Role Type": The CRediT is currently not expressed as Linked Open Data. \nWe hope it will be in the future. We estimate it will be more \nstraightforward for it to be exposed as a list of terms (perhaps \na SKOS concept scheme), rather than a class hierarchy. \nThis justifies our choice to model it as an enumeration rather \nthan a class hierarchy in our model.
@enduml

@startuml

    	hide empty members


    	hide empty members

    class "Document"#00ffff {
    class "Textual_Document_Accessibility_Specification"#00ffff {
    }
    class "Agent"#00ffff {

    }
    class "Organisation_Unit"#00ffff {
        name : Multilingual_String
    }
    class "Person"#00ffff {
        orcidid : ORCID_iD
    }
    class Person_Name << (D,#FF7700) DataType>>#00ffff {
        firstNames : String
        familyNames : String
        otherNames : String
    }
    class "Authorship"#00ffff {
        correspondingAuthorFlag : Boolean
    }
    class "Contributorship"#00ffff {
        contacts : List<URI>
        displayName : String
    }
    class "Contribution_Statement"#00ffff {
    }
    class "Free_Text_Contribution"#00ffff {
        statement : Multilingual_String
    }
    class "Affiliation_Statement"#00ffff {
        displayAffiliation : String
    }
   class Postal_Address << (D,#FF7700) DataType>>#00ffff {
        street : String
        city : String
        zipCode : String
        country : Country
    }
    class "Country"#00ffff {
        name : Multilingual_String
        iso3166alpha2Code : ISO3166_Alpha2_Code
        # iso3166NumericCode : ISO3166_Numeric_Code
        # euCountryCode : EU_Country_Code
    }
    "Postal_Address" o- - "country" "Country"
    "Affiliation_Statement" ..> "postalAddress" "Postal_Address"
    "Affiliation_Statement" o- - "0..1 orgUnit" "Organisation_Unit"
    "Affiliation_Statement" o- - "0..1 institution" "Organisation_Unit"
    "Affiliation_Statement" o- - "person" "Person"
    "Contribution_Statement" <|- - "Free_Text_Contribution"
    "Contributorship" "0..*" -r-* "Document"
    "Contributorship" "0..*" -l-* "0..1 contributor" "Agent"
    "Contributorship" *- - "0..* affiliations" "Affiliation_Statement"
    "Contributorship" *-u- "0..* contributionStatements" "Contribution_Statement"
    "Authorship" -r-* "Textual_Document"
    "Contributorship" <|-u- "Authorship"
    "Authorship" "0..*" - -o "0..1 author" "Agent"
    note on link #yellow: author == contributor
    "Person" .d.> "names" "Person_Name"
    "Agent" <|-d- "Person"
    "Agent" <|-d- "Organisation_Unit"
    "Document" <|-u- "Textual_Document"
    "Textual_Document" *-u- "0..* accessRights" "Textual_Document_Accessibility_Specification"
    "Textual_Document" "0..* authoredDocuments" - - - "0..* authors" "Agent"
    note left of Agent: The Agent is mandatory for almost all \nsubclasses of Contributorship,\nReviewing is the exception if the \nreviewer's identity is concealed. \nAlso useful when authors are \nusing pseudonyms.

    class "COAR_Accessibility_Specification_v1"

    class "Open_Access_COAR_v1_Accessibility_Specification"

    class "Restricted_Access_COAR_v1_Accessibility_Specification"

    class "Metadata_Only_Access_COAR_v1_Accessibility_Specification"

    class "Emargoed_Access_COAR_v1_Accessibility_Specification"{
        embargoEndDate : Date
    }

    class "Journal"{
        DOI : DOI_Type
        title : Multilingual_String
        ISSN : ISSN_Type
        eISSN : ISSN_Type
        acronym : Multilingual_String
        startDate : Date
        endDate : Date
    }

    class "Journal_Article"{
        startPage : String
        endPage : String
        volume : String
        number : String
    }

    class "Monograph"{
        ISBN : ISBN_Type
        eISBN : ISBN_Type
    }
    class "Editorship"{
        leadingEditorFlag : Boolean
    }
    class "Publishership"{
        leadingPublisherFlag : Boolean
    }
    class "CRediT_Contribution_Statement"{
    }
    enum "CRediT_Degree_of_Contribution"{
        Lead
        Supporting
        Equal
    }
    enum "CRediT_Role_Type"{
        Conceptualization
        Data curation
        Formal analysis
        Funding acquisition
        Investigation
        Methodology
        Project administration
        Resources
        Software
        Supervision
        Validation
        Visualization
        Writing - original draft
        Writing - review & editing
    }

    "Textual_Document_Accessibility_Specification" <|- - "COAR_Accessibility_Specification_v1"
    "COAR_Accessibility_Specification_v1" <|- - "Open_Access_COAR_v1_Accessibility_Specification"
    "COAR_Accessibility_Specification_v1" <|- - "Restricted_Access_COAR_v1_Accessibility_Specification"
    "COAR_Accessibility_Specification_v1" <|- - "Emargoed_Access_COAR_v1_Accessibility_Specification"
    "COAR_Accessibility_Specification_v1" <|- - "Metadata_Only_Access_COAR_v1_Accessibility_Specification"
    "Textual_Document" <|- - "Journal_Article"
    "Textual_Document" <|- - "Monograph"
    "Contributorship" <|- - "Editorship"
    "Contributorship" <|- - "Publishership"
    "Contribution_Statement" <|- - "CRediT_Contribution_Statement"
    "Journal" o- - "0..* predecessors" "Journal"
    "Journal" o- -  "0..* publishers" "Agent"
    "Journal_Article" "0..*" o- - "source" "Journal"
    "Editorship" - -> "editor" "Agent"
    note on link #yellow: editor == contributor
    "Publishership" - -> "publisher" "Agent"
    note on link #yellow: publisher == contributor
    "CRediT_Contribution_Statement" ..> "roleType" "CRediT_Role_Type"
    "CRediT_Contribution_Statement" ..> "degreeOfContribution" "CRediT_Degree_of_Contribution"

    note right of "CRediT Role Type": The CRediT is currently not expressed as Linked Open Data. \nWe hope it will be in the future. We estimate it will be more \nstraightforward for it to be exposed as a list of terms (perhaps \na SKOS concept scheme), rather than a class hierarchy. \nThis justifies our choice to model it as an enumeration rather \nthan a class hierarchy in our model.
@enduml

PlantUML version 1.2021.8(Sat Jun 26 10:20:59 CEST 2021)
(GPL source distribution)
Java Runtime: Java(TM) SE Runtime Environment
JVM: Java HotSpot(TM) Client VM
Default Encoding: Cp1252
Language: en
Country: US
--></g></svg>