<?xml version="1.0" encoding="UTF-8" standalone="no"?><svg xmlns="http://www.w3.org/2000/svg" xmlns:xlink="http://www.w3.org/1999/xlink" contentScriptType="application/ecmascript" contentStyleType="text/css" height="909px" preserveAspectRatio="none" style="width:974px;height:909px;background:#FFFFFF;" version="1.1" viewBox="0 0 974 909" width="974px" zoomAndPan="magnify"><defs><filter height="300%" id="f1a1y7ufst7xwm" width="300%" x="-1" y="-1"><feGaussianBlur result="blurOut" stdDeviation="2.0"/><feColorMatrix in="blurOut" result="blurOut2" type="matrix" values="0 0 0 0 0 0 0 0 0 0 0 0 0 0 0 0 0 0 .4 0"/><feOffset dx="4.0" dy="4.0" in="blurOut2" result="blurOut3"/><feBlend in="SourceGraphic" in2="blurOut3" mode="normal"/></filter></defs><g><!--MD5=[05151c161079be2c12996cf31a3c6866]
class Contribution_to_Document--><rect codeLine="205" fill="#FFFFFF" filter="url(#f1a1y7ufst7xwm)" height="32" id="Contribution_to_Document" style="stroke:#A80036;stroke-width:1.5;" width="198" x="262.2375" y="100"/><ellipse cx="277.2375" cy="116" fill="#ADD1B2" rx="11" ry="11" style="stroke:#A80036;stroke-width:1.0;"/><path d="M280.2063,121.6406 Q279.6281,121.9375 278.9875,122.0781 Q278.3469,122.2344 277.6438,122.2344 Q275.1438,122.2344 273.8156,120.5938 Q272.5031,118.9375 272.5031,115.8125 Q272.5031,112.6875 273.8156,111.0313 Q275.1438,109.375 277.6438,109.375 Q278.3469,109.375 278.9875,109.5313 Q279.6438,109.6875 280.2063,109.9844 L280.2063,112.7031 Q279.5813,112.125 278.9875,111.8594 Q278.3938,111.5781 277.7688,111.5781 Q276.425,111.5781 275.7375,112.6563 Q275.05,113.7188 275.05,115.8125 Q275.05,117.9063 275.7375,118.9844 Q276.425,120.0469 277.7688,120.0469 Q278.3938,120.0469 278.9875,119.7813 Q279.5813,119.5 280.2063,118.9219 L280.2063,121.6406 Z " fill="#000000"/><text fill="#000000" font-family="sans-serif" font-size="12" lengthAdjust="spacing" textLength="166" x="291.2375" y="120.1543">Contribution_to_Document</text><!--MD5=[0330879a1a385efee19ba3488ed490fa]
class Contribution--><rect fill="#FEFECE" filter="url(#f1a1y7ufst7xwm)" height="32" id="Contribution" style="stroke:#A80036;stroke-width:1.5;" width="109" x="306.7375" y="7"/><ellipse cx="321.7375" cy="23" fill="#ADD1B2" rx="11" ry="11" style="stroke:#A80036;stroke-width:1.0;"/><path d="M324.7063,28.6406 Q324.1281,28.9375 323.4875,29.0781 Q322.8469,29.2344 322.1438,29.2344 Q319.6438,29.2344 318.3156,27.5938 Q317.0031,25.9375 317.0031,22.8125 Q317.0031,19.6875 318.3156,18.0313 Q319.6438,16.375 322.1438,16.375 Q322.8469,16.375 323.4875,16.5313 Q324.1438,16.6875 324.7063,16.9844 L324.7063,19.7031 Q324.0813,19.125 323.4875,18.8594 Q322.8938,18.5781 322.2688,18.5781 Q320.925,18.5781 320.2375,19.6563 Q319.55,20.7188 319.55,22.8125 Q319.55,24.9063 320.2375,25.9844 Q320.925,27.0469 322.2688,27.0469 Q322.8938,27.0469 323.4875,26.7813 Q324.0813,26.5 324.7063,25.9219 L324.7063,28.6406 Z " fill="#000000"/><text fill="#000000" font-family="sans-serif" font-size="12" lengthAdjust="spacing" textLength="77" x="335.7375" y="27.1543">Contribution</text><!--MD5=[59b530d44ae785dc18db921986a9c15c]
class Document--><rect codeLine="312" fill="#FFFFFF" filter="url(#f1a1y7ufst7xwm)" height="65.6094" id="Document" style="stroke:#A80036;stroke-width:1.5;" width="148" x="287.2375" y="193"/><ellipse cx="325.6375" cy="209" fill="#ADD1B2" rx="11" ry="11" style="stroke:#A80036;stroke-width:1.0;"/><path d="M328.6063,214.6406 Q328.0281,214.9375 327.3875,215.0781 Q326.7469,215.2344 326.0438,215.2344 Q323.5438,215.2344 322.2156,213.5938 Q320.9031,211.9375 320.9031,208.8125 Q320.9031,205.6875 322.2156,204.0313 Q323.5438,202.375 326.0438,202.375 Q326.7469,202.375 327.3875,202.5313 Q328.0438,202.6875 328.6063,202.9844 L328.6063,205.7031 Q327.9813,205.125 327.3875,204.8594 Q326.7938,204.5781 326.1688,204.5781 Q324.825,204.5781 324.1375,205.6563 Q323.45,206.7188 323.45,208.8125 Q323.45,210.9063 324.1375,211.9844 Q324.825,213.0469 326.1688,213.0469 Q326.7938,213.0469 327.3875,212.7813 Q327.9813,212.5 328.6063,211.9219 L328.6063,214.6406 Z " fill="#000000"/><text fill="#000000" font-family="sans-serif" font-size="12" lengthAdjust="spacing" textLength="64" x="344.8375" y="213.1543">Document</text><line style="stroke:#A80036;stroke-width:1.5;" x1="288.2375" x2="434.2375" y1="225" y2="225"/><text fill="#000000" font-family="sans-serif" font-size="11" lengthAdjust="spacing" textLength="136" x="293.2375" y="239.2104">title : Multilingual_String</text><text fill="#000000" font-family="sans-serif" font-size="11" lengthAdjust="spacing" textLength="125" x="293.2375" y="252.0151">publicationDate : Date</text><!--MD5=[bcc382d868f32e5ce25faf6e44aed96d]
class Publication_Channel--><rect codeLine="319" fill="#FFFFFF" filter="url(#f1a1y7ufst7xwm)" height="65.6094" id="Publication_Channel" style="stroke:#A80036;stroke-width:1.5;" width="176" x="171.2375" y="336"/><ellipse cx="194.3375" cy="352" fill="#ADD1B2" rx="11" ry="11" style="stroke:#A80036;stroke-width:1.0;"/><path d="M197.3063,357.6406 Q196.7281,357.9375 196.0875,358.0781 Q195.4469,358.2344 194.7438,358.2344 Q192.2438,358.2344 190.9156,356.5938 Q189.6031,354.9375 189.6031,351.8125 Q189.6031,348.6875 190.9156,347.0313 Q192.2438,345.375 194.7438,345.375 Q195.4469,345.375 196.0875,345.5313 Q196.7438,345.6875 197.3063,345.9844 L197.3063,348.7031 Q196.6813,348.125 196.0875,347.8594 Q195.4938,347.5781 194.8688,347.5781 Q193.525,347.5781 192.8375,348.6563 Q192.15,349.7188 192.15,351.8125 Q192.15,353.9063 192.8375,354.9844 Q193.525,356.0469 194.8688,356.0469 Q195.4938,356.0469 196.0875,355.7813 Q196.6813,355.5 197.3063,354.9219 L197.3063,357.6406 Z " fill="#000000"/><text fill="#000000" font-family="sans-serif" font-size="12" lengthAdjust="spacing" textLength="126" x="210.1375" y="356.1543">Publication_Channel</text><line style="stroke:#A80036;stroke-width:1.5;" x1="172.2375" x2="346.2375" y1="368" y2="368"/><text fill="#000000" font-family="sans-serif" font-size="11" lengthAdjust="spacing" textLength="136" x="177.2375" y="382.2104">title : Multilingual_String</text><text fill="#000000" font-family="sans-serif" font-size="11" lengthAdjust="spacing" textLength="164" x="177.2375" y="395.0151">acronym : Multilingual_String</text><!--MD5=[cee4b16e9c4c3b435207f3333dc7e3c1]
class Publication_Series--><rect codeLine="59" fill="#DDEEDD" filter="url(#f1a1y7ufst7xwm)" height="65.6094" id="Publication_Series" style="stroke:#A80036;stroke-width:1.5;" width="146" x="186.2375" y="475.5"/><ellipse cx="201.2375" cy="491.5" fill="#ADD1B2" rx="11" ry="11" style="stroke:#A80036;stroke-width:1.0;"/><path d="M204.2063,497.1406 Q203.6281,497.4375 202.9875,497.5781 Q202.3469,497.7344 201.6438,497.7344 Q199.1438,497.7344 197.8156,496.0938 Q196.5031,494.4375 196.5031,491.3125 Q196.5031,488.1875 197.8156,486.5313 Q199.1438,484.875 201.6438,484.875 Q202.3469,484.875 202.9875,485.0313 Q203.6438,485.1875 204.2063,485.4844 L204.2063,488.2031 Q203.5813,487.625 202.9875,487.3594 Q202.3938,487.0781 201.7688,487.0781 Q200.425,487.0781 199.7375,488.1563 Q199.05,489.2188 199.05,491.3125 Q199.05,493.4063 199.7375,494.4844 Q200.425,495.5469 201.7688,495.5469 Q202.3938,495.5469 202.9875,495.2813 Q203.5813,495 204.2063,494.4219 L204.2063,497.1406 Z " fill="#000000"/><text fill="#000000" font-family="sans-serif" font-size="12" lengthAdjust="spacing" textLength="114" x="215.2375" y="495.6543">Publication_Series</text><line style="stroke:#A80036;stroke-width:1.5;" x1="187.2375" x2="331.2375" y1="507.5" y2="507.5"/><text fill="#000000" font-family="sans-serif" font-size="11" lengthAdjust="spacing" textLength="66" x="192.2375" y="521.7104">ISSN : ISSN</text><text fill="#000000" font-family="sans-serif" font-size="11" lengthAdjust="spacing" textLength="73" x="192.2375" y="534.5151">eISSN : ISSN</text><!--MD5=[9a5422ab15122c8d1cd75d14414799b8]
class Journal--><rect codeLine="68" fill="#DDEEDD" filter="url(#f1a1y7ufst7xwm)" height="78.4141" id="Journal" style="stroke:#A80036;stroke-width:1.5;" width="103" x="61.7375" y="615"/><ellipse cx="89.3375" cy="631" fill="#ADD1B2" rx="11" ry="11" style="stroke:#A80036;stroke-width:1.0;"/><path d="M92.3063,636.6406 Q91.7281,636.9375 91.0875,637.0781 Q90.4469,637.2344 89.7438,637.2344 Q87.2438,637.2344 85.9156,635.5938 Q84.6031,633.9375 84.6031,630.8125 Q84.6031,627.6875 85.9156,626.0313 Q87.2438,624.375 89.7438,624.375 Q90.4469,624.375 91.0875,624.5313 Q91.7438,624.6875 92.3063,624.9844 L92.3063,627.7031 Q91.6813,627.125 91.0875,626.8594 Q90.4938,626.5781 89.8688,626.5781 Q88.525,626.5781 87.8375,627.6563 Q87.15,628.7188 87.15,630.8125 Q87.15,632.9063 87.8375,633.9844 Q88.525,635.0469 89.8688,635.0469 Q90.4938,635.0469 91.0875,634.7813 Q91.6813,634.5 92.3063,633.9219 L92.3063,636.6406 Z " fill="#000000"/><text fill="#000000" font-family="sans-serif" font-size="12" lengthAdjust="spacing" textLength="43" x="106.1375" y="635.1543">Journal</text><line style="stroke:#A80036;stroke-width:1.5;" x1="62.7375" x2="163.7375" y1="647" y2="647"/><text fill="#000000" font-family="sans-serif" font-size="11" lengthAdjust="spacing" textLength="52" x="67.7375" y="661.2104">DOI : DOI</text><text fill="#000000" font-family="sans-serif" font-size="11" lengthAdjust="spacing" textLength="91" x="67.7375" y="674.0151">startDate : Date</text><text fill="#000000" font-family="sans-serif" font-size="11" lengthAdjust="spacing" textLength="85" x="67.7375" y="686.8198">endDate : Date</text><!--MD5=[9d44916250b776386006c440668bcfbb]
class Agent--><rect fill="#FEFECE" filter="url(#f1a1y7ufst7xwm)" height="32" id="Agent" style="stroke:#A80036;stroke-width:1.5;" width="69" x="78.7375" y="754"/><ellipse cx="93.7375" cy="770" fill="#ADD1B2" rx="11" ry="11" style="stroke:#A80036;stroke-width:1.0;"/><path d="M96.7063,775.6406 Q96.1281,775.9375 95.4875,776.0781 Q94.8469,776.2344 94.1438,776.2344 Q91.6438,776.2344 90.3156,774.5938 Q89.0031,772.9375 89.0031,769.8125 Q89.0031,766.6875 90.3156,765.0313 Q91.6438,763.375 94.1438,763.375 Q94.8469,763.375 95.4875,763.5313 Q96.1438,763.6875 96.7063,763.9844 L96.7063,766.7031 Q96.0813,766.125 95.4875,765.8594 Q94.8938,765.5781 94.2688,765.5781 Q92.925,765.5781 92.2375,766.6563 Q91.55,767.7188 91.55,769.8125 Q91.55,771.9063 92.2375,772.9844 Q92.925,774.0469 94.2688,774.0469 Q94.8938,774.0469 95.4875,773.7813 Q96.0813,773.5 96.7063,772.9219 L96.7063,775.6406 Z " fill="#000000"/><text fill="#000000" font-family="sans-serif" font-size="12" lengthAdjust="spacing" textLength="37" x="107.7375" y="774.1543">Agent</text><!--MD5=[63653625e761dfa0b192a72ef49a851b]
class Scholarly_Publication--><rect codeLine="5" fill="#DDEEDD" filter="url(#f1a1y7ufst7xwm)" height="32" id="Scholarly_Publication" style="stroke:#A80036;stroke-width:1.5;" width="163" x="382.7375" y="353"/><ellipse cx="397.7375" cy="369" fill="#ADD1B2" rx="11" ry="11" style="stroke:#A80036;stroke-width:1.0;"/><path d="M400.7063,374.6406 Q400.1281,374.9375 399.4875,375.0781 Q398.8469,375.2344 398.1438,375.2344 Q395.6438,375.2344 394.3156,373.5938 Q393.0031,371.9375 393.0031,368.8125 Q393.0031,365.6875 394.3156,364.0313 Q395.6438,362.375 398.1438,362.375 Q398.8469,362.375 399.4875,362.5313 Q400.1438,362.6875 400.7063,362.9844 L400.7063,365.7031 Q400.0813,365.125 399.4875,364.8594 Q398.8938,364.5781 398.2688,364.5781 Q396.925,364.5781 396.2375,365.6563 Q395.55,366.7188 395.55,368.8125 Q395.55,370.9063 396.2375,371.9844 Q396.925,373.0469 398.2688,373.0469 Q398.8938,373.0469 399.4875,372.7813 Q400.0813,372.5 400.7063,371.9219 L400.7063,374.6406 Z " fill="#000000"/><text fill="#000000" font-family="sans-serif" font-size="12" lengthAdjust="spacing" textLength="131" x="411.7375" y="373.1543">Scholarly_Publication</text><!--MD5=[d22815ff63be9cac9a63f8d1ea27d033]
class Article--><rect codeLine="114" fill="#DDEEDD" filter="url(#f1a1y7ufst7xwm)" height="91.2188" id="Article" style="stroke:#A80036;stroke-width:1.5;" width="161" x="534.7375" y="463"/><ellipse cx="591.4875" cy="479" fill="#ADD1B2" rx="11" ry="11" style="stroke:#A80036;stroke-width:1.0;"/><path d="M594.4563,484.6406 Q593.8781,484.9375 593.2375,485.0781 Q592.5969,485.2344 591.8938,485.2344 Q589.3938,485.2344 588.0656,483.5938 Q586.7531,481.9375 586.7531,478.8125 Q586.7531,475.6875 588.0656,474.0313 Q589.3938,472.375 591.8938,472.375 Q592.5969,472.375 593.2375,472.5313 Q593.8938,472.6875 594.4563,472.9844 L594.4563,475.7031 Q593.8313,475.125 593.2375,474.8594 Q592.6438,474.5781 592.0188,474.5781 Q590.675,474.5781 589.9875,475.6563 Q589.3,476.7188 589.3,478.8125 Q589.3,480.9063 589.9875,481.9844 Q590.675,483.0469 592.0188,483.0469 Q592.6438,483.0469 593.2375,482.7813 Q593.8313,482.5 594.4563,481.9219 L594.4563,484.6406 Z " fill="#000000"/><text fill="#000000" font-family="sans-serif" font-size="12" lengthAdjust="spacing" textLength="39" x="611.9875" y="483.1543">Article</text><line style="stroke:#A80036;stroke-width:1.5;" x1="535.7375" x2="694.7375" y1="495" y2="495"/><text fill="#000000" font-family="sans-serif" font-size="11" lengthAdjust="spacing" textLength="101" x="540.7375" y="509.2104">startPage : String</text><text fill="#000000" font-family="sans-serif" font-size="11" lengthAdjust="spacing" textLength="95" x="540.7375" y="522.0151">endPage : String</text><text fill="#000000" font-family="sans-serif" font-size="11" lengthAdjust="spacing" textLength="149" x="540.7375" y="534.8198">numberOfPages : Decimal</text><text fill="#000000" font-family="sans-serif" font-size="11" lengthAdjust="spacing" textLength="126" x="540.7375" y="547.6245">articleNumber : String</text><!--MD5=[9548cb71c0a277156e2ec959836c9b89]
class Book_Chapter--><rect codeLine="123" fill="#DDEEDD" filter="url(#f1a1y7ufst7xwm)" height="32" id="Book_Chapter" style="stroke:#A80036;stroke-width:1.5;" width="119" x="841.7375" y="638"/><ellipse cx="856.7375" cy="654" fill="#ADD1B2" rx="11" ry="11" style="stroke:#A80036;stroke-width:1.0;"/><path d="M859.7063,659.6406 Q859.1281,659.9375 858.4875,660.0781 Q857.8469,660.2344 857.1438,660.2344 Q854.6438,660.2344 853.3156,658.5938 Q852.0031,656.9375 852.0031,653.8125 Q852.0031,650.6875 853.3156,649.0313 Q854.6438,647.375 857.1438,647.375 Q857.8469,647.375 858.4875,647.5313 Q859.1438,647.6875 859.7063,647.9844 L859.7063,650.7031 Q859.0813,650.125 858.4875,649.8594 Q857.8938,649.5781 857.2688,649.5781 Q855.925,649.5781 855.2375,650.6563 Q854.55,651.7188 854.55,653.8125 Q854.55,655.9063 855.2375,656.9844 Q855.925,658.0469 857.2688,658.0469 Q857.8938,658.0469 858.4875,657.7813 Q859.0813,657.5 859.7063,656.9219 L859.7063,659.6406 Z " fill="#000000"/><text fill="#000000" font-family="sans-serif" font-size="12" lengthAdjust="spacing" textLength="87" x="870.7375" y="658.1543">Book_Chapter</text><!--MD5=[1d3fc7c86c948f99e0561baef175b459]
class Book_of_Chapters--><rect codeLine="98" fill="#DDEEDD" filter="url(#f1a1y7ufst7xwm)" height="32" id="Book_of_Chapters" style="stroke:#A80036;stroke-width:1.5;" width="144" x="689.2375" y="754"/><ellipse cx="704.2375" cy="770" fill="#ADD1B2" rx="11" ry="11" style="stroke:#A80036;stroke-width:1.0;"/><path d="M707.2063,775.6406 Q706.6281,775.9375 705.9875,776.0781 Q705.3469,776.2344 704.6438,776.2344 Q702.1438,776.2344 700.8156,774.5938 Q699.5031,772.9375 699.5031,769.8125 Q699.5031,766.6875 700.8156,765.0313 Q702.1438,763.375 704.6438,763.375 Q705.3469,763.375 705.9875,763.5313 Q706.6438,763.6875 707.2063,763.9844 L707.2063,766.7031 Q706.5813,766.125 705.9875,765.8594 Q705.3938,765.5781 704.7688,765.5781 Q703.425,765.5781 702.7375,766.6563 Q702.05,767.7188 702.05,769.8125 Q702.05,771.9063 702.7375,772.9844 Q703.425,774.0469 704.7688,774.0469 Q705.3938,774.0469 705.9875,773.7813 Q706.5813,773.5 707.2063,772.9219 L707.2063,775.6406 Z " fill="#000000"/><text fill="#000000" font-family="sans-serif" font-size="12" lengthAdjust="spacing" textLength="112" x="718.2375" y="774.1543">Book_of_Chapters</text><!--MD5=[1678d3ff9a2a61263ae88ec1bc90f6e6]
class Conference_Article--><rect codeLine="129" fill="#DDEEDD" filter="url(#f1a1y7ufst7xwm)" height="32" id="Conference_Article" style="stroke:#A80036;stroke-width:1.5;" width="149" x="657.7375" y="638"/><ellipse cx="672.7375" cy="654" fill="#ADD1B2" rx="11" ry="11" style="stroke:#A80036;stroke-width:1.0;"/><path d="M675.7063,659.6406 Q675.1281,659.9375 674.4875,660.0781 Q673.8469,660.2344 673.1438,660.2344 Q670.6438,660.2344 669.3156,658.5938 Q668.0031,656.9375 668.0031,653.8125 Q668.0031,650.6875 669.3156,649.0313 Q670.6438,647.375 673.1438,647.375 Q673.8469,647.375 674.4875,647.5313 Q675.1438,647.6875 675.7063,647.9844 L675.7063,650.7031 Q675.0813,650.125 674.4875,649.8594 Q673.8938,649.5781 673.2688,649.5781 Q671.925,649.5781 671.2375,650.6563 Q670.55,651.7188 670.55,653.8125 Q670.55,655.9063 671.2375,656.9844 Q671.925,658.0469 673.2688,658.0469 Q673.8938,658.0469 674.4875,657.7813 Q675.0813,657.5 675.7063,656.9219 L675.7063,659.6406 Z " fill="#000000"/><text fill="#000000" font-family="sans-serif" font-size="12" lengthAdjust="spacing" textLength="117" x="686.7375" y="658.1543">Conference_Article</text><!--MD5=[3e68a564cd57557f808fa49eb9c6b7fc]
class Proceedings--><rect codeLine="103" fill="#DDEEDD" filter="url(#f1a1y7ufst7xwm)" height="32" id="Proceedings" style="stroke:#A80036;stroke-width:1.5;" width="110" x="533.2375" y="754"/><ellipse cx="548.2375" cy="770" fill="#ADD1B2" rx="11" ry="11" style="stroke:#A80036;stroke-width:1.0;"/><path d="M551.2063,775.6406 Q550.6281,775.9375 549.9875,776.0781 Q549.3469,776.2344 548.6438,776.2344 Q546.1438,776.2344 544.8156,774.5938 Q543.5031,772.9375 543.5031,769.8125 Q543.5031,766.6875 544.8156,765.0313 Q546.1438,763.375 548.6438,763.375 Q549.3469,763.375 549.9875,763.5313 Q550.6438,763.6875 551.2063,763.9844 L551.2063,766.7031 Q550.5813,766.125 549.9875,765.8594 Q549.3938,765.5781 548.7688,765.5781 Q547.425,765.5781 546.7375,766.6563 Q546.05,767.7188 546.05,769.8125 Q546.05,771.9063 546.7375,772.9844 Q547.425,774.0469 548.7688,774.0469 Q549.3938,774.0469 549.9875,773.7813 Q550.5813,773.5 551.2063,772.9219 L551.2063,775.6406 Z " fill="#000000"/><text fill="#000000" font-family="sans-serif" font-size="12" lengthAdjust="spacing" textLength="78" x="562.2375" y="774.1543">Proceedings</text><!--MD5=[6187a6e1e3f43e4e2525b450325f9ab5]
class Journal_Article--><rect codeLine="135" fill="#DDEEDD" filter="url(#f1a1y7ufst7xwm)" height="65.6094" id="Journal_Article" style="stroke:#A80036;stroke-width:1.5;" width="120" x="502.2375" y="621"/><ellipse cx="517.2375" cy="637" fill="#ADD1B2" rx="11" ry="11" style="stroke:#A80036;stroke-width:1.0;"/><path d="M520.2063,642.6406 Q519.6281,642.9375 518.9875,643.0781 Q518.3469,643.2344 517.6438,643.2344 Q515.1438,643.2344 513.8156,641.5938 Q512.5031,639.9375 512.5031,636.8125 Q512.5031,633.6875 513.8156,632.0313 Q515.1438,630.375 517.6438,630.375 Q518.3469,630.375 518.9875,630.5313 Q519.6438,630.6875 520.2063,630.9844 L520.2063,633.7031 Q519.5813,633.125 518.9875,632.8594 Q518.3938,632.5781 517.7688,632.5781 Q516.425,632.5781 515.7375,633.6563 Q515.05,634.7188 515.05,636.8125 Q515.05,638.9063 515.7375,639.9844 Q516.425,641.0469 517.7688,641.0469 Q518.3938,641.0469 518.9875,640.7813 Q519.5813,640.5 520.2063,639.9219 L520.2063,642.6406 Z " fill="#000000"/><text fill="#000000" font-family="sans-serif" font-size="12" lengthAdjust="spacing" textLength="88" x="531.2375" y="641.1543">Journal_Article</text><line style="stroke:#A80036;stroke-width:1.5;" x1="503.2375" x2="621.2375" y1="653" y2="653"/><text fill="#000000" font-family="sans-serif" font-size="11" lengthAdjust="spacing" textLength="87" x="508.2375" y="667.2104">volume : String</text><text fill="#000000" font-family="sans-serif" font-size="11" lengthAdjust="spacing" textLength="90" x="508.2375" y="680.0151">number : String</text><!--MD5=[28ddd777bd557917eba20f21f3df9e73]
class Books_Series--><rect codeLine="79" fill="#DDEEDD" filter="url(#f1a1y7ufst7xwm)" height="32" id="Books_Series" style="stroke:#A80036;stroke-width:1.5;" width="115" x="217.7375" y="638"/><ellipse cx="232.7375" cy="654" fill="#ADD1B2" rx="11" ry="11" style="stroke:#A80036;stroke-width:1.0;"/><path d="M235.7063,659.6406 Q235.1281,659.9375 234.4875,660.0781 Q233.8469,660.2344 233.1438,660.2344 Q230.6438,660.2344 229.3156,658.5938 Q228.0031,656.9375 228.0031,653.8125 Q228.0031,650.6875 229.3156,649.0313 Q230.6438,647.375 233.1438,647.375 Q233.8469,647.375 234.4875,647.5313 Q235.1438,647.6875 235.7063,647.9844 L235.7063,650.7031 Q235.0813,650.125 234.4875,649.8594 Q233.8938,649.5781 233.2688,649.5781 Q231.925,649.5781 231.2375,650.6563 Q230.55,651.7188 230.55,653.8125 Q230.55,655.9063 231.2375,656.9844 Q231.925,658.0469 233.2688,658.0469 Q233.8938,658.0469 234.4875,657.7813 Q235.0813,657.5 235.7063,656.9219 L235.7063,659.6406 Z " fill="#000000"/><text fill="#000000" font-family="sans-serif" font-size="12" lengthAdjust="spacing" textLength="83" x="246.7375" y="658.1543">Books_Series</text><!--MD5=[84e3a5e42879fb3231104d3c8e592439]
class Book--><rect codeLine="86" fill="#DDEEDD" filter="url(#f1a1y7ufst7xwm)" height="65.6094" id="Book" style="stroke:#A80036;stroke-width:1.5;" width="85" x="381.7375" y="621"/><ellipse cx="406.6375" cy="637" fill="#ADD1B2" rx="11" ry="11" style="stroke:#A80036;stroke-width:1.0;"/><path d="M409.6063,642.6406 Q409.0281,642.9375 408.3875,643.0781 Q407.7469,643.2344 407.0438,643.2344 Q404.5438,643.2344 403.2156,641.5938 Q401.9031,639.9375 401.9031,636.8125 Q401.9031,633.6875 403.2156,632.0313 Q404.5438,630.375 407.0438,630.375 Q407.7469,630.375 408.3875,630.5313 Q409.0438,630.6875 409.6063,630.9844 L409.6063,633.7031 Q408.9813,633.125 408.3875,632.8594 Q407.7938,632.5781 407.1688,632.5781 Q405.825,632.5781 405.1375,633.6563 Q404.45,634.7188 404.45,636.8125 Q404.45,638.9063 405.1375,639.9844 Q405.825,641.0469 407.1688,641.0469 Q407.7938,641.0469 408.3875,640.7813 Q408.9813,640.5 409.6063,639.9219 L409.6063,642.6406 Z " fill="#000000"/><text fill="#000000" font-family="sans-serif" font-size="12" lengthAdjust="spacing" textLength="31" x="422.8375" y="641.1543">Book</text><line style="stroke:#A80036;stroke-width:1.5;" x1="382.7375" x2="465.7375" y1="653" y2="653"/><text fill="#000000" font-family="sans-serif" font-size="11" lengthAdjust="spacing" textLength="66" x="387.7375" y="667.2104">ISBN : ISBN</text><text fill="#000000" font-family="sans-serif" font-size="11" lengthAdjust="spacing" textLength="73" x="387.7375" y="680.0151">eISBN : ISBN</text><!--MD5=[1fdedf30c4d453a61b3bca926ec95b50]
class Monograph--><rect codeLine="93" fill="#DDEEDD" filter="url(#f1a1y7ufst7xwm)" height="32" id="Monograph" style="stroke:#A80036;stroke-width:1.5;" width="103" x="372.7375" y="754"/><ellipse cx="387.7375" cy="770" fill="#ADD1B2" rx="11" ry="11" style="stroke:#A80036;stroke-width:1.0;"/><path d="M390.7063,775.6406 Q390.1281,775.9375 389.4875,776.0781 Q388.8469,776.2344 388.1438,776.2344 Q385.6438,776.2344 384.3156,774.5938 Q383.0031,772.9375 383.0031,769.8125 Q383.0031,766.6875 384.3156,765.0313 Q385.6438,763.375 388.1438,763.375 Q388.8469,763.375 389.4875,763.5313 Q390.1438,763.6875 390.7063,763.9844 L390.7063,766.7031 Q390.0813,766.125 389.4875,765.8594 Q388.8938,765.5781 388.2688,765.5781 Q386.925,765.5781 386.2375,766.6563 Q385.55,767.7188 385.55,769.8125 Q385.55,771.9063 386.2375,772.9844 Q386.925,774.0469 388.2688,774.0469 Q388.8938,774.0469 389.4875,773.7813 Q390.0813,773.5 390.7063,772.9219 L390.7063,775.6406 Z " fill="#000000"/><text fill="#000000" font-family="sans-serif" font-size="12" lengthAdjust="spacing" textLength="71" x="401.7375" y="774.1543">Monograph</text><!--MD5=[ac13618b1a974308c1f12eb6c57723dc]
class Event--><rect fill="#FEFECE" filter="url(#f1a1y7ufst7xwm)" height="32" id="Event" style="stroke:#A80036;stroke-width:1.5;" width="67" x="554.7375" y="863"/><ellipse cx="569.7375" cy="879" fill="#ADD1B2" rx="11" ry="11" style="stroke:#A80036;stroke-width:1.0;"/><path d="M572.7063,884.6406 Q572.1281,884.9375 571.4875,885.0781 Q570.8469,885.2344 570.1438,885.2344 Q567.6438,885.2344 566.3156,883.5938 Q565.0031,881.9375 565.0031,878.8125 Q565.0031,875.6875 566.3156,874.0313 Q567.6438,872.375 570.1438,872.375 Q570.8469,872.375 571.4875,872.5313 Q572.1438,872.6875 572.7063,872.9844 L572.7063,875.7031 Q572.0813,875.125 571.4875,874.8594 Q570.8938,874.5781 570.2688,874.5781 Q568.925,874.5781 568.2375,875.6563 Q567.55,876.7188 567.55,878.8125 Q567.55,880.9063 568.2375,881.9844 Q568.925,883.0469 570.2688,883.0469 Q570.8938,883.0469 571.4875,882.7813 Q572.0813,882.5 572.7063,881.9219 L572.7063,884.6406 Z " fill="#000000"/><text fill="#000000" font-family="sans-serif" font-size="12" lengthAdjust="spacing" textLength="35" x="583.7375" y="883.1543">Event</text><!--MD5=[8d7c614e8203540f95956299e63d224a]
reverse link Contribution to Contribution_to_Document--><path codeLine="210" d="M361.2375,59.24 C361.2375,73.36 361.2375,88.88 361.2375,99.95 " fill="none" id="Contribution-backto-Contribution_to_Document" style="stroke:#A80036;stroke-width:1.0;"/><polygon fill="none" points="354.2375,59.03,361.2375,39.03,368.2375,59.03,354.2375,59.03" style="stroke:#A80036;stroke-width:1.0;"/><!--MD5=[117c8d017b65f89954aa553a8ad2cfe8]
link Contribution_to_Document to Document--><path codeLine="628" d="M361.2375,137.06 C361.2375,151.23 361.2375,170.64 361.2375,187.62 " fill="none" id="Contribution_to_Document-Document" style="stroke:#A80036;stroke-width:1.0;"/><polygon fill="#A80036" points="361.2375,192.81,365.2375,183.81,361.2375,187.81,357.2375,183.81,361.2375,192.81" style="stroke:#A80036;stroke-width:1.0;"/><polygon fill="#A80036" points="361.2375,132.02,357.2375,141.02,361.2375,137.02,365.2375,141.02,361.2375,132.02" style="stroke:#A80036;stroke-width:1.0;"/><text fill="#000000" font-family="sans-serif" font-size="13" lengthAdjust="spacing" textLength="208" x="117.4875" y="152.1947">0..* contributions &lt;&lt;ordered&gt;&gt;</text><text fill="#000000" font-family="sans-serif" font-size="13" lengthAdjust="spacing" textLength="8" x="352.45" y="181.9176">1</text><!--MD5=[3e969255208de71f7bfccf2b9540bd27]
link Document to Publication_Channel--><path codeLine="324" d="M306.5675,259.26 C295.8575,267.75 285.6575,277.74 278.2375,289 C270.0775,301.38 265.4175,316.91 262.7575,330.91 " fill="none" id="Document-to-Publication_Channel" style="stroke:#A80036;stroke-width:1.0;"/><polygon fill="#A80036" points="261.8675,336,267.3734,327.8339,262.7381,331.0764,259.4956,326.441,261.8675,336" style="stroke:#A80036;stroke-width:1.0;"/><polygon fill="#000000" points="280.6292,301.8322,287.855,295.6484,282.8403,292.5822,280.6292,301.8322" style="stroke:#000000;stroke-width:1.0;"/><text fill="#000000" font-family="sans-serif" font-size="13" lengthAdjust="spacing" textLength="137" x="292.2375" y="302.0669">published via channel</text><text fill="#000000" font-family="sans-serif" font-size="13" lengthAdjust="spacing" textLength="24" x="235.9349" y="324.7677">0..1</text><!--MD5=[a68abcec40f40f5cbbbda0c1525bfe1a]
reverse link Publication_Channel to Publication_Series--><path codeLine="64" d="M259.2375,422.51 C259.2375,440.34 259.2375,459.72 259.2375,475.46 " fill="none" id="Publication_Channel-backto-Publication_Series" style="stroke:#A80036;stroke-width:1.0;"/><polygon fill="none" points="252.2375,422.24,259.2375,402.24,266.2375,422.24,252.2375,422.24" style="stroke:#A80036;stroke-width:1.0;"/><!--MD5=[82e06a9ab4eb01586ad4d1c674f71186]
reverse link Publication_Series to Journal--><path codeLine="74" d="M211.9975,555.94 C192.6375,574.96 170.5075,596.71 152.1075,614.79 " fill="none" id="Publication_Series-backto-Journal" style="stroke:#A80036;stroke-width:1.0;"/><polygon fill="none" points="207.2975,550.73,226.4675,541.7,217.1175,560.72,207.2975,550.73" style="stroke:#A80036;stroke-width:1.0;"/><!--MD5=[88f40439064ff4845bc7e4cfd1a224e6]
reverse link Journal to Journal--><path codeLine="197" d="M177.9175,641.79 C190.6675,643.19 199.7375,647.26 199.7375,654 C199.7375,662.9 183.9375,667.14 164.7475,666.72 " fill="none" id="Journal-backto-Journal" style="stroke:#A80036;stroke-width:1.0;"/><polygon fill="#FFFFFF" points="164.7475,641.28,170.5892,645.5079,176.7386,641.7417,170.897,637.5138,164.7475,641.28" style="stroke:#A80036;stroke-width:1.0;"/><text fill="#000000" font-family="sans-serif" font-size="13" lengthAdjust="spacing" textLength="113" x="151.3777" y="690.3259">0..* predecessors</text><!--MD5=[a0fe4bcc2e634d581797c23ae087e232]
reverse link Journal to Agent--><path codeLine="200" d="M113.2375,706.5 C113.2375,723.7 113.2375,741.57 113.2375,753.77 " fill="none" id="Journal-backto-Agent" style="stroke:#A80036;stroke-width:1.0;"/><polygon fill="#FFFFFF" points="113.2375,693.28,109.2375,699.28,113.2375,705.28,117.2375,699.28,113.2375,693.28" style="stroke:#A80036;stroke-width:1.0;"/><text fill="#000000" font-family="sans-serif" font-size="13" lengthAdjust="spacing" textLength="92" x="6" y="742.9983">0..* publishers</text><!--MD5=[c8d1862492c5b5e25951e586acc2f1e2]
reverse link Document to Scholarly_Publication--><path codeLine="10" d="M421.2575,273.33 C425.9775,278.32 430.3975,283.57 434.2375,289 C448.2875,308.89 456.7275,336.21 460.9275,352.95 " fill="none" id="Document-backto-Scholarly_Publication" style="stroke:#A80036;stroke-width:1.0;"/><polygon fill="none" points="416.0875,278.07,406.4275,259.21,425.7375,267.93,416.0875,278.07" style="stroke:#A80036;stroke-width:1.0;"/><!--MD5=[ff21ff78bda4a9da792f658c602cf652]
reverse link Scholarly_Publication to Article--><path codeLine="121" d="M496.0075,398.93 C516.3475,417.45 543.1475,441.85 566.1875,462.83 " fill="none" id="Scholarly_Publication-backto-Article" style="stroke:#A80036;stroke-width:1.0;"/><polygon fill="none" points="491.0475,403.88,480.9775,385.24,500.4775,393.53,491.0475,403.88" style="stroke:#A80036;stroke-width:1.0;"/><!--MD5=[e08cfb285a4e8ed248d07b84efca5d5e]
reverse link Article to Book_Chapter--><path codeLine="126" d="M713.9275,559.02 C769.0475,586.67 833.9075,619.22 871.0375,637.84 " fill="none" id="Article-backto-Book_Chapter" style="stroke:#A80036;stroke-width:1.0;"/><polygon fill="none" points="710.7875,565.27,696.0475,550.05,717.0575,552.76,710.7875,565.27" style="stroke:#A80036;stroke-width:1.0;"/><!--MD5=[4bfdd489591558c229d1f994615a69ce]
reverse link Book_Chapter to Book_of_Chapters--><path codeLine="127" d="M872.3875,678.5 C844.6575,701.07 803.5775,734.52 779.9075,753.8 " fill="none" id="Book_Chapter-backto-Book_of_Chapters" style="stroke:#A80036;stroke-width:1.0;"/><polygon fill="#A80036" points="882.6475,670.14,875.4687,670.8214,873.3366,677.7101,880.5154,677.0287,882.6475,670.14" style="stroke:#A80036;stroke-width:1.0;"/><text fill="#000000" font-family="sans-serif" font-size="13" lengthAdjust="spacing" textLength="8" x="776.7669" y="743.0383">1</text><!--MD5=[90d211e9335c6fbad58e70470042855a]
reverse link Article to Conference_Article--><path codeLine="132" d="M664.3375,569.72 C684.7075,594.71 706.6475,621.61 719.9075,637.88 " fill="none" id="Article-backto-Conference_Article" style="stroke:#A80036;stroke-width:1.0;"/><polygon fill="none" points="658.8275,574.04,651.6175,554.12,669.6775,565.2,658.8275,574.04" style="stroke:#A80036;stroke-width:1.0;"/><!--MD5=[eac7307ca628de9ca37b2f322f7426aa]
reverse link Conference_Article to Proceedings--><path codeLine="133" d="M702.5575,678.5 C674.0375,701.07 631.7875,734.52 607.4375,753.8 " fill="none" id="Conference_Article-backto-Proceedings" style="stroke:#A80036;stroke-width:1.0;"/><polygon fill="#A80036" points="713.1175,670.14,705.9307,670.7314,703.7124,677.5928,710.8992,677.0014,713.1175,670.14" style="stroke:#A80036;stroke-width:1.0;"/><text fill="#000000" font-family="sans-serif" font-size="13" lengthAdjust="spacing" textLength="24" x="585.8225" y="743.0383">0..1</text><!--MD5=[f7e3c478638caf5f09f8f1ad52009cc0]
reverse link Article to Journal_Article--><path codeLine="140" d="M591.7875,573 C585.6875,589.5 579.3775,606.59 574.1575,620.71 " fill="none" id="Article-backto-Journal_Article" style="stroke:#A80036;stroke-width:1.0;"/><polygon fill="none" points="585.2675,570.45,598.7575,554.12,598.3975,575.3,585.2675,570.45" style="stroke:#A80036;stroke-width:1.0;"/><!--MD5=[627e83909374e01cbfbf39a0b3a2ccc9]
reverse link Publication_Series to Books_Series--><path codeLine="82" d="M265.0575,561.7 C268.0575,588.65 271.5075,619.58 273.5275,637.64 " fill="none" id="Publication_Series-backto-Books_Series" style="stroke:#A80036;stroke-width:1.0;"/><polygon fill="none" points="258.0875,562.36,262.8275,541.7,271.9975,560.81,258.0875,562.36" style="stroke:#A80036;stroke-width:1.0;"/><!--MD5=[920dbc02ad6ee35fbd11578537595a2c]
reverse link Scholarly_Publication to Book--><path codeLine="91" d="M459.2575,405.23 C451.4275,460.65 436.3375,567.4 428.7775,620.85 " fill="none" id="Scholarly_Publication-backto-Book" style="stroke:#A80036;stroke-width:1.0;"/><polygon fill="none" points="452.3575,404.04,462.0875,385.22,466.2175,406,452.3575,404.04" style="stroke:#A80036;stroke-width:1.0;"/><!--MD5=[d52e6561338e80eedd2b03ae48a4f63f]
reverse link Book to Monograph--><path codeLine="96" d="M424.2375,707.13 C424.2375,724.17 424.2375,741.79 424.2375,753.85 " fill="none" id="Book-backto-Monograph" style="stroke:#A80036;stroke-width:1.0;"/><polygon fill="none" points="417.2375,707.06,424.2375,687.06,431.2375,707.06,417.2375,707.06" style="stroke:#A80036;stroke-width:1.0;"/><!--MD5=[be5acf856e3b1436226f6f610e2e3ad1]
reverse link Book to Book_of_Chapters--><path codeLine="101" d="M484.9575,692.88 C485.0475,692.92 485.1475,692.96 485.2375,693 C551.6975,722.12 632.1275,742.74 688.9675,755.09 " fill="none" id="Book-backto-Book_of_Chapters" style="stroke:#A80036;stroke-width:1.0;"/><polygon fill="none" points="481.7075,699.08,467.0475,683.78,488.0475,686.6,481.7075,699.08" style="stroke:#A80036;stroke-width:1.0;"/><!--MD5=[c22689e717faa2fabf905c5f2e38b0df]
reverse link Book to Proceedings--><path codeLine="106" d="M483.7175,696.35 C512.5175,716.36 545.3275,739.17 566.3875,753.81 " fill="none" id="Book-backto-Proceedings" style="stroke:#A80036;stroke-width:1.0;"/><polygon fill="none" points="479.3275,701.82,466.8975,684.65,487.3175,690.32,479.3275,701.82" style="stroke:#A80036;stroke-width:1.0;"/><!--MD5=[e6ee1708b4a1f668cbe1fab1cc8318e7]
reverse link Proceedings to Event--><path codeLine="108" d="M588.2375,799.48 C588.2375,819.77 588.2375,846.26 588.2375,862.7 " fill="none" id="Proceedings-backto-Event" style="stroke:#A80036;stroke-width:1.0;"/><polygon fill="#A80036" points="588.2375,786.33,584.2375,792.33,588.2375,798.33,592.2375,792.33,588.2375,786.33" style="stroke:#A80036;stroke-width:1.0;"/><polygon fill="#000000" points="593.2375,829.5664,596.1764,820.5213,590.2986,820.5213,593.2375,829.5664" style="stroke:#000000;stroke-width:1.0;"/><text fill="#000000" font-family="sans-serif" font-size="13" lengthAdjust="spacing" textLength="36" x="602.2375" y="829.0669">event</text><text fill="#000000" font-family="sans-serif" font-size="13" lengthAdjust="spacing" textLength="24" x="560.2625" y="851.9051">0..1</text><!--MD5=[4e457c203e10a9797eea43ee562a2450]
@startuml

    !includesub ../../CERIF-Core/diagrams/core.puml!common
    !includesub ../../CERIF-Core/diagrams/core.puml!Contribution_to_Document
    !includesub ../../CERIF-Core/diagrams/core.puml!Document
    !includesub ../../CERIF-Core/diagrams/core.puml!Publication_Channel

    !includesub ./module.puml!Publication_Series
    !includesub ./module.puml!Journal
    !includesub ./module.puml!Scholarly_Publication
    !includesub ./module.puml!Article
    !includesub ./module.puml!Books_Series
    !includesub ./module.puml!Book


@enduml

@startuml

    hide empty members
    skinparam BoxPadding 120
    class "Contribution_to_Document" #ffffff {
    }
    "Contribution" <|-d- "Contribution_to_Document"
    "Contribution_to_Document" "0..* contributions <<ordered>>" <- -> "1" "Document"
    class "Document" #ffffff {
        title : Multilingual_String
        publicationDate : Date
    }
    class "Publication_Channel" #ffffff {
        title : Multilingual_String
        acronym : Multilingual_String
    }

    "Document" - -> "0..1" "Publication_Channel" : published via channel >


        class "Publication_Series" #ddeedd {
            ISSN : ISSN
            eISSN : ISSN
        }

        "Publication_Channel" <|- - "Publication_Series"
        class "Journal" #ddeedd {
            DOI : DOI
            startDate : Date
            endDate : Date
        }

        "Publication_Series" <|- - "Journal"

        "Journal" o- - "0..* predecessors" "Journal"
        "Journal" o- -  "0..* publishers" "Agent"
        class "Scholarly_Publication" #ddeedd {
        }
        "Document" <|- - "Scholarly_Publication"
            class "Article" #ddeedd {
                startPage : String
                endPage : String
                numberOfPages : Decimal
                articleNumber : String
            }

            "Scholarly_Publication" <|- - "Article"

            class "Book_Chapter" #ddeedd {
            }

            "Article" <|- - "Book_Chapter"
            "Book_Chapter" *- - "1" "Book_of_Chapters"

            class "Conference_Article" #ddeedd {
            }

            "Article" <|- - "Conference_Article"
            "Conference_Article" *- - "0..1" "Proceedings"

             class "Journal_Article" #ddeedd {
                volume : String
                number : String
             }

             "Article" <|- - "Journal_Article"
        class "Books_Series" #ddeedd {
        }

        "Publication_Series" <|- - "Books_Series"
        class "Book" #ddeedd {
            ISBN : ISBN
            eISBN : ISBN
        }

        "Scholarly_Publication" <|- - "Book"

        class "Monograph" #ddeedd {
        }

        "Book" <|- - "Monograph"

        class "Book_of_Chapters" #ddeedd {
        }

        "Book" <|- - "Book_of_Chapters"

        class "Proceedings" #ddeedd {
        }

        "Book" <|- - "Proceedings"

        "Proceedings" *- - "0..1" "Event" : event >




@enduml

PlantUML version 1.2021.8(Sat Jun 26 08:20:59 UTC 2021)
(GPL source distribution)
Java Runtime: OpenJDK Runtime Environment
JVM: OpenJDK 64-Bit Server VM
Default Encoding: UTF-8
Language: en
Country: null
--></g></svg>