<?xml version="1.0" encoding="UTF-8" standalone="no"?><svg xmlns="http://www.w3.org/2000/svg" xmlns:xlink="http://www.w3.org/1999/xlink" contentScriptType="application/ecmascript" contentStyleType="text/css" height="1122px" preserveAspectRatio="none" style="width:1686px;height:1122px;background:#FFFFFF;" version="1.1" viewBox="0 0 1686 1122" width="1686px" zoomAndPan="magnify"><defs><filter height="300%" id="fjt0x9gcp1duh" width="300%" x="-1" y="-1"><feGaussianBlur result="blurOut" stdDeviation="2.0"/><feColorMatrix in="blurOut" result="blurOut2" type="matrix" values="0 0 0 0 0 0 0 0 0 0 0 0 0 0 0 0 0 0 .4 0"/><feOffset dx="4.0" dy="4.0" in="blurOut2" result="blurOut3"/><feBlend in="SourceGraphic" in2="blurOut3" mode="normal"/></filter></defs><g><!--MD5=[05151c161079be2c12996cf31a3c6866]
class Contribution_to_Document--><rect codeLine="205" fill="#FFFFFF" filter="url(#fjt0x9gcp1duh)" height="32" id="Contribution_to_Document" style="stroke:#A80036;stroke-width:1.5;" width="198" x="561.5" y="169"/><ellipse cx="576.5" cy="185" fill="#ADD1B2" rx="11" ry="11" style="stroke:#A80036;stroke-width:1.0;"/><path d="M579.4688,190.6406 Q578.8906,190.9375 578.25,191.0781 Q577.6094,191.2344 576.9063,191.2344 Q574.4063,191.2344 573.0781,189.5938 Q571.7656,187.9375 571.7656,184.8125 Q571.7656,181.6875 573.0781,180.0313 Q574.4063,178.375 576.9063,178.375 Q577.6094,178.375 578.25,178.5313 Q578.9063,178.6875 579.4688,178.9844 L579.4688,181.7031 Q578.8438,181.125 578.25,180.8594 Q577.6563,180.5781 577.0313,180.5781 Q575.6875,180.5781 575,181.6563 Q574.3125,182.7188 574.3125,184.8125 Q574.3125,186.9063 575,187.9844 Q575.6875,189.0469 577.0313,189.0469 Q577.6563,189.0469 578.25,188.7813 Q578.8438,188.5 579.4688,187.9219 L579.4688,190.6406 Z " fill="#000000"/><text fill="#000000" font-family="sans-serif" font-size="12" lengthAdjust="spacing" textLength="166" x="590.5" y="189.1543">Contribution_to_Document</text><!--MD5=[0330879a1a385efee19ba3488ed490fa]
class Contribution--><rect fill="#FEFECE" filter="url(#fjt0x9gcp1duh)" height="32" id="Contribution" style="stroke:#A80036;stroke-width:1.5;" width="109" x="606" y="30"/><ellipse cx="621" cy="46" fill="#ADD1B2" rx="11" ry="11" style="stroke:#A80036;stroke-width:1.0;"/><path d="M623.9688,51.6406 Q623.3906,51.9375 622.75,52.0781 Q622.1094,52.2344 621.4063,52.2344 Q618.9063,52.2344 617.5781,50.5938 Q616.2656,48.9375 616.2656,45.8125 Q616.2656,42.6875 617.5781,41.0313 Q618.9063,39.375 621.4063,39.375 Q622.1094,39.375 622.75,39.5313 Q623.4063,39.6875 623.9688,39.9844 L623.9688,42.7031 Q623.3438,42.125 622.75,41.8594 Q622.1563,41.5781 621.5313,41.5781 Q620.1875,41.5781 619.5,42.6563 Q618.8125,43.7188 618.8125,45.8125 Q618.8125,47.9063 619.5,48.9844 Q620.1875,50.0469 621.5313,50.0469 Q622.1563,50.0469 622.75,49.7813 Q623.3438,49.5 623.9688,48.9219 L623.9688,51.6406 Z " fill="#000000"/><text fill="#000000" font-family="sans-serif" font-size="12" lengthAdjust="spacing" textLength="77" x="635" y="50.1543">Contribution</text><!--MD5=[59b530d44ae785dc18db921986a9c15c]
class Document--><rect codeLine="312" fill="#FFFFFF" filter="url(#fjt0x9gcp1duh)" height="65.6094" id="Document" style="stroke:#A80036;stroke-width:1.5;" width="148" x="672.5" y="301"/><ellipse cx="710.9" cy="317" fill="#ADD1B2" rx="11" ry="11" style="stroke:#A80036;stroke-width:1.0;"/><path d="M713.8688,322.6406 Q713.2906,322.9375 712.65,323.0781 Q712.0094,323.2344 711.3063,323.2344 Q708.8063,323.2344 707.4781,321.5938 Q706.1656,319.9375 706.1656,316.8125 Q706.1656,313.6875 707.4781,312.0313 Q708.8063,310.375 711.3063,310.375 Q712.0094,310.375 712.65,310.5313 Q713.3063,310.6875 713.8688,310.9844 L713.8688,313.7031 Q713.2438,313.125 712.65,312.8594 Q712.0563,312.5781 711.4313,312.5781 Q710.0875,312.5781 709.4,313.6563 Q708.7125,314.7188 708.7125,316.8125 Q708.7125,318.9063 709.4,319.9844 Q710.0875,321.0469 711.4313,321.0469 Q712.0563,321.0469 712.65,320.7813 Q713.2438,320.5 713.8688,319.9219 L713.8688,322.6406 Z " fill="#000000"/><text fill="#000000" font-family="sans-serif" font-size="12" lengthAdjust="spacing" textLength="64" x="730.1" y="321.1543">Document</text><line style="stroke:#A80036;stroke-width:1.5;" x1="673.5" x2="819.5" y1="333" y2="333"/><text fill="#000000" font-family="sans-serif" font-size="11" lengthAdjust="spacing" textLength="136" x="678.5" y="347.2104">title : Multilingual_String</text><text fill="#000000" font-family="sans-serif" font-size="11" lengthAdjust="spacing" textLength="125" x="678.5" y="360.0151">publicationDate : Date</text><!--MD5=[bcc382d868f32e5ce25faf6e44aed96d]
class Publication_Channel--><rect codeLine="324" fill="#FFFFFF" filter="url(#fjt0x9gcp1duh)" height="65.6094" id="Publication_Channel" style="stroke:#A80036;stroke-width:1.5;" width="176" x="204.5" y="651"/><ellipse cx="227.6" cy="667" fill="#ADD1B2" rx="11" ry="11" style="stroke:#A80036;stroke-width:1.0;"/><path d="M230.5688,672.6406 Q229.9906,672.9375 229.35,673.0781 Q228.7094,673.2344 228.0063,673.2344 Q225.5063,673.2344 224.1781,671.5938 Q222.8656,669.9375 222.8656,666.8125 Q222.8656,663.6875 224.1781,662.0313 Q225.5063,660.375 228.0063,660.375 Q228.7094,660.375 229.35,660.5313 Q230.0063,660.6875 230.5688,660.9844 L230.5688,663.7031 Q229.9438,663.125 229.35,662.8594 Q228.7563,662.5781 228.1313,662.5781 Q226.7875,662.5781 226.1,663.6563 Q225.4125,664.7188 225.4125,666.8125 Q225.4125,668.9063 226.1,669.9844 Q226.7875,671.0469 228.1313,671.0469 Q228.7563,671.0469 229.35,670.7813 Q229.9438,670.5 230.5688,669.9219 L230.5688,672.6406 Z " fill="#000000"/><text fill="#000000" font-family="sans-serif" font-size="12" lengthAdjust="spacing" textLength="126" x="243.4" y="671.1543">Publication_Channel</text><line style="stroke:#A80036;stroke-width:1.5;" x1="205.5" x2="379.5" y1="683" y2="683"/><text fill="#000000" font-family="sans-serif" font-size="11" lengthAdjust="spacing" textLength="136" x="210.5" y="697.2104">title : Multilingual_String</text><text fill="#000000" font-family="sans-serif" font-size="11" lengthAdjust="spacing" textLength="164" x="210.5" y="710.0151">acronym : Multilingual_String</text><!--MD5=[3c081c04a295355c2a2d4b68ff992080]
class Document_Publication_Channel--><rect codeLine="331" fill="#FFFFFF" filter="url(#fjt0x9gcp1duh)" height="129.6328" id="Document_Publication_Channel" style="stroke:#A80036;stroke-width:1.5;" width="228" x="259.5" y="444"/><ellipse cx="274.5" cy="460" fill="#ADD1B2" rx="11" ry="11" style="stroke:#A80036;stroke-width:1.0;"/><path d="M277.4688,465.6406 Q276.8906,465.9375 276.25,466.0781 Q275.6094,466.2344 274.9063,466.2344 Q272.4063,466.2344 271.0781,464.5938 Q269.7656,462.9375 269.7656,459.8125 Q269.7656,456.6875 271.0781,455.0313 Q272.4063,453.375 274.9063,453.375 Q275.6094,453.375 276.25,453.5313 Q276.9063,453.6875 277.4688,453.9844 L277.4688,456.7031 Q276.8438,456.125 276.25,455.8594 Q275.6563,455.5781 275.0313,455.5781 Q273.6875,455.5781 273,456.6563 Q272.3125,457.7188 272.3125,459.8125 Q272.3125,461.9063 273,462.9844 Q273.6875,464.0469 275.0313,464.0469 Q275.6563,464.0469 276.25,463.7813 Q276.8438,463.5 277.4688,462.9219 L277.4688,465.6406 Z " fill="#000000"/><text fill="#000000" font-family="sans-serif" font-size="12" lengthAdjust="spacing" textLength="196" x="288.5" y="464.1543">Document_Publication_Channel</text><line style="stroke:#A80036;stroke-width:1.5;" x1="260.5" x2="486.5" y1="476" y2="476"/><text fill="#000000" font-family="sans-serif" font-size="11" lengthAdjust="spacing" textLength="101" x="265.5" y="490.2104">startPage : String</text><text fill="#000000" font-family="sans-serif" font-size="11" lengthAdjust="spacing" textLength="95" x="265.5" y="503.0151">endPage : String</text><text fill="#000000" font-family="sans-serif" font-size="11" lengthAdjust="spacing" textLength="126" x="265.5" y="515.8198">articleNumber : String</text><text fill="#000000" font-family="sans-serif" font-size="11" lengthAdjust="spacing" textLength="87" x="265.5" y="528.6245">volume : String</text><text fill="#000000" font-family="sans-serif" font-size="11" lengthAdjust="spacing" textLength="90" x="265.5" y="541.4292">number : String</text><text fill="#000000" font-family="sans-serif" font-size="11" lengthAdjust="spacing" textLength="103" x="265.5" y="554.2339">startFrame : Time</text><text fill="#000000" font-family="sans-serif" font-size="11" lengthAdjust="spacing" textLength="97" x="265.5" y="567.0386">endFrame : Time</text><!--MD5=[c05f8d4c5007184b0fb1ea93cdb8d9fe]
class Repository--><rect codeLine="343" fill="#FFFFFF" filter="url(#fjt0x9gcp1duh)" height="32" id="Repository" style="stroke:#A80036;stroke-width:1.5;" width="98" x="73.5" y="811"/><ellipse cx="88.5" cy="827" fill="#ADD1B2" rx="11" ry="11" style="stroke:#A80036;stroke-width:1.0;"/><path d="M91.4688,832.6406 Q90.8906,832.9375 90.25,833.0781 Q89.6094,833.2344 88.9063,833.2344 Q86.4063,833.2344 85.0781,831.5938 Q83.7656,829.9375 83.7656,826.8125 Q83.7656,823.6875 85.0781,822.0313 Q86.4063,820.375 88.9063,820.375 Q89.6094,820.375 90.25,820.5313 Q90.9063,820.6875 91.4688,820.9844 L91.4688,823.7031 Q90.8438,823.125 90.25,822.8594 Q89.6563,822.5781 89.0313,822.5781 Q87.6875,822.5781 87,823.6563 Q86.3125,824.7188 86.3125,826.8125 Q86.3125,828.9063 87,829.9844 Q87.6875,831.0469 89.0313,831.0469 Q89.6563,831.0469 90.25,830.7813 Q90.8438,830.5 91.4688,829.9219 L91.4688,832.6406 Z " fill="#000000"/><text fill="#000000" font-family="sans-serif" font-size="12" lengthAdjust="spacing" textLength="66" x="102.5" y="831.1543">Repository</text><!--MD5=[b8117d633c9720af740746592f168adb]
class Infrastructure--><rect fill="#FEFECE" filter="url(#fjt0x9gcp1duh)" height="32" id="Infrastructure" style="stroke:#A80036;stroke-width:1.5;" width="118" x="51.5" y="668"/><ellipse cx="66.5" cy="684" fill="#ADD1B2" rx="11" ry="11" style="stroke:#A80036;stroke-width:1.0;"/><path d="M69.4688,689.6406 Q68.8906,689.9375 68.25,690.0781 Q67.6094,690.2344 66.9063,690.2344 Q64.4063,690.2344 63.0781,688.5938 Q61.7656,686.9375 61.7656,683.8125 Q61.7656,680.6875 63.0781,679.0313 Q64.4063,677.375 66.9063,677.375 Q67.6094,677.375 68.25,677.5313 Q68.9063,677.6875 69.4688,677.9844 L69.4688,680.7031 Q68.8438,680.125 68.25,679.8594 Q67.6563,679.5781 67.0313,679.5781 Q65.6875,679.5781 65,680.6563 Q64.3125,681.7188 64.3125,683.8125 Q64.3125,685.9063 65,686.9844 Q65.6875,688.0469 67.0313,688.0469 Q67.6563,688.0469 68.25,687.7813 Q68.8438,687.5 69.4688,686.9219 L69.4688,689.6406 Z " fill="#000000"/><text fill="#000000" font-family="sans-serif" font-size="12" lengthAdjust="spacing" textLength="86" x="80.5" y="688.1543">Infrastructure</text><!--MD5=[02a8746eb15ecbb4566dafa16ea4db73]
class Text--><rect codeLine="875" fill="#FFFFFF" filter="url(#fjt0x9gcp1duh)" height="78.4141" id="Text" style="stroke:#A80036;stroke-width:1.5;" width="189" x="7" y="7"/><ellipse cx="84.25" cy="23" fill="#ADD1B2" rx="11" ry="11" style="stroke:#A80036;stroke-width:1.0;"/><path d="M87.2188,28.6406 Q86.6406,28.9375 86,29.0781 Q85.3594,29.2344 84.6563,29.2344 Q82.1563,29.2344 80.8281,27.5938 Q79.5156,25.9375 79.5156,22.8125 Q79.5156,19.6875 80.8281,18.0313 Q82.1563,16.375 84.6563,16.375 Q85.3594,16.375 86,16.5313 Q86.6563,16.6875 87.2188,16.9844 L87.2188,19.7031 Q86.5938,19.125 86,18.8594 Q85.4063,18.5781 84.7813,18.5781 Q83.4375,18.5781 82.75,19.6563 Q82.0625,20.7188 82.0625,22.8125 Q82.0625,24.9063 82.75,25.9844 Q83.4375,27.0469 84.7813,27.0469 Q85.4063,27.0469 86,26.7813 Q86.5938,26.5 87.2188,25.9219 L87.2188,28.6406 Z " fill="#000000"/><text fill="#000000" font-family="sans-serif" font-size="12" lengthAdjust="spacing" textLength="26" x="104.75" y="27.1543">Text</text><line style="stroke:#A80036;stroke-width:1.5;" x1="8" x2="195" y1="39" y2="39"/><text fill="#000000" font-family="sans-serif" font-size="11" lengthAdjust="spacing" textLength="149" x="13" y="53.2104">numberOfPages : Decimal</text><text fill="#000000" font-family="sans-serif" font-size="11" lengthAdjust="spacing" textLength="149" x="13" y="66.0151">numberOfWords : Decimal</text><text fill="#000000" font-family="sans-serif" font-size="11" lengthAdjust="spacing" textLength="177" x="13" y="78.8198">numberOfCharacters : Decimal</text><!--MD5=[166247bf81aba95c770c3b8fd8e3cb19]
class Video--><rect codeLine="881" fill="#FFFFFF" filter="url(#fjt0x9gcp1duh)" height="52.8047" id="Video" style="stroke:#A80036;stroke-width:1.5;" width="148" x="231.5" y="19.5"/><ellipse cx="283.75" cy="35.5" fill="#ADD1B2" rx="11" ry="11" style="stroke:#A80036;stroke-width:1.0;"/><path d="M286.7188,41.1406 Q286.1406,41.4375 285.5,41.5781 Q284.8594,41.7344 284.1563,41.7344 Q281.6563,41.7344 280.3281,40.0938 Q279.0156,38.4375 279.0156,35.3125 Q279.0156,32.1875 280.3281,30.5313 Q281.6563,28.875 284.1563,28.875 Q284.8594,28.875 285.5,29.0313 Q286.1563,29.1875 286.7188,29.4844 L286.7188,32.2031 Q286.0938,31.625 285.5,31.3594 Q284.9063,31.0781 284.2813,31.0781 Q282.9375,31.0781 282.25,32.1563 Q281.5625,33.2188 281.5625,35.3125 Q281.5625,37.4063 282.25,38.4844 Q282.9375,39.5469 284.2813,39.5469 Q284.9063,39.5469 285.5,39.2813 Q286.0938,39 286.7188,38.4219 L286.7188,41.1406 Z " fill="#000000"/><text fill="#000000" font-family="sans-serif" font-size="12" lengthAdjust="spacing" textLength="35" x="304.25" y="39.6543">Video</text><line style="stroke:#A80036;stroke-width:1.5;" x1="232.5" x2="378.5" y1="51.5" y2="51.5"/><text fill="#000000" font-family="sans-serif" font-size="11" lengthAdjust="spacing" textLength="136" x="237.5" y="65.7104">duration : Time_Amount</text><!--MD5=[4e8cc7bbb60dc5d148cf8b942067baf3]
class Audio--><rect codeLine="885" fill="#FFFFFF" filter="url(#fjt0x9gcp1duh)" height="52.8047" id="Audio" style="stroke:#A80036;stroke-width:1.5;" width="148" x="414.5" y="19.5"/><ellipse cx="466.75" cy="35.5" fill="#ADD1B2" rx="11" ry="11" style="stroke:#A80036;stroke-width:1.0;"/><path d="M469.7188,41.1406 Q469.1406,41.4375 468.5,41.5781 Q467.8594,41.7344 467.1563,41.7344 Q464.6563,41.7344 463.3281,40.0938 Q462.0156,38.4375 462.0156,35.3125 Q462.0156,32.1875 463.3281,30.5313 Q464.6563,28.875 467.1563,28.875 Q467.8594,28.875 468.5,29.0313 Q469.1563,29.1875 469.7188,29.4844 L469.7188,32.2031 Q469.0938,31.625 468.5,31.3594 Q467.9063,31.0781 467.2813,31.0781 Q465.9375,31.0781 465.25,32.1563 Q464.5625,33.2188 464.5625,35.3125 Q464.5625,37.4063 465.25,38.4844 Q465.9375,39.5469 467.2813,39.5469 Q467.9063,39.5469 468.5,39.2813 Q469.0938,39 469.7188,38.4219 L469.7188,41.1406 Z " fill="#000000"/><text fill="#000000" font-family="sans-serif" font-size="12" lengthAdjust="spacing" textLength="35" x="487.25" y="39.6543">Audio</text><line style="stroke:#A80036;stroke-width:1.5;" x1="415.5" x2="561.5" y1="51.5" y2="51.5"/><text fill="#000000" font-family="sans-serif" font-size="11" lengthAdjust="spacing" textLength="136" x="420.5" y="65.7104">duration : Time_Amount</text><!--MD5=[53d190a9e365feebc6683fe55b6a968f]
class Tangible--><rect codeLine="889" fill="#FFFFFF" filter="url(#fjt0x9gcp1duh)" height="32" id="Tangible" style="stroke:#A80036;stroke-width:1.5;" width="85" x="59" y="169"/><ellipse cx="74" cy="185" fill="#ADD1B2" rx="11" ry="11" style="stroke:#A80036;stroke-width:1.0;"/><path d="M76.9688,190.6406 Q76.3906,190.9375 75.75,191.0781 Q75.1094,191.2344 74.4063,191.2344 Q71.9063,191.2344 70.5781,189.5938 Q69.2656,187.9375 69.2656,184.8125 Q69.2656,181.6875 70.5781,180.0313 Q71.9063,178.375 74.4063,178.375 Q75.1094,178.375 75.75,178.5313 Q76.4063,178.6875 76.9688,178.9844 L76.9688,181.7031 Q76.3438,181.125 75.75,180.8594 Q75.1563,180.5781 74.5313,180.5781 Q73.1875,180.5781 72.5,181.6563 Q71.8125,182.7188 71.8125,184.8125 Q71.8125,186.9063 72.5,187.9844 Q73.1875,189.0469 74.5313,189.0469 Q75.1563,189.0469 75.75,188.7813 Q76.3438,188.5 76.9688,187.9219 L76.9688,190.6406 Z " fill="#000000"/><text fill="#000000" font-family="sans-serif" font-size="12" lengthAdjust="spacing" textLength="53" x="88" y="189.1543">Tangible</text><!--MD5=[183058691786cc4e047f85b91b54d3dd]
class Downloadable--><rect codeLine="892" fill="#FFFFFF" filter="url(#fjt0x9gcp1duh)" height="78.4141" id="Downloadable" style="stroke:#A80036;stroke-width:1.5;" width="196" x="179.5" y="146"/><ellipse cx="229.25" cy="162" fill="#ADD1B2" rx="11" ry="11" style="stroke:#A80036;stroke-width:1.0;"/><path d="M232.2188,167.6406 Q231.6406,167.9375 231,168.0781 Q230.3594,168.2344 229.6563,168.2344 Q227.1563,168.2344 225.8281,166.5938 Q224.5156,164.9375 224.5156,161.8125 Q224.5156,158.6875 225.8281,157.0313 Q227.1563,155.375 229.6563,155.375 Q230.3594,155.375 231,155.5313 Q231.6563,155.6875 232.2188,155.9844 L232.2188,158.7031 Q231.5938,158.125 231,157.8594 Q230.4063,157.5781 229.7813,157.5781 Q228.4375,157.5781 227.75,158.6563 Q227.0625,159.7188 227.0625,161.8125 Q227.0625,163.9063 227.75,164.9844 Q228.4375,166.0469 229.7813,166.0469 Q230.4063,166.0469 231,165.7813 Q231.5938,165.5 232.2188,164.9219 L232.2188,167.6406 Z " fill="#000000"/><text fill="#000000" font-family="sans-serif" font-size="12" lengthAdjust="spacing" textLength="88" x="249.75" y="166.1543">Downloadable</text><line style="stroke:#A80036;stroke-width:1.5;" x1="180.5" x2="374.5" y1="178" y2="178"/><text fill="#000000" font-family="sans-serif" font-size="11" lengthAdjust="spacing" textLength="184" x="185.5" y="192.2104">downloadURL : Website_Address</text><text fill="#000000" font-family="sans-serif" font-size="11" lengthAdjust="spacing" textLength="117" x="185.5" y="205.0151">mimeType    : String</text><text fill="#000000" font-family="sans-serif" font-size="11" lengthAdjust="spacing" textLength="107" x="185.5" y="217.8198">size        : Decimal</text><!--MD5=[93df74339f6011487b99082d13486802]
class Time_Amount--><rect codeLine="898" fill="#FFFFFF" filter="url(#fjt0x9gcp1duh)" height="37.9375" id="Time_Amount" style="stroke:#A80036;stroke-width:1.5;" width="115" x="411" y="166"/><ellipse cx="426" cy="184.9688" fill="#ADD0B2" rx="11" ry="11" style="stroke:#A80036;stroke-width:1.0;"/><path d="M425.5938,180.7813 L425.5938,188.7656 L426.25,188.7656 Q427.6875,188.7656 428.2969,187.8594 Q428.9219,186.9375 428.9219,184.7656 Q428.9219,182.5938 428.2969,181.6875 Q427.6875,180.7813 426.25,180.7813 L425.5938,180.7813 Z M423.1406,178.5781 L425.7656,178.5781 Q428.7969,178.5781 430.125,180.0313 Q431.4688,181.4688 431.4688,184.7656 Q431.4688,188.0625 430.125,189.5156 Q428.7969,190.9688 425.7656,190.9688 L423.1406,190.9688 L423.1406,178.5781 Z " fill="#000000"/><text fill="#000000" font-family="sans-serif" font-size="12" font-style="italic" lengthAdjust="spacing" textLength="74" x="444.5" y="182.1387">«DataType»</text><text fill="#000000" font-family="sans-serif" font-size="12" lengthAdjust="spacing" textLength="83" x="440" y="196.1074">Time_Amount</text><!--MD5=[cee4b16e9c4c3b435207f3333dc7e3c1]
class Publication_Series--><rect codeLine="59" fill="#DDEEDD" filter="url(#fjt0x9gcp1duh)" height="65.6094" id="Publication_Series" style="stroke:#A80036;stroke-width:1.5;" width="146" x="212.5" y="794"/><ellipse cx="227.5" cy="810" fill="#ADD1B2" rx="11" ry="11" style="stroke:#A80036;stroke-width:1.0;"/><path d="M230.4688,815.6406 Q229.8906,815.9375 229.25,816.0781 Q228.6094,816.2344 227.9063,816.2344 Q225.4063,816.2344 224.0781,814.5938 Q222.7656,812.9375 222.7656,809.8125 Q222.7656,806.6875 224.0781,805.0313 Q225.4063,803.375 227.9063,803.375 Q228.6094,803.375 229.25,803.5313 Q229.9063,803.6875 230.4688,803.9844 L230.4688,806.7031 Q229.8438,806.125 229.25,805.8594 Q228.6563,805.5781 228.0313,805.5781 Q226.6875,805.5781 226,806.6563 Q225.3125,807.7188 225.3125,809.8125 Q225.3125,811.9063 226,812.9844 Q226.6875,814.0469 228.0313,814.0469 Q228.6563,814.0469 229.25,813.7813 Q229.8438,813.5 230.4688,812.9219 L230.4688,815.6406 Z " fill="#000000"/><text fill="#000000" font-family="sans-serif" font-size="12" lengthAdjust="spacing" textLength="114" x="241.5" y="814.1543">Publication_Series</text><line style="stroke:#A80036;stroke-width:1.5;" x1="213.5" x2="357.5" y1="826" y2="826"/><text fill="#000000" font-family="sans-serif" font-size="11" lengthAdjust="spacing" textLength="66" x="218.5" y="840.2104">ISSN : ISSN</text><text fill="#000000" font-family="sans-serif" font-size="11" lengthAdjust="spacing" textLength="73" x="218.5" y="853.0151">eISSN : ISSN</text><!--MD5=[9a5422ab15122c8d1cd75d14414799b8]
class Journal--><rect codeLine="68" fill="#DDEEDD" filter="url(#fjt0x9gcp1duh)" height="78.4141" id="Journal" style="stroke:#A80036;stroke-width:1.5;" width="103" x="234" y="921"/><ellipse cx="261.6" cy="937" fill="#ADD1B2" rx="11" ry="11" style="stroke:#A80036;stroke-width:1.0;"/><path d="M264.5688,942.6406 Q263.9906,942.9375 263.35,943.0781 Q262.7094,943.2344 262.0063,943.2344 Q259.5063,943.2344 258.1781,941.5938 Q256.8656,939.9375 256.8656,936.8125 Q256.8656,933.6875 258.1781,932.0313 Q259.5063,930.375 262.0063,930.375 Q262.7094,930.375 263.35,930.5313 Q264.0063,930.6875 264.5688,930.9844 L264.5688,933.7031 Q263.9438,933.125 263.35,932.8594 Q262.7563,932.5781 262.1313,932.5781 Q260.7875,932.5781 260.1,933.6563 Q259.4125,934.7188 259.4125,936.8125 Q259.4125,938.9063 260.1,939.9844 Q260.7875,941.0469 262.1313,941.0469 Q262.7563,941.0469 263.35,940.7813 Q263.9438,940.5 264.5688,939.9219 L264.5688,942.6406 Z " fill="#000000"/><text fill="#000000" font-family="sans-serif" font-size="12" lengthAdjust="spacing" textLength="43" x="278.4" y="941.1543">Journal</text><line style="stroke:#A80036;stroke-width:1.5;" x1="235" x2="336" y1="953" y2="953"/><text fill="#000000" font-family="sans-serif" font-size="11" lengthAdjust="spacing" textLength="52" x="240" y="967.2104">DOI : DOI</text><text fill="#000000" font-family="sans-serif" font-size="11" lengthAdjust="spacing" textLength="91" x="240" y="980.0151">startDate : Date</text><text fill="#000000" font-family="sans-serif" font-size="11" lengthAdjust="spacing" textLength="85" x="240" y="992.8198">endDate : Date</text><!--MD5=[9d44916250b776386006c440668bcfbb]
class Agent--><rect fill="#FEFECE" filter="url(#fjt0x9gcp1duh)" height="32" id="Agent" style="stroke:#A80036;stroke-width:1.5;" width="69" x="251" y="1076"/><ellipse cx="266" cy="1092" fill="#ADD1B2" rx="11" ry="11" style="stroke:#A80036;stroke-width:1.0;"/><path d="M268.9688,1097.6406 Q268.3906,1097.9375 267.75,1098.0781 Q267.1094,1098.2344 266.4063,1098.2344 Q263.9063,1098.2344 262.5781,1096.5938 Q261.2656,1094.9375 261.2656,1091.8125 Q261.2656,1088.6875 262.5781,1087.0313 Q263.9063,1085.375 266.4063,1085.375 Q267.1094,1085.375 267.75,1085.5313 Q268.4063,1085.6875 268.9688,1085.9844 L268.9688,1088.7031 Q268.3438,1088.125 267.75,1087.8594 Q267.1563,1087.5781 266.5313,1087.5781 Q265.1875,1087.5781 264.5,1088.6563 Q263.8125,1089.7188 263.8125,1091.8125 Q263.8125,1093.9063 264.5,1094.9844 Q265.1875,1096.0469 266.5313,1096.0469 Q267.1563,1096.0469 267.75,1095.7813 Q268.3438,1095.5 268.9688,1094.9219 L268.9688,1097.6406 Z " fill="#000000"/><text fill="#000000" font-family="sans-serif" font-size="12" lengthAdjust="spacing" textLength="37" x="280" y="1096.1543">Agent</text><!--MD5=[63653625e761dfa0b192a72ef49a851b]
class Scholarly_Publication--><rect codeLine="5" fill="#DDEEDD" filter="url(#fjt0x9gcp1duh)" height="32" id="Scholarly_Publication" style="stroke:#A80036;stroke-width:1.5;" width="163" x="792" y="493"/><ellipse cx="807" cy="509" fill="#ADD1B2" rx="11" ry="11" style="stroke:#A80036;stroke-width:1.0;"/><path d="M809.9688,514.6406 Q809.3906,514.9375 808.75,515.0781 Q808.1094,515.2344 807.4063,515.2344 Q804.9063,515.2344 803.5781,513.5938 Q802.2656,511.9375 802.2656,508.8125 Q802.2656,505.6875 803.5781,504.0313 Q804.9063,502.375 807.4063,502.375 Q808.1094,502.375 808.75,502.5313 Q809.4063,502.6875 809.9688,502.9844 L809.9688,505.7031 Q809.3438,505.125 808.75,504.8594 Q808.1563,504.5781 807.5313,504.5781 Q806.1875,504.5781 805.5,505.6563 Q804.8125,506.7188 804.8125,508.8125 Q804.8125,510.9063 805.5,511.9844 Q806.1875,513.0469 807.5313,513.0469 Q808.1563,513.0469 808.75,512.7813 Q809.3438,512.5 809.9688,511.9219 L809.9688,514.6406 Z " fill="#000000"/><text fill="#000000" font-family="sans-serif" font-size="12" lengthAdjust="spacing" textLength="131" x="821" y="513.1543">Scholarly_Publication</text><!--MD5=[d22815ff63be9cac9a63f8d1ea27d033]
class Article--><rect codeLine="114" fill="#DDEEDD" filter="url(#fjt0x9gcp1duh)" height="32" id="Article" style="stroke:#A80036;stroke-width:1.5;" width="71" x="967" y="668"/><ellipse cx="982" cy="684" fill="#ADD1B2" rx="11" ry="11" style="stroke:#A80036;stroke-width:1.0;"/><path d="M984.9688,689.6406 Q984.3906,689.9375 983.75,690.0781 Q983.1094,690.2344 982.4063,690.2344 Q979.9063,690.2344 978.5781,688.5938 Q977.2656,686.9375 977.2656,683.8125 Q977.2656,680.6875 978.5781,679.0313 Q979.9063,677.375 982.4063,677.375 Q983.1094,677.375 983.75,677.5313 Q984.4063,677.6875 984.9688,677.9844 L984.9688,680.7031 Q984.3438,680.125 983.75,679.8594 Q983.1563,679.5781 982.5313,679.5781 Q981.1875,679.5781 980.5,680.6563 Q979.8125,681.7188 979.8125,683.8125 Q979.8125,685.9063 980.5,686.9844 Q981.1875,688.0469 982.5313,688.0469 Q983.1563,688.0469 983.75,687.7813 Q984.3438,687.5 984.9688,686.9219 L984.9688,689.6406 Z " fill="#000000"/><text fill="#000000" font-family="sans-serif" font-size="12" lengthAdjust="spacing" textLength="39" x="996" y="688.1543">Article</text><!--MD5=[9548cb71c0a277156e2ec959836c9b89]
class Book_Chapter--><rect codeLine="119" fill="#DDEEDD" filter="url(#fjt0x9gcp1duh)" height="32" id="Book_Chapter" style="stroke:#A80036;stroke-width:1.5;" width="119" x="774" y="811"/><ellipse cx="789" cy="827" fill="#ADD1B2" rx="11" ry="11" style="stroke:#A80036;stroke-width:1.0;"/><path d="M791.9688,832.6406 Q791.3906,832.9375 790.75,833.0781 Q790.1094,833.2344 789.4063,833.2344 Q786.9063,833.2344 785.5781,831.5938 Q784.2656,829.9375 784.2656,826.8125 Q784.2656,823.6875 785.5781,822.0313 Q786.9063,820.375 789.4063,820.375 Q790.1094,820.375 790.75,820.5313 Q791.4063,820.6875 791.9688,820.9844 L791.9688,823.7031 Q791.3438,823.125 790.75,822.8594 Q790.1563,822.5781 789.5313,822.5781 Q788.1875,822.5781 787.5,823.6563 Q786.8125,824.7188 786.8125,826.8125 Q786.8125,828.9063 787.5,829.9844 Q788.1875,831.0469 789.5313,831.0469 Q790.1563,831.0469 790.75,830.7813 Q791.3438,830.5 791.9688,829.9219 L791.9688,832.6406 Z " fill="#000000"/><text fill="#000000" font-family="sans-serif" font-size="12" lengthAdjust="spacing" textLength="87" x="803" y="831.1543">Book_Chapter</text><!--MD5=[1678d3ff9a2a61263ae88ec1bc90f6e6]
class Conference_Article--><rect codeLine="124" fill="#DDEEDD" filter="url(#fjt0x9gcp1duh)" height="32" id="Conference_Article" style="stroke:#A80036;stroke-width:1.5;" width="149" x="928" y="811"/><ellipse cx="943" cy="827" fill="#ADD1B2" rx="11" ry="11" style="stroke:#A80036;stroke-width:1.0;"/><path d="M945.9688,832.6406 Q945.3906,832.9375 944.75,833.0781 Q944.1094,833.2344 943.4063,833.2344 Q940.9063,833.2344 939.5781,831.5938 Q938.2656,829.9375 938.2656,826.8125 Q938.2656,823.6875 939.5781,822.0313 Q940.9063,820.375 943.4063,820.375 Q944.1094,820.375 944.75,820.5313 Q945.4063,820.6875 945.9688,820.9844 L945.9688,823.7031 Q945.3438,823.125 944.75,822.8594 Q944.1563,822.5781 943.5313,822.5781 Q942.1875,822.5781 941.5,823.6563 Q940.8125,824.7188 940.8125,826.8125 Q940.8125,828.9063 941.5,829.9844 Q942.1875,831.0469 943.5313,831.0469 Q944.1563,831.0469 944.75,830.7813 Q945.3438,830.5 945.9688,829.9219 L945.9688,832.6406 Z " fill="#000000"/><text fill="#000000" font-family="sans-serif" font-size="12" lengthAdjust="spacing" textLength="117" x="957" y="831.1543">Conference_Article</text><!--MD5=[6187a6e1e3f43e4e2525b450325f9ab5]
class Journal_Article--><rect codeLine="129" fill="#DDEEDD" filter="url(#fjt0x9gcp1duh)" height="32" id="Journal_Article" style="stroke:#A80036;stroke-width:1.5;" width="120" x="1111.5" y="811"/><ellipse cx="1126.5" cy="827" fill="#ADD1B2" rx="11" ry="11" style="stroke:#A80036;stroke-width:1.0;"/><path d="M1129.4688,832.6406 Q1128.8906,832.9375 1128.25,833.0781 Q1127.6094,833.2344 1126.9063,833.2344 Q1124.4063,833.2344 1123.0781,831.5938 Q1121.7656,829.9375 1121.7656,826.8125 Q1121.7656,823.6875 1123.0781,822.0313 Q1124.4063,820.375 1126.9063,820.375 Q1127.6094,820.375 1128.25,820.5313 Q1128.9063,820.6875 1129.4688,820.9844 L1129.4688,823.7031 Q1128.8438,823.125 1128.25,822.8594 Q1127.6563,822.5781 1127.0313,822.5781 Q1125.6875,822.5781 1125,823.6563 Q1124.3125,824.7188 1124.3125,826.8125 Q1124.3125,828.9063 1125,829.9844 Q1125.6875,831.0469 1127.0313,831.0469 Q1127.6563,831.0469 1128.25,830.7813 Q1128.8438,830.5 1129.4688,829.9219 L1129.4688,832.6406 Z " fill="#000000"/><text fill="#000000" font-family="sans-serif" font-size="12" lengthAdjust="spacing" textLength="88" x="1140.5" y="831.1543">Journal_Article</text><!--MD5=[c141975d2abc540997c2e66953e71981]
class Conference_Abstract--><rect codeLine="134" fill="#DDEEDD" filter="url(#fjt0x9gcp1duh)" height="32" id="Conference_Abstract" style="stroke:#A80036;stroke-width:1.5;" width="163" x="1267" y="811"/><ellipse cx="1282" cy="827" fill="#ADD1B2" rx="11" ry="11" style="stroke:#A80036;stroke-width:1.0;"/><path d="M1284.9688,832.6406 Q1284.3906,832.9375 1283.75,833.0781 Q1283.1094,833.2344 1282.4063,833.2344 Q1279.9063,833.2344 1278.5781,831.5938 Q1277.2656,829.9375 1277.2656,826.8125 Q1277.2656,823.6875 1278.5781,822.0313 Q1279.9063,820.375 1282.4063,820.375 Q1283.1094,820.375 1283.75,820.5313 Q1284.4063,820.6875 1284.9688,820.9844 L1284.9688,823.7031 Q1284.3438,823.125 1283.75,822.8594 Q1283.1563,822.5781 1282.5313,822.5781 Q1281.1875,822.5781 1280.5,823.6563 Q1279.8125,824.7188 1279.8125,826.8125 Q1279.8125,828.9063 1280.5,829.9844 Q1281.1875,831.0469 1282.5313,831.0469 Q1283.1563,831.0469 1283.75,830.7813 Q1284.3438,830.5 1284.9688,829.9219 L1284.9688,832.6406 Z " fill="#000000"/><text fill="#000000" font-family="sans-serif" font-size="12" lengthAdjust="spacing" textLength="131" x="1296" y="831.1543">Conference_Abstract</text><!--MD5=[dbb7ba3d0d21354681a0e7a6e103d486]
class Presentation--><rect codeLine="139" fill="#DDEEDD" filter="url(#fjt0x9gcp1duh)" height="32" id="Presentation" style="stroke:#A80036;stroke-width:1.5;" width="113" x="817" y="668"/><ellipse cx="832" cy="684" fill="#ADD1B2" rx="11" ry="11" style="stroke:#A80036;stroke-width:1.0;"/><path d="M834.9688,689.6406 Q834.3906,689.9375 833.75,690.0781 Q833.1094,690.2344 832.4063,690.2344 Q829.9063,690.2344 828.5781,688.5938 Q827.2656,686.9375 827.2656,683.8125 Q827.2656,680.6875 828.5781,679.0313 Q829.9063,677.375 832.4063,677.375 Q833.1094,677.375 833.75,677.5313 Q834.4063,677.6875 834.9688,677.9844 L834.9688,680.7031 Q834.3438,680.125 833.75,679.8594 Q833.1563,679.5781 832.5313,679.5781 Q831.1875,679.5781 830.5,680.6563 Q829.8125,681.7188 829.8125,683.8125 Q829.8125,685.9063 830.5,686.9844 Q831.1875,688.0469 832.5313,688.0469 Q833.1563,688.0469 833.75,687.7813 Q834.3438,687.5 834.9688,686.9219 L834.9688,689.6406 Z " fill="#000000"/><text fill="#000000" font-family="sans-serif" font-size="12" lengthAdjust="spacing" textLength="81" x="846" y="688.1543">Presentation</text><!--MD5=[c5673d96f261822ff1f68c6e37a11e4a]
class Preface--><rect codeLine="144" fill="#DDEEDD" filter="url(#fjt0x9gcp1duh)" height="32" id="Preface" style="stroke:#A80036;stroke-width:1.5;" width="80" x="1465.5" y="811"/><ellipse cx="1480.5" cy="827" fill="#ADD1B2" rx="11" ry="11" style="stroke:#A80036;stroke-width:1.0;"/><path d="M1483.4688,832.6406 Q1482.8906,832.9375 1482.25,833.0781 Q1481.6094,833.2344 1480.9063,833.2344 Q1478.4063,833.2344 1477.0781,831.5938 Q1475.7656,829.9375 1475.7656,826.8125 Q1475.7656,823.6875 1477.0781,822.0313 Q1478.4063,820.375 1480.9063,820.375 Q1481.6094,820.375 1482.25,820.5313 Q1482.9063,820.6875 1483.4688,820.9844 L1483.4688,823.7031 Q1482.8438,823.125 1482.25,822.8594 Q1481.6563,822.5781 1481.0313,822.5781 Q1479.6875,822.5781 1479,823.6563 Q1478.3125,824.7188 1478.3125,826.8125 Q1478.3125,828.9063 1479,829.9844 Q1479.6875,831.0469 1481.0313,831.0469 Q1481.6563,831.0469 1482.25,830.7813 Q1482.8438,830.5 1483.4688,829.9219 L1483.4688,832.6406 Z " fill="#000000"/><text fill="#000000" font-family="sans-serif" font-size="12" lengthAdjust="spacing" textLength="48" x="1494.5" y="831.1543">Preface</text><!--MD5=[bcb283912f8f05473c4d1d13596b4114]
class Correction--><rect codeLine="149" fill="#DDEEDD" filter="url(#fjt0x9gcp1duh)" height="32" id="Correction" style="stroke:#A80036;stroke-width:1.5;" width="97" x="642" y="811"/><ellipse cx="657" cy="827" fill="#ADD1B2" rx="11" ry="11" style="stroke:#A80036;stroke-width:1.0;"/><path d="M659.9688,832.6406 Q659.3906,832.9375 658.75,833.0781 Q658.1094,833.2344 657.4063,833.2344 Q654.9063,833.2344 653.5781,831.5938 Q652.2656,829.9375 652.2656,826.8125 Q652.2656,823.6875 653.5781,822.0313 Q654.9063,820.375 657.4063,820.375 Q658.1094,820.375 658.75,820.5313 Q659.4063,820.6875 659.9688,820.9844 L659.9688,823.7031 Q659.3438,823.125 658.75,822.8594 Q658.1563,822.5781 657.5313,822.5781 Q656.1875,822.5781 655.5,823.6563 Q654.8125,824.7188 654.8125,826.8125 Q654.8125,828.9063 655.5,829.9844 Q656.1875,831.0469 657.5313,831.0469 Q658.1563,831.0469 658.75,830.7813 Q659.3438,830.5 659.9688,829.9219 L659.9688,832.6406 Z " fill="#000000"/><text fill="#000000" font-family="sans-serif" font-size="12" lengthAdjust="spacing" textLength="65" x="671" y="831.1543">Correction</text><!--MD5=[042fa140da40c49659127f611bcff931]
class Comment--><rect codeLine="154" fill="#DDEEDD" filter="url(#fjt0x9gcp1duh)" height="32" id="Comment" style="stroke:#A80036;stroke-width:1.5;" width="91" x="1581" y="811"/><ellipse cx="1596" cy="827" fill="#ADD1B2" rx="11" ry="11" style="stroke:#A80036;stroke-width:1.0;"/><path d="M1598.9688,832.6406 Q1598.3906,832.9375 1597.75,833.0781 Q1597.1094,833.2344 1596.4063,833.2344 Q1593.9063,833.2344 1592.5781,831.5938 Q1591.2656,829.9375 1591.2656,826.8125 Q1591.2656,823.6875 1592.5781,822.0313 Q1593.9063,820.375 1596.4063,820.375 Q1597.1094,820.375 1597.75,820.5313 Q1598.4063,820.6875 1598.9688,820.9844 L1598.9688,823.7031 Q1598.3438,823.125 1597.75,822.8594 Q1597.1563,822.5781 1596.5313,822.5781 Q1595.1875,822.5781 1594.5,823.6563 Q1593.8125,824.7188 1593.8125,826.8125 Q1593.8125,828.9063 1594.5,829.9844 Q1595.1875,831.0469 1596.5313,831.0469 Q1597.1563,831.0469 1597.75,830.7813 Q1598.3438,830.5 1598.9688,829.9219 L1598.9688,832.6406 Z " fill="#000000"/><text fill="#000000" font-family="sans-serif" font-size="12" lengthAdjust="spacing" textLength="59" x="1610" y="831.1543">Comment</text><!--MD5=[eb0e8f8ddfdc21c3fdb48447501fec67]
class Review--><rect codeLine="159" fill="#DDEEDD" filter="url(#fjt0x9gcp1duh)" height="32" id="Review" style="stroke:#A80036;stroke-width:1.5;" width="74" x="794.5" y="169"/><ellipse cx="809.5" cy="185" fill="#ADD1B2" rx="11" ry="11" style="stroke:#A80036;stroke-width:1.0;"/><path d="M812.4688,190.6406 Q811.8906,190.9375 811.25,191.0781 Q810.6094,191.2344 809.9063,191.2344 Q807.4063,191.2344 806.0781,189.5938 Q804.7656,187.9375 804.7656,184.8125 Q804.7656,181.6875 806.0781,180.0313 Q807.4063,178.375 809.9063,178.375 Q810.6094,178.375 811.25,178.5313 Q811.9063,178.6875 812.4688,178.9844 L812.4688,181.7031 Q811.8438,181.125 811.25,180.8594 Q810.6563,180.5781 810.0313,180.5781 Q808.6875,180.5781 808,181.6563 Q807.3125,182.7188 807.3125,184.8125 Q807.3125,186.9063 808,187.9844 Q808.6875,189.0469 810.0313,189.0469 Q810.6563,189.0469 811.25,188.7813 Q811.8438,188.5 812.4688,187.9219 L812.4688,190.6406 Z " fill="#000000"/><text fill="#000000" font-family="sans-serif" font-size="12" lengthAdjust="spacing" textLength="42" x="823.5" y="189.1543">Review</text><!--MD5=[84e3a5e42879fb3231104d3c8e592439]
class Book--><rect codeLine="86" fill="#DDEEDD" filter="url(#fjt0x9gcp1duh)" height="65.6094" id="Book" style="stroke:#A80036;stroke-width:1.5;" width="85" x="522" y="794"/><ellipse cx="546.9" cy="810" fill="#ADD1B2" rx="11" ry="11" style="stroke:#A80036;stroke-width:1.0;"/><path d="M549.8688,815.6406 Q549.2906,815.9375 548.65,816.0781 Q548.0094,816.2344 547.3063,816.2344 Q544.8063,816.2344 543.4781,814.5938 Q542.1656,812.9375 542.1656,809.8125 Q542.1656,806.6875 543.4781,805.0313 Q544.8063,803.375 547.3063,803.375 Q548.0094,803.375 548.65,803.5313 Q549.3063,803.6875 549.8688,803.9844 L549.8688,806.7031 Q549.2438,806.125 548.65,805.8594 Q548.0563,805.5781 547.4313,805.5781 Q546.0875,805.5781 545.4,806.6563 Q544.7125,807.7188 544.7125,809.8125 Q544.7125,811.9063 545.4,812.9844 Q546.0875,814.0469 547.4313,814.0469 Q548.0563,814.0469 548.65,813.7813 Q549.2438,813.5 549.8688,812.9219 L549.8688,815.6406 Z " fill="#000000"/><text fill="#000000" font-family="sans-serif" font-size="12" lengthAdjust="spacing" textLength="31" x="563.1" y="814.1543">Book</text><line style="stroke:#A80036;stroke-width:1.5;" x1="523" x2="606" y1="826" y2="826"/><text fill="#000000" font-family="sans-serif" font-size="11" lengthAdjust="spacing" textLength="66" x="528" y="840.2104">ISBN : ISBN</text><text fill="#000000" font-family="sans-serif" font-size="11" lengthAdjust="spacing" textLength="73" x="528" y="853.0151">eISBN : ISBN</text><!--MD5=[28ddd777bd557917eba20f21f3df9e73]
class Books_Series--><rect codeLine="79" fill="#DDEEDD" filter="url(#fjt0x9gcp1duh)" height="32" id="Books_Series" style="stroke:#A80036;stroke-width:1.5;" width="115" x="84" y="944"/><ellipse cx="99" cy="960" fill="#ADD1B2" rx="11" ry="11" style="stroke:#A80036;stroke-width:1.0;"/><path d="M101.9688,965.6406 Q101.3906,965.9375 100.75,966.0781 Q100.1094,966.2344 99.4063,966.2344 Q96.9063,966.2344 95.5781,964.5938 Q94.2656,962.9375 94.2656,959.8125 Q94.2656,956.6875 95.5781,955.0313 Q96.9063,953.375 99.4063,953.375 Q100.1094,953.375 100.75,953.5313 Q101.4063,953.6875 101.9688,953.9844 L101.9688,956.7031 Q101.3438,956.125 100.75,955.8594 Q100.1563,955.5781 99.5313,955.5781 Q98.1875,955.5781 97.5,956.6563 Q96.8125,957.7188 96.8125,959.8125 Q96.8125,961.9063 97.5,962.9844 Q98.1875,964.0469 99.5313,964.0469 Q100.1563,964.0469 100.75,963.7813 Q101.3438,963.5 101.9688,962.9219 L101.9688,965.6406 Z " fill="#000000"/><text fill="#000000" font-family="sans-serif" font-size="12" lengthAdjust="spacing" textLength="83" x="113" y="964.1543">Books_Series</text><!--MD5=[1fdedf30c4d453a61b3bca926ec95b50]
class Monograph--><rect codeLine="93" fill="#DDEEDD" filter="url(#fjt0x9gcp1duh)" height="32" id="Monograph" style="stroke:#A80036;stroke-width:1.5;" width="103" x="536" y="944"/><ellipse cx="551" cy="960" fill="#ADD1B2" rx="11" ry="11" style="stroke:#A80036;stroke-width:1.0;"/><path d="M553.9688,965.6406 Q553.3906,965.9375 552.75,966.0781 Q552.1094,966.2344 551.4063,966.2344 Q548.9063,966.2344 547.5781,964.5938 Q546.2656,962.9375 546.2656,959.8125 Q546.2656,956.6875 547.5781,955.0313 Q548.9063,953.375 551.4063,953.375 Q552.1094,953.375 552.75,953.5313 Q553.4063,953.6875 553.9688,953.9844 L553.9688,956.7031 Q553.3438,956.125 552.75,955.8594 Q552.1563,955.5781 551.5313,955.5781 Q550.1875,955.5781 549.5,956.6563 Q548.8125,957.7188 548.8125,959.8125 Q548.8125,961.9063 549.5,962.9844 Q550.1875,964.0469 551.5313,964.0469 Q552.1563,964.0469 552.75,963.7813 Q553.3438,963.5 553.9688,962.9219 L553.9688,965.6406 Z " fill="#000000"/><text fill="#000000" font-family="sans-serif" font-size="12" lengthAdjust="spacing" textLength="71" x="565" y="964.1543">Monograph</text><!--MD5=[1d3fc7c86c948f99e0561baef175b459]
class Book_of_Chapters--><rect codeLine="98" fill="#DDEEDD" filter="url(#fjt0x9gcp1duh)" height="32" id="Book_of_Chapters" style="stroke:#A80036;stroke-width:1.5;" width="144" x="674.5" y="944"/><ellipse cx="689.5" cy="960" fill="#ADD1B2" rx="11" ry="11" style="stroke:#A80036;stroke-width:1.0;"/><path d="M692.4688,965.6406 Q691.8906,965.9375 691.25,966.0781 Q690.6094,966.2344 689.9063,966.2344 Q687.4063,966.2344 686.0781,964.5938 Q684.7656,962.9375 684.7656,959.8125 Q684.7656,956.6875 686.0781,955.0313 Q687.4063,953.375 689.9063,953.375 Q690.6094,953.375 691.25,953.5313 Q691.9063,953.6875 692.4688,953.9844 L692.4688,956.7031 Q691.8438,956.125 691.25,955.8594 Q690.6563,955.5781 690.0313,955.5781 Q688.6875,955.5781 688,956.6563 Q687.3125,957.7188 687.3125,959.8125 Q687.3125,961.9063 688,962.9844 Q688.6875,964.0469 690.0313,964.0469 Q690.6563,964.0469 691.25,963.7813 Q691.8438,963.5 692.4688,962.9219 L692.4688,965.6406 Z " fill="#000000"/><text fill="#000000" font-family="sans-serif" font-size="12" lengthAdjust="spacing" textLength="112" x="703.5" y="964.1543">Book_of_Chapters</text><!--MD5=[3e68a564cd57557f808fa49eb9c6b7fc]
class Proceedings--><rect codeLine="103" fill="#DDEEDD" filter="url(#fjt0x9gcp1duh)" height="32" id="Proceedings" style="stroke:#A80036;stroke-width:1.5;" width="110" x="390.5" y="944"/><ellipse cx="405.5" cy="960" fill="#ADD1B2" rx="11" ry="11" style="stroke:#A80036;stroke-width:1.0;"/><path d="M408.4688,965.6406 Q407.8906,965.9375 407.25,966.0781 Q406.6094,966.2344 405.9063,966.2344 Q403.4063,966.2344 402.0781,964.5938 Q400.7656,962.9375 400.7656,959.8125 Q400.7656,956.6875 402.0781,955.0313 Q403.4063,953.375 405.9063,953.375 Q406.6094,953.375 407.25,953.5313 Q407.9063,953.6875 408.4688,953.9844 L408.4688,956.7031 Q407.8438,956.125 407.25,955.8594 Q406.6563,955.5781 406.0313,955.5781 Q404.6875,955.5781 404,956.6563 Q403.3125,957.7188 403.3125,959.8125 Q403.3125,961.9063 404,962.9844 Q404.6875,964.0469 406.0313,964.0469 Q406.6563,964.0469 407.25,963.7813 Q407.8438,963.5 408.4688,962.9219 L408.4688,965.6406 Z " fill="#000000"/><text fill="#000000" font-family="sans-serif" font-size="12" lengthAdjust="spacing" textLength="78" x="419.5" y="964.1543">Proceedings</text><!--MD5=[ac13618b1a974308c1f12eb6c57723dc]
class Event--><rect fill="#FEFECE" filter="url(#fjt0x9gcp1duh)" height="32" id="Event" style="stroke:#A80036;stroke-width:1.5;" width="67" x="412" y="1076"/><ellipse cx="427" cy="1092" fill="#ADD1B2" rx="11" ry="11" style="stroke:#A80036;stroke-width:1.0;"/><path d="M429.9688,1097.6406 Q429.3906,1097.9375 428.75,1098.0781 Q428.1094,1098.2344 427.4063,1098.2344 Q424.9063,1098.2344 423.5781,1096.5938 Q422.2656,1094.9375 422.2656,1091.8125 Q422.2656,1088.6875 423.5781,1087.0313 Q424.9063,1085.375 427.4063,1085.375 Q428.1094,1085.375 428.75,1085.5313 Q429.4063,1085.6875 429.9688,1085.9844 L429.9688,1088.7031 Q429.3438,1088.125 428.75,1087.8594 Q428.1563,1087.5781 427.5313,1087.5781 Q426.1875,1087.5781 425.5,1088.6563 Q424.8125,1089.7188 424.8125,1091.8125 Q424.8125,1093.9063 425.5,1094.9844 Q426.1875,1096.0469 427.5313,1096.0469 Q428.1563,1096.0469 428.75,1095.7813 Q429.3438,1095.5 429.9688,1094.9219 L429.9688,1097.6406 Z " fill="#000000"/><text fill="#000000" font-family="sans-serif" font-size="12" lengthAdjust="spacing" textLength="35" x="441" y="1096.1543">Event</text><!--MD5=[8d7c614e8203540f95956299e63d224a]
reverse link Contribution to Contribution_to_Document--><path codeLine="210" d="M660.5,82.42 C660.5,110.39 660.5,148.03 660.5,168.75 " fill="none" id="Contribution-backto-Contribution_to_Document" style="stroke:#A80036;stroke-width:1.0;"/><polygon fill="none" points="653.5,82.18,660.5,62.18,667.5,82.18,653.5,82.18" style="stroke:#A80036;stroke-width:1.0;"/><!--MD5=[117c8d017b65f89954aa553a8ad2cfe8]
link Contribution_to_Document to Document--><path codeLine="652" d="M671.91,205.51 C685.43,228.61 708.23,267.59 725.07,296.37 " fill="none" id="Contribution_to_Document-Document" style="stroke:#A80036;stroke-width:1.0;"/><polygon fill="#A80036" points="727.72,300.9,726.6201,291.1127,725.1918,296.5863,719.7182,295.1579,727.72,300.9" style="stroke:#A80036;stroke-width:1.0;"/><polygon fill="#A80036" points="669.38,201.18,670.4799,210.9673,671.9082,205.4937,677.3818,206.9221,669.38,201.18" style="stroke:#A80036;stroke-width:1.0;"/><text fill="#000000" font-family="sans-serif" font-size="13" lengthAdjust="spacing" textLength="208" x="706.7715" y="221.1129">0..* contributions &lt;&lt;ordered&gt;&gt;</text><text fill="#000000" font-family="sans-serif" font-size="13" lengthAdjust="spacing" textLength="8" x="715.2352" y="290.0253">1</text><!--MD5=[9373bd5d5c413819ce8399fe055a7522]
link Document to Document--><path codeLine="317" d="M820.63,327.49 C840.45,327.85 855.5,330.02 855.5,334 C855.5,337.98 840.45,340.15 820.63,340.51 " fill="none" id="Document-Document" style="stroke:#A80036;stroke-width:1.0;"/><polygon fill="#000000" points="860.5908,339.0656,863.365,329.9686,857.4881,330.0754,860.5908,339.0656" style="stroke:#000000;stroke-width:1.0;"/><text fill="#000000" font-family="sans-serif" font-size="13" lengthAdjust="spacing" textLength="56" x="874.5" y="338.5669">is part of</text><text fill="#000000" font-family="sans-serif" font-size="13" lengthAdjust="spacing" textLength="23" x="828.524" y="339.6723">0..*</text><text fill="#000000" font-family="sans-serif" font-size="13" lengthAdjust="spacing" textLength="23" x="828.524" y="353.8926">0..*</text><!--MD5=[9373bd5d5c413819ce8399fe055a7522]
link Document to Document--><path codeLine="319" d="M820.73,322.09 C876.07,318.62 936.5,322.58 936.5,334 C936.5,345.42 876.07,349.38 820.73,345.91 " fill="none" id="Document-Document-1" style="stroke:#A80036;stroke-width:1.0;"/><polygon fill="#000000" points="941.1871,339.0566,944.6863,330.2132,938.82,329.8453,941.1871,339.0566" style="stroke:#000000;stroke-width:1.0;"/><text fill="#000000" font-family="sans-serif" font-size="13" lengthAdjust="spacing" textLength="164" x="955.5" y="338.5669">another representation of</text><text fill="#000000" font-family="sans-serif" font-size="13" lengthAdjust="spacing" textLength="23" x="828.6332" y="317.3917">0..*</text><text fill="#000000" font-family="sans-serif" font-size="13" lengthAdjust="spacing" textLength="23" x="828.6332" y="359.7904">0..*</text><!--MD5=[a5e4bae6c9f0200dc10df240743bae8f]
link Document to Document_Publication_Channel--><path codeLine="329" d="M672.26,346.51 C624.79,355.82 562.89,371.63 512.5,397 C489.36,408.65 466.45,424.59 446.11,440.75 " fill="none" id="Document-to-Document_Publication_Channel" style="stroke:#A80036;stroke-width:1.0;"/><polygon fill="#A80036" points="442.08,443.99,451.6077,441.4955,445.9857,440.8683,446.6129,435.2463,442.08,443.99" style="stroke:#A80036;stroke-width:1.0;"/><polygon fill="#000000" points="512.8847,407.4897,522.3643,406.7233,520.1034,401.2976,512.8847,407.4897" style="stroke:#000000;stroke-width:1.0;"/><text fill="#000000" font-family="sans-serif" font-size="13" lengthAdjust="spacing" textLength="137" x="526.5" y="410.0669">published via channel</text><text fill="#000000" font-family="sans-serif" font-size="13" lengthAdjust="spacing" textLength="24" x="424.2684" y="433.1535">0..1</text><!--MD5=[923e2afd98683ea3e231d9a7746fd074]
link Document_Publication_Channel to Publication_Channel--><path codeLine="341" d="M343.34,574.42 C332.05,598.53 319.61,625.1 309.86,645.92 " fill="none" id="Document_Publication_Channel-to-Publication_Channel" style="stroke:#A80036;stroke-width:1.0;"/><polygon fill="#A80036" points="307.7,650.54,315.1485,644.0964,309.8269,646.0149,307.9084,640.6933,307.7,650.54" style="stroke:#A80036;stroke-width:1.0;"/><polygon fill="#000000" points="331.3797,617.0946,337.877,610.1493,332.5538,607.6568,331.3797,617.0946" style="stroke:#000000;stroke-width:1.0;"/><text fill="#000000" font-family="sans-serif" font-size="13" lengthAdjust="spacing" textLength="76" x="342.5" y="617.0669">published in</text><text fill="#000000" font-family="sans-serif" font-size="13" lengthAdjust="spacing" textLength="24" x="284.31" y="639.8488">0..1</text><!--MD5=[6e6eb0bcfa925f358f50965a26c1075d]
reverse link Publication_Channel to Repository--><path codeLine="346" d="M237.82,730.35 C204.49,757.99 164.01,791.57 140.95,810.7 " fill="none" id="Publication_Channel-backto-Repository" style="stroke:#A80036;stroke-width:1.0;"/><polygon fill="none" points="233.64,724.73,253.5,717.35,242.57,735.5,233.64,724.73" style="stroke:#A80036;stroke-width:1.0;"/><!--MD5=[d1980c18a8a7985280aab3255201d86c]
reverse link Infrastructure to Repository--><path codeLine="348" d="M113.49,720.1 C115.96,749.14 119.35,789 121.19,810.59 " fill="none" id="Infrastructure-backto-Repository" style="stroke:#A80036;stroke-width:1.0;"/><polygon fill="none" points="106.51,720.61,111.78,700.09,120.46,719.42,106.51,720.61" style="stroke:#A80036;stroke-width:1.0;"/><!--MD5=[a68abcec40f40f5cbbbda0c1525bfe1a]
reverse link Publication_Channel to Publication_Series--><path codeLine="64" d="M289.89,737.57 C288.95,756.45 287.92,777.17 287.1,793.8 " fill="none" id="Publication_Channel-backto-Publication_Series" style="stroke:#A80036;stroke-width:1.0;"/><polygon fill="none" points="282.91,736.98,290.89,717.35,296.89,737.67,282.91,736.98" style="stroke:#A80036;stroke-width:1.0;"/><!--MD5=[82e06a9ab4eb01586ad4d1c674f71186]
reverse link Publication_Series to Journal--><path codeLine="74" d="M285.5,880.29 C285.5,893.81 285.5,908.11 285.5,920.76 " fill="none" id="Publication_Series-backto-Journal" style="stroke:#A80036;stroke-width:1.0;"/><polygon fill="none" points="278.5,880.05,285.5,860.05,292.5,880.05,278.5,880.05" style="stroke:#A80036;stroke-width:1.0;"/><!--MD5=[88f40439064ff4845bc7e4cfd1a224e6]
reverse link Journal to Journal--><path codeLine="228" d="M350.18,947.79 C362.93,949.19 372,953.26 372,960 C372,968.9 356.2,973.14 337.01,972.72 " fill="none" id="Journal-backto-Journal" style="stroke:#A80036;stroke-width:1.0;"/><polygon fill="#FFFFFF" points="337.01,947.28,342.8517,951.5079,349.0011,947.7417,343.1595,943.5138,337.01,947.28" style="stroke:#A80036;stroke-width:1.0;"/><text fill="#000000" font-family="sans-serif" font-size="13" lengthAdjust="spacing" textLength="113" x="324.5652" y="996.3259">0..* predecessors</text><!--MD5=[a0fe4bcc2e634d581797c23ae087e232]
reverse link Journal to Agent--><path codeLine="231" d="M285.5,1012.36 C285.5,1035.15 285.5,1060.28 285.5,1075.86 " fill="none" id="Journal-backto-Agent" style="stroke:#A80036;stroke-width:1.0;"/><polygon fill="#FFFFFF" points="285.5,999.3,281.5,1005.3,285.5,1011.3,289.5,1005.3,285.5,999.3" style="stroke:#A80036;stroke-width:1.0;"/><text fill="#000000" font-family="sans-serif" font-size="13" lengthAdjust="spacing" textLength="92" x="177.6875" y="1064.8235">0..* publishers</text><!--MD5=[c8d1862492c5b5e25951e586acc2f1e2]
reverse link Document to Scholarly_Publication--><path codeLine="10" d="M782.16,383.58 C809.11,420.28 844.39,468.34 862.19,492.59 " fill="none" id="Document-backto-Scholarly_Publication" style="stroke:#A80036;stroke-width:1.0;"/><polygon fill="none" points="776.28,387.4,770.09,367.13,787.57,379.11,776.28,387.4" style="stroke:#A80036;stroke-width:1.0;"/><!--MD5=[ff21ff78bda4a9da792f658c602cf652]
reverse link Scholarly_Publication to Article--><path codeLine="117" d="M896.8,541.25 C924.67,578.63 970.19,639.68 991.21,667.86 " fill="none" id="Scholarly_Publication-backto-Article" style="stroke:#A80036;stroke-width:1.0;"/><polygon fill="none" points="891.07,545.27,884.72,525.05,902.29,536.9,891.07,545.27" style="stroke:#A80036;stroke-width:1.0;"/><!--MD5=[e08cfb285a4e8ed248d07b84efca5d5e]
reverse link Article to Book_Chapter--><path codeLine="122" d="M968.83,713.09 C933.62,742.47 879.67,787.48 851.71,810.81 " fill="none" id="Article-backto-Book_Chapter" style="stroke:#A80036;stroke-width:1.0;"/><polygon fill="none" points="964.57,707.53,984.41,700.09,973.54,718.28,964.57,707.53" style="stroke:#A80036;stroke-width:1.0;"/><!--MD5=[90d211e9335c6fbad58e70470042855a]
reverse link Article to Conference_Article--><path codeLine="127" d="M1002.5,720.1 C1002.5,749.14 1002.5,789 1002.5,810.59 " fill="none" id="Article-backto-Conference_Article" style="stroke:#A80036;stroke-width:1.0;"/><polygon fill="none" points="995.5,720.09,1002.5,700.09,1009.5,720.09,995.5,720.09" style="stroke:#A80036;stroke-width:1.0;"/><!--MD5=[f7e3c478638caf5f09f8f1ad52009cc0]
reverse link Article to Journal_Article--><path codeLine="132" d="M1036.17,713.09 C1071.38,742.47 1125.33,787.48 1153.29,810.81 " fill="none" id="Article-backto-Journal_Article" style="stroke:#A80036;stroke-width:1.0;"/><polygon fill="none" points="1031.46,718.28,1020.59,700.09,1040.43,707.53,1031.46,718.28" style="stroke:#A80036;stroke-width:1.0;"/><!--MD5=[015a30f30a1582e7d453b283b4fda6e0]
reverse link Article to Conference_Abstract--><path codeLine="137" d="M1056.81,707.13 C1127.88,736.09 1250.55,786.08 1311.67,810.99 " fill="none" id="Article-backto-Conference_Abstract" style="stroke:#A80036;stroke-width:1.0;"/><polygon fill="none" points="1054.1,713.59,1038.22,699.56,1059.39,700.62,1054.1,713.59" style="stroke:#A80036;stroke-width:1.0;"/><!--MD5=[141cb29c915b562238a99a9676f0a8b1]
reverse link Scholarly_Publication to Presentation--><path codeLine="142" d="M873.5,545.15 C873.5,582.75 873.5,640.64 873.5,667.86 " fill="none" id="Scholarly_Publication-backto-Presentation" style="stroke:#A80036;stroke-width:1.0;"/><polygon fill="none" points="866.5,545.05,873.5,525.05,880.5,545.05,866.5,545.05" style="stroke:#A80036;stroke-width:1.0;"/><!--MD5=[d000c977187c1e4acefaca54127e73fb]
reverse link Article to Preface--><path codeLine="147" d="M1058,693.73 C1143.64,708.28 1312.25,741.2 1447.5,794 C1459.18,798.56 1471.43,805.04 1481.64,810.97 " fill="none" id="Article-backto-Preface" style="stroke:#A80036;stroke-width:1.0;"/><polygon fill="none" points="1056.67,700.61,1038.08,690.43,1058.96,686.8,1056.67,700.61" style="stroke:#A80036;stroke-width:1.0;"/><!--MD5=[e8524118e49b2d8a8908a1a0110320f8]
reverse link Article to Correction--><path codeLine="152" d="M960.76,710.11 C956.33,712.53 951.85,714.87 947.5,717 C865.29,757.23 840.17,756.9 756.5,794 C744.63,799.26 731.74,805.41 720.53,810.91 " fill="none" id="Article-backto-Correction" style="stroke:#A80036;stroke-width:1.0;"/><polygon fill="none" points="957.43,703.95,978.27,700.11,964.38,716.11,957.43,703.95" style="stroke:#A80036;stroke-width:1.0;"/><!--MD5=[5a239de7bfd61ab9339b8d0fffec56c1]
reverse link Article to Comment--><path codeLine="157" d="M1058.28,690.11 C1160.86,700.75 1385.27,729.83 1563.5,794 C1576.08,798.53 1589.37,805 1600.48,810.94 " fill="none" id="Article-backto-Comment" style="stroke:#A80036;stroke-width:1.0;"/><polygon fill="none" points="1057.5,697.07,1038.3,688.11,1058.9,683.14,1057.5,697.07" style="stroke:#A80036;stroke-width:1.0;"/><!--MD5=[dc9902982bef3c193f6869104bfc5c17]
reverse link Scholarly_Publication to Comment--><path codeLine="162" d="M931.52,532.3 C1037.45,573.27 1269.02,663.92 1461.5,747 C1507.33,766.78 1518.57,772.25 1563.5,794 C1574.65,799.4 1586.81,805.52 1597.45,810.95 " fill="none" id="Scholarly_Publication-backto-Comment" style="stroke:#A80036;stroke-width:1.0;"/><polygon fill="none" points="928.78,538.75,912.65,525.02,933.82,525.69,928.78,538.75" style="stroke:#A80036;stroke-width:1.0;"/><!--MD5=[3116d22d8e7eb73411c9fde69f28bf35]
link Article to Book--><path codeLine="164" d="M980.94,700.06 C971.15,706.23 959.16,712.87 947.5,717 C865.68,746 838.6,725.48 754.5,747 C694.98,762.23 680.64,769.04 624.5,794 C618.78,796.54 612.86,799.4 607.06,802.34 " fill="none" id="Article-Book" style="stroke:#A80036;stroke-width:1.0;"/><polygon fill="#000000" points="754.6772,756.8857,764.1772,757.3338,762.6262,751.6643,754.6772,756.8857" style="stroke:#000000;stroke-width:1.0;"/><text fill="#000000" font-family="sans-serif" font-size="13" lengthAdjust="spacing" textLength="56" x="768.5" y="760.0669">is part of</text><text fill="#000000" font-family="sans-serif" font-size="13" lengthAdjust="spacing" textLength="23" x="946.9889" y="719.9531">0..*</text><text fill="#000000" font-family="sans-serif" font-size="13" lengthAdjust="spacing" textLength="24" x="615.0735" y="794.7218">0..1</text><!--MD5=[35540ce9c7cd0b404c8da5a40c00a099]
link Comment to Document--><path codeLine="166" d="M1603.96,810.82 C1579.82,794.66 1540.28,768.51 1505.5,747 C1273.77,603.64 1214.16,569.91 972.5,444 C920.54,416.93 860.79,388.22 815.79,367.06 " fill="none" id="Comment-Document" style="stroke:#A80036;stroke-width:1.0;"/><polygon fill="#000000" points="1299.1431,610.1134,1305.5829,617.1119,1308.4667,611.99,1299.1431,610.1134" style="stroke:#000000;stroke-width:1.0;"/><text fill="#000000" font-family="sans-serif" font-size="13" lengthAdjust="spacing" textLength="17" x="1312.5" y="617.0669">for</text><text fill="#000000" font-family="sans-serif" font-size="13" lengthAdjust="spacing" textLength="23" x="1569.6843" y="800.0649">0..*</text><text fill="#000000" font-family="sans-serif" font-size="13" lengthAdjust="spacing" textLength="24" x="802.3528" y="386.6534">1..1</text><!--MD5=[156032de9de984a72811493b5365041c]
link Correction to Document--><path codeLine="168" d="M692.24,810.77 C700.04,742.37 731.92,462.8 742.83,367.22 " fill="none" id="Correction-Document" style="stroke:#A80036;stroke-width:1.0;"/><polygon fill="#000000" points="721.0666,607.5986,717.1216,616.2524,722.9616,616.9185,721.0666,607.5986" style="stroke:#000000;stroke-width:1.0;"/><text fill="#000000" font-family="sans-serif" font-size="13" lengthAdjust="spacing" textLength="17" x="729.5" y="617.0669">for</text><text fill="#000000" font-family="sans-serif" font-size="13" lengthAdjust="spacing" textLength="23" x="666.007" y="799.9983">0..*</text><text fill="#000000" font-family="sans-serif" font-size="13" lengthAdjust="spacing" textLength="24" x="716.0388" y="386.5868">1..1</text><!--MD5=[65c28c831bedeb4e09ad45806825d0d7]
link Review to Document--><path codeLine="170" d="M822.72,201.18 C809.19,224.58 782.93,269.99 765.06,300.9 " fill="none" id="Review-Document" style="stroke:#A80036;stroke-width:1.0;"/><polygon fill="#000000" points="794.9972,266.8949,802.0691,260.5357,796.9806,257.5935,794.9972,266.8949" style="stroke:#000000;stroke-width:1.0;"/><text fill="#000000" font-family="sans-serif" font-size="13" lengthAdjust="spacing" textLength="17" x="806.5" y="267.0669">for</text><text fill="#000000" font-family="sans-serif" font-size="13" lengthAdjust="spacing" textLength="23" x="764.23" y="213.5531">0..*</text><text fill="#000000" font-family="sans-serif" font-size="13" lengthAdjust="spacing" textLength="24" x="742.3515" y="290.0253">1..1</text><!--MD5=[627e83909374e01cbfbf39a0b3a2ccc9]
reverse link Publication_Series to Books_Series--><path codeLine="82" d="M235.46,873.53 C208.48,898.07 176.96,926.75 158.14,943.86 " fill="none" id="Publication_Series-backto-Books_Series" style="stroke:#A80036;stroke-width:1.0;"/><polygon fill="none" points="230.77,868.33,250.27,860.05,240.19,878.68,230.77,868.33" style="stroke:#A80036;stroke-width:1.0;"/><!--MD5=[920dbc02ad6ee35fbd11578537595a2c]
reverse link Scholarly_Publication to Book--><path codeLine="91" d="M844.54,539.62 C786.4,599.08 655.91,732.52 595.84,793.95 " fill="none" id="Scholarly_Publication-backto-Book" style="stroke:#A80036;stroke-width:1.0;"/><polygon fill="none" points="839.61,534.65,858.6,525.24,849.62,544.44,839.61,534.65" style="stroke:#A80036;stroke-width:1.0;"/><!--MD5=[d52e6561338e80eedd2b03ae48a4f63f]
reverse link Book to Monograph--><path codeLine="96" d="M573.59,879.77 C577.63,902.79 582.09,928.18 584.84,943.86 " fill="none" id="Book-backto-Monograph" style="stroke:#A80036;stroke-width:1.0;"/><polygon fill="none" points="566.69,880.96,570.13,860.05,580.48,878.53,566.69,880.96" style="stroke:#A80036;stroke-width:1.0;"/><!--MD5=[be5acf856e3b1436226f6f610e2e3ad1]
reverse link Book to Book_of_Chapters--><path codeLine="101" d="M623.65,870.58 C658.63,895.75 700.78,926.09 725.51,943.89 " fill="none" id="Book-backto-Book_of_Chapters" style="stroke:#A80036;stroke-width:1.0;"/><polygon fill="none" points="619.31,876.08,607.17,858.71,627.49,864.72,619.31,876.08" style="stroke:#A80036;stroke-width:1.0;"/><!--MD5=[c22689e717faa2fabf905c5f2e38b0df]
reverse link Book to Proceedings--><path codeLine="106" d="M521.9,874.9 C499.89,899.13 474.51,927.06 459.25,943.86 " fill="none" id="Book-backto-Proceedings" style="stroke:#A80036;stroke-width:1.0;"/><polygon fill="none" points="516.76,870.14,535.39,860.05,527.12,879.56,516.76,870.14" style="stroke:#A80036;stroke-width:1.0;"/><!--MD5=[e6ee1708b4a1f668cbe1fab1cc8318e7]
reverse link Proceedings to Event--><path codeLine="108" d="M445.5,989.53 C445.5,1016.15 445.5,1054.85 445.5,1075.93 " fill="none" id="Proceedings-backto-Event" style="stroke:#A80036;stroke-width:1.0;"/><polygon fill="#A80036" points="445.5,976.17,441.5,982.17,445.5,988.17,449.5,982.17,445.5,976.17" style="stroke:#A80036;stroke-width:1.0;"/><polygon fill="#000000" points="450.5,1042.5664,453.4389,1033.5213,447.5611,1033.5213,450.5,1042.5664" style="stroke:#000000;stroke-width:1.0;"/><text fill="#000000" font-family="sans-serif" font-size="13" lengthAdjust="spacing" textLength="36" x="459.5" y="1042.0669">event</text><text fill="#000000" font-family="sans-serif" font-size="13" lengthAdjust="spacing" textLength="24" x="417.375" y="1064.9175">0..1</text><!--MD5=[fff98fb841abcbe26b16c11e8e8f730a]
link Text to Video--><!--MD5=[986da1b09e486a4a0cd6ac5eea2f7149]
link Video to Audio--><!--MD5=[44f03a4eb79f7f566c42aa7e8a1ef720]
link Text to Tangible--><!--MD5=[af170d6ab6332b5900f1e17795295ab6]
link Tangible to Downloadable--><!--MD5=[ef020e022caf9f7857359850acb56864]
link Downloadable to Time_Amount--><!--MD5=[0fd845c569e8fb7adae6d586a5035ae6]
@startuml

    !includesub ../../CERIF-Core/diagrams/core.puml!common
    !includesub ../../CERIF-Core/diagrams/core.puml!Contribution_to_Document
    !includesub ../../CERIF-Core/diagrams/core.puml!Document
    !includesub ../../CERIF-Core/diagrams/core.puml!Publication_Channel
    !includesub ../../CERIF-Core/diagrams/core.puml!Form

    !includesub ./module.puml!Publication_Series
    !includesub ./module.puml!Journal
    !includesub ./module.puml!Scholarly_Publication
    !includesub ./module.puml!Article
    !includesub ./module.puml!Books_Series
    !includesub ./module.puml!Book


@enduml

@startuml

    hide empty members
    skinparam BoxPadding 120
    class "Contribution_to_Document" #ffffff {
    }
    "Contribution" <|-d- "Contribution_to_Document"
    "Contribution_to_Document" "0..* contributions <<ordered>>" <- -> "1" "Document"
    class "Document" #ffffff {
        title : Multilingual_String
        publicationDate : Date
    }

    "Document" "0..*" - - "0..*" "Document" : is part of >

    "Document" "0..*" - - "0..*" "Document" : another representation of >

    class "Publication_Channel" #ffffff {
        title : Multilingual_String
        acronym : Multilingual_String
    }

    "Document" - -> "0..1" "Document_Publication_Channel" : published via channel >

    class "Document_Publication_Channel" #ffffff {
        startPage : String
        endPage : String
        articleNumber : String
        volume : String
        number : String
        startFrame : Time
        endFrame : Time
    }

    "Document_Publication_Channel" - -> "0..1" "Publication_Channel" : published in >

    class "Repository" #ffffff {
    }

    "Publication_Channel" <|- - "Repository"

    "Infrastructure" <|- - "Repository"

    class "Text" #ffffff {
        numberOfPages : Decimal
        numberOfWords : Decimal
        numberOfCharacters : Decimal
    }

    class "Video" #ffffff {
        duration : Time_Amount
    }

    class "Audio" #ffffff {
        duration : Time_Amount
    }

    class "Tangible" #ffffff {
    }

    class "Downloadable" #ffffff {
        downloadURL : Website_Address
        mimeType    : String
        size        : Decimal
    }

    class Time_Amount << (D,#add0b2) DataType>> #ffffff {
    }


        class "Publication_Series" #ddeedd {
            ISSN : ISSN
            eISSN : ISSN
        }

        "Publication_Channel" <|- - "Publication_Series"
        class "Journal" #ddeedd {
            DOI : DOI
            startDate : Date
            endDate : Date
        }

        "Publication_Series" <|- - "Journal"

        "Journal" o- - "0..* predecessors" "Journal"
        "Journal" o- -  "0..* publishers" "Agent"
        class "Scholarly_Publication" #ddeedd {
        }
        "Document" <|- - "Scholarly_Publication"
        class "Article" #ddeedd {
        }

        "Scholarly_Publication" <|- - "Article"

        class "Book_Chapter" #ddeedd {
        }

        "Article" <|- - "Book_Chapter"

        class "Conference_Article" #ddeedd {
        }

        "Article" <|- - "Conference_Article"

         class "Journal_Article" #ddeedd {
         }

         "Article" <|- - "Journal_Article"

         class "Conference_Abstract" #ddeedd {
         }

         "Article" <|- - "Conference_Abstract"

         class "Presentation" #ddeedd {
         }

         "Scholarly_Publication" <|- - "Presentation"

         class "Preface" #ddeedd {
         }

         "Article" <|- - "Preface"

         class "Correction" #ddeedd {
         }

         "Article" <|- - "Correction"

         class "Comment" #ddeedd {
         }

         "Article" <|- - "Comment"

         class "Review" #ddeedd {
         }

         "Scholarly_Publication" <|- - "Comment"

         "Article" "0..*" - - "0..1" "Book" : is part of >

         "Comment" "0..*" - - "1..1" "Document" : for >

         "Correction" "0..*" - - "1..1" "Document" : for >

         "Review" "0..*" - - "1..1" "Document" : for >

        class "Books_Series" #ddeedd {
        }

        "Publication_Series" <|- - "Books_Series"
        class "Book" #ddeedd {
            ISBN : ISBN
            eISBN : ISBN
        }

        "Scholarly_Publication" <|- - "Book"

        class "Monograph" #ddeedd {
        }

        "Book" <|- - "Monograph"

        class "Book_of_Chapters" #ddeedd {
        }

        "Book" <|- - "Book_of_Chapters"

        class "Proceedings" #ddeedd {
        }

        "Book" <|- - "Proceedings"

        "Proceedings" *- - "0..1" "Event" : event >




@enduml

PlantUML version 1.2021.8(Sat Jun 26 08:20:59 UTC 2021)
(GPL source distribution)
Java Runtime: OpenJDK Runtime Environment
JVM: OpenJDK 64-Bit Server VM
Default Encoding: UTF-8
Language: en
Country: null
--></g></svg>